M48
; DRILL file {KiCad (5.1.10-1-10_14)} date Wednesday, July 28, 2021 at 03:37:58 PM
; FORMAT={-:-/ absolute / inch / decimal}
; #@! TF.CreationDate,2021-07-28T15:37:58-04:00
; #@! TF.GenerationSoftware,Kicad,Pcbnew,(5.1.10-1-10_14)
FMAT,2
INCH
T1C0.0079
T2C0.0118
T3C0.0157
T4C0.0197
%
G90
G05
T1
X3.035Y-3.425
X3.035Y-3.6
X3.035Y-3.715
X3.0425Y-3.2425
X3.11Y-3.73
X3.115Y-3.965
X3.145Y-3.335
X3.145Y-3.515
X3.185Y-3.85
X3.235Y-3.235
X3.3248Y-3.3268
X3.3248Y-3.4055
X3.435Y-3.235
X3.45Y-3.545
X3.47Y-3.79
X3.5Y-3.545
X3.52Y-3.82
X3.55Y-3.545
X3.6Y-3.48
X3.62Y-3.53
X3.635Y-3.235
X3.65Y-3.8
X3.7Y-3.48
X3.75Y-3.53
X3.8Y-3.48
X3.8Y-3.58
X3.835Y-3.235
X3.835Y-3.855
X3.85Y-3.48
X3.85Y-3.58
X3.9Y-3.48
X3.9Y-3.58
X3.935Y-3.855
X3.95Y-3.48
X3.95Y-3.58
X4.0Y-3.48
X4.0Y-3.58
X4.035Y-3.235
X4.045Y-3.855
X4.095Y-3.52
X4.135Y-3.345
X4.15Y-3.74
X4.235Y-3.235
X4.285Y-3.755
X4.335Y-3.345
X4.335Y-3.855
X4.345Y-3.755
X4.355Y-3.675
X4.38Y-3.84
X4.39Y-3.645
X4.3925Y-3.71
X4.41Y-3.565
X4.425Y-3.52
X4.425Y-3.68
X4.43Y-3.64
X4.435Y-3.235
X4.44Y-3.755
X4.465Y-3.62
X4.495Y-3.66
X4.515Y-3.77
X4.525Y-3.62
X4.535Y-3.345
X4.535Y-3.6725
X4.575Y-3.66
X4.635Y-3.235
X4.635Y-3.855
X4.68Y-3.84
X4.71Y-3.52
X4.78Y-3.84
X4.82Y-3.84
X4.865Y-3.235
X4.95Y-3.58
X4.965Y-3.2875
X4.97Y-3.5275
X5.0Y-3.58
X5.05Y-3.48
X5.05Y-3.87
X5.065Y-3.235
X5.15Y-3.48
X5.15Y-3.58
X5.2Y-3.48
X5.2Y-3.58
X5.25Y-3.48
X5.25Y-3.58
X5.25Y-3.87
X5.265Y-3.235
X5.3Y-3.48
X5.3Y-3.58
X5.35Y-3.48
X5.35Y-3.58
X5.465Y-3.235
X5.475Y-3.835
X5.5425Y-3.6425
X5.5425Y-3.7
X5.5492Y-3.5
X5.6299Y-3.4075
X5.635Y-3.795
X5.65Y-3.87
X5.665Y-3.235
X5.675Y-3.835
X5.7402Y-3.6024
X5.75Y-3.8525
X5.7795Y-3.5492
X5.8031Y-3.7992
X5.811Y-3.6024
X5.8287Y-3.4193
X5.8622Y-3.7402
X5.865Y-3.235
X5.874Y-3.5492
X5.939Y-3.3976
X6.0039Y-3.4114
X6.065Y-3.235
X6.0906Y-3.4114
X6.128Y-3.3976
X6.1634Y-3.4114
X6.1949Y-3.3878
X6.2382Y-3.5138
X6.2441Y-3.561
X6.245Y-3.785
X6.265Y-3.235
X6.35Y-3.695
X6.35Y-3.88
X6.4575Y-3.2425
X6.465Y-3.425
X6.465Y-3.605
X6.465Y-3.785
X6.465Y-3.965
T2
X3.395Y-3.705
X3.4225Y-3.405
X3.4225Y-3.655
X3.45Y-3.3275
X3.45Y-3.4825
X3.45Y-3.58
X3.45Y-3.7325
X4.05Y-3.2925
X4.05Y-3.5775
X4.0775Y-3.655
X4.105Y-3.705
X4.8Y-3.3025
X4.8Y-3.5225
X4.8Y-3.5775
X4.8Y-3.7325
X5.4Y-3.3275
X5.4Y-3.48
X5.4Y-3.5775
X5.4Y-3.7325
X5.4275Y-3.405
X5.455Y-3.705
X5.6969Y-3.6437
X5.6969Y-3.6988
X5.7402Y-3.7421
X5.7835Y-3.6988
X5.7854Y-3.6378
X5.8346Y-3.5217
X5.9134Y-3.5217
X6.0433Y-3.439
X6.0453Y-3.5059
X6.1339Y-3.5079
X6.1378Y-3.4469
T3
X3.3Y-3.64
X3.3Y-3.705
X3.3Y-3.89
X3.35Y-3.595
X3.35Y-3.75
X3.4Y-3.89
X3.5Y-3.89
X3.6Y-3.89
X3.7Y-3.89
X3.8Y-3.89
X3.9Y-3.89
X4.0Y-3.89
X4.1Y-3.89
X4.15Y-3.595
X4.2Y-3.705
X4.2Y-3.89
X4.205Y-3.625
X4.3Y-3.89
X4.4Y-3.89
X4.5Y-3.89
X4.6Y-3.89
X4.635Y-3.615
X4.65Y-3.705
X4.7Y-3.595
X4.7Y-3.75
X4.7Y-3.89
X4.8Y-3.89
X4.9Y-3.89
X5.0Y-3.89
X5.1Y-3.89
X5.2Y-3.89
X5.3Y-3.89
X5.4Y-3.89
X5.5Y-3.59
X5.5Y-3.75
X5.5Y-3.89
X5.6Y-3.89
X5.7Y-3.89
X5.8Y-3.89
X5.9Y-3.89
X5.9055Y-3.7047
X5.9075Y-3.6378
X5.9547Y-3.5965
X5.9547Y-3.7461
X6.0Y-3.89
X6.0039Y-3.6299
X6.0039Y-3.7047
X6.0394Y-3.5827
X6.0413Y-3.7126
X6.0768Y-3.7598
X6.1Y-3.89
X6.1122Y-3.7126
X6.1142Y-3.5827
X6.1496Y-3.6299
X6.2Y-3.595
X6.2Y-3.89
X6.25Y-3.64
X6.25Y-3.705
T4
X6.2Y-3.755
T0
M30
