G04 #@! TF.GenerationSoftware,KiCad,Pcbnew,(5.1.10-1-10_14)*
G04 #@! TF.CreationDate,2021-07-01T19:13:21-04:00*
G04 #@! TF.ProjectId,GW4194-SOJ,47573431-3934-42d5-934f-4a2e6b696361,1.0-SOJ*
G04 #@! TF.SameCoordinates,Original*
G04 #@! TF.FileFunction,Paste,Top*
G04 #@! TF.FilePolarity,Positive*
%FSLAX46Y46*%
G04 Gerber Fmt 4.6, Leading zero omitted, Abs format (unit mm)*
G04 Created by KiCad (PCBNEW (5.1.10-1-10_14)) date 2021-07-01 19:13:21*
%MOMM*%
%LPD*%
G01*
G04 APERTURE LIST*
G04 APERTURE END LIST*
G36*
G01*
X151965000Y-87480000D02*
X151965000Y-87220000D01*
G75*
G02*
X152095000Y-87090000I130000J0D01*
G01*
X152905000Y-87090000D01*
G75*
G02*
X153035000Y-87220000I0J-130000D01*
G01*
X153035000Y-87480000D01*
G75*
G02*
X152905000Y-87610000I-130000J0D01*
G01*
X152095000Y-87610000D01*
G75*
G02*
X151965000Y-87480000I0J130000D01*
G01*
G37*
G36*
G01*
X151965000Y-88167500D02*
X151965000Y-87982500D01*
G75*
G02*
X152057500Y-87890000I92500J0D01*
G01*
X152942500Y-87890000D01*
G75*
G02*
X153035000Y-87982500I0J-92500D01*
G01*
X153035000Y-88167500D01*
G75*
G02*
X152942500Y-88260000I-92500J0D01*
G01*
X152057500Y-88260000D01*
G75*
G02*
X151965000Y-88167500I0J92500D01*
G01*
G37*
G36*
G01*
X151965000Y-88817500D02*
X151965000Y-88632500D01*
G75*
G02*
X152057500Y-88540000I92500J0D01*
G01*
X152942500Y-88540000D01*
G75*
G02*
X153035000Y-88632500I0J-92500D01*
G01*
X153035000Y-88817500D01*
G75*
G02*
X152942500Y-88910000I-92500J0D01*
G01*
X152057500Y-88910000D01*
G75*
G02*
X151965000Y-88817500I0J92500D01*
G01*
G37*
G36*
G01*
X151965000Y-89580000D02*
X151965000Y-89320000D01*
G75*
G02*
X152095000Y-89190000I130000J0D01*
G01*
X152905000Y-89190000D01*
G75*
G02*
X153035000Y-89320000I0J-130000D01*
G01*
X153035000Y-89580000D01*
G75*
G02*
X152905000Y-89710000I-130000J0D01*
G01*
X152095000Y-89710000D01*
G75*
G02*
X151965000Y-89580000I0J130000D01*
G01*
G37*
G36*
G01*
X148665000Y-89580000D02*
X148665000Y-89320000D01*
G75*
G02*
X148795000Y-89190000I130000J0D01*
G01*
X149605000Y-89190000D01*
G75*
G02*
X149735000Y-89320000I0J-130000D01*
G01*
X149735000Y-89580000D01*
G75*
G02*
X149605000Y-89710000I-130000J0D01*
G01*
X148795000Y-89710000D01*
G75*
G02*
X148665000Y-89580000I0J130000D01*
G01*
G37*
G36*
G01*
X148665000Y-88805000D02*
X148665000Y-88645000D01*
G75*
G02*
X148745000Y-88565000I80000J0D01*
G01*
X149655000Y-88565000D01*
G75*
G02*
X149735000Y-88645000I0J-80000D01*
G01*
X149735000Y-88805000D01*
G75*
G02*
X149655000Y-88885000I-80000J0D01*
G01*
X148745000Y-88885000D01*
G75*
G02*
X148665000Y-88805000I0J80000D01*
G01*
G37*
G36*
G01*
X148665000Y-88155000D02*
X148665000Y-87995000D01*
G75*
G02*
X148745000Y-87915000I80000J0D01*
G01*
X149655000Y-87915000D01*
G75*
G02*
X149735000Y-87995000I0J-80000D01*
G01*
X149735000Y-88155000D01*
G75*
G02*
X149655000Y-88235000I-80000J0D01*
G01*
X148745000Y-88235000D01*
G75*
G02*
X148665000Y-88155000I0J80000D01*
G01*
G37*
G36*
G01*
X148665000Y-87480000D02*
X148665000Y-87220000D01*
G75*
G02*
X148795000Y-87090000I130000J0D01*
G01*
X149605000Y-87090000D01*
G75*
G02*
X149735000Y-87220000I0J-130000D01*
G01*
X149735000Y-87480000D01*
G75*
G02*
X149605000Y-87610000I-130000J0D01*
G01*
X148795000Y-87610000D01*
G75*
G02*
X148665000Y-87480000I0J130000D01*
G01*
G37*
G36*
G01*
X142675000Y-87850000D02*
X141725000Y-87850000D01*
G75*
G02*
X141525000Y-87650000I0J200000D01*
G01*
X141525000Y-87250000D01*
G75*
G02*
X141725000Y-87050000I200000J0D01*
G01*
X142675000Y-87050000D01*
G75*
G02*
X142875000Y-87250000I0J-200000D01*
G01*
X142875000Y-87650000D01*
G75*
G02*
X142675000Y-87850000I-200000J0D01*
G01*
G37*
G36*
G01*
X142675000Y-89750000D02*
X141725000Y-89750000D01*
G75*
G02*
X141525000Y-89550000I0J200000D01*
G01*
X141525000Y-89150000D01*
G75*
G02*
X141725000Y-88950000I200000J0D01*
G01*
X142675000Y-88950000D01*
G75*
G02*
X142875000Y-89150000I0J-200000D01*
G01*
X142875000Y-89550000D01*
G75*
G02*
X142675000Y-89750000I-200000J0D01*
G01*
G37*
G36*
G01*
X145375000Y-93600000D02*
X146225000Y-93600000D01*
G75*
G02*
X146475000Y-93850000I0J-250000D01*
G01*
X146475000Y-94350000D01*
G75*
G02*
X146225000Y-94600000I-250000J0D01*
G01*
X145375000Y-94600000D01*
G75*
G02*
X145125000Y-94350000I0J250000D01*
G01*
X145125000Y-93850000D01*
G75*
G02*
X145375000Y-93600000I250000J0D01*
G01*
G37*
G36*
G01*
X145375000Y-91900000D02*
X146225000Y-91900000D01*
G75*
G02*
X146475000Y-92150000I0J-250000D01*
G01*
X146475000Y-92650000D01*
G75*
G02*
X146225000Y-92900000I-250000J0D01*
G01*
X145375000Y-92900000D01*
G75*
G02*
X145125000Y-92650000I0J250000D01*
G01*
X145125000Y-92150000D01*
G75*
G02*
X145375000Y-91900000I250000J0D01*
G01*
G37*
G36*
G01*
X150831550Y-91913100D02*
X151668450Y-91913100D01*
G75*
G02*
X151911900Y-92156550I0J-243450D01*
G01*
X151911900Y-92643450D01*
G75*
G02*
X151668450Y-92886900I-243450J0D01*
G01*
X150831550Y-92886900D01*
G75*
G02*
X150588100Y-92643450I0J243450D01*
G01*
X150588100Y-92156550D01*
G75*
G02*
X150831550Y-91913100I243450J0D01*
G01*
G37*
G36*
G01*
X150831550Y-93613100D02*
X151668450Y-93613100D01*
G75*
G02*
X151911900Y-93856550I0J-243450D01*
G01*
X151911900Y-94343450D01*
G75*
G02*
X151668450Y-94586900I-243450J0D01*
G01*
X150831550Y-94586900D01*
G75*
G02*
X150588100Y-94343450I0J243450D01*
G01*
X150588100Y-93856550D01*
G75*
G02*
X150831550Y-93613100I243450J0D01*
G01*
G37*
G36*
G01*
X84671550Y-91920100D02*
X85508450Y-91920100D01*
G75*
G02*
X85751900Y-92163550I0J-243450D01*
G01*
X85751900Y-92650450D01*
G75*
G02*
X85508450Y-92893900I-243450J0D01*
G01*
X84671550Y-92893900D01*
G75*
G02*
X84428100Y-92650450I0J243450D01*
G01*
X84428100Y-92163550D01*
G75*
G02*
X84671550Y-91920100I243450J0D01*
G01*
G37*
G36*
G01*
X84671550Y-93620100D02*
X85508450Y-93620100D01*
G75*
G02*
X85751900Y-93863550I0J-243450D01*
G01*
X85751900Y-94350450D01*
G75*
G02*
X85508450Y-94593900I-243450J0D01*
G01*
X84671550Y-94593900D01*
G75*
G02*
X84428100Y-94350450I0J243450D01*
G01*
X84428100Y-93863550D01*
G75*
G02*
X84671550Y-93620100I243450J0D01*
G01*
G37*
G36*
G01*
X104991550Y-93620100D02*
X105828450Y-93620100D01*
G75*
G02*
X106071900Y-93863550I0J-243450D01*
G01*
X106071900Y-94350450D01*
G75*
G02*
X105828450Y-94593900I-243450J0D01*
G01*
X104991550Y-94593900D01*
G75*
G02*
X104748100Y-94350450I0J243450D01*
G01*
X104748100Y-93863550D01*
G75*
G02*
X104991550Y-93620100I243450J0D01*
G01*
G37*
G36*
G01*
X104991550Y-91920100D02*
X105828450Y-91920100D01*
G75*
G02*
X106071900Y-92163550I0J-243450D01*
G01*
X106071900Y-92650450D01*
G75*
G02*
X105828450Y-92893900I-243450J0D01*
G01*
X104991550Y-92893900D01*
G75*
G02*
X104748100Y-92650450I0J243450D01*
G01*
X104748100Y-92163550D01*
G75*
G02*
X104991550Y-91920100I243450J0D01*
G01*
G37*
G36*
G01*
X118961550Y-91920100D02*
X119798450Y-91920100D01*
G75*
G02*
X120041900Y-92163550I0J-243450D01*
G01*
X120041900Y-92650450D01*
G75*
G02*
X119798450Y-92893900I-243450J0D01*
G01*
X118961550Y-92893900D01*
G75*
G02*
X118718100Y-92650450I0J243450D01*
G01*
X118718100Y-92163550D01*
G75*
G02*
X118961550Y-91920100I243450J0D01*
G01*
G37*
G36*
G01*
X118961550Y-93620100D02*
X119798450Y-93620100D01*
G75*
G02*
X120041900Y-93863550I0J-243450D01*
G01*
X120041900Y-94350450D01*
G75*
G02*
X119798450Y-94593900I-243450J0D01*
G01*
X118961550Y-94593900D01*
G75*
G02*
X118718100Y-94350450I0J243450D01*
G01*
X118718100Y-93863550D01*
G75*
G02*
X118961550Y-93620100I243450J0D01*
G01*
G37*
G36*
G01*
X157898450Y-94593900D02*
X157061550Y-94593900D01*
G75*
G02*
X156818100Y-94350450I0J243450D01*
G01*
X156818100Y-93863550D01*
G75*
G02*
X157061550Y-93620100I243450J0D01*
G01*
X157898450Y-93620100D01*
G75*
G02*
X158141900Y-93863550I0J-243450D01*
G01*
X158141900Y-94350450D01*
G75*
G02*
X157898450Y-94593900I-243450J0D01*
G01*
G37*
G36*
G01*
X157898450Y-92893900D02*
X157061550Y-92893900D01*
G75*
G02*
X156818100Y-92650450I0J243450D01*
G01*
X156818100Y-92163550D01*
G75*
G02*
X157061550Y-91920100I243450J0D01*
G01*
X157898450Y-91920100D01*
G75*
G02*
X158141900Y-92163550I0J-243450D01*
G01*
X158141900Y-92650450D01*
G75*
G02*
X157898450Y-92893900I-243450J0D01*
G01*
G37*
G36*
G01*
X82150000Y-86025000D02*
X82150000Y-86975000D01*
G75*
G02*
X81950000Y-87175000I-200000J0D01*
G01*
X81550000Y-87175000D01*
G75*
G02*
X81350000Y-86975000I0J200000D01*
G01*
X81350000Y-86025000D01*
G75*
G02*
X81550000Y-85825000I200000J0D01*
G01*
X81950000Y-85825000D01*
G75*
G02*
X82150000Y-86025000I0J-200000D01*
G01*
G37*
G36*
G01*
X84050000Y-86025000D02*
X84050000Y-86975000D01*
G75*
G02*
X83850000Y-87175000I-200000J0D01*
G01*
X83450000Y-87175000D01*
G75*
G02*
X83250000Y-86975000I0J200000D01*
G01*
X83250000Y-86025000D01*
G75*
G02*
X83450000Y-85825000I200000J0D01*
G01*
X83850000Y-85825000D01*
G75*
G02*
X84050000Y-86025000I0J-200000D01*
G01*
G37*
G36*
G01*
X81350000Y-84975000D02*
X81350000Y-84025000D01*
G75*
G02*
X81550000Y-83825000I200000J0D01*
G01*
X81950000Y-83825000D01*
G75*
G02*
X82150000Y-84025000I0J-200000D01*
G01*
X82150000Y-84975000D01*
G75*
G02*
X81950000Y-85175000I-200000J0D01*
G01*
X81550000Y-85175000D01*
G75*
G02*
X81350000Y-84975000I0J200000D01*
G01*
G37*
G36*
G01*
X83250000Y-84975000D02*
X83250000Y-84025000D01*
G75*
G02*
X83450000Y-83825000I200000J0D01*
G01*
X83850000Y-83825000D01*
G75*
G02*
X84050000Y-84025000I0J-200000D01*
G01*
X84050000Y-84975000D01*
G75*
G02*
X83850000Y-85175000I-200000J0D01*
G01*
X83450000Y-85175000D01*
G75*
G02*
X83250000Y-84975000I0J200000D01*
G01*
G37*
G36*
G01*
X154175000Y-93675000D02*
X154525000Y-93675000D01*
G75*
G02*
X154700000Y-93850000I0J-175000D01*
G01*
X154700000Y-94750000D01*
G75*
G02*
X154525000Y-94925000I-175000J0D01*
G01*
X154175000Y-94925000D01*
G75*
G02*
X154000000Y-94750000I0J175000D01*
G01*
X154000000Y-93850000D01*
G75*
G02*
X154175000Y-93675000I175000J0D01*
G01*
G37*
G36*
G01*
X153225000Y-91575000D02*
X153575000Y-91575000D01*
G75*
G02*
X153750000Y-91750000I0J-175000D01*
G01*
X153750000Y-92650000D01*
G75*
G02*
X153575000Y-92825000I-175000J0D01*
G01*
X153225000Y-92825000D01*
G75*
G02*
X153050000Y-92650000I0J175000D01*
G01*
X153050000Y-91750000D01*
G75*
G02*
X153225000Y-91575000I175000J0D01*
G01*
G37*
G36*
G01*
X155125000Y-91575000D02*
X155475000Y-91575000D01*
G75*
G02*
X155650000Y-91750000I0J-175000D01*
G01*
X155650000Y-92650000D01*
G75*
G02*
X155475000Y-92825000I-175000J0D01*
G01*
X155125000Y-92825000D01*
G75*
G02*
X154950000Y-92650000I0J175000D01*
G01*
X154950000Y-91750000D01*
G75*
G02*
X155125000Y-91575000I175000J0D01*
G01*
G37*
G36*
G01*
X154275000Y-87050000D02*
X155125000Y-87050000D01*
G75*
G02*
X155375000Y-87300000I0J-250000D01*
G01*
X155375000Y-87800000D01*
G75*
G02*
X155125000Y-88050000I-250000J0D01*
G01*
X154275000Y-88050000D01*
G75*
G02*
X154025000Y-87800000I0J250000D01*
G01*
X154025000Y-87300000D01*
G75*
G02*
X154275000Y-87050000I250000J0D01*
G01*
G37*
G36*
G01*
X154275000Y-88750000D02*
X155125000Y-88750000D01*
G75*
G02*
X155375000Y-89000000I0J-250000D01*
G01*
X155375000Y-89500000D01*
G75*
G02*
X155125000Y-89750000I-250000J0D01*
G01*
X154275000Y-89750000D01*
G75*
G02*
X154025000Y-89500000I0J250000D01*
G01*
X154025000Y-89000000D01*
G75*
G02*
X154275000Y-88750000I250000J0D01*
G01*
G37*
G36*
G01*
X146375000Y-88750000D02*
X147225000Y-88750000D01*
G75*
G02*
X147475000Y-89000000I0J-250000D01*
G01*
X147475000Y-89500000D01*
G75*
G02*
X147225000Y-89750000I-250000J0D01*
G01*
X146375000Y-89750000D01*
G75*
G02*
X146125000Y-89500000I0J250000D01*
G01*
X146125000Y-89000000D01*
G75*
G02*
X146375000Y-88750000I250000J0D01*
G01*
G37*
G36*
G01*
X146375000Y-87050000D02*
X147225000Y-87050000D01*
G75*
G02*
X147475000Y-87300000I0J-250000D01*
G01*
X147475000Y-87800000D01*
G75*
G02*
X147225000Y-88050000I-250000J0D01*
G01*
X146375000Y-88050000D01*
G75*
G02*
X146125000Y-87800000I0J250000D01*
G01*
X146125000Y-87300000D01*
G75*
G02*
X146375000Y-87050000I250000J0D01*
G01*
G37*
G36*
G01*
X147680000Y-92860000D02*
X147520000Y-92860000D01*
G75*
G02*
X147440000Y-92780000I0J80000D01*
G01*
X147440000Y-92020000D01*
G75*
G02*
X147520000Y-91940000I80000J0D01*
G01*
X147680000Y-91940000D01*
G75*
G02*
X147760000Y-92020000I0J-80000D01*
G01*
X147760000Y-92780000D01*
G75*
G02*
X147680000Y-92860000I-80000J0D01*
G01*
G37*
G36*
G01*
X148980000Y-92860000D02*
X148820000Y-92860000D01*
G75*
G02*
X148740000Y-92780000I0J80000D01*
G01*
X148740000Y-92020000D01*
G75*
G02*
X148820000Y-91940000I80000J0D01*
G01*
X148980000Y-91940000D01*
G75*
G02*
X149060000Y-92020000I0J-80000D01*
G01*
X149060000Y-92780000D01*
G75*
G02*
X148980000Y-92860000I-80000J0D01*
G01*
G37*
G36*
G01*
X148330000Y-94560000D02*
X148170000Y-94560000D01*
G75*
G02*
X148090000Y-94480000I0J80000D01*
G01*
X148090000Y-93720000D01*
G75*
G02*
X148170000Y-93640000I80000J0D01*
G01*
X148330000Y-93640000D01*
G75*
G02*
X148410000Y-93720000I0J-80000D01*
G01*
X148410000Y-94480000D01*
G75*
G02*
X148330000Y-94560000I-80000J0D01*
G01*
G37*
G36*
G01*
X147680000Y-94560000D02*
X147520000Y-94560000D01*
G75*
G02*
X147440000Y-94480000I0J80000D01*
G01*
X147440000Y-93720000D01*
G75*
G02*
X147520000Y-93640000I80000J0D01*
G01*
X147680000Y-93640000D01*
G75*
G02*
X147760000Y-93720000I0J-80000D01*
G01*
X147760000Y-94480000D01*
G75*
G02*
X147680000Y-94560000I-80000J0D01*
G01*
G37*
G36*
G01*
X148980000Y-94560000D02*
X148820000Y-94560000D01*
G75*
G02*
X148740000Y-94480000I0J80000D01*
G01*
X148740000Y-93720000D01*
G75*
G02*
X148820000Y-93640000I80000J0D01*
G01*
X148980000Y-93640000D01*
G75*
G02*
X149060000Y-93720000I0J-80000D01*
G01*
X149060000Y-94480000D01*
G75*
G02*
X148980000Y-94560000I-80000J0D01*
G01*
G37*
G36*
G01*
X157930000Y-89710000D02*
X157770000Y-89710000D01*
G75*
G02*
X157690000Y-89630000I0J80000D01*
G01*
X157690000Y-88870000D01*
G75*
G02*
X157770000Y-88790000I80000J0D01*
G01*
X157930000Y-88790000D01*
G75*
G02*
X158010000Y-88870000I0J-80000D01*
G01*
X158010000Y-89630000D01*
G75*
G02*
X157930000Y-89710000I-80000J0D01*
G01*
G37*
G36*
G01*
X156630000Y-89710000D02*
X156470000Y-89710000D01*
G75*
G02*
X156390000Y-89630000I0J80000D01*
G01*
X156390000Y-88870000D01*
G75*
G02*
X156470000Y-88790000I80000J0D01*
G01*
X156630000Y-88790000D01*
G75*
G02*
X156710000Y-88870000I0J-80000D01*
G01*
X156710000Y-89630000D01*
G75*
G02*
X156630000Y-89710000I-80000J0D01*
G01*
G37*
G36*
G01*
X157280000Y-89710000D02*
X157120000Y-89710000D01*
G75*
G02*
X157040000Y-89630000I0J80000D01*
G01*
X157040000Y-88870000D01*
G75*
G02*
X157120000Y-88790000I80000J0D01*
G01*
X157280000Y-88790000D01*
G75*
G02*
X157360000Y-88870000I0J-80000D01*
G01*
X157360000Y-89630000D01*
G75*
G02*
X157280000Y-89710000I-80000J0D01*
G01*
G37*
G36*
G01*
X157930000Y-88010000D02*
X157770000Y-88010000D01*
G75*
G02*
X157690000Y-87930000I0J80000D01*
G01*
X157690000Y-87170000D01*
G75*
G02*
X157770000Y-87090000I80000J0D01*
G01*
X157930000Y-87090000D01*
G75*
G02*
X158010000Y-87170000I0J-80000D01*
G01*
X158010000Y-87930000D01*
G75*
G02*
X157930000Y-88010000I-80000J0D01*
G01*
G37*
G36*
G01*
X156630000Y-88010000D02*
X156470000Y-88010000D01*
G75*
G02*
X156390000Y-87930000I0J80000D01*
G01*
X156390000Y-87170000D01*
G75*
G02*
X156470000Y-87090000I80000J0D01*
G01*
X156630000Y-87090000D01*
G75*
G02*
X156710000Y-87170000I0J-80000D01*
G01*
X156710000Y-87930000D01*
G75*
G02*
X156630000Y-88010000I-80000J0D01*
G01*
G37*
G36*
G01*
X144325000Y-87050000D02*
X145275000Y-87050000D01*
G75*
G02*
X145475000Y-87250000I0J-200000D01*
G01*
X145475000Y-87650000D01*
G75*
G02*
X145275000Y-87850000I-200000J0D01*
G01*
X144325000Y-87850000D01*
G75*
G02*
X144125000Y-87650000I0J200000D01*
G01*
X144125000Y-87250000D01*
G75*
G02*
X144325000Y-87050000I200000J0D01*
G01*
G37*
G36*
G01*
X144325000Y-88950000D02*
X145275000Y-88950000D01*
G75*
G02*
X145475000Y-89150000I0J-200000D01*
G01*
X145475000Y-89550000D01*
G75*
G02*
X145275000Y-89750000I-200000J0D01*
G01*
X144325000Y-89750000D01*
G75*
G02*
X144125000Y-89550000I0J200000D01*
G01*
X144125000Y-89150000D01*
G75*
G02*
X144325000Y-88950000I200000J0D01*
G01*
G37*
G36*
G01*
X130947500Y-94336000D02*
X130672500Y-94336000D01*
G75*
G02*
X130535000Y-94198500I0J137500D01*
G01*
X130535000Y-91475500D01*
G75*
G02*
X130672500Y-91338000I137500J0D01*
G01*
X130947500Y-91338000D01*
G75*
G02*
X131085000Y-91475500I0J-137500D01*
G01*
X131085000Y-94198500D01*
G75*
G02*
X130947500Y-94336000I-137500J0D01*
G01*
G37*
G36*
G01*
X130947500Y-87986000D02*
X130672500Y-87986000D01*
G75*
G02*
X130535000Y-87848500I0J137500D01*
G01*
X130535000Y-85125500D01*
G75*
G02*
X130672500Y-84988000I137500J0D01*
G01*
X130947500Y-84988000D01*
G75*
G02*
X131085000Y-85125500I0J-137500D01*
G01*
X131085000Y-87848500D01*
G75*
G02*
X130947500Y-87986000I-137500J0D01*
G01*
G37*
G36*
G01*
X128407500Y-94336000D02*
X128132500Y-94336000D01*
G75*
G02*
X127995000Y-94198500I0J137500D01*
G01*
X127995000Y-91475500D01*
G75*
G02*
X128132500Y-91338000I137500J0D01*
G01*
X128407500Y-91338000D01*
G75*
G02*
X128545000Y-91475500I0J-137500D01*
G01*
X128545000Y-94198500D01*
G75*
G02*
X128407500Y-94336000I-137500J0D01*
G01*
G37*
G36*
G01*
X128407500Y-87986000D02*
X128132500Y-87986000D01*
G75*
G02*
X127995000Y-87848500I0J137500D01*
G01*
X127995000Y-85125500D01*
G75*
G02*
X128132500Y-84988000I137500J0D01*
G01*
X128407500Y-84988000D01*
G75*
G02*
X128545000Y-85125500I0J-137500D01*
G01*
X128545000Y-87848500D01*
G75*
G02*
X128407500Y-87986000I-137500J0D01*
G01*
G37*
G36*
G01*
X122057500Y-94336000D02*
X121782500Y-94336000D01*
G75*
G02*
X121645000Y-94198500I0J137500D01*
G01*
X121645000Y-91475500D01*
G75*
G02*
X121782500Y-91338000I137500J0D01*
G01*
X122057500Y-91338000D01*
G75*
G02*
X122195000Y-91475500I0J-137500D01*
G01*
X122195000Y-94198500D01*
G75*
G02*
X122057500Y-94336000I-137500J0D01*
G01*
G37*
G36*
G01*
X123327500Y-94336000D02*
X123052500Y-94336000D01*
G75*
G02*
X122915000Y-94198500I0J137500D01*
G01*
X122915000Y-91475500D01*
G75*
G02*
X123052500Y-91338000I137500J0D01*
G01*
X123327500Y-91338000D01*
G75*
G02*
X123465000Y-91475500I0J-137500D01*
G01*
X123465000Y-94198500D01*
G75*
G02*
X123327500Y-94336000I-137500J0D01*
G01*
G37*
G36*
G01*
X124597500Y-94336000D02*
X124322500Y-94336000D01*
G75*
G02*
X124185000Y-94198500I0J137500D01*
G01*
X124185000Y-91475500D01*
G75*
G02*
X124322500Y-91338000I137500J0D01*
G01*
X124597500Y-91338000D01*
G75*
G02*
X124735000Y-91475500I0J-137500D01*
G01*
X124735000Y-94198500D01*
G75*
G02*
X124597500Y-94336000I-137500J0D01*
G01*
G37*
G36*
G01*
X125867500Y-94336000D02*
X125592500Y-94336000D01*
G75*
G02*
X125455000Y-94198500I0J137500D01*
G01*
X125455000Y-91475500D01*
G75*
G02*
X125592500Y-91338000I137500J0D01*
G01*
X125867500Y-91338000D01*
G75*
G02*
X126005000Y-91475500I0J-137500D01*
G01*
X126005000Y-94198500D01*
G75*
G02*
X125867500Y-94336000I-137500J0D01*
G01*
G37*
G36*
G01*
X127137500Y-94336000D02*
X126862500Y-94336000D01*
G75*
G02*
X126725000Y-94198500I0J137500D01*
G01*
X126725000Y-91475500D01*
G75*
G02*
X126862500Y-91338000I137500J0D01*
G01*
X127137500Y-91338000D01*
G75*
G02*
X127275000Y-91475500I0J-137500D01*
G01*
X127275000Y-94198500D01*
G75*
G02*
X127137500Y-94336000I-137500J0D01*
G01*
G37*
G36*
G01*
X132217500Y-94336000D02*
X131942500Y-94336000D01*
G75*
G02*
X131805000Y-94198500I0J137500D01*
G01*
X131805000Y-91475500D01*
G75*
G02*
X131942500Y-91338000I137500J0D01*
G01*
X132217500Y-91338000D01*
G75*
G02*
X132355000Y-91475500I0J-137500D01*
G01*
X132355000Y-94198500D01*
G75*
G02*
X132217500Y-94336000I-137500J0D01*
G01*
G37*
G36*
G01*
X133487500Y-94336000D02*
X133212500Y-94336000D01*
G75*
G02*
X133075000Y-94198500I0J137500D01*
G01*
X133075000Y-91475500D01*
G75*
G02*
X133212500Y-91338000I137500J0D01*
G01*
X133487500Y-91338000D01*
G75*
G02*
X133625000Y-91475500I0J-137500D01*
G01*
X133625000Y-94198500D01*
G75*
G02*
X133487500Y-94336000I-137500J0D01*
G01*
G37*
G36*
G01*
X134757500Y-94336000D02*
X134482500Y-94336000D01*
G75*
G02*
X134345000Y-94198500I0J137500D01*
G01*
X134345000Y-91475500D01*
G75*
G02*
X134482500Y-91338000I137500J0D01*
G01*
X134757500Y-91338000D01*
G75*
G02*
X134895000Y-91475500I0J-137500D01*
G01*
X134895000Y-94198500D01*
G75*
G02*
X134757500Y-94336000I-137500J0D01*
G01*
G37*
G36*
G01*
X136027500Y-94336000D02*
X135752500Y-94336000D01*
G75*
G02*
X135615000Y-94198500I0J137500D01*
G01*
X135615000Y-91475500D01*
G75*
G02*
X135752500Y-91338000I137500J0D01*
G01*
X136027500Y-91338000D01*
G75*
G02*
X136165000Y-91475500I0J-137500D01*
G01*
X136165000Y-94198500D01*
G75*
G02*
X136027500Y-94336000I-137500J0D01*
G01*
G37*
G36*
G01*
X137297500Y-94336000D02*
X137022500Y-94336000D01*
G75*
G02*
X136885000Y-94198500I0J137500D01*
G01*
X136885000Y-91475500D01*
G75*
G02*
X137022500Y-91338000I137500J0D01*
G01*
X137297500Y-91338000D01*
G75*
G02*
X137435000Y-91475500I0J-137500D01*
G01*
X137435000Y-94198500D01*
G75*
G02*
X137297500Y-94336000I-137500J0D01*
G01*
G37*
G36*
G01*
X136027500Y-87986000D02*
X135752500Y-87986000D01*
G75*
G02*
X135615000Y-87848500I0J137500D01*
G01*
X135615000Y-85125500D01*
G75*
G02*
X135752500Y-84988000I137500J0D01*
G01*
X136027500Y-84988000D01*
G75*
G02*
X136165000Y-85125500I0J-137500D01*
G01*
X136165000Y-87848500D01*
G75*
G02*
X136027500Y-87986000I-137500J0D01*
G01*
G37*
G36*
G01*
X134757500Y-87986000D02*
X134482500Y-87986000D01*
G75*
G02*
X134345000Y-87848500I0J137500D01*
G01*
X134345000Y-85125500D01*
G75*
G02*
X134482500Y-84988000I137500J0D01*
G01*
X134757500Y-84988000D01*
G75*
G02*
X134895000Y-85125500I0J-137500D01*
G01*
X134895000Y-87848500D01*
G75*
G02*
X134757500Y-87986000I-137500J0D01*
G01*
G37*
G36*
G01*
X133487500Y-87986000D02*
X133212500Y-87986000D01*
G75*
G02*
X133075000Y-87848500I0J137500D01*
G01*
X133075000Y-85125500D01*
G75*
G02*
X133212500Y-84988000I137500J0D01*
G01*
X133487500Y-84988000D01*
G75*
G02*
X133625000Y-85125500I0J-137500D01*
G01*
X133625000Y-87848500D01*
G75*
G02*
X133487500Y-87986000I-137500J0D01*
G01*
G37*
G36*
G01*
X132217500Y-87986000D02*
X131942500Y-87986000D01*
G75*
G02*
X131805000Y-87848500I0J137500D01*
G01*
X131805000Y-85125500D01*
G75*
G02*
X131942500Y-84988000I137500J0D01*
G01*
X132217500Y-84988000D01*
G75*
G02*
X132355000Y-85125500I0J-137500D01*
G01*
X132355000Y-87848500D01*
G75*
G02*
X132217500Y-87986000I-137500J0D01*
G01*
G37*
G36*
G01*
X127137500Y-87986000D02*
X126862500Y-87986000D01*
G75*
G02*
X126725000Y-87848500I0J137500D01*
G01*
X126725000Y-85125500D01*
G75*
G02*
X126862500Y-84988000I137500J0D01*
G01*
X127137500Y-84988000D01*
G75*
G02*
X127275000Y-85125500I0J-137500D01*
G01*
X127275000Y-87848500D01*
G75*
G02*
X127137500Y-87986000I-137500J0D01*
G01*
G37*
G36*
G01*
X125867500Y-87986000D02*
X125592500Y-87986000D01*
G75*
G02*
X125455000Y-87848500I0J137500D01*
G01*
X125455000Y-85125500D01*
G75*
G02*
X125592500Y-84988000I137500J0D01*
G01*
X125867500Y-84988000D01*
G75*
G02*
X126005000Y-85125500I0J-137500D01*
G01*
X126005000Y-87848500D01*
G75*
G02*
X125867500Y-87986000I-137500J0D01*
G01*
G37*
G36*
G01*
X124597500Y-87986000D02*
X124322500Y-87986000D01*
G75*
G02*
X124185000Y-87848500I0J137500D01*
G01*
X124185000Y-85125500D01*
G75*
G02*
X124322500Y-84988000I137500J0D01*
G01*
X124597500Y-84988000D01*
G75*
G02*
X124735000Y-85125500I0J-137500D01*
G01*
X124735000Y-87848500D01*
G75*
G02*
X124597500Y-87986000I-137500J0D01*
G01*
G37*
G36*
G01*
X123327500Y-87986000D02*
X123052500Y-87986000D01*
G75*
G02*
X122915000Y-87848500I0J137500D01*
G01*
X122915000Y-85125500D01*
G75*
G02*
X123052500Y-84988000I137500J0D01*
G01*
X123327500Y-84988000D01*
G75*
G02*
X123465000Y-85125500I0J-137500D01*
G01*
X123465000Y-87848500D01*
G75*
G02*
X123327500Y-87986000I-137500J0D01*
G01*
G37*
G36*
G01*
X122057500Y-87986000D02*
X121782500Y-87986000D01*
G75*
G02*
X121645000Y-87848500I0J137500D01*
G01*
X121645000Y-85125500D01*
G75*
G02*
X121782500Y-84988000I137500J0D01*
G01*
X122057500Y-84988000D01*
G75*
G02*
X122195000Y-85125500I0J-137500D01*
G01*
X122195000Y-87848500D01*
G75*
G02*
X122057500Y-87986000I-137500J0D01*
G01*
G37*
G36*
G01*
X137297500Y-87986000D02*
X137022500Y-87986000D01*
G75*
G02*
X136885000Y-87848500I0J137500D01*
G01*
X136885000Y-85125500D01*
G75*
G02*
X137022500Y-84988000I137500J0D01*
G01*
X137297500Y-84988000D01*
G75*
G02*
X137435000Y-85125500I0J-137500D01*
G01*
X137435000Y-87848500D01*
G75*
G02*
X137297500Y-87986000I-137500J0D01*
G01*
G37*
G36*
G01*
X103007500Y-87986000D02*
X102732500Y-87986000D01*
G75*
G02*
X102595000Y-87848500I0J137500D01*
G01*
X102595000Y-85125500D01*
G75*
G02*
X102732500Y-84988000I137500J0D01*
G01*
X103007500Y-84988000D01*
G75*
G02*
X103145000Y-85125500I0J-137500D01*
G01*
X103145000Y-87848500D01*
G75*
G02*
X103007500Y-87986000I-137500J0D01*
G01*
G37*
G36*
G01*
X87767500Y-87986000D02*
X87492500Y-87986000D01*
G75*
G02*
X87355000Y-87848500I0J137500D01*
G01*
X87355000Y-85125500D01*
G75*
G02*
X87492500Y-84988000I137500J0D01*
G01*
X87767500Y-84988000D01*
G75*
G02*
X87905000Y-85125500I0J-137500D01*
G01*
X87905000Y-87848500D01*
G75*
G02*
X87767500Y-87986000I-137500J0D01*
G01*
G37*
G36*
G01*
X89037500Y-87986000D02*
X88762500Y-87986000D01*
G75*
G02*
X88625000Y-87848500I0J137500D01*
G01*
X88625000Y-85125500D01*
G75*
G02*
X88762500Y-84988000I137500J0D01*
G01*
X89037500Y-84988000D01*
G75*
G02*
X89175000Y-85125500I0J-137500D01*
G01*
X89175000Y-87848500D01*
G75*
G02*
X89037500Y-87986000I-137500J0D01*
G01*
G37*
G36*
G01*
X90307500Y-87986000D02*
X90032500Y-87986000D01*
G75*
G02*
X89895000Y-87848500I0J137500D01*
G01*
X89895000Y-85125500D01*
G75*
G02*
X90032500Y-84988000I137500J0D01*
G01*
X90307500Y-84988000D01*
G75*
G02*
X90445000Y-85125500I0J-137500D01*
G01*
X90445000Y-87848500D01*
G75*
G02*
X90307500Y-87986000I-137500J0D01*
G01*
G37*
G36*
G01*
X91577500Y-87986000D02*
X91302500Y-87986000D01*
G75*
G02*
X91165000Y-87848500I0J137500D01*
G01*
X91165000Y-85125500D01*
G75*
G02*
X91302500Y-84988000I137500J0D01*
G01*
X91577500Y-84988000D01*
G75*
G02*
X91715000Y-85125500I0J-137500D01*
G01*
X91715000Y-87848500D01*
G75*
G02*
X91577500Y-87986000I-137500J0D01*
G01*
G37*
G36*
G01*
X92847500Y-87986000D02*
X92572500Y-87986000D01*
G75*
G02*
X92435000Y-87848500I0J137500D01*
G01*
X92435000Y-85125500D01*
G75*
G02*
X92572500Y-84988000I137500J0D01*
G01*
X92847500Y-84988000D01*
G75*
G02*
X92985000Y-85125500I0J-137500D01*
G01*
X92985000Y-87848500D01*
G75*
G02*
X92847500Y-87986000I-137500J0D01*
G01*
G37*
G36*
G01*
X97927500Y-87986000D02*
X97652500Y-87986000D01*
G75*
G02*
X97515000Y-87848500I0J137500D01*
G01*
X97515000Y-85125500D01*
G75*
G02*
X97652500Y-84988000I137500J0D01*
G01*
X97927500Y-84988000D01*
G75*
G02*
X98065000Y-85125500I0J-137500D01*
G01*
X98065000Y-87848500D01*
G75*
G02*
X97927500Y-87986000I-137500J0D01*
G01*
G37*
G36*
G01*
X99197500Y-87986000D02*
X98922500Y-87986000D01*
G75*
G02*
X98785000Y-87848500I0J137500D01*
G01*
X98785000Y-85125500D01*
G75*
G02*
X98922500Y-84988000I137500J0D01*
G01*
X99197500Y-84988000D01*
G75*
G02*
X99335000Y-85125500I0J-137500D01*
G01*
X99335000Y-87848500D01*
G75*
G02*
X99197500Y-87986000I-137500J0D01*
G01*
G37*
G36*
G01*
X100467500Y-87986000D02*
X100192500Y-87986000D01*
G75*
G02*
X100055000Y-87848500I0J137500D01*
G01*
X100055000Y-85125500D01*
G75*
G02*
X100192500Y-84988000I137500J0D01*
G01*
X100467500Y-84988000D01*
G75*
G02*
X100605000Y-85125500I0J-137500D01*
G01*
X100605000Y-87848500D01*
G75*
G02*
X100467500Y-87986000I-137500J0D01*
G01*
G37*
G36*
G01*
X101737500Y-87986000D02*
X101462500Y-87986000D01*
G75*
G02*
X101325000Y-87848500I0J137500D01*
G01*
X101325000Y-85125500D01*
G75*
G02*
X101462500Y-84988000I137500J0D01*
G01*
X101737500Y-84988000D01*
G75*
G02*
X101875000Y-85125500I0J-137500D01*
G01*
X101875000Y-87848500D01*
G75*
G02*
X101737500Y-87986000I-137500J0D01*
G01*
G37*
G36*
G01*
X103007500Y-94336000D02*
X102732500Y-94336000D01*
G75*
G02*
X102595000Y-94198500I0J137500D01*
G01*
X102595000Y-91475500D01*
G75*
G02*
X102732500Y-91338000I137500J0D01*
G01*
X103007500Y-91338000D01*
G75*
G02*
X103145000Y-91475500I0J-137500D01*
G01*
X103145000Y-94198500D01*
G75*
G02*
X103007500Y-94336000I-137500J0D01*
G01*
G37*
G36*
G01*
X101737500Y-94336000D02*
X101462500Y-94336000D01*
G75*
G02*
X101325000Y-94198500I0J137500D01*
G01*
X101325000Y-91475500D01*
G75*
G02*
X101462500Y-91338000I137500J0D01*
G01*
X101737500Y-91338000D01*
G75*
G02*
X101875000Y-91475500I0J-137500D01*
G01*
X101875000Y-94198500D01*
G75*
G02*
X101737500Y-94336000I-137500J0D01*
G01*
G37*
G36*
G01*
X100467500Y-94336000D02*
X100192500Y-94336000D01*
G75*
G02*
X100055000Y-94198500I0J137500D01*
G01*
X100055000Y-91475500D01*
G75*
G02*
X100192500Y-91338000I137500J0D01*
G01*
X100467500Y-91338000D01*
G75*
G02*
X100605000Y-91475500I0J-137500D01*
G01*
X100605000Y-94198500D01*
G75*
G02*
X100467500Y-94336000I-137500J0D01*
G01*
G37*
G36*
G01*
X99197500Y-94336000D02*
X98922500Y-94336000D01*
G75*
G02*
X98785000Y-94198500I0J137500D01*
G01*
X98785000Y-91475500D01*
G75*
G02*
X98922500Y-91338000I137500J0D01*
G01*
X99197500Y-91338000D01*
G75*
G02*
X99335000Y-91475500I0J-137500D01*
G01*
X99335000Y-94198500D01*
G75*
G02*
X99197500Y-94336000I-137500J0D01*
G01*
G37*
G36*
G01*
X97927500Y-94336000D02*
X97652500Y-94336000D01*
G75*
G02*
X97515000Y-94198500I0J137500D01*
G01*
X97515000Y-91475500D01*
G75*
G02*
X97652500Y-91338000I137500J0D01*
G01*
X97927500Y-91338000D01*
G75*
G02*
X98065000Y-91475500I0J-137500D01*
G01*
X98065000Y-94198500D01*
G75*
G02*
X97927500Y-94336000I-137500J0D01*
G01*
G37*
G36*
G01*
X92847500Y-94336000D02*
X92572500Y-94336000D01*
G75*
G02*
X92435000Y-94198500I0J137500D01*
G01*
X92435000Y-91475500D01*
G75*
G02*
X92572500Y-91338000I137500J0D01*
G01*
X92847500Y-91338000D01*
G75*
G02*
X92985000Y-91475500I0J-137500D01*
G01*
X92985000Y-94198500D01*
G75*
G02*
X92847500Y-94336000I-137500J0D01*
G01*
G37*
G36*
G01*
X91577500Y-94336000D02*
X91302500Y-94336000D01*
G75*
G02*
X91165000Y-94198500I0J137500D01*
G01*
X91165000Y-91475500D01*
G75*
G02*
X91302500Y-91338000I137500J0D01*
G01*
X91577500Y-91338000D01*
G75*
G02*
X91715000Y-91475500I0J-137500D01*
G01*
X91715000Y-94198500D01*
G75*
G02*
X91577500Y-94336000I-137500J0D01*
G01*
G37*
G36*
G01*
X90307500Y-94336000D02*
X90032500Y-94336000D01*
G75*
G02*
X89895000Y-94198500I0J137500D01*
G01*
X89895000Y-91475500D01*
G75*
G02*
X90032500Y-91338000I137500J0D01*
G01*
X90307500Y-91338000D01*
G75*
G02*
X90445000Y-91475500I0J-137500D01*
G01*
X90445000Y-94198500D01*
G75*
G02*
X90307500Y-94336000I-137500J0D01*
G01*
G37*
G36*
G01*
X89037500Y-94336000D02*
X88762500Y-94336000D01*
G75*
G02*
X88625000Y-94198500I0J137500D01*
G01*
X88625000Y-91475500D01*
G75*
G02*
X88762500Y-91338000I137500J0D01*
G01*
X89037500Y-91338000D01*
G75*
G02*
X89175000Y-91475500I0J-137500D01*
G01*
X89175000Y-94198500D01*
G75*
G02*
X89037500Y-94336000I-137500J0D01*
G01*
G37*
G36*
G01*
X87767500Y-94336000D02*
X87492500Y-94336000D01*
G75*
G02*
X87355000Y-94198500I0J137500D01*
G01*
X87355000Y-91475500D01*
G75*
G02*
X87492500Y-91338000I137500J0D01*
G01*
X87767500Y-91338000D01*
G75*
G02*
X87905000Y-91475500I0J-137500D01*
G01*
X87905000Y-94198500D01*
G75*
G02*
X87767500Y-94336000I-137500J0D01*
G01*
G37*
G36*
G01*
X94117500Y-87986000D02*
X93842500Y-87986000D01*
G75*
G02*
X93705000Y-87848500I0J137500D01*
G01*
X93705000Y-85125500D01*
G75*
G02*
X93842500Y-84988000I137500J0D01*
G01*
X94117500Y-84988000D01*
G75*
G02*
X94255000Y-85125500I0J-137500D01*
G01*
X94255000Y-87848500D01*
G75*
G02*
X94117500Y-87986000I-137500J0D01*
G01*
G37*
G36*
G01*
X94117500Y-94336000D02*
X93842500Y-94336000D01*
G75*
G02*
X93705000Y-94198500I0J137500D01*
G01*
X93705000Y-91475500D01*
G75*
G02*
X93842500Y-91338000I137500J0D01*
G01*
X94117500Y-91338000D01*
G75*
G02*
X94255000Y-91475500I0J-137500D01*
G01*
X94255000Y-94198500D01*
G75*
G02*
X94117500Y-94336000I-137500J0D01*
G01*
G37*
G36*
G01*
X96657500Y-87986000D02*
X96382500Y-87986000D01*
G75*
G02*
X96245000Y-87848500I0J137500D01*
G01*
X96245000Y-85125500D01*
G75*
G02*
X96382500Y-84988000I137500J0D01*
G01*
X96657500Y-84988000D01*
G75*
G02*
X96795000Y-85125500I0J-137500D01*
G01*
X96795000Y-87848500D01*
G75*
G02*
X96657500Y-87986000I-137500J0D01*
G01*
G37*
G36*
G01*
X96657500Y-94336000D02*
X96382500Y-94336000D01*
G75*
G02*
X96245000Y-94198500I0J137500D01*
G01*
X96245000Y-91475500D01*
G75*
G02*
X96382500Y-91338000I137500J0D01*
G01*
X96657500Y-91338000D01*
G75*
G02*
X96795000Y-91475500I0J-137500D01*
G01*
X96795000Y-94198500D01*
G75*
G02*
X96657500Y-94336000I-137500J0D01*
G01*
G37*
G36*
G01*
X139275000Y-91907000D02*
X140125000Y-91907000D01*
G75*
G02*
X140375000Y-92157000I0J-250000D01*
G01*
X140375000Y-92657000D01*
G75*
G02*
X140125000Y-92907000I-250000J0D01*
G01*
X139275000Y-92907000D01*
G75*
G02*
X139025000Y-92657000I0J250000D01*
G01*
X139025000Y-92157000D01*
G75*
G02*
X139275000Y-91907000I250000J0D01*
G01*
G37*
G36*
G01*
X139275000Y-93607000D02*
X140125000Y-93607000D01*
G75*
G02*
X140375000Y-93857000I0J-250000D01*
G01*
X140375000Y-94357000D01*
G75*
G02*
X140125000Y-94607000I-250000J0D01*
G01*
X139275000Y-94607000D01*
G75*
G02*
X139025000Y-94357000I0J250000D01*
G01*
X139025000Y-93857000D01*
G75*
G02*
X139275000Y-93607000I250000J0D01*
G01*
G37*
M02*
