G04 #@! TF.GenerationSoftware,KiCad,Pcbnew,(5.1.10-1-10_14)*
G04 #@! TF.CreationDate,2021-07-01T06:11:53-04:00*
G04 #@! TF.ProjectId,GW4191-SOP,47573431-3931-42d5-934f-502e6b696361,1.0-SOJ*
G04 #@! TF.SameCoordinates,Original*
G04 #@! TF.FileFunction,Paste,Top*
G04 #@! TF.FilePolarity,Positive*
%FSLAX46Y46*%
G04 Gerber Fmt 4.6, Leading zero omitted, Abs format (unit mm)*
G04 Created by KiCad (PCBNEW (5.1.10-1-10_14)) date 2021-07-01 06:11:53*
%MOMM*%
%LPD*%
G01*
G04 APERTURE LIST*
G04 APERTURE END LIST*
G36*
G01*
X85515000Y-92907000D02*
X84665000Y-92907000D01*
G75*
G02*
X84415000Y-92657000I0J250000D01*
G01*
X84415000Y-92157000D01*
G75*
G02*
X84665000Y-91907000I250000J0D01*
G01*
X85515000Y-91907000D01*
G75*
G02*
X85765000Y-92157000I0J-250000D01*
G01*
X85765000Y-92657000D01*
G75*
G02*
X85515000Y-92907000I-250000J0D01*
G01*
G37*
G36*
G01*
X85515000Y-94607000D02*
X84665000Y-94607000D01*
G75*
G02*
X84415000Y-94357000I0J250000D01*
G01*
X84415000Y-93857000D01*
G75*
G02*
X84665000Y-93607000I250000J0D01*
G01*
X85515000Y-93607000D01*
G75*
G02*
X85765000Y-93857000I0J-250000D01*
G01*
X85765000Y-94357000D01*
G75*
G02*
X85515000Y-94607000I-250000J0D01*
G01*
G37*
G36*
G01*
X105835000Y-92907000D02*
X104985000Y-92907000D01*
G75*
G02*
X104735000Y-92657000I0J250000D01*
G01*
X104735000Y-92157000D01*
G75*
G02*
X104985000Y-91907000I250000J0D01*
G01*
X105835000Y-91907000D01*
G75*
G02*
X106085000Y-92157000I0J-250000D01*
G01*
X106085000Y-92657000D01*
G75*
G02*
X105835000Y-92907000I-250000J0D01*
G01*
G37*
G36*
G01*
X105835000Y-94607000D02*
X104985000Y-94607000D01*
G75*
G02*
X104735000Y-94357000I0J250000D01*
G01*
X104735000Y-93857000D01*
G75*
G02*
X104985000Y-93607000I250000J0D01*
G01*
X105835000Y-93607000D01*
G75*
G02*
X106085000Y-93857000I0J-250000D01*
G01*
X106085000Y-94357000D01*
G75*
G02*
X105835000Y-94607000I-250000J0D01*
G01*
G37*
G36*
G01*
X111550000Y-92907000D02*
X110700000Y-92907000D01*
G75*
G02*
X110450000Y-92657000I0J250000D01*
G01*
X110450000Y-92157000D01*
G75*
G02*
X110700000Y-91907000I250000J0D01*
G01*
X111550000Y-91907000D01*
G75*
G02*
X111800000Y-92157000I0J-250000D01*
G01*
X111800000Y-92657000D01*
G75*
G02*
X111550000Y-92907000I-250000J0D01*
G01*
G37*
G36*
G01*
X111550000Y-94607000D02*
X110700000Y-94607000D01*
G75*
G02*
X110450000Y-94357000I0J250000D01*
G01*
X110450000Y-93857000D01*
G75*
G02*
X110700000Y-93607000I250000J0D01*
G01*
X111550000Y-93607000D01*
G75*
G02*
X111800000Y-93857000I0J-250000D01*
G01*
X111800000Y-94357000D01*
G75*
G02*
X111550000Y-94607000I-250000J0D01*
G01*
G37*
G36*
G01*
X157905000Y-92907000D02*
X157055000Y-92907000D01*
G75*
G02*
X156805000Y-92657000I0J250000D01*
G01*
X156805000Y-92157000D01*
G75*
G02*
X157055000Y-91907000I250000J0D01*
G01*
X157905000Y-91907000D01*
G75*
G02*
X158155000Y-92157000I0J-250000D01*
G01*
X158155000Y-92657000D01*
G75*
G02*
X157905000Y-92907000I-250000J0D01*
G01*
G37*
G36*
G01*
X157905000Y-94607000D02*
X157055000Y-94607000D01*
G75*
G02*
X156805000Y-94357000I0J250000D01*
G01*
X156805000Y-93857000D01*
G75*
G02*
X157055000Y-93607000I250000J0D01*
G01*
X157905000Y-93607000D01*
G75*
G02*
X158155000Y-93857000I0J-250000D01*
G01*
X158155000Y-94357000D01*
G75*
G02*
X157905000Y-94607000I-250000J0D01*
G01*
G37*
G36*
G01*
X131870000Y-92907000D02*
X131020000Y-92907000D01*
G75*
G02*
X130770000Y-92657000I0J250000D01*
G01*
X130770000Y-92157000D01*
G75*
G02*
X131020000Y-91907000I250000J0D01*
G01*
X131870000Y-91907000D01*
G75*
G02*
X132120000Y-92157000I0J-250000D01*
G01*
X132120000Y-92657000D01*
G75*
G02*
X131870000Y-92907000I-250000J0D01*
G01*
G37*
G36*
G01*
X131870000Y-94607000D02*
X131020000Y-94607000D01*
G75*
G02*
X130770000Y-94357000I0J250000D01*
G01*
X130770000Y-93857000D01*
G75*
G02*
X131020000Y-93607000I250000J0D01*
G01*
X131870000Y-93607000D01*
G75*
G02*
X132120000Y-93857000I0J-250000D01*
G01*
X132120000Y-94357000D01*
G75*
G02*
X131870000Y-94607000I-250000J0D01*
G01*
G37*
G36*
G01*
X82150000Y-86025000D02*
X82150000Y-86975000D01*
G75*
G02*
X81950000Y-87175000I-200000J0D01*
G01*
X81550000Y-87175000D01*
G75*
G02*
X81350000Y-86975000I0J200000D01*
G01*
X81350000Y-86025000D01*
G75*
G02*
X81550000Y-85825000I200000J0D01*
G01*
X81950000Y-85825000D01*
G75*
G02*
X82150000Y-86025000I0J-200000D01*
G01*
G37*
G36*
G01*
X84050000Y-86025000D02*
X84050000Y-86975000D01*
G75*
G02*
X83850000Y-87175000I-200000J0D01*
G01*
X83450000Y-87175000D01*
G75*
G02*
X83250000Y-86975000I0J200000D01*
G01*
X83250000Y-86025000D01*
G75*
G02*
X83450000Y-85825000I200000J0D01*
G01*
X83850000Y-85825000D01*
G75*
G02*
X84050000Y-86025000I0J-200000D01*
G01*
G37*
G36*
G01*
X83250000Y-84975000D02*
X83250000Y-84025000D01*
G75*
G02*
X83450000Y-83825000I200000J0D01*
G01*
X83850000Y-83825000D01*
G75*
G02*
X84050000Y-84025000I0J-200000D01*
G01*
X84050000Y-84975000D01*
G75*
G02*
X83850000Y-85175000I-200000J0D01*
G01*
X83450000Y-85175000D01*
G75*
G02*
X83250000Y-84975000I0J200000D01*
G01*
G37*
G36*
G01*
X81350000Y-84975000D02*
X81350000Y-84025000D01*
G75*
G02*
X81550000Y-83825000I200000J0D01*
G01*
X81950000Y-83825000D01*
G75*
G02*
X82150000Y-84025000I0J-200000D01*
G01*
X82150000Y-84975000D01*
G75*
G02*
X81950000Y-85175000I-200000J0D01*
G01*
X81550000Y-85175000D01*
G75*
G02*
X81350000Y-84975000I0J200000D01*
G01*
G37*
G36*
G01*
X113802500Y-95352000D02*
X113527500Y-95352000D01*
G75*
G02*
X113390000Y-95214500I0J137500D01*
G01*
X113390000Y-93507500D01*
G75*
G02*
X113527500Y-93370000I137500J0D01*
G01*
X113802500Y-93370000D01*
G75*
G02*
X113940000Y-93507500I0J-137500D01*
G01*
X113940000Y-95214500D01*
G75*
G02*
X113802500Y-95352000I-137500J0D01*
G01*
G37*
G36*
G01*
X115072500Y-95352000D02*
X114797500Y-95352000D01*
G75*
G02*
X114660000Y-95214500I0J137500D01*
G01*
X114660000Y-93507500D01*
G75*
G02*
X114797500Y-93370000I137500J0D01*
G01*
X115072500Y-93370000D01*
G75*
G02*
X115210000Y-93507500I0J-137500D01*
G01*
X115210000Y-95214500D01*
G75*
G02*
X115072500Y-95352000I-137500J0D01*
G01*
G37*
G36*
G01*
X116342500Y-95352000D02*
X116067500Y-95352000D01*
G75*
G02*
X115930000Y-95214500I0J137500D01*
G01*
X115930000Y-93507500D01*
G75*
G02*
X116067500Y-93370000I137500J0D01*
G01*
X116342500Y-93370000D01*
G75*
G02*
X116480000Y-93507500I0J-137500D01*
G01*
X116480000Y-95214500D01*
G75*
G02*
X116342500Y-95352000I-137500J0D01*
G01*
G37*
G36*
G01*
X117612500Y-95352000D02*
X117337500Y-95352000D01*
G75*
G02*
X117200000Y-95214500I0J137500D01*
G01*
X117200000Y-93507500D01*
G75*
G02*
X117337500Y-93370000I137500J0D01*
G01*
X117612500Y-93370000D01*
G75*
G02*
X117750000Y-93507500I0J-137500D01*
G01*
X117750000Y-95214500D01*
G75*
G02*
X117612500Y-95352000I-137500J0D01*
G01*
G37*
G36*
G01*
X118882500Y-95352000D02*
X118607500Y-95352000D01*
G75*
G02*
X118470000Y-95214500I0J137500D01*
G01*
X118470000Y-93507500D01*
G75*
G02*
X118607500Y-93370000I137500J0D01*
G01*
X118882500Y-93370000D01*
G75*
G02*
X119020000Y-93507500I0J-137500D01*
G01*
X119020000Y-95214500D01*
G75*
G02*
X118882500Y-95352000I-137500J0D01*
G01*
G37*
G36*
G01*
X120152500Y-95352000D02*
X119877500Y-95352000D01*
G75*
G02*
X119740000Y-95214500I0J137500D01*
G01*
X119740000Y-93507500D01*
G75*
G02*
X119877500Y-93370000I137500J0D01*
G01*
X120152500Y-93370000D01*
G75*
G02*
X120290000Y-93507500I0J-137500D01*
G01*
X120290000Y-95214500D01*
G75*
G02*
X120152500Y-95352000I-137500J0D01*
G01*
G37*
G36*
G01*
X122692500Y-95352000D02*
X122417500Y-95352000D01*
G75*
G02*
X122280000Y-95214500I0J137500D01*
G01*
X122280000Y-93507500D01*
G75*
G02*
X122417500Y-93370000I137500J0D01*
G01*
X122692500Y-93370000D01*
G75*
G02*
X122830000Y-93507500I0J-137500D01*
G01*
X122830000Y-95214500D01*
G75*
G02*
X122692500Y-95352000I-137500J0D01*
G01*
G37*
G36*
G01*
X123962500Y-95352000D02*
X123687500Y-95352000D01*
G75*
G02*
X123550000Y-95214500I0J137500D01*
G01*
X123550000Y-93507500D01*
G75*
G02*
X123687500Y-93370000I137500J0D01*
G01*
X123962500Y-93370000D01*
G75*
G02*
X124100000Y-93507500I0J-137500D01*
G01*
X124100000Y-95214500D01*
G75*
G02*
X123962500Y-95352000I-137500J0D01*
G01*
G37*
G36*
G01*
X125232500Y-95352000D02*
X124957500Y-95352000D01*
G75*
G02*
X124820000Y-95214500I0J137500D01*
G01*
X124820000Y-93507500D01*
G75*
G02*
X124957500Y-93370000I137500J0D01*
G01*
X125232500Y-93370000D01*
G75*
G02*
X125370000Y-93507500I0J-137500D01*
G01*
X125370000Y-95214500D01*
G75*
G02*
X125232500Y-95352000I-137500J0D01*
G01*
G37*
G36*
G01*
X126502500Y-95352000D02*
X126227500Y-95352000D01*
G75*
G02*
X126090000Y-95214500I0J137500D01*
G01*
X126090000Y-93507500D01*
G75*
G02*
X126227500Y-93370000I137500J0D01*
G01*
X126502500Y-93370000D01*
G75*
G02*
X126640000Y-93507500I0J-137500D01*
G01*
X126640000Y-95214500D01*
G75*
G02*
X126502500Y-95352000I-137500J0D01*
G01*
G37*
G36*
G01*
X127772500Y-95352000D02*
X127497500Y-95352000D01*
G75*
G02*
X127360000Y-95214500I0J137500D01*
G01*
X127360000Y-93507500D01*
G75*
G02*
X127497500Y-93370000I137500J0D01*
G01*
X127772500Y-93370000D01*
G75*
G02*
X127910000Y-93507500I0J-137500D01*
G01*
X127910000Y-95214500D01*
G75*
G02*
X127772500Y-95352000I-137500J0D01*
G01*
G37*
G36*
G01*
X129042500Y-95352000D02*
X128767500Y-95352000D01*
G75*
G02*
X128630000Y-95214500I0J137500D01*
G01*
X128630000Y-93507500D01*
G75*
G02*
X128767500Y-93370000I137500J0D01*
G01*
X129042500Y-93370000D01*
G75*
G02*
X129180000Y-93507500I0J-137500D01*
G01*
X129180000Y-95214500D01*
G75*
G02*
X129042500Y-95352000I-137500J0D01*
G01*
G37*
G36*
G01*
X129042500Y-85954000D02*
X128767500Y-85954000D01*
G75*
G02*
X128630000Y-85816500I0J137500D01*
G01*
X128630000Y-84109500D01*
G75*
G02*
X128767500Y-83972000I137500J0D01*
G01*
X129042500Y-83972000D01*
G75*
G02*
X129180000Y-84109500I0J-137500D01*
G01*
X129180000Y-85816500D01*
G75*
G02*
X129042500Y-85954000I-137500J0D01*
G01*
G37*
G36*
G01*
X127772500Y-85954000D02*
X127497500Y-85954000D01*
G75*
G02*
X127360000Y-85816500I0J137500D01*
G01*
X127360000Y-84109500D01*
G75*
G02*
X127497500Y-83972000I137500J0D01*
G01*
X127772500Y-83972000D01*
G75*
G02*
X127910000Y-84109500I0J-137500D01*
G01*
X127910000Y-85816500D01*
G75*
G02*
X127772500Y-85954000I-137500J0D01*
G01*
G37*
G36*
G01*
X126502500Y-85954000D02*
X126227500Y-85954000D01*
G75*
G02*
X126090000Y-85816500I0J137500D01*
G01*
X126090000Y-84109500D01*
G75*
G02*
X126227500Y-83972000I137500J0D01*
G01*
X126502500Y-83972000D01*
G75*
G02*
X126640000Y-84109500I0J-137500D01*
G01*
X126640000Y-85816500D01*
G75*
G02*
X126502500Y-85954000I-137500J0D01*
G01*
G37*
G36*
G01*
X125232500Y-85954000D02*
X124957500Y-85954000D01*
G75*
G02*
X124820000Y-85816500I0J137500D01*
G01*
X124820000Y-84109500D01*
G75*
G02*
X124957500Y-83972000I137500J0D01*
G01*
X125232500Y-83972000D01*
G75*
G02*
X125370000Y-84109500I0J-137500D01*
G01*
X125370000Y-85816500D01*
G75*
G02*
X125232500Y-85954000I-137500J0D01*
G01*
G37*
G36*
G01*
X123962500Y-85954000D02*
X123687500Y-85954000D01*
G75*
G02*
X123550000Y-85816500I0J137500D01*
G01*
X123550000Y-84109500D01*
G75*
G02*
X123687500Y-83972000I137500J0D01*
G01*
X123962500Y-83972000D01*
G75*
G02*
X124100000Y-84109500I0J-137500D01*
G01*
X124100000Y-85816500D01*
G75*
G02*
X123962500Y-85954000I-137500J0D01*
G01*
G37*
G36*
G01*
X122692500Y-85954000D02*
X122417500Y-85954000D01*
G75*
G02*
X122280000Y-85816500I0J137500D01*
G01*
X122280000Y-84109500D01*
G75*
G02*
X122417500Y-83972000I137500J0D01*
G01*
X122692500Y-83972000D01*
G75*
G02*
X122830000Y-84109500I0J-137500D01*
G01*
X122830000Y-85816500D01*
G75*
G02*
X122692500Y-85954000I-137500J0D01*
G01*
G37*
G36*
G01*
X120152500Y-85954000D02*
X119877500Y-85954000D01*
G75*
G02*
X119740000Y-85816500I0J137500D01*
G01*
X119740000Y-84109500D01*
G75*
G02*
X119877500Y-83972000I137500J0D01*
G01*
X120152500Y-83972000D01*
G75*
G02*
X120290000Y-84109500I0J-137500D01*
G01*
X120290000Y-85816500D01*
G75*
G02*
X120152500Y-85954000I-137500J0D01*
G01*
G37*
G36*
G01*
X118882500Y-85954000D02*
X118607500Y-85954000D01*
G75*
G02*
X118470000Y-85816500I0J137500D01*
G01*
X118470000Y-84109500D01*
G75*
G02*
X118607500Y-83972000I137500J0D01*
G01*
X118882500Y-83972000D01*
G75*
G02*
X119020000Y-84109500I0J-137500D01*
G01*
X119020000Y-85816500D01*
G75*
G02*
X118882500Y-85954000I-137500J0D01*
G01*
G37*
G36*
G01*
X117612500Y-85954000D02*
X117337500Y-85954000D01*
G75*
G02*
X117200000Y-85816500I0J137500D01*
G01*
X117200000Y-84109500D01*
G75*
G02*
X117337500Y-83972000I137500J0D01*
G01*
X117612500Y-83972000D01*
G75*
G02*
X117750000Y-84109500I0J-137500D01*
G01*
X117750000Y-85816500D01*
G75*
G02*
X117612500Y-85954000I-137500J0D01*
G01*
G37*
G36*
G01*
X116342500Y-85954000D02*
X116067500Y-85954000D01*
G75*
G02*
X115930000Y-85816500I0J137500D01*
G01*
X115930000Y-84109500D01*
G75*
G02*
X116067500Y-83972000I137500J0D01*
G01*
X116342500Y-83972000D01*
G75*
G02*
X116480000Y-84109500I0J-137500D01*
G01*
X116480000Y-85816500D01*
G75*
G02*
X116342500Y-85954000I-137500J0D01*
G01*
G37*
G36*
G01*
X115072500Y-85954000D02*
X114797500Y-85954000D01*
G75*
G02*
X114660000Y-85816500I0J137500D01*
G01*
X114660000Y-84109500D01*
G75*
G02*
X114797500Y-83972000I137500J0D01*
G01*
X115072500Y-83972000D01*
G75*
G02*
X115210000Y-84109500I0J-137500D01*
G01*
X115210000Y-85816500D01*
G75*
G02*
X115072500Y-85954000I-137500J0D01*
G01*
G37*
G36*
G01*
X113802500Y-85954000D02*
X113527500Y-85954000D01*
G75*
G02*
X113390000Y-85816500I0J137500D01*
G01*
X113390000Y-84109500D01*
G75*
G02*
X113527500Y-83972000I137500J0D01*
G01*
X113802500Y-83972000D01*
G75*
G02*
X113940000Y-84109500I0J-137500D01*
G01*
X113940000Y-85816500D01*
G75*
G02*
X113802500Y-85954000I-137500J0D01*
G01*
G37*
G36*
G01*
X87767500Y-85954000D02*
X87492500Y-85954000D01*
G75*
G02*
X87355000Y-85816500I0J137500D01*
G01*
X87355000Y-84109500D01*
G75*
G02*
X87492500Y-83972000I137500J0D01*
G01*
X87767500Y-83972000D01*
G75*
G02*
X87905000Y-84109500I0J-137500D01*
G01*
X87905000Y-85816500D01*
G75*
G02*
X87767500Y-85954000I-137500J0D01*
G01*
G37*
G36*
G01*
X89037500Y-85954000D02*
X88762500Y-85954000D01*
G75*
G02*
X88625000Y-85816500I0J137500D01*
G01*
X88625000Y-84109500D01*
G75*
G02*
X88762500Y-83972000I137500J0D01*
G01*
X89037500Y-83972000D01*
G75*
G02*
X89175000Y-84109500I0J-137500D01*
G01*
X89175000Y-85816500D01*
G75*
G02*
X89037500Y-85954000I-137500J0D01*
G01*
G37*
G36*
G01*
X90307500Y-85954000D02*
X90032500Y-85954000D01*
G75*
G02*
X89895000Y-85816500I0J137500D01*
G01*
X89895000Y-84109500D01*
G75*
G02*
X90032500Y-83972000I137500J0D01*
G01*
X90307500Y-83972000D01*
G75*
G02*
X90445000Y-84109500I0J-137500D01*
G01*
X90445000Y-85816500D01*
G75*
G02*
X90307500Y-85954000I-137500J0D01*
G01*
G37*
G36*
G01*
X91577500Y-85954000D02*
X91302500Y-85954000D01*
G75*
G02*
X91165000Y-85816500I0J137500D01*
G01*
X91165000Y-84109500D01*
G75*
G02*
X91302500Y-83972000I137500J0D01*
G01*
X91577500Y-83972000D01*
G75*
G02*
X91715000Y-84109500I0J-137500D01*
G01*
X91715000Y-85816500D01*
G75*
G02*
X91577500Y-85954000I-137500J0D01*
G01*
G37*
G36*
G01*
X92847500Y-85954000D02*
X92572500Y-85954000D01*
G75*
G02*
X92435000Y-85816500I0J137500D01*
G01*
X92435000Y-84109500D01*
G75*
G02*
X92572500Y-83972000I137500J0D01*
G01*
X92847500Y-83972000D01*
G75*
G02*
X92985000Y-84109500I0J-137500D01*
G01*
X92985000Y-85816500D01*
G75*
G02*
X92847500Y-85954000I-137500J0D01*
G01*
G37*
G36*
G01*
X94117500Y-85954000D02*
X93842500Y-85954000D01*
G75*
G02*
X93705000Y-85816500I0J137500D01*
G01*
X93705000Y-84109500D01*
G75*
G02*
X93842500Y-83972000I137500J0D01*
G01*
X94117500Y-83972000D01*
G75*
G02*
X94255000Y-84109500I0J-137500D01*
G01*
X94255000Y-85816500D01*
G75*
G02*
X94117500Y-85954000I-137500J0D01*
G01*
G37*
G36*
G01*
X96657500Y-85954000D02*
X96382500Y-85954000D01*
G75*
G02*
X96245000Y-85816500I0J137500D01*
G01*
X96245000Y-84109500D01*
G75*
G02*
X96382500Y-83972000I137500J0D01*
G01*
X96657500Y-83972000D01*
G75*
G02*
X96795000Y-84109500I0J-137500D01*
G01*
X96795000Y-85816500D01*
G75*
G02*
X96657500Y-85954000I-137500J0D01*
G01*
G37*
G36*
G01*
X97927500Y-85954000D02*
X97652500Y-85954000D01*
G75*
G02*
X97515000Y-85816500I0J137500D01*
G01*
X97515000Y-84109500D01*
G75*
G02*
X97652500Y-83972000I137500J0D01*
G01*
X97927500Y-83972000D01*
G75*
G02*
X98065000Y-84109500I0J-137500D01*
G01*
X98065000Y-85816500D01*
G75*
G02*
X97927500Y-85954000I-137500J0D01*
G01*
G37*
G36*
G01*
X99197500Y-85954000D02*
X98922500Y-85954000D01*
G75*
G02*
X98785000Y-85816500I0J137500D01*
G01*
X98785000Y-84109500D01*
G75*
G02*
X98922500Y-83972000I137500J0D01*
G01*
X99197500Y-83972000D01*
G75*
G02*
X99335000Y-84109500I0J-137500D01*
G01*
X99335000Y-85816500D01*
G75*
G02*
X99197500Y-85954000I-137500J0D01*
G01*
G37*
G36*
G01*
X100467500Y-85954000D02*
X100192500Y-85954000D01*
G75*
G02*
X100055000Y-85816500I0J137500D01*
G01*
X100055000Y-84109500D01*
G75*
G02*
X100192500Y-83972000I137500J0D01*
G01*
X100467500Y-83972000D01*
G75*
G02*
X100605000Y-84109500I0J-137500D01*
G01*
X100605000Y-85816500D01*
G75*
G02*
X100467500Y-85954000I-137500J0D01*
G01*
G37*
G36*
G01*
X101737500Y-85954000D02*
X101462500Y-85954000D01*
G75*
G02*
X101325000Y-85816500I0J137500D01*
G01*
X101325000Y-84109500D01*
G75*
G02*
X101462500Y-83972000I137500J0D01*
G01*
X101737500Y-83972000D01*
G75*
G02*
X101875000Y-84109500I0J-137500D01*
G01*
X101875000Y-85816500D01*
G75*
G02*
X101737500Y-85954000I-137500J0D01*
G01*
G37*
G36*
G01*
X103007500Y-85954000D02*
X102732500Y-85954000D01*
G75*
G02*
X102595000Y-85816500I0J137500D01*
G01*
X102595000Y-84109500D01*
G75*
G02*
X102732500Y-83972000I137500J0D01*
G01*
X103007500Y-83972000D01*
G75*
G02*
X103145000Y-84109500I0J-137500D01*
G01*
X103145000Y-85816500D01*
G75*
G02*
X103007500Y-85954000I-137500J0D01*
G01*
G37*
G36*
G01*
X103007500Y-95352000D02*
X102732500Y-95352000D01*
G75*
G02*
X102595000Y-95214500I0J137500D01*
G01*
X102595000Y-93507500D01*
G75*
G02*
X102732500Y-93370000I137500J0D01*
G01*
X103007500Y-93370000D01*
G75*
G02*
X103145000Y-93507500I0J-137500D01*
G01*
X103145000Y-95214500D01*
G75*
G02*
X103007500Y-95352000I-137500J0D01*
G01*
G37*
G36*
G01*
X101737500Y-95352000D02*
X101462500Y-95352000D01*
G75*
G02*
X101325000Y-95214500I0J137500D01*
G01*
X101325000Y-93507500D01*
G75*
G02*
X101462500Y-93370000I137500J0D01*
G01*
X101737500Y-93370000D01*
G75*
G02*
X101875000Y-93507500I0J-137500D01*
G01*
X101875000Y-95214500D01*
G75*
G02*
X101737500Y-95352000I-137500J0D01*
G01*
G37*
G36*
G01*
X100467500Y-95352000D02*
X100192500Y-95352000D01*
G75*
G02*
X100055000Y-95214500I0J137500D01*
G01*
X100055000Y-93507500D01*
G75*
G02*
X100192500Y-93370000I137500J0D01*
G01*
X100467500Y-93370000D01*
G75*
G02*
X100605000Y-93507500I0J-137500D01*
G01*
X100605000Y-95214500D01*
G75*
G02*
X100467500Y-95352000I-137500J0D01*
G01*
G37*
G36*
G01*
X99197500Y-95352000D02*
X98922500Y-95352000D01*
G75*
G02*
X98785000Y-95214500I0J137500D01*
G01*
X98785000Y-93507500D01*
G75*
G02*
X98922500Y-93370000I137500J0D01*
G01*
X99197500Y-93370000D01*
G75*
G02*
X99335000Y-93507500I0J-137500D01*
G01*
X99335000Y-95214500D01*
G75*
G02*
X99197500Y-95352000I-137500J0D01*
G01*
G37*
G36*
G01*
X97927500Y-95352000D02*
X97652500Y-95352000D01*
G75*
G02*
X97515000Y-95214500I0J137500D01*
G01*
X97515000Y-93507500D01*
G75*
G02*
X97652500Y-93370000I137500J0D01*
G01*
X97927500Y-93370000D01*
G75*
G02*
X98065000Y-93507500I0J-137500D01*
G01*
X98065000Y-95214500D01*
G75*
G02*
X97927500Y-95352000I-137500J0D01*
G01*
G37*
G36*
G01*
X96657500Y-95352000D02*
X96382500Y-95352000D01*
G75*
G02*
X96245000Y-95214500I0J137500D01*
G01*
X96245000Y-93507500D01*
G75*
G02*
X96382500Y-93370000I137500J0D01*
G01*
X96657500Y-93370000D01*
G75*
G02*
X96795000Y-93507500I0J-137500D01*
G01*
X96795000Y-95214500D01*
G75*
G02*
X96657500Y-95352000I-137500J0D01*
G01*
G37*
G36*
G01*
X94117500Y-95352000D02*
X93842500Y-95352000D01*
G75*
G02*
X93705000Y-95214500I0J137500D01*
G01*
X93705000Y-93507500D01*
G75*
G02*
X93842500Y-93370000I137500J0D01*
G01*
X94117500Y-93370000D01*
G75*
G02*
X94255000Y-93507500I0J-137500D01*
G01*
X94255000Y-95214500D01*
G75*
G02*
X94117500Y-95352000I-137500J0D01*
G01*
G37*
G36*
G01*
X92847500Y-95352000D02*
X92572500Y-95352000D01*
G75*
G02*
X92435000Y-95214500I0J137500D01*
G01*
X92435000Y-93507500D01*
G75*
G02*
X92572500Y-93370000I137500J0D01*
G01*
X92847500Y-93370000D01*
G75*
G02*
X92985000Y-93507500I0J-137500D01*
G01*
X92985000Y-95214500D01*
G75*
G02*
X92847500Y-95352000I-137500J0D01*
G01*
G37*
G36*
G01*
X91577500Y-95352000D02*
X91302500Y-95352000D01*
G75*
G02*
X91165000Y-95214500I0J137500D01*
G01*
X91165000Y-93507500D01*
G75*
G02*
X91302500Y-93370000I137500J0D01*
G01*
X91577500Y-93370000D01*
G75*
G02*
X91715000Y-93507500I0J-137500D01*
G01*
X91715000Y-95214500D01*
G75*
G02*
X91577500Y-95352000I-137500J0D01*
G01*
G37*
G36*
G01*
X90307500Y-95352000D02*
X90032500Y-95352000D01*
G75*
G02*
X89895000Y-95214500I0J137500D01*
G01*
X89895000Y-93507500D01*
G75*
G02*
X90032500Y-93370000I137500J0D01*
G01*
X90307500Y-93370000D01*
G75*
G02*
X90445000Y-93507500I0J-137500D01*
G01*
X90445000Y-95214500D01*
G75*
G02*
X90307500Y-95352000I-137500J0D01*
G01*
G37*
G36*
G01*
X89037500Y-95352000D02*
X88762500Y-95352000D01*
G75*
G02*
X88625000Y-95214500I0J137500D01*
G01*
X88625000Y-93507500D01*
G75*
G02*
X88762500Y-93370000I137500J0D01*
G01*
X89037500Y-93370000D01*
G75*
G02*
X89175000Y-93507500I0J-137500D01*
G01*
X89175000Y-95214500D01*
G75*
G02*
X89037500Y-95352000I-137500J0D01*
G01*
G37*
G36*
G01*
X87767500Y-95352000D02*
X87492500Y-95352000D01*
G75*
G02*
X87355000Y-95214500I0J137500D01*
G01*
X87355000Y-93507500D01*
G75*
G02*
X87492500Y-93370000I137500J0D01*
G01*
X87767500Y-93370000D01*
G75*
G02*
X87905000Y-93507500I0J-137500D01*
G01*
X87905000Y-95214500D01*
G75*
G02*
X87767500Y-95352000I-137500J0D01*
G01*
G37*
G36*
G01*
X139837500Y-85954000D02*
X139562500Y-85954000D01*
G75*
G02*
X139425000Y-85816500I0J137500D01*
G01*
X139425000Y-84109500D01*
G75*
G02*
X139562500Y-83972000I137500J0D01*
G01*
X139837500Y-83972000D01*
G75*
G02*
X139975000Y-84109500I0J-137500D01*
G01*
X139975000Y-85816500D01*
G75*
G02*
X139837500Y-85954000I-137500J0D01*
G01*
G37*
G36*
G01*
X141107500Y-85954000D02*
X140832500Y-85954000D01*
G75*
G02*
X140695000Y-85816500I0J137500D01*
G01*
X140695000Y-84109500D01*
G75*
G02*
X140832500Y-83972000I137500J0D01*
G01*
X141107500Y-83972000D01*
G75*
G02*
X141245000Y-84109500I0J-137500D01*
G01*
X141245000Y-85816500D01*
G75*
G02*
X141107500Y-85954000I-137500J0D01*
G01*
G37*
G36*
G01*
X142377500Y-85954000D02*
X142102500Y-85954000D01*
G75*
G02*
X141965000Y-85816500I0J137500D01*
G01*
X141965000Y-84109500D01*
G75*
G02*
X142102500Y-83972000I137500J0D01*
G01*
X142377500Y-83972000D01*
G75*
G02*
X142515000Y-84109500I0J-137500D01*
G01*
X142515000Y-85816500D01*
G75*
G02*
X142377500Y-85954000I-137500J0D01*
G01*
G37*
G36*
G01*
X143647500Y-85954000D02*
X143372500Y-85954000D01*
G75*
G02*
X143235000Y-85816500I0J137500D01*
G01*
X143235000Y-84109500D01*
G75*
G02*
X143372500Y-83972000I137500J0D01*
G01*
X143647500Y-83972000D01*
G75*
G02*
X143785000Y-84109500I0J-137500D01*
G01*
X143785000Y-85816500D01*
G75*
G02*
X143647500Y-85954000I-137500J0D01*
G01*
G37*
G36*
G01*
X144917500Y-85954000D02*
X144642500Y-85954000D01*
G75*
G02*
X144505000Y-85816500I0J137500D01*
G01*
X144505000Y-84109500D01*
G75*
G02*
X144642500Y-83972000I137500J0D01*
G01*
X144917500Y-83972000D01*
G75*
G02*
X145055000Y-84109500I0J-137500D01*
G01*
X145055000Y-85816500D01*
G75*
G02*
X144917500Y-85954000I-137500J0D01*
G01*
G37*
G36*
G01*
X149997500Y-85954000D02*
X149722500Y-85954000D01*
G75*
G02*
X149585000Y-85816500I0J137500D01*
G01*
X149585000Y-84109500D01*
G75*
G02*
X149722500Y-83972000I137500J0D01*
G01*
X149997500Y-83972000D01*
G75*
G02*
X150135000Y-84109500I0J-137500D01*
G01*
X150135000Y-85816500D01*
G75*
G02*
X149997500Y-85954000I-137500J0D01*
G01*
G37*
G36*
G01*
X151267500Y-85954000D02*
X150992500Y-85954000D01*
G75*
G02*
X150855000Y-85816500I0J137500D01*
G01*
X150855000Y-84109500D01*
G75*
G02*
X150992500Y-83972000I137500J0D01*
G01*
X151267500Y-83972000D01*
G75*
G02*
X151405000Y-84109500I0J-137500D01*
G01*
X151405000Y-85816500D01*
G75*
G02*
X151267500Y-85954000I-137500J0D01*
G01*
G37*
G36*
G01*
X152537500Y-85954000D02*
X152262500Y-85954000D01*
G75*
G02*
X152125000Y-85816500I0J137500D01*
G01*
X152125000Y-84109500D01*
G75*
G02*
X152262500Y-83972000I137500J0D01*
G01*
X152537500Y-83972000D01*
G75*
G02*
X152675000Y-84109500I0J-137500D01*
G01*
X152675000Y-85816500D01*
G75*
G02*
X152537500Y-85954000I-137500J0D01*
G01*
G37*
G36*
G01*
X153807500Y-85954000D02*
X153532500Y-85954000D01*
G75*
G02*
X153395000Y-85816500I0J137500D01*
G01*
X153395000Y-84109500D01*
G75*
G02*
X153532500Y-83972000I137500J0D01*
G01*
X153807500Y-83972000D01*
G75*
G02*
X153945000Y-84109500I0J-137500D01*
G01*
X153945000Y-85816500D01*
G75*
G02*
X153807500Y-85954000I-137500J0D01*
G01*
G37*
G36*
G01*
X155077500Y-85954000D02*
X154802500Y-85954000D01*
G75*
G02*
X154665000Y-85816500I0J137500D01*
G01*
X154665000Y-84109500D01*
G75*
G02*
X154802500Y-83972000I137500J0D01*
G01*
X155077500Y-83972000D01*
G75*
G02*
X155215000Y-84109500I0J-137500D01*
G01*
X155215000Y-85816500D01*
G75*
G02*
X155077500Y-85954000I-137500J0D01*
G01*
G37*
G36*
G01*
X155077500Y-95352000D02*
X154802500Y-95352000D01*
G75*
G02*
X154665000Y-95214500I0J137500D01*
G01*
X154665000Y-93507500D01*
G75*
G02*
X154802500Y-93370000I137500J0D01*
G01*
X155077500Y-93370000D01*
G75*
G02*
X155215000Y-93507500I0J-137500D01*
G01*
X155215000Y-95214500D01*
G75*
G02*
X155077500Y-95352000I-137500J0D01*
G01*
G37*
G36*
G01*
X153807500Y-95352000D02*
X153532500Y-95352000D01*
G75*
G02*
X153395000Y-95214500I0J137500D01*
G01*
X153395000Y-93507500D01*
G75*
G02*
X153532500Y-93370000I137500J0D01*
G01*
X153807500Y-93370000D01*
G75*
G02*
X153945000Y-93507500I0J-137500D01*
G01*
X153945000Y-95214500D01*
G75*
G02*
X153807500Y-95352000I-137500J0D01*
G01*
G37*
G36*
G01*
X152537500Y-95352000D02*
X152262500Y-95352000D01*
G75*
G02*
X152125000Y-95214500I0J137500D01*
G01*
X152125000Y-93507500D01*
G75*
G02*
X152262500Y-93370000I137500J0D01*
G01*
X152537500Y-93370000D01*
G75*
G02*
X152675000Y-93507500I0J-137500D01*
G01*
X152675000Y-95214500D01*
G75*
G02*
X152537500Y-95352000I-137500J0D01*
G01*
G37*
G36*
G01*
X151267500Y-95352000D02*
X150992500Y-95352000D01*
G75*
G02*
X150855000Y-95214500I0J137500D01*
G01*
X150855000Y-93507500D01*
G75*
G02*
X150992500Y-93370000I137500J0D01*
G01*
X151267500Y-93370000D01*
G75*
G02*
X151405000Y-93507500I0J-137500D01*
G01*
X151405000Y-95214500D01*
G75*
G02*
X151267500Y-95352000I-137500J0D01*
G01*
G37*
G36*
G01*
X149997500Y-95352000D02*
X149722500Y-95352000D01*
G75*
G02*
X149585000Y-95214500I0J137500D01*
G01*
X149585000Y-93507500D01*
G75*
G02*
X149722500Y-93370000I137500J0D01*
G01*
X149997500Y-93370000D01*
G75*
G02*
X150135000Y-93507500I0J-137500D01*
G01*
X150135000Y-95214500D01*
G75*
G02*
X149997500Y-95352000I-137500J0D01*
G01*
G37*
G36*
G01*
X144917500Y-95352000D02*
X144642500Y-95352000D01*
G75*
G02*
X144505000Y-95214500I0J137500D01*
G01*
X144505000Y-93507500D01*
G75*
G02*
X144642500Y-93370000I137500J0D01*
G01*
X144917500Y-93370000D01*
G75*
G02*
X145055000Y-93507500I0J-137500D01*
G01*
X145055000Y-95214500D01*
G75*
G02*
X144917500Y-95352000I-137500J0D01*
G01*
G37*
G36*
G01*
X143647500Y-95352000D02*
X143372500Y-95352000D01*
G75*
G02*
X143235000Y-95214500I0J137500D01*
G01*
X143235000Y-93507500D01*
G75*
G02*
X143372500Y-93370000I137500J0D01*
G01*
X143647500Y-93370000D01*
G75*
G02*
X143785000Y-93507500I0J-137500D01*
G01*
X143785000Y-95214500D01*
G75*
G02*
X143647500Y-95352000I-137500J0D01*
G01*
G37*
G36*
G01*
X142377500Y-95352000D02*
X142102500Y-95352000D01*
G75*
G02*
X141965000Y-95214500I0J137500D01*
G01*
X141965000Y-93507500D01*
G75*
G02*
X142102500Y-93370000I137500J0D01*
G01*
X142377500Y-93370000D01*
G75*
G02*
X142515000Y-93507500I0J-137500D01*
G01*
X142515000Y-95214500D01*
G75*
G02*
X142377500Y-95352000I-137500J0D01*
G01*
G37*
G36*
G01*
X141107500Y-95352000D02*
X140832500Y-95352000D01*
G75*
G02*
X140695000Y-95214500I0J137500D01*
G01*
X140695000Y-93507500D01*
G75*
G02*
X140832500Y-93370000I137500J0D01*
G01*
X141107500Y-93370000D01*
G75*
G02*
X141245000Y-93507500I0J-137500D01*
G01*
X141245000Y-95214500D01*
G75*
G02*
X141107500Y-95352000I-137500J0D01*
G01*
G37*
G36*
G01*
X139837500Y-95352000D02*
X139562500Y-95352000D01*
G75*
G02*
X139425000Y-95214500I0J137500D01*
G01*
X139425000Y-93507500D01*
G75*
G02*
X139562500Y-93370000I137500J0D01*
G01*
X139837500Y-93370000D01*
G75*
G02*
X139975000Y-93507500I0J-137500D01*
G01*
X139975000Y-95214500D01*
G75*
G02*
X139837500Y-95352000I-137500J0D01*
G01*
G37*
M02*
