G04 #@! TF.GenerationSoftware,KiCad,Pcbnew,7.0.1-0*
G04 #@! TF.CreationDate,2023-11-01T19:37:58-04:00*
G04 #@! TF.ProjectId,GW4194,47573431-3934-42e6-9b69-6361645f7063,1.1-SOJ-DC*
G04 #@! TF.SameCoordinates,Original*
G04 #@! TF.FileFunction,Copper,L4,Bot*
G04 #@! TF.FilePolarity,Positive*
%FSLAX46Y46*%
G04 Gerber Fmt 4.6, Leading zero omitted, Abs format (unit mm)*
G04 Created by KiCad (PCBNEW 7.0.1-0) date 2023-11-01 19:37:58*
%MOMM*%
%LPD*%
G01*
G04 APERTURE LIST*
G04 Aperture macros list*
%AMRoundRect*
0 Rectangle with rounded corners*
0 $1 Rounding radius*
0 $2 $3 $4 $5 $6 $7 $8 $9 X,Y pos of 4 corners*
0 Add a 4 corners polygon primitive as box body*
4,1,4,$2,$3,$4,$5,$6,$7,$8,$9,$2,$3,0*
0 Add four circle primitives for the rounded corners*
1,1,$1+$1,$2,$3*
1,1,$1+$1,$4,$5*
1,1,$1+$1,$6,$7*
1,1,$1+$1,$8,$9*
0 Add four rect primitives between the rounded corners*
20,1,$1+$1,$2,$3,$4,$5,0*
20,1,$1+$1,$4,$5,$6,$7,0*
20,1,$1+$1,$6,$7,$8,$9,0*
20,1,$1+$1,$8,$9,$2,$3,0*%
G04 Aperture macros list end*
G04 #@! TA.AperFunction,ComponentPad*
%ADD10C,0.800000*%
G04 #@! TD*
G04 #@! TA.AperFunction,SMDPad,CuDef*
%ADD11RoundRect,0.444500X-0.444500X-0.825500X0.444500X-0.825500X0.444500X0.825500X-0.444500X0.825500X0*%
G04 #@! TD*
G04 #@! TA.AperFunction,ViaPad*
%ADD12C,0.508000*%
G04 #@! TD*
G04 #@! TA.AperFunction,ViaPad*
%ADD13C,0.800000*%
G04 #@! TD*
G04 #@! TA.AperFunction,ViaPad*
%ADD14C,0.500000*%
G04 #@! TD*
G04 #@! TA.AperFunction,ViaPad*
%ADD15C,0.600000*%
G04 #@! TD*
G04 #@! TA.AperFunction,ViaPad*
%ADD16C,1.000000*%
G04 #@! TD*
G04 APERTURE END LIST*
D10*
X83820000Y-98806000D03*
D11*
X83820000Y-100076000D03*
D10*
X86360000Y-98806000D03*
D11*
X86360000Y-100076000D03*
D10*
X88900000Y-98806000D03*
D11*
X88900000Y-100076000D03*
D10*
X91440000Y-98806000D03*
D11*
X91440000Y-100076000D03*
D10*
X93980000Y-98806000D03*
D11*
X93980000Y-100076000D03*
D10*
X96520000Y-98806000D03*
D11*
X96520000Y-100076000D03*
D10*
X99060000Y-98806000D03*
D11*
X99060000Y-100076000D03*
D10*
X101600000Y-98806000D03*
D11*
X101600000Y-100076000D03*
D10*
X104140000Y-98806000D03*
D11*
X104140000Y-100076000D03*
D10*
X106680000Y-98806000D03*
D11*
X106680000Y-100076000D03*
D10*
X109220000Y-98806000D03*
D11*
X109220000Y-100076000D03*
D10*
X111760000Y-98806000D03*
D11*
X111760000Y-100076000D03*
D10*
X114300000Y-98806000D03*
D11*
X114300000Y-100076000D03*
D10*
X116840000Y-98806000D03*
D11*
X116840000Y-100076000D03*
D10*
X119380000Y-98806000D03*
D11*
X119380000Y-100076000D03*
D10*
X121920000Y-98806000D03*
D11*
X121920000Y-100076000D03*
D10*
X124460000Y-98806000D03*
D11*
X124460000Y-100076000D03*
D10*
X127000000Y-98806000D03*
D11*
X127000000Y-100076000D03*
D10*
X129540000Y-98806000D03*
D11*
X129540000Y-100076000D03*
D10*
X132080000Y-98806000D03*
D11*
X132080000Y-100076000D03*
D10*
X134620000Y-98806000D03*
D11*
X134620000Y-100076000D03*
D10*
X137160000Y-98806000D03*
D11*
X137160000Y-100076000D03*
D10*
X139700000Y-98806000D03*
D11*
X139700000Y-100076000D03*
D10*
X142240000Y-98806000D03*
D11*
X142240000Y-100076000D03*
D10*
X144780000Y-98806000D03*
D11*
X144780000Y-100076000D03*
D10*
X147320000Y-98806000D03*
D11*
X147320000Y-100076000D03*
D10*
X149860000Y-98806000D03*
D11*
X149860000Y-100076000D03*
D10*
X152400000Y-98806000D03*
D11*
X152400000Y-100076000D03*
D10*
X154940000Y-98806000D03*
D11*
X154940000Y-100076000D03*
D10*
X157480000Y-98806000D03*
D11*
X157480000Y-100076000D03*
D12*
X77089000Y-86995000D03*
X164211000Y-86995000D03*
X164211000Y-96139000D03*
X78994000Y-94742000D03*
X159131000Y-82169000D03*
X148971000Y-82169000D03*
X92329000Y-82169000D03*
X102489000Y-82169000D03*
X138811000Y-82169000D03*
X82169000Y-82169000D03*
X112649000Y-82169000D03*
X128651000Y-82169000D03*
D13*
X155250000Y-94300000D03*
X154350000Y-95500000D03*
X153450000Y-94300000D03*
D14*
X121856500Y-95758000D03*
D15*
X121221500Y-91884500D03*
D12*
X105410000Y-94996000D03*
X140779500Y-93980000D03*
D15*
X87630000Y-92900500D03*
D13*
X83820000Y-94107000D03*
X119380000Y-95250000D03*
X85090000Y-95250000D03*
D15*
X86868000Y-94361000D03*
X137160000Y-95821500D03*
D13*
X139700000Y-95250000D03*
D15*
X137922000Y-94361000D03*
D13*
X158750000Y-94107000D03*
D15*
X121158000Y-94361000D03*
X137160000Y-92900500D03*
D13*
X118110000Y-94107000D03*
D15*
X87630000Y-95821500D03*
X103632000Y-94361000D03*
D13*
X106680000Y-94107000D03*
D16*
X157480000Y-95377000D03*
D15*
X102870000Y-92900500D03*
D12*
X146050000Y-97853500D03*
X147400000Y-96500000D03*
X158600000Y-90450000D03*
X127000000Y-90932000D03*
X112522000Y-92456000D03*
X84450000Y-86500000D03*
X91440000Y-88392000D03*
X112776000Y-95377000D03*
X110617000Y-93345000D03*
X95250000Y-90932000D03*
X112395000Y-89408000D03*
X119634000Y-89408000D03*
X111252000Y-97536000D03*
X117729000Y-97917000D03*
X118872000Y-97536000D03*
X139065000Y-97409000D03*
X89408000Y-97028000D03*
X88074500Y-97282000D03*
X114173000Y-92964000D03*
X114935000Y-91948000D03*
X114681000Y-95758000D03*
X144145000Y-97409000D03*
X143129000Y-96393000D03*
X88900000Y-90043000D03*
X87630000Y-90043000D03*
X90170000Y-90043000D03*
X91948000Y-89662000D03*
X126238000Y-89598500D03*
X112395000Y-93472000D03*
X113411000Y-91948000D03*
X116205000Y-92964000D03*
X111506000Y-92583000D03*
X121412000Y-97536000D03*
X122428000Y-97536000D03*
X110363000Y-95377000D03*
X163957000Y-82423000D03*
X164147500Y-100647500D03*
X79184500Y-100647500D03*
X77152500Y-94297500D03*
X77089000Y-91440000D03*
X79883000Y-84709000D03*
X161290000Y-93853000D03*
X161290000Y-98552000D03*
X80899000Y-97790000D03*
X79883000Y-88900000D03*
X133350000Y-98298000D03*
X110109000Y-97917000D03*
X102743000Y-97917000D03*
X99949000Y-97917000D03*
X97409000Y-97917000D03*
X158623000Y-96139000D03*
X111569500Y-94234000D03*
X104013000Y-89408000D03*
X108839000Y-95377000D03*
X112014000Y-90551000D03*
X164211000Y-91567000D03*
X77343000Y-82423000D03*
X154051000Y-82169000D03*
X87249000Y-82169000D03*
X97409000Y-82169000D03*
X143891000Y-82169000D03*
X110109000Y-84963000D03*
X115189000Y-84963000D03*
X126111000Y-83502500D03*
X107569000Y-82169000D03*
X117729000Y-82169000D03*
X123571000Y-82169000D03*
X133731000Y-82169000D03*
X128270000Y-98298000D03*
X143510000Y-98298000D03*
X157350000Y-86050000D03*
D13*
X156200000Y-92200000D03*
D12*
X148050000Y-86850000D03*
X155650000Y-86200000D03*
X143000000Y-86550000D03*
X140950000Y-88900000D03*
D13*
X117729000Y-91821000D03*
D15*
X87630000Y-86423500D03*
D13*
X150000000Y-94100000D03*
D15*
X137160000Y-86423500D03*
D12*
X84450000Y-84500000D03*
D15*
X145800000Y-95050000D03*
D12*
X140779500Y-92519500D03*
D13*
X151250000Y-95150000D03*
X158750000Y-92456000D03*
D15*
X148200000Y-89450000D03*
X102870000Y-83520700D03*
X146900000Y-93950000D03*
X137922000Y-84963000D03*
X153550000Y-89050000D03*
D13*
X85090000Y-91313000D03*
D12*
X148900000Y-95000000D03*
D13*
X106807000Y-92075000D03*
D14*
X103695500Y-84963000D03*
D13*
X105410000Y-91313000D03*
D15*
X144700000Y-93950000D03*
D14*
X121221500Y-84963000D03*
D15*
X87630000Y-83520700D03*
D13*
X157480000Y-91313000D03*
D12*
X158450000Y-89250000D03*
D13*
X139700000Y-91186000D03*
X83820000Y-92456000D03*
D15*
X121921449Y-83520700D03*
X137160000Y-83502500D03*
D12*
X93027500Y-96520000D03*
D13*
X119380000Y-91313000D03*
D15*
X155800000Y-89100000D03*
D13*
X155300000Y-91000000D03*
D12*
X129540000Y-90932000D03*
D13*
X152500000Y-94100000D03*
D15*
X86868000Y-84963000D03*
D12*
X146800000Y-90150000D03*
X132080000Y-90932000D03*
X100330000Y-90932000D03*
X99060000Y-90932000D03*
X133350000Y-90932000D03*
X97790000Y-90932000D03*
X134620000Y-90932000D03*
X135890000Y-90932000D03*
X96520000Y-90932000D03*
X93980000Y-88392000D03*
X135890000Y-88392000D03*
X96520000Y-88392000D03*
X134620000Y-88392000D03*
X133350000Y-88392000D03*
X97790000Y-88392000D03*
X132080000Y-88392000D03*
X99060000Y-88392000D03*
X130810000Y-88392000D03*
X100330000Y-88392000D03*
X101600000Y-90932000D03*
X130810000Y-90932000D03*
X101600000Y-88392000D03*
X128270000Y-88392000D03*
X125730000Y-90932000D03*
X115189000Y-93281500D03*
D15*
X146950000Y-92400000D03*
D12*
X147600000Y-91500000D03*
X154700000Y-86650000D03*
D13*
X150050000Y-92400000D03*
D12*
X145800000Y-91500000D03*
D13*
X153400000Y-91000000D03*
D15*
X144700000Y-92550000D03*
D13*
X152500000Y-92200000D03*
D12*
X156550000Y-86650000D03*
D13*
X151250000Y-91350000D03*
D15*
X153500000Y-87350000D03*
X155900000Y-87550000D03*
G04 #@! TA.AperFunction,Conductor*
G36*
X163578947Y-81585531D02*
G01*
X163760755Y-81599840D01*
X163772394Y-81601683D01*
X163946844Y-81643565D01*
X163958060Y-81647209D01*
X164123815Y-81715867D01*
X164134323Y-81721222D01*
X164287290Y-81814961D01*
X164296835Y-81821895D01*
X164433255Y-81938409D01*
X164441590Y-81946744D01*
X164481255Y-81993185D01*
X164558103Y-82083163D01*
X164565038Y-82092709D01*
X164658777Y-82245676D01*
X164664135Y-82256190D01*
X164732789Y-82421936D01*
X164736435Y-82433159D01*
X164778314Y-82607597D01*
X164780160Y-82619252D01*
X164794468Y-82801052D01*
X164794700Y-82806952D01*
X164794700Y-101219500D01*
X164784625Y-101257100D01*
X164757100Y-101284625D01*
X164719500Y-101294700D01*
X157708659Y-101294700D01*
X157663315Y-101279491D01*
X157636312Y-101240017D01*
X157638572Y-101192244D01*
X157646872Y-101170899D01*
X157850416Y-100647500D01*
X163735528Y-100647500D01*
X163755690Y-100774805D01*
X163814209Y-100889653D01*
X163905346Y-100980790D01*
X163905348Y-100980791D01*
X163905349Y-100980792D01*
X164020194Y-101039309D01*
X164147500Y-101059472D01*
X164274806Y-101039309D01*
X164389651Y-100980792D01*
X164480792Y-100889651D01*
X164539309Y-100774806D01*
X164559472Y-100647500D01*
X164539309Y-100520194D01*
X164480792Y-100405349D01*
X164480791Y-100405348D01*
X164480790Y-100405346D01*
X164389653Y-100314209D01*
X164274805Y-100255690D01*
X164147500Y-100235528D01*
X164020194Y-100255690D01*
X163905346Y-100314209D01*
X163814209Y-100405346D01*
X163755690Y-100520194D01*
X163735528Y-100647500D01*
X157850416Y-100647500D01*
X158369000Y-99314000D01*
X158368998Y-99314000D01*
X156057223Y-99317802D01*
X156019570Y-99307768D01*
X155991995Y-99280238D01*
X155981899Y-99242602D01*
X155981899Y-99211348D01*
X155966523Y-99094547D01*
X155966522Y-99094546D01*
X155906328Y-98949222D01*
X155810571Y-98824429D01*
X155685778Y-98728672D01*
X155540453Y-98668477D01*
X155540450Y-98668476D01*
X155540449Y-98668476D01*
X155521131Y-98665932D01*
X155485171Y-98651035D01*
X155461476Y-98620155D01*
X155433244Y-98551999D01*
X160878028Y-98551999D01*
X160898190Y-98679305D01*
X160956709Y-98794153D01*
X161047846Y-98885290D01*
X161047848Y-98885291D01*
X161047849Y-98885292D01*
X161162694Y-98943809D01*
X161290000Y-98963972D01*
X161417306Y-98943809D01*
X161532151Y-98885292D01*
X161623292Y-98794151D01*
X161681809Y-98679306D01*
X161701972Y-98552000D01*
X161681809Y-98424694D01*
X161623292Y-98309849D01*
X161623291Y-98309848D01*
X161623290Y-98309846D01*
X161532153Y-98218709D01*
X161417305Y-98160190D01*
X161290000Y-98140028D01*
X161162694Y-98160190D01*
X161047846Y-98218709D01*
X160956709Y-98309846D01*
X160898190Y-98424694D01*
X160878028Y-98551999D01*
X155433244Y-98551999D01*
X155422957Y-98527166D01*
X155422957Y-98527165D01*
X155334333Y-98411667D01*
X155276584Y-98367354D01*
X155218837Y-98323043D01*
X155084336Y-98267331D01*
X154940000Y-98248329D01*
X154795664Y-98267331D01*
X154661164Y-98323043D01*
X154545667Y-98411667D01*
X154457042Y-98527165D01*
X154418523Y-98620156D01*
X154394827Y-98651037D01*
X154358865Y-98665933D01*
X154339550Y-98668476D01*
X154339547Y-98668476D01*
X154339547Y-98668477D01*
X154285867Y-98690711D01*
X154194221Y-98728672D01*
X154069429Y-98824429D01*
X153973672Y-98949221D01*
X153913477Y-99094546D01*
X153898100Y-99211348D01*
X153898100Y-99246276D01*
X153888046Y-99283840D01*
X153860571Y-99311360D01*
X153823024Y-99321476D01*
X153517223Y-99321979D01*
X153479570Y-99311945D01*
X153451995Y-99284415D01*
X153441899Y-99246779D01*
X153441899Y-99211348D01*
X153426523Y-99094547D01*
X153426522Y-99094546D01*
X153366328Y-98949222D01*
X153270571Y-98824429D01*
X153145778Y-98728672D01*
X153000453Y-98668477D01*
X153000450Y-98668476D01*
X153000449Y-98668476D01*
X152981131Y-98665932D01*
X152945171Y-98651035D01*
X152921476Y-98620155D01*
X152882957Y-98527166D01*
X152882957Y-98527165D01*
X152794333Y-98411667D01*
X152736584Y-98367354D01*
X152678837Y-98323043D01*
X152544336Y-98267331D01*
X152400000Y-98248329D01*
X152255664Y-98267331D01*
X152121164Y-98323043D01*
X152005667Y-98411667D01*
X151917042Y-98527165D01*
X151878523Y-98620156D01*
X151854827Y-98651037D01*
X151818865Y-98665933D01*
X151799550Y-98668476D01*
X151799547Y-98668476D01*
X151799547Y-98668477D01*
X151745867Y-98690711D01*
X151654221Y-98728672D01*
X151529429Y-98824429D01*
X151433672Y-98949221D01*
X151373477Y-99094546D01*
X151358100Y-99211348D01*
X151358100Y-99250454D01*
X151348046Y-99288018D01*
X151320571Y-99315538D01*
X151283024Y-99325654D01*
X150977223Y-99326157D01*
X150939570Y-99316123D01*
X150911995Y-99288593D01*
X150901899Y-99250957D01*
X150901899Y-99211348D01*
X150886523Y-99094547D01*
X150886522Y-99094546D01*
X150826328Y-98949222D01*
X150730571Y-98824429D01*
X150605778Y-98728672D01*
X150460453Y-98668477D01*
X150460450Y-98668476D01*
X150460449Y-98668476D01*
X150441131Y-98665932D01*
X150405171Y-98651035D01*
X150381476Y-98620155D01*
X150342957Y-98527166D01*
X150342957Y-98527165D01*
X150254333Y-98411667D01*
X150196584Y-98367354D01*
X150138837Y-98323043D01*
X150004336Y-98267331D01*
X149860000Y-98248329D01*
X149715664Y-98267331D01*
X149581164Y-98323043D01*
X149465667Y-98411667D01*
X149377042Y-98527165D01*
X149338523Y-98620156D01*
X149314827Y-98651037D01*
X149278865Y-98665933D01*
X149259550Y-98668476D01*
X149259547Y-98668476D01*
X149259547Y-98668477D01*
X149205867Y-98690711D01*
X149114221Y-98728672D01*
X148989429Y-98824429D01*
X148893672Y-98949221D01*
X148833477Y-99094546D01*
X148818100Y-99211348D01*
X148818100Y-99254632D01*
X148808046Y-99292196D01*
X148780571Y-99319716D01*
X148743025Y-99329831D01*
X148438201Y-99330333D01*
X148437223Y-99330335D01*
X148399570Y-99320301D01*
X148371995Y-99292771D01*
X148361899Y-99255135D01*
X148361899Y-99211348D01*
X148346523Y-99094547D01*
X148346522Y-99094546D01*
X148286328Y-98949222D01*
X148190571Y-98824429D01*
X148065778Y-98728672D01*
X147920453Y-98668477D01*
X147920450Y-98668476D01*
X147920449Y-98668476D01*
X147901131Y-98665932D01*
X147865171Y-98651035D01*
X147841476Y-98620155D01*
X147802957Y-98527166D01*
X147802957Y-98527165D01*
X147714333Y-98411667D01*
X147656584Y-98367354D01*
X147598837Y-98323043D01*
X147464336Y-98267331D01*
X147320000Y-98248329D01*
X147175664Y-98267331D01*
X147041164Y-98323043D01*
X146925667Y-98411667D01*
X146837042Y-98527165D01*
X146798523Y-98620156D01*
X146774827Y-98651037D01*
X146738865Y-98665933D01*
X146719550Y-98668476D01*
X146719547Y-98668476D01*
X146719547Y-98668477D01*
X146665867Y-98690711D01*
X146574221Y-98728672D01*
X146449429Y-98824429D01*
X146353672Y-98949221D01*
X146293477Y-99094546D01*
X146278100Y-99211348D01*
X146278100Y-99258809D01*
X146268046Y-99296373D01*
X146240571Y-99323893D01*
X146203024Y-99334009D01*
X145897223Y-99334512D01*
X145859570Y-99324478D01*
X145831995Y-99296948D01*
X145821899Y-99259312D01*
X145821899Y-99211348D01*
X145806523Y-99094547D01*
X145806522Y-99094546D01*
X145746328Y-98949222D01*
X145650571Y-98824429D01*
X145525778Y-98728672D01*
X145380453Y-98668477D01*
X145380450Y-98668476D01*
X145380449Y-98668476D01*
X145361131Y-98665932D01*
X145325171Y-98651035D01*
X145301476Y-98620155D01*
X145262957Y-98527166D01*
X145262957Y-98527165D01*
X145174333Y-98411667D01*
X145116584Y-98367354D01*
X145058837Y-98323043D01*
X144924336Y-98267331D01*
X144780000Y-98248329D01*
X144635664Y-98267331D01*
X144501164Y-98323043D01*
X144385667Y-98411667D01*
X144297042Y-98527165D01*
X144258523Y-98620156D01*
X144234827Y-98651037D01*
X144198865Y-98665933D01*
X144179550Y-98668476D01*
X144179547Y-98668476D01*
X144179547Y-98668477D01*
X144125867Y-98690711D01*
X144034221Y-98728672D01*
X143909429Y-98824429D01*
X143813672Y-98949221D01*
X143753477Y-99094546D01*
X143738100Y-99211348D01*
X143738100Y-99262987D01*
X143728046Y-99300551D01*
X143700571Y-99328071D01*
X143663025Y-99338186D01*
X143358201Y-99338688D01*
X143357223Y-99338690D01*
X143319570Y-99328656D01*
X143291995Y-99301126D01*
X143281899Y-99263490D01*
X143281899Y-99211348D01*
X143266523Y-99094547D01*
X143266522Y-99094546D01*
X143206328Y-98949222D01*
X143110571Y-98824429D01*
X142985778Y-98728672D01*
X142840453Y-98668477D01*
X142840450Y-98668476D01*
X142840449Y-98668476D01*
X142821131Y-98665932D01*
X142785171Y-98651035D01*
X142761476Y-98620155D01*
X142722957Y-98527166D01*
X142722957Y-98527165D01*
X142634333Y-98411667D01*
X142576584Y-98367354D01*
X142518837Y-98323043D01*
X142458378Y-98298000D01*
X143098028Y-98298000D01*
X143118190Y-98425305D01*
X143176709Y-98540153D01*
X143267846Y-98631290D01*
X143267848Y-98631291D01*
X143267849Y-98631292D01*
X143382694Y-98689809D01*
X143510000Y-98709972D01*
X143637306Y-98689809D01*
X143752151Y-98631292D01*
X143843292Y-98540151D01*
X143901809Y-98425306D01*
X143921972Y-98298000D01*
X143901809Y-98170694D01*
X143843292Y-98055849D01*
X143843291Y-98055848D01*
X143843290Y-98055846D01*
X143752153Y-97964709D01*
X143637305Y-97906190D01*
X143510000Y-97886028D01*
X143382694Y-97906190D01*
X143267846Y-97964709D01*
X143176709Y-98055846D01*
X143118190Y-98170694D01*
X143098028Y-98298000D01*
X142458378Y-98298000D01*
X142384336Y-98267331D01*
X142240000Y-98248329D01*
X142095664Y-98267331D01*
X141961164Y-98323043D01*
X141845667Y-98411667D01*
X141757042Y-98527165D01*
X141718523Y-98620156D01*
X141694827Y-98651037D01*
X141658865Y-98665933D01*
X141639550Y-98668476D01*
X141639547Y-98668476D01*
X141639547Y-98668477D01*
X141585867Y-98690711D01*
X141494221Y-98728672D01*
X141369429Y-98824429D01*
X141273672Y-98949221D01*
X141213477Y-99094546D01*
X141198100Y-99211348D01*
X141198100Y-99267164D01*
X141188046Y-99304728D01*
X141160571Y-99332248D01*
X141123024Y-99342364D01*
X140817223Y-99342867D01*
X140779570Y-99332833D01*
X140751995Y-99305303D01*
X140741899Y-99267667D01*
X140741899Y-99211348D01*
X140726523Y-99094547D01*
X140726522Y-99094546D01*
X140666328Y-98949222D01*
X140570571Y-98824429D01*
X140445778Y-98728672D01*
X140300453Y-98668477D01*
X140300450Y-98668476D01*
X140300449Y-98668476D01*
X140281131Y-98665932D01*
X140245171Y-98651035D01*
X140221476Y-98620155D01*
X140182957Y-98527166D01*
X140182957Y-98527165D01*
X140094333Y-98411667D01*
X140036584Y-98367354D01*
X139978837Y-98323043D01*
X139844336Y-98267331D01*
X139700000Y-98248329D01*
X139555664Y-98267331D01*
X139421164Y-98323043D01*
X139305667Y-98411667D01*
X139217042Y-98527165D01*
X139178523Y-98620156D01*
X139154827Y-98651037D01*
X139118865Y-98665933D01*
X139099550Y-98668476D01*
X139099547Y-98668476D01*
X139099547Y-98668477D01*
X139045867Y-98690711D01*
X138954221Y-98728672D01*
X138829429Y-98824429D01*
X138733672Y-98949221D01*
X138673477Y-99094546D01*
X138658100Y-99211348D01*
X138658100Y-99271342D01*
X138648046Y-99308906D01*
X138620571Y-99336426D01*
X138583024Y-99346542D01*
X138277223Y-99347045D01*
X138239570Y-99337011D01*
X138211995Y-99309481D01*
X138201899Y-99271845D01*
X138201899Y-99211348D01*
X138186523Y-99094547D01*
X138186522Y-99094546D01*
X138126328Y-98949222D01*
X138030571Y-98824429D01*
X137905778Y-98728672D01*
X137760453Y-98668477D01*
X137760450Y-98668476D01*
X137760449Y-98668476D01*
X137741131Y-98665932D01*
X137705171Y-98651035D01*
X137681476Y-98620155D01*
X137642957Y-98527166D01*
X137642957Y-98527165D01*
X137554333Y-98411667D01*
X137496584Y-98367354D01*
X137438837Y-98323043D01*
X137304336Y-98267331D01*
X137160000Y-98248329D01*
X137015664Y-98267331D01*
X136881164Y-98323043D01*
X136765667Y-98411667D01*
X136677042Y-98527165D01*
X136638523Y-98620156D01*
X136614827Y-98651037D01*
X136578865Y-98665933D01*
X136559550Y-98668476D01*
X136559547Y-98668476D01*
X136559547Y-98668477D01*
X136505867Y-98690711D01*
X136414221Y-98728672D01*
X136289429Y-98824429D01*
X136193672Y-98949221D01*
X136133477Y-99094546D01*
X136118100Y-99211348D01*
X136118100Y-99275520D01*
X136108046Y-99313084D01*
X136080571Y-99340604D01*
X136043025Y-99350719D01*
X135738201Y-99351221D01*
X135737223Y-99351223D01*
X135699570Y-99341189D01*
X135671995Y-99313659D01*
X135661899Y-99276023D01*
X135661899Y-99211348D01*
X135646523Y-99094547D01*
X135646522Y-99094546D01*
X135586328Y-98949222D01*
X135490571Y-98824429D01*
X135365778Y-98728672D01*
X135220453Y-98668477D01*
X135220450Y-98668476D01*
X135220449Y-98668476D01*
X135201131Y-98665932D01*
X135165171Y-98651035D01*
X135141476Y-98620155D01*
X135102957Y-98527166D01*
X135102957Y-98527165D01*
X135014333Y-98411667D01*
X134956584Y-98367354D01*
X134898837Y-98323043D01*
X134764336Y-98267331D01*
X134620000Y-98248329D01*
X134475664Y-98267331D01*
X134341164Y-98323043D01*
X134225667Y-98411667D01*
X134137042Y-98527165D01*
X134098523Y-98620156D01*
X134074827Y-98651037D01*
X134038865Y-98665933D01*
X134019550Y-98668476D01*
X134019547Y-98668476D01*
X134019547Y-98668477D01*
X133965867Y-98690711D01*
X133874221Y-98728672D01*
X133749429Y-98824429D01*
X133653672Y-98949221D01*
X133593477Y-99094546D01*
X133578100Y-99211348D01*
X133578100Y-99279697D01*
X133568046Y-99317261D01*
X133540571Y-99344781D01*
X133503024Y-99354897D01*
X133197223Y-99355400D01*
X133159570Y-99345366D01*
X133131995Y-99317836D01*
X133121899Y-99280200D01*
X133121899Y-99211348D01*
X133106523Y-99094547D01*
X133106522Y-99094546D01*
X133046328Y-98949222D01*
X132950571Y-98824429D01*
X132825778Y-98728672D01*
X132680453Y-98668477D01*
X132680450Y-98668476D01*
X132680449Y-98668476D01*
X132661131Y-98665932D01*
X132625171Y-98651035D01*
X132601476Y-98620155D01*
X132562957Y-98527166D01*
X132562957Y-98527165D01*
X132474333Y-98411667D01*
X132416584Y-98367354D01*
X132358837Y-98323043D01*
X132298378Y-98298000D01*
X132938028Y-98298000D01*
X132958190Y-98425305D01*
X133016709Y-98540153D01*
X133107846Y-98631290D01*
X133107848Y-98631291D01*
X133107849Y-98631292D01*
X133222694Y-98689809D01*
X133350000Y-98709972D01*
X133477306Y-98689809D01*
X133592151Y-98631292D01*
X133683292Y-98540151D01*
X133741809Y-98425306D01*
X133761972Y-98298000D01*
X133741809Y-98170694D01*
X133683292Y-98055849D01*
X133683291Y-98055848D01*
X133683290Y-98055846D01*
X133592153Y-97964709D01*
X133477305Y-97906190D01*
X133350000Y-97886028D01*
X133222694Y-97906190D01*
X133107846Y-97964709D01*
X133016709Y-98055846D01*
X132958190Y-98170694D01*
X132938028Y-98298000D01*
X132298378Y-98298000D01*
X132224336Y-98267331D01*
X132080000Y-98248329D01*
X131935664Y-98267331D01*
X131801164Y-98323043D01*
X131685667Y-98411667D01*
X131597042Y-98527165D01*
X131558523Y-98620156D01*
X131534827Y-98651037D01*
X131498865Y-98665933D01*
X131479550Y-98668476D01*
X131479547Y-98668476D01*
X131479547Y-98668477D01*
X131425867Y-98690711D01*
X131334221Y-98728672D01*
X131209429Y-98824429D01*
X131113672Y-98949221D01*
X131053477Y-99094546D01*
X131038100Y-99211348D01*
X131038100Y-99283875D01*
X131028046Y-99321439D01*
X131000571Y-99348959D01*
X130963024Y-99359075D01*
X130657223Y-99359578D01*
X130619570Y-99349544D01*
X130591995Y-99322014D01*
X130581899Y-99284378D01*
X130581899Y-99211348D01*
X130566523Y-99094547D01*
X130566522Y-99094546D01*
X130506328Y-98949222D01*
X130410571Y-98824429D01*
X130285778Y-98728672D01*
X130140453Y-98668477D01*
X130140450Y-98668476D01*
X130140449Y-98668476D01*
X130121131Y-98665932D01*
X130085171Y-98651035D01*
X130061476Y-98620155D01*
X130022957Y-98527166D01*
X130022957Y-98527165D01*
X129934333Y-98411667D01*
X129876584Y-98367354D01*
X129818837Y-98323043D01*
X129684336Y-98267331D01*
X129540000Y-98248329D01*
X129395664Y-98267331D01*
X129261164Y-98323043D01*
X129145667Y-98411667D01*
X129057042Y-98527165D01*
X129018523Y-98620156D01*
X128994827Y-98651037D01*
X128958865Y-98665933D01*
X128939550Y-98668476D01*
X128939547Y-98668476D01*
X128939547Y-98668477D01*
X128885867Y-98690711D01*
X128794221Y-98728672D01*
X128669429Y-98824429D01*
X128573672Y-98949221D01*
X128513477Y-99094546D01*
X128498100Y-99211348D01*
X128498100Y-99288053D01*
X128488046Y-99325617D01*
X128460571Y-99353137D01*
X128423025Y-99363252D01*
X128118201Y-99363754D01*
X128117223Y-99363756D01*
X128079570Y-99353722D01*
X128051995Y-99326192D01*
X128041899Y-99288556D01*
X128041899Y-99211348D01*
X128026523Y-99094547D01*
X128026522Y-99094546D01*
X127966328Y-98949222D01*
X127870571Y-98824429D01*
X127745778Y-98728672D01*
X127600453Y-98668477D01*
X127600450Y-98668476D01*
X127600449Y-98668476D01*
X127581131Y-98665932D01*
X127545171Y-98651035D01*
X127521476Y-98620155D01*
X127482957Y-98527166D01*
X127482957Y-98527165D01*
X127394333Y-98411667D01*
X127336584Y-98367354D01*
X127278837Y-98323043D01*
X127218378Y-98298000D01*
X127858028Y-98298000D01*
X127878190Y-98425305D01*
X127936709Y-98540153D01*
X128027846Y-98631290D01*
X128027848Y-98631291D01*
X128027849Y-98631292D01*
X128142694Y-98689809D01*
X128270000Y-98709972D01*
X128397306Y-98689809D01*
X128512151Y-98631292D01*
X128603292Y-98540151D01*
X128661809Y-98425306D01*
X128681972Y-98298000D01*
X128661809Y-98170694D01*
X128603292Y-98055849D01*
X128603291Y-98055848D01*
X128603290Y-98055846D01*
X128512153Y-97964709D01*
X128397305Y-97906190D01*
X128270000Y-97886028D01*
X128142694Y-97906190D01*
X128027846Y-97964709D01*
X127936709Y-98055846D01*
X127878190Y-98170694D01*
X127858028Y-98298000D01*
X127218378Y-98298000D01*
X127144336Y-98267331D01*
X127000000Y-98248329D01*
X126855664Y-98267331D01*
X126721164Y-98323043D01*
X126605667Y-98411667D01*
X126517042Y-98527165D01*
X126478523Y-98620156D01*
X126454827Y-98651037D01*
X126418865Y-98665933D01*
X126399550Y-98668476D01*
X126399547Y-98668476D01*
X126399547Y-98668477D01*
X126345867Y-98690711D01*
X126254221Y-98728672D01*
X126129429Y-98824429D01*
X126033672Y-98949221D01*
X125973477Y-99094546D01*
X125958100Y-99211348D01*
X125958100Y-99292230D01*
X125948046Y-99329794D01*
X125920571Y-99357314D01*
X125883024Y-99367430D01*
X125577223Y-99367933D01*
X125539570Y-99357899D01*
X125511995Y-99330369D01*
X125501899Y-99292733D01*
X125501899Y-99211348D01*
X125486523Y-99094547D01*
X125486522Y-99094546D01*
X125426328Y-98949222D01*
X125330571Y-98824429D01*
X125205778Y-98728672D01*
X125060453Y-98668477D01*
X125060450Y-98668476D01*
X125060449Y-98668476D01*
X125041131Y-98665932D01*
X125005171Y-98651035D01*
X124981476Y-98620155D01*
X124942957Y-98527166D01*
X124942957Y-98527165D01*
X124854333Y-98411667D01*
X124796584Y-98367354D01*
X124738837Y-98323043D01*
X124604336Y-98267331D01*
X124460000Y-98248329D01*
X124315664Y-98267331D01*
X124181164Y-98323043D01*
X124065667Y-98411667D01*
X123977042Y-98527165D01*
X123938523Y-98620156D01*
X123914827Y-98651037D01*
X123878865Y-98665933D01*
X123859550Y-98668476D01*
X123859547Y-98668476D01*
X123859547Y-98668477D01*
X123805867Y-98690711D01*
X123714221Y-98728672D01*
X123589429Y-98824429D01*
X123493672Y-98949221D01*
X123433477Y-99094546D01*
X123418100Y-99211348D01*
X123418100Y-99296408D01*
X123408046Y-99333972D01*
X123380571Y-99361492D01*
X123343024Y-99371608D01*
X123037223Y-99372111D01*
X122999570Y-99362077D01*
X122971995Y-99334547D01*
X122961899Y-99296911D01*
X122961899Y-99211348D01*
X122946523Y-99094547D01*
X122946522Y-99094546D01*
X122886328Y-98949222D01*
X122790571Y-98824429D01*
X122665778Y-98728672D01*
X122520453Y-98668477D01*
X122520450Y-98668476D01*
X122520449Y-98668476D01*
X122501131Y-98665932D01*
X122465171Y-98651035D01*
X122441476Y-98620155D01*
X122402957Y-98527166D01*
X122402957Y-98527165D01*
X122314333Y-98411667D01*
X122256584Y-98367354D01*
X122198837Y-98323043D01*
X122064336Y-98267331D01*
X121920000Y-98248329D01*
X121775664Y-98267331D01*
X121641164Y-98323043D01*
X121525667Y-98411667D01*
X121437042Y-98527165D01*
X121398523Y-98620156D01*
X121374827Y-98651037D01*
X121338865Y-98665933D01*
X121319550Y-98668476D01*
X121319547Y-98668476D01*
X121319547Y-98668477D01*
X121265867Y-98690711D01*
X121174221Y-98728672D01*
X121049429Y-98824429D01*
X120953672Y-98949221D01*
X120893477Y-99094546D01*
X120878100Y-99211348D01*
X120878100Y-99300585D01*
X120868046Y-99338149D01*
X120840571Y-99365669D01*
X120803024Y-99375785D01*
X120497223Y-99376288D01*
X120459570Y-99366254D01*
X120431995Y-99338724D01*
X120421899Y-99301088D01*
X120421899Y-99211348D01*
X120406523Y-99094547D01*
X120406522Y-99094546D01*
X120346328Y-98949222D01*
X120250571Y-98824429D01*
X120125778Y-98728672D01*
X119980453Y-98668477D01*
X119980450Y-98668476D01*
X119980449Y-98668476D01*
X119961131Y-98665932D01*
X119925171Y-98651035D01*
X119901476Y-98620155D01*
X119862957Y-98527166D01*
X119862957Y-98527165D01*
X119774333Y-98411667D01*
X119716584Y-98367354D01*
X119658837Y-98323043D01*
X119524336Y-98267331D01*
X119380000Y-98248329D01*
X119235664Y-98267331D01*
X119101164Y-98323043D01*
X118985667Y-98411667D01*
X118897042Y-98527165D01*
X118858523Y-98620156D01*
X118834827Y-98651037D01*
X118798865Y-98665933D01*
X118779550Y-98668476D01*
X118779547Y-98668476D01*
X118779547Y-98668477D01*
X118725867Y-98690711D01*
X118634221Y-98728672D01*
X118509429Y-98824429D01*
X118413672Y-98949221D01*
X118353477Y-99094546D01*
X118338100Y-99211348D01*
X118338100Y-99299716D01*
X118328004Y-99337353D01*
X118300425Y-99364884D01*
X118262770Y-99374916D01*
X117956969Y-99374389D01*
X117919424Y-99364271D01*
X117891952Y-99336752D01*
X117881899Y-99299189D01*
X117881899Y-99211348D01*
X117866523Y-99094547D01*
X117866522Y-99094546D01*
X117806328Y-98949222D01*
X117710571Y-98824429D01*
X117585778Y-98728672D01*
X117440453Y-98668477D01*
X117440450Y-98668476D01*
X117440449Y-98668476D01*
X117421131Y-98665932D01*
X117385171Y-98651035D01*
X117361476Y-98620155D01*
X117322957Y-98527166D01*
X117322957Y-98527165D01*
X117234333Y-98411667D01*
X117176584Y-98367354D01*
X117118837Y-98323043D01*
X116984336Y-98267331D01*
X116840000Y-98248329D01*
X116695664Y-98267331D01*
X116561164Y-98323043D01*
X116445667Y-98411667D01*
X116357042Y-98527165D01*
X116318523Y-98620156D01*
X116294827Y-98651037D01*
X116258865Y-98665933D01*
X116239550Y-98668476D01*
X116239547Y-98668476D01*
X116239547Y-98668477D01*
X116185867Y-98690711D01*
X116094221Y-98728672D01*
X115969429Y-98824429D01*
X115873672Y-98949221D01*
X115813477Y-99094546D01*
X115798100Y-99211348D01*
X115798100Y-99295337D01*
X115788004Y-99332974D01*
X115760425Y-99360505D01*
X115722770Y-99370537D01*
X115696300Y-99370491D01*
X115416967Y-99370009D01*
X115379424Y-99359892D01*
X115351952Y-99332373D01*
X115341899Y-99294810D01*
X115341899Y-99211348D01*
X115326523Y-99094547D01*
X115326522Y-99094546D01*
X115266328Y-98949222D01*
X115170571Y-98824429D01*
X115045778Y-98728672D01*
X114900453Y-98668477D01*
X114900450Y-98668476D01*
X114900449Y-98668476D01*
X114881131Y-98665932D01*
X114845171Y-98651035D01*
X114821476Y-98620155D01*
X114782957Y-98527166D01*
X114782957Y-98527165D01*
X114694333Y-98411667D01*
X114636584Y-98367354D01*
X114578837Y-98323043D01*
X114444336Y-98267331D01*
X114300000Y-98248329D01*
X114155664Y-98267331D01*
X114021164Y-98323043D01*
X113905667Y-98411667D01*
X113817042Y-98527165D01*
X113778523Y-98620156D01*
X113754827Y-98651037D01*
X113718865Y-98665933D01*
X113699550Y-98668476D01*
X113699547Y-98668476D01*
X113699547Y-98668477D01*
X113645867Y-98690711D01*
X113554221Y-98728672D01*
X113429429Y-98824429D01*
X113333672Y-98949221D01*
X113273477Y-99094546D01*
X113258100Y-99211348D01*
X113258100Y-99290958D01*
X113248004Y-99328595D01*
X113220425Y-99356126D01*
X113182770Y-99366158D01*
X113156300Y-99366112D01*
X112876967Y-99365630D01*
X112839424Y-99355513D01*
X112811952Y-99327994D01*
X112801899Y-99290431D01*
X112801899Y-99211348D01*
X112786523Y-99094547D01*
X112786522Y-99094546D01*
X112726328Y-98949222D01*
X112630571Y-98824429D01*
X112505778Y-98728672D01*
X112360453Y-98668477D01*
X112360450Y-98668476D01*
X112360449Y-98668476D01*
X112341131Y-98665932D01*
X112305171Y-98651035D01*
X112281476Y-98620155D01*
X112242957Y-98527166D01*
X112242957Y-98527165D01*
X112154333Y-98411667D01*
X112096584Y-98367354D01*
X112038837Y-98323043D01*
X111904336Y-98267331D01*
X111760000Y-98248329D01*
X111615664Y-98267331D01*
X111481164Y-98323043D01*
X111365667Y-98411667D01*
X111277042Y-98527165D01*
X111238523Y-98620156D01*
X111214827Y-98651037D01*
X111178865Y-98665933D01*
X111159550Y-98668476D01*
X111159547Y-98668476D01*
X111159547Y-98668477D01*
X111105867Y-98690711D01*
X111014221Y-98728672D01*
X110889429Y-98824429D01*
X110793672Y-98949221D01*
X110733477Y-99094546D01*
X110718100Y-99211348D01*
X110718100Y-99286578D01*
X110708004Y-99324215D01*
X110680425Y-99351746D01*
X110642770Y-99361778D01*
X110336969Y-99361251D01*
X110299424Y-99351133D01*
X110271952Y-99323614D01*
X110261899Y-99286051D01*
X110261899Y-99211348D01*
X110246523Y-99094547D01*
X110246522Y-99094546D01*
X110186328Y-98949222D01*
X110090571Y-98824429D01*
X109965778Y-98728672D01*
X109820453Y-98668477D01*
X109820450Y-98668476D01*
X109820449Y-98668476D01*
X109801131Y-98665932D01*
X109765171Y-98651035D01*
X109741476Y-98620155D01*
X109702957Y-98527166D01*
X109702957Y-98527165D01*
X109614333Y-98411667D01*
X109556584Y-98367354D01*
X109498837Y-98323043D01*
X109364336Y-98267331D01*
X109220000Y-98248329D01*
X109075664Y-98267331D01*
X108941164Y-98323043D01*
X108825667Y-98411667D01*
X108737042Y-98527165D01*
X108698523Y-98620156D01*
X108674827Y-98651037D01*
X108638865Y-98665933D01*
X108619550Y-98668476D01*
X108619547Y-98668476D01*
X108619547Y-98668477D01*
X108565867Y-98690711D01*
X108474221Y-98728672D01*
X108349429Y-98824429D01*
X108253672Y-98949221D01*
X108193477Y-99094546D01*
X108178100Y-99211348D01*
X108178100Y-99282199D01*
X108168004Y-99319836D01*
X108140425Y-99347367D01*
X108102770Y-99357399D01*
X108076300Y-99357353D01*
X107796967Y-99356871D01*
X107759424Y-99346754D01*
X107731952Y-99319235D01*
X107721899Y-99281672D01*
X107721899Y-99211348D01*
X107706523Y-99094547D01*
X107706522Y-99094546D01*
X107646328Y-98949222D01*
X107550571Y-98824429D01*
X107425778Y-98728672D01*
X107280453Y-98668477D01*
X107280450Y-98668476D01*
X107280449Y-98668476D01*
X107261131Y-98665932D01*
X107225171Y-98651035D01*
X107201476Y-98620155D01*
X107162957Y-98527166D01*
X107162957Y-98527165D01*
X107074333Y-98411667D01*
X107016584Y-98367354D01*
X106958837Y-98323043D01*
X106824336Y-98267331D01*
X106680000Y-98248329D01*
X106535664Y-98267331D01*
X106401164Y-98323043D01*
X106285667Y-98411667D01*
X106197042Y-98527165D01*
X106158523Y-98620156D01*
X106134827Y-98651037D01*
X106098865Y-98665933D01*
X106079550Y-98668476D01*
X106079547Y-98668476D01*
X106079547Y-98668477D01*
X106025867Y-98690711D01*
X105934221Y-98728672D01*
X105809429Y-98824429D01*
X105713672Y-98949221D01*
X105653477Y-99094546D01*
X105638100Y-99211348D01*
X105638100Y-99277820D01*
X105628004Y-99315457D01*
X105600425Y-99342988D01*
X105562770Y-99353020D01*
X105536300Y-99352974D01*
X105256967Y-99352492D01*
X105219424Y-99342375D01*
X105191952Y-99314856D01*
X105181899Y-99277293D01*
X105181899Y-99211348D01*
X105166523Y-99094547D01*
X105166522Y-99094546D01*
X105106328Y-98949222D01*
X105010571Y-98824429D01*
X104885778Y-98728672D01*
X104740453Y-98668477D01*
X104740450Y-98668476D01*
X104740449Y-98668476D01*
X104721131Y-98665932D01*
X104685171Y-98651035D01*
X104661476Y-98620155D01*
X104622957Y-98527166D01*
X104622957Y-98527165D01*
X104534333Y-98411667D01*
X104476584Y-98367354D01*
X104418837Y-98323043D01*
X104284336Y-98267331D01*
X104140000Y-98248329D01*
X103995664Y-98267331D01*
X103861164Y-98323043D01*
X103745667Y-98411667D01*
X103657042Y-98527165D01*
X103618523Y-98620156D01*
X103594827Y-98651037D01*
X103558865Y-98665933D01*
X103539550Y-98668476D01*
X103539547Y-98668476D01*
X103539547Y-98668477D01*
X103485867Y-98690711D01*
X103394221Y-98728672D01*
X103269429Y-98824429D01*
X103173672Y-98949221D01*
X103113477Y-99094546D01*
X103098100Y-99211348D01*
X103098100Y-99273440D01*
X103088004Y-99311077D01*
X103060425Y-99338608D01*
X103022770Y-99348640D01*
X102716969Y-99348113D01*
X102679424Y-99337995D01*
X102651952Y-99310476D01*
X102641899Y-99272913D01*
X102641899Y-99211348D01*
X102626523Y-99094547D01*
X102626522Y-99094546D01*
X102566328Y-98949222D01*
X102470571Y-98824429D01*
X102345778Y-98728672D01*
X102200453Y-98668477D01*
X102200450Y-98668476D01*
X102200449Y-98668476D01*
X102181131Y-98665932D01*
X102145171Y-98651035D01*
X102121476Y-98620155D01*
X102082957Y-98527166D01*
X102082957Y-98527165D01*
X101994333Y-98411667D01*
X101936584Y-98367354D01*
X101878837Y-98323043D01*
X101744336Y-98267331D01*
X101600000Y-98248329D01*
X101455664Y-98267331D01*
X101321164Y-98323043D01*
X101205667Y-98411667D01*
X101117042Y-98527165D01*
X101078523Y-98620156D01*
X101054827Y-98651037D01*
X101018865Y-98665933D01*
X100999550Y-98668476D01*
X100999547Y-98668476D01*
X100999547Y-98668477D01*
X100945867Y-98690711D01*
X100854221Y-98728672D01*
X100729429Y-98824429D01*
X100633672Y-98949221D01*
X100573477Y-99094546D01*
X100558100Y-99211348D01*
X100558100Y-99269061D01*
X100548004Y-99306698D01*
X100520425Y-99334229D01*
X100482770Y-99344261D01*
X100456300Y-99344215D01*
X100176967Y-99343733D01*
X100139424Y-99333616D01*
X100111952Y-99306097D01*
X100101899Y-99268534D01*
X100101899Y-99211348D01*
X100086523Y-99094547D01*
X100086522Y-99094546D01*
X100026328Y-98949222D01*
X99930571Y-98824429D01*
X99805778Y-98728672D01*
X99660453Y-98668477D01*
X99660450Y-98668476D01*
X99660449Y-98668476D01*
X99641131Y-98665932D01*
X99605171Y-98651035D01*
X99581476Y-98620155D01*
X99542957Y-98527166D01*
X99542957Y-98527165D01*
X99454333Y-98411667D01*
X99396584Y-98367354D01*
X99338837Y-98323043D01*
X99204336Y-98267331D01*
X99060000Y-98248329D01*
X98915664Y-98267331D01*
X98781164Y-98323043D01*
X98665667Y-98411667D01*
X98577042Y-98527165D01*
X98538523Y-98620156D01*
X98514827Y-98651037D01*
X98478865Y-98665933D01*
X98459550Y-98668476D01*
X98459547Y-98668476D01*
X98459547Y-98668477D01*
X98405867Y-98690711D01*
X98314221Y-98728672D01*
X98189429Y-98824429D01*
X98093672Y-98949221D01*
X98033477Y-99094546D01*
X98018100Y-99211348D01*
X98018100Y-99264682D01*
X98008004Y-99302319D01*
X97980425Y-99329850D01*
X97942770Y-99339882D01*
X97916300Y-99339836D01*
X97636967Y-99339354D01*
X97599424Y-99329237D01*
X97571952Y-99301718D01*
X97561899Y-99264155D01*
X97561899Y-99211348D01*
X97546523Y-99094547D01*
X97546522Y-99094546D01*
X97486328Y-98949222D01*
X97390571Y-98824429D01*
X97265778Y-98728672D01*
X97120453Y-98668477D01*
X97120450Y-98668476D01*
X97120449Y-98668476D01*
X97101131Y-98665932D01*
X97065171Y-98651035D01*
X97041476Y-98620155D01*
X97002957Y-98527166D01*
X97002957Y-98527165D01*
X96914333Y-98411667D01*
X96856584Y-98367354D01*
X96798837Y-98323043D01*
X96664336Y-98267331D01*
X96520000Y-98248329D01*
X96375664Y-98267331D01*
X96241164Y-98323043D01*
X96125667Y-98411667D01*
X96037042Y-98527165D01*
X95998523Y-98620156D01*
X95974827Y-98651037D01*
X95938865Y-98665933D01*
X95919550Y-98668476D01*
X95919547Y-98668476D01*
X95919547Y-98668477D01*
X95865867Y-98690711D01*
X95774221Y-98728672D01*
X95649429Y-98824429D01*
X95553672Y-98949221D01*
X95493477Y-99094546D01*
X95478100Y-99211348D01*
X95478100Y-99260302D01*
X95468004Y-99297939D01*
X95440425Y-99325470D01*
X95402770Y-99335502D01*
X95096969Y-99334975D01*
X95059424Y-99324857D01*
X95031952Y-99297338D01*
X95021899Y-99259775D01*
X95021899Y-99211348D01*
X95006523Y-99094547D01*
X95006522Y-99094546D01*
X94946328Y-98949222D01*
X94850571Y-98824429D01*
X94725778Y-98728672D01*
X94580453Y-98668477D01*
X94580450Y-98668476D01*
X94580449Y-98668476D01*
X94561131Y-98665932D01*
X94525171Y-98651035D01*
X94501476Y-98620155D01*
X94462957Y-98527166D01*
X94462957Y-98527165D01*
X94374333Y-98411667D01*
X94316584Y-98367354D01*
X94258837Y-98323043D01*
X94124336Y-98267331D01*
X93980000Y-98248329D01*
X93835664Y-98267331D01*
X93701164Y-98323043D01*
X93585667Y-98411667D01*
X93497042Y-98527165D01*
X93458523Y-98620156D01*
X93434827Y-98651037D01*
X93398865Y-98665933D01*
X93379550Y-98668476D01*
X93379547Y-98668476D01*
X93379547Y-98668477D01*
X93325867Y-98690711D01*
X93234221Y-98728672D01*
X93109429Y-98824429D01*
X93013672Y-98949221D01*
X92953477Y-99094546D01*
X92938100Y-99211348D01*
X92938100Y-99255923D01*
X92928004Y-99293560D01*
X92900425Y-99321091D01*
X92862770Y-99331123D01*
X92556969Y-99330596D01*
X92519424Y-99320478D01*
X92491952Y-99292959D01*
X92481899Y-99255396D01*
X92481899Y-99211348D01*
X92466523Y-99094547D01*
X92466522Y-99094546D01*
X92406328Y-98949222D01*
X92310571Y-98824429D01*
X92185778Y-98728672D01*
X92040453Y-98668477D01*
X92040450Y-98668476D01*
X92040449Y-98668476D01*
X92021131Y-98665932D01*
X91985171Y-98651035D01*
X91961476Y-98620155D01*
X91922957Y-98527166D01*
X91922957Y-98527165D01*
X91834333Y-98411667D01*
X91776584Y-98367354D01*
X91718837Y-98323043D01*
X91584336Y-98267331D01*
X91440000Y-98248329D01*
X91295664Y-98267331D01*
X91161164Y-98323043D01*
X91045667Y-98411667D01*
X90957042Y-98527165D01*
X90918523Y-98620156D01*
X90894827Y-98651037D01*
X90858865Y-98665933D01*
X90839550Y-98668476D01*
X90839547Y-98668476D01*
X90839547Y-98668477D01*
X90785867Y-98690711D01*
X90694221Y-98728672D01*
X90569429Y-98824429D01*
X90473672Y-98949221D01*
X90413477Y-99094546D01*
X90398100Y-99211348D01*
X90398100Y-99251544D01*
X90388004Y-99289181D01*
X90360425Y-99316712D01*
X90322770Y-99326744D01*
X90296300Y-99326698D01*
X90016967Y-99326216D01*
X89979424Y-99316099D01*
X89951952Y-99288580D01*
X89941899Y-99251017D01*
X89941899Y-99211348D01*
X89926523Y-99094547D01*
X89926522Y-99094546D01*
X89866328Y-98949222D01*
X89770571Y-98824429D01*
X89645778Y-98728672D01*
X89500453Y-98668477D01*
X89500450Y-98668476D01*
X89500449Y-98668476D01*
X89481131Y-98665932D01*
X89445171Y-98651035D01*
X89421476Y-98620155D01*
X89382957Y-98527166D01*
X89382957Y-98527165D01*
X89294333Y-98411667D01*
X89236584Y-98367354D01*
X89178837Y-98323043D01*
X89044336Y-98267331D01*
X88900000Y-98248329D01*
X88755664Y-98267331D01*
X88621164Y-98323043D01*
X88505667Y-98411667D01*
X88417042Y-98527165D01*
X88378523Y-98620156D01*
X88354827Y-98651037D01*
X88318865Y-98665933D01*
X88299550Y-98668476D01*
X88299547Y-98668476D01*
X88299547Y-98668477D01*
X88245867Y-98690711D01*
X88154221Y-98728672D01*
X88029429Y-98824429D01*
X87933672Y-98949221D01*
X87873477Y-99094546D01*
X87858100Y-99211348D01*
X87858100Y-99247165D01*
X87848004Y-99284802D01*
X87820425Y-99312333D01*
X87782770Y-99322365D01*
X87756300Y-99322319D01*
X87476967Y-99321837D01*
X87439424Y-99311720D01*
X87411952Y-99284201D01*
X87401899Y-99246638D01*
X87401899Y-99211348D01*
X87386523Y-99094547D01*
X87386522Y-99094546D01*
X87326328Y-98949222D01*
X87230571Y-98824429D01*
X87105778Y-98728672D01*
X86960453Y-98668477D01*
X86960450Y-98668476D01*
X86960449Y-98668476D01*
X86941131Y-98665932D01*
X86905171Y-98651035D01*
X86881476Y-98620155D01*
X86842957Y-98527166D01*
X86842957Y-98527165D01*
X86754333Y-98411667D01*
X86696584Y-98367354D01*
X86638837Y-98323043D01*
X86504336Y-98267331D01*
X86360000Y-98248329D01*
X86215664Y-98267331D01*
X86081164Y-98323043D01*
X85965667Y-98411667D01*
X85877042Y-98527165D01*
X85838523Y-98620156D01*
X85814827Y-98651037D01*
X85778865Y-98665933D01*
X85759550Y-98668476D01*
X85759547Y-98668476D01*
X85759547Y-98668477D01*
X85705867Y-98690711D01*
X85614221Y-98728672D01*
X85489429Y-98824429D01*
X85393672Y-98949221D01*
X85333477Y-99094546D01*
X85318100Y-99211348D01*
X85318100Y-99242785D01*
X85308003Y-99280422D01*
X85280425Y-99307953D01*
X85242770Y-99317985D01*
X82931000Y-99314000D01*
X83661428Y-101192244D01*
X83663688Y-101240017D01*
X83636685Y-101279491D01*
X83591341Y-101294700D01*
X78612500Y-101294700D01*
X78574900Y-101284625D01*
X78547375Y-101257100D01*
X78537300Y-101219500D01*
X78537300Y-100647500D01*
X78772528Y-100647500D01*
X78792690Y-100774805D01*
X78851209Y-100889653D01*
X78942346Y-100980790D01*
X78942348Y-100980791D01*
X78942349Y-100980792D01*
X79057194Y-101039309D01*
X79184500Y-101059472D01*
X79311806Y-101039309D01*
X79426651Y-100980792D01*
X79517792Y-100889651D01*
X79576309Y-100774806D01*
X79596472Y-100647500D01*
X79576309Y-100520194D01*
X79517792Y-100405349D01*
X79517791Y-100405348D01*
X79517790Y-100405346D01*
X79426653Y-100314209D01*
X79311805Y-100255690D01*
X79184500Y-100235528D01*
X79057194Y-100255690D01*
X78942346Y-100314209D01*
X78851209Y-100405346D01*
X78792690Y-100520194D01*
X78772528Y-100647500D01*
X78537300Y-100647500D01*
X78537300Y-97790000D01*
X80487028Y-97790000D01*
X80507190Y-97917305D01*
X80565709Y-98032153D01*
X80656846Y-98123290D01*
X80656848Y-98123291D01*
X80656849Y-98123292D01*
X80771694Y-98181809D01*
X80899000Y-98201972D01*
X81026306Y-98181809D01*
X81141151Y-98123292D01*
X81232292Y-98032151D01*
X81290809Y-97917306D01*
X81290857Y-97917000D01*
X96997028Y-97917000D01*
X96998740Y-97927809D01*
X97017190Y-98044305D01*
X97075709Y-98159153D01*
X97166846Y-98250290D01*
X97166848Y-98250291D01*
X97166849Y-98250292D01*
X97281694Y-98308809D01*
X97409000Y-98328972D01*
X97536306Y-98308809D01*
X97651151Y-98250292D01*
X97742292Y-98159151D01*
X97800809Y-98044306D01*
X97820972Y-97917000D01*
X99537028Y-97917000D01*
X99538740Y-97927809D01*
X99557190Y-98044305D01*
X99615709Y-98159153D01*
X99706846Y-98250290D01*
X99706848Y-98250291D01*
X99706849Y-98250292D01*
X99821694Y-98308809D01*
X99949000Y-98328972D01*
X100076306Y-98308809D01*
X100191151Y-98250292D01*
X100282292Y-98159151D01*
X100340809Y-98044306D01*
X100360972Y-97917000D01*
X102331028Y-97917000D01*
X102332740Y-97927809D01*
X102351190Y-98044305D01*
X102409709Y-98159153D01*
X102500846Y-98250290D01*
X102500848Y-98250291D01*
X102500849Y-98250292D01*
X102615694Y-98308809D01*
X102743000Y-98328972D01*
X102870306Y-98308809D01*
X102985151Y-98250292D01*
X103076292Y-98159151D01*
X103134809Y-98044306D01*
X103154972Y-97917000D01*
X109697028Y-97917000D01*
X109698740Y-97927809D01*
X109717190Y-98044305D01*
X109775709Y-98159153D01*
X109866846Y-98250290D01*
X109866848Y-98250291D01*
X109866849Y-98250292D01*
X109981694Y-98308809D01*
X110109000Y-98328972D01*
X110236306Y-98308809D01*
X110351151Y-98250292D01*
X110442292Y-98159151D01*
X110500809Y-98044306D01*
X110520972Y-97917000D01*
X110500809Y-97789694D01*
X110442292Y-97674849D01*
X110442291Y-97674848D01*
X110442290Y-97674846D01*
X110351153Y-97583709D01*
X110257520Y-97536000D01*
X110840028Y-97536000D01*
X110841904Y-97547846D01*
X110860190Y-97663305D01*
X110918709Y-97778153D01*
X111009846Y-97869290D01*
X111009848Y-97869291D01*
X111009849Y-97869292D01*
X111124694Y-97927809D01*
X111252000Y-97947972D01*
X111379306Y-97927809D01*
X111400520Y-97917000D01*
X117317028Y-97917000D01*
X117318740Y-97927809D01*
X117337190Y-98044305D01*
X117395709Y-98159153D01*
X117486846Y-98250290D01*
X117486848Y-98250291D01*
X117486849Y-98250292D01*
X117601694Y-98308809D01*
X117729000Y-98328972D01*
X117856306Y-98308809D01*
X117971151Y-98250292D01*
X118062292Y-98159151D01*
X118120809Y-98044306D01*
X118140972Y-97917000D01*
X118120809Y-97789694D01*
X118062292Y-97674849D01*
X118062291Y-97674848D01*
X118062290Y-97674846D01*
X117971153Y-97583709D01*
X117877520Y-97536000D01*
X118460028Y-97536000D01*
X118461904Y-97547846D01*
X118480190Y-97663305D01*
X118538709Y-97778153D01*
X118629846Y-97869290D01*
X118629848Y-97869291D01*
X118629849Y-97869292D01*
X118744694Y-97927809D01*
X118872000Y-97947972D01*
X118999306Y-97927809D01*
X119114151Y-97869292D01*
X119205292Y-97778151D01*
X119263809Y-97663306D01*
X119283972Y-97536000D01*
X121000028Y-97536000D01*
X121001904Y-97547846D01*
X121020190Y-97663305D01*
X121078709Y-97778153D01*
X121169846Y-97869290D01*
X121169848Y-97869291D01*
X121169849Y-97869292D01*
X121284694Y-97927809D01*
X121412000Y-97947972D01*
X121539306Y-97927809D01*
X121654151Y-97869292D01*
X121745292Y-97778151D01*
X121803809Y-97663306D01*
X121823972Y-97536000D01*
X122016028Y-97536000D01*
X122017904Y-97547846D01*
X122036190Y-97663305D01*
X122094709Y-97778153D01*
X122185846Y-97869290D01*
X122185848Y-97869291D01*
X122185849Y-97869292D01*
X122300694Y-97927809D01*
X122428000Y-97947972D01*
X122555306Y-97927809D01*
X122670151Y-97869292D01*
X122685943Y-97853500D01*
X145638028Y-97853500D01*
X145658190Y-97980805D01*
X145716709Y-98095653D01*
X145807846Y-98186790D01*
X145807848Y-98186791D01*
X145807849Y-98186792D01*
X145922694Y-98245309D01*
X146050000Y-98265472D01*
X146177306Y-98245309D01*
X146292151Y-98186792D01*
X146383292Y-98095651D01*
X146441809Y-97980806D01*
X146461972Y-97853500D01*
X146441809Y-97726194D01*
X146383292Y-97611349D01*
X146383291Y-97611348D01*
X146383290Y-97611346D01*
X146292153Y-97520209D01*
X146177305Y-97461690D01*
X146050000Y-97441528D01*
X145922694Y-97461690D01*
X145807846Y-97520209D01*
X145716709Y-97611346D01*
X145658190Y-97726194D01*
X145638028Y-97853500D01*
X122685943Y-97853500D01*
X122761292Y-97778151D01*
X122819809Y-97663306D01*
X122839972Y-97536000D01*
X122819857Y-97409000D01*
X138653028Y-97409000D01*
X138673190Y-97536305D01*
X138731709Y-97651153D01*
X138822846Y-97742290D01*
X138822848Y-97742291D01*
X138822849Y-97742292D01*
X138937694Y-97800809D01*
X139065000Y-97820972D01*
X139192306Y-97800809D01*
X139307151Y-97742292D01*
X139398292Y-97651151D01*
X139456809Y-97536306D01*
X139476972Y-97409000D01*
X143733028Y-97409000D01*
X143753190Y-97536305D01*
X143811709Y-97651153D01*
X143902846Y-97742290D01*
X143902848Y-97742291D01*
X143902849Y-97742292D01*
X144017694Y-97800809D01*
X144145000Y-97820972D01*
X144272306Y-97800809D01*
X144387151Y-97742292D01*
X144478292Y-97651151D01*
X144536809Y-97536306D01*
X144556972Y-97409000D01*
X144536809Y-97281694D01*
X144478292Y-97166849D01*
X144478291Y-97166848D01*
X144478290Y-97166846D01*
X144387153Y-97075709D01*
X144272305Y-97017190D01*
X144145000Y-96997028D01*
X144017694Y-97017190D01*
X143902846Y-97075709D01*
X143811709Y-97166846D01*
X143753190Y-97281694D01*
X143733028Y-97409000D01*
X139476972Y-97409000D01*
X139456809Y-97281694D01*
X139398292Y-97166849D01*
X139398291Y-97166848D01*
X139398290Y-97166846D01*
X139307153Y-97075709D01*
X139192305Y-97017190D01*
X139065000Y-96997028D01*
X138937694Y-97017190D01*
X138822846Y-97075709D01*
X138731709Y-97166846D01*
X138673190Y-97281694D01*
X138653028Y-97409000D01*
X122819857Y-97409000D01*
X122819809Y-97408694D01*
X122761292Y-97293849D01*
X122761291Y-97293848D01*
X122761290Y-97293846D01*
X122670153Y-97202709D01*
X122555305Y-97144190D01*
X122428000Y-97124028D01*
X122300694Y-97144190D01*
X122185846Y-97202709D01*
X122094709Y-97293846D01*
X122036190Y-97408694D01*
X122017904Y-97524153D01*
X122016028Y-97536000D01*
X121823972Y-97536000D01*
X121803809Y-97408694D01*
X121745292Y-97293849D01*
X121745291Y-97293848D01*
X121745290Y-97293846D01*
X121654153Y-97202709D01*
X121539305Y-97144190D01*
X121412000Y-97124028D01*
X121284694Y-97144190D01*
X121169846Y-97202709D01*
X121078709Y-97293846D01*
X121020190Y-97408694D01*
X121001904Y-97524153D01*
X121000028Y-97536000D01*
X119283972Y-97536000D01*
X119263809Y-97408694D01*
X119205292Y-97293849D01*
X119205291Y-97293848D01*
X119205290Y-97293846D01*
X119114153Y-97202709D01*
X118999305Y-97144190D01*
X118872000Y-97124028D01*
X118744694Y-97144190D01*
X118629846Y-97202709D01*
X118538709Y-97293846D01*
X118480190Y-97408694D01*
X118461904Y-97524153D01*
X118460028Y-97536000D01*
X117877520Y-97536000D01*
X117856305Y-97525190D01*
X117729000Y-97505028D01*
X117601694Y-97525190D01*
X117486846Y-97583709D01*
X117395709Y-97674846D01*
X117337190Y-97789694D01*
X117327085Y-97853499D01*
X117317028Y-97917000D01*
X111400520Y-97917000D01*
X111494151Y-97869292D01*
X111585292Y-97778151D01*
X111643809Y-97663306D01*
X111663972Y-97536000D01*
X111643809Y-97408694D01*
X111585292Y-97293849D01*
X111585291Y-97293848D01*
X111585290Y-97293846D01*
X111494153Y-97202709D01*
X111379305Y-97144190D01*
X111252000Y-97124028D01*
X111124694Y-97144190D01*
X111009846Y-97202709D01*
X110918709Y-97293846D01*
X110860190Y-97408694D01*
X110841904Y-97524153D01*
X110840028Y-97536000D01*
X110257520Y-97536000D01*
X110236305Y-97525190D01*
X110109000Y-97505028D01*
X109981694Y-97525190D01*
X109866846Y-97583709D01*
X109775709Y-97674846D01*
X109717190Y-97789694D01*
X109707085Y-97853499D01*
X109697028Y-97917000D01*
X103154972Y-97917000D01*
X103134809Y-97789694D01*
X103076292Y-97674849D01*
X103076291Y-97674848D01*
X103076290Y-97674846D01*
X102985153Y-97583709D01*
X102870305Y-97525190D01*
X102743000Y-97505028D01*
X102615694Y-97525190D01*
X102500846Y-97583709D01*
X102409709Y-97674846D01*
X102351190Y-97789694D01*
X102341085Y-97853499D01*
X102331028Y-97917000D01*
X100360972Y-97917000D01*
X100340809Y-97789694D01*
X100282292Y-97674849D01*
X100282291Y-97674848D01*
X100282290Y-97674846D01*
X100191153Y-97583709D01*
X100076305Y-97525190D01*
X99949000Y-97505028D01*
X99821694Y-97525190D01*
X99706846Y-97583709D01*
X99615709Y-97674846D01*
X99557190Y-97789694D01*
X99547085Y-97853499D01*
X99537028Y-97917000D01*
X97820972Y-97917000D01*
X97800809Y-97789694D01*
X97742292Y-97674849D01*
X97742291Y-97674848D01*
X97742290Y-97674846D01*
X97651153Y-97583709D01*
X97536305Y-97525190D01*
X97409000Y-97505028D01*
X97281694Y-97525190D01*
X97166846Y-97583709D01*
X97075709Y-97674846D01*
X97017190Y-97789694D01*
X97007085Y-97853499D01*
X96997028Y-97917000D01*
X81290857Y-97917000D01*
X81310972Y-97790000D01*
X81290809Y-97662694D01*
X81232292Y-97547849D01*
X81232291Y-97547848D01*
X81232290Y-97547846D01*
X81141153Y-97456709D01*
X81026305Y-97398190D01*
X80899000Y-97378028D01*
X80771694Y-97398190D01*
X80656846Y-97456709D01*
X80565709Y-97547846D01*
X80507190Y-97662694D01*
X80487028Y-97790000D01*
X78537300Y-97790000D01*
X78537300Y-97281999D01*
X87662528Y-97281999D01*
X87682690Y-97409305D01*
X87741209Y-97524153D01*
X87832346Y-97615290D01*
X87832348Y-97615291D01*
X87832349Y-97615292D01*
X87947194Y-97673809D01*
X88074500Y-97693972D01*
X88201806Y-97673809D01*
X88316651Y-97615292D01*
X88407792Y-97524151D01*
X88466309Y-97409306D01*
X88486472Y-97282000D01*
X88466309Y-97154694D01*
X88407792Y-97039849D01*
X88407791Y-97039848D01*
X88407790Y-97039846D01*
X88395944Y-97028000D01*
X88996028Y-97028000D01*
X89016190Y-97155305D01*
X89074709Y-97270153D01*
X89165846Y-97361290D01*
X89165848Y-97361291D01*
X89165849Y-97361292D01*
X89280694Y-97419809D01*
X89408000Y-97439972D01*
X89535306Y-97419809D01*
X89650151Y-97361292D01*
X89741292Y-97270151D01*
X89799809Y-97155306D01*
X89819972Y-97028000D01*
X89799809Y-96900694D01*
X89741292Y-96785849D01*
X89741291Y-96785848D01*
X89741290Y-96785846D01*
X89650153Y-96694709D01*
X89535305Y-96636190D01*
X89408000Y-96616028D01*
X89280694Y-96636190D01*
X89165846Y-96694709D01*
X89074709Y-96785846D01*
X89016190Y-96900694D01*
X88996028Y-97028000D01*
X88395944Y-97028000D01*
X88316653Y-96948709D01*
X88201805Y-96890190D01*
X88074500Y-96870028D01*
X87947194Y-96890190D01*
X87832346Y-96948709D01*
X87741209Y-97039846D01*
X87682690Y-97154694D01*
X87662528Y-97281999D01*
X78537300Y-97281999D01*
X78537300Y-96713442D01*
X78528593Y-96647305D01*
X78511833Y-96520000D01*
X92615528Y-96520000D01*
X92617240Y-96530809D01*
X92635690Y-96647305D01*
X92694209Y-96762153D01*
X92785346Y-96853290D01*
X92785348Y-96853291D01*
X92785349Y-96853292D01*
X92900194Y-96911809D01*
X93027500Y-96931972D01*
X93154806Y-96911809D01*
X93269651Y-96853292D01*
X93360792Y-96762151D01*
X93419309Y-96647306D01*
X93439472Y-96520000D01*
X93419357Y-96393000D01*
X142717028Y-96393000D01*
X142737190Y-96520305D01*
X142795709Y-96635153D01*
X142886846Y-96726290D01*
X142886848Y-96726291D01*
X142886849Y-96726292D01*
X143001694Y-96784809D01*
X143129000Y-96804972D01*
X143256306Y-96784809D01*
X143371151Y-96726292D01*
X143462292Y-96635151D01*
X143520809Y-96520306D01*
X143524025Y-96499999D01*
X146988028Y-96499999D01*
X147008190Y-96627305D01*
X147066709Y-96742153D01*
X147157846Y-96833290D01*
X147157848Y-96833291D01*
X147157849Y-96833292D01*
X147272694Y-96891809D01*
X147400000Y-96911972D01*
X147527306Y-96891809D01*
X147642151Y-96833292D01*
X147733292Y-96742151D01*
X147791809Y-96627306D01*
X147811972Y-96500000D01*
X147791809Y-96372694D01*
X147733292Y-96257849D01*
X147733291Y-96257848D01*
X147733290Y-96257846D01*
X147642153Y-96166709D01*
X147587772Y-96139000D01*
X158211028Y-96139000D01*
X158231190Y-96266305D01*
X158289709Y-96381153D01*
X158380846Y-96472290D01*
X158380848Y-96472291D01*
X158380849Y-96472292D01*
X158495694Y-96530809D01*
X158623000Y-96550972D01*
X158750306Y-96530809D01*
X158865151Y-96472292D01*
X158956292Y-96381151D01*
X159014809Y-96266306D01*
X159034972Y-96139000D01*
X159014809Y-96011694D01*
X158956292Y-95896849D01*
X158956291Y-95896848D01*
X158956290Y-95896846D01*
X158865153Y-95805709D01*
X158750305Y-95747190D01*
X158623000Y-95727028D01*
X158495694Y-95747190D01*
X158380846Y-95805709D01*
X158289709Y-95896846D01*
X158231190Y-96011694D01*
X158211028Y-96139000D01*
X147587772Y-96139000D01*
X147527305Y-96108190D01*
X147400000Y-96088028D01*
X147272694Y-96108190D01*
X147157846Y-96166709D01*
X147066709Y-96257846D01*
X147008190Y-96372694D01*
X146988028Y-96499999D01*
X143524025Y-96499999D01*
X143540972Y-96393000D01*
X143520809Y-96265694D01*
X143462292Y-96150849D01*
X143462291Y-96150848D01*
X143462290Y-96150846D01*
X143371153Y-96059709D01*
X143256305Y-96001190D01*
X143129000Y-95981028D01*
X143001694Y-96001190D01*
X142886846Y-96059709D01*
X142795709Y-96150846D01*
X142737190Y-96265694D01*
X142717028Y-96393000D01*
X93419357Y-96393000D01*
X93419309Y-96392694D01*
X93360792Y-96277849D01*
X93360791Y-96277848D01*
X93360790Y-96277846D01*
X93269653Y-96186709D01*
X93154805Y-96128190D01*
X93027500Y-96108028D01*
X92900194Y-96128190D01*
X92785346Y-96186709D01*
X92694209Y-96277846D01*
X92635690Y-96392694D01*
X92615528Y-96519999D01*
X92615528Y-96520000D01*
X78511833Y-96520000D01*
X78504913Y-96467441D01*
X78440695Y-96227774D01*
X78345743Y-95998540D01*
X78287030Y-95896846D01*
X78221682Y-95783659D01*
X78070633Y-95586809D01*
X77895190Y-95411366D01*
X77850404Y-95377000D01*
X108427028Y-95377000D01*
X108447190Y-95504305D01*
X108505709Y-95619153D01*
X108596846Y-95710290D01*
X108596848Y-95710291D01*
X108596849Y-95710292D01*
X108711694Y-95768809D01*
X108839000Y-95788972D01*
X108966306Y-95768809D01*
X109081151Y-95710292D01*
X109172292Y-95619151D01*
X109230809Y-95504306D01*
X109250972Y-95377000D01*
X109951028Y-95377000D01*
X109971190Y-95504305D01*
X110029709Y-95619153D01*
X110120846Y-95710290D01*
X110120848Y-95710291D01*
X110120849Y-95710292D01*
X110235694Y-95768809D01*
X110363000Y-95788972D01*
X110490306Y-95768809D01*
X110605151Y-95710292D01*
X110696292Y-95619151D01*
X110754809Y-95504306D01*
X110774972Y-95377000D01*
X112364028Y-95377000D01*
X112384190Y-95504305D01*
X112442709Y-95619153D01*
X112533846Y-95710290D01*
X112533848Y-95710291D01*
X112533849Y-95710292D01*
X112648694Y-95768809D01*
X112776000Y-95788972D01*
X112903306Y-95768809D01*
X112924520Y-95758000D01*
X114269028Y-95758000D01*
X114289190Y-95885305D01*
X114347709Y-96000153D01*
X114438846Y-96091290D01*
X114438848Y-96091291D01*
X114438849Y-96091292D01*
X114553694Y-96149809D01*
X114681000Y-96169972D01*
X114808306Y-96149809D01*
X114923151Y-96091292D01*
X115014292Y-96000151D01*
X115072809Y-95885306D01*
X115092972Y-95758000D01*
X115072809Y-95630694D01*
X115014292Y-95515849D01*
X115014291Y-95515848D01*
X115014290Y-95515846D01*
X114923153Y-95424709D01*
X114808305Y-95366190D01*
X114681000Y-95346028D01*
X114553694Y-95366190D01*
X114438846Y-95424709D01*
X114347709Y-95515846D01*
X114289190Y-95630694D01*
X114269028Y-95758000D01*
X112924520Y-95758000D01*
X113018151Y-95710292D01*
X113109292Y-95619151D01*
X113167809Y-95504306D01*
X113187972Y-95377000D01*
X113167809Y-95249694D01*
X113109292Y-95134849D01*
X113109291Y-95134848D01*
X113109290Y-95134846D01*
X113024444Y-95050000D01*
X145342443Y-95050000D01*
X145360977Y-95178910D01*
X145415078Y-95297373D01*
X145415079Y-95297374D01*
X145500364Y-95395799D01*
X145609924Y-95466208D01*
X145734883Y-95502900D01*
X145865116Y-95502900D01*
X145865117Y-95502900D01*
X145990076Y-95466208D01*
X146099636Y-95395799D01*
X146184921Y-95297374D01*
X146239023Y-95178909D01*
X146257557Y-95050000D01*
X146250368Y-95000000D01*
X148488028Y-95000000D01*
X148508190Y-95127305D01*
X148566709Y-95242153D01*
X148657846Y-95333290D01*
X148657848Y-95333291D01*
X148657849Y-95333292D01*
X148772694Y-95391809D01*
X148900000Y-95411972D01*
X149027306Y-95391809D01*
X149142151Y-95333292D01*
X149233292Y-95242151D01*
X149280246Y-95150000D01*
X150692329Y-95150000D01*
X150711331Y-95294336D01*
X150767043Y-95428837D01*
X150811354Y-95486584D01*
X150855667Y-95544333D01*
X150911023Y-95586809D01*
X150971162Y-95632956D01*
X150971163Y-95632956D01*
X150971164Y-95632957D01*
X151105664Y-95688669D01*
X151250000Y-95707671D01*
X151394336Y-95688669D01*
X151528836Y-95632957D01*
X151644333Y-95544333D01*
X151732957Y-95428836D01*
X151788669Y-95294336D01*
X151807671Y-95150000D01*
X151788669Y-95005664D01*
X151732957Y-94871165D01*
X151644333Y-94755667D01*
X151557854Y-94689309D01*
X151528837Y-94667043D01*
X151394336Y-94611331D01*
X151250000Y-94592329D01*
X151105664Y-94611331D01*
X150971164Y-94667043D01*
X150855667Y-94755667D01*
X150767043Y-94871164D01*
X150711331Y-95005664D01*
X150692329Y-95150000D01*
X149280246Y-95150000D01*
X149291809Y-95127306D01*
X149311972Y-95000000D01*
X149291809Y-94872694D01*
X149233292Y-94757849D01*
X149233291Y-94757848D01*
X149233290Y-94757846D01*
X149142153Y-94666709D01*
X149027305Y-94608190D01*
X148900000Y-94588028D01*
X148772694Y-94608190D01*
X148657846Y-94666709D01*
X148566709Y-94757846D01*
X148508190Y-94872694D01*
X148488028Y-95000000D01*
X146250368Y-95000000D01*
X146239023Y-94921091D01*
X146184921Y-94802626D01*
X146099636Y-94704201D01*
X145990076Y-94633792D01*
X145990075Y-94633791D01*
X145990074Y-94633791D01*
X145913582Y-94611331D01*
X145865117Y-94597100D01*
X145734883Y-94597100D01*
X145698191Y-94607873D01*
X145609925Y-94633791D01*
X145572767Y-94657671D01*
X145500364Y-94704201D01*
X145500363Y-94704201D01*
X145500363Y-94704202D01*
X145415078Y-94802626D01*
X145360977Y-94921089D01*
X145342443Y-95050000D01*
X113024444Y-95050000D01*
X113018153Y-95043709D01*
X112903305Y-94985190D01*
X112776000Y-94965028D01*
X112648694Y-94985190D01*
X112533846Y-95043709D01*
X112442709Y-95134846D01*
X112384190Y-95249694D01*
X112364028Y-95377000D01*
X110774972Y-95377000D01*
X110754809Y-95249694D01*
X110696292Y-95134849D01*
X110696291Y-95134848D01*
X110696290Y-95134846D01*
X110605153Y-95043709D01*
X110490305Y-94985190D01*
X110363000Y-94965028D01*
X110235694Y-94985190D01*
X110120846Y-95043709D01*
X110029709Y-95134846D01*
X109971190Y-95249694D01*
X109951028Y-95377000D01*
X109250972Y-95377000D01*
X109230809Y-95249694D01*
X109172292Y-95134849D01*
X109172291Y-95134848D01*
X109172290Y-95134846D01*
X109081153Y-95043709D01*
X108966305Y-94985190D01*
X108839000Y-94965028D01*
X108711694Y-94985190D01*
X108596846Y-95043709D01*
X108505709Y-95134846D01*
X108447190Y-95249694D01*
X108427028Y-95377000D01*
X77850404Y-95377000D01*
X77698340Y-95260317D01*
X77483462Y-95136258D01*
X77483460Y-95136257D01*
X77254226Y-95041305D01*
X77014559Y-94977087D01*
X76768561Y-94944700D01*
X76768558Y-94944700D01*
X76580500Y-94944700D01*
X76542900Y-94934625D01*
X76515375Y-94907100D01*
X76505300Y-94869500D01*
X76505300Y-94297499D01*
X76740528Y-94297499D01*
X76760690Y-94424805D01*
X76819209Y-94539653D01*
X76910346Y-94630790D01*
X76910348Y-94630791D01*
X76910349Y-94630792D01*
X77025194Y-94689309D01*
X77152500Y-94709472D01*
X77279806Y-94689309D01*
X77394651Y-94630792D01*
X77485792Y-94539651D01*
X77544309Y-94424806D01*
X77564472Y-94297500D01*
X77554415Y-94234000D01*
X111157528Y-94234000D01*
X111177690Y-94361305D01*
X111236209Y-94476153D01*
X111327346Y-94567290D01*
X111327348Y-94567291D01*
X111327349Y-94567292D01*
X111442194Y-94625809D01*
X111569500Y-94645972D01*
X111696806Y-94625809D01*
X111811651Y-94567292D01*
X111902792Y-94476151D01*
X111961309Y-94361306D01*
X111981472Y-94234000D01*
X111961309Y-94106694D01*
X111902792Y-93991849D01*
X111902791Y-93991848D01*
X111902790Y-93991846D01*
X111860943Y-93949999D01*
X144242443Y-93949999D01*
X144260977Y-94078910D01*
X144315078Y-94197373D01*
X144315079Y-94197374D01*
X144400364Y-94295799D01*
X144509924Y-94366208D01*
X144634883Y-94402900D01*
X144765116Y-94402900D01*
X144765117Y-94402900D01*
X144890076Y-94366208D01*
X144999636Y-94295799D01*
X145084921Y-94197374D01*
X145139023Y-94078909D01*
X145157557Y-93950000D01*
X145157557Y-93949999D01*
X146442443Y-93949999D01*
X146460977Y-94078910D01*
X146515078Y-94197373D01*
X146515079Y-94197374D01*
X146600364Y-94295799D01*
X146709924Y-94366208D01*
X146834883Y-94402900D01*
X146965116Y-94402900D01*
X146965117Y-94402900D01*
X147090076Y-94366208D01*
X147199636Y-94295799D01*
X147284921Y-94197374D01*
X147329391Y-94100000D01*
X149442329Y-94100000D01*
X149461331Y-94244336D01*
X149517043Y-94378837D01*
X149535508Y-94402900D01*
X149605667Y-94494333D01*
X149664727Y-94539651D01*
X149721162Y-94582956D01*
X149721163Y-94582956D01*
X149721164Y-94582957D01*
X149855664Y-94638669D01*
X150000000Y-94657671D01*
X150144336Y-94638669D01*
X150278836Y-94582957D01*
X150394333Y-94494333D01*
X150482957Y-94378836D01*
X150538669Y-94244336D01*
X150557671Y-94100000D01*
X151942329Y-94100000D01*
X151961331Y-94244336D01*
X152017043Y-94378837D01*
X152035508Y-94402900D01*
X152105667Y-94494333D01*
X152164727Y-94539651D01*
X152221162Y-94582956D01*
X152221163Y-94582956D01*
X152221164Y-94582957D01*
X152355664Y-94638669D01*
X152500000Y-94657671D01*
X152644336Y-94638669D01*
X152778836Y-94582957D01*
X152894333Y-94494333D01*
X152982957Y-94378836D01*
X153038669Y-94244336D01*
X153057671Y-94100000D01*
X153038669Y-93955664D01*
X152996143Y-93852999D01*
X160878028Y-93852999D01*
X160898190Y-93980305D01*
X160956709Y-94095153D01*
X161047846Y-94186290D01*
X161047848Y-94186291D01*
X161047849Y-94186292D01*
X161162694Y-94244809D01*
X161290000Y-94264972D01*
X161417306Y-94244809D01*
X161532151Y-94186292D01*
X161623292Y-94095151D01*
X161681809Y-93980306D01*
X161701972Y-93853000D01*
X161681809Y-93725694D01*
X161623292Y-93610849D01*
X161623291Y-93610848D01*
X161623290Y-93610846D01*
X161532153Y-93519709D01*
X161412001Y-93458488D01*
X161406011Y-93459402D01*
X161290000Y-93441028D01*
X161289999Y-93441028D01*
X161162694Y-93461190D01*
X161047846Y-93519709D01*
X160956709Y-93610846D01*
X160898190Y-93725694D01*
X160878028Y-93852999D01*
X152996143Y-93852999D01*
X152982957Y-93821165D01*
X152894333Y-93705667D01*
X152836584Y-93661355D01*
X152778837Y-93617043D01*
X152644336Y-93561331D01*
X152500000Y-93542329D01*
X152355664Y-93561331D01*
X152221164Y-93617043D01*
X152105667Y-93705667D01*
X152017043Y-93821164D01*
X151961331Y-93955664D01*
X151942329Y-94100000D01*
X150557671Y-94100000D01*
X150538669Y-93955664D01*
X150482957Y-93821165D01*
X150394333Y-93705667D01*
X150336584Y-93661355D01*
X150278837Y-93617043D01*
X150144336Y-93561331D01*
X150000000Y-93542329D01*
X149855664Y-93561331D01*
X149721164Y-93617043D01*
X149605667Y-93705667D01*
X149517043Y-93821164D01*
X149461331Y-93955664D01*
X149442329Y-94100000D01*
X147329391Y-94100000D01*
X147339023Y-94078909D01*
X147357557Y-93950000D01*
X147339023Y-93821091D01*
X147284921Y-93702626D01*
X147199636Y-93604201D01*
X147090076Y-93533792D01*
X147090075Y-93533791D01*
X147090074Y-93533791D01*
X147017060Y-93512352D01*
X146965117Y-93497100D01*
X146834883Y-93497100D01*
X146798191Y-93507873D01*
X146709925Y-93533791D01*
X146696640Y-93542329D01*
X146600364Y-93604201D01*
X146600363Y-93604201D01*
X146600363Y-93604202D01*
X146515078Y-93702626D01*
X146460977Y-93821089D01*
X146442443Y-93949999D01*
X145157557Y-93949999D01*
X145139023Y-93821091D01*
X145084921Y-93702626D01*
X144999636Y-93604201D01*
X144890076Y-93533792D01*
X144890075Y-93533791D01*
X144890074Y-93533791D01*
X144817060Y-93512352D01*
X144765117Y-93497100D01*
X144634883Y-93497100D01*
X144598191Y-93507873D01*
X144509925Y-93533791D01*
X144496640Y-93542329D01*
X144400364Y-93604201D01*
X144400363Y-93604201D01*
X144400363Y-93604202D01*
X144315078Y-93702626D01*
X144260977Y-93821089D01*
X144242443Y-93949999D01*
X111860943Y-93949999D01*
X111811653Y-93900709D01*
X111696805Y-93842190D01*
X111569500Y-93822028D01*
X111442194Y-93842190D01*
X111327346Y-93900709D01*
X111236209Y-93991846D01*
X111177690Y-94106694D01*
X111157528Y-94234000D01*
X77554415Y-94234000D01*
X77544309Y-94170194D01*
X77485792Y-94055349D01*
X77485791Y-94055348D01*
X77485790Y-94055346D01*
X77394653Y-93964209D01*
X77279805Y-93905690D01*
X77152500Y-93885528D01*
X77025194Y-93905690D01*
X76910346Y-93964209D01*
X76819209Y-94055346D01*
X76760690Y-94170194D01*
X76740528Y-94297499D01*
X76505300Y-94297499D01*
X76505300Y-93345000D01*
X110205028Y-93345000D01*
X110225190Y-93472305D01*
X110283709Y-93587153D01*
X110374846Y-93678290D01*
X110374848Y-93678291D01*
X110374849Y-93678292D01*
X110489694Y-93736809D01*
X110617000Y-93756972D01*
X110744306Y-93736809D01*
X110859151Y-93678292D01*
X110950292Y-93587151D01*
X111008809Y-93472306D01*
X111008857Y-93472000D01*
X111983028Y-93472000D01*
X111986221Y-93492162D01*
X112003190Y-93599305D01*
X112061709Y-93714153D01*
X112152846Y-93805290D01*
X112152848Y-93805291D01*
X112152849Y-93805292D01*
X112267694Y-93863809D01*
X112395000Y-93883972D01*
X112522306Y-93863809D01*
X112637151Y-93805292D01*
X112728292Y-93714151D01*
X112786809Y-93599306D01*
X112806972Y-93472000D01*
X112786809Y-93344694D01*
X112728292Y-93229849D01*
X112728291Y-93229848D01*
X112728290Y-93229846D01*
X112637153Y-93138709D01*
X112522305Y-93080190D01*
X112395000Y-93060028D01*
X112267694Y-93080190D01*
X112152846Y-93138709D01*
X112061709Y-93229846D01*
X112003190Y-93344694D01*
X111987933Y-93441028D01*
X111983028Y-93472000D01*
X111008857Y-93472000D01*
X111028972Y-93345000D01*
X111008809Y-93217694D01*
X110950292Y-93102849D01*
X110950291Y-93102848D01*
X110950290Y-93102846D01*
X110859153Y-93011709D01*
X110744305Y-92953190D01*
X110617000Y-92933028D01*
X110489694Y-92953190D01*
X110374846Y-93011709D01*
X110283709Y-93102846D01*
X110225190Y-93217694D01*
X110205028Y-93345000D01*
X76505300Y-93345000D01*
X76505300Y-91439999D01*
X76677028Y-91439999D01*
X76697190Y-91567305D01*
X76755709Y-91682153D01*
X76846846Y-91773290D01*
X76846848Y-91773291D01*
X76846849Y-91773292D01*
X76961694Y-91831809D01*
X77089000Y-91851972D01*
X77216306Y-91831809D01*
X77331151Y-91773292D01*
X77422292Y-91682151D01*
X77480809Y-91567306D01*
X77500972Y-91440000D01*
X77667864Y-91440000D01*
X77687179Y-91710061D01*
X77744731Y-91974622D01*
X77839350Y-92228307D01*
X77969105Y-92465935D01*
X77969108Y-92465939D01*
X78104927Y-92647373D01*
X78131367Y-92682692D01*
X78322807Y-92874132D01*
X78322810Y-92874134D01*
X78322813Y-92874137D01*
X78539561Y-93036392D01*
X78539564Y-93036394D01*
X78661267Y-93102849D01*
X78777194Y-93166150D01*
X78915390Y-93217694D01*
X79030877Y-93260768D01*
X79264763Y-93311647D01*
X79295438Y-93318320D01*
X79565500Y-93337635D01*
X79835562Y-93318320D01*
X80004819Y-93281500D01*
X80100122Y-93260768D01*
X80100122Y-93260767D01*
X80100126Y-93260767D01*
X80353806Y-93166150D01*
X80591439Y-93036392D01*
X80808187Y-92874137D01*
X80999637Y-92682687D01*
X81161892Y-92465939D01*
X81167319Y-92456000D01*
X83262329Y-92456000D01*
X83281331Y-92600336D01*
X83337043Y-92734837D01*
X83357620Y-92761653D01*
X83425667Y-92850333D01*
X83500924Y-92908080D01*
X83541162Y-92938956D01*
X83541163Y-92938956D01*
X83541164Y-92938957D01*
X83675664Y-92994669D01*
X83820000Y-93013671D01*
X83964336Y-92994669D01*
X84098836Y-92938957D01*
X84214333Y-92850333D01*
X84302957Y-92734836D01*
X84358669Y-92600336D01*
X84377671Y-92456000D01*
X84358669Y-92311664D01*
X84302957Y-92177165D01*
X84224564Y-92075000D01*
X106249329Y-92075000D01*
X106252599Y-92099836D01*
X106268331Y-92219336D01*
X106324043Y-92353837D01*
X106353476Y-92392194D01*
X106412667Y-92469333D01*
X106478046Y-92519500D01*
X106528162Y-92557956D01*
X106528163Y-92557956D01*
X106528164Y-92557957D01*
X106662664Y-92613669D01*
X106807000Y-92632671D01*
X106951336Y-92613669D01*
X107025377Y-92583000D01*
X111094028Y-92583000D01*
X111114190Y-92710305D01*
X111172709Y-92825153D01*
X111263846Y-92916290D01*
X111263848Y-92916291D01*
X111263849Y-92916292D01*
X111378694Y-92974809D01*
X111506000Y-92994972D01*
X111633306Y-92974809D01*
X111654520Y-92964000D01*
X113761028Y-92964000D01*
X113781190Y-93091305D01*
X113839709Y-93206153D01*
X113930846Y-93297290D01*
X113930848Y-93297291D01*
X113930849Y-93297292D01*
X114045694Y-93355809D01*
X114173000Y-93375972D01*
X114300306Y-93355809D01*
X114415151Y-93297292D01*
X114430943Y-93281500D01*
X114777028Y-93281500D01*
X114797190Y-93408805D01*
X114855709Y-93523653D01*
X114946846Y-93614790D01*
X114946848Y-93614791D01*
X114946849Y-93614792D01*
X115061694Y-93673309D01*
X115189000Y-93693472D01*
X115316306Y-93673309D01*
X115431151Y-93614792D01*
X115522292Y-93523651D01*
X115580809Y-93408806D01*
X115600972Y-93281500D01*
X115580809Y-93154194D01*
X115522292Y-93039349D01*
X115522291Y-93039348D01*
X115522290Y-93039346D01*
X115446944Y-92964000D01*
X115793028Y-92964000D01*
X115813190Y-93091305D01*
X115871709Y-93206153D01*
X115962846Y-93297290D01*
X115962848Y-93297291D01*
X115962849Y-93297292D01*
X116077694Y-93355809D01*
X116205000Y-93375972D01*
X116332306Y-93355809D01*
X116447151Y-93297292D01*
X116538292Y-93206151D01*
X116596809Y-93091306D01*
X116616972Y-92964000D01*
X116596809Y-92836694D01*
X116538292Y-92721849D01*
X116538291Y-92721848D01*
X116538290Y-92721846D01*
X116447153Y-92630709D01*
X116332305Y-92572190D01*
X116205000Y-92552028D01*
X116077694Y-92572190D01*
X115962846Y-92630709D01*
X115871709Y-92721846D01*
X115813190Y-92836694D01*
X115793028Y-92964000D01*
X115446944Y-92964000D01*
X115431153Y-92948209D01*
X115316305Y-92889690D01*
X115189000Y-92869528D01*
X115061694Y-92889690D01*
X114946846Y-92948209D01*
X114855709Y-93039346D01*
X114797190Y-93154194D01*
X114777028Y-93281500D01*
X114430943Y-93281500D01*
X114506292Y-93206151D01*
X114564809Y-93091306D01*
X114584972Y-92964000D01*
X114564809Y-92836694D01*
X114506292Y-92721849D01*
X114506291Y-92721848D01*
X114506290Y-92721846D01*
X114415153Y-92630709D01*
X114300305Y-92572190D01*
X114173000Y-92552028D01*
X114045694Y-92572190D01*
X113930846Y-92630709D01*
X113839709Y-92721846D01*
X113781190Y-92836694D01*
X113761028Y-92964000D01*
X111654520Y-92964000D01*
X111748151Y-92916292D01*
X111839292Y-92825151D01*
X111897809Y-92710306D01*
X111917972Y-92583000D01*
X111897857Y-92456000D01*
X112110028Y-92456000D01*
X112130190Y-92583305D01*
X112188709Y-92698153D01*
X112279846Y-92789290D01*
X112279848Y-92789291D01*
X112279849Y-92789292D01*
X112394694Y-92847809D01*
X112522000Y-92867972D01*
X112649306Y-92847809D01*
X112764151Y-92789292D01*
X112855292Y-92698151D01*
X112913809Y-92583306D01*
X112923915Y-92519500D01*
X140367528Y-92519500D01*
X140387690Y-92646805D01*
X140446209Y-92761653D01*
X140537346Y-92852790D01*
X140537348Y-92852791D01*
X140537349Y-92852792D01*
X140652194Y-92911309D01*
X140779500Y-92931472D01*
X140906806Y-92911309D01*
X141021651Y-92852792D01*
X141112792Y-92761651D01*
X141171309Y-92646806D01*
X141186641Y-92550000D01*
X144242443Y-92550000D01*
X144247232Y-92583306D01*
X144260977Y-92678910D01*
X144315078Y-92797373D01*
X144315079Y-92797374D01*
X144400364Y-92895799D01*
X144509924Y-92966208D01*
X144634883Y-93002900D01*
X144765116Y-93002900D01*
X144765117Y-93002900D01*
X144890076Y-92966208D01*
X144999636Y-92895799D01*
X145084921Y-92797374D01*
X145139023Y-92678909D01*
X145157557Y-92550000D01*
X145139023Y-92421091D01*
X145129390Y-92399999D01*
X146492443Y-92399999D01*
X146510977Y-92528910D01*
X146565078Y-92647373D01*
X146565079Y-92647374D01*
X146650364Y-92745799D01*
X146759924Y-92816208D01*
X146884883Y-92852900D01*
X147015116Y-92852900D01*
X147015117Y-92852900D01*
X147140076Y-92816208D01*
X147249636Y-92745799D01*
X147334921Y-92647374D01*
X147389023Y-92528909D01*
X147407557Y-92400000D01*
X149492329Y-92400000D01*
X149501009Y-92465935D01*
X149511331Y-92544336D01*
X149567043Y-92678837D01*
X149600046Y-92721846D01*
X149655667Y-92794333D01*
X149710873Y-92836694D01*
X149771162Y-92882956D01*
X149771163Y-92882956D01*
X149771164Y-92882957D01*
X149905664Y-92938669D01*
X150050000Y-92957671D01*
X150194336Y-92938669D01*
X150328836Y-92882957D01*
X150444333Y-92794333D01*
X150532957Y-92678836D01*
X150588669Y-92544336D01*
X150607671Y-92400000D01*
X150588669Y-92255664D01*
X150565612Y-92200000D01*
X151942329Y-92200000D01*
X151944348Y-92215333D01*
X151961331Y-92344336D01*
X152017043Y-92478837D01*
X152055465Y-92528909D01*
X152105667Y-92594333D01*
X152155629Y-92632670D01*
X152221162Y-92682956D01*
X152221163Y-92682956D01*
X152221164Y-92682957D01*
X152355664Y-92738669D01*
X152500000Y-92757671D01*
X152644336Y-92738669D01*
X152778836Y-92682957D01*
X152894333Y-92594333D01*
X152982957Y-92478836D01*
X153038669Y-92344336D01*
X153057671Y-92200000D01*
X155642329Y-92200000D01*
X155644348Y-92215333D01*
X155661331Y-92344336D01*
X155717043Y-92478837D01*
X155755465Y-92528909D01*
X155805667Y-92594333D01*
X155855629Y-92632670D01*
X155921162Y-92682956D01*
X155921163Y-92682956D01*
X155921164Y-92682957D01*
X156055664Y-92738669D01*
X156200000Y-92757671D01*
X156344336Y-92738669D01*
X156478836Y-92682957D01*
X156594333Y-92594333D01*
X156682957Y-92478836D01*
X156692416Y-92456000D01*
X158192329Y-92456000D01*
X158194084Y-92469332D01*
X158211331Y-92600336D01*
X158267043Y-92734837D01*
X158287620Y-92761653D01*
X158355667Y-92850333D01*
X158430924Y-92908080D01*
X158471162Y-92938956D01*
X158471163Y-92938956D01*
X158471164Y-92938957D01*
X158605664Y-92994669D01*
X158750000Y-93013671D01*
X158894336Y-92994669D01*
X159028836Y-92938957D01*
X159144333Y-92850333D01*
X159232957Y-92734836D01*
X159288669Y-92600336D01*
X159307671Y-92456000D01*
X159288669Y-92311664D01*
X159232957Y-92177165D01*
X159144333Y-92061667D01*
X159086584Y-92017354D01*
X159028837Y-91973043D01*
X158894336Y-91917331D01*
X158750000Y-91898329D01*
X158605664Y-91917331D01*
X158471164Y-91973043D01*
X158355667Y-92061667D01*
X158267043Y-92177164D01*
X158251233Y-92215333D01*
X158211331Y-92311664D01*
X158192329Y-92456000D01*
X156692416Y-92456000D01*
X156738669Y-92344336D01*
X156757671Y-92200000D01*
X156738669Y-92055664D01*
X156682957Y-91921165D01*
X156594333Y-91805667D01*
X156514400Y-91744332D01*
X156478837Y-91717043D01*
X156344336Y-91661331D01*
X156200000Y-91642329D01*
X156055664Y-91661331D01*
X155921164Y-91717043D01*
X155805667Y-91805667D01*
X155717043Y-91921164D01*
X155661331Y-92055664D01*
X155644145Y-92186209D01*
X155642329Y-92200000D01*
X153057671Y-92200000D01*
X153038669Y-92055664D01*
X152982957Y-91921165D01*
X152894333Y-91805667D01*
X152814400Y-91744332D01*
X152778837Y-91717043D01*
X152644336Y-91661331D01*
X152500000Y-91642329D01*
X152355664Y-91661331D01*
X152221164Y-91717043D01*
X152105667Y-91805667D01*
X152017043Y-91921164D01*
X151961331Y-92055664D01*
X151944145Y-92186209D01*
X151942329Y-92200000D01*
X150565612Y-92200000D01*
X150532957Y-92121165D01*
X150444333Y-92005667D01*
X150386584Y-91961354D01*
X150328837Y-91917043D01*
X150194336Y-91861331D01*
X150050000Y-91842329D01*
X149905664Y-91861331D01*
X149771164Y-91917043D01*
X149655667Y-92005667D01*
X149567043Y-92121164D01*
X149511331Y-92255664D01*
X149498407Y-92353836D01*
X149492329Y-92400000D01*
X147407557Y-92400000D01*
X147389023Y-92271091D01*
X147334921Y-92152626D01*
X147249636Y-92054201D01*
X147140076Y-91983792D01*
X147140075Y-91983791D01*
X147140074Y-91983791D01*
X147054993Y-91958809D01*
X147015117Y-91947100D01*
X146884883Y-91947100D01*
X146848192Y-91957873D01*
X146759925Y-91983791D01*
X146725885Y-92005667D01*
X146650364Y-92054201D01*
X146650363Y-92054201D01*
X146650363Y-92054202D01*
X146565078Y-92152626D01*
X146510977Y-92271089D01*
X146492443Y-92399999D01*
X145129390Y-92399999D01*
X145084921Y-92302626D01*
X144999636Y-92204201D01*
X144890076Y-92133792D01*
X144890075Y-92133791D01*
X144890074Y-92133791D01*
X144817060Y-92112352D01*
X144765117Y-92097100D01*
X144634883Y-92097100D01*
X144599369Y-92107528D01*
X144509925Y-92133791D01*
X144480617Y-92152626D01*
X144400364Y-92204201D01*
X144400363Y-92204201D01*
X144400363Y-92204202D01*
X144315078Y-92302626D01*
X144260977Y-92421089D01*
X144246828Y-92519500D01*
X144242443Y-92550000D01*
X141186641Y-92550000D01*
X141191472Y-92519500D01*
X141171309Y-92392194D01*
X141112792Y-92277349D01*
X141112791Y-92277348D01*
X141112790Y-92277346D01*
X141021653Y-92186209D01*
X140906805Y-92127690D01*
X140779500Y-92107528D01*
X140652194Y-92127690D01*
X140537346Y-92186209D01*
X140446209Y-92277346D01*
X140387690Y-92392194D01*
X140367528Y-92519500D01*
X112923915Y-92519500D01*
X112933972Y-92456000D01*
X112913809Y-92328694D01*
X112855292Y-92213849D01*
X112855291Y-92213848D01*
X112855290Y-92213846D01*
X112764153Y-92122709D01*
X112649305Y-92064190D01*
X112522000Y-92044028D01*
X112394694Y-92064190D01*
X112279846Y-92122709D01*
X112188709Y-92213846D01*
X112130190Y-92328694D01*
X112110028Y-92456000D01*
X111897857Y-92456000D01*
X111897809Y-92455694D01*
X111839292Y-92340849D01*
X111839291Y-92340848D01*
X111839290Y-92340846D01*
X111748153Y-92249709D01*
X111633305Y-92191190D01*
X111506000Y-92171028D01*
X111378694Y-92191190D01*
X111263846Y-92249709D01*
X111172709Y-92340846D01*
X111114190Y-92455694D01*
X111094028Y-92583000D01*
X107025377Y-92583000D01*
X107085836Y-92557957D01*
X107201333Y-92469333D01*
X107289957Y-92353836D01*
X107345669Y-92219336D01*
X107364671Y-92075000D01*
X107347951Y-91948000D01*
X112999028Y-91948000D01*
X113019190Y-92075305D01*
X113077709Y-92190153D01*
X113168846Y-92281290D01*
X113168848Y-92281291D01*
X113168849Y-92281292D01*
X113283694Y-92339809D01*
X113411000Y-92359972D01*
X113538306Y-92339809D01*
X113653151Y-92281292D01*
X113744292Y-92190151D01*
X113802809Y-92075306D01*
X113822972Y-91948000D01*
X114523028Y-91948000D01*
X114543190Y-92075305D01*
X114601709Y-92190153D01*
X114692846Y-92281290D01*
X114692848Y-92281291D01*
X114692849Y-92281292D01*
X114807694Y-92339809D01*
X114935000Y-92359972D01*
X115062306Y-92339809D01*
X115177151Y-92281292D01*
X115268292Y-92190151D01*
X115326809Y-92075306D01*
X115346972Y-91948000D01*
X115326857Y-91821000D01*
X117171329Y-91821000D01*
X117190331Y-91965336D01*
X117246043Y-92099837D01*
X117272098Y-92133792D01*
X117334667Y-92215333D01*
X117398328Y-92264182D01*
X117450162Y-92303956D01*
X117450163Y-92303956D01*
X117450164Y-92303957D01*
X117584664Y-92359669D01*
X117729000Y-92378671D01*
X117873336Y-92359669D01*
X118007836Y-92303957D01*
X118123333Y-92215333D01*
X118211957Y-92099836D01*
X118267669Y-91965336D01*
X118286671Y-91821000D01*
X118267669Y-91676664D01*
X118211957Y-91542165D01*
X118123333Y-91426667D01*
X118023419Y-91350000D01*
X118007837Y-91338043D01*
X117947378Y-91313000D01*
X118822329Y-91313000D01*
X118841331Y-91457336D01*
X118897043Y-91591837D01*
X118914593Y-91614708D01*
X118985667Y-91707333D01*
X119060924Y-91765080D01*
X119101162Y-91795956D01*
X119101163Y-91795956D01*
X119101164Y-91795957D01*
X119235664Y-91851669D01*
X119380000Y-91870671D01*
X119524336Y-91851669D01*
X119658836Y-91795957D01*
X119774333Y-91707333D01*
X119862957Y-91591836D01*
X119918669Y-91457336D01*
X119937671Y-91313000D01*
X119918669Y-91168664D01*
X119862957Y-91034165D01*
X119784563Y-90931999D01*
X125318028Y-90931999D01*
X125338190Y-91059305D01*
X125396709Y-91174153D01*
X125487846Y-91265290D01*
X125487848Y-91265291D01*
X125487849Y-91265292D01*
X125602694Y-91323809D01*
X125730000Y-91343972D01*
X125857306Y-91323809D01*
X125972151Y-91265292D01*
X126063292Y-91174151D01*
X126121809Y-91059306D01*
X126141972Y-90932000D01*
X126141972Y-90931999D01*
X126588028Y-90931999D01*
X126608190Y-91059305D01*
X126666709Y-91174153D01*
X126757846Y-91265290D01*
X126757848Y-91265291D01*
X126757849Y-91265292D01*
X126872694Y-91323809D01*
X127000000Y-91343972D01*
X127127306Y-91323809D01*
X127242151Y-91265292D01*
X127333292Y-91174151D01*
X127391809Y-91059306D01*
X127411972Y-90932000D01*
X127411972Y-90931999D01*
X129128028Y-90931999D01*
X129148190Y-91059305D01*
X129206709Y-91174153D01*
X129297846Y-91265290D01*
X129297848Y-91265291D01*
X129297849Y-91265292D01*
X129412694Y-91323809D01*
X129540000Y-91343972D01*
X129667306Y-91323809D01*
X129782151Y-91265292D01*
X129873292Y-91174151D01*
X129931809Y-91059306D01*
X129951972Y-90932000D01*
X129951972Y-90931999D01*
X130398028Y-90931999D01*
X130418190Y-91059305D01*
X130476709Y-91174153D01*
X130567846Y-91265290D01*
X130567848Y-91265291D01*
X130567849Y-91265292D01*
X130682694Y-91323809D01*
X130810000Y-91343972D01*
X130937306Y-91323809D01*
X131052151Y-91265292D01*
X131143292Y-91174151D01*
X131201809Y-91059306D01*
X131221972Y-90932000D01*
X131221972Y-90931999D01*
X131668028Y-90931999D01*
X131688190Y-91059305D01*
X131746709Y-91174153D01*
X131837846Y-91265290D01*
X131837848Y-91265291D01*
X131837849Y-91265292D01*
X131952694Y-91323809D01*
X132080000Y-91343972D01*
X132207306Y-91323809D01*
X132322151Y-91265292D01*
X132413292Y-91174151D01*
X132471809Y-91059306D01*
X132491972Y-90932000D01*
X132491972Y-90931999D01*
X132938028Y-90931999D01*
X132958190Y-91059305D01*
X133016709Y-91174153D01*
X133107846Y-91265290D01*
X133107848Y-91265291D01*
X133107849Y-91265292D01*
X133222694Y-91323809D01*
X133350000Y-91343972D01*
X133477306Y-91323809D01*
X133592151Y-91265292D01*
X133683292Y-91174151D01*
X133741809Y-91059306D01*
X133761972Y-90932000D01*
X133761972Y-90931999D01*
X134208028Y-90931999D01*
X134228190Y-91059305D01*
X134286709Y-91174153D01*
X134377846Y-91265290D01*
X134377848Y-91265291D01*
X134377849Y-91265292D01*
X134492694Y-91323809D01*
X134620000Y-91343972D01*
X134747306Y-91323809D01*
X134862151Y-91265292D01*
X134953292Y-91174151D01*
X135011809Y-91059306D01*
X135031972Y-90932000D01*
X135031972Y-90931999D01*
X135478028Y-90931999D01*
X135498190Y-91059305D01*
X135556709Y-91174153D01*
X135647846Y-91265290D01*
X135647848Y-91265291D01*
X135647849Y-91265292D01*
X135762694Y-91323809D01*
X135890000Y-91343972D01*
X136017306Y-91323809D01*
X136132151Y-91265292D01*
X136211443Y-91186000D01*
X139142329Y-91186000D01*
X139152768Y-91265290D01*
X139161331Y-91330336D01*
X139217043Y-91464837D01*
X139244025Y-91500000D01*
X139305667Y-91580333D01*
X139368879Y-91628837D01*
X139421162Y-91668956D01*
X139421163Y-91668956D01*
X139421164Y-91668957D01*
X139555664Y-91724669D01*
X139700000Y-91743671D01*
X139844336Y-91724669D01*
X139978836Y-91668957D01*
X140094333Y-91580333D01*
X140155975Y-91499999D01*
X145388028Y-91499999D01*
X145408190Y-91627305D01*
X145466709Y-91742153D01*
X145557846Y-91833290D01*
X145557848Y-91833291D01*
X145557849Y-91833292D01*
X145672694Y-91891809D01*
X145800000Y-91911972D01*
X145927306Y-91891809D01*
X146042151Y-91833292D01*
X146133292Y-91742151D01*
X146191809Y-91627306D01*
X146211972Y-91500000D01*
X146211972Y-91499999D01*
X147188028Y-91499999D01*
X147208190Y-91627305D01*
X147266709Y-91742153D01*
X147357846Y-91833290D01*
X147357848Y-91833291D01*
X147357849Y-91833292D01*
X147472694Y-91891809D01*
X147600000Y-91911972D01*
X147727306Y-91891809D01*
X147842151Y-91833292D01*
X147933292Y-91742151D01*
X147991809Y-91627306D01*
X148011972Y-91500000D01*
X147991809Y-91372694D01*
X147980246Y-91350000D01*
X150692329Y-91350000D01*
X150704178Y-91440000D01*
X150711331Y-91494336D01*
X150767043Y-91628837D01*
X150791977Y-91661331D01*
X150855667Y-91744333D01*
X150923216Y-91796165D01*
X150971162Y-91832956D01*
X150971163Y-91832956D01*
X150971164Y-91832957D01*
X151105664Y-91888669D01*
X151250000Y-91907671D01*
X151394336Y-91888669D01*
X151528836Y-91832957D01*
X151644333Y-91744333D01*
X151732957Y-91628836D01*
X151788669Y-91494336D01*
X151807671Y-91350000D01*
X151788669Y-91205664D01*
X151732957Y-91071165D01*
X151678351Y-91000000D01*
X152842329Y-91000000D01*
X152861330Y-91144335D01*
X152861331Y-91144336D01*
X152917043Y-91278837D01*
X152943023Y-91312694D01*
X153005667Y-91394333D01*
X153080924Y-91452080D01*
X153121162Y-91482956D01*
X153121163Y-91482956D01*
X153121164Y-91482957D01*
X153255664Y-91538669D01*
X153400000Y-91557671D01*
X153544336Y-91538669D01*
X153678836Y-91482957D01*
X153794333Y-91394333D01*
X153882957Y-91278836D01*
X153938669Y-91144336D01*
X153957671Y-91000000D01*
X154742329Y-91000000D01*
X154761330Y-91144335D01*
X154761331Y-91144336D01*
X154817043Y-91278837D01*
X154843023Y-91312694D01*
X154905667Y-91394333D01*
X154980924Y-91452080D01*
X155021162Y-91482956D01*
X155021163Y-91482956D01*
X155021164Y-91482957D01*
X155155664Y-91538669D01*
X155300000Y-91557671D01*
X155444336Y-91538669D01*
X155578836Y-91482957D01*
X155694333Y-91394333D01*
X155756742Y-91313000D01*
X156922329Y-91313000D01*
X156941331Y-91457336D01*
X156997043Y-91591837D01*
X157014593Y-91614708D01*
X157085667Y-91707333D01*
X157160924Y-91765080D01*
X157201162Y-91795956D01*
X157201163Y-91795956D01*
X157201164Y-91795957D01*
X157335664Y-91851669D01*
X157480000Y-91870671D01*
X157624336Y-91851669D01*
X157758836Y-91795957D01*
X157874333Y-91707333D01*
X157962957Y-91591836D01*
X158018669Y-91457336D01*
X158020951Y-91439999D01*
X159836864Y-91439999D01*
X159856179Y-91710061D01*
X159913731Y-91974622D01*
X160008350Y-92228307D01*
X160138105Y-92465935D01*
X160138108Y-92465939D01*
X160273927Y-92647373D01*
X160300367Y-92682692D01*
X160491807Y-92874132D01*
X160491810Y-92874134D01*
X160491813Y-92874137D01*
X160708561Y-93036392D01*
X160708564Y-93036394D01*
X160830267Y-93102849D01*
X160946194Y-93166150D01*
X161084390Y-93217694D01*
X161199877Y-93260768D01*
X161433760Y-93311647D01*
X161446204Y-93318815D01*
X161461491Y-93317679D01*
X161464438Y-93318320D01*
X161464443Y-93318321D01*
X161734500Y-93337635D01*
X162004562Y-93318320D01*
X162173819Y-93281500D01*
X162269122Y-93260768D01*
X162269122Y-93260767D01*
X162269126Y-93260767D01*
X162522806Y-93166150D01*
X162760439Y-93036392D01*
X162977187Y-92874137D01*
X163168637Y-92682687D01*
X163330892Y-92465939D01*
X163460650Y-92228306D01*
X163555267Y-91974626D01*
X163564831Y-91930664D01*
X163586013Y-91833290D01*
X163612820Y-91710062D01*
X163623052Y-91567000D01*
X163799028Y-91567000D01*
X163819190Y-91694305D01*
X163877709Y-91809153D01*
X163968846Y-91900290D01*
X163968848Y-91900291D01*
X163968849Y-91900292D01*
X164083694Y-91958809D01*
X164211000Y-91978972D01*
X164338306Y-91958809D01*
X164453151Y-91900292D01*
X164544292Y-91809151D01*
X164602809Y-91694306D01*
X164622972Y-91567000D01*
X164602809Y-91439694D01*
X164544292Y-91324849D01*
X164544291Y-91324848D01*
X164544290Y-91324846D01*
X164453153Y-91233709D01*
X164338305Y-91175190D01*
X164211000Y-91155028D01*
X164083694Y-91175190D01*
X163968846Y-91233709D01*
X163877709Y-91324846D01*
X163819190Y-91439694D01*
X163799028Y-91567000D01*
X163623052Y-91567000D01*
X163632135Y-91440000D01*
X163612820Y-91169938D01*
X163612117Y-91166708D01*
X163555268Y-90905377D01*
X163520191Y-90811331D01*
X163460650Y-90651694D01*
X163420031Y-90577306D01*
X163330894Y-90414064D01*
X163314490Y-90392151D01*
X163168637Y-90197313D01*
X163168634Y-90197310D01*
X163168632Y-90197307D01*
X162977192Y-90005867D01*
X162963065Y-89995292D01*
X162760439Y-89843608D01*
X162760435Y-89843605D01*
X162522807Y-89713850D01*
X162269122Y-89619231D01*
X162004561Y-89561679D01*
X161734500Y-89542364D01*
X161464438Y-89561679D01*
X161199877Y-89619231D01*
X160946192Y-89713850D01*
X160708564Y-89843605D01*
X160491807Y-90005867D01*
X160300367Y-90197307D01*
X160138105Y-90414064D01*
X160008350Y-90651692D01*
X159913731Y-90905377D01*
X159856179Y-91169938D01*
X159836864Y-91439999D01*
X158020951Y-91439999D01*
X158037671Y-91313000D01*
X158018669Y-91168664D01*
X157962957Y-91034165D01*
X157874333Y-90918667D01*
X157800447Y-90861972D01*
X157758837Y-90830043D01*
X157624336Y-90774331D01*
X157480000Y-90755329D01*
X157335664Y-90774331D01*
X157201164Y-90830043D01*
X157085667Y-90918667D01*
X156997043Y-91034164D01*
X156941331Y-91168664D01*
X156922329Y-91313000D01*
X155756742Y-91313000D01*
X155782957Y-91278836D01*
X155838669Y-91144336D01*
X155857671Y-91000000D01*
X155838669Y-90855664D01*
X155782957Y-90721165D01*
X155694333Y-90605667D01*
X155611112Y-90541809D01*
X155578837Y-90517043D01*
X155444336Y-90461331D01*
X155358268Y-90450000D01*
X158188028Y-90450000D01*
X158189260Y-90457778D01*
X158208190Y-90577305D01*
X158266709Y-90692153D01*
X158357846Y-90783290D01*
X158357848Y-90783291D01*
X158357849Y-90783292D01*
X158472694Y-90841809D01*
X158600000Y-90861972D01*
X158727306Y-90841809D01*
X158842151Y-90783292D01*
X158933292Y-90692151D01*
X158991809Y-90577306D01*
X159011972Y-90450000D01*
X158991809Y-90322694D01*
X158933292Y-90207849D01*
X158933291Y-90207848D01*
X158933290Y-90207846D01*
X158842153Y-90116709D01*
X158727305Y-90058190D01*
X158600000Y-90038028D01*
X158472694Y-90058190D01*
X158357846Y-90116709D01*
X158266709Y-90207846D01*
X158208190Y-90322694D01*
X158192194Y-90423694D01*
X158188028Y-90450000D01*
X155358268Y-90450000D01*
X155300000Y-90442329D01*
X155155664Y-90461331D01*
X155021164Y-90517043D01*
X154905667Y-90605667D01*
X154817043Y-90721164D01*
X154771944Y-90830043D01*
X154761331Y-90855664D01*
X154742329Y-91000000D01*
X153957671Y-91000000D01*
X153938669Y-90855664D01*
X153882957Y-90721165D01*
X153794333Y-90605667D01*
X153711112Y-90541809D01*
X153678837Y-90517043D01*
X153544336Y-90461331D01*
X153400000Y-90442329D01*
X153255664Y-90461331D01*
X153121164Y-90517043D01*
X153005667Y-90605667D01*
X152917043Y-90721164D01*
X152871944Y-90830043D01*
X152861331Y-90855664D01*
X152842329Y-91000000D01*
X151678351Y-91000000D01*
X151644333Y-90955667D01*
X151578790Y-90905374D01*
X151528837Y-90867043D01*
X151394336Y-90811331D01*
X151250000Y-90792329D01*
X151105664Y-90811331D01*
X150971164Y-90867043D01*
X150855667Y-90955667D01*
X150767043Y-91071164D01*
X150711331Y-91205664D01*
X150693123Y-91343972D01*
X150692329Y-91350000D01*
X147980246Y-91350000D01*
X147933292Y-91257849D01*
X147933291Y-91257848D01*
X147933290Y-91257846D01*
X147842153Y-91166709D01*
X147727305Y-91108190D01*
X147600000Y-91088028D01*
X147472694Y-91108190D01*
X147357846Y-91166709D01*
X147266709Y-91257846D01*
X147208190Y-91372694D01*
X147188028Y-91499999D01*
X146211972Y-91499999D01*
X146191809Y-91372694D01*
X146133292Y-91257849D01*
X146133291Y-91257848D01*
X146133290Y-91257846D01*
X146042153Y-91166709D01*
X145927305Y-91108190D01*
X145800000Y-91088028D01*
X145672694Y-91108190D01*
X145557846Y-91166709D01*
X145466709Y-91257846D01*
X145408190Y-91372694D01*
X145388028Y-91499999D01*
X140155975Y-91499999D01*
X140182957Y-91464836D01*
X140238669Y-91330336D01*
X140257671Y-91186000D01*
X140238669Y-91041664D01*
X140182957Y-90907165D01*
X140094333Y-90791667D01*
X140036584Y-90747355D01*
X139978837Y-90703043D01*
X139844336Y-90647331D01*
X139700000Y-90628329D01*
X139555664Y-90647331D01*
X139421164Y-90703043D01*
X139305667Y-90791667D01*
X139217043Y-90907164D01*
X139161331Y-91041664D01*
X139144444Y-91169938D01*
X139142329Y-91186000D01*
X136211443Y-91186000D01*
X136223292Y-91174151D01*
X136281809Y-91059306D01*
X136301972Y-90932000D01*
X136281809Y-90804694D01*
X136223292Y-90689849D01*
X136223291Y-90689848D01*
X136223290Y-90689846D01*
X136132153Y-90598709D01*
X136017305Y-90540190D01*
X135890000Y-90520028D01*
X135762694Y-90540190D01*
X135647846Y-90598709D01*
X135556709Y-90689846D01*
X135498190Y-90804694D01*
X135478028Y-90931999D01*
X135031972Y-90931999D01*
X135011809Y-90804694D01*
X134953292Y-90689849D01*
X134953291Y-90689848D01*
X134953290Y-90689846D01*
X134862153Y-90598709D01*
X134747305Y-90540190D01*
X134620000Y-90520028D01*
X134492694Y-90540190D01*
X134377846Y-90598709D01*
X134286709Y-90689846D01*
X134228190Y-90804694D01*
X134208028Y-90931999D01*
X133761972Y-90931999D01*
X133741809Y-90804694D01*
X133683292Y-90689849D01*
X133683291Y-90689848D01*
X133683290Y-90689846D01*
X133592153Y-90598709D01*
X133477305Y-90540190D01*
X133350000Y-90520028D01*
X133222694Y-90540190D01*
X133107846Y-90598709D01*
X133016709Y-90689846D01*
X132958190Y-90804694D01*
X132938028Y-90931999D01*
X132491972Y-90931999D01*
X132471809Y-90804694D01*
X132413292Y-90689849D01*
X132413291Y-90689848D01*
X132413290Y-90689846D01*
X132322153Y-90598709D01*
X132207305Y-90540190D01*
X132080000Y-90520028D01*
X131952694Y-90540190D01*
X131837846Y-90598709D01*
X131746709Y-90689846D01*
X131688190Y-90804694D01*
X131668028Y-90931999D01*
X131221972Y-90931999D01*
X131201809Y-90804694D01*
X131143292Y-90689849D01*
X131143291Y-90689848D01*
X131143290Y-90689846D01*
X131052153Y-90598709D01*
X130937305Y-90540190D01*
X130810000Y-90520028D01*
X130682694Y-90540190D01*
X130567846Y-90598709D01*
X130476709Y-90689846D01*
X130418190Y-90804694D01*
X130398028Y-90931999D01*
X129951972Y-90931999D01*
X129931809Y-90804694D01*
X129873292Y-90689849D01*
X129873291Y-90689848D01*
X129873290Y-90689846D01*
X129782153Y-90598709D01*
X129667305Y-90540190D01*
X129540000Y-90520028D01*
X129412694Y-90540190D01*
X129297846Y-90598709D01*
X129206709Y-90689846D01*
X129148190Y-90804694D01*
X129128028Y-90931999D01*
X127411972Y-90931999D01*
X127391809Y-90804694D01*
X127333292Y-90689849D01*
X127333291Y-90689848D01*
X127333290Y-90689846D01*
X127242153Y-90598709D01*
X127127305Y-90540190D01*
X127000000Y-90520028D01*
X126872694Y-90540190D01*
X126757846Y-90598709D01*
X126666709Y-90689846D01*
X126608190Y-90804694D01*
X126588028Y-90931999D01*
X126141972Y-90931999D01*
X126121809Y-90804694D01*
X126063292Y-90689849D01*
X126063291Y-90689848D01*
X126063290Y-90689846D01*
X125972153Y-90598709D01*
X125857305Y-90540190D01*
X125730000Y-90520028D01*
X125602694Y-90540190D01*
X125487846Y-90598709D01*
X125396709Y-90689846D01*
X125338190Y-90804694D01*
X125318028Y-90931999D01*
X119784563Y-90931999D01*
X119774333Y-90918667D01*
X119700447Y-90861972D01*
X119658837Y-90830043D01*
X119524336Y-90774331D01*
X119380000Y-90755329D01*
X119235664Y-90774331D01*
X119101164Y-90830043D01*
X118985667Y-90918667D01*
X118897043Y-91034164D01*
X118841331Y-91168664D01*
X118822329Y-91313000D01*
X117947378Y-91313000D01*
X117873336Y-91282331D01*
X117729000Y-91263329D01*
X117584664Y-91282331D01*
X117450164Y-91338043D01*
X117334667Y-91426667D01*
X117246043Y-91542164D01*
X117190331Y-91676664D01*
X117171329Y-91821000D01*
X115326857Y-91821000D01*
X115326809Y-91820694D01*
X115268292Y-91705849D01*
X115268291Y-91705848D01*
X115268290Y-91705846D01*
X115177153Y-91614709D01*
X115062305Y-91556190D01*
X114935000Y-91536028D01*
X114807694Y-91556190D01*
X114692846Y-91614709D01*
X114601709Y-91705846D01*
X114543190Y-91820694D01*
X114523028Y-91948000D01*
X113822972Y-91948000D01*
X113802809Y-91820694D01*
X113744292Y-91705849D01*
X113744291Y-91705848D01*
X113744290Y-91705846D01*
X113653153Y-91614709D01*
X113538305Y-91556190D01*
X113411000Y-91536028D01*
X113283694Y-91556190D01*
X113168846Y-91614709D01*
X113077709Y-91705846D01*
X113019190Y-91820694D01*
X112999028Y-91948000D01*
X107347951Y-91948000D01*
X107345669Y-91930664D01*
X107289957Y-91796165D01*
X107201333Y-91680667D01*
X107131792Y-91627306D01*
X107085837Y-91592043D01*
X106951336Y-91536331D01*
X106807000Y-91517329D01*
X106662664Y-91536331D01*
X106528164Y-91592043D01*
X106412667Y-91680667D01*
X106324043Y-91796164D01*
X106268331Y-91930664D01*
X106251875Y-92055664D01*
X106249329Y-92075000D01*
X84224564Y-92075000D01*
X84214333Y-92061667D01*
X84156584Y-92017354D01*
X84098837Y-91973043D01*
X83964336Y-91917331D01*
X83820000Y-91898329D01*
X83675664Y-91917331D01*
X83541164Y-91973043D01*
X83425667Y-92061667D01*
X83337043Y-92177164D01*
X83281331Y-92311664D01*
X83262329Y-92456000D01*
X81167319Y-92456000D01*
X81291650Y-92228306D01*
X81386267Y-91974626D01*
X81395831Y-91930664D01*
X81417013Y-91833290D01*
X81443820Y-91710062D01*
X81463135Y-91440000D01*
X81454052Y-91313000D01*
X84532329Y-91313000D01*
X84551331Y-91457336D01*
X84607043Y-91591837D01*
X84624593Y-91614708D01*
X84695667Y-91707333D01*
X84770924Y-91765080D01*
X84811162Y-91795956D01*
X84811163Y-91795956D01*
X84811164Y-91795957D01*
X84945664Y-91851669D01*
X85090000Y-91870671D01*
X85234336Y-91851669D01*
X85368836Y-91795957D01*
X85484333Y-91707333D01*
X85572957Y-91591836D01*
X85628669Y-91457336D01*
X85647671Y-91313000D01*
X85628669Y-91168664D01*
X85572957Y-91034165D01*
X85494564Y-90932000D01*
X94838028Y-90932000D01*
X94858190Y-91059305D01*
X94916709Y-91174153D01*
X95007846Y-91265290D01*
X95007848Y-91265291D01*
X95007849Y-91265292D01*
X95122694Y-91323809D01*
X95250000Y-91343972D01*
X95377306Y-91323809D01*
X95492151Y-91265292D01*
X95583292Y-91174151D01*
X95641809Y-91059306D01*
X95661972Y-90932000D01*
X96108028Y-90932000D01*
X96128190Y-91059305D01*
X96186709Y-91174153D01*
X96277846Y-91265290D01*
X96277848Y-91265291D01*
X96277849Y-91265292D01*
X96392694Y-91323809D01*
X96520000Y-91343972D01*
X96647306Y-91323809D01*
X96762151Y-91265292D01*
X96853292Y-91174151D01*
X96911809Y-91059306D01*
X96931972Y-90932000D01*
X97378028Y-90932000D01*
X97398190Y-91059305D01*
X97456709Y-91174153D01*
X97547846Y-91265290D01*
X97547848Y-91265291D01*
X97547849Y-91265292D01*
X97662694Y-91323809D01*
X97790000Y-91343972D01*
X97917306Y-91323809D01*
X98032151Y-91265292D01*
X98123292Y-91174151D01*
X98181809Y-91059306D01*
X98201972Y-90932000D01*
X98648028Y-90932000D01*
X98668190Y-91059305D01*
X98726709Y-91174153D01*
X98817846Y-91265290D01*
X98817848Y-91265291D01*
X98817849Y-91265292D01*
X98932694Y-91323809D01*
X99060000Y-91343972D01*
X99187306Y-91323809D01*
X99302151Y-91265292D01*
X99393292Y-91174151D01*
X99451809Y-91059306D01*
X99471972Y-90932000D01*
X99918028Y-90932000D01*
X99938190Y-91059305D01*
X99996709Y-91174153D01*
X100087846Y-91265290D01*
X100087848Y-91265291D01*
X100087849Y-91265292D01*
X100202694Y-91323809D01*
X100330000Y-91343972D01*
X100457306Y-91323809D01*
X100572151Y-91265292D01*
X100663292Y-91174151D01*
X100721809Y-91059306D01*
X100741972Y-90932000D01*
X101188028Y-90932000D01*
X101208190Y-91059305D01*
X101266709Y-91174153D01*
X101357846Y-91265290D01*
X101357848Y-91265291D01*
X101357849Y-91265292D01*
X101472694Y-91323809D01*
X101600000Y-91343972D01*
X101727306Y-91323809D01*
X101748520Y-91313000D01*
X104852329Y-91313000D01*
X104871331Y-91457336D01*
X104927043Y-91591837D01*
X104944593Y-91614708D01*
X105015667Y-91707333D01*
X105090924Y-91765080D01*
X105131162Y-91795956D01*
X105131163Y-91795956D01*
X105131164Y-91795957D01*
X105265664Y-91851669D01*
X105410000Y-91870671D01*
X105554336Y-91851669D01*
X105688836Y-91795957D01*
X105804333Y-91707333D01*
X105892957Y-91591836D01*
X105948669Y-91457336D01*
X105967671Y-91313000D01*
X105948669Y-91168664D01*
X105892957Y-91034165D01*
X105804333Y-90918667D01*
X105730447Y-90861972D01*
X105688837Y-90830043D01*
X105554336Y-90774331D01*
X105410000Y-90755329D01*
X105265664Y-90774331D01*
X105131164Y-90830043D01*
X105015667Y-90918667D01*
X104927043Y-91034164D01*
X104871331Y-91168664D01*
X104852329Y-91313000D01*
X101748520Y-91313000D01*
X101842151Y-91265292D01*
X101933292Y-91174151D01*
X101991809Y-91059306D01*
X102011972Y-90932000D01*
X101991809Y-90804694D01*
X101933292Y-90689849D01*
X101933291Y-90689848D01*
X101933290Y-90689846D01*
X101842153Y-90598709D01*
X101748520Y-90551000D01*
X111602028Y-90551000D01*
X111622190Y-90678305D01*
X111680709Y-90793153D01*
X111771846Y-90884290D01*
X111771848Y-90884291D01*
X111771849Y-90884292D01*
X111886694Y-90942809D01*
X112014000Y-90962972D01*
X112141306Y-90942809D01*
X112256151Y-90884292D01*
X112347292Y-90793151D01*
X112405809Y-90678306D01*
X112425972Y-90551000D01*
X112405809Y-90423694D01*
X112347292Y-90308849D01*
X112347291Y-90308848D01*
X112347290Y-90308846D01*
X112256153Y-90217709D01*
X112141305Y-90159190D01*
X112083272Y-90149999D01*
X146388028Y-90149999D01*
X146408190Y-90277305D01*
X146466709Y-90392153D01*
X146557846Y-90483290D01*
X146557848Y-90483291D01*
X146557849Y-90483292D01*
X146672694Y-90541809D01*
X146800000Y-90561972D01*
X146927306Y-90541809D01*
X147042151Y-90483292D01*
X147133292Y-90392151D01*
X147191809Y-90277306D01*
X147211972Y-90150000D01*
X147191809Y-90022694D01*
X147133292Y-89907849D01*
X147133291Y-89907848D01*
X147133290Y-89907846D01*
X147042153Y-89816709D01*
X146927305Y-89758190D01*
X146800000Y-89738028D01*
X146672694Y-89758190D01*
X146557846Y-89816709D01*
X146466709Y-89907846D01*
X146408190Y-90022694D01*
X146388028Y-90149999D01*
X112083272Y-90149999D01*
X112014000Y-90139028D01*
X111886694Y-90159190D01*
X111771846Y-90217709D01*
X111680709Y-90308846D01*
X111622190Y-90423694D01*
X111602028Y-90551000D01*
X101748520Y-90551000D01*
X101727305Y-90540190D01*
X101600000Y-90520028D01*
X101472694Y-90540190D01*
X101357846Y-90598709D01*
X101266709Y-90689846D01*
X101208190Y-90804694D01*
X101188028Y-90932000D01*
X100741972Y-90932000D01*
X100721809Y-90804694D01*
X100663292Y-90689849D01*
X100663291Y-90689848D01*
X100663290Y-90689846D01*
X100572153Y-90598709D01*
X100457305Y-90540190D01*
X100330000Y-90520028D01*
X100202694Y-90540190D01*
X100087846Y-90598709D01*
X99996709Y-90689846D01*
X99938190Y-90804694D01*
X99918028Y-90932000D01*
X99471972Y-90932000D01*
X99451809Y-90804694D01*
X99393292Y-90689849D01*
X99393291Y-90689848D01*
X99393290Y-90689846D01*
X99302153Y-90598709D01*
X99187305Y-90540190D01*
X99060000Y-90520028D01*
X98932694Y-90540190D01*
X98817846Y-90598709D01*
X98726709Y-90689846D01*
X98668190Y-90804694D01*
X98648028Y-90932000D01*
X98201972Y-90932000D01*
X98181809Y-90804694D01*
X98123292Y-90689849D01*
X98123291Y-90689848D01*
X98123290Y-90689846D01*
X98032153Y-90598709D01*
X97917305Y-90540190D01*
X97790000Y-90520028D01*
X97662694Y-90540190D01*
X97547846Y-90598709D01*
X97456709Y-90689846D01*
X97398190Y-90804694D01*
X97378028Y-90932000D01*
X96931972Y-90932000D01*
X96911809Y-90804694D01*
X96853292Y-90689849D01*
X96853291Y-90689848D01*
X96853290Y-90689846D01*
X96762153Y-90598709D01*
X96647305Y-90540190D01*
X96520000Y-90520028D01*
X96392694Y-90540190D01*
X96277846Y-90598709D01*
X96186709Y-90689846D01*
X96128190Y-90804694D01*
X96108028Y-90932000D01*
X95661972Y-90932000D01*
X95641809Y-90804694D01*
X95583292Y-90689849D01*
X95583291Y-90689848D01*
X95583290Y-90689846D01*
X95492153Y-90598709D01*
X95377305Y-90540190D01*
X95250000Y-90520028D01*
X95122694Y-90540190D01*
X95007846Y-90598709D01*
X94916709Y-90689846D01*
X94858190Y-90804694D01*
X94838028Y-90932000D01*
X85494564Y-90932000D01*
X85484333Y-90918667D01*
X85410447Y-90861972D01*
X85368837Y-90830043D01*
X85234336Y-90774331D01*
X85090000Y-90755329D01*
X84945664Y-90774331D01*
X84811164Y-90830043D01*
X84695667Y-90918667D01*
X84607043Y-91034164D01*
X84551331Y-91168664D01*
X84532329Y-91313000D01*
X81454052Y-91313000D01*
X81443820Y-91169938D01*
X81443117Y-91166708D01*
X81386268Y-90905377D01*
X81351191Y-90811331D01*
X81291650Y-90651694D01*
X81251031Y-90577306D01*
X81161894Y-90414064D01*
X81145490Y-90392151D01*
X80999637Y-90197313D01*
X80999634Y-90197310D01*
X80999632Y-90197307D01*
X80845324Y-90042999D01*
X87218028Y-90042999D01*
X87238190Y-90170305D01*
X87296709Y-90285153D01*
X87387846Y-90376290D01*
X87387848Y-90376291D01*
X87387849Y-90376292D01*
X87502694Y-90434809D01*
X87630000Y-90454972D01*
X87757306Y-90434809D01*
X87872151Y-90376292D01*
X87963292Y-90285151D01*
X88021809Y-90170306D01*
X88041972Y-90043000D01*
X88041972Y-90042999D01*
X88488028Y-90042999D01*
X88508190Y-90170305D01*
X88566709Y-90285153D01*
X88657846Y-90376290D01*
X88657848Y-90376291D01*
X88657849Y-90376292D01*
X88772694Y-90434809D01*
X88900000Y-90454972D01*
X89027306Y-90434809D01*
X89142151Y-90376292D01*
X89233292Y-90285151D01*
X89291809Y-90170306D01*
X89311972Y-90043000D01*
X89311972Y-90042999D01*
X89758028Y-90042999D01*
X89778190Y-90170305D01*
X89836709Y-90285153D01*
X89927846Y-90376290D01*
X89927848Y-90376291D01*
X89927849Y-90376292D01*
X90042694Y-90434809D01*
X90170000Y-90454972D01*
X90297306Y-90434809D01*
X90412151Y-90376292D01*
X90503292Y-90285151D01*
X90561809Y-90170306D01*
X90581972Y-90043000D01*
X90561809Y-89915694D01*
X90503292Y-89800849D01*
X90503291Y-89800848D01*
X90503290Y-89800846D01*
X90412153Y-89709709D01*
X90318520Y-89662000D01*
X91536028Y-89662000D01*
X91556190Y-89789305D01*
X91614709Y-89904153D01*
X91705846Y-89995290D01*
X91705848Y-89995291D01*
X91705849Y-89995292D01*
X91820694Y-90053809D01*
X91948000Y-90073972D01*
X92075306Y-90053809D01*
X92190151Y-89995292D01*
X92281292Y-89904151D01*
X92339809Y-89789306D01*
X92359972Y-89662000D01*
X92339809Y-89534694D01*
X92281292Y-89419849D01*
X92281291Y-89419848D01*
X92281290Y-89419846D01*
X92269443Y-89407999D01*
X103601028Y-89407999D01*
X103621190Y-89535305D01*
X103679709Y-89650153D01*
X103770846Y-89741290D01*
X103770848Y-89741291D01*
X103770849Y-89741292D01*
X103885694Y-89799809D01*
X104013000Y-89819972D01*
X104140306Y-89799809D01*
X104255151Y-89741292D01*
X104346292Y-89650151D01*
X104404809Y-89535306D01*
X104424972Y-89408000D01*
X104424972Y-89407999D01*
X111983028Y-89407999D01*
X112003190Y-89535305D01*
X112061709Y-89650153D01*
X112152846Y-89741290D01*
X112152848Y-89741291D01*
X112152849Y-89741292D01*
X112267694Y-89799809D01*
X112395000Y-89819972D01*
X112522306Y-89799809D01*
X112637151Y-89741292D01*
X112728292Y-89650151D01*
X112786809Y-89535306D01*
X112806972Y-89408000D01*
X112806972Y-89407999D01*
X119222028Y-89407999D01*
X119242190Y-89535305D01*
X119300709Y-89650153D01*
X119391846Y-89741290D01*
X119391848Y-89741291D01*
X119391849Y-89741292D01*
X119506694Y-89799809D01*
X119634000Y-89819972D01*
X119761306Y-89799809D01*
X119876151Y-89741292D01*
X119967292Y-89650151D01*
X119993610Y-89598500D01*
X125826028Y-89598500D01*
X125846190Y-89725805D01*
X125904709Y-89840653D01*
X125995846Y-89931790D01*
X125995848Y-89931791D01*
X125995849Y-89931792D01*
X126110694Y-89990309D01*
X126238000Y-90010472D01*
X126365306Y-89990309D01*
X126480151Y-89931792D01*
X126571292Y-89840651D01*
X126629809Y-89725806D01*
X126649972Y-89598500D01*
X126629809Y-89471194D01*
X126619010Y-89450000D01*
X147742443Y-89450000D01*
X147760977Y-89578910D01*
X147815078Y-89697373D01*
X147815079Y-89697374D01*
X147900364Y-89795799D01*
X148009924Y-89866208D01*
X148134883Y-89902900D01*
X148265116Y-89902900D01*
X148265117Y-89902900D01*
X148390076Y-89866208D01*
X148499636Y-89795799D01*
X148584921Y-89697374D01*
X148639023Y-89578909D01*
X148657557Y-89450000D01*
X148639023Y-89321091D01*
X148584921Y-89202626D01*
X148499636Y-89104201D01*
X148415296Y-89050000D01*
X153092443Y-89050000D01*
X153110977Y-89178910D01*
X153165078Y-89297373D01*
X153165079Y-89297374D01*
X153250364Y-89395799D01*
X153359924Y-89466208D01*
X153484883Y-89502900D01*
X153615116Y-89502900D01*
X153615117Y-89502900D01*
X153740076Y-89466208D01*
X153849636Y-89395799D01*
X153934921Y-89297374D01*
X153989023Y-89178909D01*
X154000368Y-89100000D01*
X155342443Y-89100000D01*
X155360977Y-89228910D01*
X155415078Y-89347373D01*
X155415079Y-89347374D01*
X155500364Y-89445799D01*
X155609924Y-89516208D01*
X155734883Y-89552900D01*
X155865116Y-89552900D01*
X155865117Y-89552900D01*
X155990076Y-89516208D01*
X156099636Y-89445799D01*
X156184921Y-89347374D01*
X156229391Y-89250000D01*
X158038028Y-89250000D01*
X158058190Y-89377305D01*
X158116709Y-89492153D01*
X158207846Y-89583290D01*
X158207848Y-89583291D01*
X158207849Y-89583292D01*
X158322694Y-89641809D01*
X158450000Y-89661972D01*
X158577306Y-89641809D01*
X158692151Y-89583292D01*
X158783292Y-89492151D01*
X158841809Y-89377306D01*
X158861972Y-89250000D01*
X158841809Y-89122694D01*
X158783292Y-89007849D01*
X158783291Y-89007848D01*
X158783290Y-89007846D01*
X158692153Y-88916709D01*
X158577305Y-88858190D01*
X158450000Y-88838028D01*
X158322694Y-88858190D01*
X158207846Y-88916709D01*
X158116709Y-89007846D01*
X158058190Y-89122694D01*
X158038028Y-89250000D01*
X156229391Y-89250000D01*
X156239023Y-89228909D01*
X156257557Y-89100000D01*
X156239023Y-88971091D01*
X156184921Y-88852626D01*
X156099636Y-88754201D01*
X155990076Y-88683792D01*
X155990075Y-88683791D01*
X155990074Y-88683791D01*
X155901724Y-88657849D01*
X155865117Y-88647100D01*
X155734883Y-88647100D01*
X155698286Y-88657846D01*
X155609925Y-88683791D01*
X155578165Y-88704202D01*
X155500364Y-88754201D01*
X155500363Y-88754201D01*
X155500363Y-88754202D01*
X155415078Y-88852626D01*
X155360977Y-88971089D01*
X155342443Y-89100000D01*
X154000368Y-89100000D01*
X154007557Y-89050000D01*
X153989023Y-88921091D01*
X153934921Y-88802626D01*
X153849636Y-88704201D01*
X153740076Y-88633792D01*
X153740075Y-88633791D01*
X153740074Y-88633791D01*
X153667060Y-88612352D01*
X153615117Y-88597100D01*
X153484883Y-88597100D01*
X153448192Y-88607873D01*
X153359925Y-88633791D01*
X153359365Y-88634151D01*
X153250364Y-88704201D01*
X153250363Y-88704201D01*
X153250363Y-88704202D01*
X153165078Y-88802626D01*
X153110977Y-88921089D01*
X153092443Y-89050000D01*
X148415296Y-89050000D01*
X148390076Y-89033792D01*
X148390075Y-89033791D01*
X148390074Y-89033791D01*
X148301724Y-89007849D01*
X148265117Y-88997100D01*
X148134883Y-88997100D01*
X148098286Y-89007846D01*
X148009925Y-89033791D01*
X147955144Y-89068996D01*
X147900364Y-89104201D01*
X147900363Y-89104201D01*
X147900363Y-89104202D01*
X147815078Y-89202626D01*
X147760977Y-89321089D01*
X147742443Y-89450000D01*
X126619010Y-89450000D01*
X126571292Y-89356349D01*
X126571291Y-89356348D01*
X126571290Y-89356346D01*
X126480153Y-89265209D01*
X126365305Y-89206690D01*
X126238000Y-89186528D01*
X126110694Y-89206690D01*
X125995846Y-89265209D01*
X125904709Y-89356346D01*
X125846190Y-89471194D01*
X125826028Y-89598500D01*
X119993610Y-89598500D01*
X120025809Y-89535306D01*
X120045972Y-89408000D01*
X120025809Y-89280694D01*
X119967292Y-89165849D01*
X119967291Y-89165848D01*
X119967290Y-89165846D01*
X119876153Y-89074709D01*
X119761305Y-89016190D01*
X119634000Y-88996028D01*
X119506694Y-89016190D01*
X119391846Y-89074709D01*
X119300709Y-89165846D01*
X119242190Y-89280694D01*
X119222028Y-89407999D01*
X112806972Y-89407999D01*
X112786809Y-89280694D01*
X112728292Y-89165849D01*
X112728291Y-89165848D01*
X112728290Y-89165846D01*
X112637153Y-89074709D01*
X112522305Y-89016190D01*
X112395000Y-88996028D01*
X112267694Y-89016190D01*
X112152846Y-89074709D01*
X112061709Y-89165846D01*
X112003190Y-89280694D01*
X111983028Y-89407999D01*
X104424972Y-89407999D01*
X104404809Y-89280694D01*
X104346292Y-89165849D01*
X104346291Y-89165848D01*
X104346290Y-89165846D01*
X104255153Y-89074709D01*
X104140305Y-89016190D01*
X104013000Y-88996028D01*
X103885694Y-89016190D01*
X103770846Y-89074709D01*
X103679709Y-89165846D01*
X103621190Y-89280694D01*
X103601028Y-89407999D01*
X92269443Y-89407999D01*
X92190153Y-89328709D01*
X92075305Y-89270190D01*
X91948000Y-89250028D01*
X91820694Y-89270190D01*
X91705846Y-89328709D01*
X91614709Y-89419846D01*
X91556190Y-89534694D01*
X91536028Y-89662000D01*
X90318520Y-89662000D01*
X90297305Y-89651190D01*
X90170000Y-89631028D01*
X90042694Y-89651190D01*
X89927846Y-89709709D01*
X89836709Y-89800846D01*
X89778190Y-89915694D01*
X89758028Y-90042999D01*
X89311972Y-90042999D01*
X89291809Y-89915694D01*
X89233292Y-89800849D01*
X89233291Y-89800848D01*
X89233290Y-89800846D01*
X89142153Y-89709709D01*
X89027305Y-89651190D01*
X88900000Y-89631028D01*
X88772694Y-89651190D01*
X88657846Y-89709709D01*
X88566709Y-89800846D01*
X88508190Y-89915694D01*
X88488028Y-90042999D01*
X88041972Y-90042999D01*
X88021809Y-89915694D01*
X87963292Y-89800849D01*
X87963291Y-89800848D01*
X87963290Y-89800846D01*
X87872153Y-89709709D01*
X87757305Y-89651190D01*
X87630000Y-89631028D01*
X87502694Y-89651190D01*
X87387846Y-89709709D01*
X87296709Y-89800846D01*
X87238190Y-89915694D01*
X87218028Y-90042999D01*
X80845324Y-90042999D01*
X80808192Y-90005867D01*
X80794065Y-89995292D01*
X80591439Y-89843608D01*
X80591435Y-89843605D01*
X80353807Y-89713850D01*
X80100122Y-89619231D01*
X79835561Y-89561679D01*
X79565500Y-89542364D01*
X79295438Y-89561679D01*
X79030877Y-89619231D01*
X78777192Y-89713850D01*
X78539564Y-89843605D01*
X78322807Y-90005867D01*
X78131367Y-90197307D01*
X77969105Y-90414064D01*
X77839350Y-90651692D01*
X77744731Y-90905377D01*
X77687179Y-91169938D01*
X77667864Y-91440000D01*
X77500972Y-91440000D01*
X77480809Y-91312694D01*
X77422292Y-91197849D01*
X77422291Y-91197848D01*
X77422290Y-91197846D01*
X77331153Y-91106709D01*
X77216305Y-91048190D01*
X77089000Y-91028028D01*
X76961694Y-91048190D01*
X76846846Y-91106709D01*
X76755709Y-91197846D01*
X76697190Y-91312694D01*
X76677028Y-91439999D01*
X76505300Y-91439999D01*
X76505300Y-88900000D01*
X79471028Y-88900000D01*
X79491190Y-89027305D01*
X79549709Y-89142153D01*
X79640846Y-89233290D01*
X79640848Y-89233291D01*
X79640849Y-89233292D01*
X79755694Y-89291809D01*
X79883000Y-89311972D01*
X80010306Y-89291809D01*
X80125151Y-89233292D01*
X80216292Y-89142151D01*
X80274809Y-89027306D01*
X80294972Y-88900000D01*
X140538028Y-88900000D01*
X140558190Y-89027305D01*
X140616709Y-89142153D01*
X140707846Y-89233290D01*
X140707848Y-89233291D01*
X140707849Y-89233292D01*
X140822694Y-89291809D01*
X140950000Y-89311972D01*
X141077306Y-89291809D01*
X141192151Y-89233292D01*
X141283292Y-89142151D01*
X141341809Y-89027306D01*
X141361972Y-88900000D01*
X141341809Y-88772694D01*
X141283292Y-88657849D01*
X141283291Y-88657848D01*
X141283290Y-88657846D01*
X141192153Y-88566709D01*
X141077305Y-88508190D01*
X140950000Y-88488028D01*
X140822694Y-88508190D01*
X140707846Y-88566709D01*
X140616709Y-88657846D01*
X140558190Y-88772694D01*
X140538028Y-88900000D01*
X80294972Y-88900000D01*
X80274809Y-88772694D01*
X80216292Y-88657849D01*
X80216291Y-88657848D01*
X80216290Y-88657846D01*
X80125153Y-88566709D01*
X80010305Y-88508190D01*
X79883000Y-88488028D01*
X79755694Y-88508190D01*
X79640846Y-88566709D01*
X79549709Y-88657846D01*
X79491190Y-88772694D01*
X79471028Y-88900000D01*
X76505300Y-88900000D01*
X76505300Y-88392000D01*
X91028028Y-88392000D01*
X91048190Y-88519305D01*
X91106709Y-88634153D01*
X91197846Y-88725290D01*
X91197848Y-88725291D01*
X91197849Y-88725292D01*
X91312694Y-88783809D01*
X91440000Y-88803972D01*
X91567306Y-88783809D01*
X91682151Y-88725292D01*
X91773292Y-88634151D01*
X91831809Y-88519306D01*
X91851972Y-88392000D01*
X93568028Y-88392000D01*
X93588190Y-88519305D01*
X93646709Y-88634153D01*
X93737846Y-88725290D01*
X93737848Y-88725291D01*
X93737849Y-88725292D01*
X93852694Y-88783809D01*
X93980000Y-88803972D01*
X94107306Y-88783809D01*
X94222151Y-88725292D01*
X94313292Y-88634151D01*
X94371809Y-88519306D01*
X94391972Y-88392000D01*
X96108028Y-88392000D01*
X96128190Y-88519305D01*
X96186709Y-88634153D01*
X96277846Y-88725290D01*
X96277848Y-88725291D01*
X96277849Y-88725292D01*
X96392694Y-88783809D01*
X96520000Y-88803972D01*
X96647306Y-88783809D01*
X96762151Y-88725292D01*
X96853292Y-88634151D01*
X96911809Y-88519306D01*
X96931972Y-88392000D01*
X97378028Y-88392000D01*
X97398190Y-88519305D01*
X97456709Y-88634153D01*
X97547846Y-88725290D01*
X97547848Y-88725291D01*
X97547849Y-88725292D01*
X97662694Y-88783809D01*
X97790000Y-88803972D01*
X97917306Y-88783809D01*
X98032151Y-88725292D01*
X98123292Y-88634151D01*
X98181809Y-88519306D01*
X98201972Y-88392000D01*
X98648028Y-88392000D01*
X98668190Y-88519305D01*
X98726709Y-88634153D01*
X98817846Y-88725290D01*
X98817848Y-88725291D01*
X98817849Y-88725292D01*
X98932694Y-88783809D01*
X99060000Y-88803972D01*
X99187306Y-88783809D01*
X99302151Y-88725292D01*
X99393292Y-88634151D01*
X99451809Y-88519306D01*
X99471972Y-88392000D01*
X99918028Y-88392000D01*
X99938190Y-88519305D01*
X99996709Y-88634153D01*
X100087846Y-88725290D01*
X100087848Y-88725291D01*
X100087849Y-88725292D01*
X100202694Y-88783809D01*
X100330000Y-88803972D01*
X100457306Y-88783809D01*
X100572151Y-88725292D01*
X100663292Y-88634151D01*
X100721809Y-88519306D01*
X100741972Y-88392000D01*
X101188028Y-88392000D01*
X101208190Y-88519305D01*
X101266709Y-88634153D01*
X101357846Y-88725290D01*
X101357848Y-88725291D01*
X101357849Y-88725292D01*
X101472694Y-88783809D01*
X101600000Y-88803972D01*
X101727306Y-88783809D01*
X101842151Y-88725292D01*
X101933292Y-88634151D01*
X101991809Y-88519306D01*
X102011972Y-88392000D01*
X102011972Y-88391999D01*
X127858028Y-88391999D01*
X127878190Y-88519305D01*
X127936709Y-88634153D01*
X128027846Y-88725290D01*
X128027848Y-88725291D01*
X128027849Y-88725292D01*
X128142694Y-88783809D01*
X128270000Y-88803972D01*
X128397306Y-88783809D01*
X128512151Y-88725292D01*
X128603292Y-88634151D01*
X128661809Y-88519306D01*
X128681972Y-88392000D01*
X128681972Y-88391999D01*
X130398028Y-88391999D01*
X130418190Y-88519305D01*
X130476709Y-88634153D01*
X130567846Y-88725290D01*
X130567848Y-88725291D01*
X130567849Y-88725292D01*
X130682694Y-88783809D01*
X130810000Y-88803972D01*
X130937306Y-88783809D01*
X131052151Y-88725292D01*
X131143292Y-88634151D01*
X131201809Y-88519306D01*
X131221972Y-88392000D01*
X131221972Y-88391999D01*
X131668028Y-88391999D01*
X131688190Y-88519305D01*
X131746709Y-88634153D01*
X131837846Y-88725290D01*
X131837848Y-88725291D01*
X131837849Y-88725292D01*
X131952694Y-88783809D01*
X132080000Y-88803972D01*
X132207306Y-88783809D01*
X132322151Y-88725292D01*
X132413292Y-88634151D01*
X132471809Y-88519306D01*
X132491972Y-88392000D01*
X132491972Y-88391999D01*
X132938028Y-88391999D01*
X132958190Y-88519305D01*
X133016709Y-88634153D01*
X133107846Y-88725290D01*
X133107848Y-88725291D01*
X133107849Y-88725292D01*
X133222694Y-88783809D01*
X133350000Y-88803972D01*
X133477306Y-88783809D01*
X133592151Y-88725292D01*
X133683292Y-88634151D01*
X133741809Y-88519306D01*
X133761972Y-88392000D01*
X133761972Y-88391999D01*
X134208028Y-88391999D01*
X134228190Y-88519305D01*
X134286709Y-88634153D01*
X134377846Y-88725290D01*
X134377848Y-88725291D01*
X134377849Y-88725292D01*
X134492694Y-88783809D01*
X134620000Y-88803972D01*
X134747306Y-88783809D01*
X134862151Y-88725292D01*
X134953292Y-88634151D01*
X135011809Y-88519306D01*
X135031972Y-88392000D01*
X135031972Y-88391999D01*
X135478028Y-88391999D01*
X135498190Y-88519305D01*
X135556709Y-88634153D01*
X135647846Y-88725290D01*
X135647848Y-88725291D01*
X135647849Y-88725292D01*
X135762694Y-88783809D01*
X135890000Y-88803972D01*
X136017306Y-88783809D01*
X136132151Y-88725292D01*
X136223292Y-88634151D01*
X136281809Y-88519306D01*
X136301972Y-88392000D01*
X136281809Y-88264694D01*
X136223292Y-88149849D01*
X136223291Y-88149848D01*
X136223290Y-88149846D01*
X136132153Y-88058709D01*
X136017305Y-88000190D01*
X135890000Y-87980028D01*
X135762694Y-88000190D01*
X135647846Y-88058709D01*
X135556709Y-88149846D01*
X135498190Y-88264694D01*
X135478028Y-88391999D01*
X135031972Y-88391999D01*
X135011809Y-88264694D01*
X134953292Y-88149849D01*
X134953291Y-88149848D01*
X134953290Y-88149846D01*
X134862153Y-88058709D01*
X134747305Y-88000190D01*
X134620000Y-87980028D01*
X134492694Y-88000190D01*
X134377846Y-88058709D01*
X134286709Y-88149846D01*
X134228190Y-88264694D01*
X134208028Y-88391999D01*
X133761972Y-88391999D01*
X133741809Y-88264694D01*
X133683292Y-88149849D01*
X133683291Y-88149848D01*
X133683290Y-88149846D01*
X133592153Y-88058709D01*
X133477305Y-88000190D01*
X133350000Y-87980028D01*
X133222694Y-88000190D01*
X133107846Y-88058709D01*
X133016709Y-88149846D01*
X132958190Y-88264694D01*
X132938028Y-88391999D01*
X132491972Y-88391999D01*
X132471809Y-88264694D01*
X132413292Y-88149849D01*
X132413291Y-88149848D01*
X132413290Y-88149846D01*
X132322153Y-88058709D01*
X132207305Y-88000190D01*
X132080000Y-87980028D01*
X131952694Y-88000190D01*
X131837846Y-88058709D01*
X131746709Y-88149846D01*
X131688190Y-88264694D01*
X131668028Y-88391999D01*
X131221972Y-88391999D01*
X131201809Y-88264694D01*
X131143292Y-88149849D01*
X131143291Y-88149848D01*
X131143290Y-88149846D01*
X131052153Y-88058709D01*
X130937305Y-88000190D01*
X130810000Y-87980028D01*
X130682694Y-88000190D01*
X130567846Y-88058709D01*
X130476709Y-88149846D01*
X130418190Y-88264694D01*
X130398028Y-88391999D01*
X128681972Y-88391999D01*
X128661809Y-88264694D01*
X128603292Y-88149849D01*
X128603291Y-88149848D01*
X128603290Y-88149846D01*
X128512153Y-88058709D01*
X128397305Y-88000190D01*
X128270000Y-87980028D01*
X128142694Y-88000190D01*
X128027846Y-88058709D01*
X127936709Y-88149846D01*
X127878190Y-88264694D01*
X127858028Y-88391999D01*
X102011972Y-88391999D01*
X101991809Y-88264694D01*
X101933292Y-88149849D01*
X101933291Y-88149848D01*
X101933290Y-88149846D01*
X101842153Y-88058709D01*
X101727305Y-88000190D01*
X101600000Y-87980028D01*
X101472694Y-88000190D01*
X101357846Y-88058709D01*
X101266709Y-88149846D01*
X101208190Y-88264694D01*
X101188028Y-88392000D01*
X100741972Y-88392000D01*
X100721809Y-88264694D01*
X100663292Y-88149849D01*
X100663291Y-88149848D01*
X100663290Y-88149846D01*
X100572153Y-88058709D01*
X100457305Y-88000190D01*
X100330000Y-87980028D01*
X100202694Y-88000190D01*
X100087846Y-88058709D01*
X99996709Y-88149846D01*
X99938190Y-88264694D01*
X99918028Y-88392000D01*
X99471972Y-88392000D01*
X99451809Y-88264694D01*
X99393292Y-88149849D01*
X99393291Y-88149848D01*
X99393290Y-88149846D01*
X99302153Y-88058709D01*
X99187305Y-88000190D01*
X99060000Y-87980028D01*
X98932694Y-88000190D01*
X98817846Y-88058709D01*
X98726709Y-88149846D01*
X98668190Y-88264694D01*
X98648028Y-88392000D01*
X98201972Y-88392000D01*
X98181809Y-88264694D01*
X98123292Y-88149849D01*
X98123291Y-88149848D01*
X98123290Y-88149846D01*
X98032153Y-88058709D01*
X97917305Y-88000190D01*
X97790000Y-87980028D01*
X97662694Y-88000190D01*
X97547846Y-88058709D01*
X97456709Y-88149846D01*
X97398190Y-88264694D01*
X97378028Y-88392000D01*
X96931972Y-88392000D01*
X96911809Y-88264694D01*
X96853292Y-88149849D01*
X96853291Y-88149848D01*
X96853290Y-88149846D01*
X96762153Y-88058709D01*
X96647305Y-88000190D01*
X96520000Y-87980028D01*
X96392694Y-88000190D01*
X96277846Y-88058709D01*
X96186709Y-88149846D01*
X96128190Y-88264694D01*
X96108028Y-88392000D01*
X94391972Y-88392000D01*
X94371809Y-88264694D01*
X94313292Y-88149849D01*
X94313291Y-88149848D01*
X94313290Y-88149846D01*
X94222153Y-88058709D01*
X94107305Y-88000190D01*
X93980000Y-87980028D01*
X93852694Y-88000190D01*
X93737846Y-88058709D01*
X93646709Y-88149846D01*
X93588190Y-88264694D01*
X93568028Y-88392000D01*
X91851972Y-88392000D01*
X91831809Y-88264694D01*
X91773292Y-88149849D01*
X91773291Y-88149848D01*
X91773290Y-88149846D01*
X91682153Y-88058709D01*
X91567305Y-88000190D01*
X91440000Y-87980028D01*
X91312694Y-88000190D01*
X91197846Y-88058709D01*
X91106709Y-88149846D01*
X91048190Y-88264694D01*
X91028028Y-88392000D01*
X76505300Y-88392000D01*
X76505300Y-87350000D01*
X153042443Y-87350000D01*
X153060977Y-87478910D01*
X153115078Y-87597373D01*
X153115079Y-87597374D01*
X153200364Y-87695799D01*
X153309924Y-87766208D01*
X153434883Y-87802900D01*
X153565116Y-87802900D01*
X153565117Y-87802900D01*
X153690076Y-87766208D01*
X153799636Y-87695799D01*
X153884921Y-87597374D01*
X153906556Y-87550000D01*
X155442443Y-87550000D01*
X155460977Y-87678910D01*
X155515078Y-87797373D01*
X155515079Y-87797374D01*
X155600364Y-87895799D01*
X155709924Y-87966208D01*
X155834883Y-88002900D01*
X155965116Y-88002900D01*
X155965117Y-88002900D01*
X156090076Y-87966208D01*
X156199636Y-87895799D01*
X156284921Y-87797374D01*
X156339023Y-87678909D01*
X156357557Y-87550000D01*
X156339023Y-87421091D01*
X156284921Y-87302626D01*
X156199636Y-87204201D01*
X156090076Y-87133792D01*
X156090075Y-87133791D01*
X156090074Y-87133791D01*
X155983936Y-87102626D01*
X155965117Y-87097100D01*
X155834883Y-87097100D01*
X155816064Y-87102626D01*
X155709925Y-87133791D01*
X155655143Y-87168996D01*
X155600364Y-87204201D01*
X155600363Y-87204201D01*
X155600363Y-87204202D01*
X155515078Y-87302626D01*
X155460977Y-87421089D01*
X155442443Y-87550000D01*
X153906556Y-87550000D01*
X153939023Y-87478909D01*
X153957557Y-87350000D01*
X153939023Y-87221091D01*
X153884921Y-87102626D01*
X153799636Y-87004201D01*
X153690076Y-86933792D01*
X153690075Y-86933791D01*
X153690074Y-86933791D01*
X153615762Y-86911971D01*
X153565117Y-86897100D01*
X153434883Y-86897100D01*
X153398191Y-86907873D01*
X153309925Y-86933791D01*
X153297449Y-86941809D01*
X153200364Y-87004201D01*
X153200363Y-87004201D01*
X153200363Y-87004202D01*
X153115078Y-87102626D01*
X153060977Y-87221089D01*
X153042443Y-87350000D01*
X76505300Y-87350000D01*
X76505300Y-86500000D01*
X84038028Y-86500000D01*
X84058190Y-86627305D01*
X84116709Y-86742153D01*
X84207846Y-86833290D01*
X84207848Y-86833291D01*
X84207849Y-86833292D01*
X84322694Y-86891809D01*
X84450000Y-86911972D01*
X84577306Y-86891809D01*
X84692151Y-86833292D01*
X84783292Y-86742151D01*
X84841809Y-86627306D01*
X84861972Y-86500000D01*
X84849856Y-86423499D01*
X87172443Y-86423499D01*
X87190977Y-86552410D01*
X87245078Y-86670873D01*
X87245079Y-86670874D01*
X87330364Y-86769299D01*
X87439924Y-86839708D01*
X87564883Y-86876400D01*
X87695116Y-86876400D01*
X87695117Y-86876400D01*
X87820076Y-86839708D01*
X87929636Y-86769299D01*
X88014921Y-86670874D01*
X88069023Y-86552409D01*
X88087557Y-86423500D01*
X88087557Y-86423499D01*
X136702443Y-86423499D01*
X136720977Y-86552410D01*
X136775078Y-86670873D01*
X136775079Y-86670874D01*
X136860364Y-86769299D01*
X136969924Y-86839708D01*
X137094883Y-86876400D01*
X137225116Y-86876400D01*
X137225117Y-86876400D01*
X137350076Y-86839708D01*
X137459636Y-86769299D01*
X137544921Y-86670874D01*
X137599023Y-86552409D01*
X137599369Y-86549999D01*
X142588028Y-86549999D01*
X142608190Y-86677305D01*
X142666709Y-86792153D01*
X142757846Y-86883290D01*
X142757848Y-86883291D01*
X142757849Y-86883292D01*
X142872694Y-86941809D01*
X143000000Y-86961972D01*
X143127306Y-86941809D01*
X143242151Y-86883292D01*
X143275444Y-86849999D01*
X147638028Y-86849999D01*
X147658190Y-86977305D01*
X147716709Y-87092153D01*
X147807846Y-87183290D01*
X147807848Y-87183291D01*
X147807849Y-87183292D01*
X147922694Y-87241809D01*
X148050000Y-87261972D01*
X148177306Y-87241809D01*
X148292151Y-87183292D01*
X148383292Y-87092151D01*
X148441809Y-86977306D01*
X148461972Y-86850000D01*
X148441809Y-86722694D01*
X148404769Y-86650000D01*
X154288028Y-86650000D01*
X154308190Y-86777305D01*
X154366709Y-86892153D01*
X154457846Y-86983290D01*
X154457848Y-86983291D01*
X154457849Y-86983292D01*
X154572694Y-87041809D01*
X154700000Y-87061972D01*
X154827306Y-87041809D01*
X154942151Y-86983292D01*
X155033292Y-86892151D01*
X155091809Y-86777306D01*
X155111972Y-86650000D01*
X156138028Y-86650000D01*
X156158190Y-86777305D01*
X156216709Y-86892153D01*
X156307846Y-86983290D01*
X156307848Y-86983291D01*
X156307849Y-86983292D01*
X156422694Y-87041809D01*
X156550000Y-87061972D01*
X156677306Y-87041809D01*
X156792151Y-86983292D01*
X156883292Y-86892151D01*
X156941809Y-86777306D01*
X156961972Y-86650000D01*
X156941809Y-86522694D01*
X156883292Y-86407849D01*
X156883291Y-86407848D01*
X156883290Y-86407846D01*
X156792153Y-86316709D01*
X156677305Y-86258190D01*
X156550000Y-86238028D01*
X156422694Y-86258190D01*
X156307846Y-86316709D01*
X156216709Y-86407846D01*
X156158190Y-86522694D01*
X156138028Y-86650000D01*
X155111972Y-86650000D01*
X155091809Y-86522694D01*
X155033292Y-86407849D01*
X155033291Y-86407848D01*
X155033290Y-86407846D01*
X154942153Y-86316709D01*
X154827305Y-86258190D01*
X154700000Y-86238028D01*
X154572694Y-86258190D01*
X154457846Y-86316709D01*
X154366709Y-86407846D01*
X154308190Y-86522694D01*
X154288028Y-86650000D01*
X148404769Y-86650000D01*
X148383292Y-86607849D01*
X148383291Y-86607848D01*
X148383290Y-86607846D01*
X148292153Y-86516709D01*
X148177305Y-86458190D01*
X148050000Y-86438028D01*
X147922694Y-86458190D01*
X147807846Y-86516709D01*
X147716709Y-86607846D01*
X147658190Y-86722694D01*
X147638028Y-86849999D01*
X143275444Y-86849999D01*
X143333292Y-86792151D01*
X143391809Y-86677306D01*
X143411972Y-86550000D01*
X143391809Y-86422694D01*
X143333292Y-86307849D01*
X143333291Y-86307848D01*
X143333290Y-86307846D01*
X143242153Y-86216709D01*
X143209360Y-86200000D01*
X155238028Y-86200000D01*
X155258190Y-86327305D01*
X155316709Y-86442153D01*
X155407846Y-86533290D01*
X155407848Y-86533291D01*
X155407849Y-86533292D01*
X155522694Y-86591809D01*
X155650000Y-86611972D01*
X155777306Y-86591809D01*
X155892151Y-86533292D01*
X155983292Y-86442151D01*
X156041809Y-86327306D01*
X156061972Y-86200000D01*
X156041809Y-86072694D01*
X156030246Y-86050000D01*
X156938028Y-86050000D01*
X156958190Y-86177305D01*
X157016709Y-86292153D01*
X157107846Y-86383290D01*
X157107848Y-86383291D01*
X157107849Y-86383292D01*
X157222694Y-86441809D01*
X157350000Y-86461972D01*
X157477306Y-86441809D01*
X157592151Y-86383292D01*
X157683292Y-86292151D01*
X157741809Y-86177306D01*
X157761972Y-86050000D01*
X157741809Y-85922694D01*
X157683292Y-85807849D01*
X157683291Y-85807848D01*
X157683290Y-85807846D01*
X157592153Y-85716709D01*
X157477305Y-85658190D01*
X157350000Y-85638028D01*
X157222694Y-85658190D01*
X157107846Y-85716709D01*
X157016709Y-85807846D01*
X156958190Y-85922694D01*
X156938028Y-86050000D01*
X156030246Y-86050000D01*
X155983292Y-85957849D01*
X155983291Y-85957848D01*
X155983290Y-85957846D01*
X155892153Y-85866709D01*
X155777305Y-85808190D01*
X155650000Y-85788028D01*
X155522694Y-85808190D01*
X155407846Y-85866709D01*
X155316709Y-85957846D01*
X155258190Y-86072694D01*
X155238028Y-86200000D01*
X143209360Y-86200000D01*
X143127305Y-86158190D01*
X143000000Y-86138028D01*
X142872694Y-86158190D01*
X142757846Y-86216709D01*
X142666709Y-86307846D01*
X142608190Y-86422694D01*
X142588028Y-86549999D01*
X137599369Y-86549999D01*
X137617557Y-86423500D01*
X137599023Y-86294591D01*
X137544921Y-86176126D01*
X137459636Y-86077701D01*
X137350076Y-86007292D01*
X137350075Y-86007291D01*
X137350074Y-86007291D01*
X137277060Y-85985852D01*
X137225117Y-85970600D01*
X137094883Y-85970600D01*
X137058192Y-85981373D01*
X136969925Y-86007291D01*
X136915144Y-86042496D01*
X136860364Y-86077701D01*
X136860363Y-86077701D01*
X136860363Y-86077702D01*
X136775078Y-86176126D01*
X136720977Y-86294589D01*
X136702443Y-86423499D01*
X88087557Y-86423499D01*
X88069023Y-86294591D01*
X88014921Y-86176126D01*
X87929636Y-86077701D01*
X87820076Y-86007292D01*
X87820075Y-86007291D01*
X87820074Y-86007291D01*
X87747060Y-85985852D01*
X87695117Y-85970600D01*
X87564883Y-85970600D01*
X87528192Y-85981373D01*
X87439925Y-86007291D01*
X87385144Y-86042496D01*
X87330364Y-86077701D01*
X87330363Y-86077701D01*
X87330363Y-86077702D01*
X87245078Y-86176126D01*
X87190977Y-86294589D01*
X87172443Y-86423499D01*
X84849856Y-86423499D01*
X84841809Y-86372694D01*
X84783292Y-86257849D01*
X84783291Y-86257848D01*
X84783290Y-86257846D01*
X84692153Y-86166709D01*
X84577305Y-86108190D01*
X84450000Y-86088028D01*
X84322694Y-86108190D01*
X84207846Y-86166709D01*
X84116709Y-86257846D01*
X84058190Y-86372694D01*
X84038028Y-86500000D01*
X76505300Y-86500000D01*
X76505300Y-84709000D01*
X79471028Y-84709000D01*
X79472904Y-84720846D01*
X79491190Y-84836305D01*
X79549709Y-84951153D01*
X79640846Y-85042290D01*
X79640848Y-85042291D01*
X79640849Y-85042292D01*
X79755694Y-85100809D01*
X79883000Y-85120972D01*
X80010306Y-85100809D01*
X80125151Y-85042292D01*
X80204443Y-84963000D01*
X86410443Y-84963000D01*
X86428977Y-85091910D01*
X86483078Y-85210373D01*
X86483079Y-85210374D01*
X86568364Y-85308799D01*
X86677924Y-85379208D01*
X86802883Y-85415900D01*
X86933116Y-85415900D01*
X86933117Y-85415900D01*
X87058076Y-85379208D01*
X87167636Y-85308799D01*
X87252921Y-85210374D01*
X87307023Y-85091909D01*
X87325557Y-84963000D01*
X103287578Y-84963000D01*
X103307542Y-85089054D01*
X103313532Y-85100809D01*
X103365484Y-85202771D01*
X103455729Y-85293016D01*
X103569445Y-85350957D01*
X103695500Y-85370922D01*
X103821555Y-85350957D01*
X103935271Y-85293016D01*
X104025516Y-85202771D01*
X104083457Y-85089055D01*
X104103422Y-84963000D01*
X104103422Y-84962999D01*
X109697028Y-84962999D01*
X109717190Y-85090305D01*
X109775709Y-85205153D01*
X109866846Y-85296290D01*
X109866848Y-85296291D01*
X109866849Y-85296292D01*
X109981694Y-85354809D01*
X110109000Y-85374972D01*
X110236306Y-85354809D01*
X110351151Y-85296292D01*
X110442292Y-85205151D01*
X110500809Y-85090306D01*
X110520972Y-84963000D01*
X110520972Y-84962999D01*
X114777028Y-84962999D01*
X114797190Y-85090305D01*
X114855709Y-85205153D01*
X114946846Y-85296290D01*
X114946848Y-85296291D01*
X114946849Y-85296292D01*
X115061694Y-85354809D01*
X115189000Y-85374972D01*
X115316306Y-85354809D01*
X115431151Y-85296292D01*
X115522292Y-85205151D01*
X115580809Y-85090306D01*
X115600972Y-84963000D01*
X120813578Y-84963000D01*
X120833542Y-85089054D01*
X120839532Y-85100809D01*
X120891484Y-85202771D01*
X120981729Y-85293016D01*
X121095445Y-85350957D01*
X121221500Y-85370922D01*
X121347555Y-85350957D01*
X121461271Y-85293016D01*
X121551516Y-85202771D01*
X121609457Y-85089055D01*
X121629422Y-84963000D01*
X137464443Y-84963000D01*
X137482977Y-85091910D01*
X137537078Y-85210373D01*
X137537079Y-85210374D01*
X137622364Y-85308799D01*
X137731924Y-85379208D01*
X137856883Y-85415900D01*
X137987116Y-85415900D01*
X137987117Y-85415900D01*
X138112076Y-85379208D01*
X138221636Y-85308799D01*
X138306921Y-85210374D01*
X138361023Y-85091909D01*
X138379557Y-84963000D01*
X138361023Y-84834091D01*
X138306921Y-84715626D01*
X138221636Y-84617201D01*
X138112076Y-84546792D01*
X138112075Y-84546791D01*
X138112074Y-84546791D01*
X138039060Y-84525352D01*
X137987117Y-84510100D01*
X137856883Y-84510100D01*
X137820191Y-84520873D01*
X137731925Y-84546791D01*
X137687964Y-84575043D01*
X137622364Y-84617201D01*
X137622363Y-84617201D01*
X137622363Y-84617202D01*
X137537078Y-84715626D01*
X137482977Y-84834089D01*
X137464443Y-84963000D01*
X121629422Y-84963000D01*
X121609457Y-84836945D01*
X121551516Y-84723229D01*
X121461271Y-84632984D01*
X121404412Y-84604013D01*
X121347554Y-84575042D01*
X121221500Y-84555078D01*
X121095445Y-84575042D01*
X120981727Y-84632985D01*
X120891485Y-84723227D01*
X120833542Y-84836945D01*
X120813578Y-84963000D01*
X115600972Y-84963000D01*
X115580809Y-84835694D01*
X115522292Y-84720849D01*
X115522291Y-84720848D01*
X115522290Y-84720846D01*
X115431153Y-84629709D01*
X115316305Y-84571190D01*
X115189000Y-84551028D01*
X115061694Y-84571190D01*
X114946846Y-84629709D01*
X114855709Y-84720846D01*
X114797190Y-84835694D01*
X114777028Y-84962999D01*
X110520972Y-84962999D01*
X110500809Y-84835694D01*
X110442292Y-84720849D01*
X110442291Y-84720848D01*
X110442290Y-84720846D01*
X110351153Y-84629709D01*
X110236305Y-84571190D01*
X110109000Y-84551028D01*
X109981694Y-84571190D01*
X109866846Y-84629709D01*
X109775709Y-84720846D01*
X109717190Y-84835694D01*
X109697028Y-84962999D01*
X104103422Y-84962999D01*
X104083457Y-84836945D01*
X104025516Y-84723229D01*
X103935271Y-84632984D01*
X103878412Y-84604013D01*
X103821554Y-84575042D01*
X103695500Y-84555078D01*
X103569445Y-84575042D01*
X103455727Y-84632985D01*
X103365485Y-84723227D01*
X103307542Y-84836945D01*
X103287578Y-84963000D01*
X87325557Y-84963000D01*
X87307023Y-84834091D01*
X87252921Y-84715626D01*
X87167636Y-84617201D01*
X87058076Y-84546792D01*
X87058075Y-84546791D01*
X87058074Y-84546791D01*
X86985060Y-84525352D01*
X86933117Y-84510100D01*
X86802883Y-84510100D01*
X86766191Y-84520873D01*
X86677925Y-84546791D01*
X86633964Y-84575043D01*
X86568364Y-84617201D01*
X86568363Y-84617201D01*
X86568363Y-84617202D01*
X86483078Y-84715626D01*
X86428977Y-84834089D01*
X86410443Y-84963000D01*
X80204443Y-84963000D01*
X80216292Y-84951151D01*
X80274809Y-84836306D01*
X80294972Y-84709000D01*
X80274809Y-84581694D01*
X80233183Y-84500000D01*
X84038028Y-84500000D01*
X84058190Y-84627305D01*
X84116709Y-84742153D01*
X84207846Y-84833290D01*
X84207848Y-84833291D01*
X84207849Y-84833292D01*
X84322694Y-84891809D01*
X84450000Y-84911972D01*
X84577306Y-84891809D01*
X84692151Y-84833292D01*
X84783292Y-84742151D01*
X84841809Y-84627306D01*
X84861972Y-84500000D01*
X84841809Y-84372694D01*
X84783292Y-84257849D01*
X84783291Y-84257848D01*
X84783290Y-84257846D01*
X84692153Y-84166709D01*
X84577305Y-84108190D01*
X84470161Y-84091221D01*
X84450000Y-84088028D01*
X84449999Y-84088028D01*
X84322694Y-84108190D01*
X84207846Y-84166709D01*
X84116709Y-84257846D01*
X84058190Y-84372694D01*
X84038028Y-84500000D01*
X80233183Y-84500000D01*
X80216292Y-84466849D01*
X80216291Y-84466848D01*
X80216290Y-84466846D01*
X80125153Y-84375709D01*
X80010305Y-84317190D01*
X79883000Y-84297028D01*
X79755694Y-84317190D01*
X79640846Y-84375709D01*
X79549709Y-84466846D01*
X79491190Y-84581694D01*
X79483067Y-84632985D01*
X79471028Y-84709000D01*
X76505300Y-84709000D01*
X76505300Y-83520700D01*
X87172443Y-83520700D01*
X87190977Y-83649610D01*
X87245078Y-83768073D01*
X87245079Y-83768074D01*
X87330364Y-83866499D01*
X87439924Y-83936908D01*
X87564883Y-83973600D01*
X87695116Y-83973600D01*
X87695117Y-83973600D01*
X87820076Y-83936908D01*
X87929636Y-83866499D01*
X88014921Y-83768074D01*
X88069023Y-83649609D01*
X88087557Y-83520700D01*
X102412443Y-83520700D01*
X102430977Y-83649610D01*
X102485078Y-83768073D01*
X102485079Y-83768074D01*
X102570364Y-83866499D01*
X102679924Y-83936908D01*
X102804883Y-83973600D01*
X102935116Y-83973600D01*
X102935117Y-83973600D01*
X103060076Y-83936908D01*
X103169636Y-83866499D01*
X103254921Y-83768074D01*
X103309023Y-83649609D01*
X103327557Y-83520700D01*
X121463892Y-83520700D01*
X121482426Y-83649610D01*
X121536527Y-83768073D01*
X121536528Y-83768074D01*
X121621813Y-83866499D01*
X121731373Y-83936908D01*
X121856332Y-83973600D01*
X121986565Y-83973600D01*
X121986566Y-83973600D01*
X122111525Y-83936908D01*
X122221085Y-83866499D01*
X122306370Y-83768074D01*
X122360472Y-83649609D01*
X122379006Y-83520700D01*
X122376389Y-83502500D01*
X125699028Y-83502500D01*
X125719190Y-83629805D01*
X125777709Y-83744653D01*
X125868846Y-83835790D01*
X125868848Y-83835791D01*
X125868849Y-83835792D01*
X125983694Y-83894309D01*
X126111000Y-83914472D01*
X126238306Y-83894309D01*
X126353151Y-83835792D01*
X126444292Y-83744651D01*
X126502809Y-83629806D01*
X126522972Y-83502500D01*
X126522972Y-83502499D01*
X136702443Y-83502499D01*
X136720977Y-83631410D01*
X136775078Y-83749873D01*
X136775079Y-83749874D01*
X136860364Y-83848299D01*
X136969924Y-83918708D01*
X137094883Y-83955400D01*
X137225116Y-83955400D01*
X137225117Y-83955400D01*
X137350076Y-83918708D01*
X137459636Y-83848299D01*
X137544921Y-83749874D01*
X137599023Y-83631409D01*
X137617557Y-83502500D01*
X137599023Y-83373591D01*
X137544921Y-83255126D01*
X137459636Y-83156701D01*
X137350076Y-83086292D01*
X137350075Y-83086291D01*
X137350074Y-83086291D01*
X137277060Y-83064852D01*
X137225117Y-83049600D01*
X137094883Y-83049600D01*
X137058191Y-83060373D01*
X136969925Y-83086291D01*
X136941605Y-83104491D01*
X136860364Y-83156701D01*
X136860363Y-83156701D01*
X136860363Y-83156702D01*
X136775078Y-83255126D01*
X136720977Y-83373589D01*
X136702443Y-83502499D01*
X126522972Y-83502499D01*
X126502809Y-83375194D01*
X126444292Y-83260349D01*
X126444291Y-83260348D01*
X126444290Y-83260346D01*
X126353153Y-83169209D01*
X126238305Y-83110690D01*
X126111000Y-83090528D01*
X125983694Y-83110690D01*
X125868846Y-83169209D01*
X125777709Y-83260346D01*
X125719190Y-83375194D01*
X125699028Y-83502500D01*
X122376389Y-83502500D01*
X122360472Y-83391791D01*
X122306370Y-83273326D01*
X122221085Y-83174901D01*
X122111525Y-83104492D01*
X122111524Y-83104491D01*
X122111523Y-83104491D01*
X122038509Y-83083052D01*
X121986566Y-83067800D01*
X121856332Y-83067800D01*
X121819640Y-83078573D01*
X121731374Y-83104491D01*
X121721727Y-83110691D01*
X121621813Y-83174901D01*
X121621812Y-83174901D01*
X121621812Y-83174902D01*
X121536527Y-83273326D01*
X121482426Y-83391789D01*
X121463892Y-83520700D01*
X103327557Y-83520700D01*
X103309023Y-83391791D01*
X103254921Y-83273326D01*
X103169636Y-83174901D01*
X103060076Y-83104492D01*
X103060075Y-83104491D01*
X103060074Y-83104491D01*
X102987060Y-83083052D01*
X102935117Y-83067800D01*
X102804883Y-83067800D01*
X102768191Y-83078573D01*
X102679925Y-83104491D01*
X102670278Y-83110691D01*
X102570364Y-83174901D01*
X102570363Y-83174901D01*
X102570363Y-83174902D01*
X102485078Y-83273326D01*
X102430977Y-83391789D01*
X102412443Y-83520700D01*
X88087557Y-83520700D01*
X88069023Y-83391791D01*
X88014921Y-83273326D01*
X87929636Y-83174901D01*
X87820076Y-83104492D01*
X87820075Y-83104491D01*
X87820074Y-83104491D01*
X87747060Y-83083052D01*
X87695117Y-83067800D01*
X87564883Y-83067800D01*
X87528191Y-83078573D01*
X87439925Y-83104491D01*
X87430278Y-83110691D01*
X87330364Y-83174901D01*
X87330363Y-83174901D01*
X87330363Y-83174902D01*
X87245078Y-83273326D01*
X87190977Y-83391789D01*
X87172443Y-83520700D01*
X76505300Y-83520700D01*
X76505300Y-82806952D01*
X76505532Y-82801052D01*
X76507526Y-82775711D01*
X76519840Y-82619242D01*
X76521683Y-82607607D01*
X76563566Y-82433151D01*
X76566864Y-82422999D01*
X76931028Y-82422999D01*
X76951190Y-82550305D01*
X77009709Y-82665153D01*
X77100846Y-82756290D01*
X77100848Y-82756291D01*
X77100849Y-82756292D01*
X77215694Y-82814809D01*
X77343000Y-82834972D01*
X77470306Y-82814809D01*
X77585151Y-82756292D01*
X77676292Y-82665151D01*
X77734809Y-82550306D01*
X77754972Y-82423000D01*
X77734809Y-82295694D01*
X77676292Y-82180849D01*
X77676291Y-82180848D01*
X77676290Y-82180846D01*
X77664444Y-82169000D01*
X86837028Y-82169000D01*
X86857190Y-82296305D01*
X86915709Y-82411153D01*
X87006846Y-82502290D01*
X87006848Y-82502291D01*
X87006849Y-82502292D01*
X87121694Y-82560809D01*
X87249000Y-82580972D01*
X87376306Y-82560809D01*
X87491151Y-82502292D01*
X87582292Y-82411151D01*
X87640809Y-82296306D01*
X87660972Y-82169000D01*
X96997028Y-82169000D01*
X97017190Y-82296305D01*
X97075709Y-82411153D01*
X97166846Y-82502290D01*
X97166848Y-82502291D01*
X97166849Y-82502292D01*
X97281694Y-82560809D01*
X97409000Y-82580972D01*
X97536306Y-82560809D01*
X97651151Y-82502292D01*
X97742292Y-82411151D01*
X97800809Y-82296306D01*
X97820972Y-82169000D01*
X107157028Y-82169000D01*
X107177190Y-82296305D01*
X107235709Y-82411153D01*
X107326846Y-82502290D01*
X107326848Y-82502291D01*
X107326849Y-82502292D01*
X107441694Y-82560809D01*
X107569000Y-82580972D01*
X107696306Y-82560809D01*
X107811151Y-82502292D01*
X107902292Y-82411151D01*
X107960809Y-82296306D01*
X107980972Y-82169000D01*
X117317028Y-82169000D01*
X117337190Y-82296305D01*
X117395709Y-82411153D01*
X117486846Y-82502290D01*
X117486848Y-82502291D01*
X117486849Y-82502292D01*
X117601694Y-82560809D01*
X117729000Y-82580972D01*
X117856306Y-82560809D01*
X117971151Y-82502292D01*
X118062292Y-82411151D01*
X118120809Y-82296306D01*
X118140972Y-82169000D01*
X118140972Y-82168999D01*
X123159028Y-82168999D01*
X123179190Y-82296305D01*
X123237709Y-82411153D01*
X123328846Y-82502290D01*
X123328848Y-82502291D01*
X123328849Y-82502292D01*
X123443694Y-82560809D01*
X123571000Y-82580972D01*
X123698306Y-82560809D01*
X123813151Y-82502292D01*
X123904292Y-82411151D01*
X123962809Y-82296306D01*
X123982972Y-82169000D01*
X123982972Y-82168999D01*
X133319028Y-82168999D01*
X133339190Y-82296305D01*
X133397709Y-82411153D01*
X133488846Y-82502290D01*
X133488848Y-82502291D01*
X133488849Y-82502292D01*
X133603694Y-82560809D01*
X133731000Y-82580972D01*
X133858306Y-82560809D01*
X133973151Y-82502292D01*
X134064292Y-82411151D01*
X134122809Y-82296306D01*
X134142972Y-82169000D01*
X134142972Y-82168999D01*
X143479028Y-82168999D01*
X143499190Y-82296305D01*
X143557709Y-82411153D01*
X143648846Y-82502290D01*
X143648848Y-82502291D01*
X143648849Y-82502292D01*
X143763694Y-82560809D01*
X143891000Y-82580972D01*
X144018306Y-82560809D01*
X144133151Y-82502292D01*
X144224292Y-82411151D01*
X144282809Y-82296306D01*
X144302972Y-82169000D01*
X153639028Y-82169000D01*
X153659190Y-82296305D01*
X153717709Y-82411153D01*
X153808846Y-82502290D01*
X153808848Y-82502291D01*
X153808849Y-82502292D01*
X153923694Y-82560809D01*
X154051000Y-82580972D01*
X154178306Y-82560809D01*
X154293151Y-82502292D01*
X154372443Y-82423000D01*
X163545028Y-82423000D01*
X163565190Y-82550305D01*
X163623709Y-82665153D01*
X163714846Y-82756290D01*
X163714848Y-82756291D01*
X163714849Y-82756292D01*
X163829694Y-82814809D01*
X163957000Y-82834972D01*
X164084306Y-82814809D01*
X164199151Y-82756292D01*
X164290292Y-82665151D01*
X164348809Y-82550306D01*
X164368972Y-82423000D01*
X164348809Y-82295694D01*
X164290292Y-82180849D01*
X164290291Y-82180848D01*
X164290290Y-82180846D01*
X164199153Y-82089709D01*
X164084305Y-82031190D01*
X163957000Y-82011028D01*
X163829694Y-82031190D01*
X163714846Y-82089709D01*
X163623709Y-82180846D01*
X163565190Y-82295694D01*
X163545028Y-82423000D01*
X154372443Y-82423000D01*
X154384292Y-82411151D01*
X154442809Y-82296306D01*
X154462972Y-82169000D01*
X154442809Y-82041694D01*
X154384292Y-81926849D01*
X154384291Y-81926848D01*
X154384290Y-81926846D01*
X154293153Y-81835709D01*
X154178305Y-81777190D01*
X154071162Y-81760221D01*
X154051000Y-81757028D01*
X154050999Y-81757028D01*
X153923694Y-81777190D01*
X153808846Y-81835709D01*
X153717709Y-81926846D01*
X153659190Y-82041694D01*
X153639028Y-82169000D01*
X144302972Y-82169000D01*
X144282809Y-82041694D01*
X144224292Y-81926849D01*
X144224291Y-81926848D01*
X144224290Y-81926846D01*
X144133153Y-81835709D01*
X144018305Y-81777190D01*
X143911162Y-81760221D01*
X143891000Y-81757028D01*
X143890999Y-81757028D01*
X143763694Y-81777190D01*
X143648846Y-81835709D01*
X143557709Y-81926846D01*
X143499190Y-82041694D01*
X143479028Y-82168999D01*
X134142972Y-82168999D01*
X134122809Y-82041694D01*
X134064292Y-81926849D01*
X134064291Y-81926848D01*
X134064290Y-81926846D01*
X133973153Y-81835709D01*
X133858305Y-81777190D01*
X133751162Y-81760221D01*
X133731000Y-81757028D01*
X133730999Y-81757028D01*
X133603694Y-81777190D01*
X133488846Y-81835709D01*
X133397709Y-81926846D01*
X133339190Y-82041694D01*
X133319028Y-82168999D01*
X123982972Y-82168999D01*
X123962809Y-82041694D01*
X123904292Y-81926849D01*
X123904291Y-81926848D01*
X123904290Y-81926846D01*
X123813153Y-81835709D01*
X123698305Y-81777190D01*
X123591162Y-81760221D01*
X123571000Y-81757028D01*
X123570999Y-81757028D01*
X123443694Y-81777190D01*
X123328846Y-81835709D01*
X123237709Y-81926846D01*
X123179190Y-82041694D01*
X123159028Y-82168999D01*
X118140972Y-82168999D01*
X118120809Y-82041694D01*
X118062292Y-81926849D01*
X118062291Y-81926848D01*
X118062290Y-81926846D01*
X117971153Y-81835709D01*
X117856305Y-81777190D01*
X117749162Y-81760221D01*
X117729000Y-81757028D01*
X117728999Y-81757028D01*
X117601694Y-81777190D01*
X117486846Y-81835709D01*
X117395709Y-81926846D01*
X117337190Y-82041694D01*
X117317028Y-82169000D01*
X107980972Y-82169000D01*
X107960809Y-82041694D01*
X107902292Y-81926849D01*
X107902291Y-81926848D01*
X107902290Y-81926846D01*
X107811153Y-81835709D01*
X107696305Y-81777190D01*
X107589162Y-81760221D01*
X107569000Y-81757028D01*
X107568999Y-81757028D01*
X107441694Y-81777190D01*
X107326846Y-81835709D01*
X107235709Y-81926846D01*
X107177190Y-82041694D01*
X107157028Y-82169000D01*
X97820972Y-82169000D01*
X97800809Y-82041694D01*
X97742292Y-81926849D01*
X97742291Y-81926848D01*
X97742290Y-81926846D01*
X97651153Y-81835709D01*
X97536305Y-81777190D01*
X97429162Y-81760221D01*
X97409000Y-81757028D01*
X97408999Y-81757028D01*
X97281694Y-81777190D01*
X97166846Y-81835709D01*
X97075709Y-81926846D01*
X97017190Y-82041694D01*
X96997028Y-82169000D01*
X87660972Y-82169000D01*
X87640809Y-82041694D01*
X87582292Y-81926849D01*
X87582291Y-81926848D01*
X87582290Y-81926846D01*
X87491153Y-81835709D01*
X87376305Y-81777190D01*
X87269162Y-81760221D01*
X87249000Y-81757028D01*
X87248999Y-81757028D01*
X87121694Y-81777190D01*
X87006846Y-81835709D01*
X86915709Y-81926846D01*
X86857190Y-82041694D01*
X86837028Y-82169000D01*
X77664444Y-82169000D01*
X77585153Y-82089709D01*
X77470305Y-82031190D01*
X77343000Y-82011028D01*
X77215694Y-82031190D01*
X77100846Y-82089709D01*
X77009709Y-82180846D01*
X76951190Y-82295694D01*
X76931028Y-82422999D01*
X76566864Y-82422999D01*
X76567207Y-82421943D01*
X76635869Y-82256178D01*
X76641222Y-82245676D01*
X76660187Y-82214729D01*
X76734961Y-82092709D01*
X76741890Y-82083170D01*
X76858415Y-81946737D01*
X76866737Y-81938415D01*
X77003170Y-81821890D01*
X77012709Y-81814961D01*
X77165676Y-81721222D01*
X77176178Y-81715869D01*
X77341943Y-81647207D01*
X77353151Y-81643566D01*
X77527607Y-81601683D01*
X77539242Y-81599840D01*
X77721052Y-81585531D01*
X77726952Y-81585300D01*
X77772355Y-81585300D01*
X163527645Y-81585300D01*
X163573048Y-81585300D01*
X163578947Y-81585531D01*
G37*
G04 #@! TD.AperFunction*
M02*
