G04 #@! TF.GenerationSoftware,KiCad,Pcbnew,7.0.1-0*
G04 #@! TF.CreationDate,2023-11-01T19:37:58-04:00*
G04 #@! TF.ProjectId,GW4194,47573431-3934-42e6-9b69-6361645f7063,1.1-SOJ-DC*
G04 #@! TF.SameCoordinates,Original*
G04 #@! TF.FileFunction,Soldermask,Bot*
G04 #@! TF.FilePolarity,Negative*
%FSLAX46Y46*%
G04 Gerber Fmt 4.6, Leading zero omitted, Abs format (unit mm)*
G04 Created by KiCad (PCBNEW 7.0.1-0) date 2023-11-01 19:37:58*
%MOMM*%
%LPD*%
G01*
G04 APERTURE LIST*
G04 Aperture macros list*
%AMRoundRect*
0 Rectangle with rounded corners*
0 $1 Rounding radius*
0 $2 $3 $4 $5 $6 $7 $8 $9 X,Y pos of 4 corners*
0 Add a 4 corners polygon primitive as box body*
4,1,4,$2,$3,$4,$5,$6,$7,$8,$9,$2,$3,0*
0 Add four circle primitives for the rounded corners*
1,1,$1+$1,$2,$3*
1,1,$1+$1,$4,$5*
1,1,$1+$1,$6,$7*
1,1,$1+$1,$8,$9*
0 Add four rect primitives between the rounded corners*
20,1,$1+$1,$2,$3,$4,$5,0*
20,1,$1+$1,$4,$5,$6,$7,0*
20,1,$1+$1,$6,$7,$8,$9,0*
20,1,$1+$1,$8,$9,$2,$3,0*%
G04 Aperture macros list end*
%ADD10C,0.952400*%
%ADD11RoundRect,0.520700X-0.444500X-0.825500X0.444500X-0.825500X0.444500X0.825500X-0.444500X0.825500X0*%
G04 APERTURE END LIST*
D10*
X83820000Y-98806000D03*
D11*
X83820000Y-100076000D03*
D10*
X86360000Y-98806000D03*
D11*
X86360000Y-100076000D03*
D10*
X88900000Y-98806000D03*
D11*
X88900000Y-100076000D03*
D10*
X91440000Y-98806000D03*
D11*
X91440000Y-100076000D03*
D10*
X93980000Y-98806000D03*
D11*
X93980000Y-100076000D03*
D10*
X96520000Y-98806000D03*
D11*
X96520000Y-100076000D03*
D10*
X99060000Y-98806000D03*
D11*
X99060000Y-100076000D03*
D10*
X101600000Y-98806000D03*
D11*
X101600000Y-100076000D03*
D10*
X104140000Y-98806000D03*
D11*
X104140000Y-100076000D03*
D10*
X106680000Y-98806000D03*
D11*
X106680000Y-100076000D03*
D10*
X109220000Y-98806000D03*
D11*
X109220000Y-100076000D03*
D10*
X111760000Y-98806000D03*
D11*
X111760000Y-100076000D03*
D10*
X114300000Y-98806000D03*
D11*
X114300000Y-100076000D03*
D10*
X116840000Y-98806000D03*
D11*
X116840000Y-100076000D03*
D10*
X119380000Y-98806000D03*
D11*
X119380000Y-100076000D03*
D10*
X121920000Y-98806000D03*
D11*
X121920000Y-100076000D03*
D10*
X124460000Y-98806000D03*
D11*
X124460000Y-100076000D03*
D10*
X127000000Y-98806000D03*
D11*
X127000000Y-100076000D03*
D10*
X129540000Y-98806000D03*
D11*
X129540000Y-100076000D03*
D10*
X132080000Y-98806000D03*
D11*
X132080000Y-100076000D03*
D10*
X134620000Y-98806000D03*
D11*
X134620000Y-100076000D03*
D10*
X137160000Y-98806000D03*
D11*
X137160000Y-100076000D03*
D10*
X139700000Y-98806000D03*
D11*
X139700000Y-100076000D03*
D10*
X142240000Y-98806000D03*
D11*
X142240000Y-100076000D03*
D10*
X144780000Y-98806000D03*
D11*
X144780000Y-100076000D03*
D10*
X147320000Y-98806000D03*
D11*
X147320000Y-100076000D03*
D10*
X149860000Y-98806000D03*
D11*
X149860000Y-100076000D03*
D10*
X152400000Y-98806000D03*
D11*
X152400000Y-100076000D03*
D10*
X154940000Y-98806000D03*
D11*
X154940000Y-100076000D03*
D10*
X157480000Y-98806000D03*
D11*
X157480000Y-100076000D03*
M02*
