G04 #@! TF.GenerationSoftware,KiCad,Pcbnew,7.0.1-0*
G04 #@! TF.CreationDate,2023-11-01T19:37:56-04:00*
G04 #@! TF.ProjectId,GW4194,47573431-3934-42e6-9b69-6361645f7063,1.1-SOJ-DC*
G04 #@! TF.SameCoordinates,Original*
G04 #@! TF.FileFunction,Copper,L3,Inr*
G04 #@! TF.FilePolarity,Positive*
%FSLAX46Y46*%
G04 Gerber Fmt 4.6, Leading zero omitted, Abs format (unit mm)*
G04 Created by KiCad (PCBNEW 7.0.1-0) date 2023-11-01 19:37:56*
%MOMM*%
%LPD*%
G01*
G04 APERTURE LIST*
G04 #@! TA.AperFunction,ComponentPad*
%ADD10C,0.800000*%
G04 #@! TD*
G04 #@! TA.AperFunction,ViaPad*
%ADD11C,0.508000*%
G04 #@! TD*
G04 #@! TA.AperFunction,ViaPad*
%ADD12C,0.800000*%
G04 #@! TD*
G04 #@! TA.AperFunction,ViaPad*
%ADD13C,0.500000*%
G04 #@! TD*
G04 #@! TA.AperFunction,ViaPad*
%ADD14C,0.600000*%
G04 #@! TD*
G04 #@! TA.AperFunction,ViaPad*
%ADD15C,1.000000*%
G04 #@! TD*
G04 #@! TA.AperFunction,Conductor*
%ADD16C,0.152400*%
G04 #@! TD*
G04 APERTURE END LIST*
D10*
X83820000Y-98806000D03*
X86360000Y-98806000D03*
X88900000Y-98806000D03*
X91440000Y-98806000D03*
X93980000Y-98806000D03*
X96520000Y-98806000D03*
X99060000Y-98806000D03*
X101600000Y-98806000D03*
X104140000Y-98806000D03*
X106680000Y-98806000D03*
X109220000Y-98806000D03*
X111760000Y-98806000D03*
X114300000Y-98806000D03*
X116840000Y-98806000D03*
X119380000Y-98806000D03*
X121920000Y-98806000D03*
X124460000Y-98806000D03*
X127000000Y-98806000D03*
X129540000Y-98806000D03*
X132080000Y-98806000D03*
X134620000Y-98806000D03*
X137160000Y-98806000D03*
X139700000Y-98806000D03*
X142240000Y-98806000D03*
X144780000Y-98806000D03*
X147320000Y-98806000D03*
X149860000Y-98806000D03*
X152400000Y-98806000D03*
X154940000Y-98806000D03*
X157480000Y-98806000D03*
D11*
X77089000Y-86995000D03*
X164211000Y-86995000D03*
X164211000Y-96139000D03*
X78994000Y-94742000D03*
X159131000Y-82169000D03*
X148971000Y-82169000D03*
X92329000Y-82169000D03*
X102489000Y-82169000D03*
X138811000Y-82169000D03*
X82169000Y-82169000D03*
X112649000Y-82169000D03*
X128651000Y-82169000D03*
D12*
X155250000Y-94300000D03*
X154350000Y-95500000D03*
X153450000Y-94300000D03*
D13*
X121856500Y-95758000D03*
D14*
X121221500Y-91884500D03*
D11*
X105410000Y-94996000D03*
X140779500Y-93980000D03*
D14*
X87630000Y-92900500D03*
D12*
X83820000Y-94107000D03*
X119380000Y-95250000D03*
X85090000Y-95250000D03*
D14*
X86868000Y-94361000D03*
X137160000Y-95821500D03*
D12*
X139700000Y-95250000D03*
D14*
X137922000Y-94361000D03*
D12*
X158750000Y-94107000D03*
D14*
X121158000Y-94361000D03*
X137160000Y-92900500D03*
D12*
X118110000Y-94107000D03*
D14*
X87630000Y-95821500D03*
X103632000Y-94361000D03*
D12*
X106680000Y-94107000D03*
D15*
X157480000Y-95377000D03*
D14*
X102870000Y-92900500D03*
D11*
X146050000Y-97853500D03*
X147400000Y-96500000D03*
X158600000Y-90450000D03*
X127000000Y-90932000D03*
X112522000Y-92456000D03*
X84450000Y-86500000D03*
X91440000Y-88392000D03*
X112776000Y-95377000D03*
X110617000Y-93345000D03*
X95250000Y-90932000D03*
X112395000Y-89408000D03*
X119634000Y-89408000D03*
X111252000Y-97536000D03*
X117729000Y-97917000D03*
X118872000Y-97536000D03*
X139065000Y-97409000D03*
X89408000Y-97028000D03*
X88074500Y-97282000D03*
X114173000Y-92964000D03*
X114935000Y-91948000D03*
X114681000Y-95758000D03*
X144145000Y-97409000D03*
X143129000Y-96393000D03*
X88900000Y-90043000D03*
X87630000Y-90043000D03*
X90170000Y-90043000D03*
X91948000Y-89662000D03*
X126238000Y-89598500D03*
X112395000Y-93472000D03*
X113411000Y-91948000D03*
X116205000Y-92964000D03*
X111506000Y-92583000D03*
X121412000Y-97536000D03*
X122428000Y-97536000D03*
X110363000Y-95377000D03*
X163957000Y-82423000D03*
X164147500Y-100647500D03*
X79184500Y-100647500D03*
X77152500Y-94297500D03*
X77089000Y-91440000D03*
X79883000Y-84709000D03*
X161290000Y-93853000D03*
X161290000Y-98552000D03*
X80899000Y-97790000D03*
X79883000Y-88900000D03*
X133350000Y-98298000D03*
X110109000Y-97917000D03*
X102743000Y-97917000D03*
X99949000Y-97917000D03*
X97409000Y-97917000D03*
X158623000Y-96139000D03*
X111569500Y-94234000D03*
X104013000Y-89408000D03*
X108839000Y-95377000D03*
X112014000Y-90551000D03*
X164211000Y-91567000D03*
X77343000Y-82423000D03*
X154051000Y-82169000D03*
X87249000Y-82169000D03*
X97409000Y-82169000D03*
X143891000Y-82169000D03*
X110109000Y-84963000D03*
X115189000Y-84963000D03*
X126111000Y-83502500D03*
X107569000Y-82169000D03*
X117729000Y-82169000D03*
X123571000Y-82169000D03*
X133731000Y-82169000D03*
X128270000Y-98298000D03*
X143510000Y-98298000D03*
X157350000Y-86050000D03*
D12*
X156200000Y-92200000D03*
D11*
X148050000Y-86850000D03*
X155650000Y-86200000D03*
X143000000Y-86550000D03*
X140950000Y-88900000D03*
D12*
X117729000Y-91821000D03*
D14*
X87630000Y-86423500D03*
D12*
X150000000Y-94100000D03*
D14*
X137160000Y-86423500D03*
D11*
X84450000Y-84500000D03*
D14*
X145800000Y-95050000D03*
D11*
X140779500Y-92519500D03*
D12*
X151250000Y-95150000D03*
X158750000Y-92456000D03*
D14*
X148200000Y-89450000D03*
X102870000Y-83520700D03*
X146900000Y-93950000D03*
X137922000Y-84963000D03*
X153550000Y-89050000D03*
D12*
X85090000Y-91313000D03*
D11*
X148900000Y-95000000D03*
D12*
X106807000Y-92075000D03*
D13*
X103695500Y-84963000D03*
D12*
X105410000Y-91313000D03*
D14*
X144700000Y-93950000D03*
D13*
X121221500Y-84963000D03*
D14*
X87630000Y-83520700D03*
D12*
X157480000Y-91313000D03*
D11*
X158450000Y-89250000D03*
D12*
X139700000Y-91186000D03*
X83820000Y-92456000D03*
D14*
X121921449Y-83520700D03*
X137160000Y-83502500D03*
D11*
X93027500Y-96520000D03*
D12*
X119380000Y-91313000D03*
D14*
X155800000Y-89100000D03*
D12*
X155300000Y-91000000D03*
D11*
X129540000Y-90932000D03*
D12*
X152500000Y-94100000D03*
D14*
X86868000Y-84963000D03*
D11*
X146800000Y-90150000D03*
X132080000Y-90932000D03*
X100330000Y-90932000D03*
X99060000Y-90932000D03*
X133350000Y-90932000D03*
X97790000Y-90932000D03*
X134620000Y-90932000D03*
X135890000Y-90932000D03*
X96520000Y-90932000D03*
X93980000Y-88392000D03*
X135890000Y-88392000D03*
X96520000Y-88392000D03*
X134620000Y-88392000D03*
X133350000Y-88392000D03*
X97790000Y-88392000D03*
X132080000Y-88392000D03*
X99060000Y-88392000D03*
X130810000Y-88392000D03*
X100330000Y-88392000D03*
X101600000Y-90932000D03*
X130810000Y-90932000D03*
X101600000Y-88392000D03*
X128270000Y-88392000D03*
X125730000Y-90932000D03*
X115189000Y-93281500D03*
D14*
X146950000Y-92400000D03*
D11*
X147600000Y-91500000D03*
X154700000Y-86650000D03*
D12*
X150050000Y-92400000D03*
D11*
X145800000Y-91500000D03*
D12*
X153400000Y-91000000D03*
D14*
X144700000Y-92550000D03*
D12*
X152500000Y-92200000D03*
D11*
X156550000Y-86650000D03*
D12*
X151250000Y-91350000D03*
D14*
X153500000Y-87350000D03*
X155900000Y-87550000D03*
D16*
X144526000Y-97726500D02*
X145923000Y-97726500D01*
X145923000Y-97726500D02*
X146050000Y-97853500D01*
X154800000Y-96500000D02*
X158100000Y-93200000D01*
X134620000Y-98806000D02*
X135509000Y-97917000D01*
X143954500Y-97917000D02*
X144335500Y-97917000D01*
X139446000Y-97726500D02*
X143764000Y-97726500D01*
X135509000Y-97917000D02*
X139255500Y-97917000D01*
X158100000Y-93200000D02*
X158100000Y-91709000D01*
X139255500Y-97917000D02*
X139446000Y-97726500D01*
X147400000Y-96500000D02*
X154800000Y-96500000D01*
X158100000Y-91709000D02*
X158600000Y-91209000D01*
X158600000Y-91209000D02*
X158600000Y-90450000D01*
X144335500Y-97917000D02*
X144526000Y-97726500D01*
X143764000Y-97726500D02*
X143954500Y-97917000D01*
X126174500Y-90106500D02*
X127000000Y-90932000D01*
X147193000Y-97790000D02*
X148844000Y-97790000D01*
X123063000Y-92456000D02*
X125412500Y-90106500D01*
X127000000Y-90932000D02*
X132969000Y-96901000D01*
X132969000Y-96901000D02*
X146304000Y-96901000D01*
X112522000Y-92456000D02*
X123063000Y-92456000D01*
X148844000Y-97790000D02*
X149860000Y-98806000D01*
X125412500Y-90106500D02*
X126174500Y-90106500D01*
X146304000Y-96901000D02*
X147193000Y-97790000D01*
X84455000Y-93205000D02*
X86360000Y-95110000D01*
X86360000Y-95110000D02*
X86360000Y-98806000D01*
X84455000Y-89755000D02*
X84455000Y-93205000D01*
X84450000Y-89750000D02*
X84455000Y-89755000D01*
X84450000Y-86500000D02*
X84450000Y-89750000D01*
X91440000Y-88392000D02*
X90106500Y-87058500D01*
X85008500Y-87058500D02*
X84450000Y-86500000D01*
X90106500Y-87058500D02*
X85008500Y-87058500D01*
X122555000Y-87757000D02*
X102743000Y-87757000D01*
X99695000Y-88265000D02*
X99695000Y-89281000D01*
X123317000Y-86995000D02*
X122555000Y-87757000D01*
X100330000Y-90932000D02*
X100330000Y-93218000D01*
X102743000Y-87757000D02*
X102108000Y-87122000D01*
X113284000Y-96647000D02*
X114046000Y-97409000D01*
X117983000Y-97409000D02*
X119380000Y-98806000D01*
X114046000Y-97409000D02*
X117983000Y-97409000D01*
X102108000Y-87122000D02*
X100838000Y-87122000D01*
X103759000Y-96647000D02*
X113284000Y-96647000D01*
X100838000Y-87122000D02*
X99695000Y-88265000D01*
X100330000Y-93218000D02*
X103759000Y-96647000D01*
X132080000Y-90932000D02*
X131445000Y-90297000D01*
X130175000Y-86995000D02*
X123317000Y-86995000D01*
X100330000Y-89916000D02*
X100330000Y-90932000D01*
X99695000Y-89281000D02*
X100330000Y-89916000D01*
X131445000Y-90297000D02*
X131445000Y-88265000D01*
X131445000Y-88265000D02*
X130175000Y-86995000D01*
X100330000Y-86360000D02*
X98425000Y-88265000D01*
X122301000Y-86995000D02*
X102997000Y-86995000D01*
X123063000Y-86233000D02*
X122301000Y-86995000D01*
X132715000Y-90297000D02*
X132715000Y-88265000D01*
X132715000Y-88265000D02*
X130683000Y-86233000D01*
X98425000Y-89281000D02*
X99060000Y-89916000D01*
X133350000Y-90932000D02*
X132715000Y-90297000D01*
X111760000Y-98806000D02*
X110363000Y-97409000D01*
X98425000Y-88265000D02*
X98425000Y-89281000D01*
X99060000Y-92964000D02*
X99060000Y-90932000D01*
X130683000Y-86233000D02*
X123063000Y-86233000D01*
X102362000Y-86360000D02*
X100330000Y-86360000D01*
X99060000Y-89916000D02*
X99060000Y-90932000D01*
X102997000Y-86995000D02*
X102362000Y-86360000D01*
X103505000Y-97409000D02*
X99060000Y-92964000D01*
X110363000Y-97409000D02*
X103505000Y-97409000D01*
X101600000Y-98806000D02*
X97790000Y-94996000D01*
X134620000Y-90932000D02*
X133985000Y-90297000D01*
X133985000Y-88265000D02*
X131191000Y-85471000D01*
X131191000Y-85471000D02*
X122809000Y-85471000D01*
X103251000Y-86233000D02*
X102616000Y-85598000D01*
X97155000Y-89281000D02*
X97790000Y-89916000D01*
X97790000Y-94996000D02*
X97790000Y-90932000D01*
X102616000Y-85598000D02*
X99822000Y-85598000D01*
X122809000Y-85471000D02*
X122047000Y-86233000D01*
X133985000Y-90297000D02*
X133985000Y-88265000D01*
X122047000Y-86233000D02*
X103251000Y-86233000D01*
X97155000Y-88265000D02*
X97155000Y-89281000D01*
X99822000Y-85598000D02*
X97155000Y-88265000D01*
X97790000Y-89916000D02*
X97790000Y-90932000D01*
X96520000Y-89916000D02*
X95885000Y-89281000D01*
X93980000Y-98806000D02*
X96520000Y-96266000D01*
X96520000Y-96266000D02*
X96520000Y-90932000D01*
X96520000Y-90932000D02*
X96520000Y-89916000D01*
X103505000Y-85471000D02*
X121793000Y-85471000D01*
X121793000Y-85471000D02*
X122428000Y-84836000D01*
X135255000Y-88265000D02*
X135255000Y-90297000D01*
X102870000Y-84836000D02*
X103505000Y-85471000D01*
X135255000Y-90297000D02*
X135890000Y-90932000D01*
X122428000Y-84836000D02*
X131826000Y-84836000D01*
X95885000Y-88328500D02*
X99377500Y-84836000D01*
X95885000Y-89281000D02*
X95885000Y-88328500D01*
X99377500Y-84836000D02*
X102870000Y-84836000D01*
X131826000Y-84836000D02*
X135255000Y-88265000D01*
X97917000Y-84455000D02*
X93980000Y-88392000D01*
X132080000Y-84455000D02*
X97917000Y-84455000D01*
X93980000Y-96266000D02*
X91440000Y-98806000D01*
X135890000Y-88392000D02*
X135890000Y-88265000D01*
X135890000Y-88265000D02*
X132080000Y-84455000D01*
X93980000Y-88392000D02*
X93980000Y-96266000D01*
X97155000Y-89916000D02*
X96520000Y-89281000D01*
X122618500Y-85153500D02*
X131508500Y-85153500D01*
X134620000Y-88265000D02*
X134620000Y-88392000D01*
X99568000Y-85217000D02*
X102743000Y-85217000D01*
X131508500Y-85153500D02*
X134620000Y-88265000D01*
X102743000Y-85217000D02*
X103378000Y-85852000D01*
X97155000Y-96901000D02*
X97155000Y-89916000D01*
X121920000Y-85852000D02*
X122618500Y-85153500D01*
X96520000Y-88265000D02*
X99568000Y-85217000D01*
X99060000Y-98806000D02*
X97155000Y-96901000D01*
X96520000Y-88392000D02*
X96520000Y-88265000D01*
X96520000Y-89281000D02*
X96520000Y-88392000D01*
X103378000Y-85852000D02*
X121920000Y-85852000D01*
X98425000Y-92837000D02*
X98425000Y-89916000D01*
X133350000Y-88265000D02*
X130937000Y-85852000D01*
X122936000Y-85852000D02*
X122174000Y-86614000D01*
X108204000Y-97790000D02*
X103378000Y-97790000D01*
X130937000Y-85852000D02*
X122936000Y-85852000D01*
X98425000Y-89916000D02*
X97790000Y-89281000D01*
X103124000Y-86614000D02*
X102489000Y-85979000D01*
X122174000Y-86614000D02*
X103124000Y-86614000D01*
X133350000Y-88392000D02*
X133350000Y-88265000D01*
X109220000Y-98806000D02*
X108204000Y-97790000D01*
X97790000Y-88265000D02*
X97790000Y-88392000D01*
X100076000Y-85979000D02*
X97790000Y-88265000D01*
X102489000Y-85979000D02*
X100076000Y-85979000D01*
X103378000Y-97790000D02*
X98425000Y-92837000D01*
X97790000Y-89281000D02*
X97790000Y-88392000D01*
X99695000Y-93091000D02*
X103632000Y-97028000D01*
X99060000Y-88392000D02*
X99060000Y-89281000D01*
X103632000Y-97028000D02*
X113157000Y-97028000D01*
X100584000Y-86741000D02*
X102235000Y-86741000D01*
X99060000Y-89281000D02*
X99695000Y-89916000D01*
X115824000Y-97790000D02*
X116840000Y-98806000D01*
X99060000Y-88392000D02*
X99060000Y-88265000D01*
X113157000Y-97028000D02*
X113919000Y-97790000D01*
X102235000Y-86741000D02*
X102870000Y-87376000D01*
X99695000Y-89916000D02*
X99695000Y-93091000D01*
X102870000Y-87376000D02*
X122428000Y-87376000D01*
X99060000Y-88265000D02*
X100584000Y-86741000D01*
X122428000Y-87376000D02*
X123190000Y-86614000D01*
X130429000Y-86614000D02*
X132080000Y-88265000D01*
X113919000Y-97790000D02*
X115824000Y-97790000D01*
X123190000Y-86614000D02*
X130429000Y-86614000D01*
X132080000Y-88265000D02*
X132080000Y-88392000D01*
X100330000Y-89281000D02*
X100330000Y-88392000D01*
X100330000Y-88265000D02*
X101092000Y-87503000D01*
X130810000Y-88265000D02*
X130810000Y-88392000D01*
X101092000Y-87503000D02*
X101981000Y-87503000D01*
X100330000Y-88392000D02*
X100330000Y-88265000D01*
X100965000Y-89916000D02*
X100330000Y-89281000D01*
X100965000Y-93345000D02*
X100965000Y-89916000D01*
X102616000Y-88138000D02*
X122682000Y-88138000D01*
X129921000Y-87376000D02*
X130810000Y-88265000D01*
X124460000Y-98806000D02*
X122682000Y-97028000D01*
X101981000Y-87503000D02*
X102616000Y-88138000D01*
X122682000Y-97028000D02*
X114173000Y-97028000D01*
X103886000Y-96266000D02*
X100965000Y-93345000D01*
X114173000Y-97028000D02*
X113411000Y-96266000D01*
X113411000Y-96266000D02*
X103886000Y-96266000D01*
X123444000Y-87376000D02*
X129921000Y-87376000D01*
X122682000Y-88138000D02*
X123444000Y-87376000D01*
X123571000Y-87757000D02*
X129667000Y-87757000D01*
X129667000Y-87757000D02*
X130175000Y-88265000D01*
X101600000Y-93472000D02*
X101600000Y-90932000D01*
X130175000Y-88265000D02*
X130175000Y-90297000D01*
X122809000Y-88519000D02*
X123571000Y-87757000D01*
X130175000Y-90297000D02*
X130810000Y-90932000D01*
X102489000Y-88519000D02*
X122809000Y-88519000D01*
X127000000Y-98806000D02*
X124841000Y-96647000D01*
X100965000Y-89281000D02*
X100965000Y-88138000D01*
X101600000Y-90932000D02*
X101600000Y-89916000D01*
X113538000Y-95885000D02*
X104013000Y-95885000D01*
X100965000Y-88138000D02*
X101219000Y-87884000D01*
X101854000Y-87884000D02*
X102489000Y-88519000D01*
X104013000Y-95885000D02*
X101600000Y-93472000D01*
X101219000Y-87884000D02*
X101854000Y-87884000D01*
X114300000Y-96647000D02*
X113538000Y-95885000D01*
X124841000Y-96647000D02*
X114300000Y-96647000D01*
X101600000Y-89916000D02*
X100965000Y-89281000D01*
X102489000Y-88900000D02*
X122936000Y-88900000D01*
X128270000Y-97536000D02*
X129540000Y-98806000D01*
X102489000Y-89281000D02*
X103632000Y-90424000D01*
X102362000Y-88900000D02*
X102362000Y-89027000D01*
X128016000Y-88138000D02*
X128270000Y-88392000D01*
X122936000Y-88900000D02*
X123698000Y-88138000D01*
X102489000Y-89281000D02*
X102489000Y-89154000D01*
X102489000Y-88900000D02*
X102362000Y-88900000D01*
X103632000Y-90424000D02*
X108585000Y-90424000D01*
X114427000Y-96266000D02*
X127000000Y-96266000D01*
X102362000Y-89027000D02*
X102489000Y-89154000D01*
X102489000Y-89154000D02*
X102489000Y-88900000D01*
X123698000Y-88138000D02*
X128016000Y-88138000D01*
X102108000Y-88900000D02*
X102489000Y-89281000D01*
X102362000Y-88900000D02*
X102108000Y-88900000D01*
X108585000Y-90424000D02*
X114427000Y-96266000D01*
X127000000Y-96266000D02*
X128270000Y-97536000D01*
X102108000Y-88900000D02*
X101600000Y-88392000D01*
X115506500Y-93599000D02*
X116268500Y-93599000D01*
X115189000Y-93281500D02*
X115506500Y-93599000D01*
X116776500Y-93091000D02*
X123571000Y-93091000D01*
X123571000Y-93091000D02*
X125730000Y-90932000D01*
X116268500Y-93599000D02*
X116776500Y-93091000D01*
G04 #@! TA.AperFunction,Conductor*
G36*
X156987000Y-85466881D02*
G01*
X157033119Y-85513000D01*
X157050000Y-85576000D01*
X157050000Y-85722366D01*
X157040409Y-85770584D01*
X157020559Y-85800289D01*
X156958191Y-85922693D01*
X156938027Y-86049999D01*
X156958191Y-86177306D01*
X157020559Y-86299710D01*
X157040409Y-86329416D01*
X157050000Y-86377634D01*
X157050000Y-90922378D01*
X157043313Y-90962879D01*
X157023963Y-90999082D01*
X156997042Y-91034165D01*
X156941330Y-91168664D01*
X156922329Y-91313000D01*
X156941330Y-91457335D01*
X156997042Y-91591835D01*
X157023963Y-91626919D01*
X157043313Y-91663122D01*
X157050000Y-91703623D01*
X157050000Y-92924000D01*
X157033119Y-92987000D01*
X156987000Y-93033119D01*
X156924000Y-93050000D01*
X144326000Y-93050000D01*
X144263000Y-93033119D01*
X144216881Y-92987000D01*
X144200000Y-92924000D01*
X144200000Y-92200000D01*
X155642329Y-92200000D01*
X155661330Y-92344335D01*
X155717043Y-92478837D01*
X155805666Y-92594333D01*
X155921162Y-92682956D01*
X155921163Y-92682956D01*
X155921164Y-92682957D01*
X156055664Y-92738669D01*
X156200000Y-92757671D01*
X156344336Y-92738669D01*
X156478836Y-92682957D01*
X156594333Y-92594333D01*
X156682957Y-92478836D01*
X156738669Y-92344336D01*
X156757671Y-92200000D01*
X156738669Y-92055664D01*
X156682957Y-91921165D01*
X156682956Y-91921164D01*
X156682956Y-91921163D01*
X156594332Y-91805666D01*
X156478837Y-91717043D01*
X156344335Y-91661330D01*
X156200000Y-91642329D01*
X156055664Y-91661330D01*
X155921163Y-91717043D01*
X155805666Y-91805666D01*
X155717043Y-91921163D01*
X155661330Y-92055664D01*
X155642329Y-92200000D01*
X144200000Y-92200000D01*
X144200000Y-91000000D01*
X154742329Y-91000000D01*
X154761330Y-91144335D01*
X154817043Y-91278837D01*
X154905666Y-91394333D01*
X155021162Y-91482956D01*
X155021163Y-91482956D01*
X155021164Y-91482957D01*
X155155664Y-91538669D01*
X155300000Y-91557671D01*
X155444336Y-91538669D01*
X155578836Y-91482957D01*
X155694333Y-91394333D01*
X155782957Y-91278836D01*
X155838669Y-91144336D01*
X155857671Y-91000000D01*
X155838669Y-90855664D01*
X155782957Y-90721165D01*
X155782956Y-90721164D01*
X155782956Y-90721163D01*
X155694332Y-90605666D01*
X155578837Y-90517043D01*
X155444335Y-90461330D01*
X155300000Y-90442329D01*
X155155664Y-90461330D01*
X155021163Y-90517043D01*
X154905666Y-90605666D01*
X154817043Y-90721163D01*
X154761330Y-90855664D01*
X154742329Y-91000000D01*
X144200000Y-91000000D01*
X144200000Y-90150000D01*
X146388027Y-90150000D01*
X146408191Y-90277306D01*
X146466709Y-90392153D01*
X146557846Y-90483290D01*
X146557848Y-90483291D01*
X146557849Y-90483292D01*
X146672694Y-90541809D01*
X146800000Y-90561972D01*
X146927306Y-90541809D01*
X147042151Y-90483292D01*
X147133292Y-90392151D01*
X147191809Y-90277306D01*
X147211972Y-90150000D01*
X147191809Y-90022694D01*
X147133292Y-89907849D01*
X147133291Y-89907848D01*
X147133290Y-89907846D01*
X147042153Y-89816709D01*
X146927306Y-89758191D01*
X146800000Y-89738027D01*
X146672693Y-89758191D01*
X146557846Y-89816709D01*
X146466709Y-89907846D01*
X146408191Y-90022693D01*
X146388027Y-90150000D01*
X144200000Y-90150000D01*
X144200000Y-89450000D01*
X147742442Y-89450000D01*
X147760976Y-89578908D01*
X147815078Y-89697372D01*
X147815079Y-89697374D01*
X147900364Y-89795799D01*
X148009924Y-89866208D01*
X148134883Y-89902900D01*
X148265116Y-89902900D01*
X148265117Y-89902900D01*
X148390076Y-89866208D01*
X148499636Y-89795799D01*
X148584921Y-89697374D01*
X148639023Y-89578909D01*
X148657557Y-89450000D01*
X148639023Y-89321091D01*
X148584921Y-89202626D01*
X148499636Y-89104201D01*
X148415295Y-89049999D01*
X153092442Y-89049999D01*
X153110976Y-89178908D01*
X153165078Y-89297372D01*
X153165079Y-89297374D01*
X153250364Y-89395799D01*
X153359924Y-89466208D01*
X153484883Y-89502900D01*
X153615116Y-89502900D01*
X153615117Y-89502900D01*
X153740076Y-89466208D01*
X153849636Y-89395799D01*
X153934921Y-89297374D01*
X153989023Y-89178909D01*
X154000368Y-89100000D01*
X155342442Y-89100000D01*
X155360976Y-89228908D01*
X155392243Y-89297372D01*
X155415079Y-89347374D01*
X155500364Y-89445799D01*
X155609924Y-89516208D01*
X155734883Y-89552900D01*
X155865116Y-89552900D01*
X155865117Y-89552900D01*
X155990076Y-89516208D01*
X156099636Y-89445799D01*
X156184921Y-89347374D01*
X156239023Y-89228909D01*
X156257557Y-89100000D01*
X156239023Y-88971091D01*
X156184921Y-88852626D01*
X156099636Y-88754201D01*
X155990076Y-88683792D01*
X155990075Y-88683791D01*
X155990074Y-88683791D01*
X155917060Y-88662352D01*
X155865117Y-88647100D01*
X155734883Y-88647100D01*
X155698191Y-88657873D01*
X155609925Y-88683791D01*
X155500363Y-88754201D01*
X155415078Y-88852627D01*
X155360976Y-88971091D01*
X155342442Y-89100000D01*
X154000368Y-89100000D01*
X154007557Y-89050000D01*
X153989023Y-88921091D01*
X153934921Y-88802626D01*
X153849636Y-88704201D01*
X153740076Y-88633792D01*
X153740075Y-88633791D01*
X153740074Y-88633791D01*
X153667060Y-88612352D01*
X153615117Y-88597100D01*
X153484883Y-88597100D01*
X153448192Y-88607873D01*
X153359925Y-88633791D01*
X153250363Y-88704201D01*
X153165078Y-88802627D01*
X153110976Y-88921091D01*
X153092442Y-89049999D01*
X148415295Y-89049999D01*
X148390076Y-89033792D01*
X148390075Y-89033791D01*
X148390074Y-89033791D01*
X148317060Y-89012352D01*
X148265117Y-88997100D01*
X148134883Y-88997100D01*
X148098191Y-89007873D01*
X148009925Y-89033791D01*
X147900363Y-89104201D01*
X147815078Y-89202627D01*
X147760976Y-89321091D01*
X147742442Y-89450000D01*
X144200000Y-89450000D01*
X144200000Y-86849999D01*
X147638027Y-86849999D01*
X147658191Y-86977306D01*
X147716709Y-87092153D01*
X147807846Y-87183290D01*
X147807848Y-87183291D01*
X147807849Y-87183292D01*
X147922694Y-87241809D01*
X148050000Y-87261972D01*
X148177306Y-87241809D01*
X148292151Y-87183292D01*
X148383292Y-87092151D01*
X148441809Y-86977306D01*
X148461972Y-86850000D01*
X148441809Y-86722694D01*
X148383292Y-86607849D01*
X148383291Y-86607848D01*
X148383290Y-86607846D01*
X148292153Y-86516709D01*
X148177306Y-86458191D01*
X148050000Y-86438027D01*
X147922693Y-86458191D01*
X147807846Y-86516709D01*
X147716709Y-86607846D01*
X147658191Y-86722693D01*
X147638027Y-86849999D01*
X144200000Y-86849999D01*
X144200000Y-86199999D01*
X155238027Y-86199999D01*
X155258191Y-86327306D01*
X155316709Y-86442153D01*
X155407846Y-86533290D01*
X155407848Y-86533291D01*
X155407849Y-86533292D01*
X155522694Y-86591809D01*
X155650000Y-86611972D01*
X155777306Y-86591809D01*
X155892151Y-86533292D01*
X155983292Y-86442151D01*
X156041809Y-86327306D01*
X156061972Y-86200000D01*
X156041809Y-86072694D01*
X155983292Y-85957849D01*
X155983291Y-85957848D01*
X155983290Y-85957846D01*
X155892153Y-85866709D01*
X155777306Y-85808191D01*
X155650000Y-85788027D01*
X155522693Y-85808191D01*
X155407846Y-85866709D01*
X155316709Y-85957846D01*
X155258191Y-86072693D01*
X155238027Y-86199999D01*
X144200000Y-86199999D01*
X144200000Y-85576000D01*
X144216881Y-85513000D01*
X144263000Y-85466881D01*
X144326000Y-85450000D01*
X156924000Y-85450000D01*
X156987000Y-85466881D01*
G37*
G04 #@! TD.AperFunction*
G04 #@! TA.AperFunction,Conductor*
G36*
X101322474Y-88689918D02*
G01*
X101357846Y-88725290D01*
X101357848Y-88725291D01*
X101357849Y-88725292D01*
X101472694Y-88783809D01*
X101600000Y-88803972D01*
X101638106Y-88797936D01*
X101673103Y-88800690D01*
X101703040Y-88819036D01*
X101940359Y-89056355D01*
X101943069Y-89059210D01*
X101974352Y-89093953D01*
X101985882Y-89101878D01*
X102310064Y-89426060D01*
X102317728Y-89435032D01*
X102332278Y-89455059D01*
X102339756Y-89459376D01*
X102355331Y-89471327D01*
X103464368Y-90580365D01*
X103467078Y-90583220D01*
X103484783Y-90602883D01*
X103494330Y-90613486D01*
X103516941Y-90623553D01*
X103527302Y-90629179D01*
X103548063Y-90642661D01*
X103556587Y-90644011D01*
X103575410Y-90649586D01*
X103580145Y-90651694D01*
X103583303Y-90653100D01*
X103608054Y-90653100D01*
X103619817Y-90654025D01*
X103629639Y-90655581D01*
X103644257Y-90657897D01*
X103644257Y-90657896D01*
X103644258Y-90657897D01*
X103652599Y-90655661D01*
X103672062Y-90653100D01*
X108458956Y-90653100D01*
X108487734Y-90658824D01*
X108512130Y-90675126D01*
X113364530Y-95527526D01*
X113385111Y-95566029D01*
X113380832Y-95609478D01*
X113353135Y-95643227D01*
X113311356Y-95655900D01*
X104139044Y-95655900D01*
X104110266Y-95650176D01*
X104085870Y-95633874D01*
X103447996Y-94996000D01*
X104998028Y-94996000D01*
X105018190Y-95123305D01*
X105076709Y-95238153D01*
X105167846Y-95329290D01*
X105167848Y-95329291D01*
X105167849Y-95329292D01*
X105282694Y-95387809D01*
X105410000Y-95407972D01*
X105537306Y-95387809D01*
X105652151Y-95329292D01*
X105743292Y-95238151D01*
X105801809Y-95123306D01*
X105821972Y-94996000D01*
X105801809Y-94868694D01*
X105743292Y-94753849D01*
X105743291Y-94753848D01*
X105743290Y-94753846D01*
X105652153Y-94662709D01*
X105537305Y-94604190D01*
X105410000Y-94584028D01*
X105282694Y-94604190D01*
X105167846Y-94662709D01*
X105076709Y-94753846D01*
X105018190Y-94868694D01*
X104998028Y-94996000D01*
X103447996Y-94996000D01*
X103341228Y-94889232D01*
X103320700Y-94850992D01*
X103324722Y-94807777D01*
X103351956Y-94773983D01*
X103393328Y-94760866D01*
X103435056Y-94772794D01*
X103441924Y-94777208D01*
X103566883Y-94813900D01*
X103697116Y-94813900D01*
X103697117Y-94813900D01*
X103822076Y-94777208D01*
X103931636Y-94706799D01*
X104016921Y-94608374D01*
X104071023Y-94489909D01*
X104089557Y-94361000D01*
X104071023Y-94232091D01*
X104016921Y-94113626D01*
X104011179Y-94106999D01*
X106122329Y-94106999D01*
X106141331Y-94251336D01*
X106197043Y-94385837D01*
X106201751Y-94391972D01*
X106285667Y-94501333D01*
X106360924Y-94559080D01*
X106401162Y-94589956D01*
X106401163Y-94589956D01*
X106401164Y-94589957D01*
X106535664Y-94645669D01*
X106680000Y-94664671D01*
X106824336Y-94645669D01*
X106958836Y-94589957D01*
X107074333Y-94501333D01*
X107162957Y-94385836D01*
X107218669Y-94251336D01*
X107237671Y-94107000D01*
X107218669Y-93962664D01*
X107162957Y-93828165D01*
X107074333Y-93712667D01*
X106988374Y-93646708D01*
X106958837Y-93624043D01*
X106824336Y-93568331D01*
X106680000Y-93549329D01*
X106535664Y-93568331D01*
X106401164Y-93624043D01*
X106285667Y-93712667D01*
X106197043Y-93828164D01*
X106141331Y-93962664D01*
X106122329Y-94106999D01*
X104011179Y-94106999D01*
X103931636Y-94015201D01*
X103822076Y-93944792D01*
X103822075Y-93944791D01*
X103822074Y-93944791D01*
X103749060Y-93923352D01*
X103697117Y-93908100D01*
X103566883Y-93908100D01*
X103530192Y-93918873D01*
X103441925Y-93944791D01*
X103414114Y-93962664D01*
X103332364Y-94015201D01*
X103332363Y-94015201D01*
X103332363Y-94015202D01*
X103247078Y-94113626D01*
X103192977Y-94232089D01*
X103174443Y-94360999D01*
X103192977Y-94489911D01*
X103230869Y-94572882D01*
X103234986Y-94624016D01*
X103205353Y-94665892D01*
X103155762Y-94679022D01*
X103109291Y-94657295D01*
X102953329Y-94501333D01*
X101851126Y-93399129D01*
X101834824Y-93374733D01*
X101829100Y-93345955D01*
X101829100Y-92900500D01*
X102412443Y-92900500D01*
X102430977Y-93029410D01*
X102485078Y-93147873D01*
X102485079Y-93147874D01*
X102570364Y-93246299D01*
X102679924Y-93316708D01*
X102804883Y-93353400D01*
X102935116Y-93353400D01*
X102935117Y-93353400D01*
X103060076Y-93316708D01*
X103169636Y-93246299D01*
X103254921Y-93147874D01*
X103309023Y-93029409D01*
X103327557Y-92900500D01*
X103309023Y-92771591D01*
X103254921Y-92653126D01*
X103169636Y-92554701D01*
X103060076Y-92484292D01*
X103060075Y-92484291D01*
X103060074Y-92484291D01*
X102963724Y-92456000D01*
X102935117Y-92447600D01*
X102804883Y-92447600D01*
X102776276Y-92456000D01*
X102679925Y-92484291D01*
X102674554Y-92487743D01*
X102570364Y-92554701D01*
X102570363Y-92554701D01*
X102570363Y-92554702D01*
X102485078Y-92653126D01*
X102430977Y-92771589D01*
X102412443Y-92900500D01*
X101829100Y-92900500D01*
X101829100Y-91309492D01*
X101834824Y-91280714D01*
X101851126Y-91256318D01*
X101933290Y-91174153D01*
X101933289Y-91174153D01*
X101933292Y-91174151D01*
X101991809Y-91059306D01*
X102011972Y-90932000D01*
X101991809Y-90804694D01*
X101933292Y-90689849D01*
X101933291Y-90689848D01*
X101933290Y-90689846D01*
X101851126Y-90607682D01*
X101834824Y-90583286D01*
X101829100Y-90554508D01*
X101829100Y-89923980D01*
X101829203Y-89920044D01*
X101831335Y-89879360D01*
X101822465Y-89856254D01*
X101819112Y-89844935D01*
X101818829Y-89843605D01*
X101813969Y-89820735D01*
X101808894Y-89813750D01*
X101799527Y-89796500D01*
X101796432Y-89788436D01*
X101778925Y-89770929D01*
X101771267Y-89761962D01*
X101769132Y-89759024D01*
X101756722Y-89741942D01*
X101749239Y-89737621D01*
X101733669Y-89725673D01*
X101216126Y-89208129D01*
X101199824Y-89183733D01*
X101194100Y-89154955D01*
X101194100Y-88743092D01*
X101206773Y-88701313D01*
X101240522Y-88673616D01*
X101283971Y-88669337D01*
X101322474Y-88689918D01*
G37*
G04 #@! TD.AperFunction*
G04 #@! TA.AperFunction,Conductor*
G36*
X122116134Y-84696773D02*
G01*
X122143831Y-84730522D01*
X122148110Y-84773971D01*
X122127529Y-84812474D01*
X121720129Y-85219874D01*
X121695733Y-85236176D01*
X121666955Y-85241900D01*
X103631044Y-85241900D01*
X103602266Y-85236176D01*
X103577870Y-85219874D01*
X103170471Y-84812474D01*
X103149890Y-84773971D01*
X103154169Y-84730522D01*
X103181866Y-84696773D01*
X103223645Y-84684100D01*
X122074355Y-84684100D01*
X122116134Y-84696773D01*
G37*
G04 #@! TD.AperFunction*
G04 #@! TA.AperFunction,Conductor*
G36*
X156217509Y-91803896D02*
G01*
X156293301Y-91813873D01*
X156312257Y-91818952D01*
X156390061Y-91851179D01*
X156407057Y-91860992D01*
X156437691Y-91884499D01*
X156473863Y-91912255D01*
X156487744Y-91926136D01*
X156539002Y-91992936D01*
X156548818Y-92009937D01*
X156581044Y-92087737D01*
X156586125Y-92106700D01*
X156597115Y-92190184D01*
X156597115Y-92209814D01*
X156586125Y-92293299D01*
X156581044Y-92312262D01*
X156548819Y-92390059D01*
X156539003Y-92407060D01*
X156487743Y-92473862D01*
X156473862Y-92487743D01*
X156407060Y-92539003D01*
X156390059Y-92548819D01*
X156312262Y-92581044D01*
X156293299Y-92586125D01*
X156209814Y-92597115D01*
X156190184Y-92597115D01*
X156106699Y-92586125D01*
X156087736Y-92581044D01*
X156009941Y-92548820D01*
X155992940Y-92539004D01*
X155926135Y-92487743D01*
X155912253Y-92473861D01*
X155860991Y-92407054D01*
X155851179Y-92390059D01*
X155818951Y-92312257D01*
X155813873Y-92293301D01*
X155802883Y-92209813D01*
X155802883Y-92190185D01*
X155805615Y-92169429D01*
X155813873Y-92106695D01*
X155818951Y-92087742D01*
X155851181Y-92009932D01*
X155860990Y-91992943D01*
X155912255Y-91926133D01*
X155926133Y-91912255D01*
X155992943Y-91860990D01*
X156009932Y-91851181D01*
X156087742Y-91818951D01*
X156106695Y-91813873D01*
X156182489Y-91803896D01*
X156190185Y-91802883D01*
X156209813Y-91802883D01*
X156217509Y-91803896D01*
G37*
G04 #@! TD.AperFunction*
G04 #@! TA.AperFunction,Conductor*
G36*
X155322481Y-90604550D02*
G01*
X155393301Y-90613873D01*
X155412257Y-90618952D01*
X155490061Y-90651179D01*
X155507059Y-90660994D01*
X155573863Y-90712255D01*
X155587744Y-90726136D01*
X155639002Y-90792936D01*
X155648818Y-90809937D01*
X155681044Y-90887737D01*
X155686125Y-90906700D01*
X155697115Y-90990184D01*
X155697115Y-91009814D01*
X155686125Y-91093299D01*
X155681044Y-91112262D01*
X155648819Y-91190059D01*
X155639003Y-91207060D01*
X155587743Y-91273862D01*
X155573862Y-91287743D01*
X155507060Y-91339003D01*
X155490059Y-91348819D01*
X155412262Y-91381044D01*
X155393299Y-91386125D01*
X155309814Y-91397115D01*
X155290184Y-91397115D01*
X155206699Y-91386125D01*
X155187736Y-91381044D01*
X155109941Y-91348820D01*
X155092940Y-91339004D01*
X155026135Y-91287743D01*
X155012253Y-91273861D01*
X154998792Y-91256318D01*
X154960990Y-91207053D01*
X154951179Y-91190059D01*
X154918951Y-91112257D01*
X154913873Y-91093301D01*
X154902883Y-91009813D01*
X154902883Y-90990185D01*
X154904149Y-90980564D01*
X154913873Y-90906695D01*
X154918951Y-90887742D01*
X154951181Y-90809932D01*
X154960990Y-90792943D01*
X155012255Y-90726133D01*
X155026133Y-90712255D01*
X155092943Y-90660990D01*
X155109932Y-90651181D01*
X155187742Y-90618951D01*
X155206695Y-90613873D01*
X155280564Y-90604149D01*
X155290185Y-90602883D01*
X155309813Y-90602883D01*
X155322481Y-90604550D01*
G37*
G04 #@! TD.AperFunction*
G04 #@! TA.AperFunction,Conductor*
G36*
X146866142Y-89908371D02*
G01*
X146888509Y-89915638D01*
X146937577Y-89940640D01*
X146956607Y-89954467D01*
X146995531Y-89993391D01*
X147009360Y-90012424D01*
X147034357Y-90061482D01*
X147041628Y-90083860D01*
X147050240Y-90138236D01*
X147050240Y-90161762D01*
X147041628Y-90216138D01*
X147034357Y-90238516D01*
X147009361Y-90287572D01*
X146995532Y-90306605D01*
X146956605Y-90345532D01*
X146937572Y-90359361D01*
X146888516Y-90384357D01*
X146866138Y-90391628D01*
X146811762Y-90400240D01*
X146788237Y-90400240D01*
X146733859Y-90391627D01*
X146711483Y-90384357D01*
X146662427Y-90359361D01*
X146643394Y-90345532D01*
X146604467Y-90306605D01*
X146590638Y-90287572D01*
X146580478Y-90267633D01*
X146565640Y-90238512D01*
X146558371Y-90216140D01*
X146549758Y-90161761D01*
X146549758Y-90138236D01*
X146558371Y-90083853D01*
X146565638Y-90061490D01*
X146590642Y-90012416D01*
X146604464Y-89993393D01*
X146643393Y-89954464D01*
X146662416Y-89940642D01*
X146711490Y-89915638D01*
X146733853Y-89908371D01*
X146788237Y-89899758D01*
X146811761Y-89899758D01*
X146866142Y-89908371D01*
G37*
G04 #@! TD.AperFunction*
G04 #@! TA.AperFunction,Conductor*
G36*
X148252788Y-89158046D02*
G01*
X148313433Y-89175853D01*
X148332903Y-89184745D01*
X148386074Y-89218916D01*
X148402249Y-89232931D01*
X148433761Y-89269298D01*
X148443639Y-89280698D01*
X148455210Y-89298703D01*
X148481468Y-89356198D01*
X148487499Y-89376736D01*
X148496494Y-89439297D01*
X148496494Y-89460701D01*
X148487499Y-89523262D01*
X148481468Y-89543800D01*
X148455210Y-89601295D01*
X148443638Y-89619300D01*
X148402247Y-89667068D01*
X148386072Y-89681085D01*
X148332908Y-89715252D01*
X148313438Y-89724144D01*
X148252786Y-89741954D01*
X148231599Y-89745000D01*
X148168400Y-89745000D01*
X148147213Y-89741954D01*
X148147172Y-89741942D01*
X148115609Y-89732674D01*
X148086560Y-89724144D01*
X148067091Y-89715252D01*
X148042604Y-89699515D01*
X148013924Y-89681083D01*
X147997752Y-89667071D01*
X147956354Y-89619296D01*
X147944785Y-89601293D01*
X147918529Y-89543800D01*
X147912500Y-89523271D01*
X147903503Y-89460695D01*
X147903504Y-89439295D01*
X147912500Y-89376730D01*
X147918529Y-89356198D01*
X147944786Y-89298702D01*
X147956351Y-89280706D01*
X147997750Y-89232928D01*
X148013923Y-89218916D01*
X148067099Y-89184742D01*
X148086564Y-89175853D01*
X148147212Y-89158045D01*
X148168398Y-89155000D01*
X148231602Y-89155000D01*
X148252788Y-89158046D01*
G37*
G04 #@! TD.AperFunction*
G04 #@! TA.AperFunction,Conductor*
G36*
X155852787Y-88808045D02*
G01*
X155913432Y-88825853D01*
X155932900Y-88834744D01*
X155986073Y-88868915D01*
X156002251Y-88882933D01*
X156043639Y-88930698D01*
X156055210Y-88948703D01*
X156081468Y-89006198D01*
X156087499Y-89026736D01*
X156096494Y-89089297D01*
X156096494Y-89110701D01*
X156087499Y-89173262D01*
X156081468Y-89193800D01*
X156055210Y-89251295D01*
X156043638Y-89269300D01*
X156002247Y-89317068D01*
X155986072Y-89331085D01*
X155932908Y-89365252D01*
X155913438Y-89374144D01*
X155852786Y-89391954D01*
X155831599Y-89395000D01*
X155768400Y-89395000D01*
X155747213Y-89391954D01*
X155686560Y-89374144D01*
X155667091Y-89365252D01*
X155653003Y-89356198D01*
X155613924Y-89331083D01*
X155597752Y-89317071D01*
X155556354Y-89269296D01*
X155544785Y-89251293D01*
X155518529Y-89193800D01*
X155512500Y-89173271D01*
X155503503Y-89110695D01*
X155503504Y-89089295D01*
X155512500Y-89026730D01*
X155518529Y-89006198D01*
X155544786Y-88948702D01*
X155556351Y-88930706D01*
X155597750Y-88882928D01*
X155613920Y-88868917D01*
X155667099Y-88834742D01*
X155686564Y-88825853D01*
X155747212Y-88808045D01*
X155768398Y-88805000D01*
X155831601Y-88805000D01*
X155852787Y-88808045D01*
G37*
G04 #@! TD.AperFunction*
G04 #@! TA.AperFunction,Conductor*
G36*
X153602787Y-88758045D02*
G01*
X153663432Y-88775853D01*
X153682900Y-88784744D01*
X153736073Y-88818915D01*
X153752249Y-88832931D01*
X153788495Y-88874762D01*
X153793639Y-88880698D01*
X153805210Y-88898703D01*
X153831468Y-88956198D01*
X153837499Y-88976736D01*
X153846494Y-89039297D01*
X153846494Y-89060698D01*
X153844975Y-89071265D01*
X153844075Y-89077528D01*
X153844075Y-89077529D01*
X153840844Y-89099999D01*
X153840842Y-89100005D01*
X153837498Y-89123263D01*
X153831468Y-89143800D01*
X153805210Y-89201295D01*
X153793638Y-89219300D01*
X153752247Y-89267068D01*
X153736072Y-89281085D01*
X153682908Y-89315252D01*
X153663438Y-89324144D01*
X153602786Y-89341954D01*
X153581599Y-89345000D01*
X153518400Y-89345000D01*
X153497213Y-89341954D01*
X153436560Y-89324144D01*
X153417091Y-89315252D01*
X153376043Y-89288872D01*
X153363924Y-89281083D01*
X153347752Y-89267071D01*
X153306354Y-89219296D01*
X153294785Y-89201293D01*
X153268529Y-89143800D01*
X153262500Y-89123267D01*
X153253504Y-89060702D01*
X153253503Y-89039302D01*
X153262500Y-88976724D01*
X153268529Y-88956198D01*
X153294786Y-88898702D01*
X153306351Y-88880706D01*
X153347750Y-88832928D01*
X153363920Y-88818917D01*
X153417099Y-88784742D01*
X153436564Y-88775853D01*
X153497212Y-88758045D01*
X153518398Y-88755000D01*
X153581601Y-88755000D01*
X153602787Y-88758045D01*
G37*
G04 #@! TD.AperFunction*
G04 #@! TA.AperFunction,Conductor*
G36*
X148116142Y-86608371D02*
G01*
X148138509Y-86615638D01*
X148187577Y-86640640D01*
X148206607Y-86654467D01*
X148245531Y-86693391D01*
X148259360Y-86712424D01*
X148284357Y-86761482D01*
X148291628Y-86783859D01*
X148300240Y-86838234D01*
X148300240Y-86861761D01*
X148291628Y-86916138D01*
X148284357Y-86938516D01*
X148259361Y-86987572D01*
X148245532Y-87006605D01*
X148206605Y-87045532D01*
X148187572Y-87059361D01*
X148138516Y-87084357D01*
X148116138Y-87091628D01*
X148061762Y-87100240D01*
X148038237Y-87100240D01*
X147983859Y-87091627D01*
X147961483Y-87084357D01*
X147912427Y-87059361D01*
X147893394Y-87045532D01*
X147854467Y-87006605D01*
X147840638Y-86987572D01*
X147815641Y-86938514D01*
X147808371Y-86916140D01*
X147799758Y-86861761D01*
X147799758Y-86838236D01*
X147799758Y-86838234D01*
X147808371Y-86783853D01*
X147815638Y-86761490D01*
X147840642Y-86712416D01*
X147854464Y-86693393D01*
X147893393Y-86654464D01*
X147912416Y-86640642D01*
X147961490Y-86615638D01*
X147983853Y-86608371D01*
X148038237Y-86599758D01*
X148061761Y-86599758D01*
X148116142Y-86608371D01*
G37*
G04 #@! TD.AperFunction*
G04 #@! TA.AperFunction,Conductor*
G36*
X155716142Y-85958371D02*
G01*
X155738509Y-85965638D01*
X155787577Y-85990640D01*
X155806607Y-86004467D01*
X155845531Y-86043391D01*
X155859360Y-86062424D01*
X155884357Y-86111482D01*
X155891628Y-86133859D01*
X155900240Y-86188234D01*
X155900240Y-86211761D01*
X155891628Y-86266138D01*
X155884357Y-86288516D01*
X155859361Y-86337572D01*
X155845532Y-86356605D01*
X155806605Y-86395532D01*
X155787572Y-86409361D01*
X155738516Y-86434357D01*
X155716138Y-86441628D01*
X155661762Y-86450240D01*
X155638237Y-86450240D01*
X155583859Y-86441627D01*
X155561483Y-86434357D01*
X155512427Y-86409361D01*
X155493394Y-86395532D01*
X155454467Y-86356605D01*
X155440638Y-86337572D01*
X155420786Y-86298612D01*
X155415640Y-86288512D01*
X155408371Y-86266140D01*
X155399758Y-86211761D01*
X155399758Y-86188236D01*
X155399758Y-86188234D01*
X155408371Y-86133853D01*
X155415638Y-86111490D01*
X155440642Y-86062416D01*
X155454464Y-86043393D01*
X155493393Y-86004464D01*
X155512416Y-85990642D01*
X155561490Y-85965638D01*
X155583853Y-85958371D01*
X155638237Y-85949758D01*
X155661761Y-85949758D01*
X155716142Y-85958371D01*
G37*
G04 #@! TD.AperFunction*
G04 #@! TA.AperFunction,Conductor*
G36*
X163578947Y-81585531D02*
G01*
X163760755Y-81599840D01*
X163772394Y-81601683D01*
X163946844Y-81643565D01*
X163958060Y-81647209D01*
X164123815Y-81715867D01*
X164134323Y-81721222D01*
X164287290Y-81814961D01*
X164296835Y-81821895D01*
X164433255Y-81938409D01*
X164441590Y-81946744D01*
X164481255Y-81993185D01*
X164558103Y-82083163D01*
X164565038Y-82092709D01*
X164658777Y-82245676D01*
X164664135Y-82256190D01*
X164732789Y-82421936D01*
X164736435Y-82433159D01*
X164778314Y-82607597D01*
X164780160Y-82619252D01*
X164794468Y-82801052D01*
X164794700Y-82806952D01*
X164794700Y-101219500D01*
X164784625Y-101257100D01*
X164757100Y-101284625D01*
X164719500Y-101294700D01*
X78612500Y-101294700D01*
X78574900Y-101284625D01*
X78547375Y-101257100D01*
X78537300Y-101219500D01*
X78537300Y-99568000D01*
X85852000Y-99568000D01*
X85852000Y-100457000D01*
X86868000Y-100457000D01*
X86868000Y-99568000D01*
X88392000Y-99568000D01*
X88392000Y-100457000D01*
X89408000Y-100457000D01*
X89408000Y-99568000D01*
X90932000Y-99568000D01*
X90932000Y-100457000D01*
X91948000Y-100457000D01*
X91948000Y-99568000D01*
X93472000Y-99568000D01*
X93472000Y-100457000D01*
X94488000Y-100457000D01*
X94488000Y-99568000D01*
X96012000Y-99568000D01*
X96012000Y-100457000D01*
X97028000Y-100457000D01*
X97028000Y-99568000D01*
X98552000Y-99568000D01*
X98552000Y-100457000D01*
X99568000Y-100457000D01*
X99568000Y-99568000D01*
X101092000Y-99568000D01*
X101092000Y-100457000D01*
X102108000Y-100457000D01*
X102108000Y-99568000D01*
X106172000Y-99568000D01*
X106172000Y-100457000D01*
X107188000Y-100457000D01*
X107188000Y-99568000D01*
X108712000Y-99568000D01*
X108712000Y-100457000D01*
X109728000Y-100457000D01*
X109728000Y-99568000D01*
X111252000Y-99568000D01*
X111252000Y-100457000D01*
X112268000Y-100457000D01*
X112268000Y-99568000D01*
X113792000Y-99568000D01*
X113792000Y-100457000D01*
X114808000Y-100457000D01*
X114808000Y-99568000D01*
X116332000Y-99568000D01*
X116332000Y-100457000D01*
X117348000Y-100457000D01*
X117348000Y-99568000D01*
X118872000Y-99568000D01*
X118872000Y-100457000D01*
X119888000Y-100457000D01*
X119888000Y-99568000D01*
X121412000Y-99568000D01*
X121412000Y-100457000D01*
X122428000Y-100457000D01*
X122428000Y-99568000D01*
X123952000Y-99568000D01*
X123952000Y-100457000D01*
X124968000Y-100457000D01*
X124968000Y-99568000D01*
X126492000Y-99568000D01*
X126492000Y-100457000D01*
X127508000Y-100457000D01*
X127508000Y-99568000D01*
X129032000Y-99568000D01*
X129032000Y-100457000D01*
X130048000Y-100457000D01*
X130048000Y-99568000D01*
X131572000Y-99568000D01*
X131572000Y-100457000D01*
X132588000Y-100457000D01*
X132588000Y-99568000D01*
X134112000Y-99568000D01*
X134112000Y-100457000D01*
X135128000Y-100457000D01*
X135128000Y-99568000D01*
X139192000Y-99568000D01*
X139192000Y-100457000D01*
X140208000Y-100457000D01*
X140208000Y-99568000D01*
X141732000Y-99568000D01*
X141732000Y-100457000D01*
X142748000Y-100457000D01*
X142748000Y-99568000D01*
X144272000Y-99568000D01*
X144272000Y-100457000D01*
X145288000Y-100457000D01*
X145288000Y-99568000D01*
X146812000Y-99568000D01*
X146812000Y-100457000D01*
X147828000Y-100457000D01*
X147828000Y-99568000D01*
X149352000Y-99568000D01*
X149352000Y-100457000D01*
X150368000Y-100457000D01*
X150368000Y-99568000D01*
X151892000Y-99568000D01*
X151892000Y-100457000D01*
X152908000Y-100457000D01*
X152908000Y-99568000D01*
X154432000Y-99568000D01*
X154432000Y-100457000D01*
X155448000Y-100457000D01*
X155448000Y-99568000D01*
X154432000Y-99568000D01*
X152908000Y-99568000D01*
X151892000Y-99568000D01*
X150368000Y-99568000D01*
X149352000Y-99568000D01*
X147828000Y-99568000D01*
X146812000Y-99568000D01*
X145288000Y-99568000D01*
X144272000Y-99568000D01*
X142748000Y-99568000D01*
X141732000Y-99568000D01*
X140208000Y-99568000D01*
X139192000Y-99568000D01*
X135128000Y-99568000D01*
X134112000Y-99568000D01*
X132588000Y-99568000D01*
X131572000Y-99568000D01*
X130048000Y-99568000D01*
X129032000Y-99568000D01*
X127508000Y-99568000D01*
X126492000Y-99568000D01*
X124968000Y-99568000D01*
X123952000Y-99568000D01*
X122428000Y-99568000D01*
X121412000Y-99568000D01*
X119888000Y-99568000D01*
X118872000Y-99568000D01*
X117348000Y-99568000D01*
X116332000Y-99568000D01*
X114808000Y-99568000D01*
X113792000Y-99568000D01*
X112268000Y-99568000D01*
X111252000Y-99568000D01*
X109728000Y-99568000D01*
X108712000Y-99568000D01*
X107188000Y-99568000D01*
X106172000Y-99568000D01*
X102108000Y-99568000D01*
X101092000Y-99568000D01*
X99568000Y-99568000D01*
X98552000Y-99568000D01*
X97028000Y-99568000D01*
X96012000Y-99568000D01*
X94488000Y-99568000D01*
X93472000Y-99568000D01*
X91948000Y-99568000D01*
X90932000Y-99568000D01*
X89408000Y-99568000D01*
X88392000Y-99568000D01*
X86868000Y-99568000D01*
X85852000Y-99568000D01*
X78537300Y-99568000D01*
X78537300Y-98806000D01*
X83262329Y-98806000D01*
X83281331Y-98950336D01*
X83337043Y-99084837D01*
X83381354Y-99142584D01*
X83425667Y-99200333D01*
X83500924Y-99258080D01*
X83541162Y-99288956D01*
X83541163Y-99288956D01*
X83541164Y-99288957D01*
X83675664Y-99344669D01*
X83820000Y-99363671D01*
X83964336Y-99344669D01*
X84098836Y-99288957D01*
X84214333Y-99200333D01*
X84302957Y-99084836D01*
X84358669Y-98950336D01*
X84377671Y-98806000D01*
X84358669Y-98661664D01*
X84302957Y-98527165D01*
X84214333Y-98411667D01*
X84156584Y-98367354D01*
X84098837Y-98323043D01*
X83964336Y-98267331D01*
X83820000Y-98248329D01*
X83675664Y-98267331D01*
X83541164Y-98323043D01*
X83425667Y-98411667D01*
X83337043Y-98527164D01*
X83281331Y-98661664D01*
X83262329Y-98806000D01*
X78537300Y-98806000D01*
X78537300Y-96713442D01*
X78537300Y-96713439D01*
X78504913Y-96467441D01*
X78440695Y-96227774D01*
X78345743Y-95998540D01*
X78285579Y-95894333D01*
X78221682Y-95783659D01*
X78070633Y-95586809D01*
X77895190Y-95411366D01*
X77698340Y-95260317D01*
X77680470Y-95250000D01*
X84532329Y-95250000D01*
X84551331Y-95394336D01*
X84607043Y-95528837D01*
X84641795Y-95574126D01*
X84695667Y-95644333D01*
X84758558Y-95692591D01*
X84811162Y-95732956D01*
X84811163Y-95732956D01*
X84811164Y-95732957D01*
X84945664Y-95788669D01*
X85090000Y-95807671D01*
X85234336Y-95788669D01*
X85368836Y-95732957D01*
X85484333Y-95644333D01*
X85572957Y-95528836D01*
X85628669Y-95394336D01*
X85647671Y-95250000D01*
X85628669Y-95105664D01*
X85572957Y-94971165D01*
X85484333Y-94855667D01*
X85389576Y-94782957D01*
X85368837Y-94767043D01*
X85234336Y-94711331D01*
X85090000Y-94692329D01*
X84945664Y-94711331D01*
X84811164Y-94767043D01*
X84695667Y-94855667D01*
X84607043Y-94971164D01*
X84551331Y-95105664D01*
X84532329Y-95250000D01*
X77680470Y-95250000D01*
X77483462Y-95136258D01*
X77452814Y-95123563D01*
X77254226Y-95041305D01*
X77014559Y-94977087D01*
X76768561Y-94944700D01*
X76768558Y-94944700D01*
X76580500Y-94944700D01*
X76542900Y-94934625D01*
X76515375Y-94907100D01*
X76505300Y-94869500D01*
X76505300Y-94742000D01*
X78582028Y-94742000D01*
X78602190Y-94869305D01*
X78660709Y-94984153D01*
X78751846Y-95075290D01*
X78751848Y-95075291D01*
X78751849Y-95075292D01*
X78866694Y-95133809D01*
X78994000Y-95153972D01*
X79121306Y-95133809D01*
X79236151Y-95075292D01*
X79327292Y-94984151D01*
X79385809Y-94869306D01*
X79405972Y-94742000D01*
X79385809Y-94614694D01*
X79327292Y-94499849D01*
X79327291Y-94499848D01*
X79327290Y-94499846D01*
X79236153Y-94408709D01*
X79121305Y-94350190D01*
X78994000Y-94330028D01*
X78866694Y-94350190D01*
X78751846Y-94408709D01*
X78660709Y-94499846D01*
X78602190Y-94614694D01*
X78582028Y-94742000D01*
X76505300Y-94742000D01*
X76505300Y-94106999D01*
X83262329Y-94106999D01*
X83281331Y-94251336D01*
X83337043Y-94385837D01*
X83341751Y-94391972D01*
X83425667Y-94501333D01*
X83500924Y-94559080D01*
X83541162Y-94589956D01*
X83541163Y-94589956D01*
X83541164Y-94589957D01*
X83675664Y-94645669D01*
X83820000Y-94664671D01*
X83964336Y-94645669D01*
X84098836Y-94589957D01*
X84214333Y-94501333D01*
X84302957Y-94385836D01*
X84358669Y-94251336D01*
X84377671Y-94107000D01*
X84358669Y-93962664D01*
X84302957Y-93828165D01*
X84214333Y-93712667D01*
X84128374Y-93646708D01*
X84098837Y-93624043D01*
X83964336Y-93568331D01*
X83820000Y-93549329D01*
X83675664Y-93568331D01*
X83541164Y-93624043D01*
X83425667Y-93712667D01*
X83337043Y-93828164D01*
X83281331Y-93962664D01*
X83262329Y-94106999D01*
X76505300Y-94106999D01*
X76505300Y-91440000D01*
X77667864Y-91440000D01*
X77687179Y-91710061D01*
X77744731Y-91974622D01*
X77839350Y-92228307D01*
X77969105Y-92465935D01*
X77969108Y-92465939D01*
X78126615Y-92676345D01*
X78131367Y-92682692D01*
X78322807Y-92874132D01*
X78322810Y-92874134D01*
X78322813Y-92874137D01*
X78530233Y-93029409D01*
X78539564Y-93036394D01*
X78777192Y-93166149D01*
X78777194Y-93166150D01*
X79030874Y-93260767D01*
X79030877Y-93260768D01*
X79288028Y-93316708D01*
X79295438Y-93318320D01*
X79565500Y-93337635D01*
X79835562Y-93318320D01*
X80029872Y-93276050D01*
X80100122Y-93260768D01*
X80100122Y-93260767D01*
X80100126Y-93260767D01*
X80353806Y-93166150D01*
X80591439Y-93036392D01*
X80808187Y-92874137D01*
X80999637Y-92682687D01*
X81161892Y-92465939D01*
X81291650Y-92228306D01*
X81386267Y-91974626D01*
X81396816Y-91926136D01*
X81410986Y-91860994D01*
X81443820Y-91710062D01*
X81463135Y-91440000D01*
X81443820Y-91169938D01*
X81427563Y-91095206D01*
X81386268Y-90905377D01*
X81379689Y-90887737D01*
X81291650Y-90651694D01*
X81251031Y-90577306D01*
X81161894Y-90414064D01*
X81152940Y-90402103D01*
X80999637Y-90197313D01*
X80999634Y-90197310D01*
X80999632Y-90197307D01*
X80808192Y-90005867D01*
X80765442Y-89973865D01*
X80591439Y-89843608D01*
X80591435Y-89843605D01*
X80353807Y-89713850D01*
X80100122Y-89619231D01*
X79835561Y-89561679D01*
X79565500Y-89542364D01*
X79295438Y-89561679D01*
X79030877Y-89619231D01*
X78777192Y-89713850D01*
X78539564Y-89843605D01*
X78322807Y-90005867D01*
X78131367Y-90197307D01*
X77969105Y-90414064D01*
X77839350Y-90651692D01*
X77744731Y-90905377D01*
X77687179Y-91169938D01*
X77667864Y-91440000D01*
X76505300Y-91440000D01*
X76505300Y-86995000D01*
X76677028Y-86995000D01*
X76697190Y-87122305D01*
X76755709Y-87237153D01*
X76846846Y-87328290D01*
X76846848Y-87328291D01*
X76846849Y-87328292D01*
X76961694Y-87386809D01*
X77089000Y-87406972D01*
X77216306Y-87386809D01*
X77331151Y-87328292D01*
X77422292Y-87237151D01*
X77480809Y-87122306D01*
X77500972Y-86995000D01*
X77480809Y-86867694D01*
X77422292Y-86752849D01*
X77422291Y-86752848D01*
X77422290Y-86752846D01*
X77331153Y-86661709D01*
X77216305Y-86603190D01*
X77089000Y-86583028D01*
X76961694Y-86603190D01*
X76846846Y-86661709D01*
X76755709Y-86752846D01*
X76697190Y-86867694D01*
X76677028Y-86995000D01*
X76505300Y-86995000D01*
X76505300Y-86500000D01*
X84038028Y-86500000D01*
X84058190Y-86627305D01*
X84116709Y-86742153D01*
X84198874Y-86824318D01*
X84215176Y-86848714D01*
X84220900Y-86877492D01*
X84220900Y-89742041D01*
X84220797Y-89745976D01*
X84218666Y-89786639D01*
X84220906Y-89792475D01*
X84225900Y-89819422D01*
X84225900Y-93197041D01*
X84225797Y-93200976D01*
X84223666Y-93241639D01*
X84232533Y-93264740D01*
X84235883Y-93276050D01*
X84241030Y-93300263D01*
X84241030Y-93300264D01*
X84241031Y-93300265D01*
X84246108Y-93307253D01*
X84255472Y-93324500D01*
X84258567Y-93332563D01*
X84258568Y-93332564D01*
X84276069Y-93350065D01*
X84283728Y-93359032D01*
X84298278Y-93379059D01*
X84305756Y-93383376D01*
X84321331Y-93395327D01*
X86108874Y-95182871D01*
X86125176Y-95207267D01*
X86130900Y-95236045D01*
X86130900Y-98252195D01*
X86118227Y-98293973D01*
X86084479Y-98321670D01*
X86081166Y-98323042D01*
X85965667Y-98411667D01*
X85877043Y-98527164D01*
X85821331Y-98661664D01*
X85802329Y-98806000D01*
X85821331Y-98950336D01*
X85877043Y-99084837D01*
X85921354Y-99142584D01*
X85965667Y-99200333D01*
X86040924Y-99258080D01*
X86081162Y-99288956D01*
X86081163Y-99288956D01*
X86081164Y-99288957D01*
X86215664Y-99344669D01*
X86360000Y-99363671D01*
X86504336Y-99344669D01*
X86638836Y-99288957D01*
X86754333Y-99200333D01*
X86842957Y-99084836D01*
X86898669Y-98950336D01*
X86917671Y-98806000D01*
X88342329Y-98806000D01*
X88361331Y-98950336D01*
X88417043Y-99084837D01*
X88461354Y-99142584D01*
X88505667Y-99200333D01*
X88580924Y-99258080D01*
X88621162Y-99288956D01*
X88621163Y-99288956D01*
X88621164Y-99288957D01*
X88755664Y-99344669D01*
X88900000Y-99363671D01*
X89044336Y-99344669D01*
X89178836Y-99288957D01*
X89294333Y-99200333D01*
X89382957Y-99084836D01*
X89438669Y-98950336D01*
X89457671Y-98806000D01*
X90882329Y-98806000D01*
X90901331Y-98950336D01*
X90957043Y-99084837D01*
X91001354Y-99142584D01*
X91045667Y-99200333D01*
X91120924Y-99258080D01*
X91161162Y-99288956D01*
X91161163Y-99288956D01*
X91161164Y-99288957D01*
X91295664Y-99344669D01*
X91440000Y-99363671D01*
X91584336Y-99344669D01*
X91718836Y-99288957D01*
X91834333Y-99200333D01*
X91922957Y-99084836D01*
X91978669Y-98950336D01*
X91997671Y-98806000D01*
X91978669Y-98661664D01*
X91977295Y-98658348D01*
X91973016Y-98614901D01*
X91993595Y-98576399D01*
X94136373Y-96433621D01*
X94139189Y-96430948D01*
X94169486Y-96403670D01*
X94179555Y-96381054D01*
X94185184Y-96370689D01*
X94198660Y-96349938D01*
X94198659Y-96349938D01*
X94198661Y-96349937D01*
X94200011Y-96341406D01*
X94205585Y-96322590D01*
X94209100Y-96314697D01*
X94209100Y-96289940D01*
X94210026Y-96278177D01*
X94210624Y-96274400D01*
X94213896Y-96253742D01*
X94211662Y-96245404D01*
X94209100Y-96225943D01*
X94209100Y-88769492D01*
X94214824Y-88740714D01*
X94231126Y-88716318D01*
X94313290Y-88634153D01*
X94313292Y-88634151D01*
X94371809Y-88519306D01*
X94391972Y-88392000D01*
X94385936Y-88353892D01*
X94388690Y-88318894D01*
X94407034Y-88288960D01*
X97989870Y-84706126D01*
X98014267Y-84689824D01*
X98043045Y-84684100D01*
X99023855Y-84684100D01*
X99065634Y-84696773D01*
X99093331Y-84730522D01*
X99097610Y-84773971D01*
X99077029Y-84812474D01*
X95728631Y-88160870D01*
X95725778Y-88163579D01*
X95695514Y-88190830D01*
X95685447Y-88213438D01*
X95679821Y-88223799D01*
X95666338Y-88244564D01*
X95664986Y-88253097D01*
X95659414Y-88271909D01*
X95655900Y-88279803D01*
X95655900Y-88304554D01*
X95654974Y-88316319D01*
X95651102Y-88340757D01*
X95653338Y-88349099D01*
X95655900Y-88368562D01*
X95655900Y-89273041D01*
X95655797Y-89276976D01*
X95653666Y-89317639D01*
X95662533Y-89340740D01*
X95665883Y-89352050D01*
X95671030Y-89376263D01*
X95671030Y-89376264D01*
X95671031Y-89376265D01*
X95675732Y-89382735D01*
X95676108Y-89383253D01*
X95685472Y-89400500D01*
X95688567Y-89408563D01*
X95688568Y-89408564D01*
X95706069Y-89426065D01*
X95713728Y-89435032D01*
X95728278Y-89455059D01*
X95735756Y-89459376D01*
X95751331Y-89471327D01*
X96268874Y-89988870D01*
X96285176Y-90013266D01*
X96290900Y-90042044D01*
X96290900Y-90554508D01*
X96285176Y-90583286D01*
X96268874Y-90607682D01*
X96186709Y-90689846D01*
X96128190Y-90804694D01*
X96108028Y-90932000D01*
X96128190Y-91059305D01*
X96186709Y-91174153D01*
X96268874Y-91256318D01*
X96285176Y-91280714D01*
X96290900Y-91309492D01*
X96290900Y-96139955D01*
X96285176Y-96168733D01*
X96268874Y-96193129D01*
X94209600Y-98252401D01*
X94171099Y-98272982D01*
X94127651Y-98268704D01*
X94124338Y-98267332D01*
X94124336Y-98267331D01*
X93980000Y-98248329D01*
X93835664Y-98267331D01*
X93701164Y-98323043D01*
X93585667Y-98411667D01*
X93497043Y-98527164D01*
X93441331Y-98661664D01*
X93422329Y-98806000D01*
X93441331Y-98950336D01*
X93497043Y-99084837D01*
X93541354Y-99142584D01*
X93585667Y-99200333D01*
X93660924Y-99258080D01*
X93701162Y-99288956D01*
X93701163Y-99288956D01*
X93701164Y-99288957D01*
X93835664Y-99344669D01*
X93980000Y-99363671D01*
X94124336Y-99344669D01*
X94258836Y-99288957D01*
X94374333Y-99200333D01*
X94462957Y-99084836D01*
X94518669Y-98950336D01*
X94537671Y-98806000D01*
X95962329Y-98806000D01*
X95981331Y-98950336D01*
X96037043Y-99084837D01*
X96081354Y-99142584D01*
X96125667Y-99200333D01*
X96200924Y-99258080D01*
X96241162Y-99288956D01*
X96241163Y-99288956D01*
X96241164Y-99288957D01*
X96375664Y-99344669D01*
X96520000Y-99363671D01*
X96664336Y-99344669D01*
X96798836Y-99288957D01*
X96914333Y-99200333D01*
X97002957Y-99084836D01*
X97058669Y-98950336D01*
X97077671Y-98806000D01*
X97058669Y-98661664D01*
X97002957Y-98527165D01*
X96914333Y-98411667D01*
X96856584Y-98367354D01*
X96798837Y-98323043D01*
X96664336Y-98267331D01*
X96520000Y-98248329D01*
X96375664Y-98267331D01*
X96241164Y-98323043D01*
X96125667Y-98411667D01*
X96037043Y-98527164D01*
X95981331Y-98661664D01*
X95962329Y-98806000D01*
X94537671Y-98806000D01*
X94518669Y-98661664D01*
X94517295Y-98658348D01*
X94513016Y-98614901D01*
X94533595Y-98576399D01*
X96676373Y-96433621D01*
X96679189Y-96430948D01*
X96709486Y-96403670D01*
X96719555Y-96381054D01*
X96725184Y-96370689D01*
X96738660Y-96349938D01*
X96738659Y-96349938D01*
X96738661Y-96349937D01*
X96740011Y-96341406D01*
X96745585Y-96322590D01*
X96749100Y-96314697D01*
X96749100Y-96289940D01*
X96750026Y-96278177D01*
X96750624Y-96274400D01*
X96753896Y-96253742D01*
X96751662Y-96245404D01*
X96749100Y-96225943D01*
X96749100Y-91309492D01*
X96754824Y-91280714D01*
X96771126Y-91256318D01*
X96797526Y-91229918D01*
X96836029Y-91209337D01*
X96879478Y-91213616D01*
X96913227Y-91241313D01*
X96925900Y-91283092D01*
X96925900Y-96893041D01*
X96925797Y-96896976D01*
X96923666Y-96937639D01*
X96932533Y-96960740D01*
X96935883Y-96972050D01*
X96941030Y-96996263D01*
X96946108Y-97003253D01*
X96955472Y-97020500D01*
X96958567Y-97028563D01*
X96958568Y-97028564D01*
X96976069Y-97046065D01*
X96983728Y-97055032D01*
X96998278Y-97075059D01*
X97005756Y-97079376D01*
X97021331Y-97091327D01*
X98506402Y-98576398D01*
X98526983Y-98614900D01*
X98522705Y-98658347D01*
X98521333Y-98661660D01*
X98521331Y-98661664D01*
X98502329Y-98805999D01*
X98502329Y-98806000D01*
X98521331Y-98950336D01*
X98577043Y-99084837D01*
X98621354Y-99142584D01*
X98665667Y-99200333D01*
X98740924Y-99258080D01*
X98781162Y-99288956D01*
X98781163Y-99288956D01*
X98781164Y-99288957D01*
X98915664Y-99344669D01*
X99060000Y-99363671D01*
X99204336Y-99344669D01*
X99338836Y-99288957D01*
X99454333Y-99200333D01*
X99542957Y-99084836D01*
X99598669Y-98950336D01*
X99617671Y-98806000D01*
X99598669Y-98661664D01*
X99542957Y-98527165D01*
X99454333Y-98411667D01*
X99396584Y-98367354D01*
X99338837Y-98323043D01*
X99204336Y-98267331D01*
X99060000Y-98248329D01*
X98915664Y-98267331D01*
X98915661Y-98267331D01*
X98915661Y-98267332D01*
X98912347Y-98268705D01*
X98868900Y-98272983D01*
X98830398Y-98252402D01*
X97406126Y-96828129D01*
X97389824Y-96803733D01*
X97384100Y-96774955D01*
X97384100Y-91283092D01*
X97396773Y-91241313D01*
X97430522Y-91213616D01*
X97473971Y-91209337D01*
X97512474Y-91229918D01*
X97538874Y-91256318D01*
X97555176Y-91280714D01*
X97560900Y-91309492D01*
X97560900Y-94988041D01*
X97560797Y-94991976D01*
X97558666Y-95032639D01*
X97567533Y-95055740D01*
X97570883Y-95067050D01*
X97576030Y-95091263D01*
X97581108Y-95098253D01*
X97590472Y-95115500D01*
X97593567Y-95123563D01*
X97593568Y-95123564D01*
X97611069Y-95141065D01*
X97618728Y-95150032D01*
X97633278Y-95170059D01*
X97640756Y-95174376D01*
X97656331Y-95186327D01*
X101046401Y-98576398D01*
X101066981Y-98614897D01*
X101062706Y-98658343D01*
X101061332Y-98661660D01*
X101061332Y-98661661D01*
X101061332Y-98661663D01*
X101042329Y-98806000D01*
X101061331Y-98950336D01*
X101117043Y-99084837D01*
X101161354Y-99142584D01*
X101205667Y-99200333D01*
X101280924Y-99258080D01*
X101321162Y-99288956D01*
X101321163Y-99288956D01*
X101321164Y-99288957D01*
X101455664Y-99344669D01*
X101600000Y-99363671D01*
X101744336Y-99344669D01*
X101878836Y-99288957D01*
X101994333Y-99200333D01*
X102082957Y-99084836D01*
X102138669Y-98950336D01*
X102157671Y-98806000D01*
X106122329Y-98806000D01*
X106141331Y-98950336D01*
X106197043Y-99084837D01*
X106241354Y-99142584D01*
X106285667Y-99200333D01*
X106360924Y-99258080D01*
X106401162Y-99288956D01*
X106401163Y-99288956D01*
X106401164Y-99288957D01*
X106535664Y-99344669D01*
X106680000Y-99363671D01*
X106824336Y-99344669D01*
X106958836Y-99288957D01*
X107074333Y-99200333D01*
X107162957Y-99084836D01*
X107218669Y-98950336D01*
X107237671Y-98806000D01*
X107218669Y-98661664D01*
X107162957Y-98527165D01*
X107074333Y-98411667D01*
X107016584Y-98367354D01*
X106958837Y-98323043D01*
X106824336Y-98267331D01*
X106680000Y-98248329D01*
X106535664Y-98267331D01*
X106401164Y-98323043D01*
X106285667Y-98411667D01*
X106197043Y-98527164D01*
X106141331Y-98661664D01*
X106122329Y-98806000D01*
X102157671Y-98806000D01*
X102138669Y-98661664D01*
X102082957Y-98527165D01*
X101994333Y-98411667D01*
X101936584Y-98367354D01*
X101878837Y-98323043D01*
X101744336Y-98267331D01*
X101600000Y-98248329D01*
X101455664Y-98267331D01*
X101455661Y-98267331D01*
X101455661Y-98267332D01*
X101452347Y-98268705D01*
X101408900Y-98272983D01*
X101370398Y-98252402D01*
X98041126Y-94923129D01*
X98024824Y-94898733D01*
X98019100Y-94869955D01*
X98019100Y-91309492D01*
X98024824Y-91280714D01*
X98041126Y-91256318D01*
X98067526Y-91229918D01*
X98106029Y-91209337D01*
X98149478Y-91213616D01*
X98183227Y-91241313D01*
X98195900Y-91283092D01*
X98195900Y-92829041D01*
X98195797Y-92832976D01*
X98193666Y-92873639D01*
X98202533Y-92896740D01*
X98205883Y-92908050D01*
X98211030Y-92932263D01*
X98211030Y-92932264D01*
X98211031Y-92932265D01*
X98216108Y-92939253D01*
X98225472Y-92956500D01*
X98228567Y-92964563D01*
X98228568Y-92964564D01*
X98246069Y-92982065D01*
X98253728Y-92991032D01*
X98268278Y-93011059D01*
X98275756Y-93015376D01*
X98291331Y-93027327D01*
X103210368Y-97946365D01*
X103213079Y-97949221D01*
X103240328Y-97979485D01*
X103240329Y-97979485D01*
X103240330Y-97979486D01*
X103262940Y-97989552D01*
X103273302Y-97995179D01*
X103294064Y-98008662D01*
X103302593Y-98010013D01*
X103321416Y-98015588D01*
X103329303Y-98019100D01*
X103354053Y-98019100D01*
X103365817Y-98020026D01*
X103390258Y-98023897D01*
X103390258Y-98023896D01*
X103390259Y-98023897D01*
X103395158Y-98022584D01*
X103398601Y-98021662D01*
X103418064Y-98019100D01*
X108077956Y-98019100D01*
X108106734Y-98024824D01*
X108131130Y-98041126D01*
X108666402Y-98576398D01*
X108686983Y-98614900D01*
X108682705Y-98658347D01*
X108681333Y-98661660D01*
X108681331Y-98661664D01*
X108662329Y-98805999D01*
X108662329Y-98806000D01*
X108681331Y-98950336D01*
X108737043Y-99084837D01*
X108781354Y-99142584D01*
X108825667Y-99200333D01*
X108900924Y-99258080D01*
X108941162Y-99288956D01*
X108941163Y-99288956D01*
X108941164Y-99288957D01*
X109075664Y-99344669D01*
X109220000Y-99363671D01*
X109364336Y-99344669D01*
X109498836Y-99288957D01*
X109614333Y-99200333D01*
X109702957Y-99084836D01*
X109758669Y-98950336D01*
X109777671Y-98806000D01*
X109758669Y-98661664D01*
X109702957Y-98527165D01*
X109614333Y-98411667D01*
X109556584Y-98367354D01*
X109498837Y-98323043D01*
X109364336Y-98267331D01*
X109220000Y-98248329D01*
X109075664Y-98267331D01*
X109075661Y-98267331D01*
X109075661Y-98267332D01*
X109072347Y-98268705D01*
X109028900Y-98272983D01*
X108990398Y-98252402D01*
X108504471Y-97766474D01*
X108483890Y-97727971D01*
X108488169Y-97684522D01*
X108515866Y-97650773D01*
X108557645Y-97638100D01*
X110236956Y-97638100D01*
X110265734Y-97643824D01*
X110290130Y-97660126D01*
X111206402Y-98576398D01*
X111226983Y-98614900D01*
X111222705Y-98658347D01*
X111221333Y-98661660D01*
X111221331Y-98661664D01*
X111202329Y-98805999D01*
X111202329Y-98806000D01*
X111221331Y-98950336D01*
X111277043Y-99084837D01*
X111321354Y-99142584D01*
X111365667Y-99200333D01*
X111440924Y-99258080D01*
X111481162Y-99288956D01*
X111481163Y-99288956D01*
X111481164Y-99288957D01*
X111615664Y-99344669D01*
X111760000Y-99363671D01*
X111904336Y-99344669D01*
X112038836Y-99288957D01*
X112154333Y-99200333D01*
X112242957Y-99084836D01*
X112298669Y-98950336D01*
X112317671Y-98806000D01*
X113742329Y-98806000D01*
X113761331Y-98950336D01*
X113817043Y-99084837D01*
X113861354Y-99142584D01*
X113905667Y-99200333D01*
X113980924Y-99258080D01*
X114021162Y-99288956D01*
X114021163Y-99288956D01*
X114021164Y-99288957D01*
X114155664Y-99344669D01*
X114300000Y-99363671D01*
X114444336Y-99344669D01*
X114578836Y-99288957D01*
X114694333Y-99200333D01*
X114782957Y-99084836D01*
X114838669Y-98950336D01*
X114857671Y-98806000D01*
X114838669Y-98661664D01*
X114782957Y-98527165D01*
X114694333Y-98411667D01*
X114636584Y-98367354D01*
X114578837Y-98323043D01*
X114444336Y-98267331D01*
X114300000Y-98248329D01*
X114155664Y-98267331D01*
X114021164Y-98323043D01*
X113905667Y-98411667D01*
X113817043Y-98527164D01*
X113761331Y-98661664D01*
X113742329Y-98806000D01*
X112317671Y-98806000D01*
X112298669Y-98661664D01*
X112242957Y-98527165D01*
X112154333Y-98411667D01*
X112096584Y-98367354D01*
X112038837Y-98323043D01*
X111904336Y-98267331D01*
X111760000Y-98248329D01*
X111615664Y-98267331D01*
X111615661Y-98267331D01*
X111615661Y-98267332D01*
X111612347Y-98268705D01*
X111568900Y-98272983D01*
X111530398Y-98252402D01*
X110663471Y-97385474D01*
X110642890Y-97346971D01*
X110647169Y-97303522D01*
X110674866Y-97269773D01*
X110716645Y-97257100D01*
X113030956Y-97257100D01*
X113059734Y-97262824D01*
X113084129Y-97279125D01*
X113435781Y-97630778D01*
X113751368Y-97946365D01*
X113754079Y-97949221D01*
X113781328Y-97979485D01*
X113781329Y-97979485D01*
X113781330Y-97979486D01*
X113803940Y-97989552D01*
X113814302Y-97995179D01*
X113835064Y-98008662D01*
X113843593Y-98010013D01*
X113862416Y-98015588D01*
X113870303Y-98019100D01*
X113895053Y-98019100D01*
X113906817Y-98020026D01*
X113931258Y-98023897D01*
X113931258Y-98023896D01*
X113931259Y-98023897D01*
X113936158Y-98022584D01*
X113939601Y-98021662D01*
X113959064Y-98019100D01*
X115697956Y-98019100D01*
X115726734Y-98024824D01*
X115751130Y-98041126D01*
X116286402Y-98576398D01*
X116306983Y-98614900D01*
X116302705Y-98658347D01*
X116301333Y-98661660D01*
X116301331Y-98661664D01*
X116282329Y-98805999D01*
X116282329Y-98806000D01*
X116301331Y-98950336D01*
X116357043Y-99084837D01*
X116401354Y-99142584D01*
X116445667Y-99200333D01*
X116520924Y-99258080D01*
X116561162Y-99288956D01*
X116561163Y-99288956D01*
X116561164Y-99288957D01*
X116695664Y-99344669D01*
X116840000Y-99363671D01*
X116984336Y-99344669D01*
X117118836Y-99288957D01*
X117234333Y-99200333D01*
X117322957Y-99084836D01*
X117378669Y-98950336D01*
X117397671Y-98806000D01*
X117378669Y-98661664D01*
X117322957Y-98527165D01*
X117234333Y-98411667D01*
X117176584Y-98367354D01*
X117118837Y-98323043D01*
X116984336Y-98267331D01*
X116840000Y-98248329D01*
X116695664Y-98267331D01*
X116695661Y-98267331D01*
X116695661Y-98267332D01*
X116692347Y-98268705D01*
X116648900Y-98272983D01*
X116610398Y-98252402D01*
X116124471Y-97766474D01*
X116103890Y-97727971D01*
X116108169Y-97684522D01*
X116135866Y-97650773D01*
X116177645Y-97638100D01*
X117856956Y-97638100D01*
X117885734Y-97643824D01*
X117910130Y-97660126D01*
X118826402Y-98576398D01*
X118846983Y-98614900D01*
X118842705Y-98658347D01*
X118841333Y-98661660D01*
X118841331Y-98661664D01*
X118822329Y-98805999D01*
X118822329Y-98806000D01*
X118841331Y-98950336D01*
X118897043Y-99084837D01*
X118941354Y-99142584D01*
X118985667Y-99200333D01*
X119060924Y-99258080D01*
X119101162Y-99288956D01*
X119101163Y-99288956D01*
X119101164Y-99288957D01*
X119235664Y-99344669D01*
X119380000Y-99363671D01*
X119524336Y-99344669D01*
X119658836Y-99288957D01*
X119774333Y-99200333D01*
X119862957Y-99084836D01*
X119918669Y-98950336D01*
X119937671Y-98806000D01*
X119937671Y-98805999D01*
X121362329Y-98805999D01*
X121381331Y-98950336D01*
X121437043Y-99084837D01*
X121481354Y-99142584D01*
X121525667Y-99200333D01*
X121600924Y-99258080D01*
X121641162Y-99288956D01*
X121641163Y-99288956D01*
X121641164Y-99288957D01*
X121775664Y-99344669D01*
X121920000Y-99363671D01*
X122064336Y-99344669D01*
X122198836Y-99288957D01*
X122314333Y-99200333D01*
X122402957Y-99084836D01*
X122458669Y-98950336D01*
X122477671Y-98806000D01*
X122458669Y-98661664D01*
X122402957Y-98527165D01*
X122314333Y-98411667D01*
X122256584Y-98367354D01*
X122198837Y-98323043D01*
X122064336Y-98267331D01*
X121920000Y-98248329D01*
X121775664Y-98267331D01*
X121641164Y-98323043D01*
X121525667Y-98411667D01*
X121437043Y-98527164D01*
X121381331Y-98661664D01*
X121362329Y-98805999D01*
X119937671Y-98805999D01*
X119918669Y-98661664D01*
X119862957Y-98527165D01*
X119774333Y-98411667D01*
X119716584Y-98367354D01*
X119658837Y-98323043D01*
X119524336Y-98267331D01*
X119380000Y-98248329D01*
X119235664Y-98267331D01*
X119235661Y-98267331D01*
X119235661Y-98267332D01*
X119232347Y-98268705D01*
X119188900Y-98272983D01*
X119150398Y-98252402D01*
X118283471Y-97385474D01*
X118262890Y-97346971D01*
X118267169Y-97303522D01*
X118294866Y-97269773D01*
X118336645Y-97257100D01*
X122555956Y-97257100D01*
X122584734Y-97262824D01*
X122609130Y-97279126D01*
X123906402Y-98576398D01*
X123926983Y-98614900D01*
X123922705Y-98658347D01*
X123921333Y-98661660D01*
X123921331Y-98661664D01*
X123905724Y-98780205D01*
X123902329Y-98805999D01*
X123921331Y-98950336D01*
X123977043Y-99084837D01*
X124021354Y-99142584D01*
X124065667Y-99200333D01*
X124140924Y-99258080D01*
X124181162Y-99288956D01*
X124181163Y-99288956D01*
X124181164Y-99288957D01*
X124315664Y-99344669D01*
X124460000Y-99363671D01*
X124604336Y-99344669D01*
X124738836Y-99288957D01*
X124854333Y-99200333D01*
X124942957Y-99084836D01*
X124998669Y-98950336D01*
X125017671Y-98806000D01*
X124998669Y-98661664D01*
X124942957Y-98527165D01*
X124854333Y-98411667D01*
X124796584Y-98367354D01*
X124738837Y-98323043D01*
X124604336Y-98267331D01*
X124460000Y-98248329D01*
X124315664Y-98267331D01*
X124315661Y-98267331D01*
X124315661Y-98267332D01*
X124312347Y-98268705D01*
X124268900Y-98272983D01*
X124230398Y-98252402D01*
X122982471Y-97004474D01*
X122961890Y-96965971D01*
X122966169Y-96922522D01*
X122993866Y-96888773D01*
X123035645Y-96876100D01*
X124714956Y-96876100D01*
X124743734Y-96881824D01*
X124768130Y-96898126D01*
X126446402Y-98576398D01*
X126466983Y-98614900D01*
X126462705Y-98658347D01*
X126461333Y-98661660D01*
X126461331Y-98661664D01*
X126445724Y-98780205D01*
X126442329Y-98805999D01*
X126461331Y-98950336D01*
X126517043Y-99084837D01*
X126561354Y-99142584D01*
X126605667Y-99200333D01*
X126680924Y-99258080D01*
X126721162Y-99288956D01*
X126721163Y-99288956D01*
X126721164Y-99288957D01*
X126855664Y-99344669D01*
X127000000Y-99363671D01*
X127144336Y-99344669D01*
X127278836Y-99288957D01*
X127394333Y-99200333D01*
X127482957Y-99084836D01*
X127538669Y-98950336D01*
X127557671Y-98806000D01*
X127538669Y-98661664D01*
X127482957Y-98527165D01*
X127394333Y-98411667D01*
X127336584Y-98367354D01*
X127278837Y-98323043D01*
X127144336Y-98267331D01*
X127000000Y-98248329D01*
X126855664Y-98267331D01*
X126855661Y-98267331D01*
X126855661Y-98267332D01*
X126852347Y-98268705D01*
X126808900Y-98272983D01*
X126770398Y-98252402D01*
X125141471Y-96623474D01*
X125120890Y-96584971D01*
X125125169Y-96541522D01*
X125152866Y-96507773D01*
X125194645Y-96495100D01*
X126873956Y-96495100D01*
X126902734Y-96500824D01*
X126927130Y-96517126D01*
X128986402Y-98576398D01*
X129006983Y-98614900D01*
X129002705Y-98658347D01*
X129001333Y-98661660D01*
X129001331Y-98661664D01*
X128985724Y-98780205D01*
X128982329Y-98805999D01*
X129001331Y-98950336D01*
X129057043Y-99084837D01*
X129101354Y-99142584D01*
X129145667Y-99200333D01*
X129220924Y-99258080D01*
X129261162Y-99288956D01*
X129261163Y-99288956D01*
X129261164Y-99288957D01*
X129395664Y-99344669D01*
X129540000Y-99363671D01*
X129684336Y-99344669D01*
X129818836Y-99288957D01*
X129934333Y-99200333D01*
X130022957Y-99084836D01*
X130078669Y-98950336D01*
X130097671Y-98806000D01*
X130097671Y-98805999D01*
X131522329Y-98805999D01*
X131541331Y-98950336D01*
X131597043Y-99084837D01*
X131641354Y-99142584D01*
X131685667Y-99200333D01*
X131760924Y-99258080D01*
X131801162Y-99288956D01*
X131801163Y-99288956D01*
X131801164Y-99288957D01*
X131935664Y-99344669D01*
X132080000Y-99363671D01*
X132224336Y-99344669D01*
X132358836Y-99288957D01*
X132474333Y-99200333D01*
X132562957Y-99084836D01*
X132618669Y-98950336D01*
X132637671Y-98806000D01*
X132637671Y-98805999D01*
X134062329Y-98805999D01*
X134081331Y-98950336D01*
X134137043Y-99084837D01*
X134181354Y-99142584D01*
X134225667Y-99200333D01*
X134300924Y-99258080D01*
X134341162Y-99288956D01*
X134341163Y-99288956D01*
X134341164Y-99288957D01*
X134475664Y-99344669D01*
X134620000Y-99363671D01*
X134764336Y-99344669D01*
X134898836Y-99288957D01*
X135014333Y-99200333D01*
X135102957Y-99084836D01*
X135158669Y-98950336D01*
X135177671Y-98806000D01*
X135177671Y-98805999D01*
X139142329Y-98805999D01*
X139161331Y-98950336D01*
X139217043Y-99084837D01*
X139261354Y-99142584D01*
X139305667Y-99200333D01*
X139380924Y-99258080D01*
X139421162Y-99288956D01*
X139421163Y-99288956D01*
X139421164Y-99288957D01*
X139555664Y-99344669D01*
X139700000Y-99363671D01*
X139844336Y-99344669D01*
X139978836Y-99288957D01*
X140094333Y-99200333D01*
X140182957Y-99084836D01*
X140238669Y-98950336D01*
X140257671Y-98806000D01*
X140257671Y-98805999D01*
X141682329Y-98805999D01*
X141701331Y-98950336D01*
X141757043Y-99084837D01*
X141801354Y-99142584D01*
X141845667Y-99200333D01*
X141920924Y-99258080D01*
X141961162Y-99288956D01*
X141961163Y-99288956D01*
X141961164Y-99288957D01*
X142095664Y-99344669D01*
X142240000Y-99363671D01*
X142384336Y-99344669D01*
X142518836Y-99288957D01*
X142634333Y-99200333D01*
X142722957Y-99084836D01*
X142778669Y-98950336D01*
X142797671Y-98806000D01*
X142797671Y-98805999D01*
X144222329Y-98805999D01*
X144241331Y-98950336D01*
X144297043Y-99084837D01*
X144341354Y-99142584D01*
X144385667Y-99200333D01*
X144460924Y-99258080D01*
X144501162Y-99288956D01*
X144501163Y-99288956D01*
X144501164Y-99288957D01*
X144635664Y-99344669D01*
X144780000Y-99363671D01*
X144924336Y-99344669D01*
X145058836Y-99288957D01*
X145174333Y-99200333D01*
X145262957Y-99084836D01*
X145318669Y-98950336D01*
X145337671Y-98806000D01*
X145337671Y-98805999D01*
X146762329Y-98805999D01*
X146781331Y-98950336D01*
X146837043Y-99084837D01*
X146881354Y-99142584D01*
X146925667Y-99200333D01*
X147000924Y-99258080D01*
X147041162Y-99288956D01*
X147041163Y-99288956D01*
X147041164Y-99288957D01*
X147175664Y-99344669D01*
X147320000Y-99363671D01*
X147464336Y-99344669D01*
X147598836Y-99288957D01*
X147714333Y-99200333D01*
X147802957Y-99084836D01*
X147858669Y-98950336D01*
X147877671Y-98806000D01*
X147858669Y-98661664D01*
X147802957Y-98527165D01*
X147714333Y-98411667D01*
X147656584Y-98367354D01*
X147598837Y-98323043D01*
X147464336Y-98267331D01*
X147320000Y-98248329D01*
X147175664Y-98267331D01*
X147041164Y-98323043D01*
X146925667Y-98411667D01*
X146837043Y-98527164D01*
X146781331Y-98661664D01*
X146762329Y-98805999D01*
X145337671Y-98805999D01*
X145318669Y-98661664D01*
X145262957Y-98527165D01*
X145174333Y-98411667D01*
X145116584Y-98367354D01*
X145058837Y-98323043D01*
X144924336Y-98267331D01*
X144780000Y-98248329D01*
X144635664Y-98267331D01*
X144501164Y-98323043D01*
X144385667Y-98411667D01*
X144297043Y-98527164D01*
X144241331Y-98661664D01*
X144222329Y-98805999D01*
X142797671Y-98805999D01*
X142778669Y-98661664D01*
X142722957Y-98527165D01*
X142634333Y-98411667D01*
X142576584Y-98367354D01*
X142518837Y-98323043D01*
X142384336Y-98267331D01*
X142240000Y-98248329D01*
X142095664Y-98267331D01*
X141961164Y-98323043D01*
X141845667Y-98411667D01*
X141757043Y-98527164D01*
X141701331Y-98661664D01*
X141682329Y-98805999D01*
X140257671Y-98805999D01*
X140238669Y-98661664D01*
X140182957Y-98527165D01*
X140094333Y-98411667D01*
X140036584Y-98367354D01*
X139978837Y-98323043D01*
X139844336Y-98267331D01*
X139700000Y-98248329D01*
X139555664Y-98267331D01*
X139421164Y-98323043D01*
X139305667Y-98411667D01*
X139217043Y-98527164D01*
X139161331Y-98661664D01*
X139142329Y-98805999D01*
X135177671Y-98805999D01*
X135158669Y-98661664D01*
X135157296Y-98658351D01*
X135153016Y-98614903D01*
X135173595Y-98576399D01*
X135581871Y-98168125D01*
X135606268Y-98151824D01*
X135635046Y-98146100D01*
X139247540Y-98146100D01*
X139251476Y-98146203D01*
X139292139Y-98148334D01*
X139315238Y-98139467D01*
X139326557Y-98136114D01*
X139328684Y-98135662D01*
X139350765Y-98130969D01*
X139357749Y-98125894D01*
X139375002Y-98116526D01*
X139383064Y-98113432D01*
X139400571Y-98095924D01*
X139409529Y-98088272D01*
X139429558Y-98073722D01*
X139433875Y-98066243D01*
X139445822Y-98050672D01*
X139504539Y-97991957D01*
X139518873Y-97977624D01*
X139543269Y-97961324D01*
X139572046Y-97955600D01*
X143637956Y-97955600D01*
X143666734Y-97961324D01*
X143691130Y-97977626D01*
X143786867Y-98073363D01*
X143789578Y-98076219D01*
X143816830Y-98106486D01*
X143839435Y-98116550D01*
X143849804Y-98122180D01*
X143870564Y-98135662D01*
X143879093Y-98137013D01*
X143897916Y-98142588D01*
X143905803Y-98146100D01*
X143930553Y-98146100D01*
X143942317Y-98147026D01*
X143966758Y-98150897D01*
X143966758Y-98150896D01*
X143966759Y-98150897D01*
X143971658Y-98149584D01*
X143975101Y-98148662D01*
X143994564Y-98146100D01*
X144327540Y-98146100D01*
X144331476Y-98146203D01*
X144372139Y-98148334D01*
X144395238Y-98139467D01*
X144406557Y-98136114D01*
X144408684Y-98135662D01*
X144430765Y-98130969D01*
X144437749Y-98125894D01*
X144455002Y-98116526D01*
X144463064Y-98113432D01*
X144480571Y-98095924D01*
X144489529Y-98088272D01*
X144509558Y-98073722D01*
X144513875Y-98066243D01*
X144525822Y-98050672D01*
X144584539Y-97991957D01*
X144598873Y-97977624D01*
X144623269Y-97961324D01*
X144652046Y-97955600D01*
X145599265Y-97955600D01*
X145638557Y-97966681D01*
X145666268Y-97996659D01*
X145716708Y-98095652D01*
X145807846Y-98186790D01*
X145807848Y-98186791D01*
X145807849Y-98186792D01*
X145922694Y-98245309D01*
X146050000Y-98265472D01*
X146177306Y-98245309D01*
X146292151Y-98186792D01*
X146383292Y-98095651D01*
X146441809Y-97980806D01*
X146461972Y-97853500D01*
X146441809Y-97726194D01*
X146383292Y-97611349D01*
X146383291Y-97611348D01*
X146383290Y-97611346D01*
X146292153Y-97520209D01*
X146177305Y-97461690D01*
X146050000Y-97441528D01*
X145922694Y-97461690D01*
X145868697Y-97489204D01*
X145834557Y-97497400D01*
X144533967Y-97497400D01*
X144530033Y-97497297D01*
X144489361Y-97495166D01*
X144466254Y-97504035D01*
X144454946Y-97507384D01*
X144430734Y-97512531D01*
X144423746Y-97517608D01*
X144406503Y-97526970D01*
X144398436Y-97530066D01*
X144380932Y-97547570D01*
X144371964Y-97555230D01*
X144351940Y-97569778D01*
X144347623Y-97577257D01*
X144335674Y-97592829D01*
X144262626Y-97665876D01*
X144238233Y-97682176D01*
X144209455Y-97687900D01*
X144080544Y-97687900D01*
X144051766Y-97682176D01*
X144027370Y-97665874D01*
X143931631Y-97570135D01*
X143928920Y-97567279D01*
X143926339Y-97564412D01*
X143901670Y-97537014D01*
X143901668Y-97537013D01*
X143879058Y-97526945D01*
X143868692Y-97521317D01*
X143847935Y-97507838D01*
X143839402Y-97506486D01*
X143820586Y-97500912D01*
X143812697Y-97497400D01*
X143787946Y-97497400D01*
X143776182Y-97496474D01*
X143773830Y-97496101D01*
X143751742Y-97492602D01*
X143743401Y-97494838D01*
X143723938Y-97497400D01*
X139453967Y-97497400D01*
X139450033Y-97497297D01*
X139409361Y-97495166D01*
X139386254Y-97504035D01*
X139374946Y-97507384D01*
X139350734Y-97512531D01*
X139343746Y-97517608D01*
X139326503Y-97526970D01*
X139318436Y-97530066D01*
X139300932Y-97547570D01*
X139291964Y-97555230D01*
X139271940Y-97569778D01*
X139267623Y-97577257D01*
X139255674Y-97592829D01*
X139182626Y-97665876D01*
X139158233Y-97682176D01*
X139129455Y-97687900D01*
X135516967Y-97687900D01*
X135513033Y-97687797D01*
X135472361Y-97685666D01*
X135449254Y-97694535D01*
X135437946Y-97697884D01*
X135413734Y-97703031D01*
X135406746Y-97708108D01*
X135389503Y-97717470D01*
X135381436Y-97720566D01*
X135363932Y-97738070D01*
X135354964Y-97745729D01*
X135334942Y-97760277D01*
X135330622Y-97767759D01*
X135318673Y-97783329D01*
X134849601Y-98252401D01*
X134811101Y-98272981D01*
X134767654Y-98268705D01*
X134764339Y-98267332D01*
X134764338Y-98267331D01*
X134764336Y-98267331D01*
X134620000Y-98248329D01*
X134475664Y-98267331D01*
X134341164Y-98323043D01*
X134225667Y-98411667D01*
X134137043Y-98527164D01*
X134081331Y-98661664D01*
X134062329Y-98805999D01*
X132637671Y-98805999D01*
X132618669Y-98661664D01*
X132562957Y-98527165D01*
X132474333Y-98411667D01*
X132416584Y-98367354D01*
X132358837Y-98323043D01*
X132224336Y-98267331D01*
X132080000Y-98248329D01*
X131935664Y-98267331D01*
X131801164Y-98323043D01*
X131685667Y-98411667D01*
X131597043Y-98527164D01*
X131541331Y-98661664D01*
X131522329Y-98805999D01*
X130097671Y-98805999D01*
X130078669Y-98661664D01*
X130022957Y-98527165D01*
X129934333Y-98411667D01*
X129876584Y-98367354D01*
X129818837Y-98323043D01*
X129684336Y-98267331D01*
X129540000Y-98248329D01*
X129395664Y-98267331D01*
X129395661Y-98267331D01*
X129395661Y-98267332D01*
X129392347Y-98268705D01*
X129348900Y-98272983D01*
X129310398Y-98252402D01*
X128409712Y-97351714D01*
X128409701Y-97351705D01*
X127789330Y-96731334D01*
X127167630Y-96109633D01*
X127164920Y-96106778D01*
X127137669Y-96076513D01*
X127115058Y-96066445D01*
X127104692Y-96060817D01*
X127083935Y-96047338D01*
X127075402Y-96045986D01*
X127056586Y-96040412D01*
X127048697Y-96036900D01*
X127023946Y-96036900D01*
X127012182Y-96035974D01*
X127009830Y-96035601D01*
X126987742Y-96032102D01*
X126979401Y-96034338D01*
X126959938Y-96036900D01*
X122289294Y-96036900D01*
X122241969Y-96020141D01*
X122215737Y-95977335D01*
X122222290Y-95927560D01*
X122244457Y-95884055D01*
X122264422Y-95758000D01*
X122244457Y-95631945D01*
X122186516Y-95518229D01*
X122096271Y-95427984D01*
X122017423Y-95387809D01*
X121982554Y-95370042D01*
X121856500Y-95350078D01*
X121730445Y-95370042D01*
X121616727Y-95427985D01*
X121526485Y-95518227D01*
X121468542Y-95631945D01*
X121448578Y-95757999D01*
X121468542Y-95884054D01*
X121490710Y-95927560D01*
X121497263Y-95977335D01*
X121471031Y-96020141D01*
X121423706Y-96036900D01*
X114553044Y-96036900D01*
X114524266Y-96031176D01*
X114499870Y-96014874D01*
X113734996Y-95250000D01*
X118822329Y-95250000D01*
X118841331Y-95394336D01*
X118897043Y-95528837D01*
X118931795Y-95574126D01*
X118985667Y-95644333D01*
X119048558Y-95692591D01*
X119101162Y-95732956D01*
X119101163Y-95732956D01*
X119101164Y-95732957D01*
X119235664Y-95788669D01*
X119380000Y-95807671D01*
X119524336Y-95788669D01*
X119658836Y-95732957D01*
X119774333Y-95644333D01*
X119862957Y-95528836D01*
X119918669Y-95394336D01*
X119937671Y-95250000D01*
X119918669Y-95105664D01*
X119862957Y-94971165D01*
X119774333Y-94855667D01*
X119679576Y-94782957D01*
X119658837Y-94767043D01*
X119524336Y-94711331D01*
X119380000Y-94692329D01*
X119235664Y-94711331D01*
X119101164Y-94767043D01*
X118985667Y-94855667D01*
X118897043Y-94971164D01*
X118841331Y-95105664D01*
X118822329Y-95250000D01*
X113734996Y-95250000D01*
X112591995Y-94106999D01*
X117552329Y-94106999D01*
X117571331Y-94251336D01*
X117627043Y-94385837D01*
X117631751Y-94391972D01*
X117715667Y-94501333D01*
X117790924Y-94559080D01*
X117831162Y-94589956D01*
X117831163Y-94589956D01*
X117831164Y-94589957D01*
X117965664Y-94645669D01*
X118110000Y-94664671D01*
X118254336Y-94645669D01*
X118388836Y-94589957D01*
X118504333Y-94501333D01*
X118592957Y-94385836D01*
X118603245Y-94360999D01*
X120700443Y-94360999D01*
X120718977Y-94489910D01*
X120773078Y-94608373D01*
X120773079Y-94608374D01*
X120858364Y-94706799D01*
X120967924Y-94777208D01*
X121092883Y-94813900D01*
X121223116Y-94813900D01*
X121223117Y-94813900D01*
X121348076Y-94777208D01*
X121457636Y-94706799D01*
X121542921Y-94608374D01*
X121597023Y-94489909D01*
X121615557Y-94361000D01*
X121597023Y-94232091D01*
X121542921Y-94113626D01*
X121457636Y-94015201D01*
X121348076Y-93944792D01*
X121348075Y-93944791D01*
X121348074Y-93944791D01*
X121275060Y-93923352D01*
X121223117Y-93908100D01*
X121092883Y-93908100D01*
X121056192Y-93918873D01*
X120967925Y-93944791D01*
X120940114Y-93962664D01*
X120858364Y-94015201D01*
X120858363Y-94015201D01*
X120858363Y-94015202D01*
X120773078Y-94113626D01*
X120718977Y-94232089D01*
X120700443Y-94360999D01*
X118603245Y-94360999D01*
X118648669Y-94251336D01*
X118667671Y-94107000D01*
X118648669Y-93962664D01*
X118592957Y-93828165D01*
X118504333Y-93712667D01*
X118418374Y-93646708D01*
X118388837Y-93624043D01*
X118254336Y-93568331D01*
X118110000Y-93549329D01*
X117965664Y-93568331D01*
X117831164Y-93624043D01*
X117715667Y-93712667D01*
X117627043Y-93828164D01*
X117571331Y-93962664D01*
X117552329Y-94106999D01*
X112591995Y-94106999D01*
X111766496Y-93281500D01*
X114777028Y-93281500D01*
X114797190Y-93408805D01*
X114855709Y-93523653D01*
X114946846Y-93614790D01*
X114946848Y-93614791D01*
X114946849Y-93614792D01*
X115061694Y-93673309D01*
X115189000Y-93693472D01*
X115227105Y-93687436D01*
X115262102Y-93690190D01*
X115292039Y-93708536D01*
X115338868Y-93755365D01*
X115341579Y-93758221D01*
X115368828Y-93788485D01*
X115368829Y-93788485D01*
X115368830Y-93788486D01*
X115391440Y-93798552D01*
X115401802Y-93804179D01*
X115415338Y-93812969D01*
X115422564Y-93817662D01*
X115431093Y-93819013D01*
X115449916Y-93824588D01*
X115457803Y-93828100D01*
X115482553Y-93828100D01*
X115494317Y-93829026D01*
X115518758Y-93832897D01*
X115518758Y-93832896D01*
X115518759Y-93832897D01*
X115523658Y-93831584D01*
X115527101Y-93830662D01*
X115546564Y-93828100D01*
X116260540Y-93828100D01*
X116264476Y-93828203D01*
X116305139Y-93830334D01*
X116328238Y-93821467D01*
X116339557Y-93818114D01*
X116344596Y-93817043D01*
X116363765Y-93812969D01*
X116370749Y-93807894D01*
X116388002Y-93798526D01*
X116396064Y-93795432D01*
X116413565Y-93777929D01*
X116422540Y-93770265D01*
X116434838Y-93761331D01*
X116442558Y-93755722D01*
X116446874Y-93748244D01*
X116458820Y-93732674D01*
X116849372Y-93342123D01*
X116873766Y-93325824D01*
X116902544Y-93320100D01*
X123563040Y-93320100D01*
X123566976Y-93320203D01*
X123607639Y-93322334D01*
X123630738Y-93313467D01*
X123642057Y-93310114D01*
X123666265Y-93304969D01*
X123673249Y-93299894D01*
X123690502Y-93290526D01*
X123698564Y-93287432D01*
X123716065Y-93269929D01*
X123725040Y-93262265D01*
X123745058Y-93247722D01*
X123745057Y-93247722D01*
X123749374Y-93240244D01*
X123761323Y-93224671D01*
X125626961Y-91359034D01*
X125656896Y-91340690D01*
X125691893Y-91337936D01*
X125730000Y-91343972D01*
X125857306Y-91323809D01*
X125972151Y-91265292D01*
X126063292Y-91174151D01*
X126121809Y-91059306D01*
X126141972Y-90932000D01*
X126121809Y-90804694D01*
X126063292Y-90689849D01*
X126063291Y-90689848D01*
X126063290Y-90689846D01*
X125972153Y-90598709D01*
X125857305Y-90540190D01*
X125730000Y-90520028D01*
X125602694Y-90540190D01*
X125487846Y-90598709D01*
X125396709Y-90689846D01*
X125338190Y-90804694D01*
X125318028Y-90932000D01*
X125324062Y-90970104D01*
X125321307Y-91005105D01*
X125302962Y-91035040D01*
X123498129Y-92839874D01*
X123473733Y-92856176D01*
X123444955Y-92861900D01*
X116784459Y-92861900D01*
X116780524Y-92861797D01*
X116739861Y-92859666D01*
X116739860Y-92859666D01*
X116716748Y-92868536D01*
X116705445Y-92871884D01*
X116681233Y-92877031D01*
X116674246Y-92882107D01*
X116657001Y-92891471D01*
X116648935Y-92894567D01*
X116631429Y-92912072D01*
X116622461Y-92919731D01*
X116602441Y-92934276D01*
X116598124Y-92941755D01*
X116586174Y-92957327D01*
X116195626Y-93347876D01*
X116171233Y-93364176D01*
X116142455Y-93369900D01*
X115675018Y-93369900D01*
X115634061Y-93357768D01*
X115606319Y-93325285D01*
X115600744Y-93282937D01*
X115600972Y-93281500D01*
X115580809Y-93154194D01*
X115522292Y-93039349D01*
X115522291Y-93039348D01*
X115522290Y-93039346D01*
X115431153Y-92948209D01*
X115316305Y-92889690D01*
X115189000Y-92869528D01*
X115061694Y-92889690D01*
X114946846Y-92948209D01*
X114855709Y-93039346D01*
X114797190Y-93154194D01*
X114777028Y-93281500D01*
X111766496Y-93281500D01*
X111632870Y-93147874D01*
X110940996Y-92456000D01*
X112110028Y-92456000D01*
X112130190Y-92583305D01*
X112188709Y-92698153D01*
X112279846Y-92789290D01*
X112279848Y-92789291D01*
X112279849Y-92789292D01*
X112394694Y-92847809D01*
X112522000Y-92867972D01*
X112649306Y-92847809D01*
X112764151Y-92789292D01*
X112789314Y-92764129D01*
X112846318Y-92707126D01*
X112870714Y-92690824D01*
X112899492Y-92685100D01*
X123055040Y-92685100D01*
X123058976Y-92685203D01*
X123099639Y-92687334D01*
X123122738Y-92678467D01*
X123134057Y-92675114D01*
X123158265Y-92669969D01*
X123165249Y-92664894D01*
X123182502Y-92655526D01*
X123190564Y-92652432D01*
X123208065Y-92634929D01*
X123217040Y-92627265D01*
X123237058Y-92612722D01*
X123241373Y-92605247D01*
X123253323Y-92589671D01*
X125485370Y-90357626D01*
X125509767Y-90341324D01*
X125538545Y-90335600D01*
X126048456Y-90335600D01*
X126077234Y-90341324D01*
X126101630Y-90357626D01*
X126572962Y-90828958D01*
X126591307Y-90858893D01*
X126594062Y-90893894D01*
X126588027Y-90931998D01*
X126608190Y-91059305D01*
X126666709Y-91174153D01*
X126757846Y-91265290D01*
X126757848Y-91265291D01*
X126757849Y-91265292D01*
X126872694Y-91323809D01*
X127000000Y-91343972D01*
X127038106Y-91337936D01*
X127073103Y-91340690D01*
X127103040Y-91359036D01*
X132801368Y-97057365D01*
X132804079Y-97060221D01*
X132831328Y-97090485D01*
X132831329Y-97090485D01*
X132831330Y-97090486D01*
X132853940Y-97100552D01*
X132864302Y-97106179D01*
X132885064Y-97119662D01*
X132893593Y-97121013D01*
X132912416Y-97126588D01*
X132920303Y-97130100D01*
X132945053Y-97130100D01*
X132956817Y-97131026D01*
X132981258Y-97134897D01*
X132981258Y-97134896D01*
X132981259Y-97134897D01*
X132986158Y-97133584D01*
X132989601Y-97132662D01*
X133009064Y-97130100D01*
X146177956Y-97130100D01*
X146206734Y-97135824D01*
X146231129Y-97152125D01*
X146630756Y-97551753D01*
X147025368Y-97946365D01*
X147028079Y-97949221D01*
X147055328Y-97979485D01*
X147055329Y-97979485D01*
X147055330Y-97979486D01*
X147077940Y-97989552D01*
X147088302Y-97995179D01*
X147109064Y-98008662D01*
X147117593Y-98010013D01*
X147136416Y-98015588D01*
X147144303Y-98019100D01*
X147169053Y-98019100D01*
X147180817Y-98020026D01*
X147205258Y-98023897D01*
X147205258Y-98023896D01*
X147205259Y-98023897D01*
X147210158Y-98022584D01*
X147213601Y-98021662D01*
X147233064Y-98019100D01*
X148717956Y-98019100D01*
X148746734Y-98024824D01*
X148771130Y-98041126D01*
X149306402Y-98576398D01*
X149326983Y-98614900D01*
X149322705Y-98658347D01*
X149321333Y-98661660D01*
X149321331Y-98661664D01*
X149305724Y-98780205D01*
X149302329Y-98805999D01*
X149321331Y-98950336D01*
X149377043Y-99084837D01*
X149421354Y-99142584D01*
X149465667Y-99200333D01*
X149540924Y-99258080D01*
X149581162Y-99288956D01*
X149581163Y-99288956D01*
X149581164Y-99288957D01*
X149715664Y-99344669D01*
X149860000Y-99363671D01*
X150004336Y-99344669D01*
X150138836Y-99288957D01*
X150254333Y-99200333D01*
X150342957Y-99084836D01*
X150398669Y-98950336D01*
X150417671Y-98806000D01*
X150417671Y-98805999D01*
X151842329Y-98805999D01*
X151861331Y-98950336D01*
X151917043Y-99084837D01*
X151961354Y-99142584D01*
X152005667Y-99200333D01*
X152080924Y-99258080D01*
X152121162Y-99288956D01*
X152121163Y-99288956D01*
X152121164Y-99288957D01*
X152255664Y-99344669D01*
X152400000Y-99363671D01*
X152544336Y-99344669D01*
X152678836Y-99288957D01*
X152794333Y-99200333D01*
X152882957Y-99084836D01*
X152938669Y-98950336D01*
X152957671Y-98806000D01*
X152957671Y-98805999D01*
X154382329Y-98805999D01*
X154401331Y-98950336D01*
X154457043Y-99084837D01*
X154501354Y-99142584D01*
X154545667Y-99200333D01*
X154620924Y-99258080D01*
X154661162Y-99288956D01*
X154661163Y-99288956D01*
X154661164Y-99288957D01*
X154795664Y-99344669D01*
X154940000Y-99363671D01*
X155084336Y-99344669D01*
X155218836Y-99288957D01*
X155334333Y-99200333D01*
X155422957Y-99084836D01*
X155478669Y-98950336D01*
X155497671Y-98806000D01*
X155497671Y-98805999D01*
X156922329Y-98805999D01*
X156941331Y-98950336D01*
X156997043Y-99084837D01*
X157041354Y-99142584D01*
X157085667Y-99200333D01*
X157160924Y-99258080D01*
X157201162Y-99288956D01*
X157201163Y-99288956D01*
X157201164Y-99288957D01*
X157335664Y-99344669D01*
X157480000Y-99363671D01*
X157624336Y-99344669D01*
X157758836Y-99288957D01*
X157874333Y-99200333D01*
X157962957Y-99084836D01*
X158018669Y-98950336D01*
X158037671Y-98806000D01*
X158018669Y-98661664D01*
X157962957Y-98527165D01*
X157874333Y-98411667D01*
X157816584Y-98367354D01*
X157758837Y-98323043D01*
X157624336Y-98267331D01*
X157480000Y-98248329D01*
X157335664Y-98267331D01*
X157201164Y-98323043D01*
X157085667Y-98411667D01*
X156997043Y-98527164D01*
X156941331Y-98661664D01*
X156922329Y-98805999D01*
X155497671Y-98805999D01*
X155478669Y-98661664D01*
X155422957Y-98527165D01*
X155334333Y-98411667D01*
X155276584Y-98367354D01*
X155218837Y-98323043D01*
X155084336Y-98267331D01*
X154940000Y-98248329D01*
X154795664Y-98267331D01*
X154661164Y-98323043D01*
X154545667Y-98411667D01*
X154457043Y-98527164D01*
X154401331Y-98661664D01*
X154382329Y-98805999D01*
X152957671Y-98805999D01*
X152938669Y-98661664D01*
X152882957Y-98527165D01*
X152794333Y-98411667D01*
X152736584Y-98367354D01*
X152678837Y-98323043D01*
X152544336Y-98267331D01*
X152400000Y-98248329D01*
X152255664Y-98267331D01*
X152121164Y-98323043D01*
X152005667Y-98411667D01*
X151917043Y-98527164D01*
X151861331Y-98661664D01*
X151842329Y-98805999D01*
X150417671Y-98805999D01*
X150398669Y-98661664D01*
X150342957Y-98527165D01*
X150254333Y-98411667D01*
X150196584Y-98367354D01*
X150138837Y-98323043D01*
X150004336Y-98267331D01*
X149860000Y-98248329D01*
X149715664Y-98267331D01*
X149715661Y-98267331D01*
X149715661Y-98267332D01*
X149712347Y-98268705D01*
X149668900Y-98272983D01*
X149630398Y-98252402D01*
X149333596Y-97955600D01*
X149011630Y-97633633D01*
X149008920Y-97630778D01*
X148981669Y-97600513D01*
X148959058Y-97590445D01*
X148948692Y-97584817D01*
X148927935Y-97571338D01*
X148919402Y-97569986D01*
X148900586Y-97564412D01*
X148892697Y-97560900D01*
X148867946Y-97560900D01*
X148856182Y-97559974D01*
X148853830Y-97559601D01*
X148831742Y-97556102D01*
X148823401Y-97558338D01*
X148803938Y-97560900D01*
X147319044Y-97560900D01*
X147290266Y-97555176D01*
X147265870Y-97538874D01*
X146471630Y-96744633D01*
X146468920Y-96741778D01*
X146451532Y-96722467D01*
X146441670Y-96711514D01*
X146441669Y-96711513D01*
X146419058Y-96701445D01*
X146408692Y-96695817D01*
X146387935Y-96682338D01*
X146379402Y-96680986D01*
X146360586Y-96675412D01*
X146352697Y-96671900D01*
X146327946Y-96671900D01*
X146316182Y-96670974D01*
X146313830Y-96670601D01*
X146291742Y-96667102D01*
X146283401Y-96669338D01*
X146263938Y-96671900D01*
X133095044Y-96671900D01*
X133066266Y-96666176D01*
X133041870Y-96649874D01*
X132891995Y-96499999D01*
X146988028Y-96499999D01*
X147008190Y-96627305D01*
X147066709Y-96742153D01*
X147157846Y-96833290D01*
X147157848Y-96833291D01*
X147157849Y-96833292D01*
X147272694Y-96891809D01*
X147400000Y-96911972D01*
X147527306Y-96891809D01*
X147642151Y-96833292D01*
X147671710Y-96803733D01*
X147724318Y-96751126D01*
X147748714Y-96734824D01*
X147777492Y-96729100D01*
X154792040Y-96729100D01*
X154795976Y-96729203D01*
X154836639Y-96731334D01*
X154859738Y-96722467D01*
X154871057Y-96719114D01*
X154895265Y-96713969D01*
X154902249Y-96708894D01*
X154919502Y-96699526D01*
X154927564Y-96696432D01*
X154945065Y-96678929D01*
X154954040Y-96671265D01*
X154956693Y-96669338D01*
X154974058Y-96656722D01*
X154978374Y-96649244D01*
X154990323Y-96633671D01*
X155484994Y-96139000D01*
X163799028Y-96139000D01*
X163819190Y-96266305D01*
X163877709Y-96381153D01*
X163968846Y-96472290D01*
X163968848Y-96472291D01*
X163968849Y-96472292D01*
X164083694Y-96530809D01*
X164211000Y-96550972D01*
X164338306Y-96530809D01*
X164453151Y-96472292D01*
X164544292Y-96381151D01*
X164602809Y-96266306D01*
X164622972Y-96139000D01*
X164602809Y-96011694D01*
X164544292Y-95896849D01*
X164544291Y-95896848D01*
X164544290Y-95896846D01*
X164453153Y-95805709D01*
X164338305Y-95747190D01*
X164211000Y-95727028D01*
X164083694Y-95747190D01*
X163968846Y-95805709D01*
X163877709Y-95896846D01*
X163819190Y-96011694D01*
X163799028Y-96139000D01*
X155484994Y-96139000D01*
X156246994Y-95377000D01*
X156822305Y-95377000D01*
X156841416Y-95534398D01*
X156878411Y-95631945D01*
X156897640Y-95682646D01*
X156987708Y-95813132D01*
X157106387Y-95918272D01*
X157246778Y-95991956D01*
X157400724Y-96029900D01*
X157559276Y-96029900D01*
X157713222Y-95991956D01*
X157853613Y-95918272D01*
X157972292Y-95813132D01*
X158062360Y-95682646D01*
X158118584Y-95534397D01*
X158137695Y-95377000D01*
X158118584Y-95219603D01*
X158062360Y-95071354D01*
X157972292Y-94940868D01*
X157853613Y-94835728D01*
X157853612Y-94835727D01*
X157713221Y-94762043D01*
X157559276Y-94724100D01*
X157400724Y-94724100D01*
X157246778Y-94762043D01*
X157106387Y-94835727D01*
X156987708Y-94940868D01*
X156897640Y-95071353D01*
X156841416Y-95219601D01*
X156822305Y-95377000D01*
X156246994Y-95377000D01*
X157516995Y-94107000D01*
X158192329Y-94107000D01*
X158211331Y-94251336D01*
X158267043Y-94385837D01*
X158271751Y-94391972D01*
X158355667Y-94501333D01*
X158430924Y-94559080D01*
X158471162Y-94589956D01*
X158471163Y-94589956D01*
X158471164Y-94589957D01*
X158605664Y-94645669D01*
X158750000Y-94664671D01*
X158894336Y-94645669D01*
X159028836Y-94589957D01*
X159144333Y-94501333D01*
X159232957Y-94385836D01*
X159288669Y-94251336D01*
X159307671Y-94107000D01*
X159288669Y-93962664D01*
X159232957Y-93828165D01*
X159144333Y-93712667D01*
X159058374Y-93646708D01*
X159028837Y-93624043D01*
X158894336Y-93568331D01*
X158750000Y-93549329D01*
X158605664Y-93568331D01*
X158471164Y-93624043D01*
X158355667Y-93712667D01*
X158267043Y-93828164D01*
X158211331Y-93962664D01*
X158192329Y-94107000D01*
X157516995Y-94107000D01*
X158256383Y-93367612D01*
X158259199Y-93364939D01*
X158289486Y-93337670D01*
X158299550Y-93315063D01*
X158305175Y-93304702D01*
X158318662Y-93283936D01*
X158320013Y-93275400D01*
X158325589Y-93256580D01*
X158329100Y-93248697D01*
X158329100Y-93223947D01*
X158330026Y-93212183D01*
X158333897Y-93187741D01*
X158331662Y-93179399D01*
X158329100Y-93159936D01*
X158329100Y-91835044D01*
X158334824Y-91806266D01*
X158351126Y-91781870D01*
X158544308Y-91588688D01*
X158692996Y-91439999D01*
X159836864Y-91439999D01*
X159856179Y-91710061D01*
X159913731Y-91974622D01*
X160008350Y-92228307D01*
X160138105Y-92465935D01*
X160138108Y-92465939D01*
X160295615Y-92676345D01*
X160300367Y-92682692D01*
X160491807Y-92874132D01*
X160491810Y-92874134D01*
X160491813Y-92874137D01*
X160699233Y-93029409D01*
X160708564Y-93036394D01*
X160946192Y-93166149D01*
X160946194Y-93166150D01*
X161199874Y-93260767D01*
X161199877Y-93260768D01*
X161457028Y-93316708D01*
X161464438Y-93318320D01*
X161734500Y-93337635D01*
X162004562Y-93318320D01*
X162198872Y-93276050D01*
X162269122Y-93260768D01*
X162269122Y-93260767D01*
X162269126Y-93260767D01*
X162522806Y-93166150D01*
X162760439Y-93036392D01*
X162977187Y-92874137D01*
X163168637Y-92682687D01*
X163330892Y-92465939D01*
X163460650Y-92228306D01*
X163555267Y-91974626D01*
X163565816Y-91926136D01*
X163579986Y-91860994D01*
X163612820Y-91710062D01*
X163632135Y-91440000D01*
X163623843Y-91324068D01*
X163612820Y-91169938D01*
X163555268Y-90905377D01*
X163548689Y-90887737D01*
X163460650Y-90651694D01*
X163420031Y-90577306D01*
X163330894Y-90414064D01*
X163321940Y-90402103D01*
X163168637Y-90197313D01*
X163168634Y-90197310D01*
X163168632Y-90197307D01*
X162977192Y-90005867D01*
X162934442Y-89973865D01*
X162760439Y-89843608D01*
X162760435Y-89843605D01*
X162522807Y-89713850D01*
X162269122Y-89619231D01*
X162004561Y-89561679D01*
X161734500Y-89542364D01*
X161464438Y-89561679D01*
X161199877Y-89619231D01*
X160946192Y-89713850D01*
X160708564Y-89843605D01*
X160491807Y-90005867D01*
X160300367Y-90197307D01*
X160138105Y-90414064D01*
X160008350Y-90651692D01*
X159913731Y-90905377D01*
X159856179Y-91169938D01*
X159836864Y-91439999D01*
X158692996Y-91439999D01*
X158756383Y-91376612D01*
X158759199Y-91373939D01*
X158789486Y-91346670D01*
X158799550Y-91324063D01*
X158805175Y-91313702D01*
X158818662Y-91292936D01*
X158820013Y-91284400D01*
X158825589Y-91265580D01*
X158829100Y-91257697D01*
X158829100Y-91232947D01*
X158830026Y-91221183D01*
X158833897Y-91196741D01*
X158831662Y-91188399D01*
X158829100Y-91168936D01*
X158829100Y-90827492D01*
X158834824Y-90798714D01*
X158851126Y-90774318D01*
X158933290Y-90692153D01*
X158933290Y-90692152D01*
X158933292Y-90692151D01*
X158991809Y-90577306D01*
X159011972Y-90450000D01*
X158991809Y-90322694D01*
X158933292Y-90207849D01*
X158933291Y-90207848D01*
X158933290Y-90207846D01*
X158842153Y-90116709D01*
X158727305Y-90058190D01*
X158600000Y-90038028D01*
X158472694Y-90058190D01*
X158357846Y-90116709D01*
X158266709Y-90207846D01*
X158208190Y-90322694D01*
X158189286Y-90442059D01*
X158188028Y-90450000D01*
X158189260Y-90457778D01*
X158208190Y-90577305D01*
X158266709Y-90692153D01*
X158348874Y-90774318D01*
X158365176Y-90798714D01*
X158370900Y-90827492D01*
X158370900Y-91082955D01*
X158365176Y-91111733D01*
X158348874Y-91136130D01*
X157943621Y-91541380D01*
X157940768Y-91544088D01*
X157910514Y-91571330D01*
X157900447Y-91593938D01*
X157894821Y-91604299D01*
X157881338Y-91625064D01*
X157879986Y-91633597D01*
X157874414Y-91652409D01*
X157870900Y-91660303D01*
X157870900Y-91685054D01*
X157869974Y-91696819D01*
X157866102Y-91721257D01*
X157868338Y-91729599D01*
X157870900Y-91749062D01*
X157870900Y-93073956D01*
X157865176Y-93102734D01*
X157848874Y-93127130D01*
X154727129Y-96248874D01*
X154702733Y-96265176D01*
X154673955Y-96270900D01*
X147777492Y-96270900D01*
X147748714Y-96265176D01*
X147724318Y-96248874D01*
X147642153Y-96166709D01*
X147527305Y-96108190D01*
X147400000Y-96088028D01*
X147272694Y-96108190D01*
X147157846Y-96166709D01*
X147066709Y-96257846D01*
X147008190Y-96372694D01*
X146988028Y-96499999D01*
X132891995Y-96499999D01*
X132213496Y-95821500D01*
X136702443Y-95821500D01*
X136720977Y-95950410D01*
X136775078Y-96068873D01*
X136775079Y-96068874D01*
X136860364Y-96167299D01*
X136969924Y-96237708D01*
X137094883Y-96274400D01*
X137225116Y-96274400D01*
X137225117Y-96274400D01*
X137350076Y-96237708D01*
X137459636Y-96167299D01*
X137544921Y-96068874D01*
X137599023Y-95950409D01*
X137617557Y-95821500D01*
X137599023Y-95692591D01*
X137544921Y-95574126D01*
X137459636Y-95475701D01*
X137350076Y-95405292D01*
X137350075Y-95405291D01*
X137350074Y-95405291D01*
X137253724Y-95377000D01*
X137225117Y-95368600D01*
X137094883Y-95368600D01*
X137066276Y-95377000D01*
X136969925Y-95405291D01*
X136915143Y-95440496D01*
X136860364Y-95475701D01*
X136860363Y-95475701D01*
X136860363Y-95475702D01*
X136775078Y-95574126D01*
X136720977Y-95692589D01*
X136702443Y-95821500D01*
X132213496Y-95821500D01*
X131641996Y-95250000D01*
X139142329Y-95250000D01*
X139161331Y-95394336D01*
X139217043Y-95528837D01*
X139251795Y-95574126D01*
X139305667Y-95644333D01*
X139368558Y-95692591D01*
X139421162Y-95732956D01*
X139421163Y-95732956D01*
X139421164Y-95732957D01*
X139555664Y-95788669D01*
X139700000Y-95807671D01*
X139844336Y-95788669D01*
X139978836Y-95732957D01*
X140094333Y-95644333D01*
X140182957Y-95528836D01*
X140194901Y-95500000D01*
X153792329Y-95500000D01*
X153811331Y-95644336D01*
X153867043Y-95778837D01*
X153893358Y-95813131D01*
X153955667Y-95894333D01*
X154028747Y-95950409D01*
X154071162Y-95982956D01*
X154071163Y-95982956D01*
X154071164Y-95982957D01*
X154205664Y-96038669D01*
X154350000Y-96057671D01*
X154494336Y-96038669D01*
X154628836Y-95982957D01*
X154744333Y-95894333D01*
X154832957Y-95778836D01*
X154888669Y-95644336D01*
X154907671Y-95500000D01*
X154888669Y-95355664D01*
X154832957Y-95221165D01*
X154744333Y-95105667D01*
X154657378Y-95038944D01*
X154628837Y-95017043D01*
X154494336Y-94961331D01*
X154350000Y-94942329D01*
X154205664Y-94961331D01*
X154071164Y-95017043D01*
X153955667Y-95105667D01*
X153867043Y-95221164D01*
X153811331Y-95355664D01*
X153792329Y-95500000D01*
X140194901Y-95500000D01*
X140238669Y-95394336D01*
X140257671Y-95250000D01*
X140238669Y-95105664D01*
X140182957Y-94971165D01*
X140094333Y-94855667D01*
X139999576Y-94782957D01*
X139978837Y-94767043D01*
X139844336Y-94711331D01*
X139700000Y-94692329D01*
X139555664Y-94711331D01*
X139421164Y-94767043D01*
X139305667Y-94855667D01*
X139217043Y-94971164D01*
X139161331Y-95105664D01*
X139142329Y-95250000D01*
X131641996Y-95250000D01*
X130752996Y-94360999D01*
X137464443Y-94360999D01*
X137482977Y-94489910D01*
X137537078Y-94608373D01*
X137537079Y-94608374D01*
X137622364Y-94706799D01*
X137731924Y-94777208D01*
X137856883Y-94813900D01*
X137987116Y-94813900D01*
X137987117Y-94813900D01*
X138112076Y-94777208D01*
X138221636Y-94706799D01*
X138306921Y-94608374D01*
X138361023Y-94489909D01*
X138379557Y-94361000D01*
X138361023Y-94232091D01*
X138306921Y-94113626D01*
X138221636Y-94015201D01*
X138166861Y-93980000D01*
X140367528Y-93980000D01*
X140387690Y-94107305D01*
X140446209Y-94222153D01*
X140537346Y-94313290D01*
X140537348Y-94313291D01*
X140537349Y-94313292D01*
X140652194Y-94371809D01*
X140779500Y-94391972D01*
X140906806Y-94371809D01*
X141021651Y-94313292D01*
X141034943Y-94300000D01*
X152892329Y-94300000D01*
X152911331Y-94444336D01*
X152967043Y-94578837D01*
X152989708Y-94608374D01*
X153055667Y-94694333D01*
X153117788Y-94742000D01*
X153171162Y-94782956D01*
X153171163Y-94782956D01*
X153171164Y-94782957D01*
X153305664Y-94838669D01*
X153450000Y-94857671D01*
X153594336Y-94838669D01*
X153728836Y-94782957D01*
X153844333Y-94694333D01*
X153932957Y-94578836D01*
X153988669Y-94444336D01*
X154007671Y-94300000D01*
X154692329Y-94300000D01*
X154711331Y-94444336D01*
X154767043Y-94578837D01*
X154789708Y-94608374D01*
X154855667Y-94694333D01*
X154917788Y-94742000D01*
X154971162Y-94782956D01*
X154971163Y-94782956D01*
X154971164Y-94782957D01*
X155105664Y-94838669D01*
X155250000Y-94857671D01*
X155394336Y-94838669D01*
X155528836Y-94782957D01*
X155644333Y-94694333D01*
X155732957Y-94578836D01*
X155788669Y-94444336D01*
X155807671Y-94300000D01*
X155788669Y-94155664D01*
X155732957Y-94021165D01*
X155644333Y-93905667D01*
X155575297Y-93852694D01*
X155528837Y-93817043D01*
X155394336Y-93761331D01*
X155250000Y-93742329D01*
X155105664Y-93761331D01*
X154971164Y-93817043D01*
X154855667Y-93905667D01*
X154767043Y-94021164D01*
X154711331Y-94155664D01*
X154692329Y-94300000D01*
X154007671Y-94300000D01*
X153988669Y-94155664D01*
X153932957Y-94021165D01*
X153844333Y-93905667D01*
X153775297Y-93852694D01*
X153728837Y-93817043D01*
X153594336Y-93761331D01*
X153450000Y-93742329D01*
X153305664Y-93761331D01*
X153171164Y-93817043D01*
X153055667Y-93905667D01*
X152967043Y-94021164D01*
X152911331Y-94155664D01*
X152892329Y-94300000D01*
X141034943Y-94300000D01*
X141112792Y-94222151D01*
X141171309Y-94107306D01*
X141191472Y-93980000D01*
X141171309Y-93852694D01*
X141112792Y-93737849D01*
X141112791Y-93737848D01*
X141112790Y-93737846D01*
X141021653Y-93646709D01*
X140906805Y-93588190D01*
X140779500Y-93568028D01*
X140652194Y-93588190D01*
X140537346Y-93646709D01*
X140446209Y-93737846D01*
X140387690Y-93852694D01*
X140367528Y-93980000D01*
X138166861Y-93980000D01*
X138112076Y-93944792D01*
X138112075Y-93944791D01*
X138112074Y-93944791D01*
X138039060Y-93923352D01*
X137987117Y-93908100D01*
X137856883Y-93908100D01*
X137820192Y-93918873D01*
X137731925Y-93944791D01*
X137704114Y-93962664D01*
X137622364Y-94015201D01*
X137622363Y-94015201D01*
X137622363Y-94015202D01*
X137537078Y-94113626D01*
X137482977Y-94232089D01*
X137464443Y-94360999D01*
X130752996Y-94360999D01*
X129292497Y-92900500D01*
X136702443Y-92900500D01*
X136720977Y-93029410D01*
X136775078Y-93147873D01*
X136775079Y-93147874D01*
X136860364Y-93246299D01*
X136969924Y-93316708D01*
X137094883Y-93353400D01*
X137225116Y-93353400D01*
X137225117Y-93353400D01*
X137350076Y-93316708D01*
X137459636Y-93246299D01*
X137544921Y-93147874D01*
X137599023Y-93029409D01*
X137614178Y-92924000D01*
X144042100Y-92924000D01*
X144047480Y-92964868D01*
X144064361Y-93027868D01*
X144101362Y-93091955D01*
X144105231Y-93098655D01*
X144151344Y-93144768D01*
X144151346Y-93144769D01*
X144151348Y-93144771D01*
X144222132Y-93185639D01*
X144285132Y-93202520D01*
X144326000Y-93207900D01*
X156923997Y-93207900D01*
X156924000Y-93207900D01*
X156964868Y-93202520D01*
X157027868Y-93185639D01*
X157098652Y-93144771D01*
X157144771Y-93098652D01*
X157185639Y-93027868D01*
X157202520Y-92964868D01*
X157207900Y-92924000D01*
X157207900Y-91703623D01*
X157206377Y-91685054D01*
X157205791Y-91677902D01*
X157200089Y-91643368D01*
X157199104Y-91637400D01*
X157182570Y-91588691D01*
X157182569Y-91588688D01*
X157172308Y-91569491D01*
X157163220Y-91552488D01*
X157149233Y-91530795D01*
X157140991Y-91520054D01*
X157131178Y-91503059D01*
X157098952Y-91425257D01*
X157093873Y-91406301D01*
X157082883Y-91322812D01*
X157082883Y-91303183D01*
X157091028Y-91241313D01*
X157093873Y-91219696D01*
X157098952Y-91200739D01*
X157131179Y-91122938D01*
X157140990Y-91105947D01*
X157149232Y-91095207D01*
X157163220Y-91073513D01*
X157182570Y-91037310D01*
X157199104Y-90988601D01*
X157205791Y-90948100D01*
X157207111Y-90931998D01*
X157207900Y-90922384D01*
X157207900Y-86994999D01*
X163799028Y-86994999D01*
X163819190Y-87122305D01*
X163877709Y-87237153D01*
X163968846Y-87328290D01*
X163968848Y-87328291D01*
X163968849Y-87328292D01*
X164083694Y-87386809D01*
X164211000Y-87406972D01*
X164338306Y-87386809D01*
X164453151Y-87328292D01*
X164544292Y-87237151D01*
X164602809Y-87122306D01*
X164622972Y-86995000D01*
X164602809Y-86867694D01*
X164544292Y-86752849D01*
X164544291Y-86752848D01*
X164544290Y-86752846D01*
X164453153Y-86661709D01*
X164338305Y-86603190D01*
X164211000Y-86583028D01*
X164083694Y-86603190D01*
X163968846Y-86661709D01*
X163877709Y-86752846D01*
X163819190Y-86867694D01*
X163799028Y-86994999D01*
X157207900Y-86994999D01*
X157207900Y-86377635D01*
X157207413Y-86372694D01*
X157204866Y-86346830D01*
X157195275Y-86298612D01*
X157171696Y-86241688D01*
X157159477Y-86223402D01*
X157155011Y-86215784D01*
X157115639Y-86138513D01*
X157108370Y-86116137D01*
X157107111Y-86108190D01*
X157099758Y-86061761D01*
X157099758Y-86038235D01*
X157108371Y-85983853D01*
X157115638Y-85961486D01*
X157155013Y-85884211D01*
X157159478Y-85876593D01*
X157171694Y-85858314D01*
X157195275Y-85801388D01*
X157204866Y-85753170D01*
X157207900Y-85722366D01*
X157207900Y-85576000D01*
X157202520Y-85535132D01*
X157185639Y-85472132D01*
X157144771Y-85401348D01*
X157144769Y-85401346D01*
X157144768Y-85401344D01*
X157098655Y-85355231D01*
X157027868Y-85314361D01*
X156964868Y-85297480D01*
X156924000Y-85292100D01*
X144326000Y-85292100D01*
X144295348Y-85296135D01*
X144285131Y-85297480D01*
X144222131Y-85314361D01*
X144151344Y-85355231D01*
X144105231Y-85401344D01*
X144064361Y-85472131D01*
X144064360Y-85472132D01*
X144064361Y-85472132D01*
X144047480Y-85535132D01*
X144042100Y-85576000D01*
X144042100Y-86199999D01*
X144042100Y-86849999D01*
X144042100Y-89049999D01*
X144042100Y-89449999D01*
X144042100Y-90149999D01*
X144042100Y-90999999D01*
X144042100Y-92199999D01*
X144042100Y-92924000D01*
X137614178Y-92924000D01*
X137617557Y-92900500D01*
X137599023Y-92771591D01*
X137544921Y-92653126D01*
X137459636Y-92554701D01*
X137350076Y-92484292D01*
X137350075Y-92484291D01*
X137350074Y-92484291D01*
X137253724Y-92456000D01*
X137225117Y-92447600D01*
X137094883Y-92447600D01*
X137066276Y-92456000D01*
X136969925Y-92484291D01*
X136964554Y-92487743D01*
X136860364Y-92554701D01*
X136860363Y-92554701D01*
X136860363Y-92554702D01*
X136775078Y-92653126D01*
X136720977Y-92771589D01*
X136702443Y-92900500D01*
X129292497Y-92900500D01*
X127427036Y-91035039D01*
X127408690Y-91005102D01*
X127405936Y-90970105D01*
X127411972Y-90932000D01*
X127391809Y-90804694D01*
X127333292Y-90689849D01*
X127333291Y-90689848D01*
X127333290Y-90689846D01*
X127242153Y-90598709D01*
X127127305Y-90540190D01*
X126999998Y-90520027D01*
X126961894Y-90526062D01*
X126926893Y-90523307D01*
X126896958Y-90504962D01*
X126630512Y-90238516D01*
X126342130Y-89950133D01*
X126339420Y-89947278D01*
X126318442Y-89923980D01*
X126312170Y-89917014D01*
X126312169Y-89917013D01*
X126289558Y-89906945D01*
X126279192Y-89901317D01*
X126258435Y-89887838D01*
X126249902Y-89886486D01*
X126231086Y-89880912D01*
X126223197Y-89877400D01*
X126198446Y-89877400D01*
X126186682Y-89876474D01*
X126184330Y-89876101D01*
X126162242Y-89872602D01*
X126153901Y-89874838D01*
X126134438Y-89877400D01*
X125420467Y-89877400D01*
X125416533Y-89877297D01*
X125375861Y-89875166D01*
X125352754Y-89884035D01*
X125341446Y-89887384D01*
X125317234Y-89892531D01*
X125310246Y-89897608D01*
X125293003Y-89906970D01*
X125284936Y-89910066D01*
X125267432Y-89927570D01*
X125258464Y-89935229D01*
X125238442Y-89949777D01*
X125234122Y-89957259D01*
X125222173Y-89972829D01*
X122990129Y-92204874D01*
X122965733Y-92221176D01*
X122936955Y-92226900D01*
X121680038Y-92226900D01*
X121633552Y-92210811D01*
X121606958Y-92169429D01*
X121611634Y-92120461D01*
X121660522Y-92013411D01*
X121660521Y-92013411D01*
X121660523Y-92013409D01*
X121679057Y-91884500D01*
X121660523Y-91755591D01*
X121606421Y-91637126D01*
X121521136Y-91538701D01*
X121411576Y-91468292D01*
X121411575Y-91468291D01*
X121411574Y-91468291D01*
X121315224Y-91440000D01*
X121286617Y-91431600D01*
X121156383Y-91431600D01*
X121127779Y-91439999D01*
X121031425Y-91468291D01*
X120977329Y-91503056D01*
X120921864Y-91538701D01*
X120921863Y-91538701D01*
X120921863Y-91538702D01*
X120836578Y-91637126D01*
X120782477Y-91755589D01*
X120764800Y-91878538D01*
X120763943Y-91884500D01*
X120768800Y-91918281D01*
X120782477Y-92013411D01*
X120831366Y-92120461D01*
X120836042Y-92169429D01*
X120809448Y-92210811D01*
X120762962Y-92226900D01*
X112899492Y-92226900D01*
X112870714Y-92221176D01*
X112846318Y-92204874D01*
X112764153Y-92122709D01*
X112649305Y-92064190D01*
X112522000Y-92044028D01*
X112394694Y-92064190D01*
X112279846Y-92122709D01*
X112188709Y-92213846D01*
X112130190Y-92328694D01*
X112110028Y-92456000D01*
X110940996Y-92456000D01*
X108752630Y-90267633D01*
X108749920Y-90264778D01*
X108722669Y-90234513D01*
X108700058Y-90224445D01*
X108689692Y-90218817D01*
X108668935Y-90205338D01*
X108660402Y-90203986D01*
X108641586Y-90198412D01*
X108633697Y-90194900D01*
X108608946Y-90194900D01*
X108597182Y-90193974D01*
X108594830Y-90193601D01*
X108572742Y-90190102D01*
X108564401Y-90192338D01*
X108544938Y-90194900D01*
X103758044Y-90194900D01*
X103729266Y-90189176D01*
X103704870Y-90172874D01*
X102789471Y-89257474D01*
X102768890Y-89218971D01*
X102773169Y-89175522D01*
X102800866Y-89141773D01*
X102842645Y-89129100D01*
X122928040Y-89129100D01*
X122931976Y-89129203D01*
X122972639Y-89131334D01*
X122995738Y-89122467D01*
X123007057Y-89119114D01*
X123031265Y-89113969D01*
X123038249Y-89108894D01*
X123055502Y-89099526D01*
X123063564Y-89096432D01*
X123081065Y-89078929D01*
X123090040Y-89071265D01*
X123110058Y-89056722D01*
X123114375Y-89049243D01*
X123126322Y-89033672D01*
X123770871Y-88389125D01*
X123795268Y-88372824D01*
X123824046Y-88367100D01*
X127789857Y-88367100D01*
X127823997Y-88375296D01*
X127850695Y-88398099D01*
X127864131Y-88430536D01*
X127878190Y-88519304D01*
X127936709Y-88634153D01*
X128027846Y-88725290D01*
X128027848Y-88725291D01*
X128027849Y-88725292D01*
X128142694Y-88783809D01*
X128270000Y-88803972D01*
X128397306Y-88783809D01*
X128512151Y-88725292D01*
X128603292Y-88634151D01*
X128661809Y-88519306D01*
X128681972Y-88392000D01*
X128661809Y-88264694D01*
X128603292Y-88149849D01*
X128603291Y-88149848D01*
X128603290Y-88149846D01*
X128567918Y-88114474D01*
X128547337Y-88075971D01*
X128551616Y-88032522D01*
X128579313Y-87998773D01*
X128621092Y-87986100D01*
X129540956Y-87986100D01*
X129569734Y-87991824D01*
X129594130Y-88008126D01*
X129923874Y-88337870D01*
X129940176Y-88362266D01*
X129945900Y-88391044D01*
X129945900Y-90289041D01*
X129945797Y-90292976D01*
X129943666Y-90333639D01*
X129952533Y-90356740D01*
X129955883Y-90368050D01*
X129961030Y-90392263D01*
X129966108Y-90399253D01*
X129975472Y-90416500D01*
X129978567Y-90424563D01*
X129978568Y-90424564D01*
X129996069Y-90442065D01*
X130003728Y-90451032D01*
X130018278Y-90471059D01*
X130025756Y-90475376D01*
X130041331Y-90487327D01*
X130382962Y-90828958D01*
X130401307Y-90858893D01*
X130404062Y-90893894D01*
X130398027Y-90931998D01*
X130418190Y-91059305D01*
X130476709Y-91174153D01*
X130567846Y-91265290D01*
X130567848Y-91265291D01*
X130567849Y-91265292D01*
X130682694Y-91323809D01*
X130810000Y-91343972D01*
X130937306Y-91323809D01*
X131052151Y-91265292D01*
X131143292Y-91174151D01*
X131201809Y-91059306D01*
X131221972Y-90932000D01*
X131201809Y-90804694D01*
X131143292Y-90689849D01*
X131143291Y-90689848D01*
X131143290Y-90689846D01*
X131052153Y-90598709D01*
X130937305Y-90540190D01*
X130809998Y-90520027D01*
X130771895Y-90526062D01*
X130736894Y-90523307D01*
X130706959Y-90504962D01*
X130426126Y-90224129D01*
X130409824Y-90199733D01*
X130404100Y-90170955D01*
X130404100Y-88743092D01*
X130416773Y-88701313D01*
X130450522Y-88673616D01*
X130493971Y-88669337D01*
X130532474Y-88689918D01*
X130567846Y-88725290D01*
X130567848Y-88725291D01*
X130567849Y-88725292D01*
X130682694Y-88783809D01*
X130810000Y-88803972D01*
X130937306Y-88783809D01*
X131052151Y-88725292D01*
X131061125Y-88716318D01*
X131087526Y-88689918D01*
X131126029Y-88669337D01*
X131169478Y-88673616D01*
X131203227Y-88701313D01*
X131215900Y-88743092D01*
X131215900Y-90289041D01*
X131215797Y-90292976D01*
X131213666Y-90333639D01*
X131222533Y-90356740D01*
X131225883Y-90368050D01*
X131231030Y-90392263D01*
X131236108Y-90399253D01*
X131245472Y-90416500D01*
X131248567Y-90424563D01*
X131248568Y-90424564D01*
X131266069Y-90442065D01*
X131273728Y-90451032D01*
X131288278Y-90471059D01*
X131295756Y-90475376D01*
X131311331Y-90487327D01*
X131652962Y-90828958D01*
X131671307Y-90858893D01*
X131674062Y-90893894D01*
X131668027Y-90931998D01*
X131688190Y-91059305D01*
X131746709Y-91174153D01*
X131837846Y-91265290D01*
X131837848Y-91265291D01*
X131837849Y-91265292D01*
X131952694Y-91323809D01*
X132080000Y-91343972D01*
X132207306Y-91323809D01*
X132322151Y-91265292D01*
X132413292Y-91174151D01*
X132471809Y-91059306D01*
X132491972Y-90932000D01*
X132471809Y-90804694D01*
X132413292Y-90689849D01*
X132413291Y-90689848D01*
X132413290Y-90689846D01*
X132322153Y-90598709D01*
X132207305Y-90540190D01*
X132079998Y-90520027D01*
X132041895Y-90526062D01*
X132006894Y-90523307D01*
X131976959Y-90504962D01*
X131696126Y-90224129D01*
X131679824Y-90199733D01*
X131674100Y-90170955D01*
X131674100Y-88743092D01*
X131686773Y-88701313D01*
X131720522Y-88673616D01*
X131763971Y-88669337D01*
X131802474Y-88689918D01*
X131837846Y-88725290D01*
X131837848Y-88725291D01*
X131837849Y-88725292D01*
X131952694Y-88783809D01*
X132080000Y-88803972D01*
X132207306Y-88783809D01*
X132322151Y-88725292D01*
X132331125Y-88716318D01*
X132357526Y-88689918D01*
X132396029Y-88669337D01*
X132439478Y-88673616D01*
X132473227Y-88701313D01*
X132485900Y-88743092D01*
X132485900Y-90289041D01*
X132485797Y-90292976D01*
X132483666Y-90333639D01*
X132492533Y-90356740D01*
X132495883Y-90368050D01*
X132501030Y-90392263D01*
X132506108Y-90399253D01*
X132515472Y-90416500D01*
X132518567Y-90424563D01*
X132518568Y-90424564D01*
X132536069Y-90442065D01*
X132543728Y-90451032D01*
X132558278Y-90471059D01*
X132565756Y-90475376D01*
X132581331Y-90487327D01*
X132922962Y-90828958D01*
X132941307Y-90858893D01*
X132944062Y-90893894D01*
X132938027Y-90931998D01*
X132958190Y-91059305D01*
X133016709Y-91174153D01*
X133107846Y-91265290D01*
X133107848Y-91265291D01*
X133107849Y-91265292D01*
X133222694Y-91323809D01*
X133350000Y-91343972D01*
X133477306Y-91323809D01*
X133592151Y-91265292D01*
X133683292Y-91174151D01*
X133741809Y-91059306D01*
X133761972Y-90932000D01*
X133741809Y-90804694D01*
X133683292Y-90689849D01*
X133683291Y-90689848D01*
X133683290Y-90689846D01*
X133592153Y-90598709D01*
X133477305Y-90540190D01*
X133349998Y-90520027D01*
X133311895Y-90526062D01*
X133276894Y-90523307D01*
X133246959Y-90504962D01*
X132966126Y-90224129D01*
X132949824Y-90199733D01*
X132944100Y-90170955D01*
X132944100Y-88743092D01*
X132956773Y-88701313D01*
X132990522Y-88673616D01*
X133033971Y-88669337D01*
X133072474Y-88689918D01*
X133107846Y-88725290D01*
X133107848Y-88725291D01*
X133107849Y-88725292D01*
X133222694Y-88783809D01*
X133350000Y-88803972D01*
X133477306Y-88783809D01*
X133592151Y-88725292D01*
X133601125Y-88716318D01*
X133627526Y-88689918D01*
X133666029Y-88669337D01*
X133709478Y-88673616D01*
X133743227Y-88701313D01*
X133755900Y-88743092D01*
X133755900Y-90289041D01*
X133755797Y-90292976D01*
X133753666Y-90333639D01*
X133762533Y-90356740D01*
X133765883Y-90368050D01*
X133771030Y-90392263D01*
X133776108Y-90399253D01*
X133785472Y-90416500D01*
X133788567Y-90424563D01*
X133788568Y-90424564D01*
X133806069Y-90442065D01*
X133813728Y-90451032D01*
X133828278Y-90471059D01*
X133835756Y-90475376D01*
X133851331Y-90487327D01*
X134192962Y-90828958D01*
X134211307Y-90858893D01*
X134214062Y-90893894D01*
X134208027Y-90931998D01*
X134228190Y-91059305D01*
X134286709Y-91174153D01*
X134377846Y-91265290D01*
X134377848Y-91265291D01*
X134377849Y-91265292D01*
X134492694Y-91323809D01*
X134620000Y-91343972D01*
X134747306Y-91323809D01*
X134862151Y-91265292D01*
X134953292Y-91174151D01*
X135011809Y-91059306D01*
X135031972Y-90932000D01*
X135011809Y-90804694D01*
X134953292Y-90689849D01*
X134953291Y-90689848D01*
X134953290Y-90689846D01*
X134862153Y-90598709D01*
X134747305Y-90540190D01*
X134619998Y-90520027D01*
X134581895Y-90526062D01*
X134546894Y-90523307D01*
X134516959Y-90504962D01*
X134236126Y-90224129D01*
X134219824Y-90199733D01*
X134214100Y-90170955D01*
X134214100Y-88743092D01*
X134226773Y-88701313D01*
X134260522Y-88673616D01*
X134303971Y-88669337D01*
X134342474Y-88689918D01*
X134377846Y-88725290D01*
X134377848Y-88725291D01*
X134377849Y-88725292D01*
X134492694Y-88783809D01*
X134620000Y-88803972D01*
X134747306Y-88783809D01*
X134862151Y-88725292D01*
X134871125Y-88716318D01*
X134897526Y-88689918D01*
X134936029Y-88669337D01*
X134979478Y-88673616D01*
X135013227Y-88701313D01*
X135025900Y-88743092D01*
X135025900Y-90289041D01*
X135025797Y-90292976D01*
X135023666Y-90333639D01*
X135032533Y-90356740D01*
X135035883Y-90368050D01*
X135041030Y-90392263D01*
X135046108Y-90399253D01*
X135055472Y-90416500D01*
X135058567Y-90424563D01*
X135058568Y-90424564D01*
X135076069Y-90442065D01*
X135083728Y-90451032D01*
X135098278Y-90471059D01*
X135105756Y-90475376D01*
X135121331Y-90487327D01*
X135462962Y-90828958D01*
X135481307Y-90858893D01*
X135484062Y-90893894D01*
X135478027Y-90931998D01*
X135498190Y-91059305D01*
X135556709Y-91174153D01*
X135647846Y-91265290D01*
X135647848Y-91265291D01*
X135647849Y-91265292D01*
X135762694Y-91323809D01*
X135890000Y-91343972D01*
X136017306Y-91323809D01*
X136132151Y-91265292D01*
X136223292Y-91174151D01*
X136281809Y-91059306D01*
X136301972Y-90932000D01*
X136281809Y-90804694D01*
X136223292Y-90689849D01*
X136223291Y-90689848D01*
X136223290Y-90689846D01*
X136132153Y-90598709D01*
X136017305Y-90540190D01*
X135889998Y-90520027D01*
X135851895Y-90526062D01*
X135816894Y-90523307D01*
X135786959Y-90504962D01*
X135506126Y-90224129D01*
X135489824Y-90199733D01*
X135484100Y-90170955D01*
X135484100Y-88743092D01*
X135496773Y-88701313D01*
X135530522Y-88673616D01*
X135573971Y-88669337D01*
X135612474Y-88689918D01*
X135647846Y-88725290D01*
X135647848Y-88725291D01*
X135647849Y-88725292D01*
X135762694Y-88783809D01*
X135890000Y-88803972D01*
X136017306Y-88783809D01*
X136132151Y-88725292D01*
X136223292Y-88634151D01*
X136281809Y-88519306D01*
X136301972Y-88392000D01*
X136281809Y-88264694D01*
X136223292Y-88149849D01*
X136223291Y-88149848D01*
X136223290Y-88149846D01*
X136132153Y-88058709D01*
X136017304Y-88000190D01*
X135960499Y-87991193D01*
X135919089Y-87970093D01*
X134087510Y-86138514D01*
X132247630Y-84298633D01*
X132244920Y-84295778D01*
X132217669Y-84265513D01*
X132195058Y-84255445D01*
X132184692Y-84249817D01*
X132163935Y-84236338D01*
X132155402Y-84234986D01*
X132136586Y-84229412D01*
X132128697Y-84225900D01*
X132103946Y-84225900D01*
X132092182Y-84224974D01*
X132089830Y-84224601D01*
X132067742Y-84221102D01*
X132059401Y-84223338D01*
X132039938Y-84225900D01*
X97924967Y-84225900D01*
X97921033Y-84225797D01*
X97880361Y-84223666D01*
X97857254Y-84232535D01*
X97845946Y-84235884D01*
X97821734Y-84241031D01*
X97814746Y-84246108D01*
X97797503Y-84255470D01*
X97789436Y-84258566D01*
X97771932Y-84276070D01*
X97762964Y-84283729D01*
X97742942Y-84298277D01*
X97738622Y-84305759D01*
X97726673Y-84321329D01*
X94083039Y-87964962D01*
X94053104Y-87983307D01*
X94018102Y-87986062D01*
X93980000Y-87980028D01*
X93852694Y-88000190D01*
X93737846Y-88058709D01*
X93646709Y-88149846D01*
X93588190Y-88264694D01*
X93568028Y-88392000D01*
X93588190Y-88519305D01*
X93646709Y-88634153D01*
X93728874Y-88716318D01*
X93745176Y-88740714D01*
X93750900Y-88769492D01*
X93750900Y-96139955D01*
X93745176Y-96168733D01*
X93728874Y-96193129D01*
X91669600Y-98252401D01*
X91631099Y-98272982D01*
X91587651Y-98268704D01*
X91584338Y-98267332D01*
X91584336Y-98267331D01*
X91440000Y-98248329D01*
X91295664Y-98267331D01*
X91161164Y-98323043D01*
X91045667Y-98411667D01*
X90957043Y-98527164D01*
X90901331Y-98661664D01*
X90882329Y-98806000D01*
X89457671Y-98806000D01*
X89438669Y-98661664D01*
X89382957Y-98527165D01*
X89294333Y-98411667D01*
X89236584Y-98367354D01*
X89178837Y-98323043D01*
X89044336Y-98267331D01*
X88900000Y-98248329D01*
X88755664Y-98267331D01*
X88621164Y-98323043D01*
X88505667Y-98411667D01*
X88417043Y-98527164D01*
X88361331Y-98661664D01*
X88342329Y-98806000D01*
X86917671Y-98806000D01*
X86898669Y-98661664D01*
X86842957Y-98527165D01*
X86754333Y-98411667D01*
X86638836Y-98323043D01*
X86635522Y-98321670D01*
X86601774Y-98293974D01*
X86589100Y-98252195D01*
X86589100Y-95821499D01*
X87172443Y-95821499D01*
X87190977Y-95950410D01*
X87245078Y-96068873D01*
X87245079Y-96068874D01*
X87330364Y-96167299D01*
X87439924Y-96237708D01*
X87564883Y-96274400D01*
X87695116Y-96274400D01*
X87695117Y-96274400D01*
X87820076Y-96237708D01*
X87929636Y-96167299D01*
X88014921Y-96068874D01*
X88069023Y-95950409D01*
X88087557Y-95821500D01*
X88069023Y-95692591D01*
X88014921Y-95574126D01*
X87929636Y-95475701D01*
X87820076Y-95405292D01*
X87820075Y-95405291D01*
X87820074Y-95405291D01*
X87723724Y-95377000D01*
X87695117Y-95368600D01*
X87564883Y-95368600D01*
X87536276Y-95377000D01*
X87439925Y-95405291D01*
X87385144Y-95440496D01*
X87330364Y-95475701D01*
X87330363Y-95475701D01*
X87330363Y-95475702D01*
X87245078Y-95574126D01*
X87190977Y-95692589D01*
X87172443Y-95821499D01*
X86589100Y-95821499D01*
X86589100Y-95117967D01*
X86589203Y-95114033D01*
X86589641Y-95105664D01*
X86591334Y-95073361D01*
X86582463Y-95050253D01*
X86579114Y-95038944D01*
X86573969Y-95014735D01*
X86568891Y-95007746D01*
X86559526Y-94990497D01*
X86556432Y-94982436D01*
X86538925Y-94964929D01*
X86531267Y-94955962D01*
X86516722Y-94935942D01*
X86514441Y-94934625D01*
X86509239Y-94931621D01*
X86493669Y-94919673D01*
X85934995Y-94360999D01*
X86410443Y-94360999D01*
X86428977Y-94489910D01*
X86483078Y-94608373D01*
X86483079Y-94608374D01*
X86568364Y-94706799D01*
X86677924Y-94777208D01*
X86802883Y-94813900D01*
X86933116Y-94813900D01*
X86933117Y-94813900D01*
X87058076Y-94777208D01*
X87167636Y-94706799D01*
X87252921Y-94608374D01*
X87307023Y-94489909D01*
X87325557Y-94361000D01*
X87307023Y-94232091D01*
X87252921Y-94113626D01*
X87167636Y-94015201D01*
X87058076Y-93944792D01*
X87058075Y-93944791D01*
X87058074Y-93944791D01*
X86985060Y-93923352D01*
X86933117Y-93908100D01*
X86802883Y-93908100D01*
X86766192Y-93918873D01*
X86677925Y-93944791D01*
X86650114Y-93962664D01*
X86568364Y-94015201D01*
X86568363Y-94015201D01*
X86568363Y-94015202D01*
X86483078Y-94113626D01*
X86428977Y-94232089D01*
X86410443Y-94360999D01*
X85934995Y-94360999D01*
X84706126Y-93132129D01*
X84689824Y-93107733D01*
X84684100Y-93078955D01*
X84684100Y-92900500D01*
X87172443Y-92900500D01*
X87190977Y-93029410D01*
X87245078Y-93147873D01*
X87245079Y-93147874D01*
X87330364Y-93246299D01*
X87439924Y-93316708D01*
X87564883Y-93353400D01*
X87695116Y-93353400D01*
X87695117Y-93353400D01*
X87820076Y-93316708D01*
X87929636Y-93246299D01*
X88014921Y-93147874D01*
X88069023Y-93029409D01*
X88087557Y-92900500D01*
X88069023Y-92771591D01*
X88014921Y-92653126D01*
X87929636Y-92554701D01*
X87820076Y-92484292D01*
X87820075Y-92484291D01*
X87820074Y-92484291D01*
X87723724Y-92456000D01*
X87695117Y-92447600D01*
X87564883Y-92447600D01*
X87536276Y-92456000D01*
X87439925Y-92484291D01*
X87434554Y-92487743D01*
X87330364Y-92554701D01*
X87330363Y-92554701D01*
X87330363Y-92554702D01*
X87245078Y-92653126D01*
X87190977Y-92771589D01*
X87172443Y-92900500D01*
X84684100Y-92900500D01*
X84684100Y-89762959D01*
X84684203Y-89759024D01*
X84684243Y-89758246D01*
X84686334Y-89718361D01*
X84684094Y-89712525D01*
X84679100Y-89685578D01*
X84679100Y-87234644D01*
X84691773Y-87192865D01*
X84725522Y-87165168D01*
X84768971Y-87160889D01*
X84807474Y-87181470D01*
X84840859Y-87214855D01*
X84843569Y-87217710D01*
X84870830Y-87247986D01*
X84893446Y-87258055D01*
X84903802Y-87263679D01*
X84924563Y-87277161D01*
X84933091Y-87278511D01*
X84951913Y-87284087D01*
X84959803Y-87287600D01*
X84984553Y-87287600D01*
X84996318Y-87288526D01*
X85020757Y-87292397D01*
X85020757Y-87292396D01*
X85020758Y-87292397D01*
X85029099Y-87290161D01*
X85048562Y-87287600D01*
X89980456Y-87287600D01*
X90009234Y-87293324D01*
X90033630Y-87309626D01*
X91012962Y-88288959D01*
X91031307Y-88318894D01*
X91034062Y-88353895D01*
X91028027Y-88391998D01*
X91048190Y-88519305D01*
X91106709Y-88634153D01*
X91197846Y-88725290D01*
X91197848Y-88725291D01*
X91197849Y-88725292D01*
X91312694Y-88783809D01*
X91440000Y-88803972D01*
X91567306Y-88783809D01*
X91682151Y-88725292D01*
X91773292Y-88634151D01*
X91831809Y-88519306D01*
X91851972Y-88392000D01*
X91831809Y-88264694D01*
X91773292Y-88149849D01*
X91773291Y-88149848D01*
X91773290Y-88149846D01*
X91682153Y-88058709D01*
X91567305Y-88000190D01*
X91439998Y-87980027D01*
X91401894Y-87986062D01*
X91366893Y-87983307D01*
X91336958Y-87964962D01*
X90274130Y-86902133D01*
X90271420Y-86899278D01*
X90244169Y-86869013D01*
X90221558Y-86858945D01*
X90211192Y-86853317D01*
X90190435Y-86839838D01*
X90181902Y-86838486D01*
X90163086Y-86832912D01*
X90155197Y-86829400D01*
X90130446Y-86829400D01*
X90118682Y-86828474D01*
X90116330Y-86828101D01*
X90094242Y-86824602D01*
X90085901Y-86826838D01*
X90066438Y-86829400D01*
X85134545Y-86829400D01*
X85105767Y-86823676D01*
X85081370Y-86807374D01*
X84877036Y-86603039D01*
X84858691Y-86573103D01*
X84855937Y-86538101D01*
X84861972Y-86500000D01*
X84841809Y-86372694D01*
X84783292Y-86257849D01*
X84783291Y-86257848D01*
X84783290Y-86257846D01*
X84692153Y-86166709D01*
X84577305Y-86108190D01*
X84450000Y-86088028D01*
X84322694Y-86108190D01*
X84207846Y-86166709D01*
X84116709Y-86257846D01*
X84058190Y-86372694D01*
X84038028Y-86500000D01*
X76505300Y-86500000D01*
X76505300Y-82806952D01*
X76505532Y-82801052D01*
X76514736Y-82684101D01*
X76519840Y-82619242D01*
X76521683Y-82607607D01*
X76563566Y-82433151D01*
X76567207Y-82421943D01*
X76635869Y-82256178D01*
X76641222Y-82245676D01*
X76660187Y-82214729D01*
X76688210Y-82169000D01*
X81757028Y-82169000D01*
X81777190Y-82296305D01*
X81835709Y-82411153D01*
X81926846Y-82502290D01*
X81926848Y-82502291D01*
X81926849Y-82502292D01*
X82041694Y-82560809D01*
X82169000Y-82580972D01*
X82296306Y-82560809D01*
X82411151Y-82502292D01*
X82502292Y-82411151D01*
X82560809Y-82296306D01*
X82580972Y-82169000D01*
X91917028Y-82169000D01*
X91937190Y-82296305D01*
X91995709Y-82411153D01*
X92086846Y-82502290D01*
X92086848Y-82502291D01*
X92086849Y-82502292D01*
X92201694Y-82560809D01*
X92329000Y-82580972D01*
X92456306Y-82560809D01*
X92571151Y-82502292D01*
X92662292Y-82411151D01*
X92720809Y-82296306D01*
X92740972Y-82169000D01*
X102077028Y-82169000D01*
X102097190Y-82296305D01*
X102155709Y-82411153D01*
X102246846Y-82502290D01*
X102246848Y-82502291D01*
X102246849Y-82502292D01*
X102361694Y-82560809D01*
X102489000Y-82580972D01*
X102616306Y-82560809D01*
X102731151Y-82502292D01*
X102822292Y-82411151D01*
X102880809Y-82296306D01*
X102900972Y-82169000D01*
X112237028Y-82169000D01*
X112257190Y-82296305D01*
X112315709Y-82411153D01*
X112406846Y-82502290D01*
X112406848Y-82502291D01*
X112406849Y-82502292D01*
X112521694Y-82560809D01*
X112649000Y-82580972D01*
X112776306Y-82560809D01*
X112891151Y-82502292D01*
X112982292Y-82411151D01*
X113040809Y-82296306D01*
X113060972Y-82169000D01*
X113060972Y-82168999D01*
X128239028Y-82168999D01*
X128259190Y-82296305D01*
X128317709Y-82411153D01*
X128408846Y-82502290D01*
X128408848Y-82502291D01*
X128408849Y-82502292D01*
X128523694Y-82560809D01*
X128651000Y-82580972D01*
X128778306Y-82560809D01*
X128893151Y-82502292D01*
X128984292Y-82411151D01*
X129042809Y-82296306D01*
X129062972Y-82169000D01*
X129062972Y-82168999D01*
X138399028Y-82168999D01*
X138419190Y-82296305D01*
X138477709Y-82411153D01*
X138568846Y-82502290D01*
X138568848Y-82502291D01*
X138568849Y-82502292D01*
X138683694Y-82560809D01*
X138811000Y-82580972D01*
X138938306Y-82560809D01*
X139053151Y-82502292D01*
X139144292Y-82411151D01*
X139202809Y-82296306D01*
X139222972Y-82169000D01*
X148559028Y-82169000D01*
X148579190Y-82296305D01*
X148637709Y-82411153D01*
X148728846Y-82502290D01*
X148728848Y-82502291D01*
X148728849Y-82502292D01*
X148843694Y-82560809D01*
X148971000Y-82580972D01*
X149098306Y-82560809D01*
X149213151Y-82502292D01*
X149304292Y-82411151D01*
X149362809Y-82296306D01*
X149382972Y-82169000D01*
X158719028Y-82169000D01*
X158739190Y-82296305D01*
X158797709Y-82411153D01*
X158888846Y-82502290D01*
X158888848Y-82502291D01*
X158888849Y-82502292D01*
X159003694Y-82560809D01*
X159131000Y-82580972D01*
X159258306Y-82560809D01*
X159373151Y-82502292D01*
X159464292Y-82411151D01*
X159522809Y-82296306D01*
X159542972Y-82169000D01*
X159522809Y-82041694D01*
X159464292Y-81926849D01*
X159464291Y-81926848D01*
X159464290Y-81926846D01*
X159373153Y-81835709D01*
X159258305Y-81777190D01*
X159151162Y-81760221D01*
X159131000Y-81757028D01*
X159130999Y-81757028D01*
X159003694Y-81777190D01*
X158888846Y-81835709D01*
X158797709Y-81926846D01*
X158739190Y-82041694D01*
X158719028Y-82169000D01*
X149382972Y-82169000D01*
X149362809Y-82041694D01*
X149304292Y-81926849D01*
X149304291Y-81926848D01*
X149304290Y-81926846D01*
X149213153Y-81835709D01*
X149098305Y-81777190D01*
X148991162Y-81760221D01*
X148971000Y-81757028D01*
X148970999Y-81757028D01*
X148843694Y-81777190D01*
X148728846Y-81835709D01*
X148637709Y-81926846D01*
X148579190Y-82041694D01*
X148559028Y-82169000D01*
X139222972Y-82169000D01*
X139202809Y-82041694D01*
X139144292Y-81926849D01*
X139144291Y-81926848D01*
X139144290Y-81926846D01*
X139053153Y-81835709D01*
X138938305Y-81777190D01*
X138831162Y-81760221D01*
X138811000Y-81757028D01*
X138810999Y-81757028D01*
X138683694Y-81777190D01*
X138568846Y-81835709D01*
X138477709Y-81926846D01*
X138419190Y-82041694D01*
X138399028Y-82168999D01*
X129062972Y-82168999D01*
X129042809Y-82041694D01*
X128984292Y-81926849D01*
X128984291Y-81926848D01*
X128984290Y-81926846D01*
X128893153Y-81835709D01*
X128778305Y-81777190D01*
X128671162Y-81760221D01*
X128651000Y-81757028D01*
X128650999Y-81757028D01*
X128523694Y-81777190D01*
X128408846Y-81835709D01*
X128317709Y-81926846D01*
X128259190Y-82041694D01*
X128239028Y-82168999D01*
X113060972Y-82168999D01*
X113040809Y-82041694D01*
X112982292Y-81926849D01*
X112982291Y-81926848D01*
X112982290Y-81926846D01*
X112891153Y-81835709D01*
X112776305Y-81777190D01*
X112669162Y-81760221D01*
X112649000Y-81757028D01*
X112648999Y-81757028D01*
X112521694Y-81777190D01*
X112406846Y-81835709D01*
X112315709Y-81926846D01*
X112257190Y-82041694D01*
X112237028Y-82169000D01*
X102900972Y-82169000D01*
X102880809Y-82041694D01*
X102822292Y-81926849D01*
X102822291Y-81926848D01*
X102822290Y-81926846D01*
X102731153Y-81835709D01*
X102616305Y-81777190D01*
X102509162Y-81760221D01*
X102489000Y-81757028D01*
X102488999Y-81757028D01*
X102361694Y-81777190D01*
X102246846Y-81835709D01*
X102155709Y-81926846D01*
X102097190Y-82041694D01*
X102077028Y-82169000D01*
X92740972Y-82169000D01*
X92720809Y-82041694D01*
X92662292Y-81926849D01*
X92662291Y-81926848D01*
X92662290Y-81926846D01*
X92571153Y-81835709D01*
X92456305Y-81777190D01*
X92349162Y-81760221D01*
X92329000Y-81757028D01*
X92328999Y-81757028D01*
X92201694Y-81777190D01*
X92086846Y-81835709D01*
X91995709Y-81926846D01*
X91937190Y-82041694D01*
X91917028Y-82169000D01*
X82580972Y-82169000D01*
X82560809Y-82041694D01*
X82502292Y-81926849D01*
X82502291Y-81926848D01*
X82502290Y-81926846D01*
X82411153Y-81835709D01*
X82296305Y-81777190D01*
X82189162Y-81760221D01*
X82169000Y-81757028D01*
X82168999Y-81757028D01*
X82041694Y-81777190D01*
X81926846Y-81835709D01*
X81835709Y-81926846D01*
X81777190Y-82041694D01*
X81757028Y-82169000D01*
X76688210Y-82169000D01*
X76734961Y-82092709D01*
X76741890Y-82083170D01*
X76858415Y-81946737D01*
X76866737Y-81938415D01*
X77003170Y-81821890D01*
X77012709Y-81814961D01*
X77165676Y-81721222D01*
X77176178Y-81715869D01*
X77341943Y-81647207D01*
X77353151Y-81643566D01*
X77527607Y-81601683D01*
X77539242Y-81599840D01*
X77721052Y-81585531D01*
X77726952Y-81585300D01*
X77772355Y-81585300D01*
X163527645Y-81585300D01*
X163573048Y-81585300D01*
X163578947Y-81585531D01*
G37*
G04 #@! TD.AperFunction*
M02*
