G04 #@! TF.GenerationSoftware,KiCad,Pcbnew,7.0.1-0*
G04 #@! TF.CreationDate,2023-11-01T19:37:56-04:00*
G04 #@! TF.ProjectId,GW4194,47573431-3934-42e6-9b69-6361645f7063,1.1-SOJ-DC*
G04 #@! TF.SameCoordinates,Original*
G04 #@! TF.FileFunction,Legend,Bot*
G04 #@! TF.FilePolarity,Positive*
%FSLAX46Y46*%
G04 Gerber Fmt 4.6, Leading zero omitted, Abs format (unit mm)*
G04 Created by KiCad (PCBNEW 7.0.1-0) date 2023-11-01 19:37:56*
%MOMM*%
%LPD*%
G01*
G04 APERTURE LIST*
G04 Aperture macros list*
%AMRoundRect*
0 Rectangle with rounded corners*
0 $1 Rounding radius*
0 $2 $3 $4 $5 $6 $7 $8 $9 X,Y pos of 4 corners*
0 Add a 4 corners polygon primitive as box body*
4,1,4,$2,$3,$4,$5,$6,$7,$8,$9,$2,$3,0*
0 Add four circle primitives for the rounded corners*
1,1,$1+$1,$2,$3*
1,1,$1+$1,$4,$5*
1,1,$1+$1,$6,$7*
1,1,$1+$1,$8,$9*
0 Add four rect primitives between the rounded corners*
20,1,$1+$1,$2,$3,$4,$5,0*
20,1,$1+$1,$4,$5,$6,$7,0*
20,1,$1+$1,$6,$7,$8,$9,0*
20,1,$1+$1,$8,$9,$2,$3,0*%
G04 Aperture macros list end*
%ADD10C,0.203200*%
%ADD11C,0.952400*%
%ADD12RoundRect,0.520700X-0.444500X-0.825500X0.444500X-0.825500X0.444500X0.825500X-0.444500X0.825500X0*%
G04 APERTURE END LIST*
D10*
X163733237Y-99385216D02*
X163191371Y-99385216D01*
X163191371Y-99385216D02*
X163733237Y-100198016D01*
X163733237Y-100198016D02*
X163191371Y-100198016D01*
X162881733Y-100198016D02*
X162881733Y-99385216D01*
X162417276Y-100198016D02*
X162765618Y-99733559D01*
X162417276Y-99385216D02*
X162881733Y-99849673D01*
X162030228Y-100159312D02*
X162030228Y-100198016D01*
X162030228Y-100198016D02*
X162068933Y-100275426D01*
X162068933Y-100275426D02*
X162107637Y-100314131D01*
X160636856Y-99423921D02*
X160714266Y-99385216D01*
X160714266Y-99385216D02*
X160830380Y-99385216D01*
X160830380Y-99385216D02*
X160946494Y-99423921D01*
X160946494Y-99423921D02*
X161023904Y-99501331D01*
X161023904Y-99501331D02*
X161062609Y-99578740D01*
X161062609Y-99578740D02*
X161101313Y-99733559D01*
X161101313Y-99733559D02*
X161101313Y-99849673D01*
X161101313Y-99849673D02*
X161062609Y-100004492D01*
X161062609Y-100004492D02*
X161023904Y-100081902D01*
X161023904Y-100081902D02*
X160946494Y-100159312D01*
X160946494Y-100159312D02*
X160830380Y-100198016D01*
X160830380Y-100198016D02*
X160752971Y-100198016D01*
X160752971Y-100198016D02*
X160636856Y-100159312D01*
X160636856Y-100159312D02*
X160598152Y-100120607D01*
X160598152Y-100120607D02*
X160598152Y-99849673D01*
X160598152Y-99849673D02*
X160752971Y-99849673D01*
X159978875Y-99772264D02*
X160249809Y-99772264D01*
X160249809Y-100198016D02*
X160249809Y-99385216D01*
X160249809Y-99385216D02*
X159862761Y-99385216D01*
G36*
X136584316Y-95654551D02*
G01*
X136603989Y-95666941D01*
X136622234Y-95686411D01*
X136635036Y-95705756D01*
X136635036Y-95821409D01*
X136635036Y-95937061D01*
X136620721Y-95957385D01*
X136616213Y-95963123D01*
X136601225Y-95977768D01*
X136585375Y-95988813D01*
X136564345Y-95999916D01*
X134578414Y-95999916D01*
X132592483Y-95999916D01*
X132571453Y-95988813D01*
X132565416Y-95985175D01*
X132549262Y-95972130D01*
X132536107Y-95957385D01*
X132521792Y-95937061D01*
X132521792Y-95821409D01*
X132521792Y-95705756D01*
X132534594Y-95686411D01*
X132548331Y-95670729D01*
X132572512Y-95654551D01*
X132597628Y-95642035D01*
X134578414Y-95642035D01*
X136559200Y-95642035D01*
X136584316Y-95654551D01*
G37*
G36*
X130918088Y-91704628D02*
G01*
X130931827Y-91708894D01*
X130950255Y-91715419D01*
X130971510Y-91723468D01*
X130993733Y-91732304D01*
X131015064Y-91741189D01*
X131033642Y-91749389D01*
X131047607Y-91756164D01*
X131055100Y-91760780D01*
X131058883Y-91764942D01*
X131063088Y-91775480D01*
X131062294Y-91789761D01*
X131056319Y-91809126D01*
X131044979Y-91834917D01*
X131032974Y-91863515D01*
X131021940Y-91906104D01*
X131020122Y-91947227D01*
X131027591Y-91987505D01*
X131044413Y-92027555D01*
X131070656Y-92067997D01*
X131084612Y-92088485D01*
X131092863Y-92106922D01*
X131093602Y-92121476D01*
X131087026Y-92132932D01*
X131086661Y-92133284D01*
X131078566Y-92139604D01*
X131065196Y-92148777D01*
X131049249Y-92158947D01*
X131046763Y-92160469D01*
X131031961Y-92169229D01*
X131020682Y-92175406D01*
X131015200Y-92177745D01*
X131009866Y-92174814D01*
X130999516Y-92165881D01*
X130985762Y-92152403D01*
X130969979Y-92135861D01*
X130953539Y-92117736D01*
X130937818Y-92099508D01*
X130924188Y-92082659D01*
X130914023Y-92068670D01*
X130902513Y-92050160D01*
X130877654Y-91998722D01*
X130862125Y-91945890D01*
X130855956Y-91892163D01*
X130859177Y-91838043D01*
X130871817Y-91784031D01*
X130893905Y-91730627D01*
X130899517Y-91720067D01*
X130906217Y-91708855D01*
X130910456Y-91703498D01*
X130910897Y-91703360D01*
X130918088Y-91704628D01*
G37*
G36*
X134119948Y-92098293D02*
G01*
X134155156Y-92105553D01*
X134165587Y-92109035D01*
X134205879Y-92128407D01*
X134244544Y-92156323D01*
X134280617Y-92191992D01*
X134313131Y-92234625D01*
X134330283Y-92260487D01*
X134336080Y-92210767D01*
X134336348Y-92208465D01*
X134339586Y-92181902D01*
X134342382Y-92162923D01*
X134345225Y-92149747D01*
X134348600Y-92140594D01*
X134352993Y-92133683D01*
X134358891Y-92127233D01*
X134362378Y-92123913D01*
X134367198Y-92120541D01*
X134373610Y-92118249D01*
X134383203Y-92116828D01*
X134397567Y-92116071D01*
X134418294Y-92115769D01*
X134446974Y-92115715D01*
X134523539Y-92115715D01*
X134523539Y-92533243D01*
X134523539Y-92950770D01*
X134420946Y-92950770D01*
X134318354Y-92950770D01*
X134318354Y-92689237D01*
X134318354Y-92427703D01*
X134301368Y-92399353D01*
X134274176Y-92360940D01*
X134243522Y-92331116D01*
X134209375Y-92310125D01*
X134171492Y-92297856D01*
X134129628Y-92294196D01*
X134083539Y-92299032D01*
X134081667Y-92299381D01*
X134056244Y-92303241D01*
X134038241Y-92303597D01*
X134026127Y-92300022D01*
X134018373Y-92292085D01*
X134013450Y-92279357D01*
X134013039Y-92277730D01*
X134010176Y-92264697D01*
X134006265Y-92245103D01*
X134001767Y-92221314D01*
X133997144Y-92195699D01*
X133995526Y-92186381D01*
X133991359Y-92160112D01*
X133989261Y-92141907D01*
X133989146Y-92130818D01*
X133990931Y-92125893D01*
X133991726Y-92125267D01*
X134017262Y-92110694D01*
X134048687Y-92101150D01*
X134083687Y-92096921D01*
X134119948Y-92098293D01*
G37*
G36*
X133456676Y-92098293D02*
G01*
X133491884Y-92105553D01*
X133502314Y-92109035D01*
X133542606Y-92128407D01*
X133581272Y-92156323D01*
X133617344Y-92191992D01*
X133649858Y-92234625D01*
X133667011Y-92260487D01*
X133672807Y-92210767D01*
X133673076Y-92208465D01*
X133676313Y-92181902D01*
X133679110Y-92162923D01*
X133681952Y-92149747D01*
X133685327Y-92140594D01*
X133689721Y-92133683D01*
X133695618Y-92127233D01*
X133699105Y-92123913D01*
X133703926Y-92120541D01*
X133710337Y-92118249D01*
X133719930Y-92116828D01*
X133734295Y-92116071D01*
X133755022Y-92115769D01*
X133783702Y-92115715D01*
X133860266Y-92115715D01*
X133860266Y-92533243D01*
X133860266Y-92950770D01*
X133757674Y-92950770D01*
X133655081Y-92950770D01*
X133655081Y-92689237D01*
X133655081Y-92427703D01*
X133638095Y-92399353D01*
X133610904Y-92360940D01*
X133580250Y-92331116D01*
X133546103Y-92310125D01*
X133508219Y-92297856D01*
X133466355Y-92294196D01*
X133420266Y-92299032D01*
X133418394Y-92299381D01*
X133392972Y-92303241D01*
X133374969Y-92303597D01*
X133362855Y-92300022D01*
X133355101Y-92292085D01*
X133350177Y-92279357D01*
X133349767Y-92277730D01*
X133346904Y-92264697D01*
X133342992Y-92245103D01*
X133338494Y-92221314D01*
X133333871Y-92195699D01*
X133332254Y-92186381D01*
X133328087Y-92160112D01*
X133325988Y-92141907D01*
X133325874Y-92130818D01*
X133327659Y-92125893D01*
X133328454Y-92125267D01*
X133353989Y-92110694D01*
X133385415Y-92101150D01*
X133420415Y-92096921D01*
X133456676Y-92098293D01*
G37*
G36*
X126661711Y-92098293D02*
G01*
X126696918Y-92105553D01*
X126707349Y-92109035D01*
X126747641Y-92128407D01*
X126786307Y-92156323D01*
X126822379Y-92191992D01*
X126854893Y-92234625D01*
X126872045Y-92260487D01*
X126877842Y-92210767D01*
X126878111Y-92208465D01*
X126881348Y-92181902D01*
X126884144Y-92162923D01*
X126886987Y-92149747D01*
X126890362Y-92140594D01*
X126894755Y-92133683D01*
X126900653Y-92127233D01*
X126904140Y-92123913D01*
X126908961Y-92120541D01*
X126915372Y-92118249D01*
X126924965Y-92116828D01*
X126939329Y-92116071D01*
X126960056Y-92115769D01*
X126988736Y-92115715D01*
X127065301Y-92115715D01*
X127065301Y-92533243D01*
X127065301Y-92950770D01*
X126962709Y-92950770D01*
X126860116Y-92950770D01*
X126860116Y-92689237D01*
X126860116Y-92427703D01*
X126843130Y-92399353D01*
X126815939Y-92360940D01*
X126785284Y-92331116D01*
X126751137Y-92310125D01*
X126713254Y-92297856D01*
X126671390Y-92294196D01*
X126625301Y-92299032D01*
X126623429Y-92299381D01*
X126598007Y-92303241D01*
X126580003Y-92303597D01*
X126567889Y-92300022D01*
X126560136Y-92292085D01*
X126555212Y-92279357D01*
X126554802Y-92277730D01*
X126551938Y-92264697D01*
X126548027Y-92245103D01*
X126543529Y-92221314D01*
X126538906Y-92195699D01*
X126537288Y-92186381D01*
X126533122Y-92160112D01*
X126531023Y-92141907D01*
X126530909Y-92130818D01*
X126532694Y-92125893D01*
X126533488Y-92125267D01*
X126559024Y-92110694D01*
X126590449Y-92101150D01*
X126625449Y-92096921D01*
X126661711Y-92098293D01*
G37*
G36*
X124789179Y-92344759D02*
G01*
X124789179Y-92950770D01*
X124686586Y-92950770D01*
X124583994Y-92950770D01*
X124583994Y-92648320D01*
X124583994Y-92345869D01*
X124564635Y-92328380D01*
X124525519Y-92297727D01*
X124485339Y-92275917D01*
X124443952Y-92263122D01*
X124400727Y-92259077D01*
X124366838Y-92261273D01*
X124337338Y-92268575D01*
X124313594Y-92281785D01*
X124294186Y-92301712D01*
X124277696Y-92329165D01*
X124261901Y-92361242D01*
X124260503Y-92656006D01*
X124259106Y-92950770D01*
X124156426Y-92950770D01*
X124053747Y-92950770D01*
X124055604Y-92651343D01*
X124055833Y-92614639D01*
X124056240Y-92555005D01*
X124056696Y-92503681D01*
X124057273Y-92459873D01*
X124058044Y-92422786D01*
X124059080Y-92391624D01*
X124060452Y-92365593D01*
X124062234Y-92343899D01*
X124064496Y-92325746D01*
X124067310Y-92310339D01*
X124070749Y-92296884D01*
X124074884Y-92284585D01*
X124079787Y-92272648D01*
X124085530Y-92260279D01*
X124092185Y-92246681D01*
X124114248Y-92208575D01*
X124144330Y-92172047D01*
X124179614Y-92143370D01*
X124220387Y-92122362D01*
X124266936Y-92108842D01*
X124319550Y-92102627D01*
X124320867Y-92102567D01*
X124375728Y-92103167D01*
X124425042Y-92110531D01*
X124470460Y-92125187D01*
X124513635Y-92147666D01*
X124556219Y-92178496D01*
X124566593Y-92186774D01*
X124576425Y-92194038D01*
X124581271Y-92196835D01*
X124581299Y-92196823D01*
X124581841Y-92191753D01*
X124582346Y-92178108D01*
X124582804Y-92156809D01*
X124583203Y-92128780D01*
X124583532Y-92094941D01*
X124583781Y-92056215D01*
X124583939Y-92013524D01*
X124583994Y-91967791D01*
X124583994Y-91738747D01*
X124686586Y-91738747D01*
X124789179Y-91738747D01*
X124789179Y-92344759D01*
G37*
G36*
X129433068Y-93786736D02*
G01*
X129462452Y-93811815D01*
X129508847Y-93851419D01*
X129556159Y-93891813D01*
X129603220Y-93931999D01*
X129648862Y-93970979D01*
X129691916Y-94007756D01*
X129731216Y-94041331D01*
X129765591Y-94070708D01*
X129793875Y-94094888D01*
X129924233Y-94206364D01*
X129912714Y-94221560D01*
X129912584Y-94221731D01*
X129905980Y-94230529D01*
X129894840Y-94245453D01*
X129880275Y-94265013D01*
X129863394Y-94287719D01*
X129845307Y-94312079D01*
X129845186Y-94312243D01*
X129826600Y-94336674D01*
X129808566Y-94359279D01*
X129792331Y-94378572D01*
X129779145Y-94393068D01*
X129770258Y-94401284D01*
X129755736Y-94409924D01*
X129726741Y-94419872D01*
X129695048Y-94423577D01*
X129663694Y-94420811D01*
X129635715Y-94411347D01*
X129630412Y-94407850D01*
X129617977Y-94398587D01*
X129599697Y-94384414D01*
X129576388Y-94365981D01*
X129548864Y-94343939D01*
X129517942Y-94318936D01*
X129484437Y-94291624D01*
X129449165Y-94262653D01*
X129418363Y-94237299D01*
X129385415Y-94210274D01*
X129355300Y-94185673D01*
X129328772Y-94164107D01*
X129306584Y-94146186D01*
X129289488Y-94132519D01*
X129278238Y-94123717D01*
X129273586Y-94120390D01*
X129270924Y-94120664D01*
X129271473Y-94126745D01*
X129271694Y-94129197D01*
X129272038Y-94140552D01*
X129272369Y-94160613D01*
X129272686Y-94188866D01*
X129272986Y-94224796D01*
X129273268Y-94267890D01*
X129273529Y-94317633D01*
X129273767Y-94373511D01*
X129273981Y-94435010D01*
X129274167Y-94501617D01*
X129274324Y-94572816D01*
X129274450Y-94648094D01*
X129274543Y-94726937D01*
X129274600Y-94808831D01*
X129274619Y-94893261D01*
X129274619Y-95651578D01*
X129513206Y-95651578D01*
X129751794Y-95651578D01*
X129751794Y-95801888D01*
X129751794Y-95952198D01*
X129100450Y-95952198D01*
X128449107Y-95952198D01*
X128449107Y-95801888D01*
X128449107Y-95651578D01*
X128659053Y-95651578D01*
X128868999Y-95651578D01*
X128870203Y-94622074D01*
X128871407Y-93592570D01*
X129037013Y-93591316D01*
X129202620Y-93590061D01*
X129433068Y-93786736D01*
G37*
G36*
X132138885Y-91858160D02*
G01*
X132165839Y-91859392D01*
X132185324Y-91862303D01*
X132198719Y-91867316D01*
X132207405Y-91874852D01*
X132212761Y-91885333D01*
X132213911Y-91889538D01*
X132216932Y-91902992D01*
X132221145Y-91923420D01*
X132226254Y-91949330D01*
X132231962Y-91979234D01*
X132237969Y-92011639D01*
X132258624Y-92124677D01*
X132290001Y-92129914D01*
X132308690Y-92133027D01*
X132333786Y-92137197D01*
X132357167Y-92141072D01*
X132392955Y-92146994D01*
X132394417Y-92182651D01*
X132394578Y-92186884D01*
X132394645Y-92214404D01*
X132392434Y-92234463D01*
X132387627Y-92248734D01*
X132379906Y-92258886D01*
X132375228Y-92262554D01*
X132368153Y-92265585D01*
X132357624Y-92267363D01*
X132341613Y-92268201D01*
X132318093Y-92268411D01*
X132266503Y-92268411D01*
X132266447Y-92527278D01*
X132266417Y-92583408D01*
X132266312Y-92634140D01*
X132266071Y-92676975D01*
X132265636Y-92712756D01*
X132264946Y-92742331D01*
X132263942Y-92766543D01*
X132262563Y-92786237D01*
X132260749Y-92802259D01*
X132258440Y-92815454D01*
X132255577Y-92826667D01*
X132252100Y-92836742D01*
X132247948Y-92846525D01*
X132243061Y-92856861D01*
X132242896Y-92857200D01*
X132221423Y-92890710D01*
X132192646Y-92919215D01*
X132157976Y-92941582D01*
X132118822Y-92956678D01*
X132117269Y-92957084D01*
X132093294Y-92961122D01*
X132063166Y-92963204D01*
X132029827Y-92963388D01*
X131996219Y-92961733D01*
X131965282Y-92958296D01*
X131939959Y-92953135D01*
X131934653Y-92951587D01*
X131907410Y-92941847D01*
X131879795Y-92929491D01*
X131855040Y-92916077D01*
X131836373Y-92903164D01*
X131820885Y-92890234D01*
X131851133Y-92840576D01*
X131860040Y-92825971D01*
X131874139Y-92803492D01*
X131885225Y-92787960D01*
X131894614Y-92778597D01*
X131903625Y-92774629D01*
X131913573Y-92775280D01*
X131925775Y-92779775D01*
X131941549Y-92787338D01*
X131963304Y-92796130D01*
X131991378Y-92801017D01*
X132016164Y-92797261D01*
X132037233Y-92784951D01*
X132054161Y-92764173D01*
X132055794Y-92761231D01*
X132057690Y-92756854D01*
X132059269Y-92751246D01*
X132060567Y-92743575D01*
X132061619Y-92733009D01*
X132062460Y-92718717D01*
X132063126Y-92699870D01*
X132063652Y-92675634D01*
X132064073Y-92645179D01*
X132064425Y-92607675D01*
X132064744Y-92562289D01*
X132065065Y-92508191D01*
X132066426Y-92268411D01*
X131956508Y-92268411D01*
X131846590Y-92268411D01*
X131846590Y-92196835D01*
X131846590Y-92125258D01*
X131956340Y-92125258D01*
X132066090Y-92125258D01*
X132066090Y-91991650D01*
X132066090Y-91858041D01*
X132123588Y-91858041D01*
X132138885Y-91858160D01*
G37*
G36*
X131509014Y-91858160D02*
G01*
X131535968Y-91859392D01*
X131555453Y-91862303D01*
X131568849Y-91867316D01*
X131577535Y-91874852D01*
X131582891Y-91885333D01*
X131584041Y-91889538D01*
X131587061Y-91902992D01*
X131591275Y-91923420D01*
X131596384Y-91949330D01*
X131602091Y-91979234D01*
X131608099Y-92011639D01*
X131628753Y-92124677D01*
X131660131Y-92129914D01*
X131678820Y-92133027D01*
X131703916Y-92137197D01*
X131727296Y-92141072D01*
X131763084Y-92146994D01*
X131764547Y-92182651D01*
X131764707Y-92186884D01*
X131764775Y-92214404D01*
X131762564Y-92234463D01*
X131757757Y-92248734D01*
X131750035Y-92258886D01*
X131745358Y-92262554D01*
X131738283Y-92265585D01*
X131727754Y-92267363D01*
X131711743Y-92268201D01*
X131688222Y-92268411D01*
X131636633Y-92268411D01*
X131636576Y-92527278D01*
X131636547Y-92583408D01*
X131636441Y-92634140D01*
X131636201Y-92676975D01*
X131635766Y-92712756D01*
X131635076Y-92742331D01*
X131634072Y-92766543D01*
X131632692Y-92786237D01*
X131630879Y-92802259D01*
X131628570Y-92815454D01*
X131625707Y-92826667D01*
X131622229Y-92836742D01*
X131618077Y-92846525D01*
X131613191Y-92856861D01*
X131613026Y-92857200D01*
X131591553Y-92890710D01*
X131562776Y-92919215D01*
X131528105Y-92941582D01*
X131488952Y-92956678D01*
X131487398Y-92957084D01*
X131463423Y-92961122D01*
X131433296Y-92963204D01*
X131399957Y-92963388D01*
X131366349Y-92961733D01*
X131335412Y-92958296D01*
X131310088Y-92953135D01*
X131304783Y-92951587D01*
X131277540Y-92941847D01*
X131249925Y-92929491D01*
X131225169Y-92916077D01*
X131206502Y-92903164D01*
X131191015Y-92890234D01*
X131221263Y-92840576D01*
X131230169Y-92825971D01*
X131244269Y-92803492D01*
X131255354Y-92787960D01*
X131264744Y-92778597D01*
X131273754Y-92774629D01*
X131283702Y-92775280D01*
X131295905Y-92779775D01*
X131311679Y-92787338D01*
X131333433Y-92796130D01*
X131361508Y-92801017D01*
X131386293Y-92797261D01*
X131407363Y-92784951D01*
X131424290Y-92764173D01*
X131425924Y-92761231D01*
X131427820Y-92756854D01*
X131429399Y-92751246D01*
X131430697Y-92743575D01*
X131431748Y-92733009D01*
X131432589Y-92718717D01*
X131433255Y-92699870D01*
X131433781Y-92675634D01*
X131434203Y-92645179D01*
X131434555Y-92607675D01*
X131434874Y-92562289D01*
X131435195Y-92508191D01*
X131436555Y-92268411D01*
X131326637Y-92268411D01*
X131216719Y-92268411D01*
X131216719Y-92196835D01*
X131216719Y-92125258D01*
X131326470Y-92125258D01*
X131436220Y-92125258D01*
X131436220Y-91991650D01*
X131436220Y-91858041D01*
X131493718Y-91858041D01*
X131509014Y-91858160D01*
G37*
G36*
X122932970Y-92732906D02*
G01*
X122932970Y-93222760D01*
X122830377Y-93222760D01*
X122727785Y-93222760D01*
X122727785Y-93052991D01*
X122727785Y-92883222D01*
X122708480Y-92899746D01*
X122702930Y-92904300D01*
X122673232Y-92924243D01*
X122639361Y-92941339D01*
X122605716Y-92953295D01*
X122605080Y-92953464D01*
X122581821Y-92957633D01*
X122552360Y-92960133D01*
X122519789Y-92960960D01*
X122487198Y-92960115D01*
X122457679Y-92957594D01*
X122434322Y-92953397D01*
X122410851Y-92946296D01*
X122360699Y-92924134D01*
X122314851Y-92893919D01*
X122273885Y-92856230D01*
X122238377Y-92811648D01*
X122208905Y-92760751D01*
X122186047Y-92704120D01*
X122182698Y-92693361D01*
X122169391Y-92635716D01*
X122161755Y-92573231D01*
X122160830Y-92542786D01*
X122371314Y-92542786D01*
X122372240Y-92564748D01*
X122374823Y-92599699D01*
X122378946Y-92628837D01*
X122385120Y-92654570D01*
X122393851Y-92679307D01*
X122405648Y-92705457D01*
X122412393Y-92718181D01*
X122435618Y-92750553D01*
X122463639Y-92775656D01*
X122495523Y-92792582D01*
X122506701Y-92796346D01*
X122546539Y-92804110D01*
X122588063Y-92804561D01*
X122628513Y-92797838D01*
X122665127Y-92784078D01*
X122674418Y-92778592D01*
X122690950Y-92766673D01*
X122706349Y-92753445D01*
X122727785Y-92732906D01*
X122727785Y-92544411D01*
X122727785Y-92355915D01*
X122692444Y-92321647D01*
X122665144Y-92297651D01*
X122635787Y-92278397D01*
X122604903Y-92265571D01*
X122569950Y-92257846D01*
X122550739Y-92255885D01*
X122512227Y-92257641D01*
X122477212Y-92267037D01*
X122446869Y-92283680D01*
X122422374Y-92307177D01*
X122421372Y-92308458D01*
X122401319Y-92340953D01*
X122386364Y-92380277D01*
X122376430Y-92426786D01*
X122371439Y-92480837D01*
X122371314Y-92542786D01*
X122160830Y-92542786D01*
X122159782Y-92508261D01*
X122163459Y-92443158D01*
X122172778Y-92380279D01*
X122187727Y-92321976D01*
X122199578Y-92288994D01*
X122219241Y-92247948D01*
X122243536Y-92211704D01*
X122274063Y-92177587D01*
X122289052Y-92163373D01*
X122323532Y-92136254D01*
X122359015Y-92116817D01*
X122397271Y-92104404D01*
X122440074Y-92098362D01*
X122489197Y-92098034D01*
X122509856Y-92099332D01*
X122552240Y-92105254D01*
X122590559Y-92116049D01*
X122626951Y-92132603D01*
X122663556Y-92155805D01*
X122702511Y-92186540D01*
X122712404Y-92194864D01*
X122725881Y-92205806D01*
X122735368Y-92212992D01*
X122739257Y-92215171D01*
X122740478Y-92211222D01*
X122743096Y-92200211D01*
X122746386Y-92184905D01*
X122750972Y-92163394D01*
X122756198Y-92144090D01*
X122762606Y-92130220D01*
X122771590Y-92120886D01*
X122784544Y-92115189D01*
X122802861Y-92112232D01*
X122827934Y-92111116D01*
X122861157Y-92110943D01*
X122932970Y-92110943D01*
X122932970Y-92666852D01*
X122932970Y-92732906D01*
G37*
G36*
X128045519Y-92535629D02*
G01*
X128044970Y-92568902D01*
X128041903Y-92612289D01*
X128035805Y-92651001D01*
X128026216Y-92687715D01*
X128012679Y-92725103D01*
X128004826Y-92743234D01*
X127975503Y-92795919D01*
X127939317Y-92842117D01*
X127896645Y-92881518D01*
X127847862Y-92913810D01*
X127793345Y-92938684D01*
X127733469Y-92955828D01*
X127699005Y-92961127D01*
X127657888Y-92964103D01*
X127614754Y-92964515D01*
X127573253Y-92962332D01*
X127537038Y-92957522D01*
X127534271Y-92956989D01*
X127474242Y-92940760D01*
X127419699Y-92916841D01*
X127370943Y-92885548D01*
X127328279Y-92847201D01*
X127292008Y-92802115D01*
X127262433Y-92750610D01*
X127239856Y-92693001D01*
X127224581Y-92629608D01*
X127220942Y-92602129D01*
X127218473Y-92560049D01*
X127218615Y-92532073D01*
X127429852Y-92532073D01*
X127430325Y-92567285D01*
X127431992Y-92600319D01*
X127434854Y-92628749D01*
X127438910Y-92650150D01*
X127445695Y-92672578D01*
X127463001Y-92714076D01*
X127484527Y-92747540D01*
X127510655Y-92773499D01*
X127541770Y-92792484D01*
X127552826Y-92797275D01*
X127565515Y-92801367D01*
X127579767Y-92803927D01*
X127598240Y-92805401D01*
X127623595Y-92806237D01*
X127650579Y-92806337D01*
X127679227Y-92804674D01*
X127698578Y-92800939D01*
X127704336Y-92798981D01*
X127739887Y-92782135D01*
X127769578Y-92758826D01*
X127793551Y-92728775D01*
X127811948Y-92691708D01*
X127824913Y-92647345D01*
X127832587Y-92595411D01*
X127835113Y-92535629D01*
X127835009Y-92522410D01*
X127831869Y-92467360D01*
X127824177Y-92419840D01*
X127811697Y-92379022D01*
X127794189Y-92344079D01*
X127771416Y-92314183D01*
X127752864Y-92297460D01*
X127721386Y-92278926D01*
X127685380Y-92266594D01*
X127646623Y-92260689D01*
X127606897Y-92261437D01*
X127567979Y-92269064D01*
X127531648Y-92283795D01*
X127520331Y-92290445D01*
X127493972Y-92312141D01*
X127471972Y-92340631D01*
X127453807Y-92376694D01*
X127438951Y-92421107D01*
X127435593Y-92437617D01*
X127432487Y-92464814D01*
X127430573Y-92497108D01*
X127429852Y-92532073D01*
X127218615Y-92532073D01*
X127218702Y-92515061D01*
X127221503Y-92470213D01*
X127226752Y-92428556D01*
X127234321Y-92393137D01*
X127234966Y-92390837D01*
X127256306Y-92331347D01*
X127284696Y-92278177D01*
X127319820Y-92231586D01*
X127361359Y-92191834D01*
X127408995Y-92159180D01*
X127462412Y-92133885D01*
X127521290Y-92116207D01*
X127585312Y-92106406D01*
X127592398Y-92105835D01*
X127658660Y-92104876D01*
X127721509Y-92111912D01*
X127780379Y-92126668D01*
X127834705Y-92148868D01*
X127883922Y-92178235D01*
X127927466Y-92214494D01*
X127964770Y-92257370D01*
X127995270Y-92306585D01*
X128014812Y-92348771D01*
X128029066Y-92390054D01*
X128038573Y-92432901D01*
X128043887Y-92479801D01*
X128045558Y-92533243D01*
X128045519Y-92535629D01*
G37*
G36*
X123913188Y-92535629D02*
G01*
X123912639Y-92568902D01*
X123909572Y-92612289D01*
X123903473Y-92651001D01*
X123893885Y-92687715D01*
X123880347Y-92725103D01*
X123872494Y-92743234D01*
X123843171Y-92795919D01*
X123806986Y-92842117D01*
X123764314Y-92881518D01*
X123715531Y-92913810D01*
X123661013Y-92938684D01*
X123601137Y-92955828D01*
X123566673Y-92961127D01*
X123525557Y-92964103D01*
X123482422Y-92964515D01*
X123440921Y-92962332D01*
X123404707Y-92957522D01*
X123401940Y-92956989D01*
X123341911Y-92940760D01*
X123287367Y-92916841D01*
X123238612Y-92885548D01*
X123195948Y-92847201D01*
X123159676Y-92802115D01*
X123130101Y-92750610D01*
X123107525Y-92693001D01*
X123092249Y-92629608D01*
X123088610Y-92602129D01*
X123086141Y-92560049D01*
X123086283Y-92532073D01*
X123297521Y-92532073D01*
X123297994Y-92567285D01*
X123299661Y-92600319D01*
X123302522Y-92628749D01*
X123306579Y-92650150D01*
X123313364Y-92672578D01*
X123330670Y-92714076D01*
X123352195Y-92747540D01*
X123378324Y-92773499D01*
X123409438Y-92792484D01*
X123420495Y-92797275D01*
X123433184Y-92801367D01*
X123447435Y-92803927D01*
X123465909Y-92805401D01*
X123491264Y-92806237D01*
X123518248Y-92806337D01*
X123546896Y-92804674D01*
X123566247Y-92800939D01*
X123572004Y-92798981D01*
X123607556Y-92782135D01*
X123637246Y-92758826D01*
X123661219Y-92728775D01*
X123679617Y-92691708D01*
X123692581Y-92647345D01*
X123700255Y-92595411D01*
X123702782Y-92535629D01*
X123702678Y-92522410D01*
X123699538Y-92467360D01*
X123691846Y-92419840D01*
X123679365Y-92379022D01*
X123661858Y-92344079D01*
X123639085Y-92314183D01*
X123620532Y-92297460D01*
X123589055Y-92278926D01*
X123553048Y-92266594D01*
X123514292Y-92260689D01*
X123474565Y-92261437D01*
X123435647Y-92269064D01*
X123399317Y-92283795D01*
X123388000Y-92290445D01*
X123361640Y-92312141D01*
X123339641Y-92340631D01*
X123321476Y-92376694D01*
X123306620Y-92421107D01*
X123303262Y-92437617D01*
X123300155Y-92464814D01*
X123298241Y-92497108D01*
X123297521Y-92532073D01*
X123086283Y-92532073D01*
X123086370Y-92515061D01*
X123089172Y-92470213D01*
X123094420Y-92428556D01*
X123101990Y-92393137D01*
X123102635Y-92390837D01*
X123123975Y-92331347D01*
X123152365Y-92278177D01*
X123187489Y-92231586D01*
X123229028Y-92191834D01*
X123276664Y-92159180D01*
X123330080Y-92133885D01*
X123388958Y-92116207D01*
X123452981Y-92106406D01*
X123460066Y-92105835D01*
X123526329Y-92104876D01*
X123589178Y-92111912D01*
X123648048Y-92126668D01*
X123702374Y-92148868D01*
X123751591Y-92178235D01*
X123795134Y-92214494D01*
X123832438Y-92257370D01*
X123862938Y-92306585D01*
X123882480Y-92348771D01*
X123896734Y-92390054D01*
X123906242Y-92432901D01*
X123911555Y-92479801D01*
X123913227Y-92533243D01*
X123913188Y-92535629D01*
G37*
G36*
X126392485Y-92344759D02*
G01*
X126392485Y-92950770D01*
X126289892Y-92950770D01*
X126187300Y-92950770D01*
X126187300Y-92759901D01*
X126187300Y-92569031D01*
X126157477Y-92569038D01*
X126154496Y-92569037D01*
X126142989Y-92569149D01*
X126132955Y-92569943D01*
X126123773Y-92572072D01*
X126114822Y-92576195D01*
X126105482Y-92582966D01*
X126095129Y-92593041D01*
X126083144Y-92607077D01*
X126068905Y-92625729D01*
X126051791Y-92649653D01*
X126031180Y-92679505D01*
X126006452Y-92715942D01*
X125976984Y-92759619D01*
X125952209Y-92796267D01*
X125926692Y-92833725D01*
X125905521Y-92864387D01*
X125888215Y-92888908D01*
X125874297Y-92907940D01*
X125863285Y-92922136D01*
X125854701Y-92932148D01*
X125848066Y-92938630D01*
X125842901Y-92942233D01*
X125842417Y-92942483D01*
X125835913Y-92945324D01*
X125828189Y-92947417D01*
X125817859Y-92948848D01*
X125803535Y-92949704D01*
X125783830Y-92950069D01*
X125757359Y-92950030D01*
X125722734Y-92949672D01*
X125619384Y-92948384D01*
X125767724Y-92733656D01*
X125782165Y-92712784D01*
X125810031Y-92672694D01*
X125836447Y-92634928D01*
X125860849Y-92600277D01*
X125882672Y-92569533D01*
X125901354Y-92543491D01*
X125916330Y-92522941D01*
X125927036Y-92508677D01*
X125932909Y-92501492D01*
X125949755Y-92484056D01*
X125929329Y-92465704D01*
X125926331Y-92462775D01*
X125916166Y-92451844D01*
X125901058Y-92434866D01*
X125881761Y-92412715D01*
X125859030Y-92386267D01*
X125833619Y-92356396D01*
X125806281Y-92323976D01*
X125777771Y-92289884D01*
X125761705Y-92270593D01*
X125734634Y-92238098D01*
X125709649Y-92208119D01*
X125687421Y-92181458D01*
X125668619Y-92158919D01*
X125653913Y-92141305D01*
X125643972Y-92129419D01*
X125639468Y-92124065D01*
X125637852Y-92121869D01*
X125637713Y-92119700D01*
X125640682Y-92118110D01*
X125647833Y-92117010D01*
X125660237Y-92116309D01*
X125678967Y-92115920D01*
X125705097Y-92115751D01*
X125739697Y-92115715D01*
X125772325Y-92115745D01*
X125799443Y-92115919D01*
X125819612Y-92116355D01*
X125834179Y-92117172D01*
X125844487Y-92118489D01*
X125851881Y-92120424D01*
X125857707Y-92123096D01*
X125863309Y-92126623D01*
X125868220Y-92130980D01*
X125879123Y-92142444D01*
X125894514Y-92159682D01*
X125913579Y-92181749D01*
X125935503Y-92207702D01*
X125959474Y-92236596D01*
X125984677Y-92267486D01*
X126012408Y-92301761D01*
X126039290Y-92334891D01*
X126061391Y-92361844D01*
X126079382Y-92383273D01*
X126093931Y-92399832D01*
X126105709Y-92412172D01*
X126115385Y-92420947D01*
X126123628Y-92426809D01*
X126131109Y-92430412D01*
X126138496Y-92432408D01*
X126146460Y-92433449D01*
X126155670Y-92434190D01*
X126187300Y-92436728D01*
X126187300Y-92087738D01*
X126187300Y-91738747D01*
X126289892Y-91738747D01*
X126392485Y-91738747D01*
X126392485Y-92344759D01*
G37*
G36*
X132024120Y-95059882D02*
G01*
X132029962Y-95067954D01*
X132038378Y-95079838D01*
X132041347Y-95084458D01*
X132041262Y-95089479D01*
X132039516Y-95103198D01*
X132036200Y-95123287D01*
X132031663Y-95148054D01*
X132026252Y-95175808D01*
X132020314Y-95204860D01*
X132014197Y-95233517D01*
X132008250Y-95260091D01*
X132002818Y-95282889D01*
X131998251Y-95300222D01*
X131994895Y-95310398D01*
X131990166Y-95319288D01*
X131974807Y-95338742D01*
X131955049Y-95356107D01*
X131934174Y-95368256D01*
X131932765Y-95368740D01*
X131927716Y-95369755D01*
X131919696Y-95370655D01*
X131908201Y-95371447D01*
X131892724Y-95372137D01*
X131872761Y-95372731D01*
X131847804Y-95373236D01*
X131817350Y-95373658D01*
X131780892Y-95374003D01*
X131737924Y-95374278D01*
X131687940Y-95374489D01*
X131630436Y-95374642D01*
X131564906Y-95374743D01*
X131490843Y-95374800D01*
X131407743Y-95374817D01*
X130897013Y-95374817D01*
X130897013Y-95663508D01*
X130897013Y-95952198D01*
X130720458Y-95952198D01*
X130543903Y-95952198D01*
X130543903Y-95663508D01*
X130543903Y-95374817D01*
X130422930Y-95374817D01*
X130404809Y-95374813D01*
X130371617Y-95374740D01*
X130346157Y-95374500D01*
X130327186Y-95373994D01*
X130313462Y-95373127D01*
X130303742Y-95371799D01*
X130296783Y-95369914D01*
X130291344Y-95367374D01*
X130286181Y-95364081D01*
X130284901Y-95363189D01*
X130271432Y-95351906D01*
X130260423Y-95339882D01*
X130258414Y-95337010D01*
X130255890Y-95332261D01*
X130253932Y-95326036D01*
X130252448Y-95317183D01*
X130251351Y-95304549D01*
X130250551Y-95286981D01*
X130249958Y-95263327D01*
X130249482Y-95232434D01*
X130249035Y-95193151D01*
X130247630Y-95059882D01*
X130395767Y-95059882D01*
X130543903Y-95059882D01*
X130543903Y-94325033D01*
X130543903Y-94088405D01*
X130888030Y-94088405D01*
X130888629Y-94101923D01*
X130889934Y-94120924D01*
X130891826Y-94143387D01*
X130892329Y-94150190D01*
X130893271Y-94170847D01*
X130894116Y-94200509D01*
X130894862Y-94238816D01*
X130895503Y-94285407D01*
X130896036Y-94339925D01*
X130896458Y-94402007D01*
X130896763Y-94471296D01*
X130896950Y-94547431D01*
X130897013Y-94630053D01*
X130897013Y-95059882D01*
X131254808Y-95059882D01*
X131612603Y-95059882D01*
X131530376Y-94948310D01*
X131528380Y-94945601D01*
X131512637Y-94924234D01*
X131491871Y-94896040D01*
X131466626Y-94861762D01*
X131437449Y-94822141D01*
X131404887Y-94777918D01*
X131369485Y-94729836D01*
X131331790Y-94678637D01*
X131292348Y-94625063D01*
X131251705Y-94569854D01*
X131210408Y-94513754D01*
X131169002Y-94457504D01*
X131147312Y-94428057D01*
X131108939Y-94376054D01*
X131072382Y-94326634D01*
X131038023Y-94280306D01*
X131006247Y-94237583D01*
X130977434Y-94198976D01*
X130951969Y-94164997D01*
X130930234Y-94136156D01*
X130912611Y-94112966D01*
X130899484Y-94095937D01*
X130891235Y-94085581D01*
X130888247Y-94082410D01*
X130888030Y-94088405D01*
X130543903Y-94088405D01*
X130543903Y-93590184D01*
X130736159Y-93590184D01*
X130928416Y-93590184D01*
X131484131Y-94333087D01*
X131494656Y-94347159D01*
X131550366Y-94421679D01*
X131604491Y-94494144D01*
X131656756Y-94564181D01*
X131706884Y-94631418D01*
X131754600Y-94695484D01*
X131799628Y-94756006D01*
X131841692Y-94812612D01*
X131880515Y-94864930D01*
X131915823Y-94912588D01*
X131947338Y-94955213D01*
X131974786Y-94992435D01*
X131997890Y-95023881D01*
X132016373Y-95049178D01*
X132024120Y-95059882D01*
G37*
G36*
X126350514Y-95059882D02*
G01*
X126356356Y-95067954D01*
X126364773Y-95079838D01*
X126367742Y-95084458D01*
X126367657Y-95089479D01*
X126365911Y-95103198D01*
X126362595Y-95123287D01*
X126358058Y-95148054D01*
X126352647Y-95175808D01*
X126346709Y-95204860D01*
X126340592Y-95233517D01*
X126334645Y-95260091D01*
X126329213Y-95282889D01*
X126324645Y-95300222D01*
X126321289Y-95310398D01*
X126316561Y-95319288D01*
X126301202Y-95338742D01*
X126281444Y-95356107D01*
X126260569Y-95368256D01*
X126259160Y-95368740D01*
X126254110Y-95369755D01*
X126246091Y-95370655D01*
X126234596Y-95371447D01*
X126219119Y-95372137D01*
X126199156Y-95372731D01*
X126174199Y-95373236D01*
X126143745Y-95373658D01*
X126107286Y-95374003D01*
X126064318Y-95374278D01*
X126014335Y-95374489D01*
X125956831Y-95374642D01*
X125891301Y-95374743D01*
X125817238Y-95374800D01*
X125734137Y-95374817D01*
X125223407Y-95374817D01*
X125223407Y-95663508D01*
X125223407Y-95952198D01*
X125046853Y-95952198D01*
X124870298Y-95952198D01*
X124870298Y-95663508D01*
X124870298Y-95374817D01*
X124749324Y-95374817D01*
X124731204Y-95374813D01*
X124698012Y-95374740D01*
X124672552Y-95374500D01*
X124653581Y-95373994D01*
X124639857Y-95373127D01*
X124630137Y-95371799D01*
X124623178Y-95369914D01*
X124617739Y-95367374D01*
X124612575Y-95364081D01*
X124611296Y-95363189D01*
X124597827Y-95351906D01*
X124586818Y-95339882D01*
X124584809Y-95337010D01*
X124582285Y-95332261D01*
X124580326Y-95326036D01*
X124578843Y-95317183D01*
X124577746Y-95304549D01*
X124576946Y-95286981D01*
X124576353Y-95263327D01*
X124575877Y-95232434D01*
X124575430Y-95193151D01*
X124574025Y-95059882D01*
X124722162Y-95059882D01*
X124870298Y-95059882D01*
X124870298Y-94325033D01*
X124870298Y-94088405D01*
X125214425Y-94088405D01*
X125215024Y-94101923D01*
X125216329Y-94120924D01*
X125218221Y-94143387D01*
X125218724Y-94150190D01*
X125219666Y-94170847D01*
X125220511Y-94200509D01*
X125221257Y-94238816D01*
X125221898Y-94285407D01*
X125222431Y-94339925D01*
X125222852Y-94402007D01*
X125223158Y-94471296D01*
X125223344Y-94547431D01*
X125223407Y-94630053D01*
X125223407Y-95059882D01*
X125581203Y-95059882D01*
X125938998Y-95059882D01*
X125856771Y-94948310D01*
X125854775Y-94945601D01*
X125839032Y-94924234D01*
X125818266Y-94896040D01*
X125793021Y-94861762D01*
X125763844Y-94822141D01*
X125731282Y-94777918D01*
X125695880Y-94729836D01*
X125658185Y-94678637D01*
X125618743Y-94625063D01*
X125578100Y-94569854D01*
X125536803Y-94513754D01*
X125495397Y-94457504D01*
X125473707Y-94428057D01*
X125435334Y-94376054D01*
X125398777Y-94326634D01*
X125364418Y-94280306D01*
X125332641Y-94237583D01*
X125303829Y-94198976D01*
X125278364Y-94164997D01*
X125256628Y-94136156D01*
X125239006Y-94112966D01*
X125225879Y-94095937D01*
X125217630Y-94085581D01*
X125214642Y-94082410D01*
X125214425Y-94088405D01*
X124870298Y-94088405D01*
X124870298Y-93590184D01*
X125062554Y-93590184D01*
X125254810Y-93590184D01*
X125810525Y-94333087D01*
X125821051Y-94347159D01*
X125876760Y-94421679D01*
X125930886Y-94494144D01*
X125983151Y-94564181D01*
X126033279Y-94631418D01*
X126080995Y-94695484D01*
X126126023Y-94756006D01*
X126168087Y-94812612D01*
X126206910Y-94864930D01*
X126242218Y-94912588D01*
X126273733Y-94955213D01*
X126301181Y-94992435D01*
X126324284Y-95023881D01*
X126342768Y-95049178D01*
X126350514Y-95059882D01*
G37*
G36*
X130448190Y-92101804D02*
G01*
X130498824Y-92106324D01*
X130544267Y-92116328D01*
X130586741Y-92132404D01*
X130628469Y-92155140D01*
X130660043Y-92178772D01*
X130689787Y-92210741D01*
X130712776Y-92246945D01*
X130728865Y-92286189D01*
X130737909Y-92327276D01*
X130739764Y-92369009D01*
X130734285Y-92410193D01*
X130721327Y-92449630D01*
X130700746Y-92486124D01*
X130672397Y-92518479D01*
X130659446Y-92529612D01*
X130636911Y-92545537D01*
X130610107Y-92560526D01*
X130577748Y-92575203D01*
X130538545Y-92590188D01*
X130491213Y-92606105D01*
X130483574Y-92608562D01*
X130441568Y-92622684D01*
X130407849Y-92635421D01*
X130381534Y-92647380D01*
X130361739Y-92659168D01*
X130347583Y-92671389D01*
X130338182Y-92684651D01*
X130332654Y-92699559D01*
X130330116Y-92716719D01*
X130329712Y-92723139D01*
X130329932Y-92739346D01*
X130333229Y-92752280D01*
X130340580Y-92766595D01*
X130343256Y-92770961D01*
X130352950Y-92783161D01*
X130365873Y-92793240D01*
X130384973Y-92803657D01*
X130397143Y-92809453D01*
X130410770Y-92814789D01*
X130423992Y-92817773D01*
X130440123Y-92819077D01*
X130462478Y-92819374D01*
X130479326Y-92819068D01*
X130510323Y-92816092D01*
X130538675Y-92809203D01*
X130567552Y-92797497D01*
X130600125Y-92780068D01*
X130610327Y-92774361D01*
X130639190Y-92761221D01*
X130663236Y-92755577D01*
X130683172Y-92757331D01*
X130699703Y-92766387D01*
X130703227Y-92769782D01*
X130712644Y-92781147D01*
X130723672Y-92796530D01*
X130735103Y-92813977D01*
X130745733Y-92831533D01*
X130754355Y-92847244D01*
X130759762Y-92859155D01*
X130760750Y-92865313D01*
X130756777Y-92869335D01*
X130745905Y-92877677D01*
X130730599Y-92888204D01*
X130713042Y-92899481D01*
X130695414Y-92910070D01*
X130679898Y-92918537D01*
X130661094Y-92926917D01*
X130634077Y-92937015D01*
X130604426Y-92946647D01*
X130575729Y-92954658D01*
X130551573Y-92959893D01*
X130547047Y-92960576D01*
X130524202Y-92962741D01*
X130495950Y-92964012D01*
X130465274Y-92964383D01*
X130435153Y-92963852D01*
X130408570Y-92962416D01*
X130388505Y-92960072D01*
X130361287Y-92954349D01*
X130309020Y-92937626D01*
X130262570Y-92914641D01*
X130222577Y-92885816D01*
X130189681Y-92851572D01*
X130164520Y-92812331D01*
X130157790Y-92797938D01*
X130145982Y-92762398D01*
X130139934Y-92723488D01*
X130139187Y-92678781D01*
X130140860Y-92653399D01*
X130146339Y-92621884D01*
X130156369Y-92595144D01*
X130172029Y-92570576D01*
X130194397Y-92545577D01*
X130199541Y-92540597D01*
X130218005Y-92525179D01*
X130239707Y-92510836D01*
X130265870Y-92496966D01*
X130297714Y-92482964D01*
X130336459Y-92468226D01*
X130383327Y-92452150D01*
X130396712Y-92447695D01*
X130438027Y-92433259D01*
X130471125Y-92420261D01*
X130496841Y-92408117D01*
X130516009Y-92396242D01*
X130529465Y-92384053D01*
X130538043Y-92370964D01*
X130542577Y-92356392D01*
X130543903Y-92339752D01*
X130543183Y-92328489D01*
X130535393Y-92303530D01*
X130519349Y-92282853D01*
X130495433Y-92266857D01*
X130464026Y-92255941D01*
X130448675Y-92252878D01*
X130413131Y-92250249D01*
X130376384Y-92254099D01*
X130336767Y-92264683D01*
X130292610Y-92282258D01*
X130275113Y-92289732D01*
X130248931Y-92298615D01*
X130228650Y-92301734D01*
X130213251Y-92299188D01*
X130201712Y-92291077D01*
X130196622Y-92284828D01*
X130187490Y-92272153D01*
X130176912Y-92256458D01*
X130166274Y-92239912D01*
X130156961Y-92224680D01*
X130150358Y-92212928D01*
X130147849Y-92206824D01*
X130149376Y-92203240D01*
X130157496Y-92194362D01*
X130171164Y-92182811D01*
X130188737Y-92169931D01*
X130208573Y-92157069D01*
X130249551Y-92135570D01*
X130303286Y-92116464D01*
X130361608Y-92105135D01*
X130425231Y-92101400D01*
X130448190Y-92101804D01*
G37*
G36*
X125256531Y-92101804D02*
G01*
X125307166Y-92106324D01*
X125352609Y-92116328D01*
X125395082Y-92132404D01*
X125436810Y-92155140D01*
X125468384Y-92178772D01*
X125498128Y-92210741D01*
X125521117Y-92246945D01*
X125537206Y-92286189D01*
X125546251Y-92327276D01*
X125548105Y-92369009D01*
X125542626Y-92410193D01*
X125529669Y-92449630D01*
X125509087Y-92486124D01*
X125480738Y-92518479D01*
X125467787Y-92529612D01*
X125445252Y-92545537D01*
X125418448Y-92560526D01*
X125386089Y-92575203D01*
X125346886Y-92590188D01*
X125299554Y-92606105D01*
X125291915Y-92608562D01*
X125249909Y-92622684D01*
X125216190Y-92635421D01*
X125189875Y-92647380D01*
X125170080Y-92659168D01*
X125155924Y-92671389D01*
X125146523Y-92684651D01*
X125140995Y-92699559D01*
X125138457Y-92716719D01*
X125138053Y-92723139D01*
X125138273Y-92739346D01*
X125141570Y-92752280D01*
X125148921Y-92766595D01*
X125151597Y-92770961D01*
X125161291Y-92783161D01*
X125174215Y-92793240D01*
X125193314Y-92803657D01*
X125205484Y-92809453D01*
X125219111Y-92814789D01*
X125232333Y-92817773D01*
X125248464Y-92819077D01*
X125270819Y-92819374D01*
X125287667Y-92819068D01*
X125318664Y-92816092D01*
X125347016Y-92809203D01*
X125375893Y-92797497D01*
X125408466Y-92780068D01*
X125418669Y-92774361D01*
X125447531Y-92761221D01*
X125471578Y-92755577D01*
X125491514Y-92757331D01*
X125508044Y-92766387D01*
X125511569Y-92769782D01*
X125520985Y-92781147D01*
X125532013Y-92796530D01*
X125543444Y-92813977D01*
X125554074Y-92831533D01*
X125562696Y-92847244D01*
X125568103Y-92859155D01*
X125569091Y-92865313D01*
X125565118Y-92869335D01*
X125554246Y-92877677D01*
X125538940Y-92888204D01*
X125521383Y-92899481D01*
X125503755Y-92910070D01*
X125488239Y-92918537D01*
X125469435Y-92926917D01*
X125442418Y-92937015D01*
X125412767Y-92946647D01*
X125384071Y-92954658D01*
X125359914Y-92959893D01*
X125355388Y-92960576D01*
X125332543Y-92962741D01*
X125304291Y-92964012D01*
X125273615Y-92964383D01*
X125243494Y-92963852D01*
X125216911Y-92962416D01*
X125196846Y-92960072D01*
X125169628Y-92954349D01*
X125117361Y-92937626D01*
X125070911Y-92914641D01*
X125030918Y-92885816D01*
X124998022Y-92851572D01*
X124972861Y-92812331D01*
X124966131Y-92797938D01*
X124954323Y-92762398D01*
X124948276Y-92723488D01*
X124947529Y-92678781D01*
X124949202Y-92653399D01*
X124954681Y-92621884D01*
X124964710Y-92595144D01*
X124980370Y-92570576D01*
X125002738Y-92545577D01*
X125007883Y-92540597D01*
X125026346Y-92525179D01*
X125048049Y-92510836D01*
X125074211Y-92496966D01*
X125106055Y-92482964D01*
X125144800Y-92468226D01*
X125191668Y-92452150D01*
X125205053Y-92447695D01*
X125246368Y-92433259D01*
X125279466Y-92420261D01*
X125305182Y-92408117D01*
X125324350Y-92396242D01*
X125337806Y-92384053D01*
X125346384Y-92370964D01*
X125350918Y-92356392D01*
X125352245Y-92339752D01*
X125351524Y-92328489D01*
X125343734Y-92303530D01*
X125327690Y-92282853D01*
X125303774Y-92266857D01*
X125272367Y-92255941D01*
X125257017Y-92252878D01*
X125221472Y-92250249D01*
X125184726Y-92254099D01*
X125145108Y-92264683D01*
X125100951Y-92282258D01*
X125083454Y-92289732D01*
X125057273Y-92298615D01*
X125036992Y-92301734D01*
X125021592Y-92299188D01*
X125010054Y-92291077D01*
X125004963Y-92284828D01*
X124995831Y-92272153D01*
X124985253Y-92256458D01*
X124974616Y-92239912D01*
X124965302Y-92224680D01*
X124958699Y-92212928D01*
X124956190Y-92206824D01*
X124957717Y-92203240D01*
X124965837Y-92194362D01*
X124979505Y-92182811D01*
X124997079Y-92169931D01*
X125016914Y-92157069D01*
X125057892Y-92135570D01*
X125111628Y-92116464D01*
X125169950Y-92105135D01*
X125233572Y-92101400D01*
X125256531Y-92101804D01*
G37*
G36*
X133239524Y-92437304D02*
G01*
X133240809Y-92448730D01*
X133242333Y-92473113D01*
X133243472Y-92504612D01*
X133243806Y-92539420D01*
X133240004Y-92604935D01*
X133229944Y-92664164D01*
X133213326Y-92717969D01*
X133189850Y-92767213D01*
X133159214Y-92812757D01*
X133121117Y-92855463D01*
X133115360Y-92861072D01*
X133074312Y-92895411D01*
X133030046Y-92922452D01*
X132980848Y-92943094D01*
X132925004Y-92958235D01*
X132899994Y-92961828D01*
X132867343Y-92963759D01*
X132830398Y-92963960D01*
X132791731Y-92962527D01*
X132753916Y-92959558D01*
X132719526Y-92955150D01*
X132691134Y-92949400D01*
X132639951Y-92933552D01*
X132591896Y-92912403D01*
X132549607Y-92886186D01*
X132511451Y-92854032D01*
X132486796Y-92830199D01*
X132520207Y-92787843D01*
X132532120Y-92773130D01*
X132545383Y-92757676D01*
X132556016Y-92746302D01*
X132562443Y-92740765D01*
X132566918Y-92738720D01*
X132580360Y-92736337D01*
X132596902Y-92738828D01*
X132618015Y-92746530D01*
X132645168Y-92759781D01*
X132654944Y-92764866D01*
X132690701Y-92782080D01*
X132721902Y-92794278D01*
X132750931Y-92802145D01*
X132780174Y-92806364D01*
X132812014Y-92807618D01*
X132812958Y-92807617D01*
X132844591Y-92806661D01*
X132870081Y-92803632D01*
X132892590Y-92798159D01*
X132904970Y-92793856D01*
X132942104Y-92774555D01*
X132974422Y-92747666D01*
X133000884Y-92714188D01*
X133020457Y-92675117D01*
X133021289Y-92672814D01*
X133025779Y-92657719D01*
X133030821Y-92637583D01*
X133035803Y-92615256D01*
X133040116Y-92593588D01*
X133043151Y-92575431D01*
X133044298Y-92563634D01*
X133042336Y-92563126D01*
X133031971Y-92562379D01*
X133013438Y-92561690D01*
X132987572Y-92561071D01*
X132955208Y-92560535D01*
X132917180Y-92560096D01*
X132874325Y-92559767D01*
X132827477Y-92559559D01*
X132777470Y-92559487D01*
X132744341Y-92559464D01*
X132696294Y-92559347D01*
X132651577Y-92559140D01*
X132611079Y-92558851D01*
X132575685Y-92558490D01*
X132546285Y-92558067D01*
X132523765Y-92557592D01*
X132509014Y-92557074D01*
X132502919Y-92556523D01*
X132499151Y-92554648D01*
X132490909Y-92545721D01*
X132485354Y-92530402D01*
X132482218Y-92507704D01*
X132481232Y-92476638D01*
X132481252Y-92471871D01*
X132483440Y-92440194D01*
X132661663Y-92440194D01*
X132850594Y-92440194D01*
X132863751Y-92440187D01*
X132904294Y-92440074D01*
X132941385Y-92439836D01*
X132974008Y-92439487D01*
X133001149Y-92439044D01*
X133021793Y-92438522D01*
X133034924Y-92437937D01*
X133039526Y-92437304D01*
X133039335Y-92434644D01*
X133036647Y-92421716D01*
X133031522Y-92403851D01*
X133024910Y-92383963D01*
X133017758Y-92364965D01*
X133011017Y-92349771D01*
X133007006Y-92342215D01*
X132983344Y-92308918D01*
X132953650Y-92283011D01*
X132917978Y-92264530D01*
X132876379Y-92253514D01*
X132852862Y-92250905D01*
X132811253Y-92252649D01*
X132772787Y-92262625D01*
X132738473Y-92280514D01*
X132709321Y-92306001D01*
X132689646Y-92333719D01*
X132674033Y-92370970D01*
X132664819Y-92415142D01*
X132661663Y-92440194D01*
X132483440Y-92440194D01*
X132485648Y-92408228D01*
X132497791Y-92350055D01*
X132517754Y-92297149D01*
X132545612Y-92249311D01*
X132581439Y-92206339D01*
X132601830Y-92187029D01*
X132634817Y-92162092D01*
X132671723Y-92141941D01*
X132715306Y-92124896D01*
X132731066Y-92119822D01*
X132750793Y-92114523D01*
X132770170Y-92111034D01*
X132792495Y-92108807D01*
X132821065Y-92107293D01*
X132853761Y-92106784D01*
X132914420Y-92110991D01*
X132969703Y-92122332D01*
X133020477Y-92141018D01*
X133067609Y-92167261D01*
X133098851Y-92189890D01*
X133142193Y-92230105D01*
X133178028Y-92275912D01*
X133206713Y-92327795D01*
X133228602Y-92386237D01*
X133230880Y-92394009D01*
X133235387Y-92411605D01*
X133238595Y-92429036D01*
X133239524Y-92437304D01*
G37*
G36*
X135415395Y-92732200D02*
G01*
X135415855Y-92743063D01*
X135414924Y-92767229D01*
X135407190Y-92813211D01*
X135391801Y-92853716D01*
X135368968Y-92888462D01*
X135338902Y-92917166D01*
X135301812Y-92939544D01*
X135257911Y-92955313D01*
X135240985Y-92958982D01*
X135204465Y-92963420D01*
X135164361Y-92964719D01*
X135124223Y-92962829D01*
X135087597Y-92957700D01*
X135060168Y-92950520D01*
X135019748Y-92934982D01*
X134979832Y-92914461D01*
X134943919Y-92890590D01*
X134940813Y-92888218D01*
X134925468Y-92876526D01*
X134912703Y-92866829D01*
X134905019Y-92861028D01*
X134903018Y-92859664D01*
X134899070Y-92858845D01*
X134895569Y-92862723D01*
X134891547Y-92872807D01*
X134886037Y-92890603D01*
X134879595Y-92909239D01*
X134871655Y-92926366D01*
X134864193Y-92936949D01*
X134860032Y-92940296D01*
X134846111Y-92946946D01*
X134826049Y-92951524D01*
X134798752Y-92954229D01*
X134763122Y-92955258D01*
X134718786Y-92955542D01*
X134719827Y-92735050D01*
X134914566Y-92735050D01*
X134942132Y-92759687D01*
X134961996Y-92775572D01*
X134996336Y-92796739D01*
X135032580Y-92812677D01*
X135067518Y-92821796D01*
X135090708Y-92824549D01*
X135128901Y-92824514D01*
X135161018Y-92818055D01*
X135186696Y-92805383D01*
X135205572Y-92786709D01*
X135217283Y-92762244D01*
X135221466Y-92732200D01*
X135221230Y-92721913D01*
X135216800Y-92698066D01*
X135205768Y-92677850D01*
X135186782Y-92658390D01*
X135171765Y-92647654D01*
X135142411Y-92633191D01*
X135106074Y-92620967D01*
X135064207Y-92611364D01*
X135018264Y-92604761D01*
X134969697Y-92601540D01*
X134917208Y-92600047D01*
X134915887Y-92667549D01*
X134914566Y-92735050D01*
X134719827Y-92735050D01*
X134720234Y-92648957D01*
X134720492Y-92594869D01*
X134720771Y-92540941D01*
X134721059Y-92495132D01*
X134721382Y-92456678D01*
X134721769Y-92424818D01*
X134722248Y-92398788D01*
X134722848Y-92377826D01*
X134723597Y-92361171D01*
X134724522Y-92348059D01*
X134725652Y-92337729D01*
X134727015Y-92329417D01*
X134728639Y-92322362D01*
X134730552Y-92315800D01*
X134732783Y-92308971D01*
X134737624Y-92295241D01*
X134760622Y-92245693D01*
X134789986Y-92203231D01*
X134825827Y-92167741D01*
X134868258Y-92139107D01*
X134917390Y-92117214D01*
X134927523Y-92113703D01*
X134940471Y-92109721D01*
X134952793Y-92106983D01*
X134966524Y-92105263D01*
X134983696Y-92104335D01*
X135006344Y-92103971D01*
X135036502Y-92103946D01*
X135070017Y-92104418D01*
X135108124Y-92106527D01*
X135141367Y-92110772D01*
X135172364Y-92117636D01*
X135203735Y-92127603D01*
X135238099Y-92141155D01*
X135258182Y-92150526D01*
X135283586Y-92164164D01*
X135309501Y-92179588D01*
X135333629Y-92195356D01*
X135353675Y-92210029D01*
X135367341Y-92222167D01*
X135378473Y-92234081D01*
X135356214Y-92272672D01*
X135351119Y-92281290D01*
X135335444Y-92304327D01*
X135320470Y-92319907D01*
X135304702Y-92329346D01*
X135286647Y-92333961D01*
X135279388Y-92334482D01*
X135270691Y-92333561D01*
X135259984Y-92330473D01*
X135245666Y-92324634D01*
X135226134Y-92315463D01*
X135199787Y-92302377D01*
X135178946Y-92292007D01*
X135156476Y-92281375D01*
X135138595Y-92273926D01*
X135123121Y-92268867D01*
X135107871Y-92265406D01*
X135090664Y-92262751D01*
X135068511Y-92260226D01*
X135051203Y-92259664D01*
X135035408Y-92261282D01*
X135017164Y-92265212D01*
X135006543Y-92268127D01*
X134979128Y-92279449D01*
X134957417Y-92295455D01*
X134940850Y-92317025D01*
X134928868Y-92345040D01*
X134920911Y-92380383D01*
X134916421Y-92423935D01*
X134913464Y-92472095D01*
X134984526Y-92474977D01*
X134994334Y-92475419D01*
X135065990Y-92481528D01*
X135132353Y-92492335D01*
X135192947Y-92507608D01*
X135247296Y-92527117D01*
X135294921Y-92550631D01*
X135335347Y-92577920D01*
X135368095Y-92608753D01*
X135392691Y-92642899D01*
X135408656Y-92680128D01*
X135408930Y-92681080D01*
X135412430Y-92698617D01*
X135414912Y-92720798D01*
X135415395Y-92732200D01*
G37*
G36*
X136028926Y-91764098D02*
G01*
X136030644Y-91764158D01*
X136079541Y-91766808D01*
X136121952Y-91771309D01*
X136160748Y-91778167D01*
X136198801Y-91787886D01*
X136238981Y-91800969D01*
X136243497Y-91802573D01*
X136269886Y-91812391D01*
X136291727Y-91821678D01*
X136312090Y-91831965D01*
X136334044Y-91844783D01*
X136360661Y-91861664D01*
X136390746Y-91882762D01*
X136442791Y-91927995D01*
X136488665Y-91979987D01*
X136527943Y-92038070D01*
X136560202Y-92101573D01*
X136585018Y-92169828D01*
X136601965Y-92242166D01*
X136606345Y-92275419D01*
X136609279Y-92317138D01*
X136610334Y-92361833D01*
X136609510Y-92406423D01*
X136606801Y-92447823D01*
X136602206Y-92482953D01*
X136585706Y-92552132D01*
X136560552Y-92621022D01*
X136527796Y-92685665D01*
X136487981Y-92744994D01*
X136441651Y-92797945D01*
X136435854Y-92803649D01*
X136384186Y-92847622D01*
X136326678Y-92885677D01*
X136265057Y-92916922D01*
X136201052Y-92940466D01*
X136136389Y-92955418D01*
X136133939Y-92955813D01*
X136115918Y-92958751D01*
X136101439Y-92961168D01*
X136093443Y-92962576D01*
X136090802Y-92962847D01*
X136079453Y-92963361D01*
X136061365Y-92963836D01*
X136038375Y-92964228D01*
X136012323Y-92964493D01*
X135990589Y-92964484D01*
X135922103Y-92961970D01*
X135859479Y-92955391D01*
X135800442Y-92944445D01*
X135742720Y-92928834D01*
X135726874Y-92923424D01*
X135697202Y-92911570D01*
X135665557Y-92897243D01*
X135634706Y-92881788D01*
X135607413Y-92866549D01*
X135586445Y-92852870D01*
X135563779Y-92836156D01*
X135563779Y-92600001D01*
X135563779Y-92363846D01*
X135761807Y-92363846D01*
X135959834Y-92363846D01*
X135959834Y-92433253D01*
X135959828Y-92444814D01*
X135959675Y-92468703D01*
X135959130Y-92485408D01*
X135957948Y-92496627D01*
X135955883Y-92504061D01*
X135952689Y-92509410D01*
X135948122Y-92514373D01*
X135947438Y-92515055D01*
X135942985Y-92519088D01*
X135938012Y-92521995D01*
X135931012Y-92523960D01*
X135920483Y-92525166D01*
X135904922Y-92525800D01*
X135882824Y-92526044D01*
X135852687Y-92526085D01*
X135768964Y-92526085D01*
X135768964Y-92632998D01*
X135768964Y-92739911D01*
X135808862Y-92754348D01*
X135853727Y-92768425D01*
X135916241Y-92781301D01*
X135978629Y-92786745D01*
X136039646Y-92784817D01*
X136098052Y-92775577D01*
X136152602Y-92759084D01*
X136202054Y-92735399D01*
X136205478Y-92733332D01*
X136231590Y-92714422D01*
X136259192Y-92689843D01*
X136285845Y-92662107D01*
X136309112Y-92633724D01*
X136326552Y-92607205D01*
X136330840Y-92599269D01*
X136356291Y-92540700D01*
X136373485Y-92477353D01*
X136382420Y-92409237D01*
X136383094Y-92336363D01*
X136382498Y-92325028D01*
X136377609Y-92275348D01*
X136368774Y-92230854D01*
X136355208Y-92188345D01*
X136336127Y-92144616D01*
X136327380Y-92127134D01*
X136316241Y-92107335D01*
X136304558Y-92090563D01*
X136290104Y-92073729D01*
X136270656Y-92053744D01*
X136270602Y-92053690D01*
X136248573Y-92032671D01*
X136229551Y-92016953D01*
X136210624Y-92004365D01*
X136188878Y-91992733D01*
X136169808Y-91983688D01*
X136138290Y-91970817D01*
X136108014Y-91961800D01*
X136076317Y-91956073D01*
X136040536Y-91953070D01*
X135998008Y-91952226D01*
X135980627Y-91952296D01*
X135954066Y-91952806D01*
X135932997Y-91954042D01*
X135914782Y-91956276D01*
X135896785Y-91959783D01*
X135876369Y-91964835D01*
X135866259Y-91967587D01*
X135842065Y-91975128D01*
X135818015Y-91984266D01*
X135792065Y-91995889D01*
X135762169Y-92010886D01*
X135726285Y-92030148D01*
X135707649Y-92039898D01*
X135694270Y-92045406D01*
X135683837Y-92047335D01*
X135673796Y-92046478D01*
X135672969Y-92046318D01*
X135658721Y-92041744D01*
X135647713Y-92035384D01*
X135644522Y-92031944D01*
X135636352Y-92021365D01*
X135625444Y-92006100D01*
X135612976Y-91987929D01*
X135600130Y-91968634D01*
X135588084Y-91949997D01*
X135578019Y-91933801D01*
X135571115Y-91921825D01*
X135568551Y-91915852D01*
X135570230Y-91912416D01*
X135578792Y-91903917D01*
X135593317Y-91892418D01*
X135612353Y-91878898D01*
X135634446Y-91864335D01*
X135658145Y-91849710D01*
X135681996Y-91836001D01*
X135704546Y-91824188D01*
X135744953Y-91805903D01*
X135795157Y-91787983D01*
X135846831Y-91775181D01*
X135901801Y-91767158D01*
X135961891Y-91763577D01*
X136028926Y-91764098D01*
G37*
G36*
X135773845Y-93557500D02*
G01*
X135863100Y-93563512D01*
X135946792Y-93575962D01*
X136026166Y-93595122D01*
X136102469Y-93621266D01*
X136176949Y-93654667D01*
X136176993Y-93654689D01*
X136253465Y-93698153D01*
X136323248Y-93748334D01*
X136386199Y-93805009D01*
X136442178Y-93867954D01*
X136491045Y-93936946D01*
X136532659Y-94011761D01*
X136566879Y-94092176D01*
X136593564Y-94177968D01*
X136612575Y-94268912D01*
X136623770Y-94364785D01*
X136626466Y-94424729D01*
X136623558Y-94520007D01*
X136611810Y-94613181D01*
X136591346Y-94703622D01*
X136562287Y-94790699D01*
X136524757Y-94873784D01*
X136501937Y-94915570D01*
X136465530Y-94972624D01*
X136424745Y-95025238D01*
X136377362Y-95076464D01*
X136366530Y-95087128D01*
X136299781Y-95145098D01*
X136227607Y-95195337D01*
X136150428Y-95237638D01*
X136068659Y-95271797D01*
X135982721Y-95297607D01*
X135893030Y-95314863D01*
X135885190Y-95315843D01*
X135856935Y-95318136D01*
X135821774Y-95319660D01*
X135781641Y-95320438D01*
X135738469Y-95320493D01*
X135694191Y-95319848D01*
X135650742Y-95318526D01*
X135610053Y-95316550D01*
X135574059Y-95313942D01*
X135544692Y-95310726D01*
X135480943Y-95300175D01*
X135388910Y-95278079D01*
X135301957Y-95248415D01*
X135219302Y-95210901D01*
X135140164Y-95165256D01*
X135100920Y-95140082D01*
X135100920Y-94787433D01*
X135100920Y-94434783D01*
X135387225Y-94434783D01*
X135673530Y-94434783D01*
X135673530Y-94535446D01*
X135673561Y-94556828D01*
X135673425Y-94591105D01*
X135672238Y-94618243D01*
X135669056Y-94639073D01*
X135662938Y-94654428D01*
X135652939Y-94665139D01*
X135638118Y-94672038D01*
X135617531Y-94675956D01*
X135590235Y-94677725D01*
X135555288Y-94678176D01*
X135511747Y-94678142D01*
X135391997Y-94678142D01*
X135391997Y-94835263D01*
X135391997Y-94992384D01*
X135428978Y-95006551D01*
X135465951Y-95020069D01*
X135520618Y-95037082D01*
X135573508Y-95049345D01*
X135628093Y-95057609D01*
X135687845Y-95062628D01*
X135719010Y-95063679D01*
X135792653Y-95060298D01*
X135864314Y-95048852D01*
X135932838Y-95029634D01*
X135997070Y-95002938D01*
X136055854Y-94969059D01*
X136068932Y-94959573D01*
X136094336Y-94938315D01*
X136121314Y-94912904D01*
X136147504Y-94885726D01*
X136170543Y-94859166D01*
X136188067Y-94835610D01*
X136199756Y-94817034D01*
X136233088Y-94753339D01*
X136260201Y-94683551D01*
X136280573Y-94608952D01*
X136280986Y-94607048D01*
X136284620Y-94587147D01*
X136287445Y-94564542D01*
X136289599Y-94537524D01*
X136291222Y-94504384D01*
X136292454Y-94463414D01*
X136292967Y-94440103D01*
X136293399Y-94408647D01*
X136293250Y-94383352D01*
X136292421Y-94362127D01*
X136290813Y-94342885D01*
X136288329Y-94323535D01*
X136284871Y-94301990D01*
X136281359Y-94282763D01*
X136262660Y-94207888D01*
X136236992Y-94139383D01*
X136204226Y-94076993D01*
X136164233Y-94020463D01*
X136116884Y-93969538D01*
X136090611Y-93946310D01*
X136039505Y-93909412D01*
X135983999Y-93879736D01*
X135922972Y-93856725D01*
X135855305Y-93839825D01*
X135831065Y-93836202D01*
X135796150Y-93833279D01*
X135756712Y-93831781D01*
X135715401Y-93831703D01*
X135674866Y-93833046D01*
X135637757Y-93835807D01*
X135606725Y-93839984D01*
X135603103Y-93840642D01*
X135550426Y-93851742D01*
X135503291Y-93865112D01*
X135458645Y-93881890D01*
X135413433Y-93903214D01*
X135364602Y-93930223D01*
X135363345Y-93930957D01*
X135341479Y-93943376D01*
X135321088Y-93954355D01*
X135304403Y-93962726D01*
X135293653Y-93967325D01*
X135288849Y-93968720D01*
X135264202Y-93971120D01*
X135239652Y-93966849D01*
X135219030Y-93956463D01*
X135214188Y-93951434D01*
X135204499Y-93939181D01*
X135191672Y-93921698D01*
X135176769Y-93900558D01*
X135160852Y-93877335D01*
X135144985Y-93853601D01*
X135130229Y-93830931D01*
X135117648Y-93810897D01*
X135108302Y-93795072D01*
X135103256Y-93785031D01*
X135103040Y-93783467D01*
X135107272Y-93775191D01*
X135118538Y-93763373D01*
X135135761Y-93748767D01*
X135157859Y-93732129D01*
X135183755Y-93714213D01*
X135212368Y-93695773D01*
X135242619Y-93677565D01*
X135273429Y-93660343D01*
X135303719Y-93644862D01*
X135315628Y-93639191D01*
X135378386Y-93612536D01*
X135441423Y-93591516D01*
X135506426Y-93575783D01*
X135575083Y-93564989D01*
X135649080Y-93558784D01*
X135730103Y-93556821D01*
X135773845Y-93557500D01*
G37*
G36*
X128084055Y-94303069D02*
G01*
X128085541Y-94356536D01*
X128080438Y-94434422D01*
X128068109Y-94509918D01*
X128048623Y-94581666D01*
X128022049Y-94648308D01*
X127999388Y-94692280D01*
X127957608Y-94757604D01*
X127909495Y-94815795D01*
X127855088Y-94866823D01*
X127794427Y-94910657D01*
X127727551Y-94947266D01*
X127654498Y-94976620D01*
X127575308Y-94998688D01*
X127566375Y-95000640D01*
X127548670Y-95004061D01*
X127531508Y-95006515D01*
X127512872Y-95008150D01*
X127490746Y-95009117D01*
X127463112Y-95009566D01*
X127427954Y-95009646D01*
X127425812Y-95009643D01*
X127386570Y-95009307D01*
X127354960Y-95008389D01*
X127329168Y-95006778D01*
X127307381Y-95004363D01*
X127287788Y-95001031D01*
X127283275Y-95000112D01*
X127227019Y-94986281D01*
X127172490Y-94968680D01*
X127122278Y-94948240D01*
X127078970Y-94925892D01*
X127068352Y-94920077D01*
X127060383Y-94916796D01*
X127058704Y-94917856D01*
X127060815Y-94921206D01*
X127064842Y-94927079D01*
X127070597Y-94935027D01*
X127078364Y-94945408D01*
X127088426Y-94958580D01*
X127101066Y-94974900D01*
X127116566Y-94994726D01*
X127135211Y-95018416D01*
X127157282Y-95046329D01*
X127183063Y-95078820D01*
X127212837Y-95116250D01*
X127246887Y-95158975D01*
X127285496Y-95207352D01*
X127328948Y-95261741D01*
X127377524Y-95322498D01*
X127431509Y-95389982D01*
X127491185Y-95464550D01*
X127881927Y-95952725D01*
X127660905Y-95951230D01*
X127621672Y-95950961D01*
X127576527Y-95950621D01*
X127539331Y-95950260D01*
X127509168Y-95949832D01*
X127485123Y-95949291D01*
X127466281Y-95948587D01*
X127451728Y-95947675D01*
X127440547Y-95946507D01*
X127431824Y-95945035D01*
X127424644Y-95943212D01*
X127418092Y-95940991D01*
X127411253Y-95938325D01*
X127401384Y-95934175D01*
X127370439Y-95918492D01*
X127342427Y-95900484D01*
X127320580Y-95882152D01*
X127319642Y-95881055D01*
X127313514Y-95872957D01*
X127302517Y-95857891D01*
X127287091Y-95836481D01*
X127267677Y-95809353D01*
X127244715Y-95777132D01*
X127218644Y-95740442D01*
X127189906Y-95699907D01*
X127158939Y-95656154D01*
X127126184Y-95609806D01*
X127092081Y-95561489D01*
X127057070Y-95511826D01*
X127021591Y-95461444D01*
X126986084Y-95410966D01*
X126950990Y-95361018D01*
X126916748Y-95312225D01*
X126883798Y-95265210D01*
X126852581Y-95220600D01*
X126823537Y-95179018D01*
X126797104Y-95141090D01*
X126773725Y-95107440D01*
X126753838Y-95078693D01*
X126737884Y-95055475D01*
X126726303Y-95038409D01*
X126702680Y-95002365D01*
X126648052Y-94910945D01*
X126602244Y-94821135D01*
X126564987Y-94732249D01*
X126536013Y-94643598D01*
X126515054Y-94554497D01*
X126501841Y-94464259D01*
X126499747Y-94435960D01*
X126498545Y-94400796D01*
X126498266Y-94361819D01*
X126498721Y-94330431D01*
X126885946Y-94330431D01*
X126888375Y-94358917D01*
X126899671Y-94420879D01*
X126918673Y-94477891D01*
X126945043Y-94529528D01*
X126978443Y-94575369D01*
X127018532Y-94614989D01*
X127064974Y-94647966D01*
X127117429Y-94673876D01*
X127175559Y-94692298D01*
X127177877Y-94692839D01*
X127210406Y-94698525D01*
X127248528Y-94702446D01*
X127288713Y-94704420D01*
X127327430Y-94704266D01*
X127361149Y-94701803D01*
X127395405Y-94695855D01*
X127436214Y-94685096D01*
X127475424Y-94671245D01*
X127509073Y-94655541D01*
X127530911Y-94641633D01*
X127561645Y-94616433D01*
X127590861Y-94586613D01*
X127616068Y-94554785D01*
X127634780Y-94523563D01*
X127638093Y-94516572D01*
X127658534Y-94461973D01*
X127672373Y-94401603D01*
X127679312Y-94336721D01*
X127680038Y-94303069D01*
X127675529Y-94238337D01*
X127663295Y-94177781D01*
X127643625Y-94121894D01*
X127616803Y-94071173D01*
X127583117Y-94026113D01*
X127542854Y-93987208D01*
X127496300Y-93954955D01*
X127443742Y-93929847D01*
X127418508Y-93920851D01*
X127387959Y-93912457D01*
X127356606Y-93907099D01*
X127321584Y-93904319D01*
X127280030Y-93903659D01*
X127276114Y-93903691D01*
X127221772Y-93906760D01*
X127172839Y-93915142D01*
X127126560Y-93929479D01*
X127080181Y-93950418D01*
X127044459Y-93971712D01*
X127001209Y-94006764D01*
X126964267Y-94048309D01*
X126933969Y-94095690D01*
X126910652Y-94148250D01*
X126894652Y-94205332D01*
X126886305Y-94266278D01*
X126885946Y-94330431D01*
X126498721Y-94330431D01*
X126498854Y-94321253D01*
X126500255Y-94281321D01*
X126502412Y-94244245D01*
X126505269Y-94212248D01*
X126508772Y-94187554D01*
X126521694Y-94127893D01*
X126544772Y-94049994D01*
X126573931Y-93978515D01*
X126609596Y-93912593D01*
X126652191Y-93851363D01*
X126702143Y-93793959D01*
X126731698Y-93765043D01*
X126794180Y-93713838D01*
X126862136Y-93670380D01*
X126935425Y-93634722D01*
X127013905Y-93606920D01*
X127097436Y-93587027D01*
X127185875Y-93575099D01*
X127279081Y-93571190D01*
X127306655Y-93571522D01*
X127388319Y-93576484D01*
X127464486Y-93587681D01*
X127536764Y-93605482D01*
X127606761Y-93630257D01*
X127676084Y-93662374D01*
X127703871Y-93677430D01*
X127773721Y-93722029D01*
X127837754Y-93773028D01*
X127895015Y-93829616D01*
X127944548Y-93890978D01*
X127963441Y-93919543D01*
X127984156Y-93954827D01*
X128004497Y-93992998D01*
X128023127Y-94031424D01*
X128038711Y-94067473D01*
X128049912Y-94098514D01*
X128056802Y-94122133D01*
X128073791Y-94199033D01*
X128083348Y-94277621D01*
X128084055Y-94303069D01*
G37*
G36*
X124159146Y-95058326D02*
G01*
X124195517Y-95151016D01*
X124231033Y-95241552D01*
X124265070Y-95328343D01*
X124297484Y-95411022D01*
X124328130Y-95489222D01*
X124356867Y-95562577D01*
X124383549Y-95630718D01*
X124408034Y-95693280D01*
X124430177Y-95749895D01*
X124449835Y-95800196D01*
X124466864Y-95843817D01*
X124481120Y-95880391D01*
X124492461Y-95909550D01*
X124500742Y-95930928D01*
X124505819Y-95944157D01*
X124507549Y-95948872D01*
X124507054Y-95949147D01*
X124499580Y-95949909D01*
X124483905Y-95950539D01*
X124461043Y-95951024D01*
X124432006Y-95951351D01*
X124397807Y-95951508D01*
X124359456Y-95951481D01*
X124317969Y-95951257D01*
X124283352Y-95950988D01*
X124241942Y-95950622D01*
X124208391Y-95950220D01*
X124181709Y-95949726D01*
X124160912Y-95949081D01*
X124145013Y-95948229D01*
X124133023Y-95947112D01*
X124123957Y-95945672D01*
X124116828Y-95943853D01*
X124110649Y-95941598D01*
X124104433Y-95938848D01*
X124089654Y-95930750D01*
X124065801Y-95912797D01*
X124044798Y-95891424D01*
X124029828Y-95869586D01*
X124028775Y-95867319D01*
X124024097Y-95855935D01*
X124016643Y-95836867D01*
X124006755Y-95811024D01*
X123994775Y-95779312D01*
X123981044Y-95742638D01*
X123965905Y-95701908D01*
X123949698Y-95658031D01*
X123932766Y-95611912D01*
X123845103Y-95372431D01*
X123358539Y-95371216D01*
X123317247Y-95371114D01*
X123242957Y-95370944D01*
X123177385Y-95370819D01*
X123119986Y-95370749D01*
X123070212Y-95370740D01*
X123027517Y-95370802D01*
X122991353Y-95370941D01*
X122961175Y-95371166D01*
X122936435Y-95371485D01*
X122916587Y-95371906D01*
X122901084Y-95372436D01*
X122889379Y-95373084D01*
X122880926Y-95373859D01*
X122875178Y-95374767D01*
X122871588Y-95375816D01*
X122869609Y-95377016D01*
X122868695Y-95378373D01*
X122868294Y-95379430D01*
X122865023Y-95388235D01*
X122858896Y-95404834D01*
X122850232Y-95428353D01*
X122839353Y-95457919D01*
X122826580Y-95492660D01*
X122812235Y-95531701D01*
X122796638Y-95574171D01*
X122780111Y-95619195D01*
X122774985Y-95633154D01*
X122758501Y-95677879D01*
X122742891Y-95720009D01*
X122728495Y-95758634D01*
X122715657Y-95792843D01*
X122704719Y-95821727D01*
X122696023Y-95844376D01*
X122689913Y-95859879D01*
X122686730Y-95867326D01*
X122676610Y-95884761D01*
X122653634Y-95912189D01*
X122625340Y-95932050D01*
X122590805Y-95945097D01*
X122581894Y-95946975D01*
X122569913Y-95948562D01*
X122554190Y-95949812D01*
X122533758Y-95950760D01*
X122507649Y-95951440D01*
X122474898Y-95951883D01*
X122434538Y-95952125D01*
X122385602Y-95952198D01*
X122381647Y-95952197D01*
X122341768Y-95952088D01*
X122305162Y-95951809D01*
X122272875Y-95951382D01*
X122245951Y-95950829D01*
X122225435Y-95950170D01*
X122212372Y-95949427D01*
X122207808Y-95948619D01*
X122209225Y-95944763D01*
X122213988Y-95932367D01*
X122221968Y-95911787D01*
X122233022Y-95883389D01*
X122247007Y-95847542D01*
X122263778Y-95804611D01*
X122283192Y-95754963D01*
X122305105Y-95698965D01*
X122329374Y-95636984D01*
X122355855Y-95569387D01*
X122384403Y-95496540D01*
X122414876Y-95418811D01*
X122447130Y-95336566D01*
X122481021Y-95250172D01*
X122516405Y-95159996D01*
X122553138Y-95066404D01*
X122558040Y-95053917D01*
X122986700Y-95053917D01*
X122987375Y-95054797D01*
X122991625Y-95055820D01*
X123000175Y-95056706D01*
X123013550Y-95057463D01*
X123032273Y-95058099D01*
X123056870Y-95058622D01*
X123087863Y-95059042D01*
X123125779Y-95059367D01*
X123171140Y-95059605D01*
X123224472Y-95059764D01*
X123286299Y-95059854D01*
X123357144Y-95059882D01*
X123373153Y-95059880D01*
X123431167Y-95059851D01*
X123486143Y-95059785D01*
X123537359Y-95059687D01*
X123584091Y-95059558D01*
X123625617Y-95059402D01*
X123661214Y-95059223D01*
X123690158Y-95059023D01*
X123711728Y-95058804D01*
X123725200Y-95058571D01*
X123729851Y-95058326D01*
X123729830Y-95058242D01*
X123727859Y-95052661D01*
X123722847Y-95038826D01*
X123715025Y-95017367D01*
X123704622Y-94988912D01*
X123691871Y-94954092D01*
X123677002Y-94913537D01*
X123660245Y-94867876D01*
X123641833Y-94817738D01*
X123621994Y-94763753D01*
X123600961Y-94706552D01*
X123578965Y-94646763D01*
X123571543Y-94626596D01*
X123545546Y-94555946D01*
X123522555Y-94493425D01*
X123502338Y-94438380D01*
X123484665Y-94390156D01*
X123469307Y-94348100D01*
X123456033Y-94311558D01*
X123444613Y-94279877D01*
X123434817Y-94252401D01*
X123426415Y-94228479D01*
X123419176Y-94207455D01*
X123412871Y-94188677D01*
X123407269Y-94171489D01*
X123402140Y-94155239D01*
X123397254Y-94139273D01*
X123392381Y-94122937D01*
X123387290Y-94105576D01*
X123381752Y-94086538D01*
X123358904Y-94007897D01*
X123346088Y-94050750D01*
X123345766Y-94051827D01*
X123340177Y-94070305D01*
X123334440Y-94088826D01*
X123328328Y-94108028D01*
X123321619Y-94128547D01*
X123314086Y-94151020D01*
X123305505Y-94176083D01*
X123295653Y-94204374D01*
X123284303Y-94236527D01*
X123271231Y-94273182D01*
X123256214Y-94314973D01*
X123239025Y-94362538D01*
X123219441Y-94416513D01*
X123197236Y-94477535D01*
X123172186Y-94546241D01*
X123144067Y-94623267D01*
X123137477Y-94641311D01*
X123115435Y-94701660D01*
X123094371Y-94759325D01*
X123074516Y-94813679D01*
X123056097Y-94864093D01*
X123039346Y-94909939D01*
X123024492Y-94950589D01*
X123011763Y-94985415D01*
X123001390Y-95013789D01*
X122993602Y-95035082D01*
X122988629Y-95048668D01*
X122986700Y-95053917D01*
X122558040Y-95053917D01*
X122591078Y-94969764D01*
X122630079Y-94870442D01*
X122670000Y-94768805D01*
X123132047Y-93592570D01*
X123357776Y-93592570D01*
X123583505Y-93592570D01*
X124045479Y-94768805D01*
X124081530Y-94860606D01*
X124120622Y-94960176D01*
X124158666Y-95057102D01*
X124159146Y-95058326D01*
G37*
G36*
X128184606Y-91771714D02*
G01*
X128211212Y-91772281D01*
X128235790Y-91773284D01*
X128256719Y-91774717D01*
X128272376Y-91776576D01*
X128281140Y-91778854D01*
X128285441Y-91781122D01*
X128290423Y-91784106D01*
X128295042Y-91787758D01*
X128299509Y-91792687D01*
X128304036Y-91799501D01*
X128308835Y-91808807D01*
X128314118Y-91821213D01*
X128320098Y-91837329D01*
X128326986Y-91857761D01*
X128334994Y-91883118D01*
X128344333Y-91914008D01*
X128355217Y-91951039D01*
X128367856Y-91994820D01*
X128382463Y-92045957D01*
X128399250Y-92105060D01*
X128418429Y-92172736D01*
X128421709Y-92184319D01*
X128438133Y-92242523D01*
X128453967Y-92298948D01*
X128468982Y-92352772D01*
X128482956Y-92403173D01*
X128495661Y-92449329D01*
X128506872Y-92490418D01*
X128516364Y-92525618D01*
X128523911Y-92554108D01*
X128529289Y-92575065D01*
X128532270Y-92587667D01*
X128542828Y-92638039D01*
X128551117Y-92604728D01*
X128553180Y-92597131D01*
X128558358Y-92579583D01*
X128565932Y-92554852D01*
X128575635Y-92523753D01*
X128587204Y-92487099D01*
X128600373Y-92445703D01*
X128614876Y-92400380D01*
X128630450Y-92351943D01*
X128646829Y-92301205D01*
X128663748Y-92248981D01*
X128680942Y-92196083D01*
X128698146Y-92143326D01*
X128715095Y-92091523D01*
X128731524Y-92041487D01*
X128747168Y-91994033D01*
X128761762Y-91949974D01*
X128775040Y-91910124D01*
X128786739Y-91875296D01*
X128796592Y-91846304D01*
X128804335Y-91823962D01*
X128809703Y-91809083D01*
X128812430Y-91802481D01*
X128815817Y-91797298D01*
X128825477Y-91786928D01*
X128838203Y-91779722D01*
X128855597Y-91775186D01*
X128879259Y-91772826D01*
X128910789Y-91772149D01*
X128917910Y-91772158D01*
X128940679Y-91772437D01*
X128956546Y-91773341D01*
X128967614Y-91775179D01*
X128975988Y-91778263D01*
X128983772Y-91782902D01*
X128985399Y-91784042D01*
X128998245Y-91795530D01*
X129007930Y-91807954D01*
X129009500Y-91811521D01*
X129014146Y-91823991D01*
X129021258Y-91844194D01*
X129030568Y-91871309D01*
X129041807Y-91904513D01*
X129054707Y-91942984D01*
X129069000Y-91985901D01*
X129084416Y-92032441D01*
X129100688Y-92081782D01*
X129117547Y-92133102D01*
X129134724Y-92185579D01*
X129151952Y-92238392D01*
X129168961Y-92290718D01*
X129185484Y-92341735D01*
X129201251Y-92390621D01*
X129215995Y-92436554D01*
X129229446Y-92478713D01*
X129241337Y-92516274D01*
X129251400Y-92548416D01*
X129259364Y-92574318D01*
X129264963Y-92593156D01*
X129267928Y-92604110D01*
X129276592Y-92641574D01*
X129287036Y-92592180D01*
X129287735Y-92589009D01*
X129291647Y-92572947D01*
X129297724Y-92549487D01*
X129305731Y-92519459D01*
X129315432Y-92483692D01*
X129326591Y-92443017D01*
X129338974Y-92398262D01*
X129352344Y-92350259D01*
X129366467Y-92299836D01*
X129381106Y-92247824D01*
X129396026Y-92195052D01*
X129410992Y-92142350D01*
X129425768Y-92090548D01*
X129440119Y-92040476D01*
X129453809Y-91992963D01*
X129466603Y-91948840D01*
X129478265Y-91908935D01*
X129488560Y-91874080D01*
X129497252Y-91845104D01*
X129504106Y-91822836D01*
X129508886Y-91808106D01*
X129511357Y-91801745D01*
X129511835Y-91801038D01*
X129521348Y-91790848D01*
X129533746Y-91781483D01*
X129535846Y-91780252D01*
X129541763Y-91777497D01*
X129549169Y-91775446D01*
X129559407Y-91773997D01*
X129573818Y-91773047D01*
X129593745Y-91772494D01*
X129620530Y-91772235D01*
X129655516Y-91772167D01*
X129678320Y-91772196D01*
X129708228Y-91772409D01*
X129730270Y-91772885D01*
X129745481Y-91773688D01*
X129754897Y-91774883D01*
X129759556Y-91776535D01*
X129760494Y-91778708D01*
X129760448Y-91778880D01*
X129758524Y-91785262D01*
X129753954Y-91800141D01*
X129746908Y-91822969D01*
X129737556Y-91853199D01*
X129726068Y-91890284D01*
X129712613Y-91933675D01*
X129697362Y-91982825D01*
X129680484Y-92037188D01*
X129662150Y-92096215D01*
X129642529Y-92159359D01*
X129621791Y-92226072D01*
X129600105Y-92295808D01*
X129577643Y-92368019D01*
X129396334Y-92950770D01*
X129294917Y-92950770D01*
X129283923Y-92950758D01*
X129255066Y-92950598D01*
X129230209Y-92950276D01*
X129210739Y-92949822D01*
X129198040Y-92949265D01*
X129193499Y-92948634D01*
X129192985Y-92946874D01*
X129189871Y-92937073D01*
X129184123Y-92919273D01*
X129175962Y-92894145D01*
X129165605Y-92862358D01*
X129153273Y-92824583D01*
X129139183Y-92781491D01*
X129123555Y-92733751D01*
X129106607Y-92682035D01*
X129088559Y-92627012D01*
X129069630Y-92569353D01*
X129060961Y-92542955D01*
X129041801Y-92484578D01*
X129023309Y-92428203D01*
X129005745Y-92374614D01*
X128989363Y-92324596D01*
X128974422Y-92278934D01*
X128961177Y-92238414D01*
X128949886Y-92203820D01*
X128940806Y-92175938D01*
X128934192Y-92155551D01*
X128930303Y-92143446D01*
X128926349Y-92131020D01*
X128920767Y-92114130D01*
X128917047Y-92104747D01*
X128914554Y-92101823D01*
X128912651Y-92104311D01*
X128910703Y-92111164D01*
X128910422Y-92112187D01*
X128907571Y-92121544D01*
X128902062Y-92139056D01*
X128894127Y-92163996D01*
X128884001Y-92195637D01*
X128871917Y-92233253D01*
X128858109Y-92276118D01*
X128842810Y-92323504D01*
X128826255Y-92374685D01*
X128808676Y-92428934D01*
X128790308Y-92485525D01*
X128787577Y-92493933D01*
X128768880Y-92551499D01*
X128750715Y-92607438D01*
X128733351Y-92660924D01*
X128717056Y-92711129D01*
X128702098Y-92757224D01*
X128688747Y-92798383D01*
X128677271Y-92833776D01*
X128667938Y-92862577D01*
X128661017Y-92883957D01*
X128656777Y-92897088D01*
X128639499Y-92950770D01*
X128538338Y-92950715D01*
X128437178Y-92950659D01*
X128256269Y-92367369D01*
X128253334Y-92357906D01*
X128231014Y-92285952D01*
X128209483Y-92216552D01*
X128188910Y-92150254D01*
X128169465Y-92087603D01*
X128151318Y-92029147D01*
X128134638Y-91975432D01*
X128119596Y-91927006D01*
X128106361Y-91884414D01*
X128095103Y-91848204D01*
X128085992Y-91818922D01*
X128079198Y-91797115D01*
X128074890Y-91783330D01*
X128073239Y-91778114D01*
X128073204Y-91777803D01*
X128077920Y-91775629D01*
X128090338Y-91773927D01*
X128108838Y-91772691D01*
X128131797Y-91771913D01*
X128157593Y-91771590D01*
X128184606Y-91771714D01*
G37*
G36*
X132654874Y-93575879D02*
G01*
X132693526Y-93576023D01*
X132724389Y-93576471D01*
X132748658Y-93577388D01*
X132767527Y-93578940D01*
X132782191Y-93581291D01*
X132793843Y-93584607D01*
X132803679Y-93589052D01*
X132812892Y-93594792D01*
X132822676Y-93601992D01*
X132823918Y-93602972D01*
X132836122Y-93615491D01*
X132845207Y-93629282D01*
X132845611Y-93630297D01*
X132848600Y-93639491D01*
X132853949Y-93657092D01*
X132861485Y-93682496D01*
X132871033Y-93715100D01*
X132882421Y-93754302D01*
X132895474Y-93799499D01*
X132910019Y-93850087D01*
X132925881Y-93905463D01*
X132942887Y-93965025D01*
X132960862Y-94028169D01*
X132979634Y-94094293D01*
X132999027Y-94162794D01*
X133006330Y-94188633D01*
X133032659Y-94281982D01*
X133056437Y-94366627D01*
X133077761Y-94442929D01*
X133096726Y-94511250D01*
X133113430Y-94571952D01*
X133127968Y-94625399D01*
X133140437Y-94671951D01*
X133150933Y-94711972D01*
X133159553Y-94745823D01*
X133166392Y-94773867D01*
X133171548Y-94796466D01*
X133175116Y-94813981D01*
X133177194Y-94826776D01*
X133177876Y-94835212D01*
X133177880Y-94835930D01*
X133178477Y-94843326D01*
X133180225Y-94843407D01*
X133183331Y-94835670D01*
X133188001Y-94819607D01*
X133194443Y-94794715D01*
X133196438Y-94787517D01*
X133201518Y-94770486D01*
X133209203Y-94745453D01*
X133219298Y-94713030D01*
X133231610Y-94673829D01*
X133245943Y-94628463D01*
X133262105Y-94577542D01*
X133279899Y-94521680D01*
X133299132Y-94461488D01*
X133319610Y-94397578D01*
X133341138Y-94330562D01*
X133363522Y-94261052D01*
X133386568Y-94189660D01*
X133387717Y-94186103D01*
X133414427Y-94103485D01*
X133438387Y-94029443D01*
X133459766Y-93963486D01*
X133478731Y-93905124D01*
X133495450Y-93853869D01*
X133510091Y-93809230D01*
X133522822Y-93770719D01*
X133533810Y-93737844D01*
X133543224Y-93710118D01*
X133551231Y-93687049D01*
X133557999Y-93668150D01*
X133563696Y-93652929D01*
X133568490Y-93640898D01*
X133572548Y-93631566D01*
X133576039Y-93624445D01*
X133579131Y-93619044D01*
X133581990Y-93614875D01*
X133584786Y-93611447D01*
X133585454Y-93610686D01*
X133597028Y-93598721D01*
X133608800Y-93589770D01*
X133622322Y-93583446D01*
X133639149Y-93579365D01*
X133660833Y-93577143D01*
X133688928Y-93576395D01*
X133724987Y-93576737D01*
X133753918Y-93577326D01*
X133775949Y-93578026D01*
X133791739Y-93579061D01*
X133802964Y-93580674D01*
X133811299Y-93583108D01*
X133818419Y-93586609D01*
X133826000Y-93591418D01*
X133831008Y-93595024D01*
X133846116Y-93608636D01*
X133858004Y-93622917D01*
X133859522Y-93625927D01*
X133864462Y-93638256D01*
X133872138Y-93659186D01*
X133882443Y-93688400D01*
X133895270Y-93725581D01*
X133910512Y-93770414D01*
X133928064Y-93822581D01*
X133947817Y-93881766D01*
X133969667Y-93947654D01*
X133993504Y-94019926D01*
X134019224Y-94098269D01*
X134046719Y-94182363D01*
X134059816Y-94222519D01*
X134088223Y-94309776D01*
X134113809Y-94388638D01*
X134136718Y-94459565D01*
X134157092Y-94523017D01*
X134175073Y-94579453D01*
X134190803Y-94629334D01*
X134204426Y-94673118D01*
X134216082Y-94711267D01*
X134225916Y-94744238D01*
X134234068Y-94772493D01*
X134240683Y-94796491D01*
X134245900Y-94816691D01*
X134249865Y-94833554D01*
X134252717Y-94847539D01*
X134253614Y-94848326D01*
X134255967Y-94842519D01*
X134259187Y-94829828D01*
X134262849Y-94811751D01*
X134264607Y-94802352D01*
X134266880Y-94790680D01*
X134269354Y-94778693D01*
X134272181Y-94765837D01*
X134275510Y-94751557D01*
X134279490Y-94735301D01*
X134284274Y-94716513D01*
X134290009Y-94694639D01*
X134296847Y-94669125D01*
X134304937Y-94639417D01*
X134314430Y-94604961D01*
X134325476Y-94565203D01*
X134338224Y-94519587D01*
X134352824Y-94467562D01*
X134369428Y-94408571D01*
X134388184Y-94342061D01*
X134409242Y-94267477D01*
X134432754Y-94184266D01*
X134452869Y-94113077D01*
X134474250Y-94037383D01*
X134493297Y-93969959D01*
X134510156Y-93910316D01*
X134524978Y-93857962D01*
X134537910Y-93812406D01*
X134549100Y-93773157D01*
X134558698Y-93739722D01*
X134566851Y-93711613D01*
X134573708Y-93688336D01*
X134579417Y-93669401D01*
X134584127Y-93654318D01*
X134587986Y-93642594D01*
X134591143Y-93633738D01*
X134593746Y-93627260D01*
X134595944Y-93622668D01*
X134597884Y-93619471D01*
X134599715Y-93617178D01*
X134601586Y-93615298D01*
X134603646Y-93613339D01*
X134606042Y-93610811D01*
X134607570Y-93609076D01*
X134615658Y-93600348D01*
X134623599Y-93593311D01*
X134632469Y-93587784D01*
X134643346Y-93583582D01*
X134657306Y-93580524D01*
X134675426Y-93578426D01*
X134698782Y-93577104D01*
X134728451Y-93576377D01*
X134765511Y-93576062D01*
X134811037Y-93575974D01*
X134831573Y-93575983D01*
X134866867Y-93576115D01*
X134898286Y-93576381D01*
X134924696Y-93576762D01*
X134944964Y-93577240D01*
X134957957Y-93577797D01*
X134962539Y-93578414D01*
X134962287Y-93579311D01*
X134959753Y-93587678D01*
X134954634Y-93604388D01*
X134947097Y-93628897D01*
X134937310Y-93660661D01*
X134925442Y-93699139D01*
X134911660Y-93743787D01*
X134896133Y-93794061D01*
X134879029Y-93849420D01*
X134860515Y-93909320D01*
X134840760Y-93973217D01*
X134819932Y-94040570D01*
X134798199Y-94110834D01*
X134775729Y-94183468D01*
X134752691Y-94257927D01*
X134729252Y-94333669D01*
X134705580Y-94410151D01*
X134681844Y-94486829D01*
X134658211Y-94563161D01*
X134634850Y-94638605D01*
X134611929Y-94712615D01*
X134589615Y-94784651D01*
X134568078Y-94854168D01*
X134547484Y-94920624D01*
X134528003Y-94983476D01*
X134509802Y-95042180D01*
X134493049Y-95096193D01*
X134477913Y-95144974D01*
X134464561Y-95187978D01*
X134453162Y-95224662D01*
X134443883Y-95254484D01*
X134436893Y-95276901D01*
X134432360Y-95291369D01*
X134430452Y-95297345D01*
X134430229Y-95297749D01*
X134426788Y-95299420D01*
X134418801Y-95300698D01*
X134405436Y-95301609D01*
X134385861Y-95302180D01*
X134359242Y-95302437D01*
X134324748Y-95302407D01*
X134281546Y-95302117D01*
X134134741Y-95300855D01*
X133945443Y-94723474D01*
X133921793Y-94651297D01*
X133898663Y-94580630D01*
X133876377Y-94512463D01*
X133855127Y-94447391D01*
X133835110Y-94386013D01*
X133816517Y-94328925D01*
X133799545Y-94276724D01*
X133784386Y-94230007D01*
X133771235Y-94189372D01*
X133760287Y-94155415D01*
X133751734Y-94128734D01*
X133745772Y-94109925D01*
X133742595Y-94099586D01*
X133738440Y-94085745D01*
X133732979Y-94068883D01*
X133728730Y-94057344D01*
X133726367Y-94053061D01*
X133724971Y-94054686D01*
X133721569Y-94063184D01*
X133717673Y-94076522D01*
X133717307Y-94077837D01*
X133714248Y-94087863D01*
X133708475Y-94106239D01*
X133700166Y-94132408D01*
X133689499Y-94165816D01*
X133676655Y-94205905D01*
X133661811Y-94252120D01*
X133645146Y-94303905D01*
X133626840Y-94360703D01*
X133607071Y-94421958D01*
X133586019Y-94487114D01*
X133563861Y-94555615D01*
X133540778Y-94626905D01*
X133516948Y-94700428D01*
X133322241Y-95300855D01*
X133174969Y-95300855D01*
X133027698Y-95300855D01*
X132764218Y-94451484D01*
X132741511Y-94378272D01*
X132714987Y-94292720D01*
X132689321Y-94209895D01*
X132664652Y-94130255D01*
X132641122Y-94054256D01*
X132618872Y-93982353D01*
X132598043Y-93915003D01*
X132578775Y-93852662D01*
X132561210Y-93795785D01*
X132545488Y-93744831D01*
X132531751Y-93700253D01*
X132520139Y-93662509D01*
X132510793Y-93632055D01*
X132503855Y-93609346D01*
X132499465Y-93594840D01*
X132497763Y-93588991D01*
X132494789Y-93575869D01*
X132633702Y-93575869D01*
X132654874Y-93575879D01*
G37*
G36*
X98270934Y-95582449D02*
G01*
X98270934Y-95962949D01*
X98177456Y-95962949D01*
X98083978Y-95962949D01*
X98083978Y-95582449D01*
X98083978Y-95201949D01*
X98177456Y-95201949D01*
X98270934Y-95201949D01*
X98270934Y-95582449D01*
G37*
G36*
X92414413Y-95582449D02*
G01*
X92414413Y-95962949D01*
X92320934Y-95962949D01*
X92227456Y-95962949D01*
X92227456Y-95582449D01*
X92227456Y-95201949D01*
X92320934Y-95201949D01*
X92414413Y-95201949D01*
X92414413Y-95582449D01*
G37*
G36*
X98187745Y-94863167D02*
G01*
X98216714Y-94869640D01*
X98243409Y-94883304D01*
X98265962Y-94902988D01*
X98282508Y-94927521D01*
X98286221Y-94938180D01*
X98289819Y-94955564D01*
X98291872Y-94974572D01*
X98292207Y-94981766D01*
X98292005Y-94998842D01*
X98289597Y-95012027D01*
X98284468Y-95024819D01*
X98274521Y-95041778D01*
X98252777Y-95065491D01*
X98225282Y-95082980D01*
X98221746Y-95084561D01*
X98192575Y-95092606D01*
X98162935Y-95092800D01*
X98134265Y-95085669D01*
X98108002Y-95071739D01*
X98085585Y-95051537D01*
X98068451Y-95025588D01*
X98063572Y-95015013D01*
X98059477Y-95002459D01*
X98058153Y-94989350D01*
X98058886Y-94971668D01*
X98063257Y-94946013D01*
X98075166Y-94917894D01*
X98093509Y-94894807D01*
X98117504Y-94877458D01*
X98146367Y-94866554D01*
X98179318Y-94862803D01*
X98187745Y-94863167D01*
G37*
G36*
X92331223Y-94863167D02*
G01*
X92360192Y-94869640D01*
X92386887Y-94883304D01*
X92409440Y-94902988D01*
X92425986Y-94927521D01*
X92429699Y-94938180D01*
X92433298Y-94955564D01*
X92435350Y-94974572D01*
X92435685Y-94981766D01*
X92435483Y-94998842D01*
X92433075Y-95012027D01*
X92427946Y-95024819D01*
X92418000Y-95041778D01*
X92396255Y-95065491D01*
X92368760Y-95082980D01*
X92365224Y-95084561D01*
X92336053Y-95092606D01*
X92306413Y-95092800D01*
X92277743Y-95085669D01*
X92251480Y-95071739D01*
X92229063Y-95051537D01*
X92211929Y-95025588D01*
X92207050Y-95015013D01*
X92202955Y-95002459D01*
X92201631Y-94989350D01*
X92202364Y-94971668D01*
X92206735Y-94946013D01*
X92218645Y-94917894D01*
X92236988Y-94894807D01*
X92260982Y-94877458D01*
X92289846Y-94866554D01*
X92322796Y-94862803D01*
X92331223Y-94863167D01*
G37*
G36*
X92657958Y-94868216D02*
G01*
X92686927Y-94870189D01*
X92710867Y-94873645D01*
X92742885Y-94882595D01*
X92780187Y-94898608D01*
X92814494Y-94919175D01*
X92843036Y-94942846D01*
X92868232Y-94972573D01*
X92890475Y-95010896D01*
X92906250Y-95054542D01*
X92915648Y-95103772D01*
X92918760Y-95158846D01*
X92918760Y-95206297D01*
X92975282Y-95206297D01*
X93031804Y-95206297D01*
X93031804Y-95255338D01*
X93031515Y-95275891D01*
X93029620Y-95297332D01*
X93024921Y-95312820D01*
X93016246Y-95323668D01*
X93002419Y-95331184D01*
X92982265Y-95336681D01*
X92954612Y-95341467D01*
X92918760Y-95346956D01*
X92918760Y-95655039D01*
X92918760Y-95963122D01*
X92826369Y-95961948D01*
X92733978Y-95960774D01*
X92732862Y-95648764D01*
X92731746Y-95336754D01*
X92636123Y-95336754D01*
X92540500Y-95336754D01*
X92540500Y-95271526D01*
X92540500Y-95206297D01*
X92641139Y-95206297D01*
X92741779Y-95206297D01*
X92739372Y-95155202D01*
X92738435Y-95139754D01*
X92734372Y-95106182D01*
X92727610Y-95079493D01*
X92717811Y-95058597D01*
X92704641Y-95042402D01*
X92692816Y-95032230D01*
X92678602Y-95023391D01*
X92662066Y-95017238D01*
X92641088Y-95013016D01*
X92613546Y-95009970D01*
X92598224Y-95008495D01*
X92579175Y-95006203D01*
X92564139Y-95003866D01*
X92555447Y-95001812D01*
X92554191Y-95001302D01*
X92546597Y-94996057D01*
X92541394Y-94987175D01*
X92538278Y-94973411D01*
X92536949Y-94953521D01*
X92537102Y-94926260D01*
X92538326Y-94877980D01*
X92562239Y-94872964D01*
X92571471Y-94871343D01*
X92597172Y-94868779D01*
X92627020Y-94867742D01*
X92657958Y-94868216D01*
G37*
G36*
X97310065Y-95410680D02*
G01*
X97310065Y-95962949D01*
X97216586Y-95962949D01*
X97123108Y-95962949D01*
X97123108Y-95687320D01*
X97123108Y-95411692D01*
X97105469Y-95395754D01*
X97069828Y-95367819D01*
X97033218Y-95347943D01*
X96995508Y-95336283D01*
X96956123Y-95332597D01*
X96925245Y-95334598D01*
X96898366Y-95341252D01*
X96876731Y-95353291D01*
X96859047Y-95371451D01*
X96844022Y-95396470D01*
X96829630Y-95425702D01*
X96828357Y-95694325D01*
X96827083Y-95962949D01*
X96733526Y-95962949D01*
X96639968Y-95962949D01*
X96641660Y-95690076D01*
X96641869Y-95656626D01*
X96642240Y-95602281D01*
X96642655Y-95555509D01*
X96643181Y-95515586D01*
X96643884Y-95481787D01*
X96644827Y-95453389D01*
X96646078Y-95429667D01*
X96647701Y-95409897D01*
X96649762Y-95393353D01*
X96652327Y-95379313D01*
X96655460Y-95367051D01*
X96659228Y-95355843D01*
X96663695Y-95344965D01*
X96668928Y-95333692D01*
X96674992Y-95321301D01*
X96695095Y-95286574D01*
X96722504Y-95253285D01*
X96754653Y-95227151D01*
X96791804Y-95208006D01*
X96834218Y-95195685D01*
X96882157Y-95190022D01*
X96883357Y-95189967D01*
X96933345Y-95190514D01*
X96978278Y-95197225D01*
X97019661Y-95210581D01*
X97059001Y-95231066D01*
X97097801Y-95259162D01*
X97107253Y-95266706D01*
X97116212Y-95273326D01*
X97120627Y-95275874D01*
X97120653Y-95275864D01*
X97121147Y-95271243D01*
X97121607Y-95258808D01*
X97122024Y-95239399D01*
X97122388Y-95213855D01*
X97122688Y-95183017D01*
X97122915Y-95147726D01*
X97123058Y-95108821D01*
X97123108Y-95067143D01*
X97123108Y-94858412D01*
X97216586Y-94858412D01*
X97310065Y-94858412D01*
X97310065Y-95410680D01*
G37*
G36*
X97719871Y-94967235D02*
G01*
X97744430Y-94968358D01*
X97762184Y-94971011D01*
X97774389Y-94975578D01*
X97782304Y-94982446D01*
X97787184Y-94991998D01*
X97788231Y-94995830D01*
X97790984Y-95008091D01*
X97794823Y-95026707D01*
X97799478Y-95050320D01*
X97804679Y-95077571D01*
X97810153Y-95107102D01*
X97828972Y-95210116D01*
X97857562Y-95214888D01*
X97874591Y-95217725D01*
X97897457Y-95221525D01*
X97918760Y-95225057D01*
X97951369Y-95230454D01*
X97952702Y-95262948D01*
X97952848Y-95266807D01*
X97952909Y-95291885D01*
X97950895Y-95310166D01*
X97946515Y-95323171D01*
X97939479Y-95332423D01*
X97935218Y-95335765D01*
X97928771Y-95338528D01*
X97919177Y-95340148D01*
X97904589Y-95340912D01*
X97883158Y-95341103D01*
X97836152Y-95341103D01*
X97836100Y-95577013D01*
X97836073Y-95628165D01*
X97835977Y-95674398D01*
X97835758Y-95713434D01*
X97835362Y-95746043D01*
X97834733Y-95772994D01*
X97833818Y-95795059D01*
X97832561Y-95813007D01*
X97830908Y-95827608D01*
X97828805Y-95839633D01*
X97826196Y-95849851D01*
X97823028Y-95859032D01*
X97819245Y-95867948D01*
X97814792Y-95877367D01*
X97814642Y-95877677D01*
X97795076Y-95908214D01*
X97768856Y-95934191D01*
X97737266Y-95954575D01*
X97701591Y-95968332D01*
X97700175Y-95968703D01*
X97678330Y-95972383D01*
X97650879Y-95974280D01*
X97620502Y-95974448D01*
X97589879Y-95972939D01*
X97561691Y-95969806D01*
X97538617Y-95965104D01*
X97533783Y-95963693D01*
X97508960Y-95954816D01*
X97483799Y-95943556D01*
X97461242Y-95931332D01*
X97444234Y-95919564D01*
X97430122Y-95907781D01*
X97457683Y-95862526D01*
X97465798Y-95849217D01*
X97478645Y-95828732D01*
X97488746Y-95814576D01*
X97497301Y-95806044D01*
X97505511Y-95802428D01*
X97514575Y-95803021D01*
X97525694Y-95807117D01*
X97540066Y-95814010D01*
X97559888Y-95822023D01*
X97585469Y-95826476D01*
X97608052Y-95823053D01*
X97627250Y-95811834D01*
X97642673Y-95792900D01*
X97644162Y-95790218D01*
X97645889Y-95786230D01*
X97647328Y-95781119D01*
X97648511Y-95774128D01*
X97649469Y-95764499D01*
X97650235Y-95751475D01*
X97650842Y-95734298D01*
X97651321Y-95712212D01*
X97651705Y-95684458D01*
X97652026Y-95650280D01*
X97652317Y-95608919D01*
X97652609Y-95559619D01*
X97653849Y-95341103D01*
X97553696Y-95341103D01*
X97453543Y-95341103D01*
X97453543Y-95275874D01*
X97453543Y-95210646D01*
X97553543Y-95210646D01*
X97653543Y-95210646D01*
X97653543Y-95088886D01*
X97653543Y-94967126D01*
X97705933Y-94967126D01*
X97719871Y-94967235D01*
G37*
G36*
X95722059Y-94881920D02*
G01*
X95792012Y-94890653D01*
X95858284Y-94906641D01*
X95920459Y-94929659D01*
X95978122Y-94959481D01*
X96030859Y-94995884D01*
X96078254Y-95038641D01*
X96119893Y-95087527D01*
X96155360Y-95142317D01*
X96173873Y-95179038D01*
X96196973Y-95239673D01*
X96213323Y-95303935D01*
X96222895Y-95370663D01*
X96225663Y-95438697D01*
X96221600Y-95506879D01*
X96210680Y-95574049D01*
X96192876Y-95639047D01*
X96168161Y-95700713D01*
X96157138Y-95722530D01*
X96123703Y-95775711D01*
X96083731Y-95823745D01*
X96037899Y-95866126D01*
X95986881Y-95902348D01*
X95931355Y-95931907D01*
X95871994Y-95954296D01*
X95809475Y-95969012D01*
X95796561Y-95970943D01*
X95754081Y-95974759D01*
X95707626Y-95975757D01*
X95659677Y-95974069D01*
X95612713Y-95969826D01*
X95569214Y-95963162D01*
X95531659Y-95954208D01*
X95494476Y-95941161D01*
X95440697Y-95915074D01*
X95390478Y-95881948D01*
X95345436Y-95842750D01*
X95313415Y-95810733D01*
X95329737Y-95792259D01*
X95333821Y-95787701D01*
X95346217Y-95774216D01*
X95361224Y-95758215D01*
X95376450Y-95742259D01*
X95388028Y-95730442D01*
X95399141Y-95720064D01*
X95407535Y-95714099D01*
X95414942Y-95711378D01*
X95423092Y-95710731D01*
X95431203Y-95711469D01*
X95441084Y-95714936D01*
X95453030Y-95722247D01*
X95469148Y-95734489D01*
X95484172Y-95745951D01*
X95518330Y-95767821D01*
X95553410Y-95783931D01*
X95591174Y-95794851D01*
X95633385Y-95801152D01*
X95681804Y-95803406D01*
X95699219Y-95803405D01*
X95730607Y-95802239D01*
X95757198Y-95799063D01*
X95781570Y-95793346D01*
X95806303Y-95784560D01*
X95833978Y-95772173D01*
X95845983Y-95766097D01*
X95887999Y-95738848D01*
X95924521Y-95705106D01*
X95955344Y-95665231D01*
X95980263Y-95619578D01*
X95999073Y-95568506D01*
X96011570Y-95512373D01*
X96017549Y-95451536D01*
X96018018Y-95404403D01*
X96014899Y-95362154D01*
X96007826Y-95322415D01*
X95996452Y-95282397D01*
X95986689Y-95255976D01*
X95962310Y-95206866D01*
X95932057Y-95164105D01*
X95896155Y-95127869D01*
X95854828Y-95098334D01*
X95808304Y-95075675D01*
X95756807Y-95060069D01*
X95700562Y-95051691D01*
X95687433Y-95050873D01*
X95631868Y-95052696D01*
X95577499Y-95063014D01*
X95524943Y-95081671D01*
X95474817Y-95108513D01*
X95463078Y-95115852D01*
X95442403Y-95127614D01*
X95425721Y-95134251D01*
X95411576Y-95135403D01*
X95398512Y-95130710D01*
X95385071Y-95119810D01*
X95369797Y-95102345D01*
X95351232Y-95077953D01*
X95346165Y-95071080D01*
X95333253Y-95053330D01*
X95322571Y-95038309D01*
X95315113Y-95027427D01*
X95311872Y-95022097D01*
X95311831Y-95021981D01*
X95313972Y-95015579D01*
X95322603Y-95005918D01*
X95336579Y-94993819D01*
X95354752Y-94980106D01*
X95375976Y-94965600D01*
X95399105Y-94951125D01*
X95422991Y-94937502D01*
X95446488Y-94925554D01*
X95470269Y-94915064D01*
X95515554Y-94899346D01*
X95563137Y-94888549D01*
X95614856Y-94882304D01*
X95672550Y-94880241D01*
X95722059Y-94881920D01*
G37*
G36*
X95166586Y-95044476D02*
G01*
X95166586Y-95425607D01*
X95166586Y-95492453D01*
X95166586Y-95962949D01*
X94935065Y-95962931D01*
X94900537Y-95962912D01*
X94851524Y-95962802D01*
X94809956Y-95962580D01*
X94775060Y-95962225D01*
X94746066Y-95961720D01*
X94722201Y-95961045D01*
X94702693Y-95960182D01*
X94686772Y-95959111D01*
X94673666Y-95957815D01*
X94662602Y-95956273D01*
X94626585Y-95949097D01*
X94572356Y-95932535D01*
X94523761Y-95910149D01*
X94481131Y-95882211D01*
X94444799Y-95848996D01*
X94415096Y-95810778D01*
X94392354Y-95767831D01*
X94376905Y-95720429D01*
X94372361Y-95693580D01*
X94370128Y-95661106D01*
X94370372Y-95643131D01*
X94569968Y-95643131D01*
X94571514Y-95670833D01*
X94579241Y-95705700D01*
X94593676Y-95735144D01*
X94615059Y-95759494D01*
X94643631Y-95779081D01*
X94679630Y-95794237D01*
X94683299Y-95795410D01*
X94692120Y-95797876D01*
X94701632Y-95799832D01*
X94712978Y-95801359D01*
X94727301Y-95802537D01*
X94745745Y-95803448D01*
X94769453Y-95804171D01*
X94799570Y-95804789D01*
X94837239Y-95805382D01*
X94966586Y-95807260D01*
X94966586Y-95649856D01*
X94966586Y-95492453D01*
X94835065Y-95494471D01*
X94805349Y-95494978D01*
X94769919Y-95495788D01*
X94741597Y-95496751D01*
X94719450Y-95497921D01*
X94702547Y-95499349D01*
X94689955Y-95501089D01*
X94680743Y-95503192D01*
X94654801Y-95512304D01*
X94623606Y-95529010D01*
X94599771Y-95550136D01*
X94583050Y-95575990D01*
X94573198Y-95606885D01*
X94569968Y-95643131D01*
X94370372Y-95643131D01*
X94370580Y-95627806D01*
X94373666Y-95596730D01*
X94379337Y-95570925D01*
X94383823Y-95558004D01*
X94402345Y-95521024D01*
X94427891Y-95488795D01*
X94460603Y-95461191D01*
X94500623Y-95438085D01*
X94548091Y-95419350D01*
X94583944Y-95407741D01*
X94558275Y-95396663D01*
X94517028Y-95375164D01*
X94480273Y-95348265D01*
X94449581Y-95317122D01*
X94425771Y-95282567D01*
X94409660Y-95245434D01*
X94408138Y-95240357D01*
X94403817Y-95220956D01*
X94402719Y-95210502D01*
X94602302Y-95210502D01*
X94604994Y-95234254D01*
X94613982Y-95265718D01*
X94629221Y-95291663D01*
X94651124Y-95312561D01*
X94680103Y-95328882D01*
X94716570Y-95341099D01*
X94718993Y-95341710D01*
X94730821Y-95344364D01*
X94743049Y-95346378D01*
X94757061Y-95347836D01*
X94774239Y-95348822D01*
X94795964Y-95349422D01*
X94823619Y-95349720D01*
X94858586Y-95349800D01*
X94966586Y-95349800D01*
X94966586Y-95197138D01*
X94966586Y-95044476D01*
X94850282Y-95046603D01*
X94827773Y-95047051D01*
X94791356Y-95048043D01*
X94761803Y-95049377D01*
X94737917Y-95051229D01*
X94718501Y-95053775D01*
X94702359Y-95057194D01*
X94688293Y-95061660D01*
X94675108Y-95067350D01*
X94661606Y-95074442D01*
X94644185Y-95086349D01*
X94623988Y-95108740D01*
X94610268Y-95136912D01*
X94603036Y-95170841D01*
X94602302Y-95210502D01*
X94402719Y-95210502D01*
X94401513Y-95199017D01*
X94400867Y-95171509D01*
X94401213Y-95155494D01*
X94406748Y-95106608D01*
X94419111Y-95062828D01*
X94438409Y-95024034D01*
X94464749Y-94990105D01*
X94498238Y-94960922D01*
X94538984Y-94936364D01*
X94587093Y-94916312D01*
X94642673Y-94900644D01*
X94650657Y-94898908D01*
X94659664Y-94897234D01*
X94669476Y-94895822D01*
X94680881Y-94894643D01*
X94694670Y-94893667D01*
X94711630Y-94892863D01*
X94732552Y-94892202D01*
X94758224Y-94891655D01*
X94789435Y-94891191D01*
X94826975Y-94890780D01*
X94871632Y-94890393D01*
X94924195Y-94890000D01*
X95166586Y-94888265D01*
X95166586Y-95044476D01*
G37*
G36*
X92004948Y-95201979D02*
G01*
X92031723Y-95202168D01*
X92054664Y-95202508D01*
X92072555Y-95202971D01*
X92084180Y-95203531D01*
X92088326Y-95204162D01*
X92088180Y-95204488D01*
X92084720Y-95210103D01*
X92076993Y-95222085D01*
X92065457Y-95239743D01*
X92050567Y-95262384D01*
X92032779Y-95289315D01*
X92012549Y-95319846D01*
X91990333Y-95353284D01*
X91966586Y-95388937D01*
X91960824Y-95397585D01*
X91937377Y-95432877D01*
X91915572Y-95465870D01*
X91895867Y-95495860D01*
X91878720Y-95522143D01*
X91864587Y-95544017D01*
X91853925Y-95560778D01*
X91847193Y-95571723D01*
X91844847Y-95576148D01*
X91844916Y-95576407D01*
X91848055Y-95581966D01*
X91855534Y-95593897D01*
X91866887Y-95611491D01*
X91881650Y-95634041D01*
X91899357Y-95660840D01*
X91919545Y-95691181D01*
X91941747Y-95724357D01*
X91965500Y-95759660D01*
X91968496Y-95764103D01*
X91992408Y-95799560D01*
X92014986Y-95833049D01*
X92035725Y-95863822D01*
X92054121Y-95891130D01*
X92069669Y-95914224D01*
X92081866Y-95932356D01*
X92090207Y-95944777D01*
X92094187Y-95950737D01*
X92102223Y-95962949D01*
X92010323Y-95962949D01*
X91918424Y-95962949D01*
X91901721Y-95946641D01*
X91895860Y-95939742D01*
X91885883Y-95926406D01*
X91872768Y-95907980D01*
X91857253Y-95885577D01*
X91840073Y-95860308D01*
X91821964Y-95833287D01*
X91803661Y-95805625D01*
X91785901Y-95778435D01*
X91769418Y-95752829D01*
X91754949Y-95729920D01*
X91743229Y-95710820D01*
X91734994Y-95696641D01*
X91730980Y-95688495D01*
X91730908Y-95688289D01*
X91727019Y-95679627D01*
X91723770Y-95676158D01*
X91721419Y-95679064D01*
X91714963Y-95688604D01*
X91704983Y-95703977D01*
X91692012Y-95724343D01*
X91676586Y-95748864D01*
X91659237Y-95776700D01*
X91640500Y-95807013D01*
X91624844Y-95832246D01*
X91606195Y-95861794D01*
X91588894Y-95888663D01*
X91573573Y-95911902D01*
X91560861Y-95930556D01*
X91551388Y-95943673D01*
X91545783Y-95950301D01*
X91531501Y-95962949D01*
X91431615Y-95962949D01*
X91331729Y-95962949D01*
X91413560Y-95840101D01*
X91420019Y-95830401D01*
X91442739Y-95796229D01*
X91466130Y-95760976D01*
X91489092Y-95726305D01*
X91510526Y-95693878D01*
X91529330Y-95665358D01*
X91544404Y-95642407D01*
X91593417Y-95567560D01*
X91470219Y-95388241D01*
X91465209Y-95380948D01*
X91441297Y-95346105D01*
X91418996Y-95313558D01*
X91398780Y-95284003D01*
X91381123Y-95258134D01*
X91366499Y-95236647D01*
X91355383Y-95220238D01*
X91348250Y-95209602D01*
X91345572Y-95205435D01*
X91346117Y-95205003D01*
X91353051Y-95204026D01*
X91366949Y-95203187D01*
X91386584Y-95202530D01*
X91410730Y-95202102D01*
X91438161Y-95201949D01*
X91464841Y-95201968D01*
X91489350Y-95202106D01*
X91507369Y-95202476D01*
X91520092Y-95203189D01*
X91528713Y-95204358D01*
X91534428Y-95206097D01*
X91538431Y-95208518D01*
X91541917Y-95211733D01*
X91544616Y-95215048D01*
X91552031Y-95225552D01*
X91562793Y-95241632D01*
X91576195Y-95262162D01*
X91591532Y-95286020D01*
X91608096Y-95312081D01*
X91625181Y-95339221D01*
X91642082Y-95366318D01*
X91658091Y-95392245D01*
X91672502Y-95415881D01*
X91684609Y-95436101D01*
X91693706Y-95451781D01*
X91699085Y-95461797D01*
X91708577Y-95481468D01*
X91788003Y-95351493D01*
X91803349Y-95326521D01*
X91821535Y-95297301D01*
X91838232Y-95270876D01*
X91852839Y-95248176D01*
X91864756Y-95230132D01*
X91873383Y-95217674D01*
X91878119Y-95211733D01*
X91878450Y-95211431D01*
X91882151Y-95208367D01*
X91886399Y-95206045D01*
X91892358Y-95204364D01*
X91901193Y-95203219D01*
X91914067Y-95202509D01*
X91932145Y-95202129D01*
X91956591Y-95201977D01*
X91988568Y-95201949D01*
X92004948Y-95201979D01*
G37*
G36*
X94197021Y-95039916D02*
G01*
X94197021Y-95420510D01*
X94197002Y-95481417D01*
X94196937Y-95546881D01*
X94196830Y-95609456D01*
X94196683Y-95668614D01*
X94196498Y-95723826D01*
X94196280Y-95774564D01*
X94196031Y-95820301D01*
X94195753Y-95860509D01*
X94195450Y-95894660D01*
X94195125Y-95922225D01*
X94194780Y-95942677D01*
X94194418Y-95955488D01*
X94194043Y-95960129D01*
X94192530Y-95960556D01*
X94183625Y-95961274D01*
X94167940Y-95961794D01*
X94146750Y-95962094D01*
X94121330Y-95962150D01*
X94092956Y-95961941D01*
X93994847Y-95960774D01*
X93993719Y-95750956D01*
X93992590Y-95541137D01*
X93945893Y-95541241D01*
X93938812Y-95541279D01*
X93911093Y-95542118D01*
X93890111Y-95544306D01*
X93874297Y-95548198D01*
X93862084Y-95554149D01*
X93851901Y-95562515D01*
X93851649Y-95562777D01*
X93846267Y-95569597D01*
X93836705Y-95582874D01*
X93823483Y-95601840D01*
X93807123Y-95625731D01*
X93788145Y-95653782D01*
X93767070Y-95685227D01*
X93744420Y-95719301D01*
X93720716Y-95755238D01*
X93714168Y-95765199D01*
X93686828Y-95806638D01*
X93663668Y-95841445D01*
X93644280Y-95870195D01*
X93628257Y-95893464D01*
X93615190Y-95911827D01*
X93604671Y-95925860D01*
X93596295Y-95936138D01*
X93589652Y-95943235D01*
X93584335Y-95947729D01*
X93565862Y-95960774D01*
X93461877Y-95962146D01*
X93460877Y-95962159D01*
X93424516Y-95962450D01*
X93395770Y-95962288D01*
X93374904Y-95961681D01*
X93362189Y-95960637D01*
X93357891Y-95959163D01*
X93359151Y-95956815D01*
X93364746Y-95947935D01*
X93374332Y-95933219D01*
X93387381Y-95913449D01*
X93403368Y-95889407D01*
X93421764Y-95861873D01*
X93442042Y-95831628D01*
X93463676Y-95799454D01*
X93486137Y-95766131D01*
X93508898Y-95732441D01*
X93531433Y-95699164D01*
X93553214Y-95667083D01*
X93573713Y-95636977D01*
X93592404Y-95609627D01*
X93608759Y-95585816D01*
X93622251Y-95566324D01*
X93632353Y-95551932D01*
X93638537Y-95543421D01*
X93641399Y-95539936D01*
X93653517Y-95527782D01*
X93666839Y-95517045D01*
X93684208Y-95505006D01*
X93637354Y-95482038D01*
X93621315Y-95473784D01*
X93599557Y-95461534D01*
X93580010Y-95449433D01*
X93565535Y-95439187D01*
X93561947Y-95436275D01*
X93528710Y-95403557D01*
X93500183Y-95364861D01*
X93477535Y-95322017D01*
X93461934Y-95276856D01*
X93456921Y-95249251D01*
X93454164Y-95216197D01*
X93454098Y-95210646D01*
X93651603Y-95210646D01*
X93652079Y-95232981D01*
X93653616Y-95251346D01*
X93656585Y-95266258D01*
X93661366Y-95280431D01*
X93663603Y-95285847D01*
X93682368Y-95318974D01*
X93707578Y-95346269D01*
X93739237Y-95367737D01*
X93777351Y-95383381D01*
X93821924Y-95393204D01*
X93827840Y-95393917D01*
X93845899Y-95395328D01*
X93869193Y-95396472D01*
X93895356Y-95397246D01*
X93922021Y-95397548D01*
X93992673Y-95397634D01*
X93992673Y-95218775D01*
X93992673Y-95039916D01*
X93898108Y-95042221D01*
X93866858Y-95043141D01*
X93835045Y-95044584D01*
X93810184Y-95046427D01*
X93791309Y-95048747D01*
X93777456Y-95051618D01*
X93760572Y-95056696D01*
X93727353Y-95070710D01*
X93700745Y-95088771D01*
X93679615Y-95111757D01*
X93662830Y-95140547D01*
X93658668Y-95149930D01*
X93654856Y-95161193D01*
X93652686Y-95173329D01*
X93651741Y-95188946D01*
X93651603Y-95210646D01*
X93454098Y-95210646D01*
X93453747Y-95181051D01*
X93455708Y-95146981D01*
X93460084Y-95117152D01*
X93463220Y-95103984D01*
X93479055Y-95061046D01*
X93502429Y-95021817D01*
X93532894Y-94986753D01*
X93570003Y-94956308D01*
X93613309Y-94930940D01*
X93662363Y-94911104D01*
X93669410Y-94908814D01*
X93684334Y-94904135D01*
X93698257Y-94900195D01*
X93712061Y-94896922D01*
X93726627Y-94894245D01*
X93742836Y-94892093D01*
X93761571Y-94890395D01*
X93783712Y-94889079D01*
X93810141Y-94888075D01*
X93841740Y-94887310D01*
X93879390Y-94886715D01*
X93923973Y-94886218D01*
X93976369Y-94885747D01*
X94197021Y-94883870D01*
X94197021Y-95039916D01*
G37*
G36*
X99491315Y-95197632D02*
G01*
X99516428Y-95197909D01*
X99534212Y-95198525D01*
X99545573Y-95199541D01*
X99551416Y-95201024D01*
X99552647Y-95203036D01*
X99552624Y-95203105D01*
X99550912Y-95208477D01*
X99546781Y-95221510D01*
X99540419Y-95241613D01*
X99532013Y-95268190D01*
X99521751Y-95300650D01*
X99509820Y-95338399D01*
X99496408Y-95380843D01*
X99481702Y-95427390D01*
X99465890Y-95477445D01*
X99449160Y-95530417D01*
X99431698Y-95585710D01*
X99312576Y-95962949D01*
X99232862Y-95962949D01*
X99226814Y-95962948D01*
X99200140Y-95962883D01*
X99180581Y-95962610D01*
X99166811Y-95961978D01*
X99157505Y-95960840D01*
X99151336Y-95959047D01*
X99146978Y-95956452D01*
X99143106Y-95952905D01*
X99142589Y-95952393D01*
X99140454Y-95950307D01*
X99138519Y-95948154D01*
X99136566Y-95945303D01*
X99134379Y-95941119D01*
X99131740Y-95934971D01*
X99128433Y-95926225D01*
X99124239Y-95914249D01*
X99118944Y-95898410D01*
X99112329Y-95878075D01*
X99104177Y-95852611D01*
X99094272Y-95821386D01*
X99082397Y-95783767D01*
X99068334Y-95739120D01*
X99051868Y-95686814D01*
X99047043Y-95671487D01*
X99031845Y-95623134D01*
X99018992Y-95582092D01*
X99008254Y-95547602D01*
X98999402Y-95518905D01*
X98992207Y-95495243D01*
X98986439Y-95475857D01*
X98981870Y-95459989D01*
X98978270Y-95446879D01*
X98975411Y-95435769D01*
X98973063Y-95425900D01*
X98972366Y-95423056D01*
X98970719Y-95419311D01*
X98968769Y-95421159D01*
X98965960Y-95429558D01*
X98961738Y-95445469D01*
X98960636Y-95449675D01*
X98955627Y-95467644D01*
X98948650Y-95491504D01*
X98939987Y-95520367D01*
X98929922Y-95553346D01*
X98918737Y-95589552D01*
X98906715Y-95628098D01*
X98894139Y-95668096D01*
X98881292Y-95708659D01*
X98868457Y-95748899D01*
X98855916Y-95787927D01*
X98843953Y-95824858D01*
X98832849Y-95858802D01*
X98822889Y-95888871D01*
X98814355Y-95914180D01*
X98807530Y-95933838D01*
X98802696Y-95946960D01*
X98800136Y-95952657D01*
X98791897Y-95963134D01*
X98709124Y-95961954D01*
X98626351Y-95960774D01*
X98507338Y-95584712D01*
X98506458Y-95581931D01*
X98489043Y-95526838D01*
X98472408Y-95474094D01*
X98456737Y-95424293D01*
X98442216Y-95378030D01*
X98429030Y-95335897D01*
X98417365Y-95298491D01*
X98407405Y-95266403D01*
X98399335Y-95240229D01*
X98393342Y-95220562D01*
X98389611Y-95207996D01*
X98388326Y-95203125D01*
X98388455Y-95202515D01*
X98391593Y-95200558D01*
X98399637Y-95199158D01*
X98413533Y-95198246D01*
X98434228Y-95197750D01*
X98462669Y-95197600D01*
X98490713Y-95197814D01*
X98516918Y-95198789D01*
X98536601Y-95200825D01*
X98550933Y-95204216D01*
X98561084Y-95209256D01*
X98568226Y-95216240D01*
X98573528Y-95225462D01*
X98575362Y-95230338D01*
X98579669Y-95243762D01*
X98585738Y-95263947D01*
X98593305Y-95289928D01*
X98602105Y-95320737D01*
X98611873Y-95355407D01*
X98622345Y-95392971D01*
X98633255Y-95432462D01*
X98644340Y-95472914D01*
X98655335Y-95513359D01*
X98665975Y-95552831D01*
X98675995Y-95590363D01*
X98685130Y-95624987D01*
X98693117Y-95655737D01*
X98699690Y-95681645D01*
X98704585Y-95701746D01*
X98707537Y-95715071D01*
X98717376Y-95765070D01*
X98722948Y-95741162D01*
X98725314Y-95731924D01*
X98730043Y-95714783D01*
X98736659Y-95691543D01*
X98744892Y-95663109D01*
X98754470Y-95630382D01*
X98765122Y-95594265D01*
X98776577Y-95555661D01*
X98788563Y-95515472D01*
X98800810Y-95474601D01*
X98813046Y-95433950D01*
X98825001Y-95394423D01*
X98836402Y-95356922D01*
X98846979Y-95322350D01*
X98856460Y-95291608D01*
X98864575Y-95265601D01*
X98871053Y-95245230D01*
X98875621Y-95231398D01*
X98878009Y-95225008D01*
X98880255Y-95220965D01*
X98888122Y-95211374D01*
X98899053Y-95204685D01*
X98914437Y-95200454D01*
X98935663Y-95198240D01*
X98964122Y-95197600D01*
X98992050Y-95198219D01*
X99014626Y-95200445D01*
X99031056Y-95204609D01*
X99042604Y-95211040D01*
X99050535Y-95220067D01*
X99052196Y-95224180D01*
X99056285Y-95235997D01*
X99062409Y-95254503D01*
X99070292Y-95278814D01*
X99079659Y-95308046D01*
X99090233Y-95341314D01*
X99101738Y-95377734D01*
X99113899Y-95416423D01*
X99126439Y-95456496D01*
X99139082Y-95497069D01*
X99151552Y-95537258D01*
X99163574Y-95576179D01*
X99174872Y-95612948D01*
X99185168Y-95646680D01*
X99194188Y-95676491D01*
X99201656Y-95701498D01*
X99207295Y-95720816D01*
X99210829Y-95733561D01*
X99212845Y-95740703D01*
X99216271Y-95750411D01*
X99218691Y-95754217D01*
X99219524Y-95752946D01*
X99221834Y-95745004D01*
X99224814Y-95731393D01*
X99228027Y-95713993D01*
X99228568Y-95711005D01*
X99231837Y-95695505D01*
X99236915Y-95673716D01*
X99243555Y-95646558D01*
X99251509Y-95614952D01*
X99260528Y-95579817D01*
X99270366Y-95542072D01*
X99280774Y-95502636D01*
X99291505Y-95462431D01*
X99302311Y-95422375D01*
X99312944Y-95383388D01*
X99323157Y-95346389D01*
X99332702Y-95312299D01*
X99341330Y-95282036D01*
X99348795Y-95256521D01*
X99354849Y-95236672D01*
X99359243Y-95223411D01*
X99361731Y-95217656D01*
X99366639Y-95212591D01*
X99374517Y-95207095D01*
X99384845Y-95203091D01*
X99398871Y-95200359D01*
X99417842Y-95198680D01*
X99443005Y-95197833D01*
X99475608Y-95197600D01*
X99491315Y-95197632D01*
G37*
G36*
X94716082Y-93171166D02*
G01*
X94720464Y-93207042D01*
X94722847Y-93226553D01*
X94734440Y-93321438D01*
X94745761Y-93414047D01*
X94756764Y-93504007D01*
X94767404Y-93590943D01*
X94777633Y-93674481D01*
X94787406Y-93754247D01*
X94796678Y-93829868D01*
X94805401Y-93900970D01*
X94813532Y-93967178D01*
X94821022Y-94028118D01*
X94827827Y-94083418D01*
X94833901Y-94132701D01*
X94839197Y-94175596D01*
X94843670Y-94211727D01*
X94847274Y-94240721D01*
X94849962Y-94262203D01*
X94851689Y-94275801D01*
X94852409Y-94281139D01*
X94854630Y-94293097D01*
X94661320Y-94293097D01*
X94468009Y-94293097D01*
X94440676Y-94070233D01*
X94437743Y-94046324D01*
X94430972Y-93991124D01*
X94423690Y-93931774D01*
X94416160Y-93870404D01*
X94408643Y-93809145D01*
X94401400Y-93750126D01*
X94394692Y-93695480D01*
X94388782Y-93647335D01*
X94364221Y-93447301D01*
X94268665Y-93447301D01*
X94238849Y-93447405D01*
X94204663Y-93448263D01*
X94177059Y-93450638D01*
X94154817Y-93455288D01*
X94136717Y-93462972D01*
X94121538Y-93474446D01*
X94108060Y-93490469D01*
X94095064Y-93511798D01*
X94081328Y-93539192D01*
X94065632Y-93573409D01*
X94061279Y-93583062D01*
X94051767Y-93604153D01*
X94039308Y-93631777D01*
X94024287Y-93665082D01*
X94007088Y-93703216D01*
X93988094Y-93745327D01*
X93967690Y-93790564D01*
X93946260Y-93838076D01*
X93924188Y-93887010D01*
X93901859Y-93936515D01*
X93883629Y-93976810D01*
X93862608Y-94022976D01*
X93842581Y-94066640D01*
X93823868Y-94107123D01*
X93806788Y-94143744D01*
X93791660Y-94175824D01*
X93778803Y-94202683D01*
X93768536Y-94223641D01*
X93761178Y-94238018D01*
X93757048Y-94245134D01*
X93742152Y-94261001D01*
X93716903Y-94277748D01*
X93691133Y-94290923D01*
X93494077Y-94292178D01*
X93460631Y-94292353D01*
X93422411Y-94292456D01*
X93387700Y-94292444D01*
X93357361Y-94292321D01*
X93332259Y-94292095D01*
X93313259Y-94291771D01*
X93301225Y-94291354D01*
X93297021Y-94290850D01*
X93297211Y-94290322D01*
X93300178Y-94283721D01*
X93306509Y-94270115D01*
X93315902Y-94250136D01*
X93328053Y-94224417D01*
X93342661Y-94193590D01*
X93359424Y-94158289D01*
X93378037Y-94119147D01*
X93398201Y-94076796D01*
X93419611Y-94031869D01*
X93441966Y-93985000D01*
X93464963Y-93936822D01*
X93488299Y-93887966D01*
X93511673Y-93839067D01*
X93534783Y-93790756D01*
X93557324Y-93743668D01*
X93578996Y-93698435D01*
X93599495Y-93655689D01*
X93618520Y-93616065D01*
X93635768Y-93580193D01*
X93650937Y-93548709D01*
X93663723Y-93522244D01*
X93673825Y-93501432D01*
X93680941Y-93486905D01*
X93684768Y-93479296D01*
X93696588Y-93460049D01*
X93716336Y-93434386D01*
X93739420Y-93409464D01*
X93763466Y-93388034D01*
X93784689Y-93371256D01*
X93772377Y-93366437D01*
X93771551Y-93366115D01*
X93758410Y-93361122D01*
X93744175Y-93355877D01*
X93734131Y-93352156D01*
X93666514Y-93322162D01*
X93602092Y-93285031D01*
X93541711Y-93241502D01*
X93486215Y-93192311D01*
X93436448Y-93138197D01*
X93393254Y-93079895D01*
X93357478Y-93018145D01*
X93354291Y-93011738D01*
X93325055Y-92944650D01*
X93303400Y-92877072D01*
X93289043Y-92807668D01*
X93281700Y-92735101D01*
X93281654Y-92729325D01*
X93664687Y-92729325D01*
X93666648Y-92785417D01*
X93675247Y-92845045D01*
X93691009Y-92904747D01*
X93713304Y-92958765D01*
X93742004Y-93006967D01*
X93776978Y-93049221D01*
X93818097Y-93085395D01*
X93865230Y-93115358D01*
X93918247Y-93138976D01*
X93977019Y-93156117D01*
X94041415Y-93166650D01*
X94056149Y-93167795D01*
X94078639Y-93168888D01*
X94106609Y-93169817D01*
X94138404Y-93170537D01*
X94172373Y-93171001D01*
X94206861Y-93171166D01*
X94330088Y-93171166D01*
X94290202Y-92850459D01*
X94284504Y-92804633D01*
X94278057Y-92752751D01*
X94271890Y-92703099D01*
X94266104Y-92656477D01*
X94260797Y-92613685D01*
X94256068Y-92575523D01*
X94252016Y-92542792D01*
X94248741Y-92516291D01*
X94246343Y-92496820D01*
X94244919Y-92485179D01*
X94239521Y-92440606D01*
X94116558Y-92440606D01*
X94115187Y-92440607D01*
X94059758Y-92440958D01*
X94011964Y-92442076D01*
X93970790Y-92444100D01*
X93935223Y-92447167D01*
X93904247Y-92451416D01*
X93876849Y-92456985D01*
X93852013Y-92464014D01*
X93828724Y-92472640D01*
X93805969Y-92483003D01*
X93797450Y-92487529D01*
X93770395Y-92505554D01*
X93744083Y-92527946D01*
X93721037Y-92552396D01*
X93703779Y-92576594D01*
X93698679Y-92585844D01*
X93680830Y-92628821D01*
X93669457Y-92676887D01*
X93664687Y-92729325D01*
X93281654Y-92729325D01*
X93281087Y-92658035D01*
X93281259Y-92653135D01*
X93283578Y-92611639D01*
X93287546Y-92575771D01*
X93293654Y-92542827D01*
X93302390Y-92510100D01*
X93314244Y-92474883D01*
X93327814Y-92442284D01*
X93356181Y-92391966D01*
X93391900Y-92345489D01*
X93434555Y-92303160D01*
X93483727Y-92265286D01*
X93538999Y-92232172D01*
X93599954Y-92204125D01*
X93666174Y-92181452D01*
X93737243Y-92164458D01*
X93750374Y-92162002D01*
X93768148Y-92158929D01*
X93785889Y-92156246D01*
X93804269Y-92153926D01*
X93823958Y-92151944D01*
X93845630Y-92150272D01*
X93869954Y-92148887D01*
X93897602Y-92147760D01*
X93929247Y-92146867D01*
X93965558Y-92146181D01*
X94007208Y-92145676D01*
X94054867Y-92145327D01*
X94109208Y-92145107D01*
X94170902Y-92144990D01*
X94240620Y-92144950D01*
X94590740Y-92144904D01*
X94716082Y-93171166D01*
G37*
G36*
X102109196Y-93488612D02*
G01*
X102123402Y-93505491D01*
X102116273Y-93600330D01*
X102116070Y-93603015D01*
X102113266Y-93637756D01*
X102110493Y-93665070D01*
X102107399Y-93686136D01*
X102103630Y-93702134D01*
X102098833Y-93714243D01*
X102092654Y-93723642D01*
X102084741Y-93731511D01*
X102074741Y-93739030D01*
X102070253Y-93742194D01*
X102065516Y-93745477D01*
X102060778Y-93748381D01*
X102055527Y-93750929D01*
X102049252Y-93753143D01*
X102041442Y-93755049D01*
X102031585Y-93756668D01*
X102019170Y-93758025D01*
X102003684Y-93759144D01*
X101984618Y-93760047D01*
X101961459Y-93760759D01*
X101933695Y-93761303D01*
X101900817Y-93761702D01*
X101862311Y-93761980D01*
X101817667Y-93762161D01*
X101766372Y-93762268D01*
X101707917Y-93762325D01*
X101641789Y-93762354D01*
X101567476Y-93762381D01*
X101109671Y-93762572D01*
X101112078Y-93776705D01*
X101112485Y-93779489D01*
X101113961Y-93790787D01*
X101116299Y-93809413D01*
X101119397Y-93834525D01*
X101123150Y-93865278D01*
X101127458Y-93900830D01*
X101132216Y-93940336D01*
X101137322Y-93982952D01*
X101142673Y-94027835D01*
X101145641Y-94052751D01*
X101150871Y-94096494D01*
X101155799Y-94137509D01*
X101160323Y-94174950D01*
X101164340Y-94207974D01*
X101167747Y-94235736D01*
X101170441Y-94257394D01*
X101172319Y-94272102D01*
X101173279Y-94279018D01*
X101175696Y-94293204D01*
X101013552Y-94292063D01*
X100851407Y-94290923D01*
X100824555Y-94069146D01*
X100823745Y-94062459D01*
X100818360Y-94017994D01*
X100813150Y-93974987D01*
X100808240Y-93934463D01*
X100803752Y-93897447D01*
X100799813Y-93864965D01*
X100796546Y-93838041D01*
X100794075Y-93817701D01*
X100792525Y-93804970D01*
X100787347Y-93762572D01*
X100681598Y-93762572D01*
X100674698Y-93762565D01*
X100640577Y-93762296D01*
X100611494Y-93761664D01*
X100588363Y-93760704D01*
X100572096Y-93759453D01*
X100563609Y-93757947D01*
X100562403Y-93757468D01*
X100546849Y-93748035D01*
X100531822Y-93734077D01*
X100520870Y-93718840D01*
X100519957Y-93716430D01*
X100517270Y-93705519D01*
X100513843Y-93688028D01*
X100509925Y-93665362D01*
X100505766Y-93638926D01*
X100501613Y-93610126D01*
X100499775Y-93596838D01*
X100495857Y-93568858D01*
X100492287Y-93543823D01*
X100489272Y-93523151D01*
X100487016Y-93508261D01*
X100485727Y-93500571D01*
X100483287Y-93488612D01*
X100618797Y-93488612D01*
X100754307Y-93488612D01*
X100751721Y-93472305D01*
X100751644Y-93471775D01*
X100750638Y-93464025D01*
X100748664Y-93448222D01*
X100745780Y-93424854D01*
X100742046Y-93394410D01*
X100737521Y-93357377D01*
X100732264Y-93314243D01*
X100726335Y-93265495D01*
X100719793Y-93211622D01*
X100712696Y-93153111D01*
X100705106Y-93090450D01*
X100697080Y-93024126D01*
X100688678Y-92954628D01*
X100679959Y-92882444D01*
X100670983Y-92808061D01*
X100669082Y-92792300D01*
X100660174Y-92718480D01*
X100651547Y-92647037D01*
X100645275Y-92595140D01*
X100954910Y-92595140D01*
X100955747Y-92602661D01*
X100958147Y-92615768D01*
X100961753Y-92632411D01*
X100961821Y-92632706D01*
X100966984Y-92656112D01*
X100972434Y-92682376D01*
X100977002Y-92705869D01*
X100977298Y-92707609D01*
X100978900Y-92718445D01*
X100981417Y-92736699D01*
X100984753Y-92761609D01*
X100988811Y-92792409D01*
X100993496Y-92828337D01*
X100998709Y-92868627D01*
X101004355Y-92912516D01*
X101010337Y-92959240D01*
X101016558Y-93008035D01*
X101022923Y-93058137D01*
X101029333Y-93108781D01*
X101035693Y-93159204D01*
X101041906Y-93208642D01*
X101047876Y-93256330D01*
X101053505Y-93301505D01*
X101058698Y-93343402D01*
X101063357Y-93381259D01*
X101067387Y-93414309D01*
X101070689Y-93441790D01*
X101073169Y-93462938D01*
X101074729Y-93476988D01*
X101075273Y-93483176D01*
X101075660Y-93483711D01*
X101079012Y-93484695D01*
X101086207Y-93485548D01*
X101097728Y-93486276D01*
X101114063Y-93486889D01*
X101135695Y-93487395D01*
X101163111Y-93487800D01*
X101196796Y-93488114D01*
X101237235Y-93488344D01*
X101284913Y-93488498D01*
X101340316Y-93488585D01*
X101403929Y-93488612D01*
X101732576Y-93488612D01*
X101707190Y-93459211D01*
X101697576Y-93448077D01*
X101643355Y-93385311D01*
X101589140Y-93322596D01*
X101535231Y-93260274D01*
X101481926Y-93198691D01*
X101429524Y-93138188D01*
X101378325Y-93079111D01*
X101328625Y-93021802D01*
X101280726Y-92966606D01*
X101234925Y-92913866D01*
X101191522Y-92863927D01*
X101150814Y-92817131D01*
X101113102Y-92773823D01*
X101078684Y-92734346D01*
X101047859Y-92699044D01*
X101020925Y-92668261D01*
X100998181Y-92642340D01*
X100979928Y-92621626D01*
X100966462Y-92606462D01*
X100958083Y-92597191D01*
X100955091Y-92594158D01*
X100954910Y-92595140D01*
X100645275Y-92595140D01*
X100643258Y-92578453D01*
X100635368Y-92513208D01*
X100627933Y-92451784D01*
X100621013Y-92394662D01*
X100614666Y-92342324D01*
X100608950Y-92295251D01*
X100603924Y-92253925D01*
X100599646Y-92218827D01*
X100596174Y-92190438D01*
X100593567Y-92169239D01*
X100591883Y-92155713D01*
X100591181Y-92150339D01*
X100589531Y-92140555D01*
X100763929Y-92140689D01*
X100938326Y-92140822D01*
X101516586Y-92806194D01*
X101545202Y-92839120D01*
X101601758Y-92904201D01*
X101656766Y-92967506D01*
X101709948Y-93028715D01*
X101761029Y-93087509D01*
X101809729Y-93143570D01*
X101855773Y-93196577D01*
X101898884Y-93246213D01*
X101938783Y-93292157D01*
X101975194Y-93334091D01*
X102007840Y-93371695D01*
X102036443Y-93404650D01*
X102060727Y-93432638D01*
X102080414Y-93455339D01*
X102095228Y-93472434D01*
X102104890Y-93483603D01*
X102109125Y-93488528D01*
X102109196Y-93488612D01*
G37*
G36*
X92884993Y-93478114D02*
G01*
X92895576Y-93500064D01*
X92935805Y-93583539D01*
X92974551Y-93663973D01*
X93011659Y-93741047D01*
X93046976Y-93814441D01*
X93080349Y-93883836D01*
X93111625Y-93948913D01*
X93140650Y-94009353D01*
X93167270Y-94064836D01*
X93191333Y-94115043D01*
X93212685Y-94159655D01*
X93231173Y-94198353D01*
X93246643Y-94230816D01*
X93258943Y-94256726D01*
X93267918Y-94275764D01*
X93273416Y-94287610D01*
X93275282Y-94291945D01*
X93273830Y-94293333D01*
X93268547Y-94294569D01*
X93258731Y-94295549D01*
X93243688Y-94296296D01*
X93222725Y-94296836D01*
X93195147Y-94297191D01*
X93160262Y-94297386D01*
X93117376Y-94297446D01*
X93093456Y-94297433D01*
X93052149Y-94297284D01*
X93018116Y-94296880D01*
X92990412Y-94296108D01*
X92968092Y-94294857D01*
X92950212Y-94293015D01*
X92935828Y-94290469D01*
X92923995Y-94287108D01*
X92913767Y-94282820D01*
X92904202Y-94277493D01*
X92894353Y-94271015D01*
X92891791Y-94269242D01*
X92883349Y-94263132D01*
X92875669Y-94256822D01*
X92868397Y-94249667D01*
X92861179Y-94241017D01*
X92853661Y-94230226D01*
X92845489Y-94216646D01*
X92836310Y-94199629D01*
X92825768Y-94178529D01*
X92813511Y-94152699D01*
X92799185Y-94121489D01*
X92782435Y-94084254D01*
X92762908Y-94040346D01*
X92740249Y-93989117D01*
X92638326Y-93758386D01*
X92239413Y-93758305D01*
X92231793Y-93758303D01*
X92174010Y-93758306D01*
X92118845Y-93758331D01*
X92066904Y-93758377D01*
X92018797Y-93758442D01*
X91975130Y-93758525D01*
X91936511Y-93758624D01*
X91903549Y-93758738D01*
X91876851Y-93758866D01*
X91857025Y-93759004D01*
X91844680Y-93759153D01*
X91840422Y-93759310D01*
X91840066Y-93761177D01*
X91838209Y-93770602D01*
X91834901Y-93787288D01*
X91830296Y-93810462D01*
X91824547Y-93839352D01*
X91817807Y-93873187D01*
X91810231Y-93911195D01*
X91801972Y-93952605D01*
X91793183Y-93996644D01*
X91782705Y-94049134D01*
X91773443Y-94095229D01*
X91765455Y-94134142D01*
X91758508Y-94166551D01*
X91752367Y-94193134D01*
X91746799Y-94214572D01*
X91741570Y-94231541D01*
X91736447Y-94244721D01*
X91731197Y-94254791D01*
X91725585Y-94262428D01*
X91719377Y-94268312D01*
X91712341Y-94273120D01*
X91704242Y-94277532D01*
X91694847Y-94282226D01*
X91668760Y-94295272D01*
X91501369Y-94295272D01*
X91475156Y-94295269D01*
X91437421Y-94295235D01*
X91407105Y-94295127D01*
X91383406Y-94294904D01*
X91365524Y-94294523D01*
X91352657Y-94293943D01*
X91344003Y-94293120D01*
X91338762Y-94292014D01*
X91336131Y-94290583D01*
X91335310Y-94288784D01*
X91335497Y-94286575D01*
X91335547Y-94286340D01*
X91336984Y-94280176D01*
X91340312Y-94266069D01*
X91345428Y-94244454D01*
X91352228Y-94215766D01*
X91360608Y-94180443D01*
X91370465Y-94138919D01*
X91381695Y-94091631D01*
X91394195Y-94039015D01*
X91407860Y-93981506D01*
X91422586Y-93919540D01*
X91438271Y-93853553D01*
X91454810Y-93783982D01*
X91472101Y-93711262D01*
X91490038Y-93635829D01*
X91508518Y-93558118D01*
X91526877Y-93480925D01*
X91897021Y-93480925D01*
X91899734Y-93481366D01*
X91910413Y-93481895D01*
X91928547Y-93482389D01*
X91953445Y-93482842D01*
X91984417Y-93483245D01*
X92020772Y-93483592D01*
X92061821Y-93483874D01*
X92106872Y-93484086D01*
X92155237Y-93484218D01*
X92206224Y-93484263D01*
X92253984Y-93484258D01*
X92306852Y-93484228D01*
X92352079Y-93484160D01*
X92390251Y-93484037D01*
X92421957Y-93483846D01*
X92447783Y-93483573D01*
X92468318Y-93483202D01*
X92484149Y-93482719D01*
X92495863Y-93482109D01*
X92504049Y-93481358D01*
X92509294Y-93480452D01*
X92512185Y-93479375D01*
X92513311Y-93478114D01*
X92513258Y-93476653D01*
X92513176Y-93476412D01*
X92510611Y-93470327D01*
X92504787Y-93457079D01*
X92496005Y-93437331D01*
X92484565Y-93411745D01*
X92470765Y-93380984D01*
X92454906Y-93345709D01*
X92437287Y-93306584D01*
X92418208Y-93264271D01*
X92397968Y-93219432D01*
X92376867Y-93172729D01*
X92355205Y-93124825D01*
X92333282Y-93076382D01*
X92311396Y-93028063D01*
X92289847Y-92980530D01*
X92268936Y-92934445D01*
X92248962Y-92890471D01*
X92230224Y-92849270D01*
X92213023Y-92811504D01*
X92197657Y-92777836D01*
X92184426Y-92748929D01*
X92173631Y-92725444D01*
X92165570Y-92708044D01*
X92160304Y-92696661D01*
X92146764Y-92666733D01*
X92132916Y-92635343D01*
X92120120Y-92605591D01*
X92109733Y-92580577D01*
X92086348Y-92522687D01*
X92076752Y-92580180D01*
X92075067Y-92590016D01*
X92070021Y-92617805D01*
X92063955Y-92649527D01*
X92057487Y-92681989D01*
X92051237Y-92711995D01*
X92048745Y-92723817D01*
X92044500Y-92744322D01*
X92039020Y-92771052D01*
X92032454Y-92803271D01*
X92024948Y-92840240D01*
X92016652Y-92881223D01*
X92007712Y-92925481D01*
X91998277Y-92972278D01*
X91988495Y-93020875D01*
X91978513Y-93070535D01*
X91968480Y-93120521D01*
X91958544Y-93170095D01*
X91948851Y-93218519D01*
X91939551Y-93265057D01*
X91930791Y-93308970D01*
X91922719Y-93349521D01*
X91915483Y-93385972D01*
X91909231Y-93417587D01*
X91904111Y-93443627D01*
X91900271Y-93463355D01*
X91897858Y-93476034D01*
X91897021Y-93480925D01*
X91526877Y-93480925D01*
X91527438Y-93478567D01*
X91546695Y-93397610D01*
X91566183Y-93315683D01*
X91585800Y-93233223D01*
X91605442Y-93150666D01*
X91625005Y-93068447D01*
X91644386Y-92987002D01*
X91663480Y-92906767D01*
X91682184Y-92828178D01*
X91700395Y-92751671D01*
X91718009Y-92677682D01*
X91734921Y-92606646D01*
X91751029Y-92539000D01*
X91766228Y-92475180D01*
X91780415Y-92415621D01*
X91793487Y-92360759D01*
X91805338Y-92311031D01*
X91815867Y-92266872D01*
X91824969Y-92228718D01*
X91832540Y-92197004D01*
X91838476Y-92172168D01*
X91842675Y-92154644D01*
X91845035Y-92144816D01*
X92043787Y-92145947D01*
X92242540Y-92147078D01*
X92758911Y-93216761D01*
X92767516Y-93234587D01*
X92811278Y-93325269D01*
X92854015Y-93413867D01*
X92884993Y-93478114D01*
G37*
G36*
X97066291Y-93075790D02*
G01*
X97072277Y-93124499D01*
X97083978Y-93219651D01*
X97086331Y-93238780D01*
X97097978Y-93333507D01*
X97109334Y-93425922D01*
X97120355Y-93515653D01*
X97130993Y-93602328D01*
X97141205Y-93685577D01*
X97150944Y-93765026D01*
X97160165Y-93840305D01*
X97168822Y-93911041D01*
X97176871Y-93976863D01*
X97178848Y-93993046D01*
X97184265Y-94037399D01*
X97190960Y-94092278D01*
X97196910Y-94141127D01*
X97202068Y-94183574D01*
X97206391Y-94219248D01*
X97209832Y-94247778D01*
X97212347Y-94268791D01*
X97213889Y-94281916D01*
X97214413Y-94286780D01*
X97214175Y-94287480D01*
X97212592Y-94288492D01*
X97209107Y-94289377D01*
X97203232Y-94290140D01*
X97194485Y-94290787D01*
X97182378Y-94291324D01*
X97166428Y-94291756D01*
X97146149Y-94292088D01*
X97121055Y-94292326D01*
X97090662Y-94292476D01*
X97054484Y-94292542D01*
X97012037Y-94292531D01*
X96962835Y-94292449D01*
X96906393Y-94292299D01*
X96842225Y-94292089D01*
X96769847Y-94291823D01*
X96721700Y-94291642D01*
X96653619Y-94291384D01*
X96593270Y-94291130D01*
X96540069Y-94290853D01*
X96493429Y-94290526D01*
X96452765Y-94290122D01*
X96417490Y-94289615D01*
X96387019Y-94288977D01*
X96360767Y-94288180D01*
X96338147Y-94287199D01*
X96318573Y-94286006D01*
X96301461Y-94284573D01*
X96286223Y-94282875D01*
X96272275Y-94280883D01*
X96259030Y-94278571D01*
X96245903Y-94275912D01*
X96232307Y-94272878D01*
X96217658Y-94269443D01*
X96201369Y-94265580D01*
X96157610Y-94253512D01*
X96100723Y-94233440D01*
X96043365Y-94208809D01*
X95988309Y-94180829D01*
X95938326Y-94150711D01*
X95929909Y-94144946D01*
X95900836Y-94122608D01*
X95869997Y-94095795D01*
X95839225Y-94066316D01*
X95810352Y-94035984D01*
X95785210Y-94006609D01*
X95765629Y-93980000D01*
X95755703Y-93964493D01*
X95718840Y-93897504D01*
X95690287Y-93828180D01*
X95669957Y-93756235D01*
X95657766Y-93681382D01*
X95654197Y-93614065D01*
X96035832Y-93614065D01*
X96038703Y-93663347D01*
X96047009Y-93713103D01*
X96060680Y-93761881D01*
X96079647Y-93808232D01*
X96096817Y-93839464D01*
X96126772Y-93879747D01*
X96162613Y-93913785D01*
X96204428Y-93941633D01*
X96252303Y-93963346D01*
X96306327Y-93978979D01*
X96366586Y-93988587D01*
X96372789Y-93989095D01*
X96390246Y-93989981D01*
X96414632Y-93990791D01*
X96444802Y-93991506D01*
X96479615Y-93992102D01*
X96517928Y-93992559D01*
X96558597Y-93992856D01*
X96600479Y-93992971D01*
X96793067Y-93993046D01*
X96790612Y-93978913D01*
X96790378Y-93977385D01*
X96789096Y-93967797D01*
X96786937Y-93950870D01*
X96784005Y-93927447D01*
X96780402Y-93898366D01*
X96776228Y-93864470D01*
X96771585Y-93826597D01*
X96766576Y-93785590D01*
X96761303Y-93742287D01*
X96755866Y-93697531D01*
X96750368Y-93652161D01*
X96744910Y-93607019D01*
X96739595Y-93562944D01*
X96734524Y-93520776D01*
X96729799Y-93481358D01*
X96725522Y-93445529D01*
X96721794Y-93414129D01*
X96718717Y-93388000D01*
X96716394Y-93367982D01*
X96714925Y-93354915D01*
X96714413Y-93349640D01*
X96714148Y-93349283D01*
X96707958Y-93348008D01*
X96694274Y-93346990D01*
X96674057Y-93346217D01*
X96648267Y-93345679D01*
X96617863Y-93345364D01*
X96583806Y-93345263D01*
X96547057Y-93345363D01*
X96508574Y-93345653D01*
X96469319Y-93346123D01*
X96430251Y-93346763D01*
X96392331Y-93347559D01*
X96356518Y-93348503D01*
X96323774Y-93349582D01*
X96295056Y-93350786D01*
X96271327Y-93352104D01*
X96253546Y-93353525D01*
X96242673Y-93355038D01*
X96216016Y-93361864D01*
X96184489Y-93372399D01*
X96156451Y-93384424D01*
X96134497Y-93396935D01*
X96116992Y-93410939D01*
X96096103Y-93431941D01*
X96077453Y-93454939D01*
X96063750Y-93476874D01*
X96060522Y-93483557D01*
X96046672Y-93522720D01*
X96038465Y-93566706D01*
X96035832Y-93614065D01*
X95654197Y-93614065D01*
X95653628Y-93603332D01*
X95654196Y-93576090D01*
X95660338Y-93516604D01*
X95673345Y-93462124D01*
X95693371Y-93412228D01*
X95720568Y-93366496D01*
X95755091Y-93324506D01*
X95765267Y-93314141D01*
X95793651Y-93288779D01*
X95824859Y-93266138D01*
X95860064Y-93245577D01*
X95900436Y-93226457D01*
X95947147Y-93208137D01*
X96001369Y-93189978D01*
X96001806Y-93188987D01*
X95996953Y-93185352D01*
X95986138Y-93179953D01*
X95970777Y-93173550D01*
X95937965Y-93159892D01*
X95874425Y-93127576D01*
X95816161Y-93089805D01*
X95763682Y-93047071D01*
X95717495Y-92999865D01*
X95678109Y-92948678D01*
X95646033Y-92894001D01*
X95621775Y-92836326D01*
X95618314Y-92825946D01*
X95605919Y-92782144D01*
X95597556Y-92738539D01*
X95594242Y-92706446D01*
X95983970Y-92706446D01*
X95986827Y-92755557D01*
X95994393Y-92804228D01*
X96006342Y-92850569D01*
X96022347Y-92892687D01*
X96042082Y-92928693D01*
X96048735Y-92938228D01*
X96080329Y-92974187D01*
X96118712Y-93005218D01*
X96163429Y-93031088D01*
X96214027Y-93051569D01*
X96270053Y-93066429D01*
X96331053Y-93075438D01*
X96332818Y-93075598D01*
X96349479Y-93076685D01*
X96371807Y-93077611D01*
X96398696Y-93078375D01*
X96429042Y-93078977D01*
X96461741Y-93079414D01*
X96495688Y-93079687D01*
X96529778Y-93079793D01*
X96562907Y-93079732D01*
X96593970Y-93079503D01*
X96621862Y-93079104D01*
X96645478Y-93078534D01*
X96663715Y-93077792D01*
X96675467Y-93076878D01*
X96679630Y-93075790D01*
X96679584Y-93075145D01*
X96678770Y-93067657D01*
X96677018Y-93052630D01*
X96674433Y-93030907D01*
X96671118Y-93003331D01*
X96667176Y-92970747D01*
X96662710Y-92933996D01*
X96657826Y-92893923D01*
X96652626Y-92851370D01*
X96647213Y-92807181D01*
X96641692Y-92762200D01*
X96636166Y-92717270D01*
X96630738Y-92673233D01*
X96625513Y-92630934D01*
X96620593Y-92591216D01*
X96616082Y-92554921D01*
X96612085Y-92522894D01*
X96608703Y-92495978D01*
X96606042Y-92475015D01*
X96604205Y-92460850D01*
X96603294Y-92454326D01*
X96600820Y-92439779D01*
X96408703Y-92441785D01*
X96403187Y-92441843D01*
X96357182Y-92442362D01*
X96318846Y-92442889D01*
X96287254Y-92443467D01*
X96261479Y-92444140D01*
X96240597Y-92444949D01*
X96223682Y-92445939D01*
X96209808Y-92447153D01*
X96198049Y-92448633D01*
X96187481Y-92450423D01*
X96177177Y-92452565D01*
X96156294Y-92457763D01*
X96111798Y-92473440D01*
X96074375Y-92493975D01*
X96043776Y-92519606D01*
X96019751Y-92550568D01*
X96002052Y-92587096D01*
X95990429Y-92629428D01*
X95986148Y-92658785D01*
X95983970Y-92706446D01*
X95594242Y-92706446D01*
X95592783Y-92692312D01*
X95591159Y-92640641D01*
X95591151Y-92637278D01*
X95591984Y-92593906D01*
X95594832Y-92556514D01*
X95600058Y-92522705D01*
X95608025Y-92490087D01*
X95619096Y-92456263D01*
X95638400Y-92411623D01*
X95668231Y-92362345D01*
X95705195Y-92317762D01*
X95749101Y-92278022D01*
X95799757Y-92243274D01*
X95856970Y-92213665D01*
X95920550Y-92189344D01*
X95990302Y-92170458D01*
X96001929Y-92167884D01*
X96017451Y-92164502D01*
X96031901Y-92161519D01*
X96045888Y-92158907D01*
X96060024Y-92156640D01*
X96074918Y-92154690D01*
X96091182Y-92153030D01*
X96109426Y-92151632D01*
X96130259Y-92150469D01*
X96154294Y-92149514D01*
X96182140Y-92148740D01*
X96214408Y-92148118D01*
X96251708Y-92147622D01*
X96294652Y-92147225D01*
X96343848Y-92146898D01*
X96399909Y-92146616D01*
X96463444Y-92146349D01*
X96535065Y-92146072D01*
X96596099Y-92145843D01*
X96658757Y-92145626D01*
X96713667Y-92145467D01*
X96761338Y-92145373D01*
X96802278Y-92145351D01*
X96836993Y-92145408D01*
X96865993Y-92145551D01*
X96889784Y-92145786D01*
X96908874Y-92146122D01*
X96923772Y-92146564D01*
X96934984Y-92147121D01*
X96943019Y-92147799D01*
X96948385Y-92148604D01*
X96951589Y-92149545D01*
X96953139Y-92150628D01*
X96953543Y-92151860D01*
X96953564Y-92152162D01*
X96954293Y-92158753D01*
X96956032Y-92173529D01*
X96958734Y-92196120D01*
X96962354Y-92226152D01*
X96966846Y-92263255D01*
X96972166Y-92307055D01*
X96978267Y-92357181D01*
X96985105Y-92413261D01*
X96992634Y-92474922D01*
X97000807Y-92541792D01*
X97009581Y-92613500D01*
X97018910Y-92689674D01*
X97028747Y-92769941D01*
X97039048Y-92853929D01*
X97049767Y-92941266D01*
X97060858Y-93031580D01*
X97066291Y-93075790D01*
G37*
G36*
X97522021Y-92141463D02*
G01*
X97703543Y-92142729D01*
X97723515Y-92154472D01*
X97729938Y-92158609D01*
X97743890Y-92169656D01*
X97754363Y-92180564D01*
X97755712Y-92182469D01*
X97762077Y-92192233D01*
X97772512Y-92208796D01*
X97786734Y-92231686D01*
X97804458Y-92260433D01*
X97825399Y-92294563D01*
X97849273Y-92333608D01*
X97875796Y-92377093D01*
X97904682Y-92424549D01*
X97935648Y-92475504D01*
X97968409Y-92529486D01*
X98002681Y-92586024D01*
X98038178Y-92644646D01*
X98074617Y-92704881D01*
X98111712Y-92766258D01*
X98149181Y-92828305D01*
X98186737Y-92890551D01*
X98224096Y-92952524D01*
X98260975Y-93013752D01*
X98297088Y-93073765D01*
X98332151Y-93132091D01*
X98365879Y-93188258D01*
X98397989Y-93241796D01*
X98428195Y-93292231D01*
X98456212Y-93339094D01*
X98481758Y-93381913D01*
X98504546Y-93420216D01*
X98524293Y-93453531D01*
X98540714Y-93481388D01*
X98553525Y-93503315D01*
X98562440Y-93518841D01*
X98567176Y-93527493D01*
X98572893Y-93538633D01*
X98582577Y-93556544D01*
X98590587Y-93570133D01*
X98596218Y-93578233D01*
X98598761Y-93579676D01*
X98600504Y-93573676D01*
X98603981Y-93560956D01*
X98608633Y-93543558D01*
X98613940Y-93523401D01*
X98615082Y-93519033D01*
X98617218Y-93510909D01*
X98619332Y-93503049D01*
X98621565Y-93495051D01*
X98624060Y-93486512D01*
X98626958Y-93477030D01*
X98630400Y-93466203D01*
X98634529Y-93453629D01*
X98639486Y-93438906D01*
X98645412Y-93421633D01*
X98652449Y-93401406D01*
X98660740Y-93377823D01*
X98670425Y-93350483D01*
X98681646Y-93318984D01*
X98694545Y-93282923D01*
X98709263Y-93241899D01*
X98725943Y-93195509D01*
X98744725Y-93143351D01*
X98765752Y-93085023D01*
X98789164Y-93020123D01*
X98815105Y-92948248D01*
X98843715Y-92868998D01*
X98875136Y-92781969D01*
X98898296Y-92717902D01*
X98922683Y-92650611D01*
X98946222Y-92585834D01*
X98968740Y-92524043D01*
X98990061Y-92465713D01*
X99010012Y-92411314D01*
X99028417Y-92361319D01*
X99045103Y-92316202D01*
X99059895Y-92276434D01*
X99072619Y-92242488D01*
X99083100Y-92214837D01*
X99091164Y-92193953D01*
X99096637Y-92180309D01*
X99099344Y-92174378D01*
X99104042Y-92167320D01*
X99108724Y-92161127D01*
X99113947Y-92156068D01*
X99120527Y-92152021D01*
X99129278Y-92148864D01*
X99141017Y-92146475D01*
X99156559Y-92144733D01*
X99176718Y-92143516D01*
X99202312Y-92142702D01*
X99234154Y-92142170D01*
X99273061Y-92141797D01*
X99319847Y-92141463D01*
X99340622Y-92141321D01*
X99381569Y-92141076D01*
X99414934Y-92140957D01*
X99441487Y-92140990D01*
X99461999Y-92141203D01*
X99477240Y-92141621D01*
X99487982Y-92142272D01*
X99494995Y-92143182D01*
X99499050Y-92144378D01*
X99500918Y-92145885D01*
X99501369Y-92147732D01*
X99501393Y-92148073D01*
X99502137Y-92154802D01*
X99503887Y-92169712D01*
X99506599Y-92192432D01*
X99510227Y-92222588D01*
X99514725Y-92259810D01*
X99520049Y-92303726D01*
X99526152Y-92353964D01*
X99532991Y-92410151D01*
X99540518Y-92471917D01*
X99548690Y-92538889D01*
X99557460Y-92610696D01*
X99566783Y-92686965D01*
X99576615Y-92767326D01*
X99586909Y-92851405D01*
X99597620Y-92938832D01*
X99608703Y-93029234D01*
X99620113Y-93122239D01*
X99631804Y-93217477D01*
X99634335Y-93238090D01*
X99645969Y-93332868D01*
X99657311Y-93425328D01*
X99668317Y-93515100D01*
X99678942Y-93601812D01*
X99689140Y-93685092D01*
X99698866Y-93764569D01*
X99708074Y-93839871D01*
X99716719Y-93910628D01*
X99724756Y-93976467D01*
X99732139Y-94037017D01*
X99738823Y-94091907D01*
X99744764Y-94140765D01*
X99749914Y-94183220D01*
X99754230Y-94218900D01*
X99757666Y-94247433D01*
X99760176Y-94268449D01*
X99761715Y-94281576D01*
X99762239Y-94286442D01*
X99762005Y-94287480D01*
X99760190Y-94288997D01*
X99755916Y-94290202D01*
X99748405Y-94291121D01*
X99736876Y-94291780D01*
X99720549Y-94292203D01*
X99698646Y-94292417D01*
X99670387Y-94292448D01*
X99634992Y-94292320D01*
X99591681Y-94292061D01*
X99421124Y-94290923D01*
X99335266Y-93579932D01*
X99327056Y-93511812D01*
X99316478Y-93423597D01*
X99306478Y-93339700D01*
X99297098Y-93260482D01*
X99288378Y-93186300D01*
X99280362Y-93117515D01*
X99273088Y-93054486D01*
X99266599Y-92997572D01*
X99260935Y-92947133D01*
X99256139Y-92903528D01*
X99252250Y-92867116D01*
X99249311Y-92838257D01*
X99247362Y-92817310D01*
X99246445Y-92804634D01*
X99245915Y-92793984D01*
X99244595Y-92772576D01*
X99243172Y-92755151D01*
X99241785Y-92743279D01*
X99240574Y-92738529D01*
X99240500Y-92738577D01*
X99238326Y-92743468D01*
X99233395Y-92756033D01*
X99225873Y-92775823D01*
X99215922Y-92802390D01*
X99203709Y-92835284D01*
X99189397Y-92874057D01*
X99173151Y-92918261D01*
X99155136Y-92967446D01*
X99135517Y-93021165D01*
X99114458Y-93078969D01*
X99092123Y-93140409D01*
X99068678Y-93205036D01*
X99044287Y-93272402D01*
X99019114Y-93342059D01*
X99017049Y-93347779D01*
X98991767Y-93417703D01*
X98967175Y-93485552D01*
X98943446Y-93550855D01*
X98920754Y-93613144D01*
X98899271Y-93671947D01*
X98879170Y-93726795D01*
X98860625Y-93777219D01*
X98843809Y-93822747D01*
X98828895Y-93862910D01*
X98816056Y-93897239D01*
X98805466Y-93925262D01*
X98797297Y-93946511D01*
X98791723Y-93960515D01*
X98788916Y-93966805D01*
X98783401Y-93974979D01*
X98765916Y-93993932D01*
X98745138Y-94009523D01*
X98724085Y-94019309D01*
X98714258Y-94021627D01*
X98692834Y-94024581D01*
X98667346Y-94026376D01*
X98640640Y-94026915D01*
X98615559Y-94026097D01*
X98594949Y-94023823D01*
X98585418Y-94021992D01*
X98554070Y-94012639D01*
X98527608Y-93998389D01*
X98503543Y-93977994D01*
X98503242Y-93977685D01*
X98499082Y-93972700D01*
X98493035Y-93964403D01*
X98484931Y-93952518D01*
X98474599Y-93936766D01*
X98461870Y-93916870D01*
X98446571Y-93892553D01*
X98428534Y-93863536D01*
X98407587Y-93829542D01*
X98383560Y-93790294D01*
X98356282Y-93745513D01*
X98325583Y-93694923D01*
X98291292Y-93638245D01*
X98253239Y-93575203D01*
X98211253Y-93505518D01*
X98165164Y-93428912D01*
X98114801Y-93345109D01*
X98079955Y-93287105D01*
X98040758Y-93221875D01*
X98002962Y-93158995D01*
X97966804Y-93098857D01*
X97932520Y-93041854D01*
X97900347Y-92988378D01*
X97870522Y-92938823D01*
X97843281Y-92893582D01*
X97818860Y-92853047D01*
X97797496Y-92817611D01*
X97779426Y-92787667D01*
X97764886Y-92763608D01*
X97754113Y-92745826D01*
X97747343Y-92734716D01*
X97744813Y-92730668D01*
X97744484Y-92730972D01*
X97744945Y-92737217D01*
X97746824Y-92749955D01*
X97749904Y-92767802D01*
X97753970Y-92789374D01*
X97755311Y-92797185D01*
X97757938Y-92814635D01*
X97761499Y-92839828D01*
X97765927Y-92872260D01*
X97771158Y-92911426D01*
X97777128Y-92956823D01*
X97783771Y-93007946D01*
X97791023Y-93064290D01*
X97798819Y-93125352D01*
X97807093Y-93190626D01*
X97815781Y-93259609D01*
X97824819Y-93331796D01*
X97834141Y-93406682D01*
X97843682Y-93483764D01*
X97853378Y-93562538D01*
X97861890Y-93631844D01*
X97871212Y-93707665D01*
X97880217Y-93780814D01*
X97888848Y-93850833D01*
X97897048Y-93917263D01*
X97904761Y-93979646D01*
X97911928Y-94037524D01*
X97918494Y-94090437D01*
X97924401Y-94137928D01*
X97929593Y-94179537D01*
X97934013Y-94214806D01*
X97937603Y-94243277D01*
X97940307Y-94264491D01*
X97942068Y-94277989D01*
X97942829Y-94283313D01*
X97945013Y-94293097D01*
X97773191Y-94293097D01*
X97763895Y-94293095D01*
X97718227Y-94292983D01*
X97680750Y-94292698D01*
X97651040Y-94292228D01*
X97628672Y-94291560D01*
X97613220Y-94290684D01*
X97604261Y-94289587D01*
X97601369Y-94288257D01*
X97601344Y-94287955D01*
X97600595Y-94281425D01*
X97598840Y-94266715D01*
X97596125Y-94244194D01*
X97592495Y-94214234D01*
X97587994Y-94177206D01*
X97582669Y-94133478D01*
X97576565Y-94083423D01*
X97569726Y-94027411D01*
X97562199Y-93965813D01*
X97554029Y-93898998D01*
X97545260Y-93827338D01*
X97535938Y-93751203D01*
X97526109Y-93670964D01*
X97515817Y-93586992D01*
X97505109Y-93499656D01*
X97494029Y-93409327D01*
X97482622Y-93316377D01*
X97470934Y-93221175D01*
X97468457Y-93201000D01*
X97456820Y-93106171D01*
X97445473Y-93013639D01*
X97434462Y-92923776D01*
X97423833Y-92836955D01*
X97413631Y-92753548D01*
X97403902Y-92673929D01*
X97394690Y-92598470D01*
X97386041Y-92527544D01*
X97378000Y-92461523D01*
X97370614Y-92400780D01*
X97363926Y-92345688D01*
X97357983Y-92296619D01*
X97352830Y-92253946D01*
X97348512Y-92218042D01*
X97345075Y-92189279D01*
X97342563Y-92168030D01*
X97341023Y-92154668D01*
X97340500Y-92149565D01*
X97340500Y-92140196D01*
X97522021Y-92141463D01*
G37*
G36*
X88917673Y-92141463D02*
G01*
X89099195Y-92142729D01*
X89119167Y-92154472D01*
X89125590Y-92158609D01*
X89139542Y-92169656D01*
X89150015Y-92180564D01*
X89151364Y-92182469D01*
X89157729Y-92192233D01*
X89168164Y-92208796D01*
X89182386Y-92231686D01*
X89200110Y-92260433D01*
X89221051Y-92294563D01*
X89244925Y-92333608D01*
X89271448Y-92377093D01*
X89300335Y-92424549D01*
X89331301Y-92475504D01*
X89364061Y-92529486D01*
X89398333Y-92586024D01*
X89433830Y-92644646D01*
X89470269Y-92704881D01*
X89507365Y-92766258D01*
X89544833Y-92828305D01*
X89582389Y-92890551D01*
X89619748Y-92952524D01*
X89656627Y-93013752D01*
X89692740Y-93073765D01*
X89727803Y-93132091D01*
X89761531Y-93188258D01*
X89793641Y-93241796D01*
X89823847Y-93292231D01*
X89851865Y-93339094D01*
X89877410Y-93381913D01*
X89900199Y-93420216D01*
X89919945Y-93453531D01*
X89936366Y-93481388D01*
X89949177Y-93503315D01*
X89958092Y-93518841D01*
X89962828Y-93527493D01*
X89968546Y-93538633D01*
X89978229Y-93556544D01*
X89986239Y-93570133D01*
X89991870Y-93578233D01*
X89994413Y-93579676D01*
X89996156Y-93573676D01*
X89999633Y-93560956D01*
X90004285Y-93543558D01*
X90009593Y-93523401D01*
X90010734Y-93519033D01*
X90012870Y-93510909D01*
X90014984Y-93503049D01*
X90017218Y-93495051D01*
X90019712Y-93486512D01*
X90022610Y-93477030D01*
X90026053Y-93466203D01*
X90030181Y-93453629D01*
X90035138Y-93438906D01*
X90041064Y-93421633D01*
X90048102Y-93401406D01*
X90056392Y-93377823D01*
X90066077Y-93350483D01*
X90077298Y-93318984D01*
X90090197Y-93282923D01*
X90104915Y-93241899D01*
X90121595Y-93195509D01*
X90140377Y-93143351D01*
X90161404Y-93085023D01*
X90184817Y-93020123D01*
X90210757Y-92948248D01*
X90239367Y-92868998D01*
X90270788Y-92781969D01*
X90293948Y-92717902D01*
X90318335Y-92650611D01*
X90341874Y-92585834D01*
X90364392Y-92524043D01*
X90385713Y-92465713D01*
X90405664Y-92411314D01*
X90424069Y-92361319D01*
X90440755Y-92316202D01*
X90455547Y-92276434D01*
X90468271Y-92242488D01*
X90478752Y-92214837D01*
X90486816Y-92193953D01*
X90492289Y-92180309D01*
X90494996Y-92174378D01*
X90499694Y-92167320D01*
X90504376Y-92161127D01*
X90509599Y-92156068D01*
X90516179Y-92152021D01*
X90524930Y-92148864D01*
X90536669Y-92146475D01*
X90552211Y-92144733D01*
X90572371Y-92143516D01*
X90597964Y-92142702D01*
X90629806Y-92142170D01*
X90668713Y-92141797D01*
X90715500Y-92141463D01*
X90736274Y-92141321D01*
X90777222Y-92141076D01*
X90810586Y-92140957D01*
X90837139Y-92140990D01*
X90857651Y-92141203D01*
X90872893Y-92141621D01*
X90883634Y-92142272D01*
X90890647Y-92143182D01*
X90894702Y-92144378D01*
X90896570Y-92145885D01*
X90897021Y-92147732D01*
X90897045Y-92148073D01*
X90897789Y-92154802D01*
X90899540Y-92169712D01*
X90902251Y-92192432D01*
X90905879Y-92222588D01*
X90910377Y-92259810D01*
X90915701Y-92303726D01*
X90921805Y-92353964D01*
X90928643Y-92410151D01*
X90936170Y-92471917D01*
X90944342Y-92538889D01*
X90953112Y-92610696D01*
X90962436Y-92686965D01*
X90972267Y-92767326D01*
X90982561Y-92851405D01*
X90993272Y-92938832D01*
X91004355Y-93029234D01*
X91015765Y-93122239D01*
X91027456Y-93217477D01*
X91029987Y-93238090D01*
X91041621Y-93332868D01*
X91052963Y-93425328D01*
X91063970Y-93515100D01*
X91074594Y-93601812D01*
X91084792Y-93685092D01*
X91094518Y-93764569D01*
X91103726Y-93839871D01*
X91112371Y-93910628D01*
X91120408Y-93976467D01*
X91127791Y-94037017D01*
X91134476Y-94091907D01*
X91140416Y-94140765D01*
X91145567Y-94183220D01*
X91149882Y-94218900D01*
X91153318Y-94247433D01*
X91155828Y-94268449D01*
X91157368Y-94281576D01*
X91157891Y-94286442D01*
X91157657Y-94287480D01*
X91155842Y-94288997D01*
X91151569Y-94290202D01*
X91144057Y-94291121D01*
X91132528Y-94291780D01*
X91116202Y-94292203D01*
X91094299Y-94292417D01*
X91066039Y-94292448D01*
X91030644Y-94292320D01*
X90987334Y-94292061D01*
X90816776Y-94290923D01*
X90730918Y-93579932D01*
X90722709Y-93511812D01*
X90712130Y-93423597D01*
X90702130Y-93339700D01*
X90692750Y-93260482D01*
X90684031Y-93186300D01*
X90676014Y-93117515D01*
X90668740Y-93054486D01*
X90662251Y-92997572D01*
X90656588Y-92947133D01*
X90651791Y-92903528D01*
X90647903Y-92867116D01*
X90644963Y-92838257D01*
X90643014Y-92817310D01*
X90642097Y-92804634D01*
X90641567Y-92793984D01*
X90640247Y-92772576D01*
X90638824Y-92755151D01*
X90637437Y-92743279D01*
X90636226Y-92738529D01*
X90636152Y-92738577D01*
X90633978Y-92743468D01*
X90629048Y-92756033D01*
X90621525Y-92775823D01*
X90611574Y-92802390D01*
X90599361Y-92835284D01*
X90585049Y-92874057D01*
X90568803Y-92918261D01*
X90550789Y-92967446D01*
X90531169Y-93021165D01*
X90510110Y-93078969D01*
X90487776Y-93140409D01*
X90464330Y-93205036D01*
X90439939Y-93272402D01*
X90414766Y-93342059D01*
X90412701Y-93347779D01*
X90387419Y-93417703D01*
X90362827Y-93485552D01*
X90339098Y-93550855D01*
X90316406Y-93613144D01*
X90294923Y-93671947D01*
X90274822Y-93726795D01*
X90256277Y-93777219D01*
X90239461Y-93822747D01*
X90224547Y-93862910D01*
X90211708Y-93897239D01*
X90201118Y-93925262D01*
X90192949Y-93946511D01*
X90187375Y-93960515D01*
X90184568Y-93966805D01*
X90179053Y-93974979D01*
X90161569Y-93993932D01*
X90140790Y-94009523D01*
X90119738Y-94019309D01*
X90109910Y-94021627D01*
X90088486Y-94024581D01*
X90062999Y-94026376D01*
X90036292Y-94026915D01*
X90011211Y-94026097D01*
X89990601Y-94023823D01*
X89981070Y-94021992D01*
X89949722Y-94012639D01*
X89923260Y-93998389D01*
X89899195Y-93977994D01*
X89898894Y-93977685D01*
X89894734Y-93972700D01*
X89888687Y-93964403D01*
X89880583Y-93952518D01*
X89870252Y-93936766D01*
X89857522Y-93916870D01*
X89842224Y-93892553D01*
X89824186Y-93863536D01*
X89803239Y-93829542D01*
X89779212Y-93790294D01*
X89751934Y-93745513D01*
X89721235Y-93694923D01*
X89686944Y-93638245D01*
X89648891Y-93575203D01*
X89606905Y-93505518D01*
X89560816Y-93428912D01*
X89510453Y-93345109D01*
X89475607Y-93287105D01*
X89436410Y-93221875D01*
X89398614Y-93158995D01*
X89362456Y-93098857D01*
X89328172Y-93041854D01*
X89296000Y-92988378D01*
X89266174Y-92938823D01*
X89238933Y-92893582D01*
X89214512Y-92853047D01*
X89193148Y-92817611D01*
X89175078Y-92787667D01*
X89160538Y-92763608D01*
X89149765Y-92745826D01*
X89142995Y-92734716D01*
X89140465Y-92730668D01*
X89140136Y-92730972D01*
X89140597Y-92737217D01*
X89142476Y-92749955D01*
X89145556Y-92767802D01*
X89149622Y-92789374D01*
X89150963Y-92797185D01*
X89153590Y-92814635D01*
X89157151Y-92839828D01*
X89161579Y-92872260D01*
X89166811Y-92911426D01*
X89172780Y-92956823D01*
X89179424Y-93007946D01*
X89186675Y-93064290D01*
X89194471Y-93125352D01*
X89202745Y-93190626D01*
X89211434Y-93259609D01*
X89220471Y-93331796D01*
X89229793Y-93406682D01*
X89239334Y-93483764D01*
X89249031Y-93562538D01*
X89257542Y-93631844D01*
X89266864Y-93707665D01*
X89275869Y-93780814D01*
X89284500Y-93850833D01*
X89292700Y-93917263D01*
X89300413Y-93979646D01*
X89307580Y-94037524D01*
X89314146Y-94090437D01*
X89320054Y-94137928D01*
X89325246Y-94179537D01*
X89329665Y-94214806D01*
X89333255Y-94243277D01*
X89335959Y-94264491D01*
X89337720Y-94277989D01*
X89338481Y-94283313D01*
X89340665Y-94293097D01*
X89168843Y-94293097D01*
X89159547Y-94293095D01*
X89113879Y-94292983D01*
X89076402Y-94292698D01*
X89046692Y-94292228D01*
X89024324Y-94291560D01*
X89008873Y-94290684D01*
X88999913Y-94289587D01*
X88997021Y-94288257D01*
X88996996Y-94287955D01*
X88996247Y-94281425D01*
X88994493Y-94266715D01*
X88991777Y-94244194D01*
X88988147Y-94214234D01*
X88983646Y-94177206D01*
X88978321Y-94133478D01*
X88972217Y-94083423D01*
X88965379Y-94027411D01*
X88957851Y-93965813D01*
X88949681Y-93898998D01*
X88940912Y-93827338D01*
X88931590Y-93751203D01*
X88921761Y-93670964D01*
X88911469Y-93586992D01*
X88900761Y-93499656D01*
X88889681Y-93409327D01*
X88878274Y-93316377D01*
X88866586Y-93221175D01*
X88864109Y-93201000D01*
X88852472Y-93106171D01*
X88841125Y-93013639D01*
X88830114Y-92923776D01*
X88819485Y-92836955D01*
X88809283Y-92753548D01*
X88799554Y-92673929D01*
X88790342Y-92598470D01*
X88781693Y-92527544D01*
X88773652Y-92461523D01*
X88766266Y-92400780D01*
X88759578Y-92345688D01*
X88753635Y-92296619D01*
X88748482Y-92253946D01*
X88744164Y-92218042D01*
X88740727Y-92189279D01*
X88738215Y-92168030D01*
X88736675Y-92154668D01*
X88736152Y-92149565D01*
X88736152Y-92140196D01*
X88917673Y-92141463D01*
G37*
%LPC*%
D11*
X83820000Y-98806000D03*
D12*
X83820000Y-100076000D03*
D11*
X86360000Y-98806000D03*
D12*
X86360000Y-100076000D03*
D11*
X88900000Y-98806000D03*
D12*
X88900000Y-100076000D03*
D11*
X91440000Y-98806000D03*
D12*
X91440000Y-100076000D03*
D11*
X93980000Y-98806000D03*
D12*
X93980000Y-100076000D03*
D11*
X96520000Y-98806000D03*
D12*
X96520000Y-100076000D03*
D11*
X99060000Y-98806000D03*
D12*
X99060000Y-100076000D03*
D11*
X101600000Y-98806000D03*
D12*
X101600000Y-100076000D03*
D11*
X104140000Y-98806000D03*
D12*
X104140000Y-100076000D03*
D11*
X106680000Y-98806000D03*
D12*
X106680000Y-100076000D03*
D11*
X109220000Y-98806000D03*
D12*
X109220000Y-100076000D03*
D11*
X111760000Y-98806000D03*
D12*
X111760000Y-100076000D03*
D11*
X114300000Y-98806000D03*
D12*
X114300000Y-100076000D03*
D11*
X116840000Y-98806000D03*
D12*
X116840000Y-100076000D03*
D11*
X119380000Y-98806000D03*
D12*
X119380000Y-100076000D03*
D11*
X121920000Y-98806000D03*
D12*
X121920000Y-100076000D03*
D11*
X124460000Y-98806000D03*
D12*
X124460000Y-100076000D03*
D11*
X127000000Y-98806000D03*
D12*
X127000000Y-100076000D03*
D11*
X129540000Y-98806000D03*
D12*
X129540000Y-100076000D03*
D11*
X132080000Y-98806000D03*
D12*
X132080000Y-100076000D03*
D11*
X134620000Y-98806000D03*
D12*
X134620000Y-100076000D03*
D11*
X137160000Y-98806000D03*
D12*
X137160000Y-100076000D03*
D11*
X139700000Y-98806000D03*
D12*
X139700000Y-100076000D03*
D11*
X142240000Y-98806000D03*
D12*
X142240000Y-100076000D03*
D11*
X144780000Y-98806000D03*
D12*
X144780000Y-100076000D03*
D11*
X147320000Y-98806000D03*
D12*
X147320000Y-100076000D03*
D11*
X149860000Y-98806000D03*
D12*
X149860000Y-100076000D03*
D11*
X152400000Y-98806000D03*
D12*
X152400000Y-100076000D03*
D11*
X154940000Y-98806000D03*
D12*
X154940000Y-100076000D03*
D11*
X157480000Y-98806000D03*
D12*
X157480000Y-100076000D03*
M02*
