M48
; DRILL file {KiCad (5.1.10-1-10_14)} date Wednesday, July 28, 2021 at 03:37:36 PM
; FORMAT={-:-/ absolute / inch / decimal}
; #@! TF.CreationDate,2021-07-28T15:37:36-04:00
; #@! TF.GenerationSoftware,Kicad,Pcbnew,(5.1.10-1-10_14)
FMAT,2
INCH
T1C0.0079
T2C0.0118
T3C0.0157
T4C0.0197
%
G90
G05
T1
X3.035Y-3.425
X3.035Y-3.6
X3.035Y-3.715
X3.0425Y-3.2425
X3.11Y-3.73
X3.115Y-3.965
X3.145Y-3.335
X3.145Y-3.515
X3.185Y-3.85
X3.235Y-3.235
X3.3248Y-3.3268
X3.3248Y-3.4055
X3.435Y-3.235
X3.45Y-3.545
X3.48Y-3.8025
X3.5Y-3.545
X3.52Y-3.82
X3.55Y-3.545
X3.6Y-3.48
X3.62Y-3.53
X3.635Y-3.235
X3.65Y-3.8
X3.7Y-3.48
X3.75Y-3.53
X3.8Y-3.48
X3.8Y-3.58
X3.835Y-3.235
X3.85Y-3.48
X3.85Y-3.58
X3.85Y-3.87
X3.9Y-3.48
X3.9Y-3.58
X3.935Y-3.855
X3.95Y-3.48
X3.95Y-3.58
X4.0Y-3.48
X4.0Y-3.58
X4.035Y-3.235
X4.045Y-3.855
X4.095Y-3.52
X4.155Y-3.5437
X4.235Y-3.235
X4.25Y-3.87
X4.335Y-3.855
X4.355Y-3.545
X4.38Y-3.84
X4.435Y-3.235
X4.625Y-3.58
X4.635Y-3.235
X4.635Y-3.855
X4.64Y-3.2875
X4.645Y-3.5225
X4.675Y-3.58
X4.725Y-3.48
X4.82Y-3.84
X4.825Y-3.48
X4.825Y-3.58
X4.865Y-3.235
X4.875Y-3.48
X4.875Y-3.58
X4.925Y-3.48
X4.925Y-3.58
X4.975Y-3.48
X4.975Y-3.58
X5.025Y-3.48
X5.025Y-3.58
X5.05Y-3.87
X5.065Y-3.235
X5.2175Y-3.6325
X5.2175Y-3.71
X5.25Y-3.87
X5.265Y-3.235
X5.34Y-3.335
X5.465Y-3.235
X5.5Y-3.58
X5.55Y-3.77
X5.6Y-3.77
X5.635Y-3.795
X5.65Y-3.87
X5.665Y-3.235
X5.675Y-3.835
X5.7Y-3.48
X5.7Y-3.58
X5.865Y-3.235
X5.9Y-3.48
X5.9Y-3.58
X5.95Y-3.48
X5.95Y-3.58
X6.0Y-3.48
X6.0Y-3.58
X6.05Y-3.48
X6.05Y-3.58
X6.065Y-3.235
X6.1Y-3.48
X6.165Y-3.335
X6.165Y-3.535
X6.245Y-3.785
X6.265Y-3.235
X6.265Y-3.435
X6.35Y-3.335
X6.35Y-3.515
X6.35Y-3.695
X6.35Y-3.88
X6.4575Y-3.2425
X6.465Y-3.425
X6.465Y-3.605
X6.465Y-3.785
X6.465Y-3.965
T2
X3.45Y-3.3275
X3.45Y-3.4825
X3.45Y-3.5775
X3.45Y-3.7325
X4.05Y-3.2925
X4.05Y-3.5775
X4.0775Y-3.655
X4.15Y-3.6
X4.15Y-3.7425
X4.195Y-3.645
X4.195Y-3.6975
X4.33Y-3.645
X4.33Y-3.6975
X4.375Y-3.6
X4.375Y-3.7425
X4.42Y-3.705
X4.475Y-3.3025
X4.475Y-3.5775
X4.475Y-3.7325
X5.075Y-3.3275
X5.075Y-3.4825
X5.075Y-3.5775
X5.1025Y-3.405
X5.1275Y-3.7025
X5.1825Y-3.7425
X5.5Y-3.2925
X5.5Y-3.5225
X6.1Y-3.5775
X6.1Y-3.7325
T3
X3.3Y-3.64
X3.3Y-3.705
X3.3Y-3.89
X3.35Y-3.595
X3.35Y-3.75
X3.4Y-3.89
X3.5Y-3.89
X3.6Y-3.89
X3.7Y-3.89
X3.8Y-3.89
X3.9Y-3.89
X4.0Y-3.89
X4.1Y-3.89
X4.2Y-3.89
X4.3Y-3.89
X4.4Y-3.89
X4.5Y-3.89
X4.6Y-3.89
X4.7Y-3.89
X4.8Y-3.89
X4.9Y-3.89
X5.0Y-3.89
X5.1Y-3.89
X5.175Y-3.59
X5.2Y-3.89
X5.3Y-3.89
X5.4Y-3.89
X5.5Y-3.89
X5.6Y-3.89
X5.7Y-3.89
X5.8Y-3.89
X5.9Y-3.89
X6.0Y-3.89
X6.1Y-3.89
X6.15Y-3.64
X6.2Y-3.595
X6.2Y-3.89
X6.25Y-3.64
X6.25Y-3.705
T4
X6.2Y-3.755
T0
M30
