G04 #@! TF.GenerationSoftware,KiCad,Pcbnew,(5.1.10-1-10_14)*
G04 #@! TF.CreationDate,2021-07-28T15:37:35-04:00*
G04 #@! TF.ProjectId,GW4191-SOJ,47573431-3931-42d5-934f-4a2e6b696361,1.0-SOJ*
G04 #@! TF.SameCoordinates,Original*
G04 #@! TF.FileFunction,Legend,Top*
G04 #@! TF.FilePolarity,Positive*
%FSLAX46Y46*%
G04 Gerber Fmt 4.6, Leading zero omitted, Abs format (unit mm)*
G04 Created by KiCad (PCBNEW (5.1.10-1-10_14)) date 2021-07-28 15:37:35*
%MOMM*%
%LPD*%
G01*
G04 APERTURE LIST*
%ADD10C,0.152400*%
%ADD11C,0.200000*%
%ADD12C,0.203200*%
%ADD13C,0.952400*%
G04 APERTURE END LIST*
D10*
X85890000Y-92850600D02*
X85890000Y-93663400D01*
X84290000Y-92850600D02*
X84290000Y-93663400D01*
X106210000Y-92850600D02*
X106210000Y-93663400D01*
X104610000Y-92850600D02*
X104610000Y-93663400D01*
X111925000Y-92850600D02*
X111925000Y-93663400D01*
X110325000Y-92850600D02*
X110325000Y-93663400D01*
X156680000Y-93663400D02*
X156680000Y-92850600D01*
X158280000Y-93663400D02*
X158280000Y-92850600D01*
X132245000Y-92850600D02*
X132245000Y-93663400D01*
X130645000Y-92850600D02*
X130645000Y-93663400D01*
X83106400Y-87300000D02*
X82293600Y-87300000D01*
X83106400Y-85700000D02*
X82293600Y-85700000D01*
X82293600Y-83700000D02*
X83106400Y-83700000D01*
X82293600Y-85300000D02*
X83106400Y-85300000D01*
D11*
X113045000Y-93537000D02*
X113045000Y-94362000D01*
X130175000Y-93537000D02*
X130175000Y-85787000D01*
X112395000Y-93537000D02*
X112395000Y-85787000D01*
X130175000Y-93537000D02*
X129430000Y-93537000D01*
X130175000Y-85787000D02*
X129430000Y-85787000D01*
X112395000Y-85787000D02*
X113140000Y-85787000D01*
X112395000Y-93537000D02*
X113045000Y-93537000D01*
X86360000Y-93537000D02*
X87010000Y-93537000D01*
X86360000Y-85787000D02*
X87105000Y-85787000D01*
X104140000Y-85787000D02*
X103395000Y-85787000D01*
X104140000Y-93537000D02*
X103395000Y-93537000D01*
X86360000Y-93537000D02*
X86360000Y-85787000D01*
X104140000Y-93537000D02*
X104140000Y-85787000D01*
X87010000Y-93537000D02*
X87010000Y-94362000D01*
X138430000Y-93537000D02*
X139080000Y-93537000D01*
X138430000Y-85787000D02*
X139175000Y-85787000D01*
X156210000Y-85787000D02*
X155465000Y-85787000D01*
X156210000Y-93537000D02*
X155465000Y-93537000D01*
X138430000Y-93537000D02*
X138430000Y-85787000D01*
X156210000Y-93537000D02*
X156210000Y-85787000D01*
X139080000Y-93537000D02*
X139080000Y-94362000D01*
D12*
X120665723Y-89216895D02*
X120665723Y-89874876D01*
X120704428Y-89952285D01*
X120743133Y-89990990D01*
X120820542Y-90029695D01*
X120975361Y-90029695D01*
X121052771Y-89990990D01*
X121091476Y-89952285D01*
X121130180Y-89874876D01*
X121130180Y-89216895D01*
X121942980Y-90029695D02*
X121478523Y-90029695D01*
X121710752Y-90029695D02*
X121710752Y-89216895D01*
X121633342Y-89333009D01*
X121555933Y-89410419D01*
X121478523Y-89449123D01*
X94630723Y-89216895D02*
X94630723Y-89874876D01*
X94669428Y-89952285D01*
X94708133Y-89990990D01*
X94785542Y-90029695D01*
X94940361Y-90029695D01*
X95017771Y-89990990D01*
X95056476Y-89952285D01*
X95095180Y-89874876D01*
X95095180Y-89216895D01*
X95443523Y-89294304D02*
X95482228Y-89255600D01*
X95559638Y-89216895D01*
X95753161Y-89216895D01*
X95830571Y-89255600D01*
X95869276Y-89294304D01*
X95907980Y-89371714D01*
X95907980Y-89449123D01*
X95869276Y-89565238D01*
X95404819Y-90029695D01*
X95907980Y-90029695D01*
X146700723Y-89216895D02*
X146700723Y-89874876D01*
X146739428Y-89952285D01*
X146778133Y-89990990D01*
X146855542Y-90029695D01*
X147010361Y-90029695D01*
X147087771Y-89990990D01*
X147126476Y-89952285D01*
X147165180Y-89874876D01*
X147165180Y-89216895D01*
X147474819Y-89216895D02*
X147977980Y-89216895D01*
X147707047Y-89526533D01*
X147823161Y-89526533D01*
X147900571Y-89565238D01*
X147939276Y-89603942D01*
X147977980Y-89681352D01*
X147977980Y-89874876D01*
X147939276Y-89952285D01*
X147900571Y-89990990D01*
X147823161Y-90029695D01*
X147590933Y-90029695D01*
X147513523Y-89990990D01*
X147474819Y-89952285D01*
%LPC*%
G36*
G01*
X82854800Y-100939600D02*
X82854800Y-99212400D01*
G75*
G02*
X83337400Y-98729800I482600J0D01*
G01*
X84302600Y-98729800D01*
G75*
G02*
X84785200Y-99212400I0J-482600D01*
G01*
X84785200Y-100939600D01*
G75*
G02*
X84302600Y-101422200I-482600J0D01*
G01*
X83337400Y-101422200D01*
G75*
G02*
X82854800Y-100939600I0J482600D01*
G01*
G37*
G36*
G01*
X85394800Y-100939600D02*
X85394800Y-99212400D01*
G75*
G02*
X85877400Y-98729800I482600J0D01*
G01*
X86842600Y-98729800D01*
G75*
G02*
X87325200Y-99212400I0J-482600D01*
G01*
X87325200Y-100939600D01*
G75*
G02*
X86842600Y-101422200I-482600J0D01*
G01*
X85877400Y-101422200D01*
G75*
G02*
X85394800Y-100939600I0J482600D01*
G01*
G37*
D13*
X88900000Y-98806000D03*
G36*
G01*
X108254800Y-100939600D02*
X108254800Y-99212400D01*
G75*
G02*
X108737400Y-98729800I482600J0D01*
G01*
X109702600Y-98729800D01*
G75*
G02*
X110185200Y-99212400I0J-482600D01*
G01*
X110185200Y-100939600D01*
G75*
G02*
X109702600Y-101422200I-482600J0D01*
G01*
X108737400Y-101422200D01*
G75*
G02*
X108254800Y-100939600I0J482600D01*
G01*
G37*
G36*
G01*
X93014800Y-100939600D02*
X93014800Y-99212400D01*
G75*
G02*
X93497400Y-98729800I482600J0D01*
G01*
X94462600Y-98729800D01*
G75*
G02*
X94945200Y-99212400I0J-482600D01*
G01*
X94945200Y-100939600D01*
G75*
G02*
X94462600Y-101422200I-482600J0D01*
G01*
X93497400Y-101422200D01*
G75*
G02*
X93014800Y-100939600I0J482600D01*
G01*
G37*
G36*
G01*
X110794800Y-100939600D02*
X110794800Y-99212400D01*
G75*
G02*
X111277400Y-98729800I482600J0D01*
G01*
X112242600Y-98729800D01*
G75*
G02*
X112725200Y-99212400I0J-482600D01*
G01*
X112725200Y-100939600D01*
G75*
G02*
X112242600Y-101422200I-482600J0D01*
G01*
X111277400Y-101422200D01*
G75*
G02*
X110794800Y-100939600I0J482600D01*
G01*
G37*
G36*
G01*
X146354800Y-100939600D02*
X146354800Y-99212400D01*
G75*
G02*
X146837400Y-98729800I482600J0D01*
G01*
X147802600Y-98729800D01*
G75*
G02*
X148285200Y-99212400I0J-482600D01*
G01*
X148285200Y-100939600D01*
G75*
G02*
X147802600Y-101422200I-482600J0D01*
G01*
X146837400Y-101422200D01*
G75*
G02*
X146354800Y-100939600I0J482600D01*
G01*
G37*
G36*
G01*
X113334800Y-100939600D02*
X113334800Y-99212400D01*
G75*
G02*
X113817400Y-98729800I482600J0D01*
G01*
X114782600Y-98729800D01*
G75*
G02*
X115265200Y-99212400I0J-482600D01*
G01*
X115265200Y-100939600D01*
G75*
G02*
X114782600Y-101422200I-482600J0D01*
G01*
X113817400Y-101422200D01*
G75*
G02*
X113334800Y-100939600I0J482600D01*
G01*
G37*
G36*
G01*
X115874800Y-100939600D02*
X115874800Y-99212400D01*
G75*
G02*
X116357400Y-98729800I482600J0D01*
G01*
X117322600Y-98729800D01*
G75*
G02*
X117805200Y-99212400I0J-482600D01*
G01*
X117805200Y-100939600D01*
G75*
G02*
X117322600Y-101422200I-482600J0D01*
G01*
X116357400Y-101422200D01*
G75*
G02*
X115874800Y-100939600I0J482600D01*
G01*
G37*
G36*
G01*
X90474800Y-100939600D02*
X90474800Y-99212400D01*
G75*
G02*
X90957400Y-98729800I482600J0D01*
G01*
X91922600Y-98729800D01*
G75*
G02*
X92405200Y-99212400I0J-482600D01*
G01*
X92405200Y-100939600D01*
G75*
G02*
X91922600Y-101422200I-482600J0D01*
G01*
X90957400Y-101422200D01*
G75*
G02*
X90474800Y-100939600I0J482600D01*
G01*
G37*
G36*
G01*
X153974800Y-100939600D02*
X153974800Y-99212400D01*
G75*
G02*
X154457400Y-98729800I482600J0D01*
G01*
X155422600Y-98729800D01*
G75*
G02*
X155905200Y-99212400I0J-482600D01*
G01*
X155905200Y-100939600D01*
G75*
G02*
X155422600Y-101422200I-482600J0D01*
G01*
X154457400Y-101422200D01*
G75*
G02*
X153974800Y-100939600I0J482600D01*
G01*
G37*
G36*
G01*
X87934800Y-100939600D02*
X87934800Y-99212400D01*
G75*
G02*
X88417400Y-98729800I482600J0D01*
G01*
X89382600Y-98729800D01*
G75*
G02*
X89865200Y-99212400I0J-482600D01*
G01*
X89865200Y-100939600D01*
G75*
G02*
X89382600Y-101422200I-482600J0D01*
G01*
X88417400Y-101422200D01*
G75*
G02*
X87934800Y-100939600I0J482600D01*
G01*
G37*
G36*
G01*
X141274800Y-100939600D02*
X141274800Y-99212400D01*
G75*
G02*
X141757400Y-98729800I482600J0D01*
G01*
X142722600Y-98729800D01*
G75*
G02*
X143205200Y-99212400I0J-482600D01*
G01*
X143205200Y-100939600D01*
G75*
G02*
X142722600Y-101422200I-482600J0D01*
G01*
X141757400Y-101422200D01*
G75*
G02*
X141274800Y-100939600I0J482600D01*
G01*
G37*
G36*
G01*
X120954800Y-100939600D02*
X120954800Y-99212400D01*
G75*
G02*
X121437400Y-98729800I482600J0D01*
G01*
X122402600Y-98729800D01*
G75*
G02*
X122885200Y-99212400I0J-482600D01*
G01*
X122885200Y-100939600D01*
G75*
G02*
X122402600Y-101422200I-482600J0D01*
G01*
X121437400Y-101422200D01*
G75*
G02*
X120954800Y-100939600I0J482600D01*
G01*
G37*
G36*
G01*
X131114800Y-100939600D02*
X131114800Y-99212400D01*
G75*
G02*
X131597400Y-98729800I482600J0D01*
G01*
X132562600Y-98729800D01*
G75*
G02*
X133045200Y-99212400I0J-482600D01*
G01*
X133045200Y-100939600D01*
G75*
G02*
X132562600Y-101422200I-482600J0D01*
G01*
X131597400Y-101422200D01*
G75*
G02*
X131114800Y-100939600I0J482600D01*
G01*
G37*
G36*
G01*
X138734800Y-100939600D02*
X138734800Y-99212400D01*
G75*
G02*
X139217400Y-98729800I482600J0D01*
G01*
X140182600Y-98729800D01*
G75*
G02*
X140665200Y-99212400I0J-482600D01*
G01*
X140665200Y-100939600D01*
G75*
G02*
X140182600Y-101422200I-482600J0D01*
G01*
X139217400Y-101422200D01*
G75*
G02*
X138734800Y-100939600I0J482600D01*
G01*
G37*
G36*
G01*
X103174800Y-100939600D02*
X103174800Y-99212400D01*
G75*
G02*
X103657400Y-98729800I482600J0D01*
G01*
X104622600Y-98729800D01*
G75*
G02*
X105105200Y-99212400I0J-482600D01*
G01*
X105105200Y-100939600D01*
G75*
G02*
X104622600Y-101422200I-482600J0D01*
G01*
X103657400Y-101422200D01*
G75*
G02*
X103174800Y-100939600I0J482600D01*
G01*
G37*
G36*
G01*
X126034800Y-100939600D02*
X126034800Y-99212400D01*
G75*
G02*
X126517400Y-98729800I482600J0D01*
G01*
X127482600Y-98729800D01*
G75*
G02*
X127965200Y-99212400I0J-482600D01*
G01*
X127965200Y-100939600D01*
G75*
G02*
X127482600Y-101422200I-482600J0D01*
G01*
X126517400Y-101422200D01*
G75*
G02*
X126034800Y-100939600I0J482600D01*
G01*
G37*
G36*
G01*
X133654800Y-100939600D02*
X133654800Y-99212400D01*
G75*
G02*
X134137400Y-98729800I482600J0D01*
G01*
X135102600Y-98729800D01*
G75*
G02*
X135585200Y-99212400I0J-482600D01*
G01*
X135585200Y-100939600D01*
G75*
G02*
X135102600Y-101422200I-482600J0D01*
G01*
X134137400Y-101422200D01*
G75*
G02*
X133654800Y-100939600I0J482600D01*
G01*
G37*
G36*
G01*
X128574800Y-100939600D02*
X128574800Y-99212400D01*
G75*
G02*
X129057400Y-98729800I482600J0D01*
G01*
X130022600Y-98729800D01*
G75*
G02*
X130505200Y-99212400I0J-482600D01*
G01*
X130505200Y-100939600D01*
G75*
G02*
X130022600Y-101422200I-482600J0D01*
G01*
X129057400Y-101422200D01*
G75*
G02*
X128574800Y-100939600I0J482600D01*
G01*
G37*
G36*
G01*
X105714800Y-100939600D02*
X105714800Y-99212400D01*
G75*
G02*
X106197400Y-98729800I482600J0D01*
G01*
X107162600Y-98729800D01*
G75*
G02*
X107645200Y-99212400I0J-482600D01*
G01*
X107645200Y-100939600D01*
G75*
G02*
X107162600Y-101422200I-482600J0D01*
G01*
X106197400Y-101422200D01*
G75*
G02*
X105714800Y-100939600I0J482600D01*
G01*
G37*
G36*
G01*
X136194800Y-100939600D02*
X136194800Y-99212400D01*
G75*
G02*
X136677400Y-98729800I482600J0D01*
G01*
X137642600Y-98729800D01*
G75*
G02*
X138125200Y-99212400I0J-482600D01*
G01*
X138125200Y-100939600D01*
G75*
G02*
X137642600Y-101422200I-482600J0D01*
G01*
X136677400Y-101422200D01*
G75*
G02*
X136194800Y-100939600I0J482600D01*
G01*
G37*
G36*
G01*
X95554800Y-100939600D02*
X95554800Y-99212400D01*
G75*
G02*
X96037400Y-98729800I482600J0D01*
G01*
X97002600Y-98729800D01*
G75*
G02*
X97485200Y-99212400I0J-482600D01*
G01*
X97485200Y-100939600D01*
G75*
G02*
X97002600Y-101422200I-482600J0D01*
G01*
X96037400Y-101422200D01*
G75*
G02*
X95554800Y-100939600I0J482600D01*
G01*
G37*
G36*
G01*
X123494800Y-100939600D02*
X123494800Y-99212400D01*
G75*
G02*
X123977400Y-98729800I482600J0D01*
G01*
X124942600Y-98729800D01*
G75*
G02*
X125425200Y-99212400I0J-482600D01*
G01*
X125425200Y-100939600D01*
G75*
G02*
X124942600Y-101422200I-482600J0D01*
G01*
X123977400Y-101422200D01*
G75*
G02*
X123494800Y-100939600I0J482600D01*
G01*
G37*
G36*
G01*
X98094800Y-100939600D02*
X98094800Y-99212400D01*
G75*
G02*
X98577400Y-98729800I482600J0D01*
G01*
X99542600Y-98729800D01*
G75*
G02*
X100025200Y-99212400I0J-482600D01*
G01*
X100025200Y-100939600D01*
G75*
G02*
X99542600Y-101422200I-482600J0D01*
G01*
X98577400Y-101422200D01*
G75*
G02*
X98094800Y-100939600I0J482600D01*
G01*
G37*
G36*
G01*
X100634800Y-100939600D02*
X100634800Y-99212400D01*
G75*
G02*
X101117400Y-98729800I482600J0D01*
G01*
X102082600Y-98729800D01*
G75*
G02*
X102565200Y-99212400I0J-482600D01*
G01*
X102565200Y-100939600D01*
G75*
G02*
X102082600Y-101422200I-482600J0D01*
G01*
X101117400Y-101422200D01*
G75*
G02*
X100634800Y-100939600I0J482600D01*
G01*
G37*
G36*
G01*
X148894800Y-100939600D02*
X148894800Y-99212400D01*
G75*
G02*
X149377400Y-98729800I482600J0D01*
G01*
X150342600Y-98729800D01*
G75*
G02*
X150825200Y-99212400I0J-482600D01*
G01*
X150825200Y-100939600D01*
G75*
G02*
X150342600Y-101422200I-482600J0D01*
G01*
X149377400Y-101422200D01*
G75*
G02*
X148894800Y-100939600I0J482600D01*
G01*
G37*
G36*
G01*
X151434800Y-100939600D02*
X151434800Y-99212400D01*
G75*
G02*
X151917400Y-98729800I482600J0D01*
G01*
X152882600Y-98729800D01*
G75*
G02*
X153365200Y-99212400I0J-482600D01*
G01*
X153365200Y-100939600D01*
G75*
G02*
X152882600Y-101422200I-482600J0D01*
G01*
X151917400Y-101422200D01*
G75*
G02*
X151434800Y-100939600I0J482600D01*
G01*
G37*
G36*
G01*
X156514800Y-100939600D02*
X156514800Y-99212400D01*
G75*
G02*
X156997400Y-98729800I482600J0D01*
G01*
X157962600Y-98729800D01*
G75*
G02*
X158445200Y-99212400I0J-482600D01*
G01*
X158445200Y-100939600D01*
G75*
G02*
X157962600Y-101422200I-482600J0D01*
G01*
X156997400Y-101422200D01*
G75*
G02*
X156514800Y-100939600I0J482600D01*
G01*
G37*
G36*
G01*
X118414800Y-100939600D02*
X118414800Y-99212400D01*
G75*
G02*
X118897400Y-98729800I482600J0D01*
G01*
X119862600Y-98729800D01*
G75*
G02*
X120345200Y-99212400I0J-482600D01*
G01*
X120345200Y-100939600D01*
G75*
G02*
X119862600Y-101422200I-482600J0D01*
G01*
X118897400Y-101422200D01*
G75*
G02*
X118414800Y-100939600I0J482600D01*
G01*
G37*
G36*
G01*
X143814800Y-100939600D02*
X143814800Y-99212400D01*
G75*
G02*
X144297400Y-98729800I482600J0D01*
G01*
X145262600Y-98729800D01*
G75*
G02*
X145745200Y-99212400I0J-482600D01*
G01*
X145745200Y-100939600D01*
G75*
G02*
X145262600Y-101422200I-482600J0D01*
G01*
X144297400Y-101422200D01*
G75*
G02*
X143814800Y-100939600I0J482600D01*
G01*
G37*
X86360000Y-98806000D03*
X83820000Y-98806000D03*
X93980000Y-98806000D03*
X91440000Y-98806000D03*
X96520000Y-98806000D03*
X99060000Y-98806000D03*
X104140000Y-98806000D03*
X101600000Y-98806000D03*
X109220000Y-98806000D03*
X106680000Y-98806000D03*
X111760000Y-98806000D03*
X116840000Y-98806000D03*
X114300000Y-98806000D03*
X119380000Y-98806000D03*
X124460000Y-98806000D03*
X121920000Y-98806000D03*
X127000000Y-98806000D03*
X149860000Y-98806000D03*
X147320000Y-98806000D03*
X152400000Y-98806000D03*
X134620000Y-98806000D03*
X132080000Y-98806000D03*
X137160000Y-98806000D03*
X142240000Y-98806000D03*
X139700000Y-98806000D03*
X144780000Y-98806000D03*
X129540000Y-98806000D03*
X154940000Y-98806000D03*
X157480000Y-98806000D03*
G36*
G01*
X84627500Y-93532000D02*
X85552500Y-93532000D01*
G75*
G02*
X85840000Y-93819500I0J-287500D01*
G01*
X85840000Y-94394500D01*
G75*
G02*
X85552500Y-94682000I-287500J0D01*
G01*
X84627500Y-94682000D01*
G75*
G02*
X84340000Y-94394500I0J287500D01*
G01*
X84340000Y-93819500D01*
G75*
G02*
X84627500Y-93532000I287500J0D01*
G01*
G37*
G36*
G01*
X84627500Y-91832000D02*
X85552500Y-91832000D01*
G75*
G02*
X85840000Y-92119500I0J-287500D01*
G01*
X85840000Y-92694500D01*
G75*
G02*
X85552500Y-92982000I-287500J0D01*
G01*
X84627500Y-92982000D01*
G75*
G02*
X84340000Y-92694500I0J287500D01*
G01*
X84340000Y-92119500D01*
G75*
G02*
X84627500Y-91832000I287500J0D01*
G01*
G37*
G36*
G01*
X104947500Y-93532000D02*
X105872500Y-93532000D01*
G75*
G02*
X106160000Y-93819500I0J-287500D01*
G01*
X106160000Y-94394500D01*
G75*
G02*
X105872500Y-94682000I-287500J0D01*
G01*
X104947500Y-94682000D01*
G75*
G02*
X104660000Y-94394500I0J287500D01*
G01*
X104660000Y-93819500D01*
G75*
G02*
X104947500Y-93532000I287500J0D01*
G01*
G37*
G36*
G01*
X104947500Y-91832000D02*
X105872500Y-91832000D01*
G75*
G02*
X106160000Y-92119500I0J-287500D01*
G01*
X106160000Y-92694500D01*
G75*
G02*
X105872500Y-92982000I-287500J0D01*
G01*
X104947500Y-92982000D01*
G75*
G02*
X104660000Y-92694500I0J287500D01*
G01*
X104660000Y-92119500D01*
G75*
G02*
X104947500Y-91832000I287500J0D01*
G01*
G37*
G36*
G01*
X110662500Y-93532000D02*
X111587500Y-93532000D01*
G75*
G02*
X111875000Y-93819500I0J-287500D01*
G01*
X111875000Y-94394500D01*
G75*
G02*
X111587500Y-94682000I-287500J0D01*
G01*
X110662500Y-94682000D01*
G75*
G02*
X110375000Y-94394500I0J287500D01*
G01*
X110375000Y-93819500D01*
G75*
G02*
X110662500Y-93532000I287500J0D01*
G01*
G37*
G36*
G01*
X110662500Y-91832000D02*
X111587500Y-91832000D01*
G75*
G02*
X111875000Y-92119500I0J-287500D01*
G01*
X111875000Y-92694500D01*
G75*
G02*
X111587500Y-92982000I-287500J0D01*
G01*
X110662500Y-92982000D01*
G75*
G02*
X110375000Y-92694500I0J287500D01*
G01*
X110375000Y-92119500D01*
G75*
G02*
X110662500Y-91832000I287500J0D01*
G01*
G37*
G36*
G01*
X157942500Y-92982000D02*
X157017500Y-92982000D01*
G75*
G02*
X156730000Y-92694500I0J287500D01*
G01*
X156730000Y-92119500D01*
G75*
G02*
X157017500Y-91832000I287500J0D01*
G01*
X157942500Y-91832000D01*
G75*
G02*
X158230000Y-92119500I0J-287500D01*
G01*
X158230000Y-92694500D01*
G75*
G02*
X157942500Y-92982000I-287500J0D01*
G01*
G37*
G36*
G01*
X157942500Y-94682000D02*
X157017500Y-94682000D01*
G75*
G02*
X156730000Y-94394500I0J287500D01*
G01*
X156730000Y-93819500D01*
G75*
G02*
X157017500Y-93532000I287500J0D01*
G01*
X157942500Y-93532000D01*
G75*
G02*
X158230000Y-93819500I0J-287500D01*
G01*
X158230000Y-94394500D01*
G75*
G02*
X157942500Y-94682000I-287500J0D01*
G01*
G37*
G36*
G01*
X130982500Y-93532000D02*
X131907500Y-93532000D01*
G75*
G02*
X132195000Y-93819500I0J-287500D01*
G01*
X132195000Y-94394500D01*
G75*
G02*
X131907500Y-94682000I-287500J0D01*
G01*
X130982500Y-94682000D01*
G75*
G02*
X130695000Y-94394500I0J287500D01*
G01*
X130695000Y-93819500D01*
G75*
G02*
X130982500Y-93532000I287500J0D01*
G01*
G37*
G36*
G01*
X130982500Y-91832000D02*
X131907500Y-91832000D01*
G75*
G02*
X132195000Y-92119500I0J-287500D01*
G01*
X132195000Y-92694500D01*
G75*
G02*
X131907500Y-92982000I-287500J0D01*
G01*
X130982500Y-92982000D01*
G75*
G02*
X130695000Y-92694500I0J287500D01*
G01*
X130695000Y-92119500D01*
G75*
G02*
X130982500Y-91832000I287500J0D01*
G01*
G37*
G36*
G01*
X82225000Y-85987500D02*
X82225000Y-87012500D01*
G75*
G02*
X81987500Y-87250000I-237500J0D01*
G01*
X81512500Y-87250000D01*
G75*
G02*
X81275000Y-87012500I0J237500D01*
G01*
X81275000Y-85987500D01*
G75*
G02*
X81512500Y-85750000I237500J0D01*
G01*
X81987500Y-85750000D01*
G75*
G02*
X82225000Y-85987500I0J-237500D01*
G01*
G37*
G36*
G01*
X84125000Y-85987500D02*
X84125000Y-87012500D01*
G75*
G02*
X83887500Y-87250000I-237500J0D01*
G01*
X83412500Y-87250000D01*
G75*
G02*
X83175000Y-87012500I0J237500D01*
G01*
X83175000Y-85987500D01*
G75*
G02*
X83412500Y-85750000I237500J0D01*
G01*
X83887500Y-85750000D01*
G75*
G02*
X84125000Y-85987500I0J-237500D01*
G01*
G37*
G36*
G01*
X83175000Y-85012500D02*
X83175000Y-83987500D01*
G75*
G02*
X83412500Y-83750000I237500J0D01*
G01*
X83887500Y-83750000D01*
G75*
G02*
X84125000Y-83987500I0J-237500D01*
G01*
X84125000Y-85012500D01*
G75*
G02*
X83887500Y-85250000I-237500J0D01*
G01*
X83412500Y-85250000D01*
G75*
G02*
X83175000Y-85012500I0J237500D01*
G01*
G37*
G36*
G01*
X81275000Y-85012500D02*
X81275000Y-83987500D01*
G75*
G02*
X81512500Y-83750000I237500J0D01*
G01*
X81987500Y-83750000D01*
G75*
G02*
X82225000Y-83987500I0J-237500D01*
G01*
X82225000Y-85012500D01*
G75*
G02*
X81987500Y-85250000I-237500J0D01*
G01*
X81512500Y-85250000D01*
G75*
G02*
X81275000Y-85012500I0J237500D01*
G01*
G37*
G36*
G01*
X122730000Y-94411000D02*
X122380000Y-94411000D01*
G75*
G02*
X122205000Y-94236000I0J175000D01*
G01*
X122205000Y-91438000D01*
G75*
G02*
X122380000Y-91263000I175000J0D01*
G01*
X122730000Y-91263000D01*
G75*
G02*
X122905000Y-91438000I0J-175000D01*
G01*
X122905000Y-94236000D01*
G75*
G02*
X122730000Y-94411000I-175000J0D01*
G01*
G37*
G36*
G01*
X122730000Y-88061000D02*
X122380000Y-88061000D01*
G75*
G02*
X122205000Y-87886000I0J175000D01*
G01*
X122205000Y-85088000D01*
G75*
G02*
X122380000Y-84913000I175000J0D01*
G01*
X122730000Y-84913000D01*
G75*
G02*
X122905000Y-85088000I0J-175000D01*
G01*
X122905000Y-87886000D01*
G75*
G02*
X122730000Y-88061000I-175000J0D01*
G01*
G37*
G36*
G01*
X120190000Y-94411000D02*
X119840000Y-94411000D01*
G75*
G02*
X119665000Y-94236000I0J175000D01*
G01*
X119665000Y-91438000D01*
G75*
G02*
X119840000Y-91263000I175000J0D01*
G01*
X120190000Y-91263000D01*
G75*
G02*
X120365000Y-91438000I0J-175000D01*
G01*
X120365000Y-94236000D01*
G75*
G02*
X120190000Y-94411000I-175000J0D01*
G01*
G37*
G36*
G01*
X120190000Y-88061000D02*
X119840000Y-88061000D01*
G75*
G02*
X119665000Y-87886000I0J175000D01*
G01*
X119665000Y-85088000D01*
G75*
G02*
X119840000Y-84913000I175000J0D01*
G01*
X120190000Y-84913000D01*
G75*
G02*
X120365000Y-85088000I0J-175000D01*
G01*
X120365000Y-87886000D01*
G75*
G02*
X120190000Y-88061000I-175000J0D01*
G01*
G37*
G36*
G01*
X113840000Y-94411000D02*
X113490000Y-94411000D01*
G75*
G02*
X113315000Y-94236000I0J175000D01*
G01*
X113315000Y-91438000D01*
G75*
G02*
X113490000Y-91263000I175000J0D01*
G01*
X113840000Y-91263000D01*
G75*
G02*
X114015000Y-91438000I0J-175000D01*
G01*
X114015000Y-94236000D01*
G75*
G02*
X113840000Y-94411000I-175000J0D01*
G01*
G37*
G36*
G01*
X115110000Y-94411000D02*
X114760000Y-94411000D01*
G75*
G02*
X114585000Y-94236000I0J175000D01*
G01*
X114585000Y-91438000D01*
G75*
G02*
X114760000Y-91263000I175000J0D01*
G01*
X115110000Y-91263000D01*
G75*
G02*
X115285000Y-91438000I0J-175000D01*
G01*
X115285000Y-94236000D01*
G75*
G02*
X115110000Y-94411000I-175000J0D01*
G01*
G37*
G36*
G01*
X116380000Y-94411000D02*
X116030000Y-94411000D01*
G75*
G02*
X115855000Y-94236000I0J175000D01*
G01*
X115855000Y-91438000D01*
G75*
G02*
X116030000Y-91263000I175000J0D01*
G01*
X116380000Y-91263000D01*
G75*
G02*
X116555000Y-91438000I0J-175000D01*
G01*
X116555000Y-94236000D01*
G75*
G02*
X116380000Y-94411000I-175000J0D01*
G01*
G37*
G36*
G01*
X117650000Y-94411000D02*
X117300000Y-94411000D01*
G75*
G02*
X117125000Y-94236000I0J175000D01*
G01*
X117125000Y-91438000D01*
G75*
G02*
X117300000Y-91263000I175000J0D01*
G01*
X117650000Y-91263000D01*
G75*
G02*
X117825000Y-91438000I0J-175000D01*
G01*
X117825000Y-94236000D01*
G75*
G02*
X117650000Y-94411000I-175000J0D01*
G01*
G37*
G36*
G01*
X118920000Y-94411000D02*
X118570000Y-94411000D01*
G75*
G02*
X118395000Y-94236000I0J175000D01*
G01*
X118395000Y-91438000D01*
G75*
G02*
X118570000Y-91263000I175000J0D01*
G01*
X118920000Y-91263000D01*
G75*
G02*
X119095000Y-91438000I0J-175000D01*
G01*
X119095000Y-94236000D01*
G75*
G02*
X118920000Y-94411000I-175000J0D01*
G01*
G37*
G36*
G01*
X124000000Y-94411000D02*
X123650000Y-94411000D01*
G75*
G02*
X123475000Y-94236000I0J175000D01*
G01*
X123475000Y-91438000D01*
G75*
G02*
X123650000Y-91263000I175000J0D01*
G01*
X124000000Y-91263000D01*
G75*
G02*
X124175000Y-91438000I0J-175000D01*
G01*
X124175000Y-94236000D01*
G75*
G02*
X124000000Y-94411000I-175000J0D01*
G01*
G37*
G36*
G01*
X125270000Y-94411000D02*
X124920000Y-94411000D01*
G75*
G02*
X124745000Y-94236000I0J175000D01*
G01*
X124745000Y-91438000D01*
G75*
G02*
X124920000Y-91263000I175000J0D01*
G01*
X125270000Y-91263000D01*
G75*
G02*
X125445000Y-91438000I0J-175000D01*
G01*
X125445000Y-94236000D01*
G75*
G02*
X125270000Y-94411000I-175000J0D01*
G01*
G37*
G36*
G01*
X126540000Y-94411000D02*
X126190000Y-94411000D01*
G75*
G02*
X126015000Y-94236000I0J175000D01*
G01*
X126015000Y-91438000D01*
G75*
G02*
X126190000Y-91263000I175000J0D01*
G01*
X126540000Y-91263000D01*
G75*
G02*
X126715000Y-91438000I0J-175000D01*
G01*
X126715000Y-94236000D01*
G75*
G02*
X126540000Y-94411000I-175000J0D01*
G01*
G37*
G36*
G01*
X127810000Y-94411000D02*
X127460000Y-94411000D01*
G75*
G02*
X127285000Y-94236000I0J175000D01*
G01*
X127285000Y-91438000D01*
G75*
G02*
X127460000Y-91263000I175000J0D01*
G01*
X127810000Y-91263000D01*
G75*
G02*
X127985000Y-91438000I0J-175000D01*
G01*
X127985000Y-94236000D01*
G75*
G02*
X127810000Y-94411000I-175000J0D01*
G01*
G37*
G36*
G01*
X129080000Y-94411000D02*
X128730000Y-94411000D01*
G75*
G02*
X128555000Y-94236000I0J175000D01*
G01*
X128555000Y-91438000D01*
G75*
G02*
X128730000Y-91263000I175000J0D01*
G01*
X129080000Y-91263000D01*
G75*
G02*
X129255000Y-91438000I0J-175000D01*
G01*
X129255000Y-94236000D01*
G75*
G02*
X129080000Y-94411000I-175000J0D01*
G01*
G37*
G36*
G01*
X127810000Y-88061000D02*
X127460000Y-88061000D01*
G75*
G02*
X127285000Y-87886000I0J175000D01*
G01*
X127285000Y-85088000D01*
G75*
G02*
X127460000Y-84913000I175000J0D01*
G01*
X127810000Y-84913000D01*
G75*
G02*
X127985000Y-85088000I0J-175000D01*
G01*
X127985000Y-87886000D01*
G75*
G02*
X127810000Y-88061000I-175000J0D01*
G01*
G37*
G36*
G01*
X126540000Y-88061000D02*
X126190000Y-88061000D01*
G75*
G02*
X126015000Y-87886000I0J175000D01*
G01*
X126015000Y-85088000D01*
G75*
G02*
X126190000Y-84913000I175000J0D01*
G01*
X126540000Y-84913000D01*
G75*
G02*
X126715000Y-85088000I0J-175000D01*
G01*
X126715000Y-87886000D01*
G75*
G02*
X126540000Y-88061000I-175000J0D01*
G01*
G37*
G36*
G01*
X125270000Y-88061000D02*
X124920000Y-88061000D01*
G75*
G02*
X124745000Y-87886000I0J175000D01*
G01*
X124745000Y-85088000D01*
G75*
G02*
X124920000Y-84913000I175000J0D01*
G01*
X125270000Y-84913000D01*
G75*
G02*
X125445000Y-85088000I0J-175000D01*
G01*
X125445000Y-87886000D01*
G75*
G02*
X125270000Y-88061000I-175000J0D01*
G01*
G37*
G36*
G01*
X124000000Y-88061000D02*
X123650000Y-88061000D01*
G75*
G02*
X123475000Y-87886000I0J175000D01*
G01*
X123475000Y-85088000D01*
G75*
G02*
X123650000Y-84913000I175000J0D01*
G01*
X124000000Y-84913000D01*
G75*
G02*
X124175000Y-85088000I0J-175000D01*
G01*
X124175000Y-87886000D01*
G75*
G02*
X124000000Y-88061000I-175000J0D01*
G01*
G37*
G36*
G01*
X118920000Y-88061000D02*
X118570000Y-88061000D01*
G75*
G02*
X118395000Y-87886000I0J175000D01*
G01*
X118395000Y-85088000D01*
G75*
G02*
X118570000Y-84913000I175000J0D01*
G01*
X118920000Y-84913000D01*
G75*
G02*
X119095000Y-85088000I0J-175000D01*
G01*
X119095000Y-87886000D01*
G75*
G02*
X118920000Y-88061000I-175000J0D01*
G01*
G37*
G36*
G01*
X117650000Y-88061000D02*
X117300000Y-88061000D01*
G75*
G02*
X117125000Y-87886000I0J175000D01*
G01*
X117125000Y-85088000D01*
G75*
G02*
X117300000Y-84913000I175000J0D01*
G01*
X117650000Y-84913000D01*
G75*
G02*
X117825000Y-85088000I0J-175000D01*
G01*
X117825000Y-87886000D01*
G75*
G02*
X117650000Y-88061000I-175000J0D01*
G01*
G37*
G36*
G01*
X116380000Y-88061000D02*
X116030000Y-88061000D01*
G75*
G02*
X115855000Y-87886000I0J175000D01*
G01*
X115855000Y-85088000D01*
G75*
G02*
X116030000Y-84913000I175000J0D01*
G01*
X116380000Y-84913000D01*
G75*
G02*
X116555000Y-85088000I0J-175000D01*
G01*
X116555000Y-87886000D01*
G75*
G02*
X116380000Y-88061000I-175000J0D01*
G01*
G37*
G36*
G01*
X115110000Y-88061000D02*
X114760000Y-88061000D01*
G75*
G02*
X114585000Y-87886000I0J175000D01*
G01*
X114585000Y-85088000D01*
G75*
G02*
X114760000Y-84913000I175000J0D01*
G01*
X115110000Y-84913000D01*
G75*
G02*
X115285000Y-85088000I0J-175000D01*
G01*
X115285000Y-87886000D01*
G75*
G02*
X115110000Y-88061000I-175000J0D01*
G01*
G37*
G36*
G01*
X113840000Y-88061000D02*
X113490000Y-88061000D01*
G75*
G02*
X113315000Y-87886000I0J175000D01*
G01*
X113315000Y-85088000D01*
G75*
G02*
X113490000Y-84913000I175000J0D01*
G01*
X113840000Y-84913000D01*
G75*
G02*
X114015000Y-85088000I0J-175000D01*
G01*
X114015000Y-87886000D01*
G75*
G02*
X113840000Y-88061000I-175000J0D01*
G01*
G37*
G36*
G01*
X129080000Y-88061000D02*
X128730000Y-88061000D01*
G75*
G02*
X128555000Y-87886000I0J175000D01*
G01*
X128555000Y-85088000D01*
G75*
G02*
X128730000Y-84913000I175000J0D01*
G01*
X129080000Y-84913000D01*
G75*
G02*
X129255000Y-85088000I0J-175000D01*
G01*
X129255000Y-87886000D01*
G75*
G02*
X129080000Y-88061000I-175000J0D01*
G01*
G37*
G36*
G01*
X103045000Y-88061000D02*
X102695000Y-88061000D01*
G75*
G02*
X102520000Y-87886000I0J175000D01*
G01*
X102520000Y-85088000D01*
G75*
G02*
X102695000Y-84913000I175000J0D01*
G01*
X103045000Y-84913000D01*
G75*
G02*
X103220000Y-85088000I0J-175000D01*
G01*
X103220000Y-87886000D01*
G75*
G02*
X103045000Y-88061000I-175000J0D01*
G01*
G37*
G36*
G01*
X87805000Y-88061000D02*
X87455000Y-88061000D01*
G75*
G02*
X87280000Y-87886000I0J175000D01*
G01*
X87280000Y-85088000D01*
G75*
G02*
X87455000Y-84913000I175000J0D01*
G01*
X87805000Y-84913000D01*
G75*
G02*
X87980000Y-85088000I0J-175000D01*
G01*
X87980000Y-87886000D01*
G75*
G02*
X87805000Y-88061000I-175000J0D01*
G01*
G37*
G36*
G01*
X89075000Y-88061000D02*
X88725000Y-88061000D01*
G75*
G02*
X88550000Y-87886000I0J175000D01*
G01*
X88550000Y-85088000D01*
G75*
G02*
X88725000Y-84913000I175000J0D01*
G01*
X89075000Y-84913000D01*
G75*
G02*
X89250000Y-85088000I0J-175000D01*
G01*
X89250000Y-87886000D01*
G75*
G02*
X89075000Y-88061000I-175000J0D01*
G01*
G37*
G36*
G01*
X90345000Y-88061000D02*
X89995000Y-88061000D01*
G75*
G02*
X89820000Y-87886000I0J175000D01*
G01*
X89820000Y-85088000D01*
G75*
G02*
X89995000Y-84913000I175000J0D01*
G01*
X90345000Y-84913000D01*
G75*
G02*
X90520000Y-85088000I0J-175000D01*
G01*
X90520000Y-87886000D01*
G75*
G02*
X90345000Y-88061000I-175000J0D01*
G01*
G37*
G36*
G01*
X91615000Y-88061000D02*
X91265000Y-88061000D01*
G75*
G02*
X91090000Y-87886000I0J175000D01*
G01*
X91090000Y-85088000D01*
G75*
G02*
X91265000Y-84913000I175000J0D01*
G01*
X91615000Y-84913000D01*
G75*
G02*
X91790000Y-85088000I0J-175000D01*
G01*
X91790000Y-87886000D01*
G75*
G02*
X91615000Y-88061000I-175000J0D01*
G01*
G37*
G36*
G01*
X92885000Y-88061000D02*
X92535000Y-88061000D01*
G75*
G02*
X92360000Y-87886000I0J175000D01*
G01*
X92360000Y-85088000D01*
G75*
G02*
X92535000Y-84913000I175000J0D01*
G01*
X92885000Y-84913000D01*
G75*
G02*
X93060000Y-85088000I0J-175000D01*
G01*
X93060000Y-87886000D01*
G75*
G02*
X92885000Y-88061000I-175000J0D01*
G01*
G37*
G36*
G01*
X97965000Y-88061000D02*
X97615000Y-88061000D01*
G75*
G02*
X97440000Y-87886000I0J175000D01*
G01*
X97440000Y-85088000D01*
G75*
G02*
X97615000Y-84913000I175000J0D01*
G01*
X97965000Y-84913000D01*
G75*
G02*
X98140000Y-85088000I0J-175000D01*
G01*
X98140000Y-87886000D01*
G75*
G02*
X97965000Y-88061000I-175000J0D01*
G01*
G37*
G36*
G01*
X99235000Y-88061000D02*
X98885000Y-88061000D01*
G75*
G02*
X98710000Y-87886000I0J175000D01*
G01*
X98710000Y-85088000D01*
G75*
G02*
X98885000Y-84913000I175000J0D01*
G01*
X99235000Y-84913000D01*
G75*
G02*
X99410000Y-85088000I0J-175000D01*
G01*
X99410000Y-87886000D01*
G75*
G02*
X99235000Y-88061000I-175000J0D01*
G01*
G37*
G36*
G01*
X100505000Y-88061000D02*
X100155000Y-88061000D01*
G75*
G02*
X99980000Y-87886000I0J175000D01*
G01*
X99980000Y-85088000D01*
G75*
G02*
X100155000Y-84913000I175000J0D01*
G01*
X100505000Y-84913000D01*
G75*
G02*
X100680000Y-85088000I0J-175000D01*
G01*
X100680000Y-87886000D01*
G75*
G02*
X100505000Y-88061000I-175000J0D01*
G01*
G37*
G36*
G01*
X101775000Y-88061000D02*
X101425000Y-88061000D01*
G75*
G02*
X101250000Y-87886000I0J175000D01*
G01*
X101250000Y-85088000D01*
G75*
G02*
X101425000Y-84913000I175000J0D01*
G01*
X101775000Y-84913000D01*
G75*
G02*
X101950000Y-85088000I0J-175000D01*
G01*
X101950000Y-87886000D01*
G75*
G02*
X101775000Y-88061000I-175000J0D01*
G01*
G37*
G36*
G01*
X103045000Y-94411000D02*
X102695000Y-94411000D01*
G75*
G02*
X102520000Y-94236000I0J175000D01*
G01*
X102520000Y-91438000D01*
G75*
G02*
X102695000Y-91263000I175000J0D01*
G01*
X103045000Y-91263000D01*
G75*
G02*
X103220000Y-91438000I0J-175000D01*
G01*
X103220000Y-94236000D01*
G75*
G02*
X103045000Y-94411000I-175000J0D01*
G01*
G37*
G36*
G01*
X101775000Y-94411000D02*
X101425000Y-94411000D01*
G75*
G02*
X101250000Y-94236000I0J175000D01*
G01*
X101250000Y-91438000D01*
G75*
G02*
X101425000Y-91263000I175000J0D01*
G01*
X101775000Y-91263000D01*
G75*
G02*
X101950000Y-91438000I0J-175000D01*
G01*
X101950000Y-94236000D01*
G75*
G02*
X101775000Y-94411000I-175000J0D01*
G01*
G37*
G36*
G01*
X100505000Y-94411000D02*
X100155000Y-94411000D01*
G75*
G02*
X99980000Y-94236000I0J175000D01*
G01*
X99980000Y-91438000D01*
G75*
G02*
X100155000Y-91263000I175000J0D01*
G01*
X100505000Y-91263000D01*
G75*
G02*
X100680000Y-91438000I0J-175000D01*
G01*
X100680000Y-94236000D01*
G75*
G02*
X100505000Y-94411000I-175000J0D01*
G01*
G37*
G36*
G01*
X99235000Y-94411000D02*
X98885000Y-94411000D01*
G75*
G02*
X98710000Y-94236000I0J175000D01*
G01*
X98710000Y-91438000D01*
G75*
G02*
X98885000Y-91263000I175000J0D01*
G01*
X99235000Y-91263000D01*
G75*
G02*
X99410000Y-91438000I0J-175000D01*
G01*
X99410000Y-94236000D01*
G75*
G02*
X99235000Y-94411000I-175000J0D01*
G01*
G37*
G36*
G01*
X97965000Y-94411000D02*
X97615000Y-94411000D01*
G75*
G02*
X97440000Y-94236000I0J175000D01*
G01*
X97440000Y-91438000D01*
G75*
G02*
X97615000Y-91263000I175000J0D01*
G01*
X97965000Y-91263000D01*
G75*
G02*
X98140000Y-91438000I0J-175000D01*
G01*
X98140000Y-94236000D01*
G75*
G02*
X97965000Y-94411000I-175000J0D01*
G01*
G37*
G36*
G01*
X92885000Y-94411000D02*
X92535000Y-94411000D01*
G75*
G02*
X92360000Y-94236000I0J175000D01*
G01*
X92360000Y-91438000D01*
G75*
G02*
X92535000Y-91263000I175000J0D01*
G01*
X92885000Y-91263000D01*
G75*
G02*
X93060000Y-91438000I0J-175000D01*
G01*
X93060000Y-94236000D01*
G75*
G02*
X92885000Y-94411000I-175000J0D01*
G01*
G37*
G36*
G01*
X91615000Y-94411000D02*
X91265000Y-94411000D01*
G75*
G02*
X91090000Y-94236000I0J175000D01*
G01*
X91090000Y-91438000D01*
G75*
G02*
X91265000Y-91263000I175000J0D01*
G01*
X91615000Y-91263000D01*
G75*
G02*
X91790000Y-91438000I0J-175000D01*
G01*
X91790000Y-94236000D01*
G75*
G02*
X91615000Y-94411000I-175000J0D01*
G01*
G37*
G36*
G01*
X90345000Y-94411000D02*
X89995000Y-94411000D01*
G75*
G02*
X89820000Y-94236000I0J175000D01*
G01*
X89820000Y-91438000D01*
G75*
G02*
X89995000Y-91263000I175000J0D01*
G01*
X90345000Y-91263000D01*
G75*
G02*
X90520000Y-91438000I0J-175000D01*
G01*
X90520000Y-94236000D01*
G75*
G02*
X90345000Y-94411000I-175000J0D01*
G01*
G37*
G36*
G01*
X89075000Y-94411000D02*
X88725000Y-94411000D01*
G75*
G02*
X88550000Y-94236000I0J175000D01*
G01*
X88550000Y-91438000D01*
G75*
G02*
X88725000Y-91263000I175000J0D01*
G01*
X89075000Y-91263000D01*
G75*
G02*
X89250000Y-91438000I0J-175000D01*
G01*
X89250000Y-94236000D01*
G75*
G02*
X89075000Y-94411000I-175000J0D01*
G01*
G37*
G36*
G01*
X87805000Y-94411000D02*
X87455000Y-94411000D01*
G75*
G02*
X87280000Y-94236000I0J175000D01*
G01*
X87280000Y-91438000D01*
G75*
G02*
X87455000Y-91263000I175000J0D01*
G01*
X87805000Y-91263000D01*
G75*
G02*
X87980000Y-91438000I0J-175000D01*
G01*
X87980000Y-94236000D01*
G75*
G02*
X87805000Y-94411000I-175000J0D01*
G01*
G37*
G36*
G01*
X94155000Y-88061000D02*
X93805000Y-88061000D01*
G75*
G02*
X93630000Y-87886000I0J175000D01*
G01*
X93630000Y-85088000D01*
G75*
G02*
X93805000Y-84913000I175000J0D01*
G01*
X94155000Y-84913000D01*
G75*
G02*
X94330000Y-85088000I0J-175000D01*
G01*
X94330000Y-87886000D01*
G75*
G02*
X94155000Y-88061000I-175000J0D01*
G01*
G37*
G36*
G01*
X94155000Y-94411000D02*
X93805000Y-94411000D01*
G75*
G02*
X93630000Y-94236000I0J175000D01*
G01*
X93630000Y-91438000D01*
G75*
G02*
X93805000Y-91263000I175000J0D01*
G01*
X94155000Y-91263000D01*
G75*
G02*
X94330000Y-91438000I0J-175000D01*
G01*
X94330000Y-94236000D01*
G75*
G02*
X94155000Y-94411000I-175000J0D01*
G01*
G37*
G36*
G01*
X96695000Y-88061000D02*
X96345000Y-88061000D01*
G75*
G02*
X96170000Y-87886000I0J175000D01*
G01*
X96170000Y-85088000D01*
G75*
G02*
X96345000Y-84913000I175000J0D01*
G01*
X96695000Y-84913000D01*
G75*
G02*
X96870000Y-85088000I0J-175000D01*
G01*
X96870000Y-87886000D01*
G75*
G02*
X96695000Y-88061000I-175000J0D01*
G01*
G37*
G36*
G01*
X96695000Y-94411000D02*
X96345000Y-94411000D01*
G75*
G02*
X96170000Y-94236000I0J175000D01*
G01*
X96170000Y-91438000D01*
G75*
G02*
X96345000Y-91263000I175000J0D01*
G01*
X96695000Y-91263000D01*
G75*
G02*
X96870000Y-91438000I0J-175000D01*
G01*
X96870000Y-94236000D01*
G75*
G02*
X96695000Y-94411000I-175000J0D01*
G01*
G37*
G36*
G01*
X139875000Y-94411000D02*
X139525000Y-94411000D01*
G75*
G02*
X139350000Y-94236000I0J175000D01*
G01*
X139350000Y-91438000D01*
G75*
G02*
X139525000Y-91263000I175000J0D01*
G01*
X139875000Y-91263000D01*
G75*
G02*
X140050000Y-91438000I0J-175000D01*
G01*
X140050000Y-94236000D01*
G75*
G02*
X139875000Y-94411000I-175000J0D01*
G01*
G37*
G36*
G01*
X141145000Y-94411000D02*
X140795000Y-94411000D01*
G75*
G02*
X140620000Y-94236000I0J175000D01*
G01*
X140620000Y-91438000D01*
G75*
G02*
X140795000Y-91263000I175000J0D01*
G01*
X141145000Y-91263000D01*
G75*
G02*
X141320000Y-91438000I0J-175000D01*
G01*
X141320000Y-94236000D01*
G75*
G02*
X141145000Y-94411000I-175000J0D01*
G01*
G37*
G36*
G01*
X142415000Y-94411000D02*
X142065000Y-94411000D01*
G75*
G02*
X141890000Y-94236000I0J175000D01*
G01*
X141890000Y-91438000D01*
G75*
G02*
X142065000Y-91263000I175000J0D01*
G01*
X142415000Y-91263000D01*
G75*
G02*
X142590000Y-91438000I0J-175000D01*
G01*
X142590000Y-94236000D01*
G75*
G02*
X142415000Y-94411000I-175000J0D01*
G01*
G37*
G36*
G01*
X143685000Y-94411000D02*
X143335000Y-94411000D01*
G75*
G02*
X143160000Y-94236000I0J175000D01*
G01*
X143160000Y-91438000D01*
G75*
G02*
X143335000Y-91263000I175000J0D01*
G01*
X143685000Y-91263000D01*
G75*
G02*
X143860000Y-91438000I0J-175000D01*
G01*
X143860000Y-94236000D01*
G75*
G02*
X143685000Y-94411000I-175000J0D01*
G01*
G37*
G36*
G01*
X144955000Y-94411000D02*
X144605000Y-94411000D01*
G75*
G02*
X144430000Y-94236000I0J175000D01*
G01*
X144430000Y-91438000D01*
G75*
G02*
X144605000Y-91263000I175000J0D01*
G01*
X144955000Y-91263000D01*
G75*
G02*
X145130000Y-91438000I0J-175000D01*
G01*
X145130000Y-94236000D01*
G75*
G02*
X144955000Y-94411000I-175000J0D01*
G01*
G37*
G36*
G01*
X150035000Y-94411000D02*
X149685000Y-94411000D01*
G75*
G02*
X149510000Y-94236000I0J175000D01*
G01*
X149510000Y-91438000D01*
G75*
G02*
X149685000Y-91263000I175000J0D01*
G01*
X150035000Y-91263000D01*
G75*
G02*
X150210000Y-91438000I0J-175000D01*
G01*
X150210000Y-94236000D01*
G75*
G02*
X150035000Y-94411000I-175000J0D01*
G01*
G37*
G36*
G01*
X151305000Y-94411000D02*
X150955000Y-94411000D01*
G75*
G02*
X150780000Y-94236000I0J175000D01*
G01*
X150780000Y-91438000D01*
G75*
G02*
X150955000Y-91263000I175000J0D01*
G01*
X151305000Y-91263000D01*
G75*
G02*
X151480000Y-91438000I0J-175000D01*
G01*
X151480000Y-94236000D01*
G75*
G02*
X151305000Y-94411000I-175000J0D01*
G01*
G37*
G36*
G01*
X152575000Y-94411000D02*
X152225000Y-94411000D01*
G75*
G02*
X152050000Y-94236000I0J175000D01*
G01*
X152050000Y-91438000D01*
G75*
G02*
X152225000Y-91263000I175000J0D01*
G01*
X152575000Y-91263000D01*
G75*
G02*
X152750000Y-91438000I0J-175000D01*
G01*
X152750000Y-94236000D01*
G75*
G02*
X152575000Y-94411000I-175000J0D01*
G01*
G37*
G36*
G01*
X153845000Y-94411000D02*
X153495000Y-94411000D01*
G75*
G02*
X153320000Y-94236000I0J175000D01*
G01*
X153320000Y-91438000D01*
G75*
G02*
X153495000Y-91263000I175000J0D01*
G01*
X153845000Y-91263000D01*
G75*
G02*
X154020000Y-91438000I0J-175000D01*
G01*
X154020000Y-94236000D01*
G75*
G02*
X153845000Y-94411000I-175000J0D01*
G01*
G37*
G36*
G01*
X155115000Y-94411000D02*
X154765000Y-94411000D01*
G75*
G02*
X154590000Y-94236000I0J175000D01*
G01*
X154590000Y-91438000D01*
G75*
G02*
X154765000Y-91263000I175000J0D01*
G01*
X155115000Y-91263000D01*
G75*
G02*
X155290000Y-91438000I0J-175000D01*
G01*
X155290000Y-94236000D01*
G75*
G02*
X155115000Y-94411000I-175000J0D01*
G01*
G37*
G36*
G01*
X153845000Y-88061000D02*
X153495000Y-88061000D01*
G75*
G02*
X153320000Y-87886000I0J175000D01*
G01*
X153320000Y-85088000D01*
G75*
G02*
X153495000Y-84913000I175000J0D01*
G01*
X153845000Y-84913000D01*
G75*
G02*
X154020000Y-85088000I0J-175000D01*
G01*
X154020000Y-87886000D01*
G75*
G02*
X153845000Y-88061000I-175000J0D01*
G01*
G37*
G36*
G01*
X152575000Y-88061000D02*
X152225000Y-88061000D01*
G75*
G02*
X152050000Y-87886000I0J175000D01*
G01*
X152050000Y-85088000D01*
G75*
G02*
X152225000Y-84913000I175000J0D01*
G01*
X152575000Y-84913000D01*
G75*
G02*
X152750000Y-85088000I0J-175000D01*
G01*
X152750000Y-87886000D01*
G75*
G02*
X152575000Y-88061000I-175000J0D01*
G01*
G37*
G36*
G01*
X151305000Y-88061000D02*
X150955000Y-88061000D01*
G75*
G02*
X150780000Y-87886000I0J175000D01*
G01*
X150780000Y-85088000D01*
G75*
G02*
X150955000Y-84913000I175000J0D01*
G01*
X151305000Y-84913000D01*
G75*
G02*
X151480000Y-85088000I0J-175000D01*
G01*
X151480000Y-87886000D01*
G75*
G02*
X151305000Y-88061000I-175000J0D01*
G01*
G37*
G36*
G01*
X150035000Y-88061000D02*
X149685000Y-88061000D01*
G75*
G02*
X149510000Y-87886000I0J175000D01*
G01*
X149510000Y-85088000D01*
G75*
G02*
X149685000Y-84913000I175000J0D01*
G01*
X150035000Y-84913000D01*
G75*
G02*
X150210000Y-85088000I0J-175000D01*
G01*
X150210000Y-87886000D01*
G75*
G02*
X150035000Y-88061000I-175000J0D01*
G01*
G37*
G36*
G01*
X144955000Y-88061000D02*
X144605000Y-88061000D01*
G75*
G02*
X144430000Y-87886000I0J175000D01*
G01*
X144430000Y-85088000D01*
G75*
G02*
X144605000Y-84913000I175000J0D01*
G01*
X144955000Y-84913000D01*
G75*
G02*
X145130000Y-85088000I0J-175000D01*
G01*
X145130000Y-87886000D01*
G75*
G02*
X144955000Y-88061000I-175000J0D01*
G01*
G37*
G36*
G01*
X143685000Y-88061000D02*
X143335000Y-88061000D01*
G75*
G02*
X143160000Y-87886000I0J175000D01*
G01*
X143160000Y-85088000D01*
G75*
G02*
X143335000Y-84913000I175000J0D01*
G01*
X143685000Y-84913000D01*
G75*
G02*
X143860000Y-85088000I0J-175000D01*
G01*
X143860000Y-87886000D01*
G75*
G02*
X143685000Y-88061000I-175000J0D01*
G01*
G37*
G36*
G01*
X142415000Y-88061000D02*
X142065000Y-88061000D01*
G75*
G02*
X141890000Y-87886000I0J175000D01*
G01*
X141890000Y-85088000D01*
G75*
G02*
X142065000Y-84913000I175000J0D01*
G01*
X142415000Y-84913000D01*
G75*
G02*
X142590000Y-85088000I0J-175000D01*
G01*
X142590000Y-87886000D01*
G75*
G02*
X142415000Y-88061000I-175000J0D01*
G01*
G37*
G36*
G01*
X141145000Y-88061000D02*
X140795000Y-88061000D01*
G75*
G02*
X140620000Y-87886000I0J175000D01*
G01*
X140620000Y-85088000D01*
G75*
G02*
X140795000Y-84913000I175000J0D01*
G01*
X141145000Y-84913000D01*
G75*
G02*
X141320000Y-85088000I0J-175000D01*
G01*
X141320000Y-87886000D01*
G75*
G02*
X141145000Y-88061000I-175000J0D01*
G01*
G37*
G36*
G01*
X139875000Y-88061000D02*
X139525000Y-88061000D01*
G75*
G02*
X139350000Y-87886000I0J175000D01*
G01*
X139350000Y-85088000D01*
G75*
G02*
X139525000Y-84913000I175000J0D01*
G01*
X139875000Y-84913000D01*
G75*
G02*
X140050000Y-85088000I0J-175000D01*
G01*
X140050000Y-87886000D01*
G75*
G02*
X139875000Y-88061000I-175000J0D01*
G01*
G37*
G36*
G01*
X155115000Y-88061000D02*
X154765000Y-88061000D01*
G75*
G02*
X154590000Y-87886000I0J175000D01*
G01*
X154590000Y-85088000D01*
G75*
G02*
X154765000Y-84913000I175000J0D01*
G01*
X155115000Y-84913000D01*
G75*
G02*
X155290000Y-85088000I0J-175000D01*
G01*
X155290000Y-87886000D01*
G75*
G02*
X155115000Y-88061000I-175000J0D01*
G01*
G37*
M02*
