G04 #@! TF.GenerationSoftware,KiCad,Pcbnew,(5.1.5-0-10_14)*
G04 #@! TF.CreationDate,2020-12-26T22:03:59-05:00*
G04 #@! TF.ProjectId,simm-30-4mb,73696d6d-2d33-4302-9d34-6d622e6b6963,rev?*
G04 #@! TF.SameCoordinates,Original*
G04 #@! TF.FileFunction,Soldermask,Top*
G04 #@! TF.FilePolarity,Negative*
%FSLAX46Y46*%
G04 Gerber Fmt 4.6, Leading zero omitted, Abs format (unit mm)*
G04 Created by KiCad (PCBNEW (5.1.5-0-10_14)) date 2020-12-26 22:03:59*
%MOMM*%
%LPD*%
G04 APERTURE LIST*
%ADD10C,0.100000*%
G04 APERTURE END LIST*
D10*
G36*
X157618902Y-98348100D02*
G01*
X157705565Y-98383997D01*
X157705569Y-98383999D01*
X157705570Y-98384000D01*
X157744563Y-98410054D01*
X157783560Y-98436111D01*
X157849889Y-98502440D01*
X157902003Y-98580435D01*
X157937900Y-98667098D01*
X157940370Y-98679514D01*
X157943980Y-98691417D01*
X157949848Y-98702396D01*
X157957745Y-98712018D01*
X157967367Y-98719915D01*
X157978345Y-98725783D01*
X157990257Y-98729397D01*
X157996422Y-98730311D01*
X158082244Y-98738764D01*
X158166768Y-98764403D01*
X158244660Y-98806038D01*
X158312933Y-98862067D01*
X158368962Y-98930340D01*
X158410597Y-99008232D01*
X158436236Y-99092756D01*
X158445200Y-99183767D01*
X158445200Y-100968233D01*
X158436236Y-101059244D01*
X158410597Y-101143768D01*
X158368962Y-101221660D01*
X158312933Y-101289933D01*
X158244660Y-101345962D01*
X158166768Y-101387597D01*
X158082244Y-101413236D01*
X157991233Y-101422200D01*
X156968767Y-101422200D01*
X156877756Y-101413236D01*
X156793232Y-101387597D01*
X156715340Y-101345962D01*
X156647067Y-101289933D01*
X156591038Y-101221660D01*
X156549403Y-101143768D01*
X156523764Y-101059244D01*
X156514800Y-100968233D01*
X156514800Y-99183767D01*
X156523764Y-99092756D01*
X156549403Y-99008232D01*
X156591038Y-98930340D01*
X156647067Y-98862067D01*
X156715340Y-98806038D01*
X156793232Y-98764403D01*
X156877756Y-98738764D01*
X156963578Y-98730311D01*
X156975787Y-98727883D01*
X156987287Y-98723119D01*
X156997637Y-98716203D01*
X157006439Y-98707401D01*
X157013355Y-98697051D01*
X157018119Y-98685551D01*
X157019629Y-98679523D01*
X157022100Y-98667098D01*
X157057997Y-98580435D01*
X157110111Y-98502440D01*
X157176440Y-98436111D01*
X157215437Y-98410054D01*
X157254430Y-98384000D01*
X157254431Y-98383999D01*
X157254435Y-98383997D01*
X157341098Y-98348100D01*
X157433098Y-98329800D01*
X157526902Y-98329800D01*
X157618902Y-98348100D01*
G37*
G36*
X155078902Y-98348100D02*
G01*
X155165565Y-98383997D01*
X155165569Y-98383999D01*
X155165570Y-98384000D01*
X155204563Y-98410054D01*
X155243560Y-98436111D01*
X155309889Y-98502440D01*
X155362003Y-98580435D01*
X155397900Y-98667098D01*
X155400370Y-98679514D01*
X155403980Y-98691417D01*
X155409848Y-98702396D01*
X155417745Y-98712018D01*
X155427367Y-98719915D01*
X155438345Y-98725783D01*
X155450257Y-98729397D01*
X155456422Y-98730311D01*
X155542244Y-98738764D01*
X155626768Y-98764403D01*
X155704660Y-98806038D01*
X155772933Y-98862067D01*
X155828962Y-98930340D01*
X155870597Y-99008232D01*
X155896236Y-99092756D01*
X155905200Y-99183767D01*
X155905200Y-100968233D01*
X155896236Y-101059244D01*
X155870597Y-101143768D01*
X155828962Y-101221660D01*
X155772933Y-101289933D01*
X155704660Y-101345962D01*
X155626768Y-101387597D01*
X155542244Y-101413236D01*
X155451233Y-101422200D01*
X154428767Y-101422200D01*
X154337756Y-101413236D01*
X154253232Y-101387597D01*
X154175340Y-101345962D01*
X154107067Y-101289933D01*
X154051038Y-101221660D01*
X154009403Y-101143768D01*
X153983764Y-101059244D01*
X153974800Y-100968233D01*
X153974800Y-99183767D01*
X153983764Y-99092756D01*
X154009403Y-99008232D01*
X154051038Y-98930340D01*
X154107067Y-98862067D01*
X154175340Y-98806038D01*
X154253232Y-98764403D01*
X154337756Y-98738764D01*
X154423578Y-98730311D01*
X154435787Y-98727883D01*
X154447287Y-98723119D01*
X154457637Y-98716203D01*
X154466439Y-98707401D01*
X154473355Y-98697051D01*
X154478119Y-98685551D01*
X154479629Y-98679523D01*
X154482100Y-98667098D01*
X154517997Y-98580435D01*
X154570111Y-98502440D01*
X154636440Y-98436111D01*
X154675437Y-98410054D01*
X154714430Y-98384000D01*
X154714431Y-98383999D01*
X154714435Y-98383997D01*
X154801098Y-98348100D01*
X154893098Y-98329800D01*
X154986902Y-98329800D01*
X155078902Y-98348100D01*
G37*
G36*
X152538902Y-98348100D02*
G01*
X152625565Y-98383997D01*
X152625569Y-98383999D01*
X152625570Y-98384000D01*
X152664563Y-98410054D01*
X152703560Y-98436111D01*
X152769889Y-98502440D01*
X152822003Y-98580435D01*
X152857900Y-98667098D01*
X152860370Y-98679514D01*
X152863980Y-98691417D01*
X152869848Y-98702396D01*
X152877745Y-98712018D01*
X152887367Y-98719915D01*
X152898345Y-98725783D01*
X152910257Y-98729397D01*
X152916422Y-98730311D01*
X153002244Y-98738764D01*
X153086768Y-98764403D01*
X153164660Y-98806038D01*
X153232933Y-98862067D01*
X153288962Y-98930340D01*
X153330597Y-99008232D01*
X153356236Y-99092756D01*
X153365200Y-99183767D01*
X153365200Y-100968233D01*
X153356236Y-101059244D01*
X153330597Y-101143768D01*
X153288962Y-101221660D01*
X153232933Y-101289933D01*
X153164660Y-101345962D01*
X153086768Y-101387597D01*
X153002244Y-101413236D01*
X152911233Y-101422200D01*
X151888767Y-101422200D01*
X151797756Y-101413236D01*
X151713232Y-101387597D01*
X151635340Y-101345962D01*
X151567067Y-101289933D01*
X151511038Y-101221660D01*
X151469403Y-101143768D01*
X151443764Y-101059244D01*
X151434800Y-100968233D01*
X151434800Y-99183767D01*
X151443764Y-99092756D01*
X151469403Y-99008232D01*
X151511038Y-98930340D01*
X151567067Y-98862067D01*
X151635340Y-98806038D01*
X151713232Y-98764403D01*
X151797756Y-98738764D01*
X151883578Y-98730311D01*
X151895787Y-98727883D01*
X151907287Y-98723119D01*
X151917637Y-98716203D01*
X151926439Y-98707401D01*
X151933355Y-98697051D01*
X151938119Y-98685551D01*
X151939629Y-98679523D01*
X151942100Y-98667098D01*
X151977997Y-98580435D01*
X152030111Y-98502440D01*
X152096440Y-98436111D01*
X152135437Y-98410054D01*
X152174430Y-98384000D01*
X152174431Y-98383999D01*
X152174435Y-98383997D01*
X152261098Y-98348100D01*
X152353098Y-98329800D01*
X152446902Y-98329800D01*
X152538902Y-98348100D01*
G37*
G36*
X149998902Y-98348100D02*
G01*
X150085565Y-98383997D01*
X150085569Y-98383999D01*
X150085570Y-98384000D01*
X150124563Y-98410054D01*
X150163560Y-98436111D01*
X150229889Y-98502440D01*
X150282003Y-98580435D01*
X150317900Y-98667098D01*
X150320370Y-98679514D01*
X150323980Y-98691417D01*
X150329848Y-98702396D01*
X150337745Y-98712018D01*
X150347367Y-98719915D01*
X150358345Y-98725783D01*
X150370257Y-98729397D01*
X150376422Y-98730311D01*
X150462244Y-98738764D01*
X150546768Y-98764403D01*
X150624660Y-98806038D01*
X150692933Y-98862067D01*
X150748962Y-98930340D01*
X150790597Y-99008232D01*
X150816236Y-99092756D01*
X150825200Y-99183767D01*
X150825200Y-100968233D01*
X150816236Y-101059244D01*
X150790597Y-101143768D01*
X150748962Y-101221660D01*
X150692933Y-101289933D01*
X150624660Y-101345962D01*
X150546768Y-101387597D01*
X150462244Y-101413236D01*
X150371233Y-101422200D01*
X149348767Y-101422200D01*
X149257756Y-101413236D01*
X149173232Y-101387597D01*
X149095340Y-101345962D01*
X149027067Y-101289933D01*
X148971038Y-101221660D01*
X148929403Y-101143768D01*
X148903764Y-101059244D01*
X148894800Y-100968233D01*
X148894800Y-99183767D01*
X148903764Y-99092756D01*
X148929403Y-99008232D01*
X148971038Y-98930340D01*
X149027067Y-98862067D01*
X149095340Y-98806038D01*
X149173232Y-98764403D01*
X149257756Y-98738764D01*
X149343578Y-98730311D01*
X149355787Y-98727883D01*
X149367287Y-98723119D01*
X149377637Y-98716203D01*
X149386439Y-98707401D01*
X149393355Y-98697051D01*
X149398119Y-98685551D01*
X149399629Y-98679523D01*
X149402100Y-98667098D01*
X149437997Y-98580435D01*
X149490111Y-98502440D01*
X149556440Y-98436111D01*
X149595437Y-98410054D01*
X149634430Y-98384000D01*
X149634431Y-98383999D01*
X149634435Y-98383997D01*
X149721098Y-98348100D01*
X149813098Y-98329800D01*
X149906902Y-98329800D01*
X149998902Y-98348100D01*
G37*
G36*
X147458902Y-98348100D02*
G01*
X147545565Y-98383997D01*
X147545569Y-98383999D01*
X147545570Y-98384000D01*
X147584563Y-98410054D01*
X147623560Y-98436111D01*
X147689889Y-98502440D01*
X147742003Y-98580435D01*
X147777900Y-98667098D01*
X147780370Y-98679514D01*
X147783980Y-98691417D01*
X147789848Y-98702396D01*
X147797745Y-98712018D01*
X147807367Y-98719915D01*
X147818345Y-98725783D01*
X147830257Y-98729397D01*
X147836422Y-98730311D01*
X147922244Y-98738764D01*
X148006768Y-98764403D01*
X148084660Y-98806038D01*
X148152933Y-98862067D01*
X148208962Y-98930340D01*
X148250597Y-99008232D01*
X148276236Y-99092756D01*
X148285200Y-99183767D01*
X148285200Y-100968233D01*
X148276236Y-101059244D01*
X148250597Y-101143768D01*
X148208962Y-101221660D01*
X148152933Y-101289933D01*
X148084660Y-101345962D01*
X148006768Y-101387597D01*
X147922244Y-101413236D01*
X147831233Y-101422200D01*
X146808767Y-101422200D01*
X146717756Y-101413236D01*
X146633232Y-101387597D01*
X146555340Y-101345962D01*
X146487067Y-101289933D01*
X146431038Y-101221660D01*
X146389403Y-101143768D01*
X146363764Y-101059244D01*
X146354800Y-100968233D01*
X146354800Y-99183767D01*
X146363764Y-99092756D01*
X146389403Y-99008232D01*
X146431038Y-98930340D01*
X146487067Y-98862067D01*
X146555340Y-98806038D01*
X146633232Y-98764403D01*
X146717756Y-98738764D01*
X146803578Y-98730311D01*
X146815787Y-98727883D01*
X146827287Y-98723119D01*
X146837637Y-98716203D01*
X146846439Y-98707401D01*
X146853355Y-98697051D01*
X146858119Y-98685551D01*
X146859629Y-98679523D01*
X146862100Y-98667098D01*
X146897997Y-98580435D01*
X146950111Y-98502440D01*
X147016440Y-98436111D01*
X147055437Y-98410054D01*
X147094430Y-98384000D01*
X147094431Y-98383999D01*
X147094435Y-98383997D01*
X147181098Y-98348100D01*
X147273098Y-98329800D01*
X147366902Y-98329800D01*
X147458902Y-98348100D01*
G37*
G36*
X144918902Y-98348100D02*
G01*
X145005565Y-98383997D01*
X145005569Y-98383999D01*
X145005570Y-98384000D01*
X145044563Y-98410054D01*
X145083560Y-98436111D01*
X145149889Y-98502440D01*
X145202003Y-98580435D01*
X145237900Y-98667098D01*
X145240370Y-98679514D01*
X145243980Y-98691417D01*
X145249848Y-98702396D01*
X145257745Y-98712018D01*
X145267367Y-98719915D01*
X145278345Y-98725783D01*
X145290257Y-98729397D01*
X145296422Y-98730311D01*
X145382244Y-98738764D01*
X145466768Y-98764403D01*
X145544660Y-98806038D01*
X145612933Y-98862067D01*
X145668962Y-98930340D01*
X145710597Y-99008232D01*
X145736236Y-99092756D01*
X145745200Y-99183767D01*
X145745200Y-100968233D01*
X145736236Y-101059244D01*
X145710597Y-101143768D01*
X145668962Y-101221660D01*
X145612933Y-101289933D01*
X145544660Y-101345962D01*
X145466768Y-101387597D01*
X145382244Y-101413236D01*
X145291233Y-101422200D01*
X144268767Y-101422200D01*
X144177756Y-101413236D01*
X144093232Y-101387597D01*
X144015340Y-101345962D01*
X143947067Y-101289933D01*
X143891038Y-101221660D01*
X143849403Y-101143768D01*
X143823764Y-101059244D01*
X143814800Y-100968233D01*
X143814800Y-99183767D01*
X143823764Y-99092756D01*
X143849403Y-99008232D01*
X143891038Y-98930340D01*
X143947067Y-98862067D01*
X144015340Y-98806038D01*
X144093232Y-98764403D01*
X144177756Y-98738764D01*
X144263578Y-98730311D01*
X144275787Y-98727883D01*
X144287287Y-98723119D01*
X144297637Y-98716203D01*
X144306439Y-98707401D01*
X144313355Y-98697051D01*
X144318119Y-98685551D01*
X144319629Y-98679523D01*
X144322100Y-98667098D01*
X144357997Y-98580435D01*
X144410111Y-98502440D01*
X144476440Y-98436111D01*
X144515437Y-98410054D01*
X144554430Y-98384000D01*
X144554431Y-98383999D01*
X144554435Y-98383997D01*
X144641098Y-98348100D01*
X144733098Y-98329800D01*
X144826902Y-98329800D01*
X144918902Y-98348100D01*
G37*
G36*
X142378902Y-98348100D02*
G01*
X142465565Y-98383997D01*
X142465569Y-98383999D01*
X142465570Y-98384000D01*
X142504563Y-98410054D01*
X142543560Y-98436111D01*
X142609889Y-98502440D01*
X142662003Y-98580435D01*
X142697900Y-98667098D01*
X142700370Y-98679514D01*
X142703980Y-98691417D01*
X142709848Y-98702396D01*
X142717745Y-98712018D01*
X142727367Y-98719915D01*
X142738345Y-98725783D01*
X142750257Y-98729397D01*
X142756422Y-98730311D01*
X142842244Y-98738764D01*
X142926768Y-98764403D01*
X143004660Y-98806038D01*
X143072933Y-98862067D01*
X143128962Y-98930340D01*
X143170597Y-99008232D01*
X143196236Y-99092756D01*
X143205200Y-99183767D01*
X143205200Y-100968233D01*
X143196236Y-101059244D01*
X143170597Y-101143768D01*
X143128962Y-101221660D01*
X143072933Y-101289933D01*
X143004660Y-101345962D01*
X142926768Y-101387597D01*
X142842244Y-101413236D01*
X142751233Y-101422200D01*
X141728767Y-101422200D01*
X141637756Y-101413236D01*
X141553232Y-101387597D01*
X141475340Y-101345962D01*
X141407067Y-101289933D01*
X141351038Y-101221660D01*
X141309403Y-101143768D01*
X141283764Y-101059244D01*
X141274800Y-100968233D01*
X141274800Y-99183767D01*
X141283764Y-99092756D01*
X141309403Y-99008232D01*
X141351038Y-98930340D01*
X141407067Y-98862067D01*
X141475340Y-98806038D01*
X141553232Y-98764403D01*
X141637756Y-98738764D01*
X141723578Y-98730311D01*
X141735787Y-98727883D01*
X141747287Y-98723119D01*
X141757637Y-98716203D01*
X141766439Y-98707401D01*
X141773355Y-98697051D01*
X141778119Y-98685551D01*
X141779629Y-98679523D01*
X141782100Y-98667098D01*
X141817997Y-98580435D01*
X141870111Y-98502440D01*
X141936440Y-98436111D01*
X141975437Y-98410054D01*
X142014430Y-98384000D01*
X142014431Y-98383999D01*
X142014435Y-98383997D01*
X142101098Y-98348100D01*
X142193098Y-98329800D01*
X142286902Y-98329800D01*
X142378902Y-98348100D01*
G37*
G36*
X139838902Y-98348100D02*
G01*
X139925565Y-98383997D01*
X139925569Y-98383999D01*
X139925570Y-98384000D01*
X139964563Y-98410054D01*
X140003560Y-98436111D01*
X140069889Y-98502440D01*
X140122003Y-98580435D01*
X140157900Y-98667098D01*
X140160370Y-98679514D01*
X140163980Y-98691417D01*
X140169848Y-98702396D01*
X140177745Y-98712018D01*
X140187367Y-98719915D01*
X140198345Y-98725783D01*
X140210257Y-98729397D01*
X140216422Y-98730311D01*
X140302244Y-98738764D01*
X140386768Y-98764403D01*
X140464660Y-98806038D01*
X140532933Y-98862067D01*
X140588962Y-98930340D01*
X140630597Y-99008232D01*
X140656236Y-99092756D01*
X140665200Y-99183767D01*
X140665200Y-100968233D01*
X140656236Y-101059244D01*
X140630597Y-101143768D01*
X140588962Y-101221660D01*
X140532933Y-101289933D01*
X140464660Y-101345962D01*
X140386768Y-101387597D01*
X140302244Y-101413236D01*
X140211233Y-101422200D01*
X139188767Y-101422200D01*
X139097756Y-101413236D01*
X139013232Y-101387597D01*
X138935340Y-101345962D01*
X138867067Y-101289933D01*
X138811038Y-101221660D01*
X138769403Y-101143768D01*
X138743764Y-101059244D01*
X138734800Y-100968233D01*
X138734800Y-99183767D01*
X138743764Y-99092756D01*
X138769403Y-99008232D01*
X138811038Y-98930340D01*
X138867067Y-98862067D01*
X138935340Y-98806038D01*
X139013232Y-98764403D01*
X139097756Y-98738764D01*
X139183578Y-98730311D01*
X139195787Y-98727883D01*
X139207287Y-98723119D01*
X139217637Y-98716203D01*
X139226439Y-98707401D01*
X139233355Y-98697051D01*
X139238119Y-98685551D01*
X139239629Y-98679523D01*
X139242100Y-98667098D01*
X139277997Y-98580435D01*
X139330111Y-98502440D01*
X139396440Y-98436111D01*
X139435437Y-98410054D01*
X139474430Y-98384000D01*
X139474431Y-98383999D01*
X139474435Y-98383997D01*
X139561098Y-98348100D01*
X139653098Y-98329800D01*
X139746902Y-98329800D01*
X139838902Y-98348100D01*
G37*
G36*
X137298902Y-98348100D02*
G01*
X137385565Y-98383997D01*
X137385569Y-98383999D01*
X137385570Y-98384000D01*
X137424563Y-98410054D01*
X137463560Y-98436111D01*
X137529889Y-98502440D01*
X137582003Y-98580435D01*
X137617900Y-98667098D01*
X137620370Y-98679514D01*
X137623980Y-98691417D01*
X137629848Y-98702396D01*
X137637745Y-98712018D01*
X137647367Y-98719915D01*
X137658345Y-98725783D01*
X137670257Y-98729397D01*
X137676422Y-98730311D01*
X137762244Y-98738764D01*
X137846768Y-98764403D01*
X137924660Y-98806038D01*
X137992933Y-98862067D01*
X138048962Y-98930340D01*
X138090597Y-99008232D01*
X138116236Y-99092756D01*
X138125200Y-99183767D01*
X138125200Y-100968233D01*
X138116236Y-101059244D01*
X138090597Y-101143768D01*
X138048962Y-101221660D01*
X137992933Y-101289933D01*
X137924660Y-101345962D01*
X137846768Y-101387597D01*
X137762244Y-101413236D01*
X137671233Y-101422200D01*
X136648767Y-101422200D01*
X136557756Y-101413236D01*
X136473232Y-101387597D01*
X136395340Y-101345962D01*
X136327067Y-101289933D01*
X136271038Y-101221660D01*
X136229403Y-101143768D01*
X136203764Y-101059244D01*
X136194800Y-100968233D01*
X136194800Y-99183767D01*
X136203764Y-99092756D01*
X136229403Y-99008232D01*
X136271038Y-98930340D01*
X136327067Y-98862067D01*
X136395340Y-98806038D01*
X136473232Y-98764403D01*
X136557756Y-98738764D01*
X136643578Y-98730311D01*
X136655787Y-98727883D01*
X136667287Y-98723119D01*
X136677637Y-98716203D01*
X136686439Y-98707401D01*
X136693355Y-98697051D01*
X136698119Y-98685551D01*
X136699629Y-98679523D01*
X136702100Y-98667098D01*
X136737997Y-98580435D01*
X136790111Y-98502440D01*
X136856440Y-98436111D01*
X136895437Y-98410054D01*
X136934430Y-98384000D01*
X136934431Y-98383999D01*
X136934435Y-98383997D01*
X137021098Y-98348100D01*
X137113098Y-98329800D01*
X137206902Y-98329800D01*
X137298902Y-98348100D01*
G37*
G36*
X134758902Y-98348100D02*
G01*
X134845565Y-98383997D01*
X134845569Y-98383999D01*
X134845570Y-98384000D01*
X134884563Y-98410054D01*
X134923560Y-98436111D01*
X134989889Y-98502440D01*
X135042003Y-98580435D01*
X135077900Y-98667098D01*
X135080370Y-98679514D01*
X135083980Y-98691417D01*
X135089848Y-98702396D01*
X135097745Y-98712018D01*
X135107367Y-98719915D01*
X135118345Y-98725783D01*
X135130257Y-98729397D01*
X135136422Y-98730311D01*
X135222244Y-98738764D01*
X135306768Y-98764403D01*
X135384660Y-98806038D01*
X135452933Y-98862067D01*
X135508962Y-98930340D01*
X135550597Y-99008232D01*
X135576236Y-99092756D01*
X135585200Y-99183767D01*
X135585200Y-100968233D01*
X135576236Y-101059244D01*
X135550597Y-101143768D01*
X135508962Y-101221660D01*
X135452933Y-101289933D01*
X135384660Y-101345962D01*
X135306768Y-101387597D01*
X135222244Y-101413236D01*
X135131233Y-101422200D01*
X134108767Y-101422200D01*
X134017756Y-101413236D01*
X133933232Y-101387597D01*
X133855340Y-101345962D01*
X133787067Y-101289933D01*
X133731038Y-101221660D01*
X133689403Y-101143768D01*
X133663764Y-101059244D01*
X133654800Y-100968233D01*
X133654800Y-99183767D01*
X133663764Y-99092756D01*
X133689403Y-99008232D01*
X133731038Y-98930340D01*
X133787067Y-98862067D01*
X133855340Y-98806038D01*
X133933232Y-98764403D01*
X134017756Y-98738764D01*
X134103578Y-98730311D01*
X134115787Y-98727883D01*
X134127287Y-98723119D01*
X134137637Y-98716203D01*
X134146439Y-98707401D01*
X134153355Y-98697051D01*
X134158119Y-98685551D01*
X134159629Y-98679523D01*
X134162100Y-98667098D01*
X134197997Y-98580435D01*
X134250111Y-98502440D01*
X134316440Y-98436111D01*
X134355437Y-98410054D01*
X134394430Y-98384000D01*
X134394431Y-98383999D01*
X134394435Y-98383997D01*
X134481098Y-98348100D01*
X134573098Y-98329800D01*
X134666902Y-98329800D01*
X134758902Y-98348100D01*
G37*
G36*
X132218902Y-98348100D02*
G01*
X132305565Y-98383997D01*
X132305569Y-98383999D01*
X132305570Y-98384000D01*
X132344563Y-98410054D01*
X132383560Y-98436111D01*
X132449889Y-98502440D01*
X132502003Y-98580435D01*
X132537900Y-98667098D01*
X132540370Y-98679514D01*
X132543980Y-98691417D01*
X132549848Y-98702396D01*
X132557745Y-98712018D01*
X132567367Y-98719915D01*
X132578345Y-98725783D01*
X132590257Y-98729397D01*
X132596422Y-98730311D01*
X132682244Y-98738764D01*
X132766768Y-98764403D01*
X132844660Y-98806038D01*
X132912933Y-98862067D01*
X132968962Y-98930340D01*
X133010597Y-99008232D01*
X133036236Y-99092756D01*
X133045200Y-99183767D01*
X133045200Y-100968233D01*
X133036236Y-101059244D01*
X133010597Y-101143768D01*
X132968962Y-101221660D01*
X132912933Y-101289933D01*
X132844660Y-101345962D01*
X132766768Y-101387597D01*
X132682244Y-101413236D01*
X132591233Y-101422200D01*
X131568767Y-101422200D01*
X131477756Y-101413236D01*
X131393232Y-101387597D01*
X131315340Y-101345962D01*
X131247067Y-101289933D01*
X131191038Y-101221660D01*
X131149403Y-101143768D01*
X131123764Y-101059244D01*
X131114800Y-100968233D01*
X131114800Y-99183767D01*
X131123764Y-99092756D01*
X131149403Y-99008232D01*
X131191038Y-98930340D01*
X131247067Y-98862067D01*
X131315340Y-98806038D01*
X131393232Y-98764403D01*
X131477756Y-98738764D01*
X131563578Y-98730311D01*
X131575787Y-98727883D01*
X131587287Y-98723119D01*
X131597637Y-98716203D01*
X131606439Y-98707401D01*
X131613355Y-98697051D01*
X131618119Y-98685551D01*
X131619629Y-98679523D01*
X131622100Y-98667098D01*
X131657997Y-98580435D01*
X131710111Y-98502440D01*
X131776440Y-98436111D01*
X131815437Y-98410054D01*
X131854430Y-98384000D01*
X131854431Y-98383999D01*
X131854435Y-98383997D01*
X131941098Y-98348100D01*
X132033098Y-98329800D01*
X132126902Y-98329800D01*
X132218902Y-98348100D01*
G37*
G36*
X129678902Y-98348100D02*
G01*
X129765565Y-98383997D01*
X129765569Y-98383999D01*
X129765570Y-98384000D01*
X129804563Y-98410054D01*
X129843560Y-98436111D01*
X129909889Y-98502440D01*
X129962003Y-98580435D01*
X129997900Y-98667098D01*
X130000370Y-98679514D01*
X130003980Y-98691417D01*
X130009848Y-98702396D01*
X130017745Y-98712018D01*
X130027367Y-98719915D01*
X130038345Y-98725783D01*
X130050257Y-98729397D01*
X130056422Y-98730311D01*
X130142244Y-98738764D01*
X130226768Y-98764403D01*
X130304660Y-98806038D01*
X130372933Y-98862067D01*
X130428962Y-98930340D01*
X130470597Y-99008232D01*
X130496236Y-99092756D01*
X130505200Y-99183767D01*
X130505200Y-100968233D01*
X130496236Y-101059244D01*
X130470597Y-101143768D01*
X130428962Y-101221660D01*
X130372933Y-101289933D01*
X130304660Y-101345962D01*
X130226768Y-101387597D01*
X130142244Y-101413236D01*
X130051233Y-101422200D01*
X129028767Y-101422200D01*
X128937756Y-101413236D01*
X128853232Y-101387597D01*
X128775340Y-101345962D01*
X128707067Y-101289933D01*
X128651038Y-101221660D01*
X128609403Y-101143768D01*
X128583764Y-101059244D01*
X128574800Y-100968233D01*
X128574800Y-99183767D01*
X128583764Y-99092756D01*
X128609403Y-99008232D01*
X128651038Y-98930340D01*
X128707067Y-98862067D01*
X128775340Y-98806038D01*
X128853232Y-98764403D01*
X128937756Y-98738764D01*
X129023578Y-98730311D01*
X129035787Y-98727883D01*
X129047287Y-98723119D01*
X129057637Y-98716203D01*
X129066439Y-98707401D01*
X129073355Y-98697051D01*
X129078119Y-98685551D01*
X129079629Y-98679523D01*
X129082100Y-98667098D01*
X129117997Y-98580435D01*
X129170111Y-98502440D01*
X129236440Y-98436111D01*
X129275437Y-98410054D01*
X129314430Y-98384000D01*
X129314431Y-98383999D01*
X129314435Y-98383997D01*
X129401098Y-98348100D01*
X129493098Y-98329800D01*
X129586902Y-98329800D01*
X129678902Y-98348100D01*
G37*
G36*
X127138902Y-98348100D02*
G01*
X127225565Y-98383997D01*
X127225569Y-98383999D01*
X127225570Y-98384000D01*
X127264563Y-98410054D01*
X127303560Y-98436111D01*
X127369889Y-98502440D01*
X127422003Y-98580435D01*
X127457900Y-98667098D01*
X127460370Y-98679514D01*
X127463980Y-98691417D01*
X127469848Y-98702396D01*
X127477745Y-98712018D01*
X127487367Y-98719915D01*
X127498345Y-98725783D01*
X127510257Y-98729397D01*
X127516422Y-98730311D01*
X127602244Y-98738764D01*
X127686768Y-98764403D01*
X127764660Y-98806038D01*
X127832933Y-98862067D01*
X127888962Y-98930340D01*
X127930597Y-99008232D01*
X127956236Y-99092756D01*
X127965200Y-99183767D01*
X127965200Y-100968233D01*
X127956236Y-101059244D01*
X127930597Y-101143768D01*
X127888962Y-101221660D01*
X127832933Y-101289933D01*
X127764660Y-101345962D01*
X127686768Y-101387597D01*
X127602244Y-101413236D01*
X127511233Y-101422200D01*
X126488767Y-101422200D01*
X126397756Y-101413236D01*
X126313232Y-101387597D01*
X126235340Y-101345962D01*
X126167067Y-101289933D01*
X126111038Y-101221660D01*
X126069403Y-101143768D01*
X126043764Y-101059244D01*
X126034800Y-100968233D01*
X126034800Y-99183767D01*
X126043764Y-99092756D01*
X126069403Y-99008232D01*
X126111038Y-98930340D01*
X126167067Y-98862067D01*
X126235340Y-98806038D01*
X126313232Y-98764403D01*
X126397756Y-98738764D01*
X126483578Y-98730311D01*
X126495787Y-98727883D01*
X126507287Y-98723119D01*
X126517637Y-98716203D01*
X126526439Y-98707401D01*
X126533355Y-98697051D01*
X126538119Y-98685551D01*
X126539629Y-98679523D01*
X126542100Y-98667098D01*
X126577997Y-98580435D01*
X126630111Y-98502440D01*
X126696440Y-98436111D01*
X126735437Y-98410054D01*
X126774430Y-98384000D01*
X126774431Y-98383999D01*
X126774435Y-98383997D01*
X126861098Y-98348100D01*
X126953098Y-98329800D01*
X127046902Y-98329800D01*
X127138902Y-98348100D01*
G37*
G36*
X124598902Y-98348100D02*
G01*
X124685565Y-98383997D01*
X124685569Y-98383999D01*
X124685570Y-98384000D01*
X124724563Y-98410054D01*
X124763560Y-98436111D01*
X124829889Y-98502440D01*
X124882003Y-98580435D01*
X124917900Y-98667098D01*
X124920370Y-98679514D01*
X124923980Y-98691417D01*
X124929848Y-98702396D01*
X124937745Y-98712018D01*
X124947367Y-98719915D01*
X124958345Y-98725783D01*
X124970257Y-98729397D01*
X124976422Y-98730311D01*
X125062244Y-98738764D01*
X125146768Y-98764403D01*
X125224660Y-98806038D01*
X125292933Y-98862067D01*
X125348962Y-98930340D01*
X125390597Y-99008232D01*
X125416236Y-99092756D01*
X125425200Y-99183767D01*
X125425200Y-100968233D01*
X125416236Y-101059244D01*
X125390597Y-101143768D01*
X125348962Y-101221660D01*
X125292933Y-101289933D01*
X125224660Y-101345962D01*
X125146768Y-101387597D01*
X125062244Y-101413236D01*
X124971233Y-101422200D01*
X123948767Y-101422200D01*
X123857756Y-101413236D01*
X123773232Y-101387597D01*
X123695340Y-101345962D01*
X123627067Y-101289933D01*
X123571038Y-101221660D01*
X123529403Y-101143768D01*
X123503764Y-101059244D01*
X123494800Y-100968233D01*
X123494800Y-99183767D01*
X123503764Y-99092756D01*
X123529403Y-99008232D01*
X123571038Y-98930340D01*
X123627067Y-98862067D01*
X123695340Y-98806038D01*
X123773232Y-98764403D01*
X123857756Y-98738764D01*
X123943578Y-98730311D01*
X123955787Y-98727883D01*
X123967287Y-98723119D01*
X123977637Y-98716203D01*
X123986439Y-98707401D01*
X123993355Y-98697051D01*
X123998119Y-98685551D01*
X123999629Y-98679523D01*
X124002100Y-98667098D01*
X124037997Y-98580435D01*
X124090111Y-98502440D01*
X124156440Y-98436111D01*
X124195437Y-98410054D01*
X124234430Y-98384000D01*
X124234431Y-98383999D01*
X124234435Y-98383997D01*
X124321098Y-98348100D01*
X124413098Y-98329800D01*
X124506902Y-98329800D01*
X124598902Y-98348100D01*
G37*
G36*
X122058902Y-98348100D02*
G01*
X122145565Y-98383997D01*
X122145569Y-98383999D01*
X122145570Y-98384000D01*
X122184563Y-98410054D01*
X122223560Y-98436111D01*
X122289889Y-98502440D01*
X122342003Y-98580435D01*
X122377900Y-98667098D01*
X122380370Y-98679514D01*
X122383980Y-98691417D01*
X122389848Y-98702396D01*
X122397745Y-98712018D01*
X122407367Y-98719915D01*
X122418345Y-98725783D01*
X122430257Y-98729397D01*
X122436422Y-98730311D01*
X122522244Y-98738764D01*
X122606768Y-98764403D01*
X122684660Y-98806038D01*
X122752933Y-98862067D01*
X122808962Y-98930340D01*
X122850597Y-99008232D01*
X122876236Y-99092756D01*
X122885200Y-99183767D01*
X122885200Y-100968233D01*
X122876236Y-101059244D01*
X122850597Y-101143768D01*
X122808962Y-101221660D01*
X122752933Y-101289933D01*
X122684660Y-101345962D01*
X122606768Y-101387597D01*
X122522244Y-101413236D01*
X122431233Y-101422200D01*
X121408767Y-101422200D01*
X121317756Y-101413236D01*
X121233232Y-101387597D01*
X121155340Y-101345962D01*
X121087067Y-101289933D01*
X121031038Y-101221660D01*
X120989403Y-101143768D01*
X120963764Y-101059244D01*
X120954800Y-100968233D01*
X120954800Y-99183767D01*
X120963764Y-99092756D01*
X120989403Y-99008232D01*
X121031038Y-98930340D01*
X121087067Y-98862067D01*
X121155340Y-98806038D01*
X121233232Y-98764403D01*
X121317756Y-98738764D01*
X121403578Y-98730311D01*
X121415787Y-98727883D01*
X121427287Y-98723119D01*
X121437637Y-98716203D01*
X121446439Y-98707401D01*
X121453355Y-98697051D01*
X121458119Y-98685551D01*
X121459629Y-98679523D01*
X121462100Y-98667098D01*
X121497997Y-98580435D01*
X121550111Y-98502440D01*
X121616440Y-98436111D01*
X121655437Y-98410054D01*
X121694430Y-98384000D01*
X121694431Y-98383999D01*
X121694435Y-98383997D01*
X121781098Y-98348100D01*
X121873098Y-98329800D01*
X121966902Y-98329800D01*
X122058902Y-98348100D01*
G37*
G36*
X119518902Y-98348100D02*
G01*
X119605565Y-98383997D01*
X119605569Y-98383999D01*
X119605570Y-98384000D01*
X119644563Y-98410054D01*
X119683560Y-98436111D01*
X119749889Y-98502440D01*
X119802003Y-98580435D01*
X119837900Y-98667098D01*
X119840370Y-98679514D01*
X119843980Y-98691417D01*
X119849848Y-98702396D01*
X119857745Y-98712018D01*
X119867367Y-98719915D01*
X119878345Y-98725783D01*
X119890257Y-98729397D01*
X119896422Y-98730311D01*
X119982244Y-98738764D01*
X120066768Y-98764403D01*
X120144660Y-98806038D01*
X120212933Y-98862067D01*
X120268962Y-98930340D01*
X120310597Y-99008232D01*
X120336236Y-99092756D01*
X120345200Y-99183767D01*
X120345200Y-100968233D01*
X120336236Y-101059244D01*
X120310597Y-101143768D01*
X120268962Y-101221660D01*
X120212933Y-101289933D01*
X120144660Y-101345962D01*
X120066768Y-101387597D01*
X119982244Y-101413236D01*
X119891233Y-101422200D01*
X118868767Y-101422200D01*
X118777756Y-101413236D01*
X118693232Y-101387597D01*
X118615340Y-101345962D01*
X118547067Y-101289933D01*
X118491038Y-101221660D01*
X118449403Y-101143768D01*
X118423764Y-101059244D01*
X118414800Y-100968233D01*
X118414800Y-99183767D01*
X118423764Y-99092756D01*
X118449403Y-99008232D01*
X118491038Y-98930340D01*
X118547067Y-98862067D01*
X118615340Y-98806038D01*
X118693232Y-98764403D01*
X118777756Y-98738764D01*
X118863578Y-98730311D01*
X118875787Y-98727883D01*
X118887287Y-98723119D01*
X118897637Y-98716203D01*
X118906439Y-98707401D01*
X118913355Y-98697051D01*
X118918119Y-98685551D01*
X118919629Y-98679523D01*
X118922100Y-98667098D01*
X118957997Y-98580435D01*
X119010111Y-98502440D01*
X119076440Y-98436111D01*
X119115437Y-98410054D01*
X119154430Y-98384000D01*
X119154431Y-98383999D01*
X119154435Y-98383997D01*
X119241098Y-98348100D01*
X119333098Y-98329800D01*
X119426902Y-98329800D01*
X119518902Y-98348100D01*
G37*
G36*
X116978902Y-98348100D02*
G01*
X117065565Y-98383997D01*
X117065569Y-98383999D01*
X117065570Y-98384000D01*
X117104563Y-98410054D01*
X117143560Y-98436111D01*
X117209889Y-98502440D01*
X117262003Y-98580435D01*
X117297900Y-98667098D01*
X117300370Y-98679514D01*
X117303980Y-98691417D01*
X117309848Y-98702396D01*
X117317745Y-98712018D01*
X117327367Y-98719915D01*
X117338345Y-98725783D01*
X117350257Y-98729397D01*
X117356422Y-98730311D01*
X117442244Y-98738764D01*
X117526768Y-98764403D01*
X117604660Y-98806038D01*
X117672933Y-98862067D01*
X117728962Y-98930340D01*
X117770597Y-99008232D01*
X117796236Y-99092756D01*
X117805200Y-99183767D01*
X117805200Y-100968233D01*
X117796236Y-101059244D01*
X117770597Y-101143768D01*
X117728962Y-101221660D01*
X117672933Y-101289933D01*
X117604660Y-101345962D01*
X117526768Y-101387597D01*
X117442244Y-101413236D01*
X117351233Y-101422200D01*
X116328767Y-101422200D01*
X116237756Y-101413236D01*
X116153232Y-101387597D01*
X116075340Y-101345962D01*
X116007067Y-101289933D01*
X115951038Y-101221660D01*
X115909403Y-101143768D01*
X115883764Y-101059244D01*
X115874800Y-100968233D01*
X115874800Y-99183767D01*
X115883764Y-99092756D01*
X115909403Y-99008232D01*
X115951038Y-98930340D01*
X116007067Y-98862067D01*
X116075340Y-98806038D01*
X116153232Y-98764403D01*
X116237756Y-98738764D01*
X116323578Y-98730311D01*
X116335787Y-98727883D01*
X116347287Y-98723119D01*
X116357637Y-98716203D01*
X116366439Y-98707401D01*
X116373355Y-98697051D01*
X116378119Y-98685551D01*
X116379629Y-98679523D01*
X116382100Y-98667098D01*
X116417997Y-98580435D01*
X116470111Y-98502440D01*
X116536440Y-98436111D01*
X116575437Y-98410054D01*
X116614430Y-98384000D01*
X116614431Y-98383999D01*
X116614435Y-98383997D01*
X116701098Y-98348100D01*
X116793098Y-98329800D01*
X116886902Y-98329800D01*
X116978902Y-98348100D01*
G37*
G36*
X114438902Y-98348100D02*
G01*
X114525565Y-98383997D01*
X114525569Y-98383999D01*
X114525570Y-98384000D01*
X114564563Y-98410054D01*
X114603560Y-98436111D01*
X114669889Y-98502440D01*
X114722003Y-98580435D01*
X114757900Y-98667098D01*
X114760370Y-98679514D01*
X114763980Y-98691417D01*
X114769848Y-98702396D01*
X114777745Y-98712018D01*
X114787367Y-98719915D01*
X114798345Y-98725783D01*
X114810257Y-98729397D01*
X114816422Y-98730311D01*
X114902244Y-98738764D01*
X114986768Y-98764403D01*
X115064660Y-98806038D01*
X115132933Y-98862067D01*
X115188962Y-98930340D01*
X115230597Y-99008232D01*
X115256236Y-99092756D01*
X115265200Y-99183767D01*
X115265200Y-100968233D01*
X115256236Y-101059244D01*
X115230597Y-101143768D01*
X115188962Y-101221660D01*
X115132933Y-101289933D01*
X115064660Y-101345962D01*
X114986768Y-101387597D01*
X114902244Y-101413236D01*
X114811233Y-101422200D01*
X113788767Y-101422200D01*
X113697756Y-101413236D01*
X113613232Y-101387597D01*
X113535340Y-101345962D01*
X113467067Y-101289933D01*
X113411038Y-101221660D01*
X113369403Y-101143768D01*
X113343764Y-101059244D01*
X113334800Y-100968233D01*
X113334800Y-99183767D01*
X113343764Y-99092756D01*
X113369403Y-99008232D01*
X113411038Y-98930340D01*
X113467067Y-98862067D01*
X113535340Y-98806038D01*
X113613232Y-98764403D01*
X113697756Y-98738764D01*
X113783578Y-98730311D01*
X113795787Y-98727883D01*
X113807287Y-98723119D01*
X113817637Y-98716203D01*
X113826439Y-98707401D01*
X113833355Y-98697051D01*
X113838119Y-98685551D01*
X113839629Y-98679523D01*
X113842100Y-98667098D01*
X113877997Y-98580435D01*
X113930111Y-98502440D01*
X113996440Y-98436111D01*
X114035437Y-98410054D01*
X114074430Y-98384000D01*
X114074431Y-98383999D01*
X114074435Y-98383997D01*
X114161098Y-98348100D01*
X114253098Y-98329800D01*
X114346902Y-98329800D01*
X114438902Y-98348100D01*
G37*
G36*
X111898902Y-98348100D02*
G01*
X111985565Y-98383997D01*
X111985569Y-98383999D01*
X111985570Y-98384000D01*
X112024563Y-98410054D01*
X112063560Y-98436111D01*
X112129889Y-98502440D01*
X112182003Y-98580435D01*
X112217900Y-98667098D01*
X112220370Y-98679514D01*
X112223980Y-98691417D01*
X112229848Y-98702396D01*
X112237745Y-98712018D01*
X112247367Y-98719915D01*
X112258345Y-98725783D01*
X112270257Y-98729397D01*
X112276422Y-98730311D01*
X112362244Y-98738764D01*
X112446768Y-98764403D01*
X112524660Y-98806038D01*
X112592933Y-98862067D01*
X112648962Y-98930340D01*
X112690597Y-99008232D01*
X112716236Y-99092756D01*
X112725200Y-99183767D01*
X112725200Y-100968233D01*
X112716236Y-101059244D01*
X112690597Y-101143768D01*
X112648962Y-101221660D01*
X112592933Y-101289933D01*
X112524660Y-101345962D01*
X112446768Y-101387597D01*
X112362244Y-101413236D01*
X112271233Y-101422200D01*
X111248767Y-101422200D01*
X111157756Y-101413236D01*
X111073232Y-101387597D01*
X110995340Y-101345962D01*
X110927067Y-101289933D01*
X110871038Y-101221660D01*
X110829403Y-101143768D01*
X110803764Y-101059244D01*
X110794800Y-100968233D01*
X110794800Y-99183767D01*
X110803764Y-99092756D01*
X110829403Y-99008232D01*
X110871038Y-98930340D01*
X110927067Y-98862067D01*
X110995340Y-98806038D01*
X111073232Y-98764403D01*
X111157756Y-98738764D01*
X111243578Y-98730311D01*
X111255787Y-98727883D01*
X111267287Y-98723119D01*
X111277637Y-98716203D01*
X111286439Y-98707401D01*
X111293355Y-98697051D01*
X111298119Y-98685551D01*
X111299629Y-98679523D01*
X111302100Y-98667098D01*
X111337997Y-98580435D01*
X111390111Y-98502440D01*
X111456440Y-98436111D01*
X111495437Y-98410054D01*
X111534430Y-98384000D01*
X111534431Y-98383999D01*
X111534435Y-98383997D01*
X111621098Y-98348100D01*
X111713098Y-98329800D01*
X111806902Y-98329800D01*
X111898902Y-98348100D01*
G37*
G36*
X109358902Y-98348100D02*
G01*
X109445565Y-98383997D01*
X109445569Y-98383999D01*
X109445570Y-98384000D01*
X109484563Y-98410054D01*
X109523560Y-98436111D01*
X109589889Y-98502440D01*
X109642003Y-98580435D01*
X109677900Y-98667098D01*
X109680370Y-98679514D01*
X109683980Y-98691417D01*
X109689848Y-98702396D01*
X109697745Y-98712018D01*
X109707367Y-98719915D01*
X109718345Y-98725783D01*
X109730257Y-98729397D01*
X109736422Y-98730311D01*
X109822244Y-98738764D01*
X109906768Y-98764403D01*
X109984660Y-98806038D01*
X110052933Y-98862067D01*
X110108962Y-98930340D01*
X110150597Y-99008232D01*
X110176236Y-99092756D01*
X110185200Y-99183767D01*
X110185200Y-100968233D01*
X110176236Y-101059244D01*
X110150597Y-101143768D01*
X110108962Y-101221660D01*
X110052933Y-101289933D01*
X109984660Y-101345962D01*
X109906768Y-101387597D01*
X109822244Y-101413236D01*
X109731233Y-101422200D01*
X108708767Y-101422200D01*
X108617756Y-101413236D01*
X108533232Y-101387597D01*
X108455340Y-101345962D01*
X108387067Y-101289933D01*
X108331038Y-101221660D01*
X108289403Y-101143768D01*
X108263764Y-101059244D01*
X108254800Y-100968233D01*
X108254800Y-99183767D01*
X108263764Y-99092756D01*
X108289403Y-99008232D01*
X108331038Y-98930340D01*
X108387067Y-98862067D01*
X108455340Y-98806038D01*
X108533232Y-98764403D01*
X108617756Y-98738764D01*
X108703578Y-98730311D01*
X108715787Y-98727883D01*
X108727287Y-98723119D01*
X108737637Y-98716203D01*
X108746439Y-98707401D01*
X108753355Y-98697051D01*
X108758119Y-98685551D01*
X108759629Y-98679523D01*
X108762100Y-98667098D01*
X108797997Y-98580435D01*
X108850111Y-98502440D01*
X108916440Y-98436111D01*
X108955437Y-98410054D01*
X108994430Y-98384000D01*
X108994431Y-98383999D01*
X108994435Y-98383997D01*
X109081098Y-98348100D01*
X109173098Y-98329800D01*
X109266902Y-98329800D01*
X109358902Y-98348100D01*
G37*
G36*
X106818902Y-98348100D02*
G01*
X106905565Y-98383997D01*
X106905569Y-98383999D01*
X106905570Y-98384000D01*
X106944563Y-98410054D01*
X106983560Y-98436111D01*
X107049889Y-98502440D01*
X107102003Y-98580435D01*
X107137900Y-98667098D01*
X107140370Y-98679514D01*
X107143980Y-98691417D01*
X107149848Y-98702396D01*
X107157745Y-98712018D01*
X107167367Y-98719915D01*
X107178345Y-98725783D01*
X107190257Y-98729397D01*
X107196422Y-98730311D01*
X107282244Y-98738764D01*
X107366768Y-98764403D01*
X107444660Y-98806038D01*
X107512933Y-98862067D01*
X107568962Y-98930340D01*
X107610597Y-99008232D01*
X107636236Y-99092756D01*
X107645200Y-99183767D01*
X107645200Y-100968233D01*
X107636236Y-101059244D01*
X107610597Y-101143768D01*
X107568962Y-101221660D01*
X107512933Y-101289933D01*
X107444660Y-101345962D01*
X107366768Y-101387597D01*
X107282244Y-101413236D01*
X107191233Y-101422200D01*
X106168767Y-101422200D01*
X106077756Y-101413236D01*
X105993232Y-101387597D01*
X105915340Y-101345962D01*
X105847067Y-101289933D01*
X105791038Y-101221660D01*
X105749403Y-101143768D01*
X105723764Y-101059244D01*
X105714800Y-100968233D01*
X105714800Y-99183767D01*
X105723764Y-99092756D01*
X105749403Y-99008232D01*
X105791038Y-98930340D01*
X105847067Y-98862067D01*
X105915340Y-98806038D01*
X105993232Y-98764403D01*
X106077756Y-98738764D01*
X106163578Y-98730311D01*
X106175787Y-98727883D01*
X106187287Y-98723119D01*
X106197637Y-98716203D01*
X106206439Y-98707401D01*
X106213355Y-98697051D01*
X106218119Y-98685551D01*
X106219629Y-98679523D01*
X106222100Y-98667098D01*
X106257997Y-98580435D01*
X106310111Y-98502440D01*
X106376440Y-98436111D01*
X106415437Y-98410054D01*
X106454430Y-98384000D01*
X106454431Y-98383999D01*
X106454435Y-98383997D01*
X106541098Y-98348100D01*
X106633098Y-98329800D01*
X106726902Y-98329800D01*
X106818902Y-98348100D01*
G37*
G36*
X104278902Y-98348100D02*
G01*
X104365565Y-98383997D01*
X104365569Y-98383999D01*
X104365570Y-98384000D01*
X104404563Y-98410054D01*
X104443560Y-98436111D01*
X104509889Y-98502440D01*
X104562003Y-98580435D01*
X104597900Y-98667098D01*
X104600370Y-98679514D01*
X104603980Y-98691417D01*
X104609848Y-98702396D01*
X104617745Y-98712018D01*
X104627367Y-98719915D01*
X104638345Y-98725783D01*
X104650257Y-98729397D01*
X104656422Y-98730311D01*
X104742244Y-98738764D01*
X104826768Y-98764403D01*
X104904660Y-98806038D01*
X104972933Y-98862067D01*
X105028962Y-98930340D01*
X105070597Y-99008232D01*
X105096236Y-99092756D01*
X105105200Y-99183767D01*
X105105200Y-100968233D01*
X105096236Y-101059244D01*
X105070597Y-101143768D01*
X105028962Y-101221660D01*
X104972933Y-101289933D01*
X104904660Y-101345962D01*
X104826768Y-101387597D01*
X104742244Y-101413236D01*
X104651233Y-101422200D01*
X103628767Y-101422200D01*
X103537756Y-101413236D01*
X103453232Y-101387597D01*
X103375340Y-101345962D01*
X103307067Y-101289933D01*
X103251038Y-101221660D01*
X103209403Y-101143768D01*
X103183764Y-101059244D01*
X103174800Y-100968233D01*
X103174800Y-99183767D01*
X103183764Y-99092756D01*
X103209403Y-99008232D01*
X103251038Y-98930340D01*
X103307067Y-98862067D01*
X103375340Y-98806038D01*
X103453232Y-98764403D01*
X103537756Y-98738764D01*
X103623578Y-98730311D01*
X103635787Y-98727883D01*
X103647287Y-98723119D01*
X103657637Y-98716203D01*
X103666439Y-98707401D01*
X103673355Y-98697051D01*
X103678119Y-98685551D01*
X103679629Y-98679523D01*
X103682100Y-98667098D01*
X103717997Y-98580435D01*
X103770111Y-98502440D01*
X103836440Y-98436111D01*
X103875437Y-98410054D01*
X103914430Y-98384000D01*
X103914431Y-98383999D01*
X103914435Y-98383997D01*
X104001098Y-98348100D01*
X104093098Y-98329800D01*
X104186902Y-98329800D01*
X104278902Y-98348100D01*
G37*
G36*
X101738902Y-98348100D02*
G01*
X101825565Y-98383997D01*
X101825569Y-98383999D01*
X101825570Y-98384000D01*
X101864563Y-98410054D01*
X101903560Y-98436111D01*
X101969889Y-98502440D01*
X102022003Y-98580435D01*
X102057900Y-98667098D01*
X102060370Y-98679514D01*
X102063980Y-98691417D01*
X102069848Y-98702396D01*
X102077745Y-98712018D01*
X102087367Y-98719915D01*
X102098345Y-98725783D01*
X102110257Y-98729397D01*
X102116422Y-98730311D01*
X102202244Y-98738764D01*
X102286768Y-98764403D01*
X102364660Y-98806038D01*
X102432933Y-98862067D01*
X102488962Y-98930340D01*
X102530597Y-99008232D01*
X102556236Y-99092756D01*
X102565200Y-99183767D01*
X102565200Y-100968233D01*
X102556236Y-101059244D01*
X102530597Y-101143768D01*
X102488962Y-101221660D01*
X102432933Y-101289933D01*
X102364660Y-101345962D01*
X102286768Y-101387597D01*
X102202244Y-101413236D01*
X102111233Y-101422200D01*
X101088767Y-101422200D01*
X100997756Y-101413236D01*
X100913232Y-101387597D01*
X100835340Y-101345962D01*
X100767067Y-101289933D01*
X100711038Y-101221660D01*
X100669403Y-101143768D01*
X100643764Y-101059244D01*
X100634800Y-100968233D01*
X100634800Y-99183767D01*
X100643764Y-99092756D01*
X100669403Y-99008232D01*
X100711038Y-98930340D01*
X100767067Y-98862067D01*
X100835340Y-98806038D01*
X100913232Y-98764403D01*
X100997756Y-98738764D01*
X101083578Y-98730311D01*
X101095787Y-98727883D01*
X101107287Y-98723119D01*
X101117637Y-98716203D01*
X101126439Y-98707401D01*
X101133355Y-98697051D01*
X101138119Y-98685551D01*
X101139629Y-98679523D01*
X101142100Y-98667098D01*
X101177997Y-98580435D01*
X101230111Y-98502440D01*
X101296440Y-98436111D01*
X101335437Y-98410054D01*
X101374430Y-98384000D01*
X101374431Y-98383999D01*
X101374435Y-98383997D01*
X101461098Y-98348100D01*
X101553098Y-98329800D01*
X101646902Y-98329800D01*
X101738902Y-98348100D01*
G37*
G36*
X99198902Y-98348100D02*
G01*
X99285565Y-98383997D01*
X99285569Y-98383999D01*
X99285570Y-98384000D01*
X99324563Y-98410054D01*
X99363560Y-98436111D01*
X99429889Y-98502440D01*
X99482003Y-98580435D01*
X99517900Y-98667098D01*
X99520370Y-98679514D01*
X99523980Y-98691417D01*
X99529848Y-98702396D01*
X99537745Y-98712018D01*
X99547367Y-98719915D01*
X99558345Y-98725783D01*
X99570257Y-98729397D01*
X99576422Y-98730311D01*
X99662244Y-98738764D01*
X99746768Y-98764403D01*
X99824660Y-98806038D01*
X99892933Y-98862067D01*
X99948962Y-98930340D01*
X99990597Y-99008232D01*
X100016236Y-99092756D01*
X100025200Y-99183767D01*
X100025200Y-100968233D01*
X100016236Y-101059244D01*
X99990597Y-101143768D01*
X99948962Y-101221660D01*
X99892933Y-101289933D01*
X99824660Y-101345962D01*
X99746768Y-101387597D01*
X99662244Y-101413236D01*
X99571233Y-101422200D01*
X98548767Y-101422200D01*
X98457756Y-101413236D01*
X98373232Y-101387597D01*
X98295340Y-101345962D01*
X98227067Y-101289933D01*
X98171038Y-101221660D01*
X98129403Y-101143768D01*
X98103764Y-101059244D01*
X98094800Y-100968233D01*
X98094800Y-99183767D01*
X98103764Y-99092756D01*
X98129403Y-99008232D01*
X98171038Y-98930340D01*
X98227067Y-98862067D01*
X98295340Y-98806038D01*
X98373232Y-98764403D01*
X98457756Y-98738764D01*
X98543578Y-98730311D01*
X98555787Y-98727883D01*
X98567287Y-98723119D01*
X98577637Y-98716203D01*
X98586439Y-98707401D01*
X98593355Y-98697051D01*
X98598119Y-98685551D01*
X98599629Y-98679523D01*
X98602100Y-98667098D01*
X98637997Y-98580435D01*
X98690111Y-98502440D01*
X98756440Y-98436111D01*
X98795437Y-98410054D01*
X98834430Y-98384000D01*
X98834431Y-98383999D01*
X98834435Y-98383997D01*
X98921098Y-98348100D01*
X99013098Y-98329800D01*
X99106902Y-98329800D01*
X99198902Y-98348100D01*
G37*
G36*
X96658902Y-98348100D02*
G01*
X96745565Y-98383997D01*
X96745569Y-98383999D01*
X96745570Y-98384000D01*
X96784563Y-98410054D01*
X96823560Y-98436111D01*
X96889889Y-98502440D01*
X96942003Y-98580435D01*
X96977900Y-98667098D01*
X96980370Y-98679514D01*
X96983980Y-98691417D01*
X96989848Y-98702396D01*
X96997745Y-98712018D01*
X97007367Y-98719915D01*
X97018345Y-98725783D01*
X97030257Y-98729397D01*
X97036422Y-98730311D01*
X97122244Y-98738764D01*
X97206768Y-98764403D01*
X97284660Y-98806038D01*
X97352933Y-98862067D01*
X97408962Y-98930340D01*
X97450597Y-99008232D01*
X97476236Y-99092756D01*
X97485200Y-99183767D01*
X97485200Y-100968233D01*
X97476236Y-101059244D01*
X97450597Y-101143768D01*
X97408962Y-101221660D01*
X97352933Y-101289933D01*
X97284660Y-101345962D01*
X97206768Y-101387597D01*
X97122244Y-101413236D01*
X97031233Y-101422200D01*
X96008767Y-101422200D01*
X95917756Y-101413236D01*
X95833232Y-101387597D01*
X95755340Y-101345962D01*
X95687067Y-101289933D01*
X95631038Y-101221660D01*
X95589403Y-101143768D01*
X95563764Y-101059244D01*
X95554800Y-100968233D01*
X95554800Y-99183767D01*
X95563764Y-99092756D01*
X95589403Y-99008232D01*
X95631038Y-98930340D01*
X95687067Y-98862067D01*
X95755340Y-98806038D01*
X95833232Y-98764403D01*
X95917756Y-98738764D01*
X96003578Y-98730311D01*
X96015787Y-98727883D01*
X96027287Y-98723119D01*
X96037637Y-98716203D01*
X96046439Y-98707401D01*
X96053355Y-98697051D01*
X96058119Y-98685551D01*
X96059629Y-98679523D01*
X96062100Y-98667098D01*
X96097997Y-98580435D01*
X96150111Y-98502440D01*
X96216440Y-98436111D01*
X96255437Y-98410054D01*
X96294430Y-98384000D01*
X96294431Y-98383999D01*
X96294435Y-98383997D01*
X96381098Y-98348100D01*
X96473098Y-98329800D01*
X96566902Y-98329800D01*
X96658902Y-98348100D01*
G37*
G36*
X94118902Y-98348100D02*
G01*
X94205565Y-98383997D01*
X94205569Y-98383999D01*
X94205570Y-98384000D01*
X94244563Y-98410054D01*
X94283560Y-98436111D01*
X94349889Y-98502440D01*
X94402003Y-98580435D01*
X94437900Y-98667098D01*
X94440370Y-98679514D01*
X94443980Y-98691417D01*
X94449848Y-98702396D01*
X94457745Y-98712018D01*
X94467367Y-98719915D01*
X94478345Y-98725783D01*
X94490257Y-98729397D01*
X94496422Y-98730311D01*
X94582244Y-98738764D01*
X94666768Y-98764403D01*
X94744660Y-98806038D01*
X94812933Y-98862067D01*
X94868962Y-98930340D01*
X94910597Y-99008232D01*
X94936236Y-99092756D01*
X94945200Y-99183767D01*
X94945200Y-100968233D01*
X94936236Y-101059244D01*
X94910597Y-101143768D01*
X94868962Y-101221660D01*
X94812933Y-101289933D01*
X94744660Y-101345962D01*
X94666768Y-101387597D01*
X94582244Y-101413236D01*
X94491233Y-101422200D01*
X93468767Y-101422200D01*
X93377756Y-101413236D01*
X93293232Y-101387597D01*
X93215340Y-101345962D01*
X93147067Y-101289933D01*
X93091038Y-101221660D01*
X93049403Y-101143768D01*
X93023764Y-101059244D01*
X93014800Y-100968233D01*
X93014800Y-99183767D01*
X93023764Y-99092756D01*
X93049403Y-99008232D01*
X93091038Y-98930340D01*
X93147067Y-98862067D01*
X93215340Y-98806038D01*
X93293232Y-98764403D01*
X93377756Y-98738764D01*
X93463578Y-98730311D01*
X93475787Y-98727883D01*
X93487287Y-98723119D01*
X93497637Y-98716203D01*
X93506439Y-98707401D01*
X93513355Y-98697051D01*
X93518119Y-98685551D01*
X93519629Y-98679523D01*
X93522100Y-98667098D01*
X93557997Y-98580435D01*
X93610111Y-98502440D01*
X93676440Y-98436111D01*
X93715437Y-98410054D01*
X93754430Y-98384000D01*
X93754431Y-98383999D01*
X93754435Y-98383997D01*
X93841098Y-98348100D01*
X93933098Y-98329800D01*
X94026902Y-98329800D01*
X94118902Y-98348100D01*
G37*
G36*
X91578902Y-98348100D02*
G01*
X91665565Y-98383997D01*
X91665569Y-98383999D01*
X91665570Y-98384000D01*
X91704563Y-98410054D01*
X91743560Y-98436111D01*
X91809889Y-98502440D01*
X91862003Y-98580435D01*
X91897900Y-98667098D01*
X91900370Y-98679514D01*
X91903980Y-98691417D01*
X91909848Y-98702396D01*
X91917745Y-98712018D01*
X91927367Y-98719915D01*
X91938345Y-98725783D01*
X91950257Y-98729397D01*
X91956422Y-98730311D01*
X92042244Y-98738764D01*
X92126768Y-98764403D01*
X92204660Y-98806038D01*
X92272933Y-98862067D01*
X92328962Y-98930340D01*
X92370597Y-99008232D01*
X92396236Y-99092756D01*
X92405200Y-99183767D01*
X92405200Y-100968233D01*
X92396236Y-101059244D01*
X92370597Y-101143768D01*
X92328962Y-101221660D01*
X92272933Y-101289933D01*
X92204660Y-101345962D01*
X92126768Y-101387597D01*
X92042244Y-101413236D01*
X91951233Y-101422200D01*
X90928767Y-101422200D01*
X90837756Y-101413236D01*
X90753232Y-101387597D01*
X90675340Y-101345962D01*
X90607067Y-101289933D01*
X90551038Y-101221660D01*
X90509403Y-101143768D01*
X90483764Y-101059244D01*
X90474800Y-100968233D01*
X90474800Y-99183767D01*
X90483764Y-99092756D01*
X90509403Y-99008232D01*
X90551038Y-98930340D01*
X90607067Y-98862067D01*
X90675340Y-98806038D01*
X90753232Y-98764403D01*
X90837756Y-98738764D01*
X90923578Y-98730311D01*
X90935787Y-98727883D01*
X90947287Y-98723119D01*
X90957637Y-98716203D01*
X90966439Y-98707401D01*
X90973355Y-98697051D01*
X90978119Y-98685551D01*
X90979629Y-98679523D01*
X90982100Y-98667098D01*
X91017997Y-98580435D01*
X91070111Y-98502440D01*
X91136440Y-98436111D01*
X91175437Y-98410054D01*
X91214430Y-98384000D01*
X91214431Y-98383999D01*
X91214435Y-98383997D01*
X91301098Y-98348100D01*
X91393098Y-98329800D01*
X91486902Y-98329800D01*
X91578902Y-98348100D01*
G37*
G36*
X89038902Y-98348100D02*
G01*
X89125565Y-98383997D01*
X89125569Y-98383999D01*
X89125570Y-98384000D01*
X89164563Y-98410054D01*
X89203560Y-98436111D01*
X89269889Y-98502440D01*
X89322003Y-98580435D01*
X89357900Y-98667098D01*
X89360370Y-98679514D01*
X89363980Y-98691417D01*
X89369848Y-98702396D01*
X89377745Y-98712018D01*
X89387367Y-98719915D01*
X89398345Y-98725783D01*
X89410257Y-98729397D01*
X89416422Y-98730311D01*
X89502244Y-98738764D01*
X89586768Y-98764403D01*
X89664660Y-98806038D01*
X89732933Y-98862067D01*
X89788962Y-98930340D01*
X89830597Y-99008232D01*
X89856236Y-99092756D01*
X89865200Y-99183767D01*
X89865200Y-100968233D01*
X89856236Y-101059244D01*
X89830597Y-101143768D01*
X89788962Y-101221660D01*
X89732933Y-101289933D01*
X89664660Y-101345962D01*
X89586768Y-101387597D01*
X89502244Y-101413236D01*
X89411233Y-101422200D01*
X88388767Y-101422200D01*
X88297756Y-101413236D01*
X88213232Y-101387597D01*
X88135340Y-101345962D01*
X88067067Y-101289933D01*
X88011038Y-101221660D01*
X87969403Y-101143768D01*
X87943764Y-101059244D01*
X87934800Y-100968233D01*
X87934800Y-99183767D01*
X87943764Y-99092756D01*
X87969403Y-99008232D01*
X88011038Y-98930340D01*
X88067067Y-98862067D01*
X88135340Y-98806038D01*
X88213232Y-98764403D01*
X88297756Y-98738764D01*
X88383578Y-98730311D01*
X88395787Y-98727883D01*
X88407287Y-98723119D01*
X88417637Y-98716203D01*
X88426439Y-98707401D01*
X88433355Y-98697051D01*
X88438119Y-98685551D01*
X88439629Y-98679523D01*
X88442100Y-98667098D01*
X88477997Y-98580435D01*
X88530111Y-98502440D01*
X88596440Y-98436111D01*
X88635437Y-98410054D01*
X88674430Y-98384000D01*
X88674431Y-98383999D01*
X88674435Y-98383997D01*
X88761098Y-98348100D01*
X88853098Y-98329800D01*
X88946902Y-98329800D01*
X89038902Y-98348100D01*
G37*
G36*
X86498902Y-98348100D02*
G01*
X86585565Y-98383997D01*
X86585569Y-98383999D01*
X86585570Y-98384000D01*
X86624563Y-98410054D01*
X86663560Y-98436111D01*
X86729889Y-98502440D01*
X86782003Y-98580435D01*
X86817900Y-98667098D01*
X86820370Y-98679514D01*
X86823980Y-98691417D01*
X86829848Y-98702396D01*
X86837745Y-98712018D01*
X86847367Y-98719915D01*
X86858345Y-98725783D01*
X86870257Y-98729397D01*
X86876422Y-98730311D01*
X86962244Y-98738764D01*
X87046768Y-98764403D01*
X87124660Y-98806038D01*
X87192933Y-98862067D01*
X87248962Y-98930340D01*
X87290597Y-99008232D01*
X87316236Y-99092756D01*
X87325200Y-99183767D01*
X87325200Y-100968233D01*
X87316236Y-101059244D01*
X87290597Y-101143768D01*
X87248962Y-101221660D01*
X87192933Y-101289933D01*
X87124660Y-101345962D01*
X87046768Y-101387597D01*
X86962244Y-101413236D01*
X86871233Y-101422200D01*
X85848767Y-101422200D01*
X85757756Y-101413236D01*
X85673232Y-101387597D01*
X85595340Y-101345962D01*
X85527067Y-101289933D01*
X85471038Y-101221660D01*
X85429403Y-101143768D01*
X85403764Y-101059244D01*
X85394800Y-100968233D01*
X85394800Y-99183767D01*
X85403764Y-99092756D01*
X85429403Y-99008232D01*
X85471038Y-98930340D01*
X85527067Y-98862067D01*
X85595340Y-98806038D01*
X85673232Y-98764403D01*
X85757756Y-98738764D01*
X85843578Y-98730311D01*
X85855787Y-98727883D01*
X85867287Y-98723119D01*
X85877637Y-98716203D01*
X85886439Y-98707401D01*
X85893355Y-98697051D01*
X85898119Y-98685551D01*
X85899629Y-98679523D01*
X85902100Y-98667098D01*
X85937997Y-98580435D01*
X85990111Y-98502440D01*
X86056440Y-98436111D01*
X86095437Y-98410054D01*
X86134430Y-98384000D01*
X86134431Y-98383999D01*
X86134435Y-98383997D01*
X86221098Y-98348100D01*
X86313098Y-98329800D01*
X86406902Y-98329800D01*
X86498902Y-98348100D01*
G37*
G36*
X83958902Y-98348100D02*
G01*
X84045565Y-98383997D01*
X84045569Y-98383999D01*
X84045570Y-98384000D01*
X84084563Y-98410054D01*
X84123560Y-98436111D01*
X84189889Y-98502440D01*
X84242003Y-98580435D01*
X84277900Y-98667098D01*
X84280370Y-98679514D01*
X84283980Y-98691417D01*
X84289848Y-98702396D01*
X84297745Y-98712018D01*
X84307367Y-98719915D01*
X84318345Y-98725783D01*
X84330257Y-98729397D01*
X84336422Y-98730311D01*
X84422244Y-98738764D01*
X84506768Y-98764403D01*
X84584660Y-98806038D01*
X84652933Y-98862067D01*
X84708962Y-98930340D01*
X84750597Y-99008232D01*
X84776236Y-99092756D01*
X84785200Y-99183767D01*
X84785200Y-100968233D01*
X84776236Y-101059244D01*
X84750597Y-101143768D01*
X84708962Y-101221660D01*
X84652933Y-101289933D01*
X84584660Y-101345962D01*
X84506768Y-101387597D01*
X84422244Y-101413236D01*
X84331233Y-101422200D01*
X83308767Y-101422200D01*
X83217756Y-101413236D01*
X83133232Y-101387597D01*
X83055340Y-101345962D01*
X82987067Y-101289933D01*
X82931038Y-101221660D01*
X82889403Y-101143768D01*
X82863764Y-101059244D01*
X82854800Y-100968233D01*
X82854800Y-99183767D01*
X82863764Y-99092756D01*
X82889403Y-99008232D01*
X82931038Y-98930340D01*
X82987067Y-98862067D01*
X83055340Y-98806038D01*
X83133232Y-98764403D01*
X83217756Y-98738764D01*
X83303578Y-98730311D01*
X83315787Y-98727883D01*
X83327287Y-98723119D01*
X83337637Y-98716203D01*
X83346439Y-98707401D01*
X83353355Y-98697051D01*
X83358119Y-98685551D01*
X83359629Y-98679523D01*
X83362100Y-98667098D01*
X83397997Y-98580435D01*
X83450111Y-98502440D01*
X83516440Y-98436111D01*
X83555437Y-98410054D01*
X83594430Y-98384000D01*
X83594431Y-98383999D01*
X83594435Y-98383997D01*
X83681098Y-98348100D01*
X83773098Y-98329800D01*
X83866902Y-98329800D01*
X83958902Y-98348100D01*
G37*
G36*
X124694635Y-92815054D02*
G01*
X124721452Y-92823189D01*
X124746169Y-92836399D01*
X124767827Y-92854173D01*
X124785601Y-92875831D01*
X124798811Y-92900548D01*
X124806946Y-92927365D01*
X124810000Y-92958368D01*
X124810000Y-95265632D01*
X124806946Y-95296635D01*
X124798811Y-95323452D01*
X124785601Y-95348169D01*
X124767827Y-95369827D01*
X124746169Y-95387601D01*
X124721452Y-95400811D01*
X124694635Y-95408946D01*
X124663632Y-95412000D01*
X124256368Y-95412000D01*
X124225365Y-95408946D01*
X124198548Y-95400811D01*
X124173831Y-95387601D01*
X124152173Y-95369827D01*
X124134399Y-95348169D01*
X124121189Y-95323452D01*
X124113054Y-95296635D01*
X124110000Y-95265632D01*
X124110000Y-92958368D01*
X124113054Y-92927365D01*
X124121189Y-92900548D01*
X124134399Y-92875831D01*
X124152173Y-92854173D01*
X124173831Y-92836399D01*
X124198548Y-92823189D01*
X124225365Y-92815054D01*
X124256368Y-92812000D01*
X124663632Y-92812000D01*
X124694635Y-92815054D01*
G37*
G36*
X125964635Y-92815054D02*
G01*
X125991452Y-92823189D01*
X126016169Y-92836399D01*
X126037827Y-92854173D01*
X126055601Y-92875831D01*
X126068811Y-92900548D01*
X126076946Y-92927365D01*
X126080000Y-92958368D01*
X126080000Y-95265632D01*
X126076946Y-95296635D01*
X126068811Y-95323452D01*
X126055601Y-95348169D01*
X126037827Y-95369827D01*
X126016169Y-95387601D01*
X125991452Y-95400811D01*
X125964635Y-95408946D01*
X125933632Y-95412000D01*
X125526368Y-95412000D01*
X125495365Y-95408946D01*
X125468548Y-95400811D01*
X125443831Y-95387601D01*
X125422173Y-95369827D01*
X125404399Y-95348169D01*
X125391189Y-95323452D01*
X125383054Y-95296635D01*
X125380000Y-95265632D01*
X125380000Y-92958368D01*
X125383054Y-92927365D01*
X125391189Y-92900548D01*
X125404399Y-92875831D01*
X125422173Y-92854173D01*
X125443831Y-92836399D01*
X125468548Y-92823189D01*
X125495365Y-92815054D01*
X125526368Y-92812000D01*
X125933632Y-92812000D01*
X125964635Y-92815054D01*
G37*
G36*
X127234635Y-92815054D02*
G01*
X127261452Y-92823189D01*
X127286169Y-92836399D01*
X127307827Y-92854173D01*
X127325601Y-92875831D01*
X127338811Y-92900548D01*
X127346946Y-92927365D01*
X127350000Y-92958368D01*
X127350000Y-95265632D01*
X127346946Y-95296635D01*
X127338811Y-95323452D01*
X127325601Y-95348169D01*
X127307827Y-95369827D01*
X127286169Y-95387601D01*
X127261452Y-95400811D01*
X127234635Y-95408946D01*
X127203632Y-95412000D01*
X126796368Y-95412000D01*
X126765365Y-95408946D01*
X126738548Y-95400811D01*
X126713831Y-95387601D01*
X126692173Y-95369827D01*
X126674399Y-95348169D01*
X126661189Y-95323452D01*
X126653054Y-95296635D01*
X126650000Y-95265632D01*
X126650000Y-92958368D01*
X126653054Y-92927365D01*
X126661189Y-92900548D01*
X126674399Y-92875831D01*
X126692173Y-92854173D01*
X126713831Y-92836399D01*
X126738548Y-92823189D01*
X126765365Y-92815054D01*
X126796368Y-92812000D01*
X127203632Y-92812000D01*
X127234635Y-92815054D01*
G37*
G36*
X128504635Y-92815054D02*
G01*
X128531452Y-92823189D01*
X128556169Y-92836399D01*
X128577827Y-92854173D01*
X128595601Y-92875831D01*
X128608811Y-92900548D01*
X128616946Y-92927365D01*
X128620000Y-92958368D01*
X128620000Y-95265632D01*
X128616946Y-95296635D01*
X128608811Y-95323452D01*
X128595601Y-95348169D01*
X128577827Y-95369827D01*
X128556169Y-95387601D01*
X128531452Y-95400811D01*
X128504635Y-95408946D01*
X128473632Y-95412000D01*
X128066368Y-95412000D01*
X128035365Y-95408946D01*
X128008548Y-95400811D01*
X127983831Y-95387601D01*
X127962173Y-95369827D01*
X127944399Y-95348169D01*
X127931189Y-95323452D01*
X127923054Y-95296635D01*
X127920000Y-95265632D01*
X127920000Y-92958368D01*
X127923054Y-92927365D01*
X127931189Y-92900548D01*
X127944399Y-92875831D01*
X127962173Y-92854173D01*
X127983831Y-92836399D01*
X128008548Y-92823189D01*
X128035365Y-92815054D01*
X128066368Y-92812000D01*
X128473632Y-92812000D01*
X128504635Y-92815054D01*
G37*
G36*
X131044635Y-92815054D02*
G01*
X131071452Y-92823189D01*
X131096169Y-92836399D01*
X131117827Y-92854173D01*
X131135601Y-92875831D01*
X131148811Y-92900548D01*
X131156946Y-92927365D01*
X131160000Y-92958368D01*
X131160000Y-95265632D01*
X131156946Y-95296635D01*
X131148811Y-95323452D01*
X131135601Y-95348169D01*
X131117827Y-95369827D01*
X131096169Y-95387601D01*
X131071452Y-95400811D01*
X131044635Y-95408946D01*
X131013632Y-95412000D01*
X130606368Y-95412000D01*
X130575365Y-95408946D01*
X130548548Y-95400811D01*
X130523831Y-95387601D01*
X130502173Y-95369827D01*
X130484399Y-95348169D01*
X130471189Y-95323452D01*
X130463054Y-95296635D01*
X130460000Y-95265632D01*
X130460000Y-92958368D01*
X130463054Y-92927365D01*
X130471189Y-92900548D01*
X130484399Y-92875831D01*
X130502173Y-92854173D01*
X130523831Y-92836399D01*
X130548548Y-92823189D01*
X130575365Y-92815054D01*
X130606368Y-92812000D01*
X131013632Y-92812000D01*
X131044635Y-92815054D01*
G37*
G36*
X132314635Y-92815054D02*
G01*
X132341452Y-92823189D01*
X132366169Y-92836399D01*
X132387827Y-92854173D01*
X132405601Y-92875831D01*
X132418811Y-92900548D01*
X132426946Y-92927365D01*
X132430000Y-92958368D01*
X132430000Y-95265632D01*
X132426946Y-95296635D01*
X132418811Y-95323452D01*
X132405601Y-95348169D01*
X132387827Y-95369827D01*
X132366169Y-95387601D01*
X132341452Y-95400811D01*
X132314635Y-95408946D01*
X132283632Y-95412000D01*
X131876368Y-95412000D01*
X131845365Y-95408946D01*
X131818548Y-95400811D01*
X131793831Y-95387601D01*
X131772173Y-95369827D01*
X131754399Y-95348169D01*
X131741189Y-95323452D01*
X131733054Y-95296635D01*
X131730000Y-95265632D01*
X131730000Y-92958368D01*
X131733054Y-92927365D01*
X131741189Y-92900548D01*
X131754399Y-92875831D01*
X131772173Y-92854173D01*
X131793831Y-92836399D01*
X131818548Y-92823189D01*
X131845365Y-92815054D01*
X131876368Y-92812000D01*
X132283632Y-92812000D01*
X132314635Y-92815054D01*
G37*
G36*
X133584635Y-92815054D02*
G01*
X133611452Y-92823189D01*
X133636169Y-92836399D01*
X133657827Y-92854173D01*
X133675601Y-92875831D01*
X133688811Y-92900548D01*
X133696946Y-92927365D01*
X133700000Y-92958368D01*
X133700000Y-95265632D01*
X133696946Y-95296635D01*
X133688811Y-95323452D01*
X133675601Y-95348169D01*
X133657827Y-95369827D01*
X133636169Y-95387601D01*
X133611452Y-95400811D01*
X133584635Y-95408946D01*
X133553632Y-95412000D01*
X133146368Y-95412000D01*
X133115365Y-95408946D01*
X133088548Y-95400811D01*
X133063831Y-95387601D01*
X133042173Y-95369827D01*
X133024399Y-95348169D01*
X133011189Y-95323452D01*
X133003054Y-95296635D01*
X133000000Y-95265632D01*
X133000000Y-92958368D01*
X133003054Y-92927365D01*
X133011189Y-92900548D01*
X133024399Y-92875831D01*
X133042173Y-92854173D01*
X133063831Y-92836399D01*
X133088548Y-92823189D01*
X133115365Y-92815054D01*
X133146368Y-92812000D01*
X133553632Y-92812000D01*
X133584635Y-92815054D01*
G37*
G36*
X134854635Y-92815054D02*
G01*
X134881452Y-92823189D01*
X134906169Y-92836399D01*
X134927827Y-92854173D01*
X134945601Y-92875831D01*
X134958811Y-92900548D01*
X134966946Y-92927365D01*
X134970000Y-92958368D01*
X134970000Y-95265632D01*
X134966946Y-95296635D01*
X134958811Y-95323452D01*
X134945601Y-95348169D01*
X134927827Y-95369827D01*
X134906169Y-95387601D01*
X134881452Y-95400811D01*
X134854635Y-95408946D01*
X134823632Y-95412000D01*
X134416368Y-95412000D01*
X134385365Y-95408946D01*
X134358548Y-95400811D01*
X134333831Y-95387601D01*
X134312173Y-95369827D01*
X134294399Y-95348169D01*
X134281189Y-95323452D01*
X134273054Y-95296635D01*
X134270000Y-95265632D01*
X134270000Y-92958368D01*
X134273054Y-92927365D01*
X134281189Y-92900548D01*
X134294399Y-92875831D01*
X134312173Y-92854173D01*
X134333831Y-92836399D01*
X134358548Y-92823189D01*
X134385365Y-92815054D01*
X134416368Y-92812000D01*
X134823632Y-92812000D01*
X134854635Y-92815054D01*
G37*
G36*
X136124635Y-92815054D02*
G01*
X136151452Y-92823189D01*
X136176169Y-92836399D01*
X136197827Y-92854173D01*
X136215601Y-92875831D01*
X136228811Y-92900548D01*
X136236946Y-92927365D01*
X136240000Y-92958368D01*
X136240000Y-95265632D01*
X136236946Y-95296635D01*
X136228811Y-95323452D01*
X136215601Y-95348169D01*
X136197827Y-95369827D01*
X136176169Y-95387601D01*
X136151452Y-95400811D01*
X136124635Y-95408946D01*
X136093632Y-95412000D01*
X135686368Y-95412000D01*
X135655365Y-95408946D01*
X135628548Y-95400811D01*
X135603831Y-95387601D01*
X135582173Y-95369827D01*
X135564399Y-95348169D01*
X135551189Y-95323452D01*
X135543054Y-95296635D01*
X135540000Y-95265632D01*
X135540000Y-92958368D01*
X135543054Y-92927365D01*
X135551189Y-92900548D01*
X135564399Y-92875831D01*
X135582173Y-92854173D01*
X135603831Y-92836399D01*
X135628548Y-92823189D01*
X135655365Y-92815054D01*
X135686368Y-92812000D01*
X136093632Y-92812000D01*
X136124635Y-92815054D01*
G37*
G36*
X137394635Y-92815054D02*
G01*
X137421452Y-92823189D01*
X137446169Y-92836399D01*
X137467827Y-92854173D01*
X137485601Y-92875831D01*
X137498811Y-92900548D01*
X137506946Y-92927365D01*
X137510000Y-92958368D01*
X137510000Y-95265632D01*
X137506946Y-95296635D01*
X137498811Y-95323452D01*
X137485601Y-95348169D01*
X137467827Y-95369827D01*
X137446169Y-95387601D01*
X137421452Y-95400811D01*
X137394635Y-95408946D01*
X137363632Y-95412000D01*
X136956368Y-95412000D01*
X136925365Y-95408946D01*
X136898548Y-95400811D01*
X136873831Y-95387601D01*
X136852173Y-95369827D01*
X136834399Y-95348169D01*
X136821189Y-95323452D01*
X136813054Y-95296635D01*
X136810000Y-95265632D01*
X136810000Y-92958368D01*
X136813054Y-92927365D01*
X136821189Y-92900548D01*
X136834399Y-92875831D01*
X136852173Y-92854173D01*
X136873831Y-92836399D01*
X136898548Y-92823189D01*
X136925365Y-92815054D01*
X136956368Y-92812000D01*
X137363632Y-92812000D01*
X137394635Y-92815054D01*
G37*
G36*
X123424635Y-92815054D02*
G01*
X123451452Y-92823189D01*
X123476169Y-92836399D01*
X123497827Y-92854173D01*
X123515601Y-92875831D01*
X123528811Y-92900548D01*
X123536946Y-92927365D01*
X123540000Y-92958368D01*
X123540000Y-95265632D01*
X123536946Y-95296635D01*
X123528811Y-95323452D01*
X123515601Y-95348169D01*
X123497827Y-95369827D01*
X123476169Y-95387601D01*
X123451452Y-95400811D01*
X123424635Y-95408946D01*
X123393632Y-95412000D01*
X122986368Y-95412000D01*
X122955365Y-95408946D01*
X122928548Y-95400811D01*
X122903831Y-95387601D01*
X122882173Y-95369827D01*
X122864399Y-95348169D01*
X122851189Y-95323452D01*
X122843054Y-95296635D01*
X122840000Y-95265632D01*
X122840000Y-92958368D01*
X122843054Y-92927365D01*
X122851189Y-92900548D01*
X122864399Y-92875831D01*
X122882173Y-92854173D01*
X122903831Y-92836399D01*
X122928548Y-92823189D01*
X122955365Y-92815054D01*
X122986368Y-92812000D01*
X123393632Y-92812000D01*
X123424635Y-92815054D01*
G37*
G36*
X122154635Y-92815054D02*
G01*
X122181452Y-92823189D01*
X122206169Y-92836399D01*
X122227827Y-92854173D01*
X122245601Y-92875831D01*
X122258811Y-92900548D01*
X122266946Y-92927365D01*
X122270000Y-92958368D01*
X122270000Y-95265632D01*
X122266946Y-95296635D01*
X122258811Y-95323452D01*
X122245601Y-95348169D01*
X122227827Y-95369827D01*
X122206169Y-95387601D01*
X122181452Y-95400811D01*
X122154635Y-95408946D01*
X122123632Y-95412000D01*
X121716368Y-95412000D01*
X121685365Y-95408946D01*
X121658548Y-95400811D01*
X121633831Y-95387601D01*
X121612173Y-95369827D01*
X121594399Y-95348169D01*
X121581189Y-95323452D01*
X121573054Y-95296635D01*
X121570000Y-95265632D01*
X121570000Y-92958368D01*
X121573054Y-92927365D01*
X121581189Y-92900548D01*
X121594399Y-92875831D01*
X121612173Y-92854173D01*
X121633831Y-92836399D01*
X121658548Y-92823189D01*
X121685365Y-92815054D01*
X121716368Y-92812000D01*
X122123632Y-92812000D01*
X122154635Y-92815054D01*
G37*
G36*
X87864635Y-92815054D02*
G01*
X87891452Y-92823189D01*
X87916169Y-92836399D01*
X87937827Y-92854173D01*
X87955601Y-92875831D01*
X87968811Y-92900548D01*
X87976946Y-92927365D01*
X87980000Y-92958368D01*
X87980000Y-95265632D01*
X87976946Y-95296635D01*
X87968811Y-95323452D01*
X87955601Y-95348169D01*
X87937827Y-95369827D01*
X87916169Y-95387601D01*
X87891452Y-95400811D01*
X87864635Y-95408946D01*
X87833632Y-95412000D01*
X87426368Y-95412000D01*
X87395365Y-95408946D01*
X87368548Y-95400811D01*
X87343831Y-95387601D01*
X87322173Y-95369827D01*
X87304399Y-95348169D01*
X87291189Y-95323452D01*
X87283054Y-95296635D01*
X87280000Y-95265632D01*
X87280000Y-92958368D01*
X87283054Y-92927365D01*
X87291189Y-92900548D01*
X87304399Y-92875831D01*
X87322173Y-92854173D01*
X87343831Y-92836399D01*
X87368548Y-92823189D01*
X87395365Y-92815054D01*
X87426368Y-92812000D01*
X87833632Y-92812000D01*
X87864635Y-92815054D01*
G37*
G36*
X89134635Y-92815054D02*
G01*
X89161452Y-92823189D01*
X89186169Y-92836399D01*
X89207827Y-92854173D01*
X89225601Y-92875831D01*
X89238811Y-92900548D01*
X89246946Y-92927365D01*
X89250000Y-92958368D01*
X89250000Y-95265632D01*
X89246946Y-95296635D01*
X89238811Y-95323452D01*
X89225601Y-95348169D01*
X89207827Y-95369827D01*
X89186169Y-95387601D01*
X89161452Y-95400811D01*
X89134635Y-95408946D01*
X89103632Y-95412000D01*
X88696368Y-95412000D01*
X88665365Y-95408946D01*
X88638548Y-95400811D01*
X88613831Y-95387601D01*
X88592173Y-95369827D01*
X88574399Y-95348169D01*
X88561189Y-95323452D01*
X88553054Y-95296635D01*
X88550000Y-95265632D01*
X88550000Y-92958368D01*
X88553054Y-92927365D01*
X88561189Y-92900548D01*
X88574399Y-92875831D01*
X88592173Y-92854173D01*
X88613831Y-92836399D01*
X88638548Y-92823189D01*
X88665365Y-92815054D01*
X88696368Y-92812000D01*
X89103632Y-92812000D01*
X89134635Y-92815054D01*
G37*
G36*
X90404635Y-92815054D02*
G01*
X90431452Y-92823189D01*
X90456169Y-92836399D01*
X90477827Y-92854173D01*
X90495601Y-92875831D01*
X90508811Y-92900548D01*
X90516946Y-92927365D01*
X90520000Y-92958368D01*
X90520000Y-95265632D01*
X90516946Y-95296635D01*
X90508811Y-95323452D01*
X90495601Y-95348169D01*
X90477827Y-95369827D01*
X90456169Y-95387601D01*
X90431452Y-95400811D01*
X90404635Y-95408946D01*
X90373632Y-95412000D01*
X89966368Y-95412000D01*
X89935365Y-95408946D01*
X89908548Y-95400811D01*
X89883831Y-95387601D01*
X89862173Y-95369827D01*
X89844399Y-95348169D01*
X89831189Y-95323452D01*
X89823054Y-95296635D01*
X89820000Y-95265632D01*
X89820000Y-92958368D01*
X89823054Y-92927365D01*
X89831189Y-92900548D01*
X89844399Y-92875831D01*
X89862173Y-92854173D01*
X89883831Y-92836399D01*
X89908548Y-92823189D01*
X89935365Y-92815054D01*
X89966368Y-92812000D01*
X90373632Y-92812000D01*
X90404635Y-92815054D01*
G37*
G36*
X91674635Y-92815054D02*
G01*
X91701452Y-92823189D01*
X91726169Y-92836399D01*
X91747827Y-92854173D01*
X91765601Y-92875831D01*
X91778811Y-92900548D01*
X91786946Y-92927365D01*
X91790000Y-92958368D01*
X91790000Y-95265632D01*
X91786946Y-95296635D01*
X91778811Y-95323452D01*
X91765601Y-95348169D01*
X91747827Y-95369827D01*
X91726169Y-95387601D01*
X91701452Y-95400811D01*
X91674635Y-95408946D01*
X91643632Y-95412000D01*
X91236368Y-95412000D01*
X91205365Y-95408946D01*
X91178548Y-95400811D01*
X91153831Y-95387601D01*
X91132173Y-95369827D01*
X91114399Y-95348169D01*
X91101189Y-95323452D01*
X91093054Y-95296635D01*
X91090000Y-95265632D01*
X91090000Y-92958368D01*
X91093054Y-92927365D01*
X91101189Y-92900548D01*
X91114399Y-92875831D01*
X91132173Y-92854173D01*
X91153831Y-92836399D01*
X91178548Y-92823189D01*
X91205365Y-92815054D01*
X91236368Y-92812000D01*
X91643632Y-92812000D01*
X91674635Y-92815054D01*
G37*
G36*
X92944635Y-92815054D02*
G01*
X92971452Y-92823189D01*
X92996169Y-92836399D01*
X93017827Y-92854173D01*
X93035601Y-92875831D01*
X93048811Y-92900548D01*
X93056946Y-92927365D01*
X93060000Y-92958368D01*
X93060000Y-95265632D01*
X93056946Y-95296635D01*
X93048811Y-95323452D01*
X93035601Y-95348169D01*
X93017827Y-95369827D01*
X92996169Y-95387601D01*
X92971452Y-95400811D01*
X92944635Y-95408946D01*
X92913632Y-95412000D01*
X92506368Y-95412000D01*
X92475365Y-95408946D01*
X92448548Y-95400811D01*
X92423831Y-95387601D01*
X92402173Y-95369827D01*
X92384399Y-95348169D01*
X92371189Y-95323452D01*
X92363054Y-95296635D01*
X92360000Y-95265632D01*
X92360000Y-92958368D01*
X92363054Y-92927365D01*
X92371189Y-92900548D01*
X92384399Y-92875831D01*
X92402173Y-92854173D01*
X92423831Y-92836399D01*
X92448548Y-92823189D01*
X92475365Y-92815054D01*
X92506368Y-92812000D01*
X92913632Y-92812000D01*
X92944635Y-92815054D01*
G37*
G36*
X94214635Y-92815054D02*
G01*
X94241452Y-92823189D01*
X94266169Y-92836399D01*
X94287827Y-92854173D01*
X94305601Y-92875831D01*
X94318811Y-92900548D01*
X94326946Y-92927365D01*
X94330000Y-92958368D01*
X94330000Y-95265632D01*
X94326946Y-95296635D01*
X94318811Y-95323452D01*
X94305601Y-95348169D01*
X94287827Y-95369827D01*
X94266169Y-95387601D01*
X94241452Y-95400811D01*
X94214635Y-95408946D01*
X94183632Y-95412000D01*
X93776368Y-95412000D01*
X93745365Y-95408946D01*
X93718548Y-95400811D01*
X93693831Y-95387601D01*
X93672173Y-95369827D01*
X93654399Y-95348169D01*
X93641189Y-95323452D01*
X93633054Y-95296635D01*
X93630000Y-95265632D01*
X93630000Y-92958368D01*
X93633054Y-92927365D01*
X93641189Y-92900548D01*
X93654399Y-92875831D01*
X93672173Y-92854173D01*
X93693831Y-92836399D01*
X93718548Y-92823189D01*
X93745365Y-92815054D01*
X93776368Y-92812000D01*
X94183632Y-92812000D01*
X94214635Y-92815054D01*
G37*
G36*
X96754635Y-92815054D02*
G01*
X96781452Y-92823189D01*
X96806169Y-92836399D01*
X96827827Y-92854173D01*
X96845601Y-92875831D01*
X96858811Y-92900548D01*
X96866946Y-92927365D01*
X96870000Y-92958368D01*
X96870000Y-95265632D01*
X96866946Y-95296635D01*
X96858811Y-95323452D01*
X96845601Y-95348169D01*
X96827827Y-95369827D01*
X96806169Y-95387601D01*
X96781452Y-95400811D01*
X96754635Y-95408946D01*
X96723632Y-95412000D01*
X96316368Y-95412000D01*
X96285365Y-95408946D01*
X96258548Y-95400811D01*
X96233831Y-95387601D01*
X96212173Y-95369827D01*
X96194399Y-95348169D01*
X96181189Y-95323452D01*
X96173054Y-95296635D01*
X96170000Y-95265632D01*
X96170000Y-92958368D01*
X96173054Y-92927365D01*
X96181189Y-92900548D01*
X96194399Y-92875831D01*
X96212173Y-92854173D01*
X96233831Y-92836399D01*
X96258548Y-92823189D01*
X96285365Y-92815054D01*
X96316368Y-92812000D01*
X96723632Y-92812000D01*
X96754635Y-92815054D01*
G37*
G36*
X98024635Y-92815054D02*
G01*
X98051452Y-92823189D01*
X98076169Y-92836399D01*
X98097827Y-92854173D01*
X98115601Y-92875831D01*
X98128811Y-92900548D01*
X98136946Y-92927365D01*
X98140000Y-92958368D01*
X98140000Y-95265632D01*
X98136946Y-95296635D01*
X98128811Y-95323452D01*
X98115601Y-95348169D01*
X98097827Y-95369827D01*
X98076169Y-95387601D01*
X98051452Y-95400811D01*
X98024635Y-95408946D01*
X97993632Y-95412000D01*
X97586368Y-95412000D01*
X97555365Y-95408946D01*
X97528548Y-95400811D01*
X97503831Y-95387601D01*
X97482173Y-95369827D01*
X97464399Y-95348169D01*
X97451189Y-95323452D01*
X97443054Y-95296635D01*
X97440000Y-95265632D01*
X97440000Y-92958368D01*
X97443054Y-92927365D01*
X97451189Y-92900548D01*
X97464399Y-92875831D01*
X97482173Y-92854173D01*
X97503831Y-92836399D01*
X97528548Y-92823189D01*
X97555365Y-92815054D01*
X97586368Y-92812000D01*
X97993632Y-92812000D01*
X98024635Y-92815054D01*
G37*
G36*
X99294635Y-92815054D02*
G01*
X99321452Y-92823189D01*
X99346169Y-92836399D01*
X99367827Y-92854173D01*
X99385601Y-92875831D01*
X99398811Y-92900548D01*
X99406946Y-92927365D01*
X99410000Y-92958368D01*
X99410000Y-95265632D01*
X99406946Y-95296635D01*
X99398811Y-95323452D01*
X99385601Y-95348169D01*
X99367827Y-95369827D01*
X99346169Y-95387601D01*
X99321452Y-95400811D01*
X99294635Y-95408946D01*
X99263632Y-95412000D01*
X98856368Y-95412000D01*
X98825365Y-95408946D01*
X98798548Y-95400811D01*
X98773831Y-95387601D01*
X98752173Y-95369827D01*
X98734399Y-95348169D01*
X98721189Y-95323452D01*
X98713054Y-95296635D01*
X98710000Y-95265632D01*
X98710000Y-92958368D01*
X98713054Y-92927365D01*
X98721189Y-92900548D01*
X98734399Y-92875831D01*
X98752173Y-92854173D01*
X98773831Y-92836399D01*
X98798548Y-92823189D01*
X98825365Y-92815054D01*
X98856368Y-92812000D01*
X99263632Y-92812000D01*
X99294635Y-92815054D01*
G37*
G36*
X100564635Y-92815054D02*
G01*
X100591452Y-92823189D01*
X100616169Y-92836399D01*
X100637827Y-92854173D01*
X100655601Y-92875831D01*
X100668811Y-92900548D01*
X100676946Y-92927365D01*
X100680000Y-92958368D01*
X100680000Y-95265632D01*
X100676946Y-95296635D01*
X100668811Y-95323452D01*
X100655601Y-95348169D01*
X100637827Y-95369827D01*
X100616169Y-95387601D01*
X100591452Y-95400811D01*
X100564635Y-95408946D01*
X100533632Y-95412000D01*
X100126368Y-95412000D01*
X100095365Y-95408946D01*
X100068548Y-95400811D01*
X100043831Y-95387601D01*
X100022173Y-95369827D01*
X100004399Y-95348169D01*
X99991189Y-95323452D01*
X99983054Y-95296635D01*
X99980000Y-95265632D01*
X99980000Y-92958368D01*
X99983054Y-92927365D01*
X99991189Y-92900548D01*
X100004399Y-92875831D01*
X100022173Y-92854173D01*
X100043831Y-92836399D01*
X100068548Y-92823189D01*
X100095365Y-92815054D01*
X100126368Y-92812000D01*
X100533632Y-92812000D01*
X100564635Y-92815054D01*
G37*
G36*
X101834635Y-92815054D02*
G01*
X101861452Y-92823189D01*
X101886169Y-92836399D01*
X101907827Y-92854173D01*
X101925601Y-92875831D01*
X101938811Y-92900548D01*
X101946946Y-92927365D01*
X101950000Y-92958368D01*
X101950000Y-95265632D01*
X101946946Y-95296635D01*
X101938811Y-95323452D01*
X101925601Y-95348169D01*
X101907827Y-95369827D01*
X101886169Y-95387601D01*
X101861452Y-95400811D01*
X101834635Y-95408946D01*
X101803632Y-95412000D01*
X101396368Y-95412000D01*
X101365365Y-95408946D01*
X101338548Y-95400811D01*
X101313831Y-95387601D01*
X101292173Y-95369827D01*
X101274399Y-95348169D01*
X101261189Y-95323452D01*
X101253054Y-95296635D01*
X101250000Y-95265632D01*
X101250000Y-92958368D01*
X101253054Y-92927365D01*
X101261189Y-92900548D01*
X101274399Y-92875831D01*
X101292173Y-92854173D01*
X101313831Y-92836399D01*
X101338548Y-92823189D01*
X101365365Y-92815054D01*
X101396368Y-92812000D01*
X101803632Y-92812000D01*
X101834635Y-92815054D01*
G37*
G36*
X103104635Y-92815054D02*
G01*
X103131452Y-92823189D01*
X103156169Y-92836399D01*
X103177827Y-92854173D01*
X103195601Y-92875831D01*
X103208811Y-92900548D01*
X103216946Y-92927365D01*
X103220000Y-92958368D01*
X103220000Y-95265632D01*
X103216946Y-95296635D01*
X103208811Y-95323452D01*
X103195601Y-95348169D01*
X103177827Y-95369827D01*
X103156169Y-95387601D01*
X103131452Y-95400811D01*
X103104635Y-95408946D01*
X103073632Y-95412000D01*
X102666368Y-95412000D01*
X102635365Y-95408946D01*
X102608548Y-95400811D01*
X102583831Y-95387601D01*
X102562173Y-95369827D01*
X102544399Y-95348169D01*
X102531189Y-95323452D01*
X102523054Y-95296635D01*
X102520000Y-95265632D01*
X102520000Y-92958368D01*
X102523054Y-92927365D01*
X102531189Y-92900548D01*
X102544399Y-92875831D01*
X102562173Y-92854173D01*
X102583831Y-92836399D01*
X102608548Y-92823189D01*
X102635365Y-92815054D01*
X102666368Y-92812000D01*
X103073632Y-92812000D01*
X103104635Y-92815054D01*
G37*
G36*
X119939737Y-93511267D02*
G01*
X119990119Y-93526550D01*
X120036546Y-93551366D01*
X120077239Y-93584761D01*
X120110634Y-93625454D01*
X120135450Y-93671881D01*
X120150733Y-93722263D01*
X120156200Y-93777767D01*
X120156200Y-94436233D01*
X120150733Y-94491737D01*
X120135450Y-94542119D01*
X120110634Y-94588546D01*
X120077239Y-94629239D01*
X120036546Y-94662634D01*
X119990119Y-94687450D01*
X119939737Y-94702733D01*
X119884233Y-94708200D01*
X118875767Y-94708200D01*
X118820263Y-94702733D01*
X118769881Y-94687450D01*
X118723454Y-94662634D01*
X118682761Y-94629239D01*
X118649366Y-94588546D01*
X118624550Y-94542119D01*
X118609267Y-94491737D01*
X118603800Y-94436233D01*
X118603800Y-93777767D01*
X118609267Y-93722263D01*
X118624550Y-93671881D01*
X118649366Y-93625454D01*
X118682761Y-93584761D01*
X118723454Y-93551366D01*
X118769881Y-93526550D01*
X118820263Y-93511267D01*
X118875767Y-93505800D01*
X119884233Y-93505800D01*
X119939737Y-93511267D01*
G37*
G36*
X158039737Y-93511267D02*
G01*
X158090119Y-93526550D01*
X158136546Y-93551366D01*
X158177239Y-93584761D01*
X158210634Y-93625454D01*
X158235450Y-93671881D01*
X158250733Y-93722263D01*
X158256200Y-93777767D01*
X158256200Y-94436233D01*
X158250733Y-94491737D01*
X158235450Y-94542119D01*
X158210634Y-94588546D01*
X158177239Y-94629239D01*
X158136546Y-94662634D01*
X158090119Y-94687450D01*
X158039737Y-94702733D01*
X157984233Y-94708200D01*
X156975767Y-94708200D01*
X156920263Y-94702733D01*
X156869881Y-94687450D01*
X156823454Y-94662634D01*
X156782761Y-94629239D01*
X156749366Y-94588546D01*
X156724550Y-94542119D01*
X156709267Y-94491737D01*
X156703800Y-94436233D01*
X156703800Y-93777767D01*
X156709267Y-93722263D01*
X156724550Y-93671881D01*
X156749366Y-93625454D01*
X156782761Y-93584761D01*
X156823454Y-93551366D01*
X156869881Y-93526550D01*
X156920263Y-93511267D01*
X156975767Y-93505800D01*
X157984233Y-93505800D01*
X158039737Y-93511267D01*
G37*
G36*
X140259737Y-93511267D02*
G01*
X140310119Y-93526550D01*
X140356546Y-93551366D01*
X140397239Y-93584761D01*
X140430634Y-93625454D01*
X140455450Y-93671881D01*
X140470733Y-93722263D01*
X140476200Y-93777767D01*
X140476200Y-94436233D01*
X140470733Y-94491737D01*
X140455450Y-94542119D01*
X140430634Y-94588546D01*
X140397239Y-94629239D01*
X140356546Y-94662634D01*
X140310119Y-94687450D01*
X140259737Y-94702733D01*
X140204233Y-94708200D01*
X139195767Y-94708200D01*
X139140263Y-94702733D01*
X139089881Y-94687450D01*
X139043454Y-94662634D01*
X139002761Y-94629239D01*
X138969366Y-94588546D01*
X138944550Y-94542119D01*
X138929267Y-94491737D01*
X138923800Y-94436233D01*
X138923800Y-93777767D01*
X138929267Y-93722263D01*
X138944550Y-93671881D01*
X138969366Y-93625454D01*
X139002761Y-93584761D01*
X139043454Y-93551366D01*
X139089881Y-93526550D01*
X139140263Y-93511267D01*
X139195767Y-93505800D01*
X140204233Y-93505800D01*
X140259737Y-93511267D01*
G37*
G36*
X105969737Y-93511267D02*
G01*
X106020119Y-93526550D01*
X106066546Y-93551366D01*
X106107239Y-93584761D01*
X106140634Y-93625454D01*
X106165450Y-93671881D01*
X106180733Y-93722263D01*
X106186200Y-93777767D01*
X106186200Y-94436233D01*
X106180733Y-94491737D01*
X106165450Y-94542119D01*
X106140634Y-94588546D01*
X106107239Y-94629239D01*
X106066546Y-94662634D01*
X106020119Y-94687450D01*
X105969737Y-94702733D01*
X105914233Y-94708200D01*
X104905767Y-94708200D01*
X104850263Y-94702733D01*
X104799881Y-94687450D01*
X104753454Y-94662634D01*
X104712761Y-94629239D01*
X104679366Y-94588546D01*
X104654550Y-94542119D01*
X104639267Y-94491737D01*
X104633800Y-94436233D01*
X104633800Y-93777767D01*
X104639267Y-93722263D01*
X104654550Y-93671881D01*
X104679366Y-93625454D01*
X104712761Y-93584761D01*
X104753454Y-93551366D01*
X104799881Y-93526550D01*
X104850263Y-93511267D01*
X104905767Y-93505800D01*
X105914233Y-93505800D01*
X105969737Y-93511267D01*
G37*
G36*
X85649737Y-93511267D02*
G01*
X85700119Y-93526550D01*
X85746546Y-93551366D01*
X85787239Y-93584761D01*
X85820634Y-93625454D01*
X85845450Y-93671881D01*
X85860733Y-93722263D01*
X85866200Y-93777767D01*
X85866200Y-94436233D01*
X85860733Y-94491737D01*
X85845450Y-94542119D01*
X85820634Y-94588546D01*
X85787239Y-94629239D01*
X85746546Y-94662634D01*
X85700119Y-94687450D01*
X85649737Y-94702733D01*
X85594233Y-94708200D01*
X84585767Y-94708200D01*
X84530263Y-94702733D01*
X84479881Y-94687450D01*
X84433454Y-94662634D01*
X84392761Y-94629239D01*
X84359366Y-94588546D01*
X84334550Y-94542119D01*
X84319267Y-94491737D01*
X84313800Y-94436233D01*
X84313800Y-93777767D01*
X84319267Y-93722263D01*
X84334550Y-93671881D01*
X84359366Y-93625454D01*
X84392761Y-93584761D01*
X84433454Y-93551366D01*
X84479881Y-93526550D01*
X84530263Y-93511267D01*
X84585767Y-93505800D01*
X85594233Y-93505800D01*
X85649737Y-93511267D01*
G37*
G36*
X140259737Y-91811267D02*
G01*
X140310119Y-91826550D01*
X140356546Y-91851366D01*
X140397239Y-91884761D01*
X140430634Y-91925454D01*
X140455450Y-91971881D01*
X140470733Y-92022263D01*
X140476200Y-92077767D01*
X140476200Y-92736233D01*
X140470733Y-92791737D01*
X140455450Y-92842119D01*
X140430634Y-92888546D01*
X140397239Y-92929239D01*
X140356546Y-92962634D01*
X140310119Y-92987450D01*
X140259737Y-93002733D01*
X140204233Y-93008200D01*
X139195767Y-93008200D01*
X139140263Y-93002733D01*
X139089881Y-92987450D01*
X139043454Y-92962634D01*
X139002761Y-92929239D01*
X138969366Y-92888546D01*
X138944550Y-92842119D01*
X138929267Y-92791737D01*
X138923800Y-92736233D01*
X138923800Y-92077767D01*
X138929267Y-92022263D01*
X138944550Y-91971881D01*
X138969366Y-91925454D01*
X139002761Y-91884761D01*
X139043454Y-91851366D01*
X139089881Y-91826550D01*
X139140263Y-91811267D01*
X139195767Y-91805800D01*
X140204233Y-91805800D01*
X140259737Y-91811267D01*
G37*
G36*
X158039737Y-91811267D02*
G01*
X158090119Y-91826550D01*
X158136546Y-91851366D01*
X158177239Y-91884761D01*
X158210634Y-91925454D01*
X158235450Y-91971881D01*
X158250733Y-92022263D01*
X158256200Y-92077767D01*
X158256200Y-92736233D01*
X158250733Y-92791737D01*
X158235450Y-92842119D01*
X158210634Y-92888546D01*
X158177239Y-92929239D01*
X158136546Y-92962634D01*
X158090119Y-92987450D01*
X158039737Y-93002733D01*
X157984233Y-93008200D01*
X156975767Y-93008200D01*
X156920263Y-93002733D01*
X156869881Y-92987450D01*
X156823454Y-92962634D01*
X156782761Y-92929239D01*
X156749366Y-92888546D01*
X156724550Y-92842119D01*
X156709267Y-92791737D01*
X156703800Y-92736233D01*
X156703800Y-92077767D01*
X156709267Y-92022263D01*
X156724550Y-91971881D01*
X156749366Y-91925454D01*
X156782761Y-91884761D01*
X156823454Y-91851366D01*
X156869881Y-91826550D01*
X156920263Y-91811267D01*
X156975767Y-91805800D01*
X157984233Y-91805800D01*
X158039737Y-91811267D01*
G37*
G36*
X119939737Y-91811267D02*
G01*
X119990119Y-91826550D01*
X120036546Y-91851366D01*
X120077239Y-91884761D01*
X120110634Y-91925454D01*
X120135450Y-91971881D01*
X120150733Y-92022263D01*
X120156200Y-92077767D01*
X120156200Y-92736233D01*
X120150733Y-92791737D01*
X120135450Y-92842119D01*
X120110634Y-92888546D01*
X120077239Y-92929239D01*
X120036546Y-92962634D01*
X119990119Y-92987450D01*
X119939737Y-93002733D01*
X119884233Y-93008200D01*
X118875767Y-93008200D01*
X118820263Y-93002733D01*
X118769881Y-92987450D01*
X118723454Y-92962634D01*
X118682761Y-92929239D01*
X118649366Y-92888546D01*
X118624550Y-92842119D01*
X118609267Y-92791737D01*
X118603800Y-92736233D01*
X118603800Y-92077767D01*
X118609267Y-92022263D01*
X118624550Y-91971881D01*
X118649366Y-91925454D01*
X118682761Y-91884761D01*
X118723454Y-91851366D01*
X118769881Y-91826550D01*
X118820263Y-91811267D01*
X118875767Y-91805800D01*
X119884233Y-91805800D01*
X119939737Y-91811267D01*
G37*
G36*
X105969737Y-91811267D02*
G01*
X106020119Y-91826550D01*
X106066546Y-91851366D01*
X106107239Y-91884761D01*
X106140634Y-91925454D01*
X106165450Y-91971881D01*
X106180733Y-92022263D01*
X106186200Y-92077767D01*
X106186200Y-92736233D01*
X106180733Y-92791737D01*
X106165450Y-92842119D01*
X106140634Y-92888546D01*
X106107239Y-92929239D01*
X106066546Y-92962634D01*
X106020119Y-92987450D01*
X105969737Y-93002733D01*
X105914233Y-93008200D01*
X104905767Y-93008200D01*
X104850263Y-93002733D01*
X104799881Y-92987450D01*
X104753454Y-92962634D01*
X104712761Y-92929239D01*
X104679366Y-92888546D01*
X104654550Y-92842119D01*
X104639267Y-92791737D01*
X104633800Y-92736233D01*
X104633800Y-92077767D01*
X104639267Y-92022263D01*
X104654550Y-91971881D01*
X104679366Y-91925454D01*
X104712761Y-91884761D01*
X104753454Y-91851366D01*
X104799881Y-91826550D01*
X104850263Y-91811267D01*
X104905767Y-91805800D01*
X105914233Y-91805800D01*
X105969737Y-91811267D01*
G37*
G36*
X85649737Y-91811267D02*
G01*
X85700119Y-91826550D01*
X85746546Y-91851366D01*
X85787239Y-91884761D01*
X85820634Y-91925454D01*
X85845450Y-91971881D01*
X85860733Y-92022263D01*
X85866200Y-92077767D01*
X85866200Y-92736233D01*
X85860733Y-92791737D01*
X85845450Y-92842119D01*
X85820634Y-92888546D01*
X85787239Y-92929239D01*
X85746546Y-92962634D01*
X85700119Y-92987450D01*
X85649737Y-93002733D01*
X85594233Y-93008200D01*
X84585767Y-93008200D01*
X84530263Y-93002733D01*
X84479881Y-92987450D01*
X84433454Y-92962634D01*
X84392761Y-92929239D01*
X84359366Y-92888546D01*
X84334550Y-92842119D01*
X84319267Y-92791737D01*
X84313800Y-92736233D01*
X84313800Y-92077767D01*
X84319267Y-92022263D01*
X84334550Y-91971881D01*
X84359366Y-91925454D01*
X84392761Y-91884761D01*
X84433454Y-91851366D01*
X84479881Y-91826550D01*
X84530263Y-91811267D01*
X84585767Y-91805800D01*
X85594233Y-91805800D01*
X85649737Y-91811267D01*
G37*
G36*
X101834635Y-83915054D02*
G01*
X101861452Y-83923189D01*
X101886169Y-83936399D01*
X101907827Y-83954173D01*
X101925601Y-83975831D01*
X101938811Y-84000548D01*
X101946946Y-84027365D01*
X101950000Y-84058368D01*
X101950000Y-86365632D01*
X101946946Y-86396635D01*
X101938811Y-86423452D01*
X101925601Y-86448169D01*
X101907827Y-86469827D01*
X101886169Y-86487601D01*
X101861452Y-86500811D01*
X101834635Y-86508946D01*
X101803632Y-86512000D01*
X101396368Y-86512000D01*
X101365365Y-86508946D01*
X101338548Y-86500811D01*
X101313831Y-86487601D01*
X101292173Y-86469827D01*
X101274399Y-86448169D01*
X101261189Y-86423452D01*
X101253054Y-86396635D01*
X101250000Y-86365632D01*
X101250000Y-84058368D01*
X101253054Y-84027365D01*
X101261189Y-84000548D01*
X101274399Y-83975831D01*
X101292173Y-83954173D01*
X101313831Y-83936399D01*
X101338548Y-83923189D01*
X101365365Y-83915054D01*
X101396368Y-83912000D01*
X101803632Y-83912000D01*
X101834635Y-83915054D01*
G37*
G36*
X103104635Y-83915054D02*
G01*
X103131452Y-83923189D01*
X103156169Y-83936399D01*
X103177827Y-83954173D01*
X103195601Y-83975831D01*
X103208811Y-84000548D01*
X103216946Y-84027365D01*
X103220000Y-84058368D01*
X103220000Y-86365632D01*
X103216946Y-86396635D01*
X103208811Y-86423452D01*
X103195601Y-86448169D01*
X103177827Y-86469827D01*
X103156169Y-86487601D01*
X103131452Y-86500811D01*
X103104635Y-86508946D01*
X103073632Y-86512000D01*
X102666368Y-86512000D01*
X102635365Y-86508946D01*
X102608548Y-86500811D01*
X102583831Y-86487601D01*
X102562173Y-86469827D01*
X102544399Y-86448169D01*
X102531189Y-86423452D01*
X102523054Y-86396635D01*
X102520000Y-86365632D01*
X102520000Y-84058368D01*
X102523054Y-84027365D01*
X102531189Y-84000548D01*
X102544399Y-83975831D01*
X102562173Y-83954173D01*
X102583831Y-83936399D01*
X102608548Y-83923189D01*
X102635365Y-83915054D01*
X102666368Y-83912000D01*
X103073632Y-83912000D01*
X103104635Y-83915054D01*
G37*
G36*
X122154635Y-83915054D02*
G01*
X122181452Y-83923189D01*
X122206169Y-83936399D01*
X122227827Y-83954173D01*
X122245601Y-83975831D01*
X122258811Y-84000548D01*
X122266946Y-84027365D01*
X122270000Y-84058368D01*
X122270000Y-86365632D01*
X122266946Y-86396635D01*
X122258811Y-86423452D01*
X122245601Y-86448169D01*
X122227827Y-86469827D01*
X122206169Y-86487601D01*
X122181452Y-86500811D01*
X122154635Y-86508946D01*
X122123632Y-86512000D01*
X121716368Y-86512000D01*
X121685365Y-86508946D01*
X121658548Y-86500811D01*
X121633831Y-86487601D01*
X121612173Y-86469827D01*
X121594399Y-86448169D01*
X121581189Y-86423452D01*
X121573054Y-86396635D01*
X121570000Y-86365632D01*
X121570000Y-84058368D01*
X121573054Y-84027365D01*
X121581189Y-84000548D01*
X121594399Y-83975831D01*
X121612173Y-83954173D01*
X121633831Y-83936399D01*
X121658548Y-83923189D01*
X121685365Y-83915054D01*
X121716368Y-83912000D01*
X122123632Y-83912000D01*
X122154635Y-83915054D01*
G37*
G36*
X123424635Y-83915054D02*
G01*
X123451452Y-83923189D01*
X123476169Y-83936399D01*
X123497827Y-83954173D01*
X123515601Y-83975831D01*
X123528811Y-84000548D01*
X123536946Y-84027365D01*
X123540000Y-84058368D01*
X123540000Y-86365632D01*
X123536946Y-86396635D01*
X123528811Y-86423452D01*
X123515601Y-86448169D01*
X123497827Y-86469827D01*
X123476169Y-86487601D01*
X123451452Y-86500811D01*
X123424635Y-86508946D01*
X123393632Y-86512000D01*
X122986368Y-86512000D01*
X122955365Y-86508946D01*
X122928548Y-86500811D01*
X122903831Y-86487601D01*
X122882173Y-86469827D01*
X122864399Y-86448169D01*
X122851189Y-86423452D01*
X122843054Y-86396635D01*
X122840000Y-86365632D01*
X122840000Y-84058368D01*
X122843054Y-84027365D01*
X122851189Y-84000548D01*
X122864399Y-83975831D01*
X122882173Y-83954173D01*
X122903831Y-83936399D01*
X122928548Y-83923189D01*
X122955365Y-83915054D01*
X122986368Y-83912000D01*
X123393632Y-83912000D01*
X123424635Y-83915054D01*
G37*
G36*
X124694635Y-83915054D02*
G01*
X124721452Y-83923189D01*
X124746169Y-83936399D01*
X124767827Y-83954173D01*
X124785601Y-83975831D01*
X124798811Y-84000548D01*
X124806946Y-84027365D01*
X124810000Y-84058368D01*
X124810000Y-86365632D01*
X124806946Y-86396635D01*
X124798811Y-86423452D01*
X124785601Y-86448169D01*
X124767827Y-86469827D01*
X124746169Y-86487601D01*
X124721452Y-86500811D01*
X124694635Y-86508946D01*
X124663632Y-86512000D01*
X124256368Y-86512000D01*
X124225365Y-86508946D01*
X124198548Y-86500811D01*
X124173831Y-86487601D01*
X124152173Y-86469827D01*
X124134399Y-86448169D01*
X124121189Y-86423452D01*
X124113054Y-86396635D01*
X124110000Y-86365632D01*
X124110000Y-84058368D01*
X124113054Y-84027365D01*
X124121189Y-84000548D01*
X124134399Y-83975831D01*
X124152173Y-83954173D01*
X124173831Y-83936399D01*
X124198548Y-83923189D01*
X124225365Y-83915054D01*
X124256368Y-83912000D01*
X124663632Y-83912000D01*
X124694635Y-83915054D01*
G37*
G36*
X125964635Y-83915054D02*
G01*
X125991452Y-83923189D01*
X126016169Y-83936399D01*
X126037827Y-83954173D01*
X126055601Y-83975831D01*
X126068811Y-84000548D01*
X126076946Y-84027365D01*
X126080000Y-84058368D01*
X126080000Y-86365632D01*
X126076946Y-86396635D01*
X126068811Y-86423452D01*
X126055601Y-86448169D01*
X126037827Y-86469827D01*
X126016169Y-86487601D01*
X125991452Y-86500811D01*
X125964635Y-86508946D01*
X125933632Y-86512000D01*
X125526368Y-86512000D01*
X125495365Y-86508946D01*
X125468548Y-86500811D01*
X125443831Y-86487601D01*
X125422173Y-86469827D01*
X125404399Y-86448169D01*
X125391189Y-86423452D01*
X125383054Y-86396635D01*
X125380000Y-86365632D01*
X125380000Y-84058368D01*
X125383054Y-84027365D01*
X125391189Y-84000548D01*
X125404399Y-83975831D01*
X125422173Y-83954173D01*
X125443831Y-83936399D01*
X125468548Y-83923189D01*
X125495365Y-83915054D01*
X125526368Y-83912000D01*
X125933632Y-83912000D01*
X125964635Y-83915054D01*
G37*
G36*
X127234635Y-83915054D02*
G01*
X127261452Y-83923189D01*
X127286169Y-83936399D01*
X127307827Y-83954173D01*
X127325601Y-83975831D01*
X127338811Y-84000548D01*
X127346946Y-84027365D01*
X127350000Y-84058368D01*
X127350000Y-86365632D01*
X127346946Y-86396635D01*
X127338811Y-86423452D01*
X127325601Y-86448169D01*
X127307827Y-86469827D01*
X127286169Y-86487601D01*
X127261452Y-86500811D01*
X127234635Y-86508946D01*
X127203632Y-86512000D01*
X126796368Y-86512000D01*
X126765365Y-86508946D01*
X126738548Y-86500811D01*
X126713831Y-86487601D01*
X126692173Y-86469827D01*
X126674399Y-86448169D01*
X126661189Y-86423452D01*
X126653054Y-86396635D01*
X126650000Y-86365632D01*
X126650000Y-84058368D01*
X126653054Y-84027365D01*
X126661189Y-84000548D01*
X126674399Y-83975831D01*
X126692173Y-83954173D01*
X126713831Y-83936399D01*
X126738548Y-83923189D01*
X126765365Y-83915054D01*
X126796368Y-83912000D01*
X127203632Y-83912000D01*
X127234635Y-83915054D01*
G37*
G36*
X128504635Y-83915054D02*
G01*
X128531452Y-83923189D01*
X128556169Y-83936399D01*
X128577827Y-83954173D01*
X128595601Y-83975831D01*
X128608811Y-84000548D01*
X128616946Y-84027365D01*
X128620000Y-84058368D01*
X128620000Y-86365632D01*
X128616946Y-86396635D01*
X128608811Y-86423452D01*
X128595601Y-86448169D01*
X128577827Y-86469827D01*
X128556169Y-86487601D01*
X128531452Y-86500811D01*
X128504635Y-86508946D01*
X128473632Y-86512000D01*
X128066368Y-86512000D01*
X128035365Y-86508946D01*
X128008548Y-86500811D01*
X127983831Y-86487601D01*
X127962173Y-86469827D01*
X127944399Y-86448169D01*
X127931189Y-86423452D01*
X127923054Y-86396635D01*
X127920000Y-86365632D01*
X127920000Y-84058368D01*
X127923054Y-84027365D01*
X127931189Y-84000548D01*
X127944399Y-83975831D01*
X127962173Y-83954173D01*
X127983831Y-83936399D01*
X128008548Y-83923189D01*
X128035365Y-83915054D01*
X128066368Y-83912000D01*
X128473632Y-83912000D01*
X128504635Y-83915054D01*
G37*
G36*
X131044635Y-83915054D02*
G01*
X131071452Y-83923189D01*
X131096169Y-83936399D01*
X131117827Y-83954173D01*
X131135601Y-83975831D01*
X131148811Y-84000548D01*
X131156946Y-84027365D01*
X131160000Y-84058368D01*
X131160000Y-86365632D01*
X131156946Y-86396635D01*
X131148811Y-86423452D01*
X131135601Y-86448169D01*
X131117827Y-86469827D01*
X131096169Y-86487601D01*
X131071452Y-86500811D01*
X131044635Y-86508946D01*
X131013632Y-86512000D01*
X130606368Y-86512000D01*
X130575365Y-86508946D01*
X130548548Y-86500811D01*
X130523831Y-86487601D01*
X130502173Y-86469827D01*
X130484399Y-86448169D01*
X130471189Y-86423452D01*
X130463054Y-86396635D01*
X130460000Y-86365632D01*
X130460000Y-84058368D01*
X130463054Y-84027365D01*
X130471189Y-84000548D01*
X130484399Y-83975831D01*
X130502173Y-83954173D01*
X130523831Y-83936399D01*
X130548548Y-83923189D01*
X130575365Y-83915054D01*
X130606368Y-83912000D01*
X131013632Y-83912000D01*
X131044635Y-83915054D01*
G37*
G36*
X132314635Y-83915054D02*
G01*
X132341452Y-83923189D01*
X132366169Y-83936399D01*
X132387827Y-83954173D01*
X132405601Y-83975831D01*
X132418811Y-84000548D01*
X132426946Y-84027365D01*
X132430000Y-84058368D01*
X132430000Y-86365632D01*
X132426946Y-86396635D01*
X132418811Y-86423452D01*
X132405601Y-86448169D01*
X132387827Y-86469827D01*
X132366169Y-86487601D01*
X132341452Y-86500811D01*
X132314635Y-86508946D01*
X132283632Y-86512000D01*
X131876368Y-86512000D01*
X131845365Y-86508946D01*
X131818548Y-86500811D01*
X131793831Y-86487601D01*
X131772173Y-86469827D01*
X131754399Y-86448169D01*
X131741189Y-86423452D01*
X131733054Y-86396635D01*
X131730000Y-86365632D01*
X131730000Y-84058368D01*
X131733054Y-84027365D01*
X131741189Y-84000548D01*
X131754399Y-83975831D01*
X131772173Y-83954173D01*
X131793831Y-83936399D01*
X131818548Y-83923189D01*
X131845365Y-83915054D01*
X131876368Y-83912000D01*
X132283632Y-83912000D01*
X132314635Y-83915054D01*
G37*
G36*
X87864635Y-83915054D02*
G01*
X87891452Y-83923189D01*
X87916169Y-83936399D01*
X87937827Y-83954173D01*
X87955601Y-83975831D01*
X87968811Y-84000548D01*
X87976946Y-84027365D01*
X87980000Y-84058368D01*
X87980000Y-86365632D01*
X87976946Y-86396635D01*
X87968811Y-86423452D01*
X87955601Y-86448169D01*
X87937827Y-86469827D01*
X87916169Y-86487601D01*
X87891452Y-86500811D01*
X87864635Y-86508946D01*
X87833632Y-86512000D01*
X87426368Y-86512000D01*
X87395365Y-86508946D01*
X87368548Y-86500811D01*
X87343831Y-86487601D01*
X87322173Y-86469827D01*
X87304399Y-86448169D01*
X87291189Y-86423452D01*
X87283054Y-86396635D01*
X87280000Y-86365632D01*
X87280000Y-84058368D01*
X87283054Y-84027365D01*
X87291189Y-84000548D01*
X87304399Y-83975831D01*
X87322173Y-83954173D01*
X87343831Y-83936399D01*
X87368548Y-83923189D01*
X87395365Y-83915054D01*
X87426368Y-83912000D01*
X87833632Y-83912000D01*
X87864635Y-83915054D01*
G37*
G36*
X134854635Y-83915054D02*
G01*
X134881452Y-83923189D01*
X134906169Y-83936399D01*
X134927827Y-83954173D01*
X134945601Y-83975831D01*
X134958811Y-84000548D01*
X134966946Y-84027365D01*
X134970000Y-84058368D01*
X134970000Y-86365632D01*
X134966946Y-86396635D01*
X134958811Y-86423452D01*
X134945601Y-86448169D01*
X134927827Y-86469827D01*
X134906169Y-86487601D01*
X134881452Y-86500811D01*
X134854635Y-86508946D01*
X134823632Y-86512000D01*
X134416368Y-86512000D01*
X134385365Y-86508946D01*
X134358548Y-86500811D01*
X134333831Y-86487601D01*
X134312173Y-86469827D01*
X134294399Y-86448169D01*
X134281189Y-86423452D01*
X134273054Y-86396635D01*
X134270000Y-86365632D01*
X134270000Y-84058368D01*
X134273054Y-84027365D01*
X134281189Y-84000548D01*
X134294399Y-83975831D01*
X134312173Y-83954173D01*
X134333831Y-83936399D01*
X134358548Y-83923189D01*
X134385365Y-83915054D01*
X134416368Y-83912000D01*
X134823632Y-83912000D01*
X134854635Y-83915054D01*
G37*
G36*
X136124635Y-83915054D02*
G01*
X136151452Y-83923189D01*
X136176169Y-83936399D01*
X136197827Y-83954173D01*
X136215601Y-83975831D01*
X136228811Y-84000548D01*
X136236946Y-84027365D01*
X136240000Y-84058368D01*
X136240000Y-86365632D01*
X136236946Y-86396635D01*
X136228811Y-86423452D01*
X136215601Y-86448169D01*
X136197827Y-86469827D01*
X136176169Y-86487601D01*
X136151452Y-86500811D01*
X136124635Y-86508946D01*
X136093632Y-86512000D01*
X135686368Y-86512000D01*
X135655365Y-86508946D01*
X135628548Y-86500811D01*
X135603831Y-86487601D01*
X135582173Y-86469827D01*
X135564399Y-86448169D01*
X135551189Y-86423452D01*
X135543054Y-86396635D01*
X135540000Y-86365632D01*
X135540000Y-84058368D01*
X135543054Y-84027365D01*
X135551189Y-84000548D01*
X135564399Y-83975831D01*
X135582173Y-83954173D01*
X135603831Y-83936399D01*
X135628548Y-83923189D01*
X135655365Y-83915054D01*
X135686368Y-83912000D01*
X136093632Y-83912000D01*
X136124635Y-83915054D01*
G37*
G36*
X137394635Y-83915054D02*
G01*
X137421452Y-83923189D01*
X137446169Y-83936399D01*
X137467827Y-83954173D01*
X137485601Y-83975831D01*
X137498811Y-84000548D01*
X137506946Y-84027365D01*
X137510000Y-84058368D01*
X137510000Y-86365632D01*
X137506946Y-86396635D01*
X137498811Y-86423452D01*
X137485601Y-86448169D01*
X137467827Y-86469827D01*
X137446169Y-86487601D01*
X137421452Y-86500811D01*
X137394635Y-86508946D01*
X137363632Y-86512000D01*
X136956368Y-86512000D01*
X136925365Y-86508946D01*
X136898548Y-86500811D01*
X136873831Y-86487601D01*
X136852173Y-86469827D01*
X136834399Y-86448169D01*
X136821189Y-86423452D01*
X136813054Y-86396635D01*
X136810000Y-86365632D01*
X136810000Y-84058368D01*
X136813054Y-84027365D01*
X136821189Y-84000548D01*
X136834399Y-83975831D01*
X136852173Y-83954173D01*
X136873831Y-83936399D01*
X136898548Y-83923189D01*
X136925365Y-83915054D01*
X136956368Y-83912000D01*
X137363632Y-83912000D01*
X137394635Y-83915054D01*
G37*
G36*
X89134635Y-83915054D02*
G01*
X89161452Y-83923189D01*
X89186169Y-83936399D01*
X89207827Y-83954173D01*
X89225601Y-83975831D01*
X89238811Y-84000548D01*
X89246946Y-84027365D01*
X89250000Y-84058368D01*
X89250000Y-86365632D01*
X89246946Y-86396635D01*
X89238811Y-86423452D01*
X89225601Y-86448169D01*
X89207827Y-86469827D01*
X89186169Y-86487601D01*
X89161452Y-86500811D01*
X89134635Y-86508946D01*
X89103632Y-86512000D01*
X88696368Y-86512000D01*
X88665365Y-86508946D01*
X88638548Y-86500811D01*
X88613831Y-86487601D01*
X88592173Y-86469827D01*
X88574399Y-86448169D01*
X88561189Y-86423452D01*
X88553054Y-86396635D01*
X88550000Y-86365632D01*
X88550000Y-84058368D01*
X88553054Y-84027365D01*
X88561189Y-84000548D01*
X88574399Y-83975831D01*
X88592173Y-83954173D01*
X88613831Y-83936399D01*
X88638548Y-83923189D01*
X88665365Y-83915054D01*
X88696368Y-83912000D01*
X89103632Y-83912000D01*
X89134635Y-83915054D01*
G37*
G36*
X90404635Y-83915054D02*
G01*
X90431452Y-83923189D01*
X90456169Y-83936399D01*
X90477827Y-83954173D01*
X90495601Y-83975831D01*
X90508811Y-84000548D01*
X90516946Y-84027365D01*
X90520000Y-84058368D01*
X90520000Y-86365632D01*
X90516946Y-86396635D01*
X90508811Y-86423452D01*
X90495601Y-86448169D01*
X90477827Y-86469827D01*
X90456169Y-86487601D01*
X90431452Y-86500811D01*
X90404635Y-86508946D01*
X90373632Y-86512000D01*
X89966368Y-86512000D01*
X89935365Y-86508946D01*
X89908548Y-86500811D01*
X89883831Y-86487601D01*
X89862173Y-86469827D01*
X89844399Y-86448169D01*
X89831189Y-86423452D01*
X89823054Y-86396635D01*
X89820000Y-86365632D01*
X89820000Y-84058368D01*
X89823054Y-84027365D01*
X89831189Y-84000548D01*
X89844399Y-83975831D01*
X89862173Y-83954173D01*
X89883831Y-83936399D01*
X89908548Y-83923189D01*
X89935365Y-83915054D01*
X89966368Y-83912000D01*
X90373632Y-83912000D01*
X90404635Y-83915054D01*
G37*
G36*
X91674635Y-83915054D02*
G01*
X91701452Y-83923189D01*
X91726169Y-83936399D01*
X91747827Y-83954173D01*
X91765601Y-83975831D01*
X91778811Y-84000548D01*
X91786946Y-84027365D01*
X91790000Y-84058368D01*
X91790000Y-86365632D01*
X91786946Y-86396635D01*
X91778811Y-86423452D01*
X91765601Y-86448169D01*
X91747827Y-86469827D01*
X91726169Y-86487601D01*
X91701452Y-86500811D01*
X91674635Y-86508946D01*
X91643632Y-86512000D01*
X91236368Y-86512000D01*
X91205365Y-86508946D01*
X91178548Y-86500811D01*
X91153831Y-86487601D01*
X91132173Y-86469827D01*
X91114399Y-86448169D01*
X91101189Y-86423452D01*
X91093054Y-86396635D01*
X91090000Y-86365632D01*
X91090000Y-84058368D01*
X91093054Y-84027365D01*
X91101189Y-84000548D01*
X91114399Y-83975831D01*
X91132173Y-83954173D01*
X91153831Y-83936399D01*
X91178548Y-83923189D01*
X91205365Y-83915054D01*
X91236368Y-83912000D01*
X91643632Y-83912000D01*
X91674635Y-83915054D01*
G37*
G36*
X92944635Y-83915054D02*
G01*
X92971452Y-83923189D01*
X92996169Y-83936399D01*
X93017827Y-83954173D01*
X93035601Y-83975831D01*
X93048811Y-84000548D01*
X93056946Y-84027365D01*
X93060000Y-84058368D01*
X93060000Y-86365632D01*
X93056946Y-86396635D01*
X93048811Y-86423452D01*
X93035601Y-86448169D01*
X93017827Y-86469827D01*
X92996169Y-86487601D01*
X92971452Y-86500811D01*
X92944635Y-86508946D01*
X92913632Y-86512000D01*
X92506368Y-86512000D01*
X92475365Y-86508946D01*
X92448548Y-86500811D01*
X92423831Y-86487601D01*
X92402173Y-86469827D01*
X92384399Y-86448169D01*
X92371189Y-86423452D01*
X92363054Y-86396635D01*
X92360000Y-86365632D01*
X92360000Y-84058368D01*
X92363054Y-84027365D01*
X92371189Y-84000548D01*
X92384399Y-83975831D01*
X92402173Y-83954173D01*
X92423831Y-83936399D01*
X92448548Y-83923189D01*
X92475365Y-83915054D01*
X92506368Y-83912000D01*
X92913632Y-83912000D01*
X92944635Y-83915054D01*
G37*
G36*
X94214635Y-83915054D02*
G01*
X94241452Y-83923189D01*
X94266169Y-83936399D01*
X94287827Y-83954173D01*
X94305601Y-83975831D01*
X94318811Y-84000548D01*
X94326946Y-84027365D01*
X94330000Y-84058368D01*
X94330000Y-86365632D01*
X94326946Y-86396635D01*
X94318811Y-86423452D01*
X94305601Y-86448169D01*
X94287827Y-86469827D01*
X94266169Y-86487601D01*
X94241452Y-86500811D01*
X94214635Y-86508946D01*
X94183632Y-86512000D01*
X93776368Y-86512000D01*
X93745365Y-86508946D01*
X93718548Y-86500811D01*
X93693831Y-86487601D01*
X93672173Y-86469827D01*
X93654399Y-86448169D01*
X93641189Y-86423452D01*
X93633054Y-86396635D01*
X93630000Y-86365632D01*
X93630000Y-84058368D01*
X93633054Y-84027365D01*
X93641189Y-84000548D01*
X93654399Y-83975831D01*
X93672173Y-83954173D01*
X93693831Y-83936399D01*
X93718548Y-83923189D01*
X93745365Y-83915054D01*
X93776368Y-83912000D01*
X94183632Y-83912000D01*
X94214635Y-83915054D01*
G37*
G36*
X96754635Y-83915054D02*
G01*
X96781452Y-83923189D01*
X96806169Y-83936399D01*
X96827827Y-83954173D01*
X96845601Y-83975831D01*
X96858811Y-84000548D01*
X96866946Y-84027365D01*
X96870000Y-84058368D01*
X96870000Y-86365632D01*
X96866946Y-86396635D01*
X96858811Y-86423452D01*
X96845601Y-86448169D01*
X96827827Y-86469827D01*
X96806169Y-86487601D01*
X96781452Y-86500811D01*
X96754635Y-86508946D01*
X96723632Y-86512000D01*
X96316368Y-86512000D01*
X96285365Y-86508946D01*
X96258548Y-86500811D01*
X96233831Y-86487601D01*
X96212173Y-86469827D01*
X96194399Y-86448169D01*
X96181189Y-86423452D01*
X96173054Y-86396635D01*
X96170000Y-86365632D01*
X96170000Y-84058368D01*
X96173054Y-84027365D01*
X96181189Y-84000548D01*
X96194399Y-83975831D01*
X96212173Y-83954173D01*
X96233831Y-83936399D01*
X96258548Y-83923189D01*
X96285365Y-83915054D01*
X96316368Y-83912000D01*
X96723632Y-83912000D01*
X96754635Y-83915054D01*
G37*
G36*
X98024635Y-83915054D02*
G01*
X98051452Y-83923189D01*
X98076169Y-83936399D01*
X98097827Y-83954173D01*
X98115601Y-83975831D01*
X98128811Y-84000548D01*
X98136946Y-84027365D01*
X98140000Y-84058368D01*
X98140000Y-86365632D01*
X98136946Y-86396635D01*
X98128811Y-86423452D01*
X98115601Y-86448169D01*
X98097827Y-86469827D01*
X98076169Y-86487601D01*
X98051452Y-86500811D01*
X98024635Y-86508946D01*
X97993632Y-86512000D01*
X97586368Y-86512000D01*
X97555365Y-86508946D01*
X97528548Y-86500811D01*
X97503831Y-86487601D01*
X97482173Y-86469827D01*
X97464399Y-86448169D01*
X97451189Y-86423452D01*
X97443054Y-86396635D01*
X97440000Y-86365632D01*
X97440000Y-84058368D01*
X97443054Y-84027365D01*
X97451189Y-84000548D01*
X97464399Y-83975831D01*
X97482173Y-83954173D01*
X97503831Y-83936399D01*
X97528548Y-83923189D01*
X97555365Y-83915054D01*
X97586368Y-83912000D01*
X97993632Y-83912000D01*
X98024635Y-83915054D01*
G37*
G36*
X99294635Y-83915054D02*
G01*
X99321452Y-83923189D01*
X99346169Y-83936399D01*
X99367827Y-83954173D01*
X99385601Y-83975831D01*
X99398811Y-84000548D01*
X99406946Y-84027365D01*
X99410000Y-84058368D01*
X99410000Y-86365632D01*
X99406946Y-86396635D01*
X99398811Y-86423452D01*
X99385601Y-86448169D01*
X99367827Y-86469827D01*
X99346169Y-86487601D01*
X99321452Y-86500811D01*
X99294635Y-86508946D01*
X99263632Y-86512000D01*
X98856368Y-86512000D01*
X98825365Y-86508946D01*
X98798548Y-86500811D01*
X98773831Y-86487601D01*
X98752173Y-86469827D01*
X98734399Y-86448169D01*
X98721189Y-86423452D01*
X98713054Y-86396635D01*
X98710000Y-86365632D01*
X98710000Y-84058368D01*
X98713054Y-84027365D01*
X98721189Y-84000548D01*
X98734399Y-83975831D01*
X98752173Y-83954173D01*
X98773831Y-83936399D01*
X98798548Y-83923189D01*
X98825365Y-83915054D01*
X98856368Y-83912000D01*
X99263632Y-83912000D01*
X99294635Y-83915054D01*
G37*
G36*
X100564635Y-83915054D02*
G01*
X100591452Y-83923189D01*
X100616169Y-83936399D01*
X100637827Y-83954173D01*
X100655601Y-83975831D01*
X100668811Y-84000548D01*
X100676946Y-84027365D01*
X100680000Y-84058368D01*
X100680000Y-86365632D01*
X100676946Y-86396635D01*
X100668811Y-86423452D01*
X100655601Y-86448169D01*
X100637827Y-86469827D01*
X100616169Y-86487601D01*
X100591452Y-86500811D01*
X100564635Y-86508946D01*
X100533632Y-86512000D01*
X100126368Y-86512000D01*
X100095365Y-86508946D01*
X100068548Y-86500811D01*
X100043831Y-86487601D01*
X100022173Y-86469827D01*
X100004399Y-86448169D01*
X99991189Y-86423452D01*
X99983054Y-86396635D01*
X99980000Y-86365632D01*
X99980000Y-84058368D01*
X99983054Y-84027365D01*
X99991189Y-84000548D01*
X100004399Y-83975831D01*
X100022173Y-83954173D01*
X100043831Y-83936399D01*
X100068548Y-83923189D01*
X100095365Y-83915054D01*
X100126368Y-83912000D01*
X100533632Y-83912000D01*
X100564635Y-83915054D01*
G37*
G36*
X133584635Y-83915054D02*
G01*
X133611452Y-83923189D01*
X133636169Y-83936399D01*
X133657827Y-83954173D01*
X133675601Y-83975831D01*
X133688811Y-84000548D01*
X133696946Y-84027365D01*
X133700000Y-84058368D01*
X133700000Y-86365632D01*
X133696946Y-86396635D01*
X133688811Y-86423452D01*
X133675601Y-86448169D01*
X133657827Y-86469827D01*
X133636169Y-86487601D01*
X133611452Y-86500811D01*
X133584635Y-86508946D01*
X133553632Y-86512000D01*
X133146368Y-86512000D01*
X133115365Y-86508946D01*
X133088548Y-86500811D01*
X133063831Y-86487601D01*
X133042173Y-86469827D01*
X133024399Y-86448169D01*
X133011189Y-86423452D01*
X133003054Y-86396635D01*
X133000000Y-86365632D01*
X133000000Y-84058368D01*
X133003054Y-84027365D01*
X133011189Y-84000548D01*
X133024399Y-83975831D01*
X133042173Y-83954173D01*
X133063831Y-83936399D01*
X133088548Y-83923189D01*
X133115365Y-83915054D01*
X133146368Y-83912000D01*
X133553632Y-83912000D01*
X133584635Y-83915054D01*
G37*
M02*
