G04 #@! TF.GenerationSoftware,KiCad,Pcbnew,(5.1.5-0-10_14)*
G04 #@! TF.CreationDate,2020-05-15T16:43:25-04:00*
G04 #@! TF.ProjectId,simm-30-4mb,73696d6d-2d33-4302-9d34-6d622e6b6963,rev?*
G04 #@! TF.SameCoordinates,Original*
G04 #@! TF.FileFunction,Copper,L2,Inr*
G04 #@! TF.FilePolarity,Positive*
%FSLAX46Y46*%
G04 Gerber Fmt 4.6, Leading zero omitted, Abs format (unit mm)*
G04 Created by KiCad (PCBNEW (5.1.5-0-10_14)) date 2020-05-15 16:43:25*
%MOMM*%
%LPD*%
G04 APERTURE LIST*
%ADD10C,0.800000*%
%ADD11C,0.508000*%
%ADD12C,1.000000*%
%ADD13C,0.152400*%
G04 APERTURE END LIST*
D10*
X157480000Y-98806000D03*
X154940000Y-98806000D03*
X129540000Y-98806000D03*
X144780000Y-98806000D03*
X139700000Y-98806000D03*
X142240000Y-98806000D03*
X137160000Y-98806000D03*
X132080000Y-98806000D03*
X134620000Y-98806000D03*
X152400000Y-98806000D03*
X147320000Y-98806000D03*
X149860000Y-98806000D03*
X127000000Y-98806000D03*
X121920000Y-98806000D03*
X124460000Y-98806000D03*
X119380000Y-98806000D03*
X114300000Y-98806000D03*
X116840000Y-98806000D03*
X111760000Y-98806000D03*
X106680000Y-98806000D03*
X109220000Y-98806000D03*
X101600000Y-98806000D03*
X104140000Y-98806000D03*
X99060000Y-98806000D03*
X96520000Y-98806000D03*
X91440000Y-98806000D03*
X93980000Y-98806000D03*
X83820000Y-98806000D03*
X86360000Y-98806000D03*
X88900000Y-98806000D03*
X86741000Y-94107000D03*
X121031000Y-94107000D03*
X138049000Y-94107000D03*
X83820000Y-94107000D03*
X85090000Y-95250000D03*
X103759000Y-94107000D03*
X106680000Y-94107000D03*
X118110000Y-94107000D03*
X119380000Y-95250000D03*
D11*
X105410000Y-94996000D03*
D10*
X139700000Y-95250000D03*
X140970000Y-94107000D03*
X156210000Y-94107000D03*
X158750000Y-94107000D03*
D12*
X157480000Y-95377000D03*
D11*
X125730000Y-90932000D03*
X115189000Y-93281500D03*
X127000000Y-90932000D03*
X112522000Y-92456000D03*
X91440000Y-88392000D03*
X121158000Y-90170000D03*
X125730000Y-89027000D03*
D10*
X121031000Y-84836000D03*
X138049000Y-85217000D03*
X103759000Y-84836000D03*
X86741000Y-85217000D03*
D11*
X134620000Y-89408000D03*
X133350000Y-89408000D03*
X132080000Y-89408000D03*
X135890000Y-89408000D03*
X130810000Y-89408000D03*
X108839000Y-95377000D03*
X104267000Y-95377000D03*
X129540000Y-89662000D03*
X95250000Y-89662000D03*
X112395000Y-89408000D03*
X119634000Y-89408000D03*
X92710000Y-96520000D03*
X111252000Y-97536000D03*
X117729000Y-97917000D03*
X118872000Y-97536000D03*
X139065000Y-97409000D03*
X134239000Y-97663000D03*
X89408000Y-97028000D03*
X88138000Y-96266000D03*
X142621000Y-97409000D03*
X114681000Y-95758000D03*
X144145000Y-97409000D03*
X143129000Y-96393000D03*
X112395000Y-84709000D03*
X111379000Y-89916000D03*
X108077000Y-84709000D03*
X116713000Y-84709000D03*
X88900000Y-90043000D03*
X87630000Y-90043000D03*
X90170000Y-90043000D03*
X91948000Y-89662000D03*
X126492000Y-89662000D03*
X92710000Y-88392000D03*
X121412000Y-97536000D03*
X122428000Y-97536000D03*
X97282000Y-83439000D03*
X131572000Y-83439000D03*
X77089000Y-83439000D03*
X164211000Y-83439000D03*
X164211000Y-100711000D03*
X79121000Y-100711000D03*
X77089000Y-94742000D03*
X164211000Y-91440000D03*
X77089000Y-91440000D03*
X77089000Y-87376000D03*
X164211000Y-87376000D03*
X140081000Y-83439000D03*
X88773000Y-83439000D03*
X105791000Y-83439000D03*
X123063000Y-83439000D03*
X114427000Y-83439000D03*
X118745000Y-83439000D03*
X110109000Y-83439000D03*
X127127000Y-83439000D03*
X136017000Y-83439000D03*
X101727000Y-83439000D03*
X92837000Y-83439000D03*
X82804000Y-83439000D03*
X152146000Y-83439000D03*
X158242000Y-83439000D03*
X146050000Y-83439000D03*
X164211000Y-96139000D03*
X82804000Y-87376000D03*
X158242000Y-87376000D03*
X152146000Y-87376000D03*
X146050000Y-87376000D03*
X146050000Y-91440000D03*
X152146000Y-91440000D03*
X152146000Y-95885000D03*
X79883000Y-85344000D03*
X161290000Y-85344000D03*
X155194000Y-85344000D03*
X149098000Y-85344000D03*
X143002000Y-85344000D03*
X149098000Y-89408000D03*
X161290000Y-89408000D03*
X149098000Y-93853000D03*
X161290000Y-93853000D03*
X161290000Y-98552000D03*
X78994000Y-94742000D03*
X80899000Y-97790000D03*
X79883000Y-89281000D03*
X139954000Y-87376000D03*
X143002000Y-89408000D03*
X143002000Y-93853000D03*
X146050000Y-95885000D03*
X131699000Y-97663000D03*
X110109000Y-97917000D03*
X102743000Y-97917000D03*
X99949000Y-97917000D03*
X97409000Y-97917000D03*
X128270000Y-98298000D03*
X147701000Y-97409000D03*
X158623000Y-96139000D03*
X113411000Y-91948000D03*
X116205000Y-92964000D03*
X114935000Y-91948000D03*
X114173000Y-92964000D03*
X112395000Y-93472000D03*
X112776000Y-95377000D03*
X110363000Y-95377000D03*
X111506000Y-92583000D03*
X110617000Y-93345000D03*
X111569500Y-94234000D03*
X82931000Y-95250000D03*
D10*
X83820000Y-92456000D03*
X85090000Y-91313000D03*
D11*
X104013000Y-89408000D03*
D10*
X105410000Y-91313000D03*
X119380000Y-91313000D03*
X117729000Y-91821000D03*
X106807000Y-92075000D03*
X139700000Y-91186000D03*
X140970000Y-92456000D03*
X156210000Y-92456000D03*
X158750000Y-92456000D03*
X157480000Y-91313000D03*
D11*
X132080000Y-90932000D03*
X100330000Y-90932000D03*
X133350000Y-90932000D03*
X99060000Y-90932000D03*
X134620000Y-90932000D03*
X97790000Y-90932000D03*
X135890000Y-90932000D03*
X96520000Y-90932000D03*
X93980000Y-88392000D03*
X135890000Y-88392000D03*
X134620000Y-88392000D03*
X96520000Y-88392000D03*
X97790000Y-88392000D03*
X133350000Y-88392000D03*
X99060000Y-88392000D03*
X132080000Y-88392000D03*
X100330000Y-88392000D03*
X130810000Y-88392000D03*
X130810000Y-90932000D03*
X101600000Y-90932000D03*
X101600000Y-88392000D03*
X128270000Y-88392000D03*
D13*
G36*
X164771401Y-101271400D02*
G01*
X78560600Y-101271400D01*
X78560600Y-99568000D01*
X85775800Y-99568000D01*
X85775800Y-100457000D01*
X85777264Y-100471866D01*
X85781600Y-100486160D01*
X85788642Y-100499334D01*
X85798118Y-100510882D01*
X85809666Y-100520358D01*
X85822840Y-100527400D01*
X85837134Y-100531736D01*
X85852000Y-100533200D01*
X86868000Y-100533200D01*
X86882866Y-100531736D01*
X86897160Y-100527400D01*
X86910334Y-100520358D01*
X86921882Y-100510882D01*
X86931358Y-100499334D01*
X86938400Y-100486160D01*
X86942736Y-100471866D01*
X86944200Y-100457000D01*
X86944200Y-99568000D01*
X88315800Y-99568000D01*
X88315800Y-100457000D01*
X88317264Y-100471866D01*
X88321600Y-100486160D01*
X88328642Y-100499334D01*
X88338118Y-100510882D01*
X88349666Y-100520358D01*
X88362840Y-100527400D01*
X88377134Y-100531736D01*
X88392000Y-100533200D01*
X89408000Y-100533200D01*
X89422866Y-100531736D01*
X89437160Y-100527400D01*
X89450334Y-100520358D01*
X89461882Y-100510882D01*
X89471358Y-100499334D01*
X89478400Y-100486160D01*
X89482736Y-100471866D01*
X89484200Y-100457000D01*
X89484200Y-99568000D01*
X90855800Y-99568000D01*
X90855800Y-100457000D01*
X90857264Y-100471866D01*
X90861600Y-100486160D01*
X90868642Y-100499334D01*
X90878118Y-100510882D01*
X90889666Y-100520358D01*
X90902840Y-100527400D01*
X90917134Y-100531736D01*
X90932000Y-100533200D01*
X91948000Y-100533200D01*
X91962866Y-100531736D01*
X91977160Y-100527400D01*
X91990334Y-100520358D01*
X92001882Y-100510882D01*
X92011358Y-100499334D01*
X92018400Y-100486160D01*
X92022736Y-100471866D01*
X92024200Y-100457000D01*
X92024200Y-99568000D01*
X93395800Y-99568000D01*
X93395800Y-100457000D01*
X93397264Y-100471866D01*
X93401600Y-100486160D01*
X93408642Y-100499334D01*
X93418118Y-100510882D01*
X93429666Y-100520358D01*
X93442840Y-100527400D01*
X93457134Y-100531736D01*
X93472000Y-100533200D01*
X94488000Y-100533200D01*
X94502866Y-100531736D01*
X94517160Y-100527400D01*
X94530334Y-100520358D01*
X94541882Y-100510882D01*
X94551358Y-100499334D01*
X94558400Y-100486160D01*
X94562736Y-100471866D01*
X94564200Y-100457000D01*
X94564200Y-99568000D01*
X95935800Y-99568000D01*
X95935800Y-100457000D01*
X95937264Y-100471866D01*
X95941600Y-100486160D01*
X95948642Y-100499334D01*
X95958118Y-100510882D01*
X95969666Y-100520358D01*
X95982840Y-100527400D01*
X95997134Y-100531736D01*
X96012000Y-100533200D01*
X97028000Y-100533200D01*
X97042866Y-100531736D01*
X97057160Y-100527400D01*
X97070334Y-100520358D01*
X97081882Y-100510882D01*
X97091358Y-100499334D01*
X97098400Y-100486160D01*
X97102736Y-100471866D01*
X97104200Y-100457000D01*
X97104200Y-99568000D01*
X98475800Y-99568000D01*
X98475800Y-100457000D01*
X98477264Y-100471866D01*
X98481600Y-100486160D01*
X98488642Y-100499334D01*
X98498118Y-100510882D01*
X98509666Y-100520358D01*
X98522840Y-100527400D01*
X98537134Y-100531736D01*
X98552000Y-100533200D01*
X99568000Y-100533200D01*
X99582866Y-100531736D01*
X99597160Y-100527400D01*
X99610334Y-100520358D01*
X99621882Y-100510882D01*
X99631358Y-100499334D01*
X99638400Y-100486160D01*
X99642736Y-100471866D01*
X99644200Y-100457000D01*
X99644200Y-99568000D01*
X101015800Y-99568000D01*
X101015800Y-100457000D01*
X101017264Y-100471866D01*
X101021600Y-100486160D01*
X101028642Y-100499334D01*
X101038118Y-100510882D01*
X101049666Y-100520358D01*
X101062840Y-100527400D01*
X101077134Y-100531736D01*
X101092000Y-100533200D01*
X102108000Y-100533200D01*
X102122866Y-100531736D01*
X102137160Y-100527400D01*
X102150334Y-100520358D01*
X102161882Y-100510882D01*
X102171358Y-100499334D01*
X102178400Y-100486160D01*
X102182736Y-100471866D01*
X102184200Y-100457000D01*
X102184200Y-99568000D01*
X106095800Y-99568000D01*
X106095800Y-100457000D01*
X106097264Y-100471866D01*
X106101600Y-100486160D01*
X106108642Y-100499334D01*
X106118118Y-100510882D01*
X106129666Y-100520358D01*
X106142840Y-100527400D01*
X106157134Y-100531736D01*
X106172000Y-100533200D01*
X107188000Y-100533200D01*
X107202866Y-100531736D01*
X107217160Y-100527400D01*
X107230334Y-100520358D01*
X107241882Y-100510882D01*
X107251358Y-100499334D01*
X107258400Y-100486160D01*
X107262736Y-100471866D01*
X107264200Y-100457000D01*
X107264200Y-99568000D01*
X108635800Y-99568000D01*
X108635800Y-100457000D01*
X108637264Y-100471866D01*
X108641600Y-100486160D01*
X108648642Y-100499334D01*
X108658118Y-100510882D01*
X108669666Y-100520358D01*
X108682840Y-100527400D01*
X108697134Y-100531736D01*
X108712000Y-100533200D01*
X109728000Y-100533200D01*
X109742866Y-100531736D01*
X109757160Y-100527400D01*
X109770334Y-100520358D01*
X109781882Y-100510882D01*
X109791358Y-100499334D01*
X109798400Y-100486160D01*
X109802736Y-100471866D01*
X109804200Y-100457000D01*
X109804200Y-99568000D01*
X111175800Y-99568000D01*
X111175800Y-100457000D01*
X111177264Y-100471866D01*
X111181600Y-100486160D01*
X111188642Y-100499334D01*
X111198118Y-100510882D01*
X111209666Y-100520358D01*
X111222840Y-100527400D01*
X111237134Y-100531736D01*
X111252000Y-100533200D01*
X112268000Y-100533200D01*
X112282866Y-100531736D01*
X112297160Y-100527400D01*
X112310334Y-100520358D01*
X112321882Y-100510882D01*
X112331358Y-100499334D01*
X112338400Y-100486160D01*
X112342736Y-100471866D01*
X112344200Y-100457000D01*
X112344200Y-99568000D01*
X113715800Y-99568000D01*
X113715800Y-100457000D01*
X113717264Y-100471866D01*
X113721600Y-100486160D01*
X113728642Y-100499334D01*
X113738118Y-100510882D01*
X113749666Y-100520358D01*
X113762840Y-100527400D01*
X113777134Y-100531736D01*
X113792000Y-100533200D01*
X114808000Y-100533200D01*
X114822866Y-100531736D01*
X114837160Y-100527400D01*
X114850334Y-100520358D01*
X114861882Y-100510882D01*
X114871358Y-100499334D01*
X114878400Y-100486160D01*
X114882736Y-100471866D01*
X114884200Y-100457000D01*
X114884200Y-99568000D01*
X116255800Y-99568000D01*
X116255800Y-100457000D01*
X116257264Y-100471866D01*
X116261600Y-100486160D01*
X116268642Y-100499334D01*
X116278118Y-100510882D01*
X116289666Y-100520358D01*
X116302840Y-100527400D01*
X116317134Y-100531736D01*
X116332000Y-100533200D01*
X117348000Y-100533200D01*
X117362866Y-100531736D01*
X117377160Y-100527400D01*
X117390334Y-100520358D01*
X117401882Y-100510882D01*
X117411358Y-100499334D01*
X117418400Y-100486160D01*
X117422736Y-100471866D01*
X117424200Y-100457000D01*
X117424200Y-99568000D01*
X118795800Y-99568000D01*
X118795800Y-100457000D01*
X118797264Y-100471866D01*
X118801600Y-100486160D01*
X118808642Y-100499334D01*
X118818118Y-100510882D01*
X118829666Y-100520358D01*
X118842840Y-100527400D01*
X118857134Y-100531736D01*
X118872000Y-100533200D01*
X119888000Y-100533200D01*
X119902866Y-100531736D01*
X119917160Y-100527400D01*
X119930334Y-100520358D01*
X119941882Y-100510882D01*
X119951358Y-100499334D01*
X119958400Y-100486160D01*
X119962736Y-100471866D01*
X119964200Y-100457000D01*
X119964200Y-99568000D01*
X121335800Y-99568000D01*
X121335800Y-100457000D01*
X121337264Y-100471866D01*
X121341600Y-100486160D01*
X121348642Y-100499334D01*
X121358118Y-100510882D01*
X121369666Y-100520358D01*
X121382840Y-100527400D01*
X121397134Y-100531736D01*
X121412000Y-100533200D01*
X122428000Y-100533200D01*
X122442866Y-100531736D01*
X122457160Y-100527400D01*
X122470334Y-100520358D01*
X122481882Y-100510882D01*
X122491358Y-100499334D01*
X122498400Y-100486160D01*
X122502736Y-100471866D01*
X122504200Y-100457000D01*
X122504200Y-99568000D01*
X123875800Y-99568000D01*
X123875800Y-100457000D01*
X123877264Y-100471866D01*
X123881600Y-100486160D01*
X123888642Y-100499334D01*
X123898118Y-100510882D01*
X123909666Y-100520358D01*
X123922840Y-100527400D01*
X123937134Y-100531736D01*
X123952000Y-100533200D01*
X124968000Y-100533200D01*
X124982866Y-100531736D01*
X124997160Y-100527400D01*
X125010334Y-100520358D01*
X125021882Y-100510882D01*
X125031358Y-100499334D01*
X125038400Y-100486160D01*
X125042736Y-100471866D01*
X125044200Y-100457000D01*
X125044200Y-99568000D01*
X126415800Y-99568000D01*
X126415800Y-100457000D01*
X126417264Y-100471866D01*
X126421600Y-100486160D01*
X126428642Y-100499334D01*
X126438118Y-100510882D01*
X126449666Y-100520358D01*
X126462840Y-100527400D01*
X126477134Y-100531736D01*
X126492000Y-100533200D01*
X127508000Y-100533200D01*
X127522866Y-100531736D01*
X127537160Y-100527400D01*
X127550334Y-100520358D01*
X127561882Y-100510882D01*
X127571358Y-100499334D01*
X127578400Y-100486160D01*
X127582736Y-100471866D01*
X127584200Y-100457000D01*
X127584200Y-99568000D01*
X128955800Y-99568000D01*
X128955800Y-100457000D01*
X128957264Y-100471866D01*
X128961600Y-100486160D01*
X128968642Y-100499334D01*
X128978118Y-100510882D01*
X128989666Y-100520358D01*
X129002840Y-100527400D01*
X129017134Y-100531736D01*
X129032000Y-100533200D01*
X130048000Y-100533200D01*
X130062866Y-100531736D01*
X130077160Y-100527400D01*
X130090334Y-100520358D01*
X130101882Y-100510882D01*
X130111358Y-100499334D01*
X130118400Y-100486160D01*
X130122736Y-100471866D01*
X130124200Y-100457000D01*
X130124200Y-99568000D01*
X131495800Y-99568000D01*
X131495800Y-100457000D01*
X131497264Y-100471866D01*
X131501600Y-100486160D01*
X131508642Y-100499334D01*
X131518118Y-100510882D01*
X131529666Y-100520358D01*
X131542840Y-100527400D01*
X131557134Y-100531736D01*
X131572000Y-100533200D01*
X132588000Y-100533200D01*
X132602866Y-100531736D01*
X132617160Y-100527400D01*
X132630334Y-100520358D01*
X132641882Y-100510882D01*
X132651358Y-100499334D01*
X132658400Y-100486160D01*
X132662736Y-100471866D01*
X132664200Y-100457000D01*
X132664200Y-99568000D01*
X134035800Y-99568000D01*
X134035800Y-100457000D01*
X134037264Y-100471866D01*
X134041600Y-100486160D01*
X134048642Y-100499334D01*
X134058118Y-100510882D01*
X134069666Y-100520358D01*
X134082840Y-100527400D01*
X134097134Y-100531736D01*
X134112000Y-100533200D01*
X135128000Y-100533200D01*
X135142866Y-100531736D01*
X135157160Y-100527400D01*
X135170334Y-100520358D01*
X135181882Y-100510882D01*
X135191358Y-100499334D01*
X135198400Y-100486160D01*
X135202736Y-100471866D01*
X135204200Y-100457000D01*
X135204200Y-99568000D01*
X139115800Y-99568000D01*
X139115800Y-100457000D01*
X139117264Y-100471866D01*
X139121600Y-100486160D01*
X139128642Y-100499334D01*
X139138118Y-100510882D01*
X139149666Y-100520358D01*
X139162840Y-100527400D01*
X139177134Y-100531736D01*
X139192000Y-100533200D01*
X140208000Y-100533200D01*
X140222866Y-100531736D01*
X140237160Y-100527400D01*
X140250334Y-100520358D01*
X140261882Y-100510882D01*
X140271358Y-100499334D01*
X140278400Y-100486160D01*
X140282736Y-100471866D01*
X140284200Y-100457000D01*
X140284200Y-99568000D01*
X141655800Y-99568000D01*
X141655800Y-100457000D01*
X141657264Y-100471866D01*
X141661600Y-100486160D01*
X141668642Y-100499334D01*
X141678118Y-100510882D01*
X141689666Y-100520358D01*
X141702840Y-100527400D01*
X141717134Y-100531736D01*
X141732000Y-100533200D01*
X142748000Y-100533200D01*
X142762866Y-100531736D01*
X142777160Y-100527400D01*
X142790334Y-100520358D01*
X142801882Y-100510882D01*
X142811358Y-100499334D01*
X142818400Y-100486160D01*
X142822736Y-100471866D01*
X142824200Y-100457000D01*
X142824200Y-99568000D01*
X144195800Y-99568000D01*
X144195800Y-100457000D01*
X144197264Y-100471866D01*
X144201600Y-100486160D01*
X144208642Y-100499334D01*
X144218118Y-100510882D01*
X144229666Y-100520358D01*
X144242840Y-100527400D01*
X144257134Y-100531736D01*
X144272000Y-100533200D01*
X145288000Y-100533200D01*
X145302866Y-100531736D01*
X145317160Y-100527400D01*
X145330334Y-100520358D01*
X145341882Y-100510882D01*
X145351358Y-100499334D01*
X145358400Y-100486160D01*
X145362736Y-100471866D01*
X145364200Y-100457000D01*
X145364200Y-99568000D01*
X146735800Y-99568000D01*
X146735800Y-100457000D01*
X146737264Y-100471866D01*
X146741600Y-100486160D01*
X146748642Y-100499334D01*
X146758118Y-100510882D01*
X146769666Y-100520358D01*
X146782840Y-100527400D01*
X146797134Y-100531736D01*
X146812000Y-100533200D01*
X147828000Y-100533200D01*
X147842866Y-100531736D01*
X147857160Y-100527400D01*
X147870334Y-100520358D01*
X147881882Y-100510882D01*
X147891358Y-100499334D01*
X147898400Y-100486160D01*
X147902736Y-100471866D01*
X147904200Y-100457000D01*
X147904200Y-99568000D01*
X149275800Y-99568000D01*
X149275800Y-100457000D01*
X149277264Y-100471866D01*
X149281600Y-100486160D01*
X149288642Y-100499334D01*
X149298118Y-100510882D01*
X149309666Y-100520358D01*
X149322840Y-100527400D01*
X149337134Y-100531736D01*
X149352000Y-100533200D01*
X150368000Y-100533200D01*
X150382866Y-100531736D01*
X150397160Y-100527400D01*
X150410334Y-100520358D01*
X150421882Y-100510882D01*
X150431358Y-100499334D01*
X150438400Y-100486160D01*
X150442736Y-100471866D01*
X150444200Y-100457000D01*
X150444200Y-99568000D01*
X151815800Y-99568000D01*
X151815800Y-100457000D01*
X151817264Y-100471866D01*
X151821600Y-100486160D01*
X151828642Y-100499334D01*
X151838118Y-100510882D01*
X151849666Y-100520358D01*
X151862840Y-100527400D01*
X151877134Y-100531736D01*
X151892000Y-100533200D01*
X152908000Y-100533200D01*
X152922866Y-100531736D01*
X152937160Y-100527400D01*
X152950334Y-100520358D01*
X152961882Y-100510882D01*
X152971358Y-100499334D01*
X152978400Y-100486160D01*
X152982736Y-100471866D01*
X152984200Y-100457000D01*
X152984200Y-99568000D01*
X154355800Y-99568000D01*
X154355800Y-100457000D01*
X154357264Y-100471866D01*
X154361600Y-100486160D01*
X154368642Y-100499334D01*
X154378118Y-100510882D01*
X154389666Y-100520358D01*
X154402840Y-100527400D01*
X154417134Y-100531736D01*
X154432000Y-100533200D01*
X155448000Y-100533200D01*
X155462866Y-100531736D01*
X155477160Y-100527400D01*
X155490334Y-100520358D01*
X155501882Y-100510882D01*
X155511358Y-100499334D01*
X155518400Y-100486160D01*
X155522736Y-100471866D01*
X155524200Y-100457000D01*
X155524200Y-99568000D01*
X155522736Y-99553134D01*
X155518400Y-99538840D01*
X155511358Y-99525666D01*
X155501882Y-99514118D01*
X155490334Y-99504642D01*
X155477160Y-99497600D01*
X155462866Y-99493264D01*
X155448000Y-99491800D01*
X154432000Y-99491800D01*
X154417134Y-99493264D01*
X154402840Y-99497600D01*
X154389666Y-99504642D01*
X154378118Y-99514118D01*
X154368642Y-99525666D01*
X154361600Y-99538840D01*
X154357264Y-99553134D01*
X154355800Y-99568000D01*
X152984200Y-99568000D01*
X152982736Y-99553134D01*
X152978400Y-99538840D01*
X152971358Y-99525666D01*
X152961882Y-99514118D01*
X152950334Y-99504642D01*
X152937160Y-99497600D01*
X152922866Y-99493264D01*
X152908000Y-99491800D01*
X151892000Y-99491800D01*
X151877134Y-99493264D01*
X151862840Y-99497600D01*
X151849666Y-99504642D01*
X151838118Y-99514118D01*
X151828642Y-99525666D01*
X151821600Y-99538840D01*
X151817264Y-99553134D01*
X151815800Y-99568000D01*
X150444200Y-99568000D01*
X150442736Y-99553134D01*
X150438400Y-99538840D01*
X150431358Y-99525666D01*
X150421882Y-99514118D01*
X150410334Y-99504642D01*
X150397160Y-99497600D01*
X150382866Y-99493264D01*
X150368000Y-99491800D01*
X149352000Y-99491800D01*
X149337134Y-99493264D01*
X149322840Y-99497600D01*
X149309666Y-99504642D01*
X149298118Y-99514118D01*
X149288642Y-99525666D01*
X149281600Y-99538840D01*
X149277264Y-99553134D01*
X149275800Y-99568000D01*
X147904200Y-99568000D01*
X147902736Y-99553134D01*
X147898400Y-99538840D01*
X147891358Y-99525666D01*
X147881882Y-99514118D01*
X147870334Y-99504642D01*
X147857160Y-99497600D01*
X147842866Y-99493264D01*
X147828000Y-99491800D01*
X146812000Y-99491800D01*
X146797134Y-99493264D01*
X146782840Y-99497600D01*
X146769666Y-99504642D01*
X146758118Y-99514118D01*
X146748642Y-99525666D01*
X146741600Y-99538840D01*
X146737264Y-99553134D01*
X146735800Y-99568000D01*
X145364200Y-99568000D01*
X145362736Y-99553134D01*
X145358400Y-99538840D01*
X145351358Y-99525666D01*
X145341882Y-99514118D01*
X145330334Y-99504642D01*
X145317160Y-99497600D01*
X145302866Y-99493264D01*
X145288000Y-99491800D01*
X144272000Y-99491800D01*
X144257134Y-99493264D01*
X144242840Y-99497600D01*
X144229666Y-99504642D01*
X144218118Y-99514118D01*
X144208642Y-99525666D01*
X144201600Y-99538840D01*
X144197264Y-99553134D01*
X144195800Y-99568000D01*
X142824200Y-99568000D01*
X142822736Y-99553134D01*
X142818400Y-99538840D01*
X142811358Y-99525666D01*
X142801882Y-99514118D01*
X142790334Y-99504642D01*
X142777160Y-99497600D01*
X142762866Y-99493264D01*
X142748000Y-99491800D01*
X141732000Y-99491800D01*
X141717134Y-99493264D01*
X141702840Y-99497600D01*
X141689666Y-99504642D01*
X141678118Y-99514118D01*
X141668642Y-99525666D01*
X141661600Y-99538840D01*
X141657264Y-99553134D01*
X141655800Y-99568000D01*
X140284200Y-99568000D01*
X140282736Y-99553134D01*
X140278400Y-99538840D01*
X140271358Y-99525666D01*
X140261882Y-99514118D01*
X140250334Y-99504642D01*
X140237160Y-99497600D01*
X140222866Y-99493264D01*
X140208000Y-99491800D01*
X139192000Y-99491800D01*
X139177134Y-99493264D01*
X139162840Y-99497600D01*
X139149666Y-99504642D01*
X139138118Y-99514118D01*
X139128642Y-99525666D01*
X139121600Y-99538840D01*
X139117264Y-99553134D01*
X139115800Y-99568000D01*
X135204200Y-99568000D01*
X135202736Y-99553134D01*
X135198400Y-99538840D01*
X135191358Y-99525666D01*
X135181882Y-99514118D01*
X135170334Y-99504642D01*
X135157160Y-99497600D01*
X135142866Y-99493264D01*
X135128000Y-99491800D01*
X134112000Y-99491800D01*
X134097134Y-99493264D01*
X134082840Y-99497600D01*
X134069666Y-99504642D01*
X134058118Y-99514118D01*
X134048642Y-99525666D01*
X134041600Y-99538840D01*
X134037264Y-99553134D01*
X134035800Y-99568000D01*
X132664200Y-99568000D01*
X132662736Y-99553134D01*
X132658400Y-99538840D01*
X132651358Y-99525666D01*
X132641882Y-99514118D01*
X132630334Y-99504642D01*
X132617160Y-99497600D01*
X132602866Y-99493264D01*
X132588000Y-99491800D01*
X131572000Y-99491800D01*
X131557134Y-99493264D01*
X131542840Y-99497600D01*
X131529666Y-99504642D01*
X131518118Y-99514118D01*
X131508642Y-99525666D01*
X131501600Y-99538840D01*
X131497264Y-99553134D01*
X131495800Y-99568000D01*
X130124200Y-99568000D01*
X130122736Y-99553134D01*
X130118400Y-99538840D01*
X130111358Y-99525666D01*
X130101882Y-99514118D01*
X130090334Y-99504642D01*
X130077160Y-99497600D01*
X130062866Y-99493264D01*
X130048000Y-99491800D01*
X129032000Y-99491800D01*
X129017134Y-99493264D01*
X129002840Y-99497600D01*
X128989666Y-99504642D01*
X128978118Y-99514118D01*
X128968642Y-99525666D01*
X128961600Y-99538840D01*
X128957264Y-99553134D01*
X128955800Y-99568000D01*
X127584200Y-99568000D01*
X127582736Y-99553134D01*
X127578400Y-99538840D01*
X127571358Y-99525666D01*
X127561882Y-99514118D01*
X127550334Y-99504642D01*
X127537160Y-99497600D01*
X127522866Y-99493264D01*
X127508000Y-99491800D01*
X126492000Y-99491800D01*
X126477134Y-99493264D01*
X126462840Y-99497600D01*
X126449666Y-99504642D01*
X126438118Y-99514118D01*
X126428642Y-99525666D01*
X126421600Y-99538840D01*
X126417264Y-99553134D01*
X126415800Y-99568000D01*
X125044200Y-99568000D01*
X125042736Y-99553134D01*
X125038400Y-99538840D01*
X125031358Y-99525666D01*
X125021882Y-99514118D01*
X125010334Y-99504642D01*
X124997160Y-99497600D01*
X124982866Y-99493264D01*
X124968000Y-99491800D01*
X123952000Y-99491800D01*
X123937134Y-99493264D01*
X123922840Y-99497600D01*
X123909666Y-99504642D01*
X123898118Y-99514118D01*
X123888642Y-99525666D01*
X123881600Y-99538840D01*
X123877264Y-99553134D01*
X123875800Y-99568000D01*
X122504200Y-99568000D01*
X122502736Y-99553134D01*
X122498400Y-99538840D01*
X122491358Y-99525666D01*
X122481882Y-99514118D01*
X122470334Y-99504642D01*
X122457160Y-99497600D01*
X122442866Y-99493264D01*
X122428000Y-99491800D01*
X121412000Y-99491800D01*
X121397134Y-99493264D01*
X121382840Y-99497600D01*
X121369666Y-99504642D01*
X121358118Y-99514118D01*
X121348642Y-99525666D01*
X121341600Y-99538840D01*
X121337264Y-99553134D01*
X121335800Y-99568000D01*
X119964200Y-99568000D01*
X119962736Y-99553134D01*
X119958400Y-99538840D01*
X119951358Y-99525666D01*
X119941882Y-99514118D01*
X119930334Y-99504642D01*
X119917160Y-99497600D01*
X119902866Y-99493264D01*
X119888000Y-99491800D01*
X118872000Y-99491800D01*
X118857134Y-99493264D01*
X118842840Y-99497600D01*
X118829666Y-99504642D01*
X118818118Y-99514118D01*
X118808642Y-99525666D01*
X118801600Y-99538840D01*
X118797264Y-99553134D01*
X118795800Y-99568000D01*
X117424200Y-99568000D01*
X117422736Y-99553134D01*
X117418400Y-99538840D01*
X117411358Y-99525666D01*
X117401882Y-99514118D01*
X117390334Y-99504642D01*
X117377160Y-99497600D01*
X117362866Y-99493264D01*
X117348000Y-99491800D01*
X116332000Y-99491800D01*
X116317134Y-99493264D01*
X116302840Y-99497600D01*
X116289666Y-99504642D01*
X116278118Y-99514118D01*
X116268642Y-99525666D01*
X116261600Y-99538840D01*
X116257264Y-99553134D01*
X116255800Y-99568000D01*
X114884200Y-99568000D01*
X114882736Y-99553134D01*
X114878400Y-99538840D01*
X114871358Y-99525666D01*
X114861882Y-99514118D01*
X114850334Y-99504642D01*
X114837160Y-99497600D01*
X114822866Y-99493264D01*
X114808000Y-99491800D01*
X113792000Y-99491800D01*
X113777134Y-99493264D01*
X113762840Y-99497600D01*
X113749666Y-99504642D01*
X113738118Y-99514118D01*
X113728642Y-99525666D01*
X113721600Y-99538840D01*
X113717264Y-99553134D01*
X113715800Y-99568000D01*
X112344200Y-99568000D01*
X112342736Y-99553134D01*
X112338400Y-99538840D01*
X112331358Y-99525666D01*
X112321882Y-99514118D01*
X112310334Y-99504642D01*
X112297160Y-99497600D01*
X112282866Y-99493264D01*
X112268000Y-99491800D01*
X111252000Y-99491800D01*
X111237134Y-99493264D01*
X111222840Y-99497600D01*
X111209666Y-99504642D01*
X111198118Y-99514118D01*
X111188642Y-99525666D01*
X111181600Y-99538840D01*
X111177264Y-99553134D01*
X111175800Y-99568000D01*
X109804200Y-99568000D01*
X109802736Y-99553134D01*
X109798400Y-99538840D01*
X109791358Y-99525666D01*
X109781882Y-99514118D01*
X109770334Y-99504642D01*
X109757160Y-99497600D01*
X109742866Y-99493264D01*
X109728000Y-99491800D01*
X108712000Y-99491800D01*
X108697134Y-99493264D01*
X108682840Y-99497600D01*
X108669666Y-99504642D01*
X108658118Y-99514118D01*
X108648642Y-99525666D01*
X108641600Y-99538840D01*
X108637264Y-99553134D01*
X108635800Y-99568000D01*
X107264200Y-99568000D01*
X107262736Y-99553134D01*
X107258400Y-99538840D01*
X107251358Y-99525666D01*
X107241882Y-99514118D01*
X107230334Y-99504642D01*
X107217160Y-99497600D01*
X107202866Y-99493264D01*
X107188000Y-99491800D01*
X106172000Y-99491800D01*
X106157134Y-99493264D01*
X106142840Y-99497600D01*
X106129666Y-99504642D01*
X106118118Y-99514118D01*
X106108642Y-99525666D01*
X106101600Y-99538840D01*
X106097264Y-99553134D01*
X106095800Y-99568000D01*
X102184200Y-99568000D01*
X102182736Y-99553134D01*
X102178400Y-99538840D01*
X102171358Y-99525666D01*
X102161882Y-99514118D01*
X102150334Y-99504642D01*
X102137160Y-99497600D01*
X102122866Y-99493264D01*
X102108000Y-99491800D01*
X101092000Y-99491800D01*
X101077134Y-99493264D01*
X101062840Y-99497600D01*
X101049666Y-99504642D01*
X101038118Y-99514118D01*
X101028642Y-99525666D01*
X101021600Y-99538840D01*
X101017264Y-99553134D01*
X101015800Y-99568000D01*
X99644200Y-99568000D01*
X99642736Y-99553134D01*
X99638400Y-99538840D01*
X99631358Y-99525666D01*
X99621882Y-99514118D01*
X99610334Y-99504642D01*
X99597160Y-99497600D01*
X99582866Y-99493264D01*
X99568000Y-99491800D01*
X98552000Y-99491800D01*
X98537134Y-99493264D01*
X98522840Y-99497600D01*
X98509666Y-99504642D01*
X98498118Y-99514118D01*
X98488642Y-99525666D01*
X98481600Y-99538840D01*
X98477264Y-99553134D01*
X98475800Y-99568000D01*
X97104200Y-99568000D01*
X97102736Y-99553134D01*
X97098400Y-99538840D01*
X97091358Y-99525666D01*
X97081882Y-99514118D01*
X97070334Y-99504642D01*
X97057160Y-99497600D01*
X97042866Y-99493264D01*
X97028000Y-99491800D01*
X96012000Y-99491800D01*
X95997134Y-99493264D01*
X95982840Y-99497600D01*
X95969666Y-99504642D01*
X95958118Y-99514118D01*
X95948642Y-99525666D01*
X95941600Y-99538840D01*
X95937264Y-99553134D01*
X95935800Y-99568000D01*
X94564200Y-99568000D01*
X94562736Y-99553134D01*
X94558400Y-99538840D01*
X94551358Y-99525666D01*
X94541882Y-99514118D01*
X94530334Y-99504642D01*
X94517160Y-99497600D01*
X94502866Y-99493264D01*
X94488000Y-99491800D01*
X93472000Y-99491800D01*
X93457134Y-99493264D01*
X93442840Y-99497600D01*
X93429666Y-99504642D01*
X93418118Y-99514118D01*
X93408642Y-99525666D01*
X93401600Y-99538840D01*
X93397264Y-99553134D01*
X93395800Y-99568000D01*
X92024200Y-99568000D01*
X92022736Y-99553134D01*
X92018400Y-99538840D01*
X92011358Y-99525666D01*
X92001882Y-99514118D01*
X91990334Y-99504642D01*
X91977160Y-99497600D01*
X91962866Y-99493264D01*
X91948000Y-99491800D01*
X90932000Y-99491800D01*
X90917134Y-99493264D01*
X90902840Y-99497600D01*
X90889666Y-99504642D01*
X90878118Y-99514118D01*
X90868642Y-99525666D01*
X90861600Y-99538840D01*
X90857264Y-99553134D01*
X90855800Y-99568000D01*
X89484200Y-99568000D01*
X89482736Y-99553134D01*
X89478400Y-99538840D01*
X89471358Y-99525666D01*
X89461882Y-99514118D01*
X89450334Y-99504642D01*
X89437160Y-99497600D01*
X89422866Y-99493264D01*
X89408000Y-99491800D01*
X88392000Y-99491800D01*
X88377134Y-99493264D01*
X88362840Y-99497600D01*
X88349666Y-99504642D01*
X88338118Y-99514118D01*
X88328642Y-99525666D01*
X88321600Y-99538840D01*
X88317264Y-99553134D01*
X88315800Y-99568000D01*
X86944200Y-99568000D01*
X86942736Y-99553134D01*
X86938400Y-99538840D01*
X86931358Y-99525666D01*
X86921882Y-99514118D01*
X86910334Y-99504642D01*
X86897160Y-99497600D01*
X86882866Y-99493264D01*
X86868000Y-99491800D01*
X85852000Y-99491800D01*
X85837134Y-99493264D01*
X85822840Y-99497600D01*
X85809666Y-99504642D01*
X85798118Y-99514118D01*
X85788642Y-99525666D01*
X85781600Y-99538840D01*
X85777264Y-99553134D01*
X85775800Y-99568000D01*
X78560600Y-99568000D01*
X78560600Y-98744088D01*
X83191400Y-98744088D01*
X83191400Y-98867912D01*
X83215556Y-98989356D01*
X83262941Y-99103754D01*
X83331734Y-99206709D01*
X83419291Y-99294266D01*
X83522246Y-99363059D01*
X83636644Y-99410444D01*
X83758088Y-99434600D01*
X83881912Y-99434600D01*
X84003356Y-99410444D01*
X84117754Y-99363059D01*
X84220709Y-99294266D01*
X84308266Y-99206709D01*
X84377059Y-99103754D01*
X84424444Y-98989356D01*
X84448600Y-98867912D01*
X84448600Y-98744088D01*
X85731400Y-98744088D01*
X85731400Y-98867912D01*
X85755556Y-98989356D01*
X85802941Y-99103754D01*
X85871734Y-99206709D01*
X85959291Y-99294266D01*
X86062246Y-99363059D01*
X86176644Y-99410444D01*
X86298088Y-99434600D01*
X86421912Y-99434600D01*
X86543356Y-99410444D01*
X86657754Y-99363059D01*
X86760709Y-99294266D01*
X86848266Y-99206709D01*
X86917059Y-99103754D01*
X86964444Y-98989356D01*
X86988600Y-98867912D01*
X86988600Y-98744088D01*
X88271400Y-98744088D01*
X88271400Y-98867912D01*
X88295556Y-98989356D01*
X88342941Y-99103754D01*
X88411734Y-99206709D01*
X88499291Y-99294266D01*
X88602246Y-99363059D01*
X88716644Y-99410444D01*
X88838088Y-99434600D01*
X88961912Y-99434600D01*
X89083356Y-99410444D01*
X89197754Y-99363059D01*
X89300709Y-99294266D01*
X89388266Y-99206709D01*
X89457059Y-99103754D01*
X89504444Y-98989356D01*
X89528600Y-98867912D01*
X89528600Y-98744088D01*
X90811400Y-98744088D01*
X90811400Y-98867912D01*
X90835556Y-98989356D01*
X90882941Y-99103754D01*
X90951734Y-99206709D01*
X91039291Y-99294266D01*
X91142246Y-99363059D01*
X91256644Y-99410444D01*
X91378088Y-99434600D01*
X91501912Y-99434600D01*
X91623356Y-99410444D01*
X91737754Y-99363059D01*
X91840709Y-99294266D01*
X91928266Y-99206709D01*
X91997059Y-99103754D01*
X92044444Y-98989356D01*
X92068600Y-98867912D01*
X92068600Y-98744088D01*
X93351400Y-98744088D01*
X93351400Y-98867912D01*
X93375556Y-98989356D01*
X93422941Y-99103754D01*
X93491734Y-99206709D01*
X93579291Y-99294266D01*
X93682246Y-99363059D01*
X93796644Y-99410444D01*
X93918088Y-99434600D01*
X94041912Y-99434600D01*
X94163356Y-99410444D01*
X94277754Y-99363059D01*
X94380709Y-99294266D01*
X94468266Y-99206709D01*
X94537059Y-99103754D01*
X94584444Y-98989356D01*
X94608600Y-98867912D01*
X94608600Y-98744088D01*
X95891400Y-98744088D01*
X95891400Y-98867912D01*
X95915556Y-98989356D01*
X95962941Y-99103754D01*
X96031734Y-99206709D01*
X96119291Y-99294266D01*
X96222246Y-99363059D01*
X96336644Y-99410444D01*
X96458088Y-99434600D01*
X96581912Y-99434600D01*
X96703356Y-99410444D01*
X96817754Y-99363059D01*
X96920709Y-99294266D01*
X97008266Y-99206709D01*
X97077059Y-99103754D01*
X97124444Y-98989356D01*
X97148600Y-98867912D01*
X97148600Y-98744088D01*
X98431400Y-98744088D01*
X98431400Y-98867912D01*
X98455556Y-98989356D01*
X98502941Y-99103754D01*
X98571734Y-99206709D01*
X98659291Y-99294266D01*
X98762246Y-99363059D01*
X98876644Y-99410444D01*
X98998088Y-99434600D01*
X99121912Y-99434600D01*
X99243356Y-99410444D01*
X99357754Y-99363059D01*
X99460709Y-99294266D01*
X99548266Y-99206709D01*
X99617059Y-99103754D01*
X99664444Y-98989356D01*
X99688600Y-98867912D01*
X99688600Y-98744088D01*
X100971400Y-98744088D01*
X100971400Y-98867912D01*
X100995556Y-98989356D01*
X101042941Y-99103754D01*
X101111734Y-99206709D01*
X101199291Y-99294266D01*
X101302246Y-99363059D01*
X101416644Y-99410444D01*
X101538088Y-99434600D01*
X101661912Y-99434600D01*
X101783356Y-99410444D01*
X101897754Y-99363059D01*
X102000709Y-99294266D01*
X102033929Y-99261046D01*
X103789323Y-99261046D01*
X103830978Y-99356888D01*
X103944389Y-99406590D01*
X104065317Y-99433211D01*
X104189115Y-99435729D01*
X104311025Y-99414047D01*
X104426363Y-99368998D01*
X104449022Y-99356888D01*
X104490677Y-99261046D01*
X104140000Y-98910369D01*
X103789323Y-99261046D01*
X102033929Y-99261046D01*
X102088266Y-99206709D01*
X102157059Y-99103754D01*
X102204444Y-98989356D01*
X102228600Y-98867912D01*
X102228600Y-98855115D01*
X103510271Y-98855115D01*
X103531953Y-98977025D01*
X103577002Y-99092363D01*
X103589112Y-99115022D01*
X103684954Y-99156677D01*
X104035631Y-98806000D01*
X104244369Y-98806000D01*
X104595046Y-99156677D01*
X104690888Y-99115022D01*
X104740590Y-99001611D01*
X104767211Y-98880683D01*
X104769729Y-98756885D01*
X104767454Y-98744088D01*
X106051400Y-98744088D01*
X106051400Y-98867912D01*
X106075556Y-98989356D01*
X106122941Y-99103754D01*
X106191734Y-99206709D01*
X106279291Y-99294266D01*
X106382246Y-99363059D01*
X106496644Y-99410444D01*
X106618088Y-99434600D01*
X106741912Y-99434600D01*
X106863356Y-99410444D01*
X106977754Y-99363059D01*
X107080709Y-99294266D01*
X107168266Y-99206709D01*
X107237059Y-99103754D01*
X107284444Y-98989356D01*
X107308600Y-98867912D01*
X107308600Y-98744088D01*
X108591400Y-98744088D01*
X108591400Y-98867912D01*
X108615556Y-98989356D01*
X108662941Y-99103754D01*
X108731734Y-99206709D01*
X108819291Y-99294266D01*
X108922246Y-99363059D01*
X109036644Y-99410444D01*
X109158088Y-99434600D01*
X109281912Y-99434600D01*
X109403356Y-99410444D01*
X109517754Y-99363059D01*
X109620709Y-99294266D01*
X109708266Y-99206709D01*
X109777059Y-99103754D01*
X109824444Y-98989356D01*
X109848600Y-98867912D01*
X109848600Y-98744088D01*
X111131400Y-98744088D01*
X111131400Y-98867912D01*
X111155556Y-98989356D01*
X111202941Y-99103754D01*
X111271734Y-99206709D01*
X111359291Y-99294266D01*
X111462246Y-99363059D01*
X111576644Y-99410444D01*
X111698088Y-99434600D01*
X111821912Y-99434600D01*
X111943356Y-99410444D01*
X112057754Y-99363059D01*
X112160709Y-99294266D01*
X112248266Y-99206709D01*
X112317059Y-99103754D01*
X112364444Y-98989356D01*
X112388600Y-98867912D01*
X112388600Y-98744088D01*
X113671400Y-98744088D01*
X113671400Y-98867912D01*
X113695556Y-98989356D01*
X113742941Y-99103754D01*
X113811734Y-99206709D01*
X113899291Y-99294266D01*
X114002246Y-99363059D01*
X114116644Y-99410444D01*
X114238088Y-99434600D01*
X114361912Y-99434600D01*
X114483356Y-99410444D01*
X114597754Y-99363059D01*
X114700709Y-99294266D01*
X114788266Y-99206709D01*
X114857059Y-99103754D01*
X114904444Y-98989356D01*
X114928600Y-98867912D01*
X114928600Y-98744088D01*
X116211400Y-98744088D01*
X116211400Y-98867912D01*
X116235556Y-98989356D01*
X116282941Y-99103754D01*
X116351734Y-99206709D01*
X116439291Y-99294266D01*
X116542246Y-99363059D01*
X116656644Y-99410444D01*
X116778088Y-99434600D01*
X116901912Y-99434600D01*
X117023356Y-99410444D01*
X117137754Y-99363059D01*
X117240709Y-99294266D01*
X117328266Y-99206709D01*
X117397059Y-99103754D01*
X117444444Y-98989356D01*
X117468600Y-98867912D01*
X117468600Y-98744088D01*
X118751400Y-98744088D01*
X118751400Y-98867912D01*
X118775556Y-98989356D01*
X118822941Y-99103754D01*
X118891734Y-99206709D01*
X118979291Y-99294266D01*
X119082246Y-99363059D01*
X119196644Y-99410444D01*
X119318088Y-99434600D01*
X119441912Y-99434600D01*
X119563356Y-99410444D01*
X119677754Y-99363059D01*
X119780709Y-99294266D01*
X119868266Y-99206709D01*
X119937059Y-99103754D01*
X119984444Y-98989356D01*
X120008600Y-98867912D01*
X120008600Y-98744088D01*
X121291400Y-98744088D01*
X121291400Y-98867912D01*
X121315556Y-98989356D01*
X121362941Y-99103754D01*
X121431734Y-99206709D01*
X121519291Y-99294266D01*
X121622246Y-99363059D01*
X121736644Y-99410444D01*
X121858088Y-99434600D01*
X121981912Y-99434600D01*
X122103356Y-99410444D01*
X122217754Y-99363059D01*
X122320709Y-99294266D01*
X122408266Y-99206709D01*
X122477059Y-99103754D01*
X122524444Y-98989356D01*
X122548600Y-98867912D01*
X122548600Y-98744088D01*
X123831400Y-98744088D01*
X123831400Y-98867912D01*
X123855556Y-98989356D01*
X123902941Y-99103754D01*
X123971734Y-99206709D01*
X124059291Y-99294266D01*
X124162246Y-99363059D01*
X124276644Y-99410444D01*
X124398088Y-99434600D01*
X124521912Y-99434600D01*
X124643356Y-99410444D01*
X124757754Y-99363059D01*
X124860709Y-99294266D01*
X124948266Y-99206709D01*
X125017059Y-99103754D01*
X125064444Y-98989356D01*
X125088600Y-98867912D01*
X125088600Y-98744088D01*
X126371400Y-98744088D01*
X126371400Y-98867912D01*
X126395556Y-98989356D01*
X126442941Y-99103754D01*
X126511734Y-99206709D01*
X126599291Y-99294266D01*
X126702246Y-99363059D01*
X126816644Y-99410444D01*
X126938088Y-99434600D01*
X127061912Y-99434600D01*
X127183356Y-99410444D01*
X127297754Y-99363059D01*
X127400709Y-99294266D01*
X127488266Y-99206709D01*
X127557059Y-99103754D01*
X127604444Y-98989356D01*
X127628600Y-98867912D01*
X127628600Y-98744088D01*
X128911400Y-98744088D01*
X128911400Y-98867912D01*
X128935556Y-98989356D01*
X128982941Y-99103754D01*
X129051734Y-99206709D01*
X129139291Y-99294266D01*
X129242246Y-99363059D01*
X129356644Y-99410444D01*
X129478088Y-99434600D01*
X129601912Y-99434600D01*
X129723356Y-99410444D01*
X129837754Y-99363059D01*
X129940709Y-99294266D01*
X130028266Y-99206709D01*
X130097059Y-99103754D01*
X130144444Y-98989356D01*
X130168600Y-98867912D01*
X130168600Y-98744088D01*
X131451400Y-98744088D01*
X131451400Y-98867912D01*
X131475556Y-98989356D01*
X131522941Y-99103754D01*
X131591734Y-99206709D01*
X131679291Y-99294266D01*
X131782246Y-99363059D01*
X131896644Y-99410444D01*
X132018088Y-99434600D01*
X132141912Y-99434600D01*
X132263356Y-99410444D01*
X132377754Y-99363059D01*
X132480709Y-99294266D01*
X132568266Y-99206709D01*
X132637059Y-99103754D01*
X132684444Y-98989356D01*
X132708600Y-98867912D01*
X132708600Y-98744088D01*
X133991400Y-98744088D01*
X133991400Y-98867912D01*
X134015556Y-98989356D01*
X134062941Y-99103754D01*
X134131734Y-99206709D01*
X134219291Y-99294266D01*
X134322246Y-99363059D01*
X134436644Y-99410444D01*
X134558088Y-99434600D01*
X134681912Y-99434600D01*
X134803356Y-99410444D01*
X134917754Y-99363059D01*
X135020709Y-99294266D01*
X135053929Y-99261046D01*
X136809323Y-99261046D01*
X136850978Y-99356888D01*
X136964389Y-99406590D01*
X137085317Y-99433211D01*
X137209115Y-99435729D01*
X137331025Y-99414047D01*
X137446363Y-99368998D01*
X137469022Y-99356888D01*
X137510677Y-99261046D01*
X137160000Y-98910369D01*
X136809323Y-99261046D01*
X135053929Y-99261046D01*
X135108266Y-99206709D01*
X135177059Y-99103754D01*
X135224444Y-98989356D01*
X135248600Y-98867912D01*
X135248600Y-98855115D01*
X136530271Y-98855115D01*
X136551953Y-98977025D01*
X136597002Y-99092363D01*
X136609112Y-99115022D01*
X136704954Y-99156677D01*
X137055631Y-98806000D01*
X137264369Y-98806000D01*
X137615046Y-99156677D01*
X137710888Y-99115022D01*
X137760590Y-99001611D01*
X137787211Y-98880683D01*
X137789729Y-98756885D01*
X137787454Y-98744088D01*
X139071400Y-98744088D01*
X139071400Y-98867912D01*
X139095556Y-98989356D01*
X139142941Y-99103754D01*
X139211734Y-99206709D01*
X139299291Y-99294266D01*
X139402246Y-99363059D01*
X139516644Y-99410444D01*
X139638088Y-99434600D01*
X139761912Y-99434600D01*
X139883356Y-99410444D01*
X139997754Y-99363059D01*
X140100709Y-99294266D01*
X140188266Y-99206709D01*
X140257059Y-99103754D01*
X140304444Y-98989356D01*
X140328600Y-98867912D01*
X140328600Y-98744088D01*
X141611400Y-98744088D01*
X141611400Y-98867912D01*
X141635556Y-98989356D01*
X141682941Y-99103754D01*
X141751734Y-99206709D01*
X141839291Y-99294266D01*
X141942246Y-99363059D01*
X142056644Y-99410444D01*
X142178088Y-99434600D01*
X142301912Y-99434600D01*
X142423356Y-99410444D01*
X142537754Y-99363059D01*
X142640709Y-99294266D01*
X142728266Y-99206709D01*
X142797059Y-99103754D01*
X142844444Y-98989356D01*
X142868600Y-98867912D01*
X142868600Y-98744088D01*
X144151400Y-98744088D01*
X144151400Y-98867912D01*
X144175556Y-98989356D01*
X144222941Y-99103754D01*
X144291734Y-99206709D01*
X144379291Y-99294266D01*
X144482246Y-99363059D01*
X144596644Y-99410444D01*
X144718088Y-99434600D01*
X144841912Y-99434600D01*
X144963356Y-99410444D01*
X145077754Y-99363059D01*
X145180709Y-99294266D01*
X145268266Y-99206709D01*
X145337059Y-99103754D01*
X145384444Y-98989356D01*
X145408600Y-98867912D01*
X145408600Y-98744088D01*
X146691400Y-98744088D01*
X146691400Y-98867912D01*
X146715556Y-98989356D01*
X146762941Y-99103754D01*
X146831734Y-99206709D01*
X146919291Y-99294266D01*
X147022246Y-99363059D01*
X147136644Y-99410444D01*
X147258088Y-99434600D01*
X147381912Y-99434600D01*
X147503356Y-99410444D01*
X147617754Y-99363059D01*
X147720709Y-99294266D01*
X147808266Y-99206709D01*
X147877059Y-99103754D01*
X147924444Y-98989356D01*
X147948600Y-98867912D01*
X147948600Y-98744088D01*
X149231400Y-98744088D01*
X149231400Y-98867912D01*
X149255556Y-98989356D01*
X149302941Y-99103754D01*
X149371734Y-99206709D01*
X149459291Y-99294266D01*
X149562246Y-99363059D01*
X149676644Y-99410444D01*
X149798088Y-99434600D01*
X149921912Y-99434600D01*
X150043356Y-99410444D01*
X150157754Y-99363059D01*
X150260709Y-99294266D01*
X150348266Y-99206709D01*
X150417059Y-99103754D01*
X150464444Y-98989356D01*
X150488600Y-98867912D01*
X150488600Y-98744088D01*
X151771400Y-98744088D01*
X151771400Y-98867912D01*
X151795556Y-98989356D01*
X151842941Y-99103754D01*
X151911734Y-99206709D01*
X151999291Y-99294266D01*
X152102246Y-99363059D01*
X152216644Y-99410444D01*
X152338088Y-99434600D01*
X152461912Y-99434600D01*
X152583356Y-99410444D01*
X152697754Y-99363059D01*
X152800709Y-99294266D01*
X152888266Y-99206709D01*
X152957059Y-99103754D01*
X153004444Y-98989356D01*
X153028600Y-98867912D01*
X153028600Y-98744088D01*
X154311400Y-98744088D01*
X154311400Y-98867912D01*
X154335556Y-98989356D01*
X154382941Y-99103754D01*
X154451734Y-99206709D01*
X154539291Y-99294266D01*
X154642246Y-99363059D01*
X154756644Y-99410444D01*
X154878088Y-99434600D01*
X155001912Y-99434600D01*
X155123356Y-99410444D01*
X155237754Y-99363059D01*
X155340709Y-99294266D01*
X155428266Y-99206709D01*
X155497059Y-99103754D01*
X155544444Y-98989356D01*
X155568600Y-98867912D01*
X155568600Y-98744088D01*
X156851400Y-98744088D01*
X156851400Y-98867912D01*
X156875556Y-98989356D01*
X156922941Y-99103754D01*
X156991734Y-99206709D01*
X157079291Y-99294266D01*
X157182246Y-99363059D01*
X157296644Y-99410444D01*
X157418088Y-99434600D01*
X157541912Y-99434600D01*
X157663356Y-99410444D01*
X157777754Y-99363059D01*
X157880709Y-99294266D01*
X157968266Y-99206709D01*
X158037059Y-99103754D01*
X158084444Y-98989356D01*
X158108600Y-98867912D01*
X158108600Y-98744088D01*
X158084444Y-98622644D01*
X158037059Y-98508246D01*
X157968266Y-98405291D01*
X157880709Y-98317734D01*
X157777754Y-98248941D01*
X157663356Y-98201556D01*
X157541912Y-98177400D01*
X157418088Y-98177400D01*
X157296644Y-98201556D01*
X157182246Y-98248941D01*
X157079291Y-98317734D01*
X156991734Y-98405291D01*
X156922941Y-98508246D01*
X156875556Y-98622644D01*
X156851400Y-98744088D01*
X155568600Y-98744088D01*
X155544444Y-98622644D01*
X155497059Y-98508246D01*
X155428266Y-98405291D01*
X155340709Y-98317734D01*
X155237754Y-98248941D01*
X155123356Y-98201556D01*
X155001912Y-98177400D01*
X154878088Y-98177400D01*
X154756644Y-98201556D01*
X154642246Y-98248941D01*
X154539291Y-98317734D01*
X154451734Y-98405291D01*
X154382941Y-98508246D01*
X154335556Y-98622644D01*
X154311400Y-98744088D01*
X153028600Y-98744088D01*
X153004444Y-98622644D01*
X152957059Y-98508246D01*
X152888266Y-98405291D01*
X152800709Y-98317734D01*
X152697754Y-98248941D01*
X152583356Y-98201556D01*
X152461912Y-98177400D01*
X152338088Y-98177400D01*
X152216644Y-98201556D01*
X152102246Y-98248941D01*
X151999291Y-98317734D01*
X151911734Y-98405291D01*
X151842941Y-98508246D01*
X151795556Y-98622644D01*
X151771400Y-98744088D01*
X150488600Y-98744088D01*
X150464444Y-98622644D01*
X150417059Y-98508246D01*
X150348266Y-98405291D01*
X150260709Y-98317734D01*
X150157754Y-98248941D01*
X150043356Y-98201556D01*
X149921912Y-98177400D01*
X149798088Y-98177400D01*
X149676644Y-98201556D01*
X149562246Y-98248941D01*
X149459291Y-98317734D01*
X149371734Y-98405291D01*
X149302941Y-98508246D01*
X149255556Y-98622644D01*
X149231400Y-98744088D01*
X147948600Y-98744088D01*
X147924444Y-98622644D01*
X147877059Y-98508246D01*
X147808266Y-98405291D01*
X147720709Y-98317734D01*
X147617754Y-98248941D01*
X147503356Y-98201556D01*
X147381912Y-98177400D01*
X147258088Y-98177400D01*
X147136644Y-98201556D01*
X147022246Y-98248941D01*
X146919291Y-98317734D01*
X146831734Y-98405291D01*
X146762941Y-98508246D01*
X146715556Y-98622644D01*
X146691400Y-98744088D01*
X145408600Y-98744088D01*
X145384444Y-98622644D01*
X145337059Y-98508246D01*
X145268266Y-98405291D01*
X145180709Y-98317734D01*
X145077754Y-98248941D01*
X144963356Y-98201556D01*
X144841912Y-98177400D01*
X144718088Y-98177400D01*
X144596644Y-98201556D01*
X144482246Y-98248941D01*
X144379291Y-98317734D01*
X144291734Y-98405291D01*
X144222941Y-98508246D01*
X144175556Y-98622644D01*
X144151400Y-98744088D01*
X142868600Y-98744088D01*
X142844444Y-98622644D01*
X142797059Y-98508246D01*
X142728266Y-98405291D01*
X142640709Y-98317734D01*
X142537754Y-98248941D01*
X142423356Y-98201556D01*
X142301912Y-98177400D01*
X142178088Y-98177400D01*
X142056644Y-98201556D01*
X141942246Y-98248941D01*
X141839291Y-98317734D01*
X141751734Y-98405291D01*
X141682941Y-98508246D01*
X141635556Y-98622644D01*
X141611400Y-98744088D01*
X140328600Y-98744088D01*
X140304444Y-98622644D01*
X140257059Y-98508246D01*
X140188266Y-98405291D01*
X140100709Y-98317734D01*
X139997754Y-98248941D01*
X139883356Y-98201556D01*
X139761912Y-98177400D01*
X139638088Y-98177400D01*
X139516644Y-98201556D01*
X139402246Y-98248941D01*
X139299291Y-98317734D01*
X139211734Y-98405291D01*
X139142941Y-98508246D01*
X139095556Y-98622644D01*
X139071400Y-98744088D01*
X137787454Y-98744088D01*
X137768047Y-98634975D01*
X137722998Y-98519637D01*
X137710888Y-98496978D01*
X137615046Y-98455323D01*
X137264369Y-98806000D01*
X137055631Y-98806000D01*
X136704954Y-98455323D01*
X136609112Y-98496978D01*
X136559410Y-98610389D01*
X136532789Y-98731317D01*
X136530271Y-98855115D01*
X135248600Y-98855115D01*
X135248600Y-98744088D01*
X135224444Y-98622644D01*
X135177059Y-98508246D01*
X135108266Y-98405291D01*
X135053929Y-98350954D01*
X136809323Y-98350954D01*
X137160000Y-98701631D01*
X137510677Y-98350954D01*
X137469022Y-98255112D01*
X137355611Y-98205410D01*
X137234683Y-98178789D01*
X137110885Y-98176271D01*
X136988975Y-98197953D01*
X136873637Y-98243002D01*
X136850978Y-98255112D01*
X136809323Y-98350954D01*
X135053929Y-98350954D01*
X135020709Y-98317734D01*
X134917754Y-98248941D01*
X134803356Y-98201556D01*
X134681912Y-98177400D01*
X134558088Y-98177400D01*
X134436644Y-98201556D01*
X134322246Y-98248941D01*
X134219291Y-98317734D01*
X134131734Y-98405291D01*
X134062941Y-98508246D01*
X134015556Y-98622644D01*
X133991400Y-98744088D01*
X132708600Y-98744088D01*
X132684444Y-98622644D01*
X132637059Y-98508246D01*
X132568266Y-98405291D01*
X132480709Y-98317734D01*
X132377754Y-98248941D01*
X132263356Y-98201556D01*
X132141912Y-98177400D01*
X132018088Y-98177400D01*
X131896644Y-98201556D01*
X131782246Y-98248941D01*
X131679291Y-98317734D01*
X131591734Y-98405291D01*
X131522941Y-98508246D01*
X131475556Y-98622644D01*
X131451400Y-98744088D01*
X130168600Y-98744088D01*
X130144444Y-98622644D01*
X130097059Y-98508246D01*
X130028266Y-98405291D01*
X129940709Y-98317734D01*
X129837754Y-98248941D01*
X129723356Y-98201556D01*
X129601912Y-98177400D01*
X129478088Y-98177400D01*
X129356644Y-98201556D01*
X129242246Y-98248941D01*
X129139291Y-98317734D01*
X129051734Y-98405291D01*
X128982941Y-98508246D01*
X128935556Y-98622644D01*
X128911400Y-98744088D01*
X127628600Y-98744088D01*
X127604444Y-98622644D01*
X127557059Y-98508246D01*
X127488266Y-98405291D01*
X127400709Y-98317734D01*
X127297754Y-98248941D01*
X127183356Y-98201556D01*
X127061912Y-98177400D01*
X126938088Y-98177400D01*
X126816644Y-98201556D01*
X126702246Y-98248941D01*
X126599291Y-98317734D01*
X126511734Y-98405291D01*
X126442941Y-98508246D01*
X126395556Y-98622644D01*
X126371400Y-98744088D01*
X125088600Y-98744088D01*
X125064444Y-98622644D01*
X125017059Y-98508246D01*
X124948266Y-98405291D01*
X124860709Y-98317734D01*
X124757754Y-98248941D01*
X124643356Y-98201556D01*
X124521912Y-98177400D01*
X124398088Y-98177400D01*
X124276644Y-98201556D01*
X124162246Y-98248941D01*
X124059291Y-98317734D01*
X123971734Y-98405291D01*
X123902941Y-98508246D01*
X123855556Y-98622644D01*
X123831400Y-98744088D01*
X122548600Y-98744088D01*
X122524444Y-98622644D01*
X122477059Y-98508246D01*
X122408266Y-98405291D01*
X122320709Y-98317734D01*
X122217754Y-98248941D01*
X122103356Y-98201556D01*
X121981912Y-98177400D01*
X121858088Y-98177400D01*
X121736644Y-98201556D01*
X121622246Y-98248941D01*
X121519291Y-98317734D01*
X121431734Y-98405291D01*
X121362941Y-98508246D01*
X121315556Y-98622644D01*
X121291400Y-98744088D01*
X120008600Y-98744088D01*
X119984444Y-98622644D01*
X119937059Y-98508246D01*
X119868266Y-98405291D01*
X119780709Y-98317734D01*
X119677754Y-98248941D01*
X119563356Y-98201556D01*
X119441912Y-98177400D01*
X119318088Y-98177400D01*
X119196644Y-98201556D01*
X119082246Y-98248941D01*
X118979291Y-98317734D01*
X118891734Y-98405291D01*
X118822941Y-98508246D01*
X118775556Y-98622644D01*
X118751400Y-98744088D01*
X117468600Y-98744088D01*
X117444444Y-98622644D01*
X117397059Y-98508246D01*
X117328266Y-98405291D01*
X117240709Y-98317734D01*
X117137754Y-98248941D01*
X117023356Y-98201556D01*
X116901912Y-98177400D01*
X116778088Y-98177400D01*
X116656644Y-98201556D01*
X116542246Y-98248941D01*
X116439291Y-98317734D01*
X116351734Y-98405291D01*
X116282941Y-98508246D01*
X116235556Y-98622644D01*
X116211400Y-98744088D01*
X114928600Y-98744088D01*
X114904444Y-98622644D01*
X114857059Y-98508246D01*
X114788266Y-98405291D01*
X114700709Y-98317734D01*
X114597754Y-98248941D01*
X114483356Y-98201556D01*
X114361912Y-98177400D01*
X114238088Y-98177400D01*
X114116644Y-98201556D01*
X114002246Y-98248941D01*
X113899291Y-98317734D01*
X113811734Y-98405291D01*
X113742941Y-98508246D01*
X113695556Y-98622644D01*
X113671400Y-98744088D01*
X112388600Y-98744088D01*
X112364444Y-98622644D01*
X112317059Y-98508246D01*
X112248266Y-98405291D01*
X112160709Y-98317734D01*
X112057754Y-98248941D01*
X111943356Y-98201556D01*
X111821912Y-98177400D01*
X111698088Y-98177400D01*
X111576644Y-98201556D01*
X111462246Y-98248941D01*
X111359291Y-98317734D01*
X111271734Y-98405291D01*
X111202941Y-98508246D01*
X111155556Y-98622644D01*
X111131400Y-98744088D01*
X109848600Y-98744088D01*
X109824444Y-98622644D01*
X109777059Y-98508246D01*
X109708266Y-98405291D01*
X109620709Y-98317734D01*
X109517754Y-98248941D01*
X109403356Y-98201556D01*
X109281912Y-98177400D01*
X109158088Y-98177400D01*
X109036644Y-98201556D01*
X108922246Y-98248941D01*
X108819291Y-98317734D01*
X108731734Y-98405291D01*
X108662941Y-98508246D01*
X108615556Y-98622644D01*
X108591400Y-98744088D01*
X107308600Y-98744088D01*
X107284444Y-98622644D01*
X107237059Y-98508246D01*
X107168266Y-98405291D01*
X107080709Y-98317734D01*
X106977754Y-98248941D01*
X106863356Y-98201556D01*
X106741912Y-98177400D01*
X106618088Y-98177400D01*
X106496644Y-98201556D01*
X106382246Y-98248941D01*
X106279291Y-98317734D01*
X106191734Y-98405291D01*
X106122941Y-98508246D01*
X106075556Y-98622644D01*
X106051400Y-98744088D01*
X104767454Y-98744088D01*
X104748047Y-98634975D01*
X104702998Y-98519637D01*
X104690888Y-98496978D01*
X104595046Y-98455323D01*
X104244369Y-98806000D01*
X104035631Y-98806000D01*
X103684954Y-98455323D01*
X103589112Y-98496978D01*
X103539410Y-98610389D01*
X103512789Y-98731317D01*
X103510271Y-98855115D01*
X102228600Y-98855115D01*
X102228600Y-98744088D01*
X102204444Y-98622644D01*
X102157059Y-98508246D01*
X102088266Y-98405291D01*
X102033929Y-98350954D01*
X103789323Y-98350954D01*
X104140000Y-98701631D01*
X104490677Y-98350954D01*
X104449022Y-98255112D01*
X104335611Y-98205410D01*
X104214683Y-98178789D01*
X104090885Y-98176271D01*
X103968975Y-98197953D01*
X103853637Y-98243002D01*
X103830978Y-98255112D01*
X103789323Y-98350954D01*
X102033929Y-98350954D01*
X102000709Y-98317734D01*
X101897754Y-98248941D01*
X101783356Y-98201556D01*
X101661912Y-98177400D01*
X101538088Y-98177400D01*
X101416644Y-98201556D01*
X101302246Y-98248941D01*
X101199291Y-98317734D01*
X101111734Y-98405291D01*
X101042941Y-98508246D01*
X100995556Y-98622644D01*
X100971400Y-98744088D01*
X99688600Y-98744088D01*
X99664444Y-98622644D01*
X99617059Y-98508246D01*
X99548266Y-98405291D01*
X99460709Y-98317734D01*
X99357754Y-98248941D01*
X99243356Y-98201556D01*
X99121912Y-98177400D01*
X98998088Y-98177400D01*
X98876644Y-98201556D01*
X98762246Y-98248941D01*
X98659291Y-98317734D01*
X98571734Y-98405291D01*
X98502941Y-98508246D01*
X98455556Y-98622644D01*
X98431400Y-98744088D01*
X97148600Y-98744088D01*
X97124444Y-98622644D01*
X97077059Y-98508246D01*
X97008266Y-98405291D01*
X96920709Y-98317734D01*
X96817754Y-98248941D01*
X96703356Y-98201556D01*
X96581912Y-98177400D01*
X96458088Y-98177400D01*
X96336644Y-98201556D01*
X96222246Y-98248941D01*
X96119291Y-98317734D01*
X96031734Y-98405291D01*
X95962941Y-98508246D01*
X95915556Y-98622644D01*
X95891400Y-98744088D01*
X94608600Y-98744088D01*
X94584444Y-98622644D01*
X94537059Y-98508246D01*
X94468266Y-98405291D01*
X94380709Y-98317734D01*
X94277754Y-98248941D01*
X94163356Y-98201556D01*
X94041912Y-98177400D01*
X93918088Y-98177400D01*
X93796644Y-98201556D01*
X93682246Y-98248941D01*
X93579291Y-98317734D01*
X93491734Y-98405291D01*
X93422941Y-98508246D01*
X93375556Y-98622644D01*
X93351400Y-98744088D01*
X92068600Y-98744088D01*
X92044444Y-98622644D01*
X91997059Y-98508246D01*
X91928266Y-98405291D01*
X91840709Y-98317734D01*
X91737754Y-98248941D01*
X91623356Y-98201556D01*
X91501912Y-98177400D01*
X91378088Y-98177400D01*
X91256644Y-98201556D01*
X91142246Y-98248941D01*
X91039291Y-98317734D01*
X90951734Y-98405291D01*
X90882941Y-98508246D01*
X90835556Y-98622644D01*
X90811400Y-98744088D01*
X89528600Y-98744088D01*
X89504444Y-98622644D01*
X89457059Y-98508246D01*
X89388266Y-98405291D01*
X89300709Y-98317734D01*
X89197754Y-98248941D01*
X89083356Y-98201556D01*
X88961912Y-98177400D01*
X88838088Y-98177400D01*
X88716644Y-98201556D01*
X88602246Y-98248941D01*
X88499291Y-98317734D01*
X88411734Y-98405291D01*
X88342941Y-98508246D01*
X88295556Y-98622644D01*
X88271400Y-98744088D01*
X86988600Y-98744088D01*
X86964444Y-98622644D01*
X86917059Y-98508246D01*
X86848266Y-98405291D01*
X86760709Y-98317734D01*
X86657754Y-98248941D01*
X86543356Y-98201556D01*
X86421912Y-98177400D01*
X86298088Y-98177400D01*
X86176644Y-98201556D01*
X86062246Y-98248941D01*
X85959291Y-98317734D01*
X85871734Y-98405291D01*
X85802941Y-98508246D01*
X85755556Y-98622644D01*
X85731400Y-98744088D01*
X84448600Y-98744088D01*
X84424444Y-98622644D01*
X84377059Y-98508246D01*
X84308266Y-98405291D01*
X84220709Y-98317734D01*
X84117754Y-98248941D01*
X84003356Y-98201556D01*
X83881912Y-98177400D01*
X83758088Y-98177400D01*
X83636644Y-98201556D01*
X83522246Y-98248941D01*
X83419291Y-98317734D01*
X83331734Y-98405291D01*
X83262941Y-98508246D01*
X83215556Y-98622644D01*
X83191400Y-98744088D01*
X78560600Y-98744088D01*
X78560600Y-97265865D01*
X78559136Y-97251000D01*
X78559208Y-97240692D01*
X78558760Y-97236126D01*
X78525079Y-96915672D01*
X78519080Y-96886446D01*
X78513509Y-96857242D01*
X78512185Y-96852858D01*
X78512184Y-96852851D01*
X78512181Y-96852845D01*
X78416900Y-96545042D01*
X78405368Y-96517608D01*
X78394203Y-96489973D01*
X78392049Y-96485922D01*
X78238793Y-96202483D01*
X78222151Y-96177810D01*
X78205832Y-96152871D01*
X78202932Y-96149316D01*
X77997542Y-95901042D01*
X77976410Y-95880057D01*
X77955571Y-95858777D01*
X77952036Y-95855852D01*
X77702334Y-95652200D01*
X77677513Y-95635709D01*
X77652954Y-95618893D01*
X77648918Y-95616711D01*
X77364416Y-95465438D01*
X77336876Y-95454086D01*
X77309505Y-95442355D01*
X77305130Y-95441001D01*
X77305124Y-95440999D01*
X77305118Y-95440998D01*
X76996656Y-95347868D01*
X76967429Y-95342081D01*
X76938310Y-95335891D01*
X76933747Y-95335411D01*
X76613066Y-95303968D01*
X76613056Y-95303968D01*
X76597135Y-95302400D01*
X76528600Y-95302400D01*
X76528600Y-95188088D01*
X84461400Y-95188088D01*
X84461400Y-95311912D01*
X84485556Y-95433356D01*
X84532941Y-95547754D01*
X84601734Y-95650709D01*
X84689291Y-95738266D01*
X84792246Y-95807059D01*
X84906644Y-95854444D01*
X85028088Y-95878600D01*
X85151912Y-95878600D01*
X85273356Y-95854444D01*
X85387754Y-95807059D01*
X85490709Y-95738266D01*
X85578266Y-95650709D01*
X85647059Y-95547754D01*
X85694444Y-95433356D01*
X85718600Y-95311912D01*
X85718600Y-95188088D01*
X85694444Y-95066644D01*
X85647059Y-94952246D01*
X85644535Y-94948468D01*
X104927400Y-94948468D01*
X104927400Y-95043532D01*
X104945946Y-95136769D01*
X104982326Y-95224597D01*
X105035140Y-95303640D01*
X105102360Y-95370860D01*
X105181403Y-95423674D01*
X105269231Y-95460054D01*
X105362468Y-95478600D01*
X105457532Y-95478600D01*
X105550769Y-95460054D01*
X105638597Y-95423674D01*
X105717640Y-95370860D01*
X105784860Y-95303640D01*
X105837674Y-95224597D01*
X105852796Y-95188088D01*
X118751400Y-95188088D01*
X118751400Y-95311912D01*
X118775556Y-95433356D01*
X118822941Y-95547754D01*
X118891734Y-95650709D01*
X118979291Y-95738266D01*
X119082246Y-95807059D01*
X119196644Y-95854444D01*
X119318088Y-95878600D01*
X119441912Y-95878600D01*
X119563356Y-95854444D01*
X119677754Y-95807059D01*
X119780709Y-95738266D01*
X119868266Y-95650709D01*
X119937059Y-95547754D01*
X119984444Y-95433356D01*
X120008600Y-95311912D01*
X120008600Y-95188088D01*
X139071400Y-95188088D01*
X139071400Y-95311912D01*
X139095556Y-95433356D01*
X139142941Y-95547754D01*
X139211734Y-95650709D01*
X139299291Y-95738266D01*
X139402246Y-95807059D01*
X139516644Y-95854444D01*
X139638088Y-95878600D01*
X139761912Y-95878600D01*
X139883356Y-95854444D01*
X139997754Y-95807059D01*
X140100709Y-95738266D01*
X140188266Y-95650709D01*
X140257059Y-95547754D01*
X140304444Y-95433356D01*
X140328600Y-95311912D01*
X140328600Y-95305239D01*
X156751400Y-95305239D01*
X156751400Y-95448761D01*
X156779400Y-95589525D01*
X156834323Y-95722121D01*
X156914060Y-95841455D01*
X157015545Y-95942940D01*
X157134879Y-96022677D01*
X157267475Y-96077600D01*
X157408239Y-96105600D01*
X157551761Y-96105600D01*
X157692525Y-96077600D01*
X157825121Y-96022677D01*
X157944455Y-95942940D01*
X158045940Y-95841455D01*
X158125677Y-95722121D01*
X158180600Y-95589525D01*
X158208600Y-95448761D01*
X158208600Y-95305239D01*
X158180600Y-95164475D01*
X158125677Y-95031879D01*
X158045940Y-94912545D01*
X157944455Y-94811060D01*
X157825121Y-94731323D01*
X157692525Y-94676400D01*
X157551761Y-94648400D01*
X157408239Y-94648400D01*
X157267475Y-94676400D01*
X157134879Y-94731323D01*
X157015545Y-94811060D01*
X156914060Y-94912545D01*
X156834323Y-95031879D01*
X156779400Y-95164475D01*
X156751400Y-95305239D01*
X140328600Y-95305239D01*
X140328600Y-95188088D01*
X140304444Y-95066644D01*
X140257059Y-94952246D01*
X140188266Y-94849291D01*
X140100709Y-94761734D01*
X139997754Y-94692941D01*
X139883356Y-94645556D01*
X139761912Y-94621400D01*
X139638088Y-94621400D01*
X139516644Y-94645556D01*
X139402246Y-94692941D01*
X139299291Y-94761734D01*
X139211734Y-94849291D01*
X139142941Y-94952246D01*
X139095556Y-95066644D01*
X139071400Y-95188088D01*
X120008600Y-95188088D01*
X119984444Y-95066644D01*
X119937059Y-94952246D01*
X119868266Y-94849291D01*
X119780709Y-94761734D01*
X119677754Y-94692941D01*
X119563356Y-94645556D01*
X119441912Y-94621400D01*
X119318088Y-94621400D01*
X119196644Y-94645556D01*
X119082246Y-94692941D01*
X118979291Y-94761734D01*
X118891734Y-94849291D01*
X118822941Y-94952246D01*
X118775556Y-95066644D01*
X118751400Y-95188088D01*
X105852796Y-95188088D01*
X105874054Y-95136769D01*
X105892600Y-95043532D01*
X105892600Y-94948468D01*
X105874054Y-94855231D01*
X105837674Y-94767403D01*
X105784860Y-94688360D01*
X105717640Y-94621140D01*
X105638597Y-94568326D01*
X105550769Y-94531946D01*
X105457532Y-94513400D01*
X105362468Y-94513400D01*
X105269231Y-94531946D01*
X105181403Y-94568326D01*
X105102360Y-94621140D01*
X105035140Y-94688360D01*
X104982326Y-94767403D01*
X104945946Y-94855231D01*
X104927400Y-94948468D01*
X85644535Y-94948468D01*
X85578266Y-94849291D01*
X85490709Y-94761734D01*
X85387754Y-94692941D01*
X85273356Y-94645556D01*
X85151912Y-94621400D01*
X85028088Y-94621400D01*
X84906644Y-94645556D01*
X84792246Y-94692941D01*
X84689291Y-94761734D01*
X84601734Y-94849291D01*
X84532941Y-94952246D01*
X84485556Y-95066644D01*
X84461400Y-95188088D01*
X76528600Y-95188088D01*
X76528600Y-94045088D01*
X83191400Y-94045088D01*
X83191400Y-94168912D01*
X83215556Y-94290356D01*
X83262941Y-94404754D01*
X83331734Y-94507709D01*
X83419291Y-94595266D01*
X83522246Y-94664059D01*
X83636644Y-94711444D01*
X83758088Y-94735600D01*
X83881912Y-94735600D01*
X84003356Y-94711444D01*
X84117754Y-94664059D01*
X84220709Y-94595266D01*
X84308266Y-94507709D01*
X84377059Y-94404754D01*
X84424444Y-94290356D01*
X84448600Y-94168912D01*
X84448600Y-94045088D01*
X86112400Y-94045088D01*
X86112400Y-94168912D01*
X86136556Y-94290356D01*
X86183941Y-94404754D01*
X86252734Y-94507709D01*
X86340291Y-94595266D01*
X86443246Y-94664059D01*
X86557644Y-94711444D01*
X86679088Y-94735600D01*
X86802912Y-94735600D01*
X86924356Y-94711444D01*
X87038754Y-94664059D01*
X87141709Y-94595266D01*
X87229266Y-94507709D01*
X87298059Y-94404754D01*
X87345444Y-94290356D01*
X87369600Y-94168912D01*
X87369600Y-94045088D01*
X103130400Y-94045088D01*
X103130400Y-94168912D01*
X103154556Y-94290356D01*
X103201941Y-94404754D01*
X103270734Y-94507709D01*
X103358291Y-94595266D01*
X103461246Y-94664059D01*
X103575644Y-94711444D01*
X103697088Y-94735600D01*
X103820912Y-94735600D01*
X103942356Y-94711444D01*
X104056754Y-94664059D01*
X104159709Y-94595266D01*
X104247266Y-94507709D01*
X104316059Y-94404754D01*
X104363444Y-94290356D01*
X104387600Y-94168912D01*
X104387600Y-94045088D01*
X106051400Y-94045088D01*
X106051400Y-94168912D01*
X106075556Y-94290356D01*
X106122941Y-94404754D01*
X106191734Y-94507709D01*
X106279291Y-94595266D01*
X106382246Y-94664059D01*
X106496644Y-94711444D01*
X106618088Y-94735600D01*
X106741912Y-94735600D01*
X106863356Y-94711444D01*
X106977754Y-94664059D01*
X107080709Y-94595266D01*
X107168266Y-94507709D01*
X107237059Y-94404754D01*
X107284444Y-94290356D01*
X107308600Y-94168912D01*
X107308600Y-94045088D01*
X117481400Y-94045088D01*
X117481400Y-94168912D01*
X117505556Y-94290356D01*
X117552941Y-94404754D01*
X117621734Y-94507709D01*
X117709291Y-94595266D01*
X117812246Y-94664059D01*
X117926644Y-94711444D01*
X118048088Y-94735600D01*
X118171912Y-94735600D01*
X118293356Y-94711444D01*
X118407754Y-94664059D01*
X118510709Y-94595266D01*
X118598266Y-94507709D01*
X118667059Y-94404754D01*
X118714444Y-94290356D01*
X118738600Y-94168912D01*
X118738600Y-94045088D01*
X120402400Y-94045088D01*
X120402400Y-94168912D01*
X120426556Y-94290356D01*
X120473941Y-94404754D01*
X120542734Y-94507709D01*
X120630291Y-94595266D01*
X120733246Y-94664059D01*
X120847644Y-94711444D01*
X120969088Y-94735600D01*
X121092912Y-94735600D01*
X121214356Y-94711444D01*
X121328754Y-94664059D01*
X121431709Y-94595266D01*
X121519266Y-94507709D01*
X121588059Y-94404754D01*
X121635444Y-94290356D01*
X121659600Y-94168912D01*
X121659600Y-94045088D01*
X137420400Y-94045088D01*
X137420400Y-94168912D01*
X137444556Y-94290356D01*
X137491941Y-94404754D01*
X137560734Y-94507709D01*
X137648291Y-94595266D01*
X137751246Y-94664059D01*
X137865644Y-94711444D01*
X137987088Y-94735600D01*
X138110912Y-94735600D01*
X138232356Y-94711444D01*
X138346754Y-94664059D01*
X138449709Y-94595266D01*
X138537266Y-94507709D01*
X138606059Y-94404754D01*
X138653444Y-94290356D01*
X138677600Y-94168912D01*
X138677600Y-94045088D01*
X140341400Y-94045088D01*
X140341400Y-94168912D01*
X140365556Y-94290356D01*
X140412941Y-94404754D01*
X140481734Y-94507709D01*
X140569291Y-94595266D01*
X140672246Y-94664059D01*
X140786644Y-94711444D01*
X140908088Y-94735600D01*
X141031912Y-94735600D01*
X141153356Y-94711444D01*
X141267754Y-94664059D01*
X141370709Y-94595266D01*
X141458266Y-94507709D01*
X141527059Y-94404754D01*
X141574444Y-94290356D01*
X141598600Y-94168912D01*
X141598600Y-94045088D01*
X155581400Y-94045088D01*
X155581400Y-94168912D01*
X155605556Y-94290356D01*
X155652941Y-94404754D01*
X155721734Y-94507709D01*
X155809291Y-94595266D01*
X155912246Y-94664059D01*
X156026644Y-94711444D01*
X156148088Y-94735600D01*
X156271912Y-94735600D01*
X156393356Y-94711444D01*
X156507754Y-94664059D01*
X156610709Y-94595266D01*
X156698266Y-94507709D01*
X156767059Y-94404754D01*
X156814444Y-94290356D01*
X156838600Y-94168912D01*
X156838600Y-94045088D01*
X158121400Y-94045088D01*
X158121400Y-94168912D01*
X158145556Y-94290356D01*
X158192941Y-94404754D01*
X158261734Y-94507709D01*
X158349291Y-94595266D01*
X158452246Y-94664059D01*
X158566644Y-94711444D01*
X158688088Y-94735600D01*
X158811912Y-94735600D01*
X158933356Y-94711444D01*
X159047754Y-94664059D01*
X159150709Y-94595266D01*
X159238266Y-94507709D01*
X159307059Y-94404754D01*
X159354444Y-94290356D01*
X159378600Y-94168912D01*
X159378600Y-94045088D01*
X159354444Y-93923644D01*
X159307059Y-93809246D01*
X159238266Y-93706291D01*
X159150709Y-93618734D01*
X159047754Y-93549941D01*
X158933356Y-93502556D01*
X158811912Y-93478400D01*
X158688088Y-93478400D01*
X158566644Y-93502556D01*
X158452246Y-93549941D01*
X158349291Y-93618734D01*
X158261734Y-93706291D01*
X158192941Y-93809246D01*
X158145556Y-93923644D01*
X158121400Y-94045088D01*
X156838600Y-94045088D01*
X156814444Y-93923644D01*
X156767059Y-93809246D01*
X156698266Y-93706291D01*
X156610709Y-93618734D01*
X156507754Y-93549941D01*
X156393356Y-93502556D01*
X156271912Y-93478400D01*
X156148088Y-93478400D01*
X156026644Y-93502556D01*
X155912246Y-93549941D01*
X155809291Y-93618734D01*
X155721734Y-93706291D01*
X155652941Y-93809246D01*
X155605556Y-93923644D01*
X155581400Y-94045088D01*
X141598600Y-94045088D01*
X141574444Y-93923644D01*
X141527059Y-93809246D01*
X141458266Y-93706291D01*
X141370709Y-93618734D01*
X141267754Y-93549941D01*
X141153356Y-93502556D01*
X141031912Y-93478400D01*
X140908088Y-93478400D01*
X140786644Y-93502556D01*
X140672246Y-93549941D01*
X140569291Y-93618734D01*
X140481734Y-93706291D01*
X140412941Y-93809246D01*
X140365556Y-93923644D01*
X140341400Y-94045088D01*
X138677600Y-94045088D01*
X138653444Y-93923644D01*
X138606059Y-93809246D01*
X138537266Y-93706291D01*
X138449709Y-93618734D01*
X138346754Y-93549941D01*
X138232356Y-93502556D01*
X138110912Y-93478400D01*
X137987088Y-93478400D01*
X137865644Y-93502556D01*
X137751246Y-93549941D01*
X137648291Y-93618734D01*
X137560734Y-93706291D01*
X137491941Y-93809246D01*
X137444556Y-93923644D01*
X137420400Y-94045088D01*
X121659600Y-94045088D01*
X121635444Y-93923644D01*
X121588059Y-93809246D01*
X121519266Y-93706291D01*
X121431709Y-93618734D01*
X121328754Y-93549941D01*
X121214356Y-93502556D01*
X121092912Y-93478400D01*
X120969088Y-93478400D01*
X120847644Y-93502556D01*
X120733246Y-93549941D01*
X120630291Y-93618734D01*
X120542734Y-93706291D01*
X120473941Y-93809246D01*
X120426556Y-93923644D01*
X120402400Y-94045088D01*
X118738600Y-94045088D01*
X118714444Y-93923644D01*
X118667059Y-93809246D01*
X118598266Y-93706291D01*
X118510709Y-93618734D01*
X118407754Y-93549941D01*
X118293356Y-93502556D01*
X118171912Y-93478400D01*
X118048088Y-93478400D01*
X117926644Y-93502556D01*
X117812246Y-93549941D01*
X117709291Y-93618734D01*
X117621734Y-93706291D01*
X117552941Y-93809246D01*
X117505556Y-93923644D01*
X117481400Y-94045088D01*
X107308600Y-94045088D01*
X107284444Y-93923644D01*
X107237059Y-93809246D01*
X107168266Y-93706291D01*
X107080709Y-93618734D01*
X106977754Y-93549941D01*
X106863356Y-93502556D01*
X106741912Y-93478400D01*
X106618088Y-93478400D01*
X106496644Y-93502556D01*
X106382246Y-93549941D01*
X106279291Y-93618734D01*
X106191734Y-93706291D01*
X106122941Y-93809246D01*
X106075556Y-93923644D01*
X106051400Y-94045088D01*
X104387600Y-94045088D01*
X104363444Y-93923644D01*
X104316059Y-93809246D01*
X104247266Y-93706291D01*
X104159709Y-93618734D01*
X104056754Y-93549941D01*
X103942356Y-93502556D01*
X103820912Y-93478400D01*
X103697088Y-93478400D01*
X103575644Y-93502556D01*
X103461246Y-93549941D01*
X103358291Y-93618734D01*
X103270734Y-93706291D01*
X103201941Y-93809246D01*
X103154556Y-93923644D01*
X103130400Y-94045088D01*
X87369600Y-94045088D01*
X87345444Y-93923644D01*
X87298059Y-93809246D01*
X87229266Y-93706291D01*
X87141709Y-93618734D01*
X87038754Y-93549941D01*
X86924356Y-93502556D01*
X86802912Y-93478400D01*
X86679088Y-93478400D01*
X86557644Y-93502556D01*
X86443246Y-93549941D01*
X86340291Y-93618734D01*
X86252734Y-93706291D01*
X86183941Y-93809246D01*
X86136556Y-93923644D01*
X86112400Y-94045088D01*
X84448600Y-94045088D01*
X84424444Y-93923644D01*
X84377059Y-93809246D01*
X84308266Y-93706291D01*
X84220709Y-93618734D01*
X84117754Y-93549941D01*
X84003356Y-93502556D01*
X83881912Y-93478400D01*
X83758088Y-93478400D01*
X83636644Y-93502556D01*
X83522246Y-93549941D01*
X83419291Y-93618734D01*
X83331734Y-93706291D01*
X83262941Y-93809246D01*
X83215556Y-93923644D01*
X83191400Y-94045088D01*
X76528600Y-94045088D01*
X76528600Y-91252679D01*
X77663602Y-91252679D01*
X77663602Y-91627321D01*
X77736691Y-91994763D01*
X77880060Y-92340886D01*
X78088200Y-92652389D01*
X78353111Y-92917300D01*
X78664614Y-93125440D01*
X79010737Y-93268809D01*
X79378179Y-93341898D01*
X79752821Y-93341898D01*
X80120263Y-93268809D01*
X80204376Y-93233968D01*
X114706400Y-93233968D01*
X114706400Y-93329032D01*
X114724946Y-93422269D01*
X114761326Y-93510097D01*
X114814140Y-93589140D01*
X114881360Y-93656360D01*
X114960403Y-93709174D01*
X115048231Y-93745554D01*
X115141468Y-93764100D01*
X115236532Y-93764100D01*
X115329769Y-93745554D01*
X115417597Y-93709174D01*
X115496640Y-93656360D01*
X115563860Y-93589140D01*
X115616674Y-93510097D01*
X115653054Y-93422269D01*
X115671600Y-93329032D01*
X115671600Y-93233968D01*
X115653054Y-93140731D01*
X115616674Y-93052903D01*
X115563860Y-92973860D01*
X115496640Y-92906640D01*
X115417597Y-92853826D01*
X115329769Y-92817446D01*
X115236532Y-92798900D01*
X115141468Y-92798900D01*
X115048231Y-92817446D01*
X114960403Y-92853826D01*
X114881360Y-92906640D01*
X114814140Y-92973860D01*
X114761326Y-93052903D01*
X114724946Y-93140731D01*
X114706400Y-93233968D01*
X80204376Y-93233968D01*
X80466386Y-93125440D01*
X80777889Y-92917300D01*
X81042800Y-92652389D01*
X81205783Y-92408468D01*
X112039400Y-92408468D01*
X112039400Y-92503532D01*
X112057946Y-92596769D01*
X112094326Y-92684597D01*
X112147140Y-92763640D01*
X112214360Y-92830860D01*
X112293403Y-92883674D01*
X112381231Y-92920054D01*
X112474468Y-92938600D01*
X112569532Y-92938600D01*
X112662769Y-92920054D01*
X112750597Y-92883674D01*
X112829640Y-92830860D01*
X112896860Y-92763640D01*
X112949674Y-92684597D01*
X112986054Y-92596769D01*
X113004600Y-92503532D01*
X113004600Y-92408468D01*
X112986054Y-92315231D01*
X112949674Y-92227403D01*
X112896860Y-92148360D01*
X112829640Y-92081140D01*
X112750597Y-92028326D01*
X112662769Y-91991946D01*
X112569532Y-91973400D01*
X112474468Y-91973400D01*
X112381231Y-91991946D01*
X112293403Y-92028326D01*
X112214360Y-92081140D01*
X112147140Y-92148360D01*
X112094326Y-92227403D01*
X112057946Y-92315231D01*
X112039400Y-92408468D01*
X81205783Y-92408468D01*
X81250940Y-92340886D01*
X81394309Y-91994763D01*
X81467398Y-91627321D01*
X81467398Y-91252679D01*
X81394309Y-90885237D01*
X81393991Y-90884468D01*
X96037400Y-90884468D01*
X96037400Y-90979532D01*
X96055946Y-91072769D01*
X96092326Y-91160597D01*
X96145140Y-91239640D01*
X96212360Y-91306860D01*
X96291403Y-91359674D01*
X96379231Y-91396054D01*
X96472468Y-91414600D01*
X96567532Y-91414600D01*
X96660769Y-91396054D01*
X96748597Y-91359674D01*
X96827640Y-91306860D01*
X96894860Y-91239640D01*
X96947674Y-91160597D01*
X96984054Y-91072769D01*
X97002600Y-90979532D01*
X97002600Y-90884468D01*
X97307400Y-90884468D01*
X97307400Y-90979532D01*
X97325946Y-91072769D01*
X97362326Y-91160597D01*
X97415140Y-91239640D01*
X97482360Y-91306860D01*
X97561403Y-91359674D01*
X97649231Y-91396054D01*
X97742468Y-91414600D01*
X97837532Y-91414600D01*
X97930769Y-91396054D01*
X98018597Y-91359674D01*
X98097640Y-91306860D01*
X98164860Y-91239640D01*
X98217674Y-91160597D01*
X98254054Y-91072769D01*
X98272600Y-90979532D01*
X98272600Y-90884468D01*
X98577400Y-90884468D01*
X98577400Y-90979532D01*
X98595946Y-91072769D01*
X98632326Y-91160597D01*
X98685140Y-91239640D01*
X98752360Y-91306860D01*
X98831403Y-91359674D01*
X98919231Y-91396054D01*
X99012468Y-91414600D01*
X99107532Y-91414600D01*
X99200769Y-91396054D01*
X99288597Y-91359674D01*
X99367640Y-91306860D01*
X99434860Y-91239640D01*
X99487674Y-91160597D01*
X99524054Y-91072769D01*
X99542600Y-90979532D01*
X99542600Y-90884468D01*
X99847400Y-90884468D01*
X99847400Y-90979532D01*
X99865946Y-91072769D01*
X99902326Y-91160597D01*
X99955140Y-91239640D01*
X100022360Y-91306860D01*
X100101403Y-91359674D01*
X100189231Y-91396054D01*
X100282468Y-91414600D01*
X100377532Y-91414600D01*
X100470769Y-91396054D01*
X100558597Y-91359674D01*
X100637640Y-91306860D01*
X100704860Y-91239640D01*
X100757674Y-91160597D01*
X100794054Y-91072769D01*
X100812600Y-90979532D01*
X100812600Y-90884468D01*
X101117400Y-90884468D01*
X101117400Y-90979532D01*
X101135946Y-91072769D01*
X101172326Y-91160597D01*
X101225140Y-91239640D01*
X101292360Y-91306860D01*
X101371403Y-91359674D01*
X101459231Y-91396054D01*
X101552468Y-91414600D01*
X101647532Y-91414600D01*
X101740769Y-91396054D01*
X101828597Y-91359674D01*
X101907640Y-91306860D01*
X101974860Y-91239640D01*
X102027674Y-91160597D01*
X102064054Y-91072769D01*
X102082600Y-90979532D01*
X102082600Y-90884468D01*
X125247400Y-90884468D01*
X125247400Y-90979532D01*
X125265946Y-91072769D01*
X125302326Y-91160597D01*
X125355140Y-91239640D01*
X125422360Y-91306860D01*
X125501403Y-91359674D01*
X125589231Y-91396054D01*
X125682468Y-91414600D01*
X125777532Y-91414600D01*
X125870769Y-91396054D01*
X125958597Y-91359674D01*
X126037640Y-91306860D01*
X126104860Y-91239640D01*
X126157674Y-91160597D01*
X126194054Y-91072769D01*
X126212600Y-90979532D01*
X126212600Y-90884468D01*
X126517400Y-90884468D01*
X126517400Y-90979532D01*
X126535946Y-91072769D01*
X126572326Y-91160597D01*
X126625140Y-91239640D01*
X126692360Y-91306860D01*
X126771403Y-91359674D01*
X126859231Y-91396054D01*
X126952468Y-91414600D01*
X127047532Y-91414600D01*
X127140769Y-91396054D01*
X127228597Y-91359674D01*
X127307640Y-91306860D01*
X127374860Y-91239640D01*
X127427674Y-91160597D01*
X127464054Y-91072769D01*
X127482600Y-90979532D01*
X127482600Y-90884468D01*
X130327400Y-90884468D01*
X130327400Y-90979532D01*
X130345946Y-91072769D01*
X130382326Y-91160597D01*
X130435140Y-91239640D01*
X130502360Y-91306860D01*
X130581403Y-91359674D01*
X130669231Y-91396054D01*
X130762468Y-91414600D01*
X130857532Y-91414600D01*
X130950769Y-91396054D01*
X131038597Y-91359674D01*
X131117640Y-91306860D01*
X131184860Y-91239640D01*
X131237674Y-91160597D01*
X131274054Y-91072769D01*
X131292600Y-90979532D01*
X131292600Y-90884468D01*
X131597400Y-90884468D01*
X131597400Y-90979532D01*
X131615946Y-91072769D01*
X131652326Y-91160597D01*
X131705140Y-91239640D01*
X131772360Y-91306860D01*
X131851403Y-91359674D01*
X131939231Y-91396054D01*
X132032468Y-91414600D01*
X132127532Y-91414600D01*
X132220769Y-91396054D01*
X132308597Y-91359674D01*
X132387640Y-91306860D01*
X132454860Y-91239640D01*
X132507674Y-91160597D01*
X132544054Y-91072769D01*
X132562600Y-90979532D01*
X132562600Y-90884468D01*
X132867400Y-90884468D01*
X132867400Y-90979532D01*
X132885946Y-91072769D01*
X132922326Y-91160597D01*
X132975140Y-91239640D01*
X133042360Y-91306860D01*
X133121403Y-91359674D01*
X133209231Y-91396054D01*
X133302468Y-91414600D01*
X133397532Y-91414600D01*
X133490769Y-91396054D01*
X133578597Y-91359674D01*
X133657640Y-91306860D01*
X133724860Y-91239640D01*
X133777674Y-91160597D01*
X133814054Y-91072769D01*
X133832600Y-90979532D01*
X133832600Y-90884468D01*
X134137400Y-90884468D01*
X134137400Y-90979532D01*
X134155946Y-91072769D01*
X134192326Y-91160597D01*
X134245140Y-91239640D01*
X134312360Y-91306860D01*
X134391403Y-91359674D01*
X134479231Y-91396054D01*
X134572468Y-91414600D01*
X134667532Y-91414600D01*
X134760769Y-91396054D01*
X134848597Y-91359674D01*
X134927640Y-91306860D01*
X134994860Y-91239640D01*
X135047674Y-91160597D01*
X135084054Y-91072769D01*
X135102600Y-90979532D01*
X135102600Y-90884468D01*
X135407400Y-90884468D01*
X135407400Y-90979532D01*
X135425946Y-91072769D01*
X135462326Y-91160597D01*
X135515140Y-91239640D01*
X135582360Y-91306860D01*
X135661403Y-91359674D01*
X135749231Y-91396054D01*
X135842468Y-91414600D01*
X135937532Y-91414600D01*
X136030769Y-91396054D01*
X136118597Y-91359674D01*
X136197640Y-91306860D01*
X136251821Y-91252679D01*
X159832602Y-91252679D01*
X159832602Y-91627321D01*
X159905691Y-91994763D01*
X160049060Y-92340886D01*
X160257200Y-92652389D01*
X160522111Y-92917300D01*
X160833614Y-93125440D01*
X161179737Y-93268809D01*
X161547179Y-93341898D01*
X161921821Y-93341898D01*
X162289263Y-93268809D01*
X162635386Y-93125440D01*
X162946889Y-92917300D01*
X163211800Y-92652389D01*
X163419940Y-92340886D01*
X163563309Y-91994763D01*
X163636398Y-91627321D01*
X163636398Y-91252679D01*
X163563309Y-90885237D01*
X163419940Y-90539114D01*
X163211800Y-90227611D01*
X162946889Y-89962700D01*
X162635386Y-89754560D01*
X162289263Y-89611191D01*
X161921821Y-89538102D01*
X161547179Y-89538102D01*
X161179737Y-89611191D01*
X160833614Y-89754560D01*
X160522111Y-89962700D01*
X160257200Y-90227611D01*
X160049060Y-90539114D01*
X159905691Y-90885237D01*
X159832602Y-91252679D01*
X136251821Y-91252679D01*
X136264860Y-91239640D01*
X136317674Y-91160597D01*
X136354054Y-91072769D01*
X136372600Y-90979532D01*
X136372600Y-90884468D01*
X136354054Y-90791231D01*
X136317674Y-90703403D01*
X136264860Y-90624360D01*
X136197640Y-90557140D01*
X136118597Y-90504326D01*
X136030769Y-90467946D01*
X135937532Y-90449400D01*
X135842468Y-90449400D01*
X135749231Y-90467946D01*
X135661403Y-90504326D01*
X135582360Y-90557140D01*
X135515140Y-90624360D01*
X135462326Y-90703403D01*
X135425946Y-90791231D01*
X135407400Y-90884468D01*
X135102600Y-90884468D01*
X135084054Y-90791231D01*
X135047674Y-90703403D01*
X134994860Y-90624360D01*
X134927640Y-90557140D01*
X134848597Y-90504326D01*
X134760769Y-90467946D01*
X134667532Y-90449400D01*
X134572468Y-90449400D01*
X134479231Y-90467946D01*
X134391403Y-90504326D01*
X134312360Y-90557140D01*
X134245140Y-90624360D01*
X134192326Y-90703403D01*
X134155946Y-90791231D01*
X134137400Y-90884468D01*
X133832600Y-90884468D01*
X133814054Y-90791231D01*
X133777674Y-90703403D01*
X133724860Y-90624360D01*
X133657640Y-90557140D01*
X133578597Y-90504326D01*
X133490769Y-90467946D01*
X133397532Y-90449400D01*
X133302468Y-90449400D01*
X133209231Y-90467946D01*
X133121403Y-90504326D01*
X133042360Y-90557140D01*
X132975140Y-90624360D01*
X132922326Y-90703403D01*
X132885946Y-90791231D01*
X132867400Y-90884468D01*
X132562600Y-90884468D01*
X132544054Y-90791231D01*
X132507674Y-90703403D01*
X132454860Y-90624360D01*
X132387640Y-90557140D01*
X132308597Y-90504326D01*
X132220769Y-90467946D01*
X132127532Y-90449400D01*
X132032468Y-90449400D01*
X131939231Y-90467946D01*
X131851403Y-90504326D01*
X131772360Y-90557140D01*
X131705140Y-90624360D01*
X131652326Y-90703403D01*
X131615946Y-90791231D01*
X131597400Y-90884468D01*
X131292600Y-90884468D01*
X131274054Y-90791231D01*
X131237674Y-90703403D01*
X131184860Y-90624360D01*
X131117640Y-90557140D01*
X131038597Y-90504326D01*
X130950769Y-90467946D01*
X130857532Y-90449400D01*
X130762468Y-90449400D01*
X130669231Y-90467946D01*
X130581403Y-90504326D01*
X130502360Y-90557140D01*
X130435140Y-90624360D01*
X130382326Y-90703403D01*
X130345946Y-90791231D01*
X130327400Y-90884468D01*
X127482600Y-90884468D01*
X127464054Y-90791231D01*
X127427674Y-90703403D01*
X127374860Y-90624360D01*
X127307640Y-90557140D01*
X127228597Y-90504326D01*
X127140769Y-90467946D01*
X127047532Y-90449400D01*
X126952468Y-90449400D01*
X126859231Y-90467946D01*
X126771403Y-90504326D01*
X126692360Y-90557140D01*
X126625140Y-90624360D01*
X126572326Y-90703403D01*
X126535946Y-90791231D01*
X126517400Y-90884468D01*
X126212600Y-90884468D01*
X126194054Y-90791231D01*
X126157674Y-90703403D01*
X126104860Y-90624360D01*
X126037640Y-90557140D01*
X125958597Y-90504326D01*
X125870769Y-90467946D01*
X125777532Y-90449400D01*
X125682468Y-90449400D01*
X125589231Y-90467946D01*
X125501403Y-90504326D01*
X125422360Y-90557140D01*
X125355140Y-90624360D01*
X125302326Y-90703403D01*
X125265946Y-90791231D01*
X125247400Y-90884468D01*
X102082600Y-90884468D01*
X102064054Y-90791231D01*
X102027674Y-90703403D01*
X101974860Y-90624360D01*
X101907640Y-90557140D01*
X101828597Y-90504326D01*
X101740769Y-90467946D01*
X101647532Y-90449400D01*
X101552468Y-90449400D01*
X101459231Y-90467946D01*
X101371403Y-90504326D01*
X101292360Y-90557140D01*
X101225140Y-90624360D01*
X101172326Y-90703403D01*
X101135946Y-90791231D01*
X101117400Y-90884468D01*
X100812600Y-90884468D01*
X100794054Y-90791231D01*
X100757674Y-90703403D01*
X100704860Y-90624360D01*
X100637640Y-90557140D01*
X100558597Y-90504326D01*
X100470769Y-90467946D01*
X100377532Y-90449400D01*
X100282468Y-90449400D01*
X100189231Y-90467946D01*
X100101403Y-90504326D01*
X100022360Y-90557140D01*
X99955140Y-90624360D01*
X99902326Y-90703403D01*
X99865946Y-90791231D01*
X99847400Y-90884468D01*
X99542600Y-90884468D01*
X99524054Y-90791231D01*
X99487674Y-90703403D01*
X99434860Y-90624360D01*
X99367640Y-90557140D01*
X99288597Y-90504326D01*
X99200769Y-90467946D01*
X99107532Y-90449400D01*
X99012468Y-90449400D01*
X98919231Y-90467946D01*
X98831403Y-90504326D01*
X98752360Y-90557140D01*
X98685140Y-90624360D01*
X98632326Y-90703403D01*
X98595946Y-90791231D01*
X98577400Y-90884468D01*
X98272600Y-90884468D01*
X98254054Y-90791231D01*
X98217674Y-90703403D01*
X98164860Y-90624360D01*
X98097640Y-90557140D01*
X98018597Y-90504326D01*
X97930769Y-90467946D01*
X97837532Y-90449400D01*
X97742468Y-90449400D01*
X97649231Y-90467946D01*
X97561403Y-90504326D01*
X97482360Y-90557140D01*
X97415140Y-90624360D01*
X97362326Y-90703403D01*
X97325946Y-90791231D01*
X97307400Y-90884468D01*
X97002600Y-90884468D01*
X96984054Y-90791231D01*
X96947674Y-90703403D01*
X96894860Y-90624360D01*
X96827640Y-90557140D01*
X96748597Y-90504326D01*
X96660769Y-90467946D01*
X96567532Y-90449400D01*
X96472468Y-90449400D01*
X96379231Y-90467946D01*
X96291403Y-90504326D01*
X96212360Y-90557140D01*
X96145140Y-90624360D01*
X96092326Y-90703403D01*
X96055946Y-90791231D01*
X96037400Y-90884468D01*
X81393991Y-90884468D01*
X81250940Y-90539114D01*
X81042800Y-90227611D01*
X80937657Y-90122468D01*
X120675400Y-90122468D01*
X120675400Y-90217532D01*
X120693946Y-90310769D01*
X120730326Y-90398597D01*
X120783140Y-90477640D01*
X120850360Y-90544860D01*
X120929403Y-90597674D01*
X121017231Y-90634054D01*
X121110468Y-90652600D01*
X121205532Y-90652600D01*
X121298769Y-90634054D01*
X121386597Y-90597674D01*
X121465640Y-90544860D01*
X121532860Y-90477640D01*
X121585674Y-90398597D01*
X121622054Y-90310769D01*
X121640600Y-90217532D01*
X121640600Y-90122468D01*
X121622054Y-90029231D01*
X121585674Y-89941403D01*
X121532860Y-89862360D01*
X121465640Y-89795140D01*
X121386597Y-89742326D01*
X121298769Y-89705946D01*
X121205532Y-89687400D01*
X121110468Y-89687400D01*
X121017231Y-89705946D01*
X120929403Y-89742326D01*
X120850360Y-89795140D01*
X120783140Y-89862360D01*
X120730326Y-89941403D01*
X120693946Y-90029231D01*
X120675400Y-90122468D01*
X80937657Y-90122468D01*
X80777889Y-89962700D01*
X80466386Y-89754560D01*
X80120263Y-89611191D01*
X79752821Y-89538102D01*
X79378179Y-89538102D01*
X79010737Y-89611191D01*
X78664614Y-89754560D01*
X78353111Y-89962700D01*
X78088200Y-90227611D01*
X77880060Y-90539114D01*
X77736691Y-90885237D01*
X77663602Y-91252679D01*
X76528600Y-91252679D01*
X76528600Y-88979468D01*
X125247400Y-88979468D01*
X125247400Y-89074532D01*
X125265946Y-89167769D01*
X125302326Y-89255597D01*
X125355140Y-89334640D01*
X125422360Y-89401860D01*
X125501403Y-89454674D01*
X125589231Y-89491054D01*
X125682468Y-89509600D01*
X125777532Y-89509600D01*
X125870769Y-89491054D01*
X125958597Y-89454674D01*
X126037640Y-89401860D01*
X126104860Y-89334640D01*
X126157674Y-89255597D01*
X126194054Y-89167769D01*
X126212600Y-89074532D01*
X126212600Y-88979468D01*
X126194054Y-88886231D01*
X126157674Y-88798403D01*
X126104860Y-88719360D01*
X126037640Y-88652140D01*
X125958597Y-88599326D01*
X125870769Y-88562946D01*
X125777532Y-88544400D01*
X125682468Y-88544400D01*
X125589231Y-88562946D01*
X125501403Y-88599326D01*
X125422360Y-88652140D01*
X125355140Y-88719360D01*
X125302326Y-88798403D01*
X125265946Y-88886231D01*
X125247400Y-88979468D01*
X76528600Y-88979468D01*
X76528600Y-88344468D01*
X90957400Y-88344468D01*
X90957400Y-88439532D01*
X90975946Y-88532769D01*
X91012326Y-88620597D01*
X91065140Y-88699640D01*
X91132360Y-88766860D01*
X91211403Y-88819674D01*
X91299231Y-88856054D01*
X91392468Y-88874600D01*
X91487532Y-88874600D01*
X91580769Y-88856054D01*
X91668597Y-88819674D01*
X91747640Y-88766860D01*
X91814860Y-88699640D01*
X91867674Y-88620597D01*
X91904054Y-88532769D01*
X91922600Y-88439532D01*
X91922600Y-88344468D01*
X93497400Y-88344468D01*
X93497400Y-88439532D01*
X93515946Y-88532769D01*
X93552326Y-88620597D01*
X93605140Y-88699640D01*
X93672360Y-88766860D01*
X93751403Y-88819674D01*
X93839231Y-88856054D01*
X93932468Y-88874600D01*
X94027532Y-88874600D01*
X94120769Y-88856054D01*
X94208597Y-88819674D01*
X94287640Y-88766860D01*
X94354860Y-88699640D01*
X94407674Y-88620597D01*
X94444054Y-88532769D01*
X94462600Y-88439532D01*
X94462600Y-88344468D01*
X96037400Y-88344468D01*
X96037400Y-88439532D01*
X96055946Y-88532769D01*
X96092326Y-88620597D01*
X96145140Y-88699640D01*
X96212360Y-88766860D01*
X96291403Y-88819674D01*
X96379231Y-88856054D01*
X96472468Y-88874600D01*
X96567532Y-88874600D01*
X96660769Y-88856054D01*
X96748597Y-88819674D01*
X96827640Y-88766860D01*
X96894860Y-88699640D01*
X96947674Y-88620597D01*
X96984054Y-88532769D01*
X97002600Y-88439532D01*
X97002600Y-88344468D01*
X97307400Y-88344468D01*
X97307400Y-88439532D01*
X97325946Y-88532769D01*
X97362326Y-88620597D01*
X97415140Y-88699640D01*
X97482360Y-88766860D01*
X97561403Y-88819674D01*
X97649231Y-88856054D01*
X97742468Y-88874600D01*
X97837532Y-88874600D01*
X97930769Y-88856054D01*
X98018597Y-88819674D01*
X98097640Y-88766860D01*
X98164860Y-88699640D01*
X98217674Y-88620597D01*
X98254054Y-88532769D01*
X98272600Y-88439532D01*
X98272600Y-88344468D01*
X98577400Y-88344468D01*
X98577400Y-88439532D01*
X98595946Y-88532769D01*
X98632326Y-88620597D01*
X98685140Y-88699640D01*
X98752360Y-88766860D01*
X98831403Y-88819674D01*
X98919231Y-88856054D01*
X99012468Y-88874600D01*
X99107532Y-88874600D01*
X99200769Y-88856054D01*
X99288597Y-88819674D01*
X99367640Y-88766860D01*
X99434860Y-88699640D01*
X99487674Y-88620597D01*
X99524054Y-88532769D01*
X99542600Y-88439532D01*
X99542600Y-88344468D01*
X99847400Y-88344468D01*
X99847400Y-88439532D01*
X99865946Y-88532769D01*
X99902326Y-88620597D01*
X99955140Y-88699640D01*
X100022360Y-88766860D01*
X100101403Y-88819674D01*
X100189231Y-88856054D01*
X100282468Y-88874600D01*
X100377532Y-88874600D01*
X100470769Y-88856054D01*
X100558597Y-88819674D01*
X100637640Y-88766860D01*
X100704860Y-88699640D01*
X100757674Y-88620597D01*
X100794054Y-88532769D01*
X100812600Y-88439532D01*
X100812600Y-88344468D01*
X101117400Y-88344468D01*
X101117400Y-88439532D01*
X101135946Y-88532769D01*
X101172326Y-88620597D01*
X101225140Y-88699640D01*
X101292360Y-88766860D01*
X101371403Y-88819674D01*
X101459231Y-88856054D01*
X101552468Y-88874600D01*
X101647532Y-88874600D01*
X101740769Y-88856054D01*
X101828597Y-88819674D01*
X101907640Y-88766860D01*
X101974860Y-88699640D01*
X102027674Y-88620597D01*
X102064054Y-88532769D01*
X102082600Y-88439532D01*
X102082600Y-88344468D01*
X127787400Y-88344468D01*
X127787400Y-88439532D01*
X127805946Y-88532769D01*
X127842326Y-88620597D01*
X127895140Y-88699640D01*
X127962360Y-88766860D01*
X128041403Y-88819674D01*
X128129231Y-88856054D01*
X128222468Y-88874600D01*
X128317532Y-88874600D01*
X128410769Y-88856054D01*
X128498597Y-88819674D01*
X128577640Y-88766860D01*
X128644860Y-88699640D01*
X128697674Y-88620597D01*
X128734054Y-88532769D01*
X128752600Y-88439532D01*
X128752600Y-88344468D01*
X130327400Y-88344468D01*
X130327400Y-88439532D01*
X130345946Y-88532769D01*
X130382326Y-88620597D01*
X130435140Y-88699640D01*
X130502360Y-88766860D01*
X130581403Y-88819674D01*
X130669231Y-88856054D01*
X130762468Y-88874600D01*
X130857532Y-88874600D01*
X130950769Y-88856054D01*
X131038597Y-88819674D01*
X131117640Y-88766860D01*
X131184860Y-88699640D01*
X131237674Y-88620597D01*
X131274054Y-88532769D01*
X131292600Y-88439532D01*
X131292600Y-88344468D01*
X131597400Y-88344468D01*
X131597400Y-88439532D01*
X131615946Y-88532769D01*
X131652326Y-88620597D01*
X131705140Y-88699640D01*
X131772360Y-88766860D01*
X131851403Y-88819674D01*
X131939231Y-88856054D01*
X132032468Y-88874600D01*
X132127532Y-88874600D01*
X132220769Y-88856054D01*
X132308597Y-88819674D01*
X132387640Y-88766860D01*
X132454860Y-88699640D01*
X132507674Y-88620597D01*
X132544054Y-88532769D01*
X132562600Y-88439532D01*
X132562600Y-88344468D01*
X132867400Y-88344468D01*
X132867400Y-88439532D01*
X132885946Y-88532769D01*
X132922326Y-88620597D01*
X132975140Y-88699640D01*
X133042360Y-88766860D01*
X133121403Y-88819674D01*
X133209231Y-88856054D01*
X133302468Y-88874600D01*
X133397532Y-88874600D01*
X133490769Y-88856054D01*
X133578597Y-88819674D01*
X133657640Y-88766860D01*
X133724860Y-88699640D01*
X133777674Y-88620597D01*
X133814054Y-88532769D01*
X133832600Y-88439532D01*
X133832600Y-88344468D01*
X134137400Y-88344468D01*
X134137400Y-88439532D01*
X134155946Y-88532769D01*
X134192326Y-88620597D01*
X134245140Y-88699640D01*
X134312360Y-88766860D01*
X134391403Y-88819674D01*
X134479231Y-88856054D01*
X134572468Y-88874600D01*
X134667532Y-88874600D01*
X134760769Y-88856054D01*
X134848597Y-88819674D01*
X134927640Y-88766860D01*
X134994860Y-88699640D01*
X135047674Y-88620597D01*
X135084054Y-88532769D01*
X135102600Y-88439532D01*
X135102600Y-88344468D01*
X135407400Y-88344468D01*
X135407400Y-88439532D01*
X135425946Y-88532769D01*
X135462326Y-88620597D01*
X135515140Y-88699640D01*
X135582360Y-88766860D01*
X135661403Y-88819674D01*
X135749231Y-88856054D01*
X135842468Y-88874600D01*
X135937532Y-88874600D01*
X136030769Y-88856054D01*
X136118597Y-88819674D01*
X136197640Y-88766860D01*
X136264860Y-88699640D01*
X136317674Y-88620597D01*
X136354054Y-88532769D01*
X136372600Y-88439532D01*
X136372600Y-88344468D01*
X136354054Y-88251231D01*
X136317674Y-88163403D01*
X136264860Y-88084360D01*
X136197640Y-88017140D01*
X136118597Y-87964326D01*
X136030769Y-87927946D01*
X135937532Y-87909400D01*
X135842468Y-87909400D01*
X135749231Y-87927946D01*
X135661403Y-87964326D01*
X135582360Y-88017140D01*
X135515140Y-88084360D01*
X135462326Y-88163403D01*
X135425946Y-88251231D01*
X135407400Y-88344468D01*
X135102600Y-88344468D01*
X135084054Y-88251231D01*
X135047674Y-88163403D01*
X134994860Y-88084360D01*
X134927640Y-88017140D01*
X134848597Y-87964326D01*
X134760769Y-87927946D01*
X134667532Y-87909400D01*
X134572468Y-87909400D01*
X134479231Y-87927946D01*
X134391403Y-87964326D01*
X134312360Y-88017140D01*
X134245140Y-88084360D01*
X134192326Y-88163403D01*
X134155946Y-88251231D01*
X134137400Y-88344468D01*
X133832600Y-88344468D01*
X133814054Y-88251231D01*
X133777674Y-88163403D01*
X133724860Y-88084360D01*
X133657640Y-88017140D01*
X133578597Y-87964326D01*
X133490769Y-87927946D01*
X133397532Y-87909400D01*
X133302468Y-87909400D01*
X133209231Y-87927946D01*
X133121403Y-87964326D01*
X133042360Y-88017140D01*
X132975140Y-88084360D01*
X132922326Y-88163403D01*
X132885946Y-88251231D01*
X132867400Y-88344468D01*
X132562600Y-88344468D01*
X132544054Y-88251231D01*
X132507674Y-88163403D01*
X132454860Y-88084360D01*
X132387640Y-88017140D01*
X132308597Y-87964326D01*
X132220769Y-87927946D01*
X132127532Y-87909400D01*
X132032468Y-87909400D01*
X131939231Y-87927946D01*
X131851403Y-87964326D01*
X131772360Y-88017140D01*
X131705140Y-88084360D01*
X131652326Y-88163403D01*
X131615946Y-88251231D01*
X131597400Y-88344468D01*
X131292600Y-88344468D01*
X131274054Y-88251231D01*
X131237674Y-88163403D01*
X131184860Y-88084360D01*
X131117640Y-88017140D01*
X131038597Y-87964326D01*
X130950769Y-87927946D01*
X130857532Y-87909400D01*
X130762468Y-87909400D01*
X130669231Y-87927946D01*
X130581403Y-87964326D01*
X130502360Y-88017140D01*
X130435140Y-88084360D01*
X130382326Y-88163403D01*
X130345946Y-88251231D01*
X130327400Y-88344468D01*
X128752600Y-88344468D01*
X128734054Y-88251231D01*
X128697674Y-88163403D01*
X128644860Y-88084360D01*
X128577640Y-88017140D01*
X128498597Y-87964326D01*
X128410769Y-87927946D01*
X128317532Y-87909400D01*
X128222468Y-87909400D01*
X128129231Y-87927946D01*
X128041403Y-87964326D01*
X127962360Y-88017140D01*
X127895140Y-88084360D01*
X127842326Y-88163403D01*
X127805946Y-88251231D01*
X127787400Y-88344468D01*
X102082600Y-88344468D01*
X102064054Y-88251231D01*
X102027674Y-88163403D01*
X101974860Y-88084360D01*
X101907640Y-88017140D01*
X101828597Y-87964326D01*
X101740769Y-87927946D01*
X101647532Y-87909400D01*
X101552468Y-87909400D01*
X101459231Y-87927946D01*
X101371403Y-87964326D01*
X101292360Y-88017140D01*
X101225140Y-88084360D01*
X101172326Y-88163403D01*
X101135946Y-88251231D01*
X101117400Y-88344468D01*
X100812600Y-88344468D01*
X100794054Y-88251231D01*
X100757674Y-88163403D01*
X100704860Y-88084360D01*
X100637640Y-88017140D01*
X100558597Y-87964326D01*
X100470769Y-87927946D01*
X100377532Y-87909400D01*
X100282468Y-87909400D01*
X100189231Y-87927946D01*
X100101403Y-87964326D01*
X100022360Y-88017140D01*
X99955140Y-88084360D01*
X99902326Y-88163403D01*
X99865946Y-88251231D01*
X99847400Y-88344468D01*
X99542600Y-88344468D01*
X99524054Y-88251231D01*
X99487674Y-88163403D01*
X99434860Y-88084360D01*
X99367640Y-88017140D01*
X99288597Y-87964326D01*
X99200769Y-87927946D01*
X99107532Y-87909400D01*
X99012468Y-87909400D01*
X98919231Y-87927946D01*
X98831403Y-87964326D01*
X98752360Y-88017140D01*
X98685140Y-88084360D01*
X98632326Y-88163403D01*
X98595946Y-88251231D01*
X98577400Y-88344468D01*
X98272600Y-88344468D01*
X98254054Y-88251231D01*
X98217674Y-88163403D01*
X98164860Y-88084360D01*
X98097640Y-88017140D01*
X98018597Y-87964326D01*
X97930769Y-87927946D01*
X97837532Y-87909400D01*
X97742468Y-87909400D01*
X97649231Y-87927946D01*
X97561403Y-87964326D01*
X97482360Y-88017140D01*
X97415140Y-88084360D01*
X97362326Y-88163403D01*
X97325946Y-88251231D01*
X97307400Y-88344468D01*
X97002600Y-88344468D01*
X96984054Y-88251231D01*
X96947674Y-88163403D01*
X96894860Y-88084360D01*
X96827640Y-88017140D01*
X96748597Y-87964326D01*
X96660769Y-87927946D01*
X96567532Y-87909400D01*
X96472468Y-87909400D01*
X96379231Y-87927946D01*
X96291403Y-87964326D01*
X96212360Y-88017140D01*
X96145140Y-88084360D01*
X96092326Y-88163403D01*
X96055946Y-88251231D01*
X96037400Y-88344468D01*
X94462600Y-88344468D01*
X94444054Y-88251231D01*
X94407674Y-88163403D01*
X94354860Y-88084360D01*
X94287640Y-88017140D01*
X94208597Y-87964326D01*
X94120769Y-87927946D01*
X94027532Y-87909400D01*
X93932468Y-87909400D01*
X93839231Y-87927946D01*
X93751403Y-87964326D01*
X93672360Y-88017140D01*
X93605140Y-88084360D01*
X93552326Y-88163403D01*
X93515946Y-88251231D01*
X93497400Y-88344468D01*
X91922600Y-88344468D01*
X91904054Y-88251231D01*
X91867674Y-88163403D01*
X91814860Y-88084360D01*
X91747640Y-88017140D01*
X91668597Y-87964326D01*
X91580769Y-87927946D01*
X91487532Y-87909400D01*
X91392468Y-87909400D01*
X91299231Y-87927946D01*
X91211403Y-87964326D01*
X91132360Y-88017140D01*
X91065140Y-88084360D01*
X91012326Y-88163403D01*
X90975946Y-88251231D01*
X90957400Y-88344468D01*
X76528600Y-88344468D01*
X76528600Y-82878600D01*
X164771400Y-82878600D01*
X164771401Y-101271400D01*
G37*
X164771401Y-101271400D02*
X78560600Y-101271400D01*
X78560600Y-99568000D01*
X85775800Y-99568000D01*
X85775800Y-100457000D01*
X85777264Y-100471866D01*
X85781600Y-100486160D01*
X85788642Y-100499334D01*
X85798118Y-100510882D01*
X85809666Y-100520358D01*
X85822840Y-100527400D01*
X85837134Y-100531736D01*
X85852000Y-100533200D01*
X86868000Y-100533200D01*
X86882866Y-100531736D01*
X86897160Y-100527400D01*
X86910334Y-100520358D01*
X86921882Y-100510882D01*
X86931358Y-100499334D01*
X86938400Y-100486160D01*
X86942736Y-100471866D01*
X86944200Y-100457000D01*
X86944200Y-99568000D01*
X88315800Y-99568000D01*
X88315800Y-100457000D01*
X88317264Y-100471866D01*
X88321600Y-100486160D01*
X88328642Y-100499334D01*
X88338118Y-100510882D01*
X88349666Y-100520358D01*
X88362840Y-100527400D01*
X88377134Y-100531736D01*
X88392000Y-100533200D01*
X89408000Y-100533200D01*
X89422866Y-100531736D01*
X89437160Y-100527400D01*
X89450334Y-100520358D01*
X89461882Y-100510882D01*
X89471358Y-100499334D01*
X89478400Y-100486160D01*
X89482736Y-100471866D01*
X89484200Y-100457000D01*
X89484200Y-99568000D01*
X90855800Y-99568000D01*
X90855800Y-100457000D01*
X90857264Y-100471866D01*
X90861600Y-100486160D01*
X90868642Y-100499334D01*
X90878118Y-100510882D01*
X90889666Y-100520358D01*
X90902840Y-100527400D01*
X90917134Y-100531736D01*
X90932000Y-100533200D01*
X91948000Y-100533200D01*
X91962866Y-100531736D01*
X91977160Y-100527400D01*
X91990334Y-100520358D01*
X92001882Y-100510882D01*
X92011358Y-100499334D01*
X92018400Y-100486160D01*
X92022736Y-100471866D01*
X92024200Y-100457000D01*
X92024200Y-99568000D01*
X93395800Y-99568000D01*
X93395800Y-100457000D01*
X93397264Y-100471866D01*
X93401600Y-100486160D01*
X93408642Y-100499334D01*
X93418118Y-100510882D01*
X93429666Y-100520358D01*
X93442840Y-100527400D01*
X93457134Y-100531736D01*
X93472000Y-100533200D01*
X94488000Y-100533200D01*
X94502866Y-100531736D01*
X94517160Y-100527400D01*
X94530334Y-100520358D01*
X94541882Y-100510882D01*
X94551358Y-100499334D01*
X94558400Y-100486160D01*
X94562736Y-100471866D01*
X94564200Y-100457000D01*
X94564200Y-99568000D01*
X95935800Y-99568000D01*
X95935800Y-100457000D01*
X95937264Y-100471866D01*
X95941600Y-100486160D01*
X95948642Y-100499334D01*
X95958118Y-100510882D01*
X95969666Y-100520358D01*
X95982840Y-100527400D01*
X95997134Y-100531736D01*
X96012000Y-100533200D01*
X97028000Y-100533200D01*
X97042866Y-100531736D01*
X97057160Y-100527400D01*
X97070334Y-100520358D01*
X97081882Y-100510882D01*
X97091358Y-100499334D01*
X97098400Y-100486160D01*
X97102736Y-100471866D01*
X97104200Y-100457000D01*
X97104200Y-99568000D01*
X98475800Y-99568000D01*
X98475800Y-100457000D01*
X98477264Y-100471866D01*
X98481600Y-100486160D01*
X98488642Y-100499334D01*
X98498118Y-100510882D01*
X98509666Y-100520358D01*
X98522840Y-100527400D01*
X98537134Y-100531736D01*
X98552000Y-100533200D01*
X99568000Y-100533200D01*
X99582866Y-100531736D01*
X99597160Y-100527400D01*
X99610334Y-100520358D01*
X99621882Y-100510882D01*
X99631358Y-100499334D01*
X99638400Y-100486160D01*
X99642736Y-100471866D01*
X99644200Y-100457000D01*
X99644200Y-99568000D01*
X101015800Y-99568000D01*
X101015800Y-100457000D01*
X101017264Y-100471866D01*
X101021600Y-100486160D01*
X101028642Y-100499334D01*
X101038118Y-100510882D01*
X101049666Y-100520358D01*
X101062840Y-100527400D01*
X101077134Y-100531736D01*
X101092000Y-100533200D01*
X102108000Y-100533200D01*
X102122866Y-100531736D01*
X102137160Y-100527400D01*
X102150334Y-100520358D01*
X102161882Y-100510882D01*
X102171358Y-100499334D01*
X102178400Y-100486160D01*
X102182736Y-100471866D01*
X102184200Y-100457000D01*
X102184200Y-99568000D01*
X106095800Y-99568000D01*
X106095800Y-100457000D01*
X106097264Y-100471866D01*
X106101600Y-100486160D01*
X106108642Y-100499334D01*
X106118118Y-100510882D01*
X106129666Y-100520358D01*
X106142840Y-100527400D01*
X106157134Y-100531736D01*
X106172000Y-100533200D01*
X107188000Y-100533200D01*
X107202866Y-100531736D01*
X107217160Y-100527400D01*
X107230334Y-100520358D01*
X107241882Y-100510882D01*
X107251358Y-100499334D01*
X107258400Y-100486160D01*
X107262736Y-100471866D01*
X107264200Y-100457000D01*
X107264200Y-99568000D01*
X108635800Y-99568000D01*
X108635800Y-100457000D01*
X108637264Y-100471866D01*
X108641600Y-100486160D01*
X108648642Y-100499334D01*
X108658118Y-100510882D01*
X108669666Y-100520358D01*
X108682840Y-100527400D01*
X108697134Y-100531736D01*
X108712000Y-100533200D01*
X109728000Y-100533200D01*
X109742866Y-100531736D01*
X109757160Y-100527400D01*
X109770334Y-100520358D01*
X109781882Y-100510882D01*
X109791358Y-100499334D01*
X109798400Y-100486160D01*
X109802736Y-100471866D01*
X109804200Y-100457000D01*
X109804200Y-99568000D01*
X111175800Y-99568000D01*
X111175800Y-100457000D01*
X111177264Y-100471866D01*
X111181600Y-100486160D01*
X111188642Y-100499334D01*
X111198118Y-100510882D01*
X111209666Y-100520358D01*
X111222840Y-100527400D01*
X111237134Y-100531736D01*
X111252000Y-100533200D01*
X112268000Y-100533200D01*
X112282866Y-100531736D01*
X112297160Y-100527400D01*
X112310334Y-100520358D01*
X112321882Y-100510882D01*
X112331358Y-100499334D01*
X112338400Y-100486160D01*
X112342736Y-100471866D01*
X112344200Y-100457000D01*
X112344200Y-99568000D01*
X113715800Y-99568000D01*
X113715800Y-100457000D01*
X113717264Y-100471866D01*
X113721600Y-100486160D01*
X113728642Y-100499334D01*
X113738118Y-100510882D01*
X113749666Y-100520358D01*
X113762840Y-100527400D01*
X113777134Y-100531736D01*
X113792000Y-100533200D01*
X114808000Y-100533200D01*
X114822866Y-100531736D01*
X114837160Y-100527400D01*
X114850334Y-100520358D01*
X114861882Y-100510882D01*
X114871358Y-100499334D01*
X114878400Y-100486160D01*
X114882736Y-100471866D01*
X114884200Y-100457000D01*
X114884200Y-99568000D01*
X116255800Y-99568000D01*
X116255800Y-100457000D01*
X116257264Y-100471866D01*
X116261600Y-100486160D01*
X116268642Y-100499334D01*
X116278118Y-100510882D01*
X116289666Y-100520358D01*
X116302840Y-100527400D01*
X116317134Y-100531736D01*
X116332000Y-100533200D01*
X117348000Y-100533200D01*
X117362866Y-100531736D01*
X117377160Y-100527400D01*
X117390334Y-100520358D01*
X117401882Y-100510882D01*
X117411358Y-100499334D01*
X117418400Y-100486160D01*
X117422736Y-100471866D01*
X117424200Y-100457000D01*
X117424200Y-99568000D01*
X118795800Y-99568000D01*
X118795800Y-100457000D01*
X118797264Y-100471866D01*
X118801600Y-100486160D01*
X118808642Y-100499334D01*
X118818118Y-100510882D01*
X118829666Y-100520358D01*
X118842840Y-100527400D01*
X118857134Y-100531736D01*
X118872000Y-100533200D01*
X119888000Y-100533200D01*
X119902866Y-100531736D01*
X119917160Y-100527400D01*
X119930334Y-100520358D01*
X119941882Y-100510882D01*
X119951358Y-100499334D01*
X119958400Y-100486160D01*
X119962736Y-100471866D01*
X119964200Y-100457000D01*
X119964200Y-99568000D01*
X121335800Y-99568000D01*
X121335800Y-100457000D01*
X121337264Y-100471866D01*
X121341600Y-100486160D01*
X121348642Y-100499334D01*
X121358118Y-100510882D01*
X121369666Y-100520358D01*
X121382840Y-100527400D01*
X121397134Y-100531736D01*
X121412000Y-100533200D01*
X122428000Y-100533200D01*
X122442866Y-100531736D01*
X122457160Y-100527400D01*
X122470334Y-100520358D01*
X122481882Y-100510882D01*
X122491358Y-100499334D01*
X122498400Y-100486160D01*
X122502736Y-100471866D01*
X122504200Y-100457000D01*
X122504200Y-99568000D01*
X123875800Y-99568000D01*
X123875800Y-100457000D01*
X123877264Y-100471866D01*
X123881600Y-100486160D01*
X123888642Y-100499334D01*
X123898118Y-100510882D01*
X123909666Y-100520358D01*
X123922840Y-100527400D01*
X123937134Y-100531736D01*
X123952000Y-100533200D01*
X124968000Y-100533200D01*
X124982866Y-100531736D01*
X124997160Y-100527400D01*
X125010334Y-100520358D01*
X125021882Y-100510882D01*
X125031358Y-100499334D01*
X125038400Y-100486160D01*
X125042736Y-100471866D01*
X125044200Y-100457000D01*
X125044200Y-99568000D01*
X126415800Y-99568000D01*
X126415800Y-100457000D01*
X126417264Y-100471866D01*
X126421600Y-100486160D01*
X126428642Y-100499334D01*
X126438118Y-100510882D01*
X126449666Y-100520358D01*
X126462840Y-100527400D01*
X126477134Y-100531736D01*
X126492000Y-100533200D01*
X127508000Y-100533200D01*
X127522866Y-100531736D01*
X127537160Y-100527400D01*
X127550334Y-100520358D01*
X127561882Y-100510882D01*
X127571358Y-100499334D01*
X127578400Y-100486160D01*
X127582736Y-100471866D01*
X127584200Y-100457000D01*
X127584200Y-99568000D01*
X128955800Y-99568000D01*
X128955800Y-100457000D01*
X128957264Y-100471866D01*
X128961600Y-100486160D01*
X128968642Y-100499334D01*
X128978118Y-100510882D01*
X128989666Y-100520358D01*
X129002840Y-100527400D01*
X129017134Y-100531736D01*
X129032000Y-100533200D01*
X130048000Y-100533200D01*
X130062866Y-100531736D01*
X130077160Y-100527400D01*
X130090334Y-100520358D01*
X130101882Y-100510882D01*
X130111358Y-100499334D01*
X130118400Y-100486160D01*
X130122736Y-100471866D01*
X130124200Y-100457000D01*
X130124200Y-99568000D01*
X131495800Y-99568000D01*
X131495800Y-100457000D01*
X131497264Y-100471866D01*
X131501600Y-100486160D01*
X131508642Y-100499334D01*
X131518118Y-100510882D01*
X131529666Y-100520358D01*
X131542840Y-100527400D01*
X131557134Y-100531736D01*
X131572000Y-100533200D01*
X132588000Y-100533200D01*
X132602866Y-100531736D01*
X132617160Y-100527400D01*
X132630334Y-100520358D01*
X132641882Y-100510882D01*
X132651358Y-100499334D01*
X132658400Y-100486160D01*
X132662736Y-100471866D01*
X132664200Y-100457000D01*
X132664200Y-99568000D01*
X134035800Y-99568000D01*
X134035800Y-100457000D01*
X134037264Y-100471866D01*
X134041600Y-100486160D01*
X134048642Y-100499334D01*
X134058118Y-100510882D01*
X134069666Y-100520358D01*
X134082840Y-100527400D01*
X134097134Y-100531736D01*
X134112000Y-100533200D01*
X135128000Y-100533200D01*
X135142866Y-100531736D01*
X135157160Y-100527400D01*
X135170334Y-100520358D01*
X135181882Y-100510882D01*
X135191358Y-100499334D01*
X135198400Y-100486160D01*
X135202736Y-100471866D01*
X135204200Y-100457000D01*
X135204200Y-99568000D01*
X139115800Y-99568000D01*
X139115800Y-100457000D01*
X139117264Y-100471866D01*
X139121600Y-100486160D01*
X139128642Y-100499334D01*
X139138118Y-100510882D01*
X139149666Y-100520358D01*
X139162840Y-100527400D01*
X139177134Y-100531736D01*
X139192000Y-100533200D01*
X140208000Y-100533200D01*
X140222866Y-100531736D01*
X140237160Y-100527400D01*
X140250334Y-100520358D01*
X140261882Y-100510882D01*
X140271358Y-100499334D01*
X140278400Y-100486160D01*
X140282736Y-100471866D01*
X140284200Y-100457000D01*
X140284200Y-99568000D01*
X141655800Y-99568000D01*
X141655800Y-100457000D01*
X141657264Y-100471866D01*
X141661600Y-100486160D01*
X141668642Y-100499334D01*
X141678118Y-100510882D01*
X141689666Y-100520358D01*
X141702840Y-100527400D01*
X141717134Y-100531736D01*
X141732000Y-100533200D01*
X142748000Y-100533200D01*
X142762866Y-100531736D01*
X142777160Y-100527400D01*
X142790334Y-100520358D01*
X142801882Y-100510882D01*
X142811358Y-100499334D01*
X142818400Y-100486160D01*
X142822736Y-100471866D01*
X142824200Y-100457000D01*
X142824200Y-99568000D01*
X144195800Y-99568000D01*
X144195800Y-100457000D01*
X144197264Y-100471866D01*
X144201600Y-100486160D01*
X144208642Y-100499334D01*
X144218118Y-100510882D01*
X144229666Y-100520358D01*
X144242840Y-100527400D01*
X144257134Y-100531736D01*
X144272000Y-100533200D01*
X145288000Y-100533200D01*
X145302866Y-100531736D01*
X145317160Y-100527400D01*
X145330334Y-100520358D01*
X145341882Y-100510882D01*
X145351358Y-100499334D01*
X145358400Y-100486160D01*
X145362736Y-100471866D01*
X145364200Y-100457000D01*
X145364200Y-99568000D01*
X146735800Y-99568000D01*
X146735800Y-100457000D01*
X146737264Y-100471866D01*
X146741600Y-100486160D01*
X146748642Y-100499334D01*
X146758118Y-100510882D01*
X146769666Y-100520358D01*
X146782840Y-100527400D01*
X146797134Y-100531736D01*
X146812000Y-100533200D01*
X147828000Y-100533200D01*
X147842866Y-100531736D01*
X147857160Y-100527400D01*
X147870334Y-100520358D01*
X147881882Y-100510882D01*
X147891358Y-100499334D01*
X147898400Y-100486160D01*
X147902736Y-100471866D01*
X147904200Y-100457000D01*
X147904200Y-99568000D01*
X149275800Y-99568000D01*
X149275800Y-100457000D01*
X149277264Y-100471866D01*
X149281600Y-100486160D01*
X149288642Y-100499334D01*
X149298118Y-100510882D01*
X149309666Y-100520358D01*
X149322840Y-100527400D01*
X149337134Y-100531736D01*
X149352000Y-100533200D01*
X150368000Y-100533200D01*
X150382866Y-100531736D01*
X150397160Y-100527400D01*
X150410334Y-100520358D01*
X150421882Y-100510882D01*
X150431358Y-100499334D01*
X150438400Y-100486160D01*
X150442736Y-100471866D01*
X150444200Y-100457000D01*
X150444200Y-99568000D01*
X151815800Y-99568000D01*
X151815800Y-100457000D01*
X151817264Y-100471866D01*
X151821600Y-100486160D01*
X151828642Y-100499334D01*
X151838118Y-100510882D01*
X151849666Y-100520358D01*
X151862840Y-100527400D01*
X151877134Y-100531736D01*
X151892000Y-100533200D01*
X152908000Y-100533200D01*
X152922866Y-100531736D01*
X152937160Y-100527400D01*
X152950334Y-100520358D01*
X152961882Y-100510882D01*
X152971358Y-100499334D01*
X152978400Y-100486160D01*
X152982736Y-100471866D01*
X152984200Y-100457000D01*
X152984200Y-99568000D01*
X154355800Y-99568000D01*
X154355800Y-100457000D01*
X154357264Y-100471866D01*
X154361600Y-100486160D01*
X154368642Y-100499334D01*
X154378118Y-100510882D01*
X154389666Y-100520358D01*
X154402840Y-100527400D01*
X154417134Y-100531736D01*
X154432000Y-100533200D01*
X155448000Y-100533200D01*
X155462866Y-100531736D01*
X155477160Y-100527400D01*
X155490334Y-100520358D01*
X155501882Y-100510882D01*
X155511358Y-100499334D01*
X155518400Y-100486160D01*
X155522736Y-100471866D01*
X155524200Y-100457000D01*
X155524200Y-99568000D01*
X155522736Y-99553134D01*
X155518400Y-99538840D01*
X155511358Y-99525666D01*
X155501882Y-99514118D01*
X155490334Y-99504642D01*
X155477160Y-99497600D01*
X155462866Y-99493264D01*
X155448000Y-99491800D01*
X154432000Y-99491800D01*
X154417134Y-99493264D01*
X154402840Y-99497600D01*
X154389666Y-99504642D01*
X154378118Y-99514118D01*
X154368642Y-99525666D01*
X154361600Y-99538840D01*
X154357264Y-99553134D01*
X154355800Y-99568000D01*
X152984200Y-99568000D01*
X152982736Y-99553134D01*
X152978400Y-99538840D01*
X152971358Y-99525666D01*
X152961882Y-99514118D01*
X152950334Y-99504642D01*
X152937160Y-99497600D01*
X152922866Y-99493264D01*
X152908000Y-99491800D01*
X151892000Y-99491800D01*
X151877134Y-99493264D01*
X151862840Y-99497600D01*
X151849666Y-99504642D01*
X151838118Y-99514118D01*
X151828642Y-99525666D01*
X151821600Y-99538840D01*
X151817264Y-99553134D01*
X151815800Y-99568000D01*
X150444200Y-99568000D01*
X150442736Y-99553134D01*
X150438400Y-99538840D01*
X150431358Y-99525666D01*
X150421882Y-99514118D01*
X150410334Y-99504642D01*
X150397160Y-99497600D01*
X150382866Y-99493264D01*
X150368000Y-99491800D01*
X149352000Y-99491800D01*
X149337134Y-99493264D01*
X149322840Y-99497600D01*
X149309666Y-99504642D01*
X149298118Y-99514118D01*
X149288642Y-99525666D01*
X149281600Y-99538840D01*
X149277264Y-99553134D01*
X149275800Y-99568000D01*
X147904200Y-99568000D01*
X147902736Y-99553134D01*
X147898400Y-99538840D01*
X147891358Y-99525666D01*
X147881882Y-99514118D01*
X147870334Y-99504642D01*
X147857160Y-99497600D01*
X147842866Y-99493264D01*
X147828000Y-99491800D01*
X146812000Y-99491800D01*
X146797134Y-99493264D01*
X146782840Y-99497600D01*
X146769666Y-99504642D01*
X146758118Y-99514118D01*
X146748642Y-99525666D01*
X146741600Y-99538840D01*
X146737264Y-99553134D01*
X146735800Y-99568000D01*
X145364200Y-99568000D01*
X145362736Y-99553134D01*
X145358400Y-99538840D01*
X145351358Y-99525666D01*
X145341882Y-99514118D01*
X145330334Y-99504642D01*
X145317160Y-99497600D01*
X145302866Y-99493264D01*
X145288000Y-99491800D01*
X144272000Y-99491800D01*
X144257134Y-99493264D01*
X144242840Y-99497600D01*
X144229666Y-99504642D01*
X144218118Y-99514118D01*
X144208642Y-99525666D01*
X144201600Y-99538840D01*
X144197264Y-99553134D01*
X144195800Y-99568000D01*
X142824200Y-99568000D01*
X142822736Y-99553134D01*
X142818400Y-99538840D01*
X142811358Y-99525666D01*
X142801882Y-99514118D01*
X142790334Y-99504642D01*
X142777160Y-99497600D01*
X142762866Y-99493264D01*
X142748000Y-99491800D01*
X141732000Y-99491800D01*
X141717134Y-99493264D01*
X141702840Y-99497600D01*
X141689666Y-99504642D01*
X141678118Y-99514118D01*
X141668642Y-99525666D01*
X141661600Y-99538840D01*
X141657264Y-99553134D01*
X141655800Y-99568000D01*
X140284200Y-99568000D01*
X140282736Y-99553134D01*
X140278400Y-99538840D01*
X140271358Y-99525666D01*
X140261882Y-99514118D01*
X140250334Y-99504642D01*
X140237160Y-99497600D01*
X140222866Y-99493264D01*
X140208000Y-99491800D01*
X139192000Y-99491800D01*
X139177134Y-99493264D01*
X139162840Y-99497600D01*
X139149666Y-99504642D01*
X139138118Y-99514118D01*
X139128642Y-99525666D01*
X139121600Y-99538840D01*
X139117264Y-99553134D01*
X139115800Y-99568000D01*
X135204200Y-99568000D01*
X135202736Y-99553134D01*
X135198400Y-99538840D01*
X135191358Y-99525666D01*
X135181882Y-99514118D01*
X135170334Y-99504642D01*
X135157160Y-99497600D01*
X135142866Y-99493264D01*
X135128000Y-99491800D01*
X134112000Y-99491800D01*
X134097134Y-99493264D01*
X134082840Y-99497600D01*
X134069666Y-99504642D01*
X134058118Y-99514118D01*
X134048642Y-99525666D01*
X134041600Y-99538840D01*
X134037264Y-99553134D01*
X134035800Y-99568000D01*
X132664200Y-99568000D01*
X132662736Y-99553134D01*
X132658400Y-99538840D01*
X132651358Y-99525666D01*
X132641882Y-99514118D01*
X132630334Y-99504642D01*
X132617160Y-99497600D01*
X132602866Y-99493264D01*
X132588000Y-99491800D01*
X131572000Y-99491800D01*
X131557134Y-99493264D01*
X131542840Y-99497600D01*
X131529666Y-99504642D01*
X131518118Y-99514118D01*
X131508642Y-99525666D01*
X131501600Y-99538840D01*
X131497264Y-99553134D01*
X131495800Y-99568000D01*
X130124200Y-99568000D01*
X130122736Y-99553134D01*
X130118400Y-99538840D01*
X130111358Y-99525666D01*
X130101882Y-99514118D01*
X130090334Y-99504642D01*
X130077160Y-99497600D01*
X130062866Y-99493264D01*
X130048000Y-99491800D01*
X129032000Y-99491800D01*
X129017134Y-99493264D01*
X129002840Y-99497600D01*
X128989666Y-99504642D01*
X128978118Y-99514118D01*
X128968642Y-99525666D01*
X128961600Y-99538840D01*
X128957264Y-99553134D01*
X128955800Y-99568000D01*
X127584200Y-99568000D01*
X127582736Y-99553134D01*
X127578400Y-99538840D01*
X127571358Y-99525666D01*
X127561882Y-99514118D01*
X127550334Y-99504642D01*
X127537160Y-99497600D01*
X127522866Y-99493264D01*
X127508000Y-99491800D01*
X126492000Y-99491800D01*
X126477134Y-99493264D01*
X126462840Y-99497600D01*
X126449666Y-99504642D01*
X126438118Y-99514118D01*
X126428642Y-99525666D01*
X126421600Y-99538840D01*
X126417264Y-99553134D01*
X126415800Y-99568000D01*
X125044200Y-99568000D01*
X125042736Y-99553134D01*
X125038400Y-99538840D01*
X125031358Y-99525666D01*
X125021882Y-99514118D01*
X125010334Y-99504642D01*
X124997160Y-99497600D01*
X124982866Y-99493264D01*
X124968000Y-99491800D01*
X123952000Y-99491800D01*
X123937134Y-99493264D01*
X123922840Y-99497600D01*
X123909666Y-99504642D01*
X123898118Y-99514118D01*
X123888642Y-99525666D01*
X123881600Y-99538840D01*
X123877264Y-99553134D01*
X123875800Y-99568000D01*
X122504200Y-99568000D01*
X122502736Y-99553134D01*
X122498400Y-99538840D01*
X122491358Y-99525666D01*
X122481882Y-99514118D01*
X122470334Y-99504642D01*
X122457160Y-99497600D01*
X122442866Y-99493264D01*
X122428000Y-99491800D01*
X121412000Y-99491800D01*
X121397134Y-99493264D01*
X121382840Y-99497600D01*
X121369666Y-99504642D01*
X121358118Y-99514118D01*
X121348642Y-99525666D01*
X121341600Y-99538840D01*
X121337264Y-99553134D01*
X121335800Y-99568000D01*
X119964200Y-99568000D01*
X119962736Y-99553134D01*
X119958400Y-99538840D01*
X119951358Y-99525666D01*
X119941882Y-99514118D01*
X119930334Y-99504642D01*
X119917160Y-99497600D01*
X119902866Y-99493264D01*
X119888000Y-99491800D01*
X118872000Y-99491800D01*
X118857134Y-99493264D01*
X118842840Y-99497600D01*
X118829666Y-99504642D01*
X118818118Y-99514118D01*
X118808642Y-99525666D01*
X118801600Y-99538840D01*
X118797264Y-99553134D01*
X118795800Y-99568000D01*
X117424200Y-99568000D01*
X117422736Y-99553134D01*
X117418400Y-99538840D01*
X117411358Y-99525666D01*
X117401882Y-99514118D01*
X117390334Y-99504642D01*
X117377160Y-99497600D01*
X117362866Y-99493264D01*
X117348000Y-99491800D01*
X116332000Y-99491800D01*
X116317134Y-99493264D01*
X116302840Y-99497600D01*
X116289666Y-99504642D01*
X116278118Y-99514118D01*
X116268642Y-99525666D01*
X116261600Y-99538840D01*
X116257264Y-99553134D01*
X116255800Y-99568000D01*
X114884200Y-99568000D01*
X114882736Y-99553134D01*
X114878400Y-99538840D01*
X114871358Y-99525666D01*
X114861882Y-99514118D01*
X114850334Y-99504642D01*
X114837160Y-99497600D01*
X114822866Y-99493264D01*
X114808000Y-99491800D01*
X113792000Y-99491800D01*
X113777134Y-99493264D01*
X113762840Y-99497600D01*
X113749666Y-99504642D01*
X113738118Y-99514118D01*
X113728642Y-99525666D01*
X113721600Y-99538840D01*
X113717264Y-99553134D01*
X113715800Y-99568000D01*
X112344200Y-99568000D01*
X112342736Y-99553134D01*
X112338400Y-99538840D01*
X112331358Y-99525666D01*
X112321882Y-99514118D01*
X112310334Y-99504642D01*
X112297160Y-99497600D01*
X112282866Y-99493264D01*
X112268000Y-99491800D01*
X111252000Y-99491800D01*
X111237134Y-99493264D01*
X111222840Y-99497600D01*
X111209666Y-99504642D01*
X111198118Y-99514118D01*
X111188642Y-99525666D01*
X111181600Y-99538840D01*
X111177264Y-99553134D01*
X111175800Y-99568000D01*
X109804200Y-99568000D01*
X109802736Y-99553134D01*
X109798400Y-99538840D01*
X109791358Y-99525666D01*
X109781882Y-99514118D01*
X109770334Y-99504642D01*
X109757160Y-99497600D01*
X109742866Y-99493264D01*
X109728000Y-99491800D01*
X108712000Y-99491800D01*
X108697134Y-99493264D01*
X108682840Y-99497600D01*
X108669666Y-99504642D01*
X108658118Y-99514118D01*
X108648642Y-99525666D01*
X108641600Y-99538840D01*
X108637264Y-99553134D01*
X108635800Y-99568000D01*
X107264200Y-99568000D01*
X107262736Y-99553134D01*
X107258400Y-99538840D01*
X107251358Y-99525666D01*
X107241882Y-99514118D01*
X107230334Y-99504642D01*
X107217160Y-99497600D01*
X107202866Y-99493264D01*
X107188000Y-99491800D01*
X106172000Y-99491800D01*
X106157134Y-99493264D01*
X106142840Y-99497600D01*
X106129666Y-99504642D01*
X106118118Y-99514118D01*
X106108642Y-99525666D01*
X106101600Y-99538840D01*
X106097264Y-99553134D01*
X106095800Y-99568000D01*
X102184200Y-99568000D01*
X102182736Y-99553134D01*
X102178400Y-99538840D01*
X102171358Y-99525666D01*
X102161882Y-99514118D01*
X102150334Y-99504642D01*
X102137160Y-99497600D01*
X102122866Y-99493264D01*
X102108000Y-99491800D01*
X101092000Y-99491800D01*
X101077134Y-99493264D01*
X101062840Y-99497600D01*
X101049666Y-99504642D01*
X101038118Y-99514118D01*
X101028642Y-99525666D01*
X101021600Y-99538840D01*
X101017264Y-99553134D01*
X101015800Y-99568000D01*
X99644200Y-99568000D01*
X99642736Y-99553134D01*
X99638400Y-99538840D01*
X99631358Y-99525666D01*
X99621882Y-99514118D01*
X99610334Y-99504642D01*
X99597160Y-99497600D01*
X99582866Y-99493264D01*
X99568000Y-99491800D01*
X98552000Y-99491800D01*
X98537134Y-99493264D01*
X98522840Y-99497600D01*
X98509666Y-99504642D01*
X98498118Y-99514118D01*
X98488642Y-99525666D01*
X98481600Y-99538840D01*
X98477264Y-99553134D01*
X98475800Y-99568000D01*
X97104200Y-99568000D01*
X97102736Y-99553134D01*
X97098400Y-99538840D01*
X97091358Y-99525666D01*
X97081882Y-99514118D01*
X97070334Y-99504642D01*
X97057160Y-99497600D01*
X97042866Y-99493264D01*
X97028000Y-99491800D01*
X96012000Y-99491800D01*
X95997134Y-99493264D01*
X95982840Y-99497600D01*
X95969666Y-99504642D01*
X95958118Y-99514118D01*
X95948642Y-99525666D01*
X95941600Y-99538840D01*
X95937264Y-99553134D01*
X95935800Y-99568000D01*
X94564200Y-99568000D01*
X94562736Y-99553134D01*
X94558400Y-99538840D01*
X94551358Y-99525666D01*
X94541882Y-99514118D01*
X94530334Y-99504642D01*
X94517160Y-99497600D01*
X94502866Y-99493264D01*
X94488000Y-99491800D01*
X93472000Y-99491800D01*
X93457134Y-99493264D01*
X93442840Y-99497600D01*
X93429666Y-99504642D01*
X93418118Y-99514118D01*
X93408642Y-99525666D01*
X93401600Y-99538840D01*
X93397264Y-99553134D01*
X93395800Y-99568000D01*
X92024200Y-99568000D01*
X92022736Y-99553134D01*
X92018400Y-99538840D01*
X92011358Y-99525666D01*
X92001882Y-99514118D01*
X91990334Y-99504642D01*
X91977160Y-99497600D01*
X91962866Y-99493264D01*
X91948000Y-99491800D01*
X90932000Y-99491800D01*
X90917134Y-99493264D01*
X90902840Y-99497600D01*
X90889666Y-99504642D01*
X90878118Y-99514118D01*
X90868642Y-99525666D01*
X90861600Y-99538840D01*
X90857264Y-99553134D01*
X90855800Y-99568000D01*
X89484200Y-99568000D01*
X89482736Y-99553134D01*
X89478400Y-99538840D01*
X89471358Y-99525666D01*
X89461882Y-99514118D01*
X89450334Y-99504642D01*
X89437160Y-99497600D01*
X89422866Y-99493264D01*
X89408000Y-99491800D01*
X88392000Y-99491800D01*
X88377134Y-99493264D01*
X88362840Y-99497600D01*
X88349666Y-99504642D01*
X88338118Y-99514118D01*
X88328642Y-99525666D01*
X88321600Y-99538840D01*
X88317264Y-99553134D01*
X88315800Y-99568000D01*
X86944200Y-99568000D01*
X86942736Y-99553134D01*
X86938400Y-99538840D01*
X86931358Y-99525666D01*
X86921882Y-99514118D01*
X86910334Y-99504642D01*
X86897160Y-99497600D01*
X86882866Y-99493264D01*
X86868000Y-99491800D01*
X85852000Y-99491800D01*
X85837134Y-99493264D01*
X85822840Y-99497600D01*
X85809666Y-99504642D01*
X85798118Y-99514118D01*
X85788642Y-99525666D01*
X85781600Y-99538840D01*
X85777264Y-99553134D01*
X85775800Y-99568000D01*
X78560600Y-99568000D01*
X78560600Y-98744088D01*
X83191400Y-98744088D01*
X83191400Y-98867912D01*
X83215556Y-98989356D01*
X83262941Y-99103754D01*
X83331734Y-99206709D01*
X83419291Y-99294266D01*
X83522246Y-99363059D01*
X83636644Y-99410444D01*
X83758088Y-99434600D01*
X83881912Y-99434600D01*
X84003356Y-99410444D01*
X84117754Y-99363059D01*
X84220709Y-99294266D01*
X84308266Y-99206709D01*
X84377059Y-99103754D01*
X84424444Y-98989356D01*
X84448600Y-98867912D01*
X84448600Y-98744088D01*
X85731400Y-98744088D01*
X85731400Y-98867912D01*
X85755556Y-98989356D01*
X85802941Y-99103754D01*
X85871734Y-99206709D01*
X85959291Y-99294266D01*
X86062246Y-99363059D01*
X86176644Y-99410444D01*
X86298088Y-99434600D01*
X86421912Y-99434600D01*
X86543356Y-99410444D01*
X86657754Y-99363059D01*
X86760709Y-99294266D01*
X86848266Y-99206709D01*
X86917059Y-99103754D01*
X86964444Y-98989356D01*
X86988600Y-98867912D01*
X86988600Y-98744088D01*
X88271400Y-98744088D01*
X88271400Y-98867912D01*
X88295556Y-98989356D01*
X88342941Y-99103754D01*
X88411734Y-99206709D01*
X88499291Y-99294266D01*
X88602246Y-99363059D01*
X88716644Y-99410444D01*
X88838088Y-99434600D01*
X88961912Y-99434600D01*
X89083356Y-99410444D01*
X89197754Y-99363059D01*
X89300709Y-99294266D01*
X89388266Y-99206709D01*
X89457059Y-99103754D01*
X89504444Y-98989356D01*
X89528600Y-98867912D01*
X89528600Y-98744088D01*
X90811400Y-98744088D01*
X90811400Y-98867912D01*
X90835556Y-98989356D01*
X90882941Y-99103754D01*
X90951734Y-99206709D01*
X91039291Y-99294266D01*
X91142246Y-99363059D01*
X91256644Y-99410444D01*
X91378088Y-99434600D01*
X91501912Y-99434600D01*
X91623356Y-99410444D01*
X91737754Y-99363059D01*
X91840709Y-99294266D01*
X91928266Y-99206709D01*
X91997059Y-99103754D01*
X92044444Y-98989356D01*
X92068600Y-98867912D01*
X92068600Y-98744088D01*
X93351400Y-98744088D01*
X93351400Y-98867912D01*
X93375556Y-98989356D01*
X93422941Y-99103754D01*
X93491734Y-99206709D01*
X93579291Y-99294266D01*
X93682246Y-99363059D01*
X93796644Y-99410444D01*
X93918088Y-99434600D01*
X94041912Y-99434600D01*
X94163356Y-99410444D01*
X94277754Y-99363059D01*
X94380709Y-99294266D01*
X94468266Y-99206709D01*
X94537059Y-99103754D01*
X94584444Y-98989356D01*
X94608600Y-98867912D01*
X94608600Y-98744088D01*
X95891400Y-98744088D01*
X95891400Y-98867912D01*
X95915556Y-98989356D01*
X95962941Y-99103754D01*
X96031734Y-99206709D01*
X96119291Y-99294266D01*
X96222246Y-99363059D01*
X96336644Y-99410444D01*
X96458088Y-99434600D01*
X96581912Y-99434600D01*
X96703356Y-99410444D01*
X96817754Y-99363059D01*
X96920709Y-99294266D01*
X97008266Y-99206709D01*
X97077059Y-99103754D01*
X97124444Y-98989356D01*
X97148600Y-98867912D01*
X97148600Y-98744088D01*
X98431400Y-98744088D01*
X98431400Y-98867912D01*
X98455556Y-98989356D01*
X98502941Y-99103754D01*
X98571734Y-99206709D01*
X98659291Y-99294266D01*
X98762246Y-99363059D01*
X98876644Y-99410444D01*
X98998088Y-99434600D01*
X99121912Y-99434600D01*
X99243356Y-99410444D01*
X99357754Y-99363059D01*
X99460709Y-99294266D01*
X99548266Y-99206709D01*
X99617059Y-99103754D01*
X99664444Y-98989356D01*
X99688600Y-98867912D01*
X99688600Y-98744088D01*
X100971400Y-98744088D01*
X100971400Y-98867912D01*
X100995556Y-98989356D01*
X101042941Y-99103754D01*
X101111734Y-99206709D01*
X101199291Y-99294266D01*
X101302246Y-99363059D01*
X101416644Y-99410444D01*
X101538088Y-99434600D01*
X101661912Y-99434600D01*
X101783356Y-99410444D01*
X101897754Y-99363059D01*
X102000709Y-99294266D01*
X102033929Y-99261046D01*
X103789323Y-99261046D01*
X103830978Y-99356888D01*
X103944389Y-99406590D01*
X104065317Y-99433211D01*
X104189115Y-99435729D01*
X104311025Y-99414047D01*
X104426363Y-99368998D01*
X104449022Y-99356888D01*
X104490677Y-99261046D01*
X104140000Y-98910369D01*
X103789323Y-99261046D01*
X102033929Y-99261046D01*
X102088266Y-99206709D01*
X102157059Y-99103754D01*
X102204444Y-98989356D01*
X102228600Y-98867912D01*
X102228600Y-98855115D01*
X103510271Y-98855115D01*
X103531953Y-98977025D01*
X103577002Y-99092363D01*
X103589112Y-99115022D01*
X103684954Y-99156677D01*
X104035631Y-98806000D01*
X104244369Y-98806000D01*
X104595046Y-99156677D01*
X104690888Y-99115022D01*
X104740590Y-99001611D01*
X104767211Y-98880683D01*
X104769729Y-98756885D01*
X104767454Y-98744088D01*
X106051400Y-98744088D01*
X106051400Y-98867912D01*
X106075556Y-98989356D01*
X106122941Y-99103754D01*
X106191734Y-99206709D01*
X106279291Y-99294266D01*
X106382246Y-99363059D01*
X106496644Y-99410444D01*
X106618088Y-99434600D01*
X106741912Y-99434600D01*
X106863356Y-99410444D01*
X106977754Y-99363059D01*
X107080709Y-99294266D01*
X107168266Y-99206709D01*
X107237059Y-99103754D01*
X107284444Y-98989356D01*
X107308600Y-98867912D01*
X107308600Y-98744088D01*
X108591400Y-98744088D01*
X108591400Y-98867912D01*
X108615556Y-98989356D01*
X108662941Y-99103754D01*
X108731734Y-99206709D01*
X108819291Y-99294266D01*
X108922246Y-99363059D01*
X109036644Y-99410444D01*
X109158088Y-99434600D01*
X109281912Y-99434600D01*
X109403356Y-99410444D01*
X109517754Y-99363059D01*
X109620709Y-99294266D01*
X109708266Y-99206709D01*
X109777059Y-99103754D01*
X109824444Y-98989356D01*
X109848600Y-98867912D01*
X109848600Y-98744088D01*
X111131400Y-98744088D01*
X111131400Y-98867912D01*
X111155556Y-98989356D01*
X111202941Y-99103754D01*
X111271734Y-99206709D01*
X111359291Y-99294266D01*
X111462246Y-99363059D01*
X111576644Y-99410444D01*
X111698088Y-99434600D01*
X111821912Y-99434600D01*
X111943356Y-99410444D01*
X112057754Y-99363059D01*
X112160709Y-99294266D01*
X112248266Y-99206709D01*
X112317059Y-99103754D01*
X112364444Y-98989356D01*
X112388600Y-98867912D01*
X112388600Y-98744088D01*
X113671400Y-98744088D01*
X113671400Y-98867912D01*
X113695556Y-98989356D01*
X113742941Y-99103754D01*
X113811734Y-99206709D01*
X113899291Y-99294266D01*
X114002246Y-99363059D01*
X114116644Y-99410444D01*
X114238088Y-99434600D01*
X114361912Y-99434600D01*
X114483356Y-99410444D01*
X114597754Y-99363059D01*
X114700709Y-99294266D01*
X114788266Y-99206709D01*
X114857059Y-99103754D01*
X114904444Y-98989356D01*
X114928600Y-98867912D01*
X114928600Y-98744088D01*
X116211400Y-98744088D01*
X116211400Y-98867912D01*
X116235556Y-98989356D01*
X116282941Y-99103754D01*
X116351734Y-99206709D01*
X116439291Y-99294266D01*
X116542246Y-99363059D01*
X116656644Y-99410444D01*
X116778088Y-99434600D01*
X116901912Y-99434600D01*
X117023356Y-99410444D01*
X117137754Y-99363059D01*
X117240709Y-99294266D01*
X117328266Y-99206709D01*
X117397059Y-99103754D01*
X117444444Y-98989356D01*
X117468600Y-98867912D01*
X117468600Y-98744088D01*
X118751400Y-98744088D01*
X118751400Y-98867912D01*
X118775556Y-98989356D01*
X118822941Y-99103754D01*
X118891734Y-99206709D01*
X118979291Y-99294266D01*
X119082246Y-99363059D01*
X119196644Y-99410444D01*
X119318088Y-99434600D01*
X119441912Y-99434600D01*
X119563356Y-99410444D01*
X119677754Y-99363059D01*
X119780709Y-99294266D01*
X119868266Y-99206709D01*
X119937059Y-99103754D01*
X119984444Y-98989356D01*
X120008600Y-98867912D01*
X120008600Y-98744088D01*
X121291400Y-98744088D01*
X121291400Y-98867912D01*
X121315556Y-98989356D01*
X121362941Y-99103754D01*
X121431734Y-99206709D01*
X121519291Y-99294266D01*
X121622246Y-99363059D01*
X121736644Y-99410444D01*
X121858088Y-99434600D01*
X121981912Y-99434600D01*
X122103356Y-99410444D01*
X122217754Y-99363059D01*
X122320709Y-99294266D01*
X122408266Y-99206709D01*
X122477059Y-99103754D01*
X122524444Y-98989356D01*
X122548600Y-98867912D01*
X122548600Y-98744088D01*
X123831400Y-98744088D01*
X123831400Y-98867912D01*
X123855556Y-98989356D01*
X123902941Y-99103754D01*
X123971734Y-99206709D01*
X124059291Y-99294266D01*
X124162246Y-99363059D01*
X124276644Y-99410444D01*
X124398088Y-99434600D01*
X124521912Y-99434600D01*
X124643356Y-99410444D01*
X124757754Y-99363059D01*
X124860709Y-99294266D01*
X124948266Y-99206709D01*
X125017059Y-99103754D01*
X125064444Y-98989356D01*
X125088600Y-98867912D01*
X125088600Y-98744088D01*
X126371400Y-98744088D01*
X126371400Y-98867912D01*
X126395556Y-98989356D01*
X126442941Y-99103754D01*
X126511734Y-99206709D01*
X126599291Y-99294266D01*
X126702246Y-99363059D01*
X126816644Y-99410444D01*
X126938088Y-99434600D01*
X127061912Y-99434600D01*
X127183356Y-99410444D01*
X127297754Y-99363059D01*
X127400709Y-99294266D01*
X127488266Y-99206709D01*
X127557059Y-99103754D01*
X127604444Y-98989356D01*
X127628600Y-98867912D01*
X127628600Y-98744088D01*
X128911400Y-98744088D01*
X128911400Y-98867912D01*
X128935556Y-98989356D01*
X128982941Y-99103754D01*
X129051734Y-99206709D01*
X129139291Y-99294266D01*
X129242246Y-99363059D01*
X129356644Y-99410444D01*
X129478088Y-99434600D01*
X129601912Y-99434600D01*
X129723356Y-99410444D01*
X129837754Y-99363059D01*
X129940709Y-99294266D01*
X130028266Y-99206709D01*
X130097059Y-99103754D01*
X130144444Y-98989356D01*
X130168600Y-98867912D01*
X130168600Y-98744088D01*
X131451400Y-98744088D01*
X131451400Y-98867912D01*
X131475556Y-98989356D01*
X131522941Y-99103754D01*
X131591734Y-99206709D01*
X131679291Y-99294266D01*
X131782246Y-99363059D01*
X131896644Y-99410444D01*
X132018088Y-99434600D01*
X132141912Y-99434600D01*
X132263356Y-99410444D01*
X132377754Y-99363059D01*
X132480709Y-99294266D01*
X132568266Y-99206709D01*
X132637059Y-99103754D01*
X132684444Y-98989356D01*
X132708600Y-98867912D01*
X132708600Y-98744088D01*
X133991400Y-98744088D01*
X133991400Y-98867912D01*
X134015556Y-98989356D01*
X134062941Y-99103754D01*
X134131734Y-99206709D01*
X134219291Y-99294266D01*
X134322246Y-99363059D01*
X134436644Y-99410444D01*
X134558088Y-99434600D01*
X134681912Y-99434600D01*
X134803356Y-99410444D01*
X134917754Y-99363059D01*
X135020709Y-99294266D01*
X135053929Y-99261046D01*
X136809323Y-99261046D01*
X136850978Y-99356888D01*
X136964389Y-99406590D01*
X137085317Y-99433211D01*
X137209115Y-99435729D01*
X137331025Y-99414047D01*
X137446363Y-99368998D01*
X137469022Y-99356888D01*
X137510677Y-99261046D01*
X137160000Y-98910369D01*
X136809323Y-99261046D01*
X135053929Y-99261046D01*
X135108266Y-99206709D01*
X135177059Y-99103754D01*
X135224444Y-98989356D01*
X135248600Y-98867912D01*
X135248600Y-98855115D01*
X136530271Y-98855115D01*
X136551953Y-98977025D01*
X136597002Y-99092363D01*
X136609112Y-99115022D01*
X136704954Y-99156677D01*
X137055631Y-98806000D01*
X137264369Y-98806000D01*
X137615046Y-99156677D01*
X137710888Y-99115022D01*
X137760590Y-99001611D01*
X137787211Y-98880683D01*
X137789729Y-98756885D01*
X137787454Y-98744088D01*
X139071400Y-98744088D01*
X139071400Y-98867912D01*
X139095556Y-98989356D01*
X139142941Y-99103754D01*
X139211734Y-99206709D01*
X139299291Y-99294266D01*
X139402246Y-99363059D01*
X139516644Y-99410444D01*
X139638088Y-99434600D01*
X139761912Y-99434600D01*
X139883356Y-99410444D01*
X139997754Y-99363059D01*
X140100709Y-99294266D01*
X140188266Y-99206709D01*
X140257059Y-99103754D01*
X140304444Y-98989356D01*
X140328600Y-98867912D01*
X140328600Y-98744088D01*
X141611400Y-98744088D01*
X141611400Y-98867912D01*
X141635556Y-98989356D01*
X141682941Y-99103754D01*
X141751734Y-99206709D01*
X141839291Y-99294266D01*
X141942246Y-99363059D01*
X142056644Y-99410444D01*
X142178088Y-99434600D01*
X142301912Y-99434600D01*
X142423356Y-99410444D01*
X142537754Y-99363059D01*
X142640709Y-99294266D01*
X142728266Y-99206709D01*
X142797059Y-99103754D01*
X142844444Y-98989356D01*
X142868600Y-98867912D01*
X142868600Y-98744088D01*
X144151400Y-98744088D01*
X144151400Y-98867912D01*
X144175556Y-98989356D01*
X144222941Y-99103754D01*
X144291734Y-99206709D01*
X144379291Y-99294266D01*
X144482246Y-99363059D01*
X144596644Y-99410444D01*
X144718088Y-99434600D01*
X144841912Y-99434600D01*
X144963356Y-99410444D01*
X145077754Y-99363059D01*
X145180709Y-99294266D01*
X145268266Y-99206709D01*
X145337059Y-99103754D01*
X145384444Y-98989356D01*
X145408600Y-98867912D01*
X145408600Y-98744088D01*
X146691400Y-98744088D01*
X146691400Y-98867912D01*
X146715556Y-98989356D01*
X146762941Y-99103754D01*
X146831734Y-99206709D01*
X146919291Y-99294266D01*
X147022246Y-99363059D01*
X147136644Y-99410444D01*
X147258088Y-99434600D01*
X147381912Y-99434600D01*
X147503356Y-99410444D01*
X147617754Y-99363059D01*
X147720709Y-99294266D01*
X147808266Y-99206709D01*
X147877059Y-99103754D01*
X147924444Y-98989356D01*
X147948600Y-98867912D01*
X147948600Y-98744088D01*
X149231400Y-98744088D01*
X149231400Y-98867912D01*
X149255556Y-98989356D01*
X149302941Y-99103754D01*
X149371734Y-99206709D01*
X149459291Y-99294266D01*
X149562246Y-99363059D01*
X149676644Y-99410444D01*
X149798088Y-99434600D01*
X149921912Y-99434600D01*
X150043356Y-99410444D01*
X150157754Y-99363059D01*
X150260709Y-99294266D01*
X150348266Y-99206709D01*
X150417059Y-99103754D01*
X150464444Y-98989356D01*
X150488600Y-98867912D01*
X150488600Y-98744088D01*
X151771400Y-98744088D01*
X151771400Y-98867912D01*
X151795556Y-98989356D01*
X151842941Y-99103754D01*
X151911734Y-99206709D01*
X151999291Y-99294266D01*
X152102246Y-99363059D01*
X152216644Y-99410444D01*
X152338088Y-99434600D01*
X152461912Y-99434600D01*
X152583356Y-99410444D01*
X152697754Y-99363059D01*
X152800709Y-99294266D01*
X152888266Y-99206709D01*
X152957059Y-99103754D01*
X153004444Y-98989356D01*
X153028600Y-98867912D01*
X153028600Y-98744088D01*
X154311400Y-98744088D01*
X154311400Y-98867912D01*
X154335556Y-98989356D01*
X154382941Y-99103754D01*
X154451734Y-99206709D01*
X154539291Y-99294266D01*
X154642246Y-99363059D01*
X154756644Y-99410444D01*
X154878088Y-99434600D01*
X155001912Y-99434600D01*
X155123356Y-99410444D01*
X155237754Y-99363059D01*
X155340709Y-99294266D01*
X155428266Y-99206709D01*
X155497059Y-99103754D01*
X155544444Y-98989356D01*
X155568600Y-98867912D01*
X155568600Y-98744088D01*
X156851400Y-98744088D01*
X156851400Y-98867912D01*
X156875556Y-98989356D01*
X156922941Y-99103754D01*
X156991734Y-99206709D01*
X157079291Y-99294266D01*
X157182246Y-99363059D01*
X157296644Y-99410444D01*
X157418088Y-99434600D01*
X157541912Y-99434600D01*
X157663356Y-99410444D01*
X157777754Y-99363059D01*
X157880709Y-99294266D01*
X157968266Y-99206709D01*
X158037059Y-99103754D01*
X158084444Y-98989356D01*
X158108600Y-98867912D01*
X158108600Y-98744088D01*
X158084444Y-98622644D01*
X158037059Y-98508246D01*
X157968266Y-98405291D01*
X157880709Y-98317734D01*
X157777754Y-98248941D01*
X157663356Y-98201556D01*
X157541912Y-98177400D01*
X157418088Y-98177400D01*
X157296644Y-98201556D01*
X157182246Y-98248941D01*
X157079291Y-98317734D01*
X156991734Y-98405291D01*
X156922941Y-98508246D01*
X156875556Y-98622644D01*
X156851400Y-98744088D01*
X155568600Y-98744088D01*
X155544444Y-98622644D01*
X155497059Y-98508246D01*
X155428266Y-98405291D01*
X155340709Y-98317734D01*
X155237754Y-98248941D01*
X155123356Y-98201556D01*
X155001912Y-98177400D01*
X154878088Y-98177400D01*
X154756644Y-98201556D01*
X154642246Y-98248941D01*
X154539291Y-98317734D01*
X154451734Y-98405291D01*
X154382941Y-98508246D01*
X154335556Y-98622644D01*
X154311400Y-98744088D01*
X153028600Y-98744088D01*
X153004444Y-98622644D01*
X152957059Y-98508246D01*
X152888266Y-98405291D01*
X152800709Y-98317734D01*
X152697754Y-98248941D01*
X152583356Y-98201556D01*
X152461912Y-98177400D01*
X152338088Y-98177400D01*
X152216644Y-98201556D01*
X152102246Y-98248941D01*
X151999291Y-98317734D01*
X151911734Y-98405291D01*
X151842941Y-98508246D01*
X151795556Y-98622644D01*
X151771400Y-98744088D01*
X150488600Y-98744088D01*
X150464444Y-98622644D01*
X150417059Y-98508246D01*
X150348266Y-98405291D01*
X150260709Y-98317734D01*
X150157754Y-98248941D01*
X150043356Y-98201556D01*
X149921912Y-98177400D01*
X149798088Y-98177400D01*
X149676644Y-98201556D01*
X149562246Y-98248941D01*
X149459291Y-98317734D01*
X149371734Y-98405291D01*
X149302941Y-98508246D01*
X149255556Y-98622644D01*
X149231400Y-98744088D01*
X147948600Y-98744088D01*
X147924444Y-98622644D01*
X147877059Y-98508246D01*
X147808266Y-98405291D01*
X147720709Y-98317734D01*
X147617754Y-98248941D01*
X147503356Y-98201556D01*
X147381912Y-98177400D01*
X147258088Y-98177400D01*
X147136644Y-98201556D01*
X147022246Y-98248941D01*
X146919291Y-98317734D01*
X146831734Y-98405291D01*
X146762941Y-98508246D01*
X146715556Y-98622644D01*
X146691400Y-98744088D01*
X145408600Y-98744088D01*
X145384444Y-98622644D01*
X145337059Y-98508246D01*
X145268266Y-98405291D01*
X145180709Y-98317734D01*
X145077754Y-98248941D01*
X144963356Y-98201556D01*
X144841912Y-98177400D01*
X144718088Y-98177400D01*
X144596644Y-98201556D01*
X144482246Y-98248941D01*
X144379291Y-98317734D01*
X144291734Y-98405291D01*
X144222941Y-98508246D01*
X144175556Y-98622644D01*
X144151400Y-98744088D01*
X142868600Y-98744088D01*
X142844444Y-98622644D01*
X142797059Y-98508246D01*
X142728266Y-98405291D01*
X142640709Y-98317734D01*
X142537754Y-98248941D01*
X142423356Y-98201556D01*
X142301912Y-98177400D01*
X142178088Y-98177400D01*
X142056644Y-98201556D01*
X141942246Y-98248941D01*
X141839291Y-98317734D01*
X141751734Y-98405291D01*
X141682941Y-98508246D01*
X141635556Y-98622644D01*
X141611400Y-98744088D01*
X140328600Y-98744088D01*
X140304444Y-98622644D01*
X140257059Y-98508246D01*
X140188266Y-98405291D01*
X140100709Y-98317734D01*
X139997754Y-98248941D01*
X139883356Y-98201556D01*
X139761912Y-98177400D01*
X139638088Y-98177400D01*
X139516644Y-98201556D01*
X139402246Y-98248941D01*
X139299291Y-98317734D01*
X139211734Y-98405291D01*
X139142941Y-98508246D01*
X139095556Y-98622644D01*
X139071400Y-98744088D01*
X137787454Y-98744088D01*
X137768047Y-98634975D01*
X137722998Y-98519637D01*
X137710888Y-98496978D01*
X137615046Y-98455323D01*
X137264369Y-98806000D01*
X137055631Y-98806000D01*
X136704954Y-98455323D01*
X136609112Y-98496978D01*
X136559410Y-98610389D01*
X136532789Y-98731317D01*
X136530271Y-98855115D01*
X135248600Y-98855115D01*
X135248600Y-98744088D01*
X135224444Y-98622644D01*
X135177059Y-98508246D01*
X135108266Y-98405291D01*
X135053929Y-98350954D01*
X136809323Y-98350954D01*
X137160000Y-98701631D01*
X137510677Y-98350954D01*
X137469022Y-98255112D01*
X137355611Y-98205410D01*
X137234683Y-98178789D01*
X137110885Y-98176271D01*
X136988975Y-98197953D01*
X136873637Y-98243002D01*
X136850978Y-98255112D01*
X136809323Y-98350954D01*
X135053929Y-98350954D01*
X135020709Y-98317734D01*
X134917754Y-98248941D01*
X134803356Y-98201556D01*
X134681912Y-98177400D01*
X134558088Y-98177400D01*
X134436644Y-98201556D01*
X134322246Y-98248941D01*
X134219291Y-98317734D01*
X134131734Y-98405291D01*
X134062941Y-98508246D01*
X134015556Y-98622644D01*
X133991400Y-98744088D01*
X132708600Y-98744088D01*
X132684444Y-98622644D01*
X132637059Y-98508246D01*
X132568266Y-98405291D01*
X132480709Y-98317734D01*
X132377754Y-98248941D01*
X132263356Y-98201556D01*
X132141912Y-98177400D01*
X132018088Y-98177400D01*
X131896644Y-98201556D01*
X131782246Y-98248941D01*
X131679291Y-98317734D01*
X131591734Y-98405291D01*
X131522941Y-98508246D01*
X131475556Y-98622644D01*
X131451400Y-98744088D01*
X130168600Y-98744088D01*
X130144444Y-98622644D01*
X130097059Y-98508246D01*
X130028266Y-98405291D01*
X129940709Y-98317734D01*
X129837754Y-98248941D01*
X129723356Y-98201556D01*
X129601912Y-98177400D01*
X129478088Y-98177400D01*
X129356644Y-98201556D01*
X129242246Y-98248941D01*
X129139291Y-98317734D01*
X129051734Y-98405291D01*
X128982941Y-98508246D01*
X128935556Y-98622644D01*
X128911400Y-98744088D01*
X127628600Y-98744088D01*
X127604444Y-98622644D01*
X127557059Y-98508246D01*
X127488266Y-98405291D01*
X127400709Y-98317734D01*
X127297754Y-98248941D01*
X127183356Y-98201556D01*
X127061912Y-98177400D01*
X126938088Y-98177400D01*
X126816644Y-98201556D01*
X126702246Y-98248941D01*
X126599291Y-98317734D01*
X126511734Y-98405291D01*
X126442941Y-98508246D01*
X126395556Y-98622644D01*
X126371400Y-98744088D01*
X125088600Y-98744088D01*
X125064444Y-98622644D01*
X125017059Y-98508246D01*
X124948266Y-98405291D01*
X124860709Y-98317734D01*
X124757754Y-98248941D01*
X124643356Y-98201556D01*
X124521912Y-98177400D01*
X124398088Y-98177400D01*
X124276644Y-98201556D01*
X124162246Y-98248941D01*
X124059291Y-98317734D01*
X123971734Y-98405291D01*
X123902941Y-98508246D01*
X123855556Y-98622644D01*
X123831400Y-98744088D01*
X122548600Y-98744088D01*
X122524444Y-98622644D01*
X122477059Y-98508246D01*
X122408266Y-98405291D01*
X122320709Y-98317734D01*
X122217754Y-98248941D01*
X122103356Y-98201556D01*
X121981912Y-98177400D01*
X121858088Y-98177400D01*
X121736644Y-98201556D01*
X121622246Y-98248941D01*
X121519291Y-98317734D01*
X121431734Y-98405291D01*
X121362941Y-98508246D01*
X121315556Y-98622644D01*
X121291400Y-98744088D01*
X120008600Y-98744088D01*
X119984444Y-98622644D01*
X119937059Y-98508246D01*
X119868266Y-98405291D01*
X119780709Y-98317734D01*
X119677754Y-98248941D01*
X119563356Y-98201556D01*
X119441912Y-98177400D01*
X119318088Y-98177400D01*
X119196644Y-98201556D01*
X119082246Y-98248941D01*
X118979291Y-98317734D01*
X118891734Y-98405291D01*
X118822941Y-98508246D01*
X118775556Y-98622644D01*
X118751400Y-98744088D01*
X117468600Y-98744088D01*
X117444444Y-98622644D01*
X117397059Y-98508246D01*
X117328266Y-98405291D01*
X117240709Y-98317734D01*
X117137754Y-98248941D01*
X117023356Y-98201556D01*
X116901912Y-98177400D01*
X116778088Y-98177400D01*
X116656644Y-98201556D01*
X116542246Y-98248941D01*
X116439291Y-98317734D01*
X116351734Y-98405291D01*
X116282941Y-98508246D01*
X116235556Y-98622644D01*
X116211400Y-98744088D01*
X114928600Y-98744088D01*
X114904444Y-98622644D01*
X114857059Y-98508246D01*
X114788266Y-98405291D01*
X114700709Y-98317734D01*
X114597754Y-98248941D01*
X114483356Y-98201556D01*
X114361912Y-98177400D01*
X114238088Y-98177400D01*
X114116644Y-98201556D01*
X114002246Y-98248941D01*
X113899291Y-98317734D01*
X113811734Y-98405291D01*
X113742941Y-98508246D01*
X113695556Y-98622644D01*
X113671400Y-98744088D01*
X112388600Y-98744088D01*
X112364444Y-98622644D01*
X112317059Y-98508246D01*
X112248266Y-98405291D01*
X112160709Y-98317734D01*
X112057754Y-98248941D01*
X111943356Y-98201556D01*
X111821912Y-98177400D01*
X111698088Y-98177400D01*
X111576644Y-98201556D01*
X111462246Y-98248941D01*
X111359291Y-98317734D01*
X111271734Y-98405291D01*
X111202941Y-98508246D01*
X111155556Y-98622644D01*
X111131400Y-98744088D01*
X109848600Y-98744088D01*
X109824444Y-98622644D01*
X109777059Y-98508246D01*
X109708266Y-98405291D01*
X109620709Y-98317734D01*
X109517754Y-98248941D01*
X109403356Y-98201556D01*
X109281912Y-98177400D01*
X109158088Y-98177400D01*
X109036644Y-98201556D01*
X108922246Y-98248941D01*
X108819291Y-98317734D01*
X108731734Y-98405291D01*
X108662941Y-98508246D01*
X108615556Y-98622644D01*
X108591400Y-98744088D01*
X107308600Y-98744088D01*
X107284444Y-98622644D01*
X107237059Y-98508246D01*
X107168266Y-98405291D01*
X107080709Y-98317734D01*
X106977754Y-98248941D01*
X106863356Y-98201556D01*
X106741912Y-98177400D01*
X106618088Y-98177400D01*
X106496644Y-98201556D01*
X106382246Y-98248941D01*
X106279291Y-98317734D01*
X106191734Y-98405291D01*
X106122941Y-98508246D01*
X106075556Y-98622644D01*
X106051400Y-98744088D01*
X104767454Y-98744088D01*
X104748047Y-98634975D01*
X104702998Y-98519637D01*
X104690888Y-98496978D01*
X104595046Y-98455323D01*
X104244369Y-98806000D01*
X104035631Y-98806000D01*
X103684954Y-98455323D01*
X103589112Y-98496978D01*
X103539410Y-98610389D01*
X103512789Y-98731317D01*
X103510271Y-98855115D01*
X102228600Y-98855115D01*
X102228600Y-98744088D01*
X102204444Y-98622644D01*
X102157059Y-98508246D01*
X102088266Y-98405291D01*
X102033929Y-98350954D01*
X103789323Y-98350954D01*
X104140000Y-98701631D01*
X104490677Y-98350954D01*
X104449022Y-98255112D01*
X104335611Y-98205410D01*
X104214683Y-98178789D01*
X104090885Y-98176271D01*
X103968975Y-98197953D01*
X103853637Y-98243002D01*
X103830978Y-98255112D01*
X103789323Y-98350954D01*
X102033929Y-98350954D01*
X102000709Y-98317734D01*
X101897754Y-98248941D01*
X101783356Y-98201556D01*
X101661912Y-98177400D01*
X101538088Y-98177400D01*
X101416644Y-98201556D01*
X101302246Y-98248941D01*
X101199291Y-98317734D01*
X101111734Y-98405291D01*
X101042941Y-98508246D01*
X100995556Y-98622644D01*
X100971400Y-98744088D01*
X99688600Y-98744088D01*
X99664444Y-98622644D01*
X99617059Y-98508246D01*
X99548266Y-98405291D01*
X99460709Y-98317734D01*
X99357754Y-98248941D01*
X99243356Y-98201556D01*
X99121912Y-98177400D01*
X98998088Y-98177400D01*
X98876644Y-98201556D01*
X98762246Y-98248941D01*
X98659291Y-98317734D01*
X98571734Y-98405291D01*
X98502941Y-98508246D01*
X98455556Y-98622644D01*
X98431400Y-98744088D01*
X97148600Y-98744088D01*
X97124444Y-98622644D01*
X97077059Y-98508246D01*
X97008266Y-98405291D01*
X96920709Y-98317734D01*
X96817754Y-98248941D01*
X96703356Y-98201556D01*
X96581912Y-98177400D01*
X96458088Y-98177400D01*
X96336644Y-98201556D01*
X96222246Y-98248941D01*
X96119291Y-98317734D01*
X96031734Y-98405291D01*
X95962941Y-98508246D01*
X95915556Y-98622644D01*
X95891400Y-98744088D01*
X94608600Y-98744088D01*
X94584444Y-98622644D01*
X94537059Y-98508246D01*
X94468266Y-98405291D01*
X94380709Y-98317734D01*
X94277754Y-98248941D01*
X94163356Y-98201556D01*
X94041912Y-98177400D01*
X93918088Y-98177400D01*
X93796644Y-98201556D01*
X93682246Y-98248941D01*
X93579291Y-98317734D01*
X93491734Y-98405291D01*
X93422941Y-98508246D01*
X93375556Y-98622644D01*
X93351400Y-98744088D01*
X92068600Y-98744088D01*
X92044444Y-98622644D01*
X91997059Y-98508246D01*
X91928266Y-98405291D01*
X91840709Y-98317734D01*
X91737754Y-98248941D01*
X91623356Y-98201556D01*
X91501912Y-98177400D01*
X91378088Y-98177400D01*
X91256644Y-98201556D01*
X91142246Y-98248941D01*
X91039291Y-98317734D01*
X90951734Y-98405291D01*
X90882941Y-98508246D01*
X90835556Y-98622644D01*
X90811400Y-98744088D01*
X89528600Y-98744088D01*
X89504444Y-98622644D01*
X89457059Y-98508246D01*
X89388266Y-98405291D01*
X89300709Y-98317734D01*
X89197754Y-98248941D01*
X89083356Y-98201556D01*
X88961912Y-98177400D01*
X88838088Y-98177400D01*
X88716644Y-98201556D01*
X88602246Y-98248941D01*
X88499291Y-98317734D01*
X88411734Y-98405291D01*
X88342941Y-98508246D01*
X88295556Y-98622644D01*
X88271400Y-98744088D01*
X86988600Y-98744088D01*
X86964444Y-98622644D01*
X86917059Y-98508246D01*
X86848266Y-98405291D01*
X86760709Y-98317734D01*
X86657754Y-98248941D01*
X86543356Y-98201556D01*
X86421912Y-98177400D01*
X86298088Y-98177400D01*
X86176644Y-98201556D01*
X86062246Y-98248941D01*
X85959291Y-98317734D01*
X85871734Y-98405291D01*
X85802941Y-98508246D01*
X85755556Y-98622644D01*
X85731400Y-98744088D01*
X84448600Y-98744088D01*
X84424444Y-98622644D01*
X84377059Y-98508246D01*
X84308266Y-98405291D01*
X84220709Y-98317734D01*
X84117754Y-98248941D01*
X84003356Y-98201556D01*
X83881912Y-98177400D01*
X83758088Y-98177400D01*
X83636644Y-98201556D01*
X83522246Y-98248941D01*
X83419291Y-98317734D01*
X83331734Y-98405291D01*
X83262941Y-98508246D01*
X83215556Y-98622644D01*
X83191400Y-98744088D01*
X78560600Y-98744088D01*
X78560600Y-97265865D01*
X78559136Y-97251000D01*
X78559208Y-97240692D01*
X78558760Y-97236126D01*
X78525079Y-96915672D01*
X78519080Y-96886446D01*
X78513509Y-96857242D01*
X78512185Y-96852858D01*
X78512184Y-96852851D01*
X78512181Y-96852845D01*
X78416900Y-96545042D01*
X78405368Y-96517608D01*
X78394203Y-96489973D01*
X78392049Y-96485922D01*
X78238793Y-96202483D01*
X78222151Y-96177810D01*
X78205832Y-96152871D01*
X78202932Y-96149316D01*
X77997542Y-95901042D01*
X77976410Y-95880057D01*
X77955571Y-95858777D01*
X77952036Y-95855852D01*
X77702334Y-95652200D01*
X77677513Y-95635709D01*
X77652954Y-95618893D01*
X77648918Y-95616711D01*
X77364416Y-95465438D01*
X77336876Y-95454086D01*
X77309505Y-95442355D01*
X77305130Y-95441001D01*
X77305124Y-95440999D01*
X77305118Y-95440998D01*
X76996656Y-95347868D01*
X76967429Y-95342081D01*
X76938310Y-95335891D01*
X76933747Y-95335411D01*
X76613066Y-95303968D01*
X76613056Y-95303968D01*
X76597135Y-95302400D01*
X76528600Y-95302400D01*
X76528600Y-95188088D01*
X84461400Y-95188088D01*
X84461400Y-95311912D01*
X84485556Y-95433356D01*
X84532941Y-95547754D01*
X84601734Y-95650709D01*
X84689291Y-95738266D01*
X84792246Y-95807059D01*
X84906644Y-95854444D01*
X85028088Y-95878600D01*
X85151912Y-95878600D01*
X85273356Y-95854444D01*
X85387754Y-95807059D01*
X85490709Y-95738266D01*
X85578266Y-95650709D01*
X85647059Y-95547754D01*
X85694444Y-95433356D01*
X85718600Y-95311912D01*
X85718600Y-95188088D01*
X85694444Y-95066644D01*
X85647059Y-94952246D01*
X85644535Y-94948468D01*
X104927400Y-94948468D01*
X104927400Y-95043532D01*
X104945946Y-95136769D01*
X104982326Y-95224597D01*
X105035140Y-95303640D01*
X105102360Y-95370860D01*
X105181403Y-95423674D01*
X105269231Y-95460054D01*
X105362468Y-95478600D01*
X105457532Y-95478600D01*
X105550769Y-95460054D01*
X105638597Y-95423674D01*
X105717640Y-95370860D01*
X105784860Y-95303640D01*
X105837674Y-95224597D01*
X105852796Y-95188088D01*
X118751400Y-95188088D01*
X118751400Y-95311912D01*
X118775556Y-95433356D01*
X118822941Y-95547754D01*
X118891734Y-95650709D01*
X118979291Y-95738266D01*
X119082246Y-95807059D01*
X119196644Y-95854444D01*
X119318088Y-95878600D01*
X119441912Y-95878600D01*
X119563356Y-95854444D01*
X119677754Y-95807059D01*
X119780709Y-95738266D01*
X119868266Y-95650709D01*
X119937059Y-95547754D01*
X119984444Y-95433356D01*
X120008600Y-95311912D01*
X120008600Y-95188088D01*
X139071400Y-95188088D01*
X139071400Y-95311912D01*
X139095556Y-95433356D01*
X139142941Y-95547754D01*
X139211734Y-95650709D01*
X139299291Y-95738266D01*
X139402246Y-95807059D01*
X139516644Y-95854444D01*
X139638088Y-95878600D01*
X139761912Y-95878600D01*
X139883356Y-95854444D01*
X139997754Y-95807059D01*
X140100709Y-95738266D01*
X140188266Y-95650709D01*
X140257059Y-95547754D01*
X140304444Y-95433356D01*
X140328600Y-95311912D01*
X140328600Y-95305239D01*
X156751400Y-95305239D01*
X156751400Y-95448761D01*
X156779400Y-95589525D01*
X156834323Y-95722121D01*
X156914060Y-95841455D01*
X157015545Y-95942940D01*
X157134879Y-96022677D01*
X157267475Y-96077600D01*
X157408239Y-96105600D01*
X157551761Y-96105600D01*
X157692525Y-96077600D01*
X157825121Y-96022677D01*
X157944455Y-95942940D01*
X158045940Y-95841455D01*
X158125677Y-95722121D01*
X158180600Y-95589525D01*
X158208600Y-95448761D01*
X158208600Y-95305239D01*
X158180600Y-95164475D01*
X158125677Y-95031879D01*
X158045940Y-94912545D01*
X157944455Y-94811060D01*
X157825121Y-94731323D01*
X157692525Y-94676400D01*
X157551761Y-94648400D01*
X157408239Y-94648400D01*
X157267475Y-94676400D01*
X157134879Y-94731323D01*
X157015545Y-94811060D01*
X156914060Y-94912545D01*
X156834323Y-95031879D01*
X156779400Y-95164475D01*
X156751400Y-95305239D01*
X140328600Y-95305239D01*
X140328600Y-95188088D01*
X140304444Y-95066644D01*
X140257059Y-94952246D01*
X140188266Y-94849291D01*
X140100709Y-94761734D01*
X139997754Y-94692941D01*
X139883356Y-94645556D01*
X139761912Y-94621400D01*
X139638088Y-94621400D01*
X139516644Y-94645556D01*
X139402246Y-94692941D01*
X139299291Y-94761734D01*
X139211734Y-94849291D01*
X139142941Y-94952246D01*
X139095556Y-95066644D01*
X139071400Y-95188088D01*
X120008600Y-95188088D01*
X119984444Y-95066644D01*
X119937059Y-94952246D01*
X119868266Y-94849291D01*
X119780709Y-94761734D01*
X119677754Y-94692941D01*
X119563356Y-94645556D01*
X119441912Y-94621400D01*
X119318088Y-94621400D01*
X119196644Y-94645556D01*
X119082246Y-94692941D01*
X118979291Y-94761734D01*
X118891734Y-94849291D01*
X118822941Y-94952246D01*
X118775556Y-95066644D01*
X118751400Y-95188088D01*
X105852796Y-95188088D01*
X105874054Y-95136769D01*
X105892600Y-95043532D01*
X105892600Y-94948468D01*
X105874054Y-94855231D01*
X105837674Y-94767403D01*
X105784860Y-94688360D01*
X105717640Y-94621140D01*
X105638597Y-94568326D01*
X105550769Y-94531946D01*
X105457532Y-94513400D01*
X105362468Y-94513400D01*
X105269231Y-94531946D01*
X105181403Y-94568326D01*
X105102360Y-94621140D01*
X105035140Y-94688360D01*
X104982326Y-94767403D01*
X104945946Y-94855231D01*
X104927400Y-94948468D01*
X85644535Y-94948468D01*
X85578266Y-94849291D01*
X85490709Y-94761734D01*
X85387754Y-94692941D01*
X85273356Y-94645556D01*
X85151912Y-94621400D01*
X85028088Y-94621400D01*
X84906644Y-94645556D01*
X84792246Y-94692941D01*
X84689291Y-94761734D01*
X84601734Y-94849291D01*
X84532941Y-94952246D01*
X84485556Y-95066644D01*
X84461400Y-95188088D01*
X76528600Y-95188088D01*
X76528600Y-94045088D01*
X83191400Y-94045088D01*
X83191400Y-94168912D01*
X83215556Y-94290356D01*
X83262941Y-94404754D01*
X83331734Y-94507709D01*
X83419291Y-94595266D01*
X83522246Y-94664059D01*
X83636644Y-94711444D01*
X83758088Y-94735600D01*
X83881912Y-94735600D01*
X84003356Y-94711444D01*
X84117754Y-94664059D01*
X84220709Y-94595266D01*
X84308266Y-94507709D01*
X84377059Y-94404754D01*
X84424444Y-94290356D01*
X84448600Y-94168912D01*
X84448600Y-94045088D01*
X86112400Y-94045088D01*
X86112400Y-94168912D01*
X86136556Y-94290356D01*
X86183941Y-94404754D01*
X86252734Y-94507709D01*
X86340291Y-94595266D01*
X86443246Y-94664059D01*
X86557644Y-94711444D01*
X86679088Y-94735600D01*
X86802912Y-94735600D01*
X86924356Y-94711444D01*
X87038754Y-94664059D01*
X87141709Y-94595266D01*
X87229266Y-94507709D01*
X87298059Y-94404754D01*
X87345444Y-94290356D01*
X87369600Y-94168912D01*
X87369600Y-94045088D01*
X103130400Y-94045088D01*
X103130400Y-94168912D01*
X103154556Y-94290356D01*
X103201941Y-94404754D01*
X103270734Y-94507709D01*
X103358291Y-94595266D01*
X103461246Y-94664059D01*
X103575644Y-94711444D01*
X103697088Y-94735600D01*
X103820912Y-94735600D01*
X103942356Y-94711444D01*
X104056754Y-94664059D01*
X104159709Y-94595266D01*
X104247266Y-94507709D01*
X104316059Y-94404754D01*
X104363444Y-94290356D01*
X104387600Y-94168912D01*
X104387600Y-94045088D01*
X106051400Y-94045088D01*
X106051400Y-94168912D01*
X106075556Y-94290356D01*
X106122941Y-94404754D01*
X106191734Y-94507709D01*
X106279291Y-94595266D01*
X106382246Y-94664059D01*
X106496644Y-94711444D01*
X106618088Y-94735600D01*
X106741912Y-94735600D01*
X106863356Y-94711444D01*
X106977754Y-94664059D01*
X107080709Y-94595266D01*
X107168266Y-94507709D01*
X107237059Y-94404754D01*
X107284444Y-94290356D01*
X107308600Y-94168912D01*
X107308600Y-94045088D01*
X117481400Y-94045088D01*
X117481400Y-94168912D01*
X117505556Y-94290356D01*
X117552941Y-94404754D01*
X117621734Y-94507709D01*
X117709291Y-94595266D01*
X117812246Y-94664059D01*
X117926644Y-94711444D01*
X118048088Y-94735600D01*
X118171912Y-94735600D01*
X118293356Y-94711444D01*
X118407754Y-94664059D01*
X118510709Y-94595266D01*
X118598266Y-94507709D01*
X118667059Y-94404754D01*
X118714444Y-94290356D01*
X118738600Y-94168912D01*
X118738600Y-94045088D01*
X120402400Y-94045088D01*
X120402400Y-94168912D01*
X120426556Y-94290356D01*
X120473941Y-94404754D01*
X120542734Y-94507709D01*
X120630291Y-94595266D01*
X120733246Y-94664059D01*
X120847644Y-94711444D01*
X120969088Y-94735600D01*
X121092912Y-94735600D01*
X121214356Y-94711444D01*
X121328754Y-94664059D01*
X121431709Y-94595266D01*
X121519266Y-94507709D01*
X121588059Y-94404754D01*
X121635444Y-94290356D01*
X121659600Y-94168912D01*
X121659600Y-94045088D01*
X137420400Y-94045088D01*
X137420400Y-94168912D01*
X137444556Y-94290356D01*
X137491941Y-94404754D01*
X137560734Y-94507709D01*
X137648291Y-94595266D01*
X137751246Y-94664059D01*
X137865644Y-94711444D01*
X137987088Y-94735600D01*
X138110912Y-94735600D01*
X138232356Y-94711444D01*
X138346754Y-94664059D01*
X138449709Y-94595266D01*
X138537266Y-94507709D01*
X138606059Y-94404754D01*
X138653444Y-94290356D01*
X138677600Y-94168912D01*
X138677600Y-94045088D01*
X140341400Y-94045088D01*
X140341400Y-94168912D01*
X140365556Y-94290356D01*
X140412941Y-94404754D01*
X140481734Y-94507709D01*
X140569291Y-94595266D01*
X140672246Y-94664059D01*
X140786644Y-94711444D01*
X140908088Y-94735600D01*
X141031912Y-94735600D01*
X141153356Y-94711444D01*
X141267754Y-94664059D01*
X141370709Y-94595266D01*
X141458266Y-94507709D01*
X141527059Y-94404754D01*
X141574444Y-94290356D01*
X141598600Y-94168912D01*
X141598600Y-94045088D01*
X155581400Y-94045088D01*
X155581400Y-94168912D01*
X155605556Y-94290356D01*
X155652941Y-94404754D01*
X155721734Y-94507709D01*
X155809291Y-94595266D01*
X155912246Y-94664059D01*
X156026644Y-94711444D01*
X156148088Y-94735600D01*
X156271912Y-94735600D01*
X156393356Y-94711444D01*
X156507754Y-94664059D01*
X156610709Y-94595266D01*
X156698266Y-94507709D01*
X156767059Y-94404754D01*
X156814444Y-94290356D01*
X156838600Y-94168912D01*
X156838600Y-94045088D01*
X158121400Y-94045088D01*
X158121400Y-94168912D01*
X158145556Y-94290356D01*
X158192941Y-94404754D01*
X158261734Y-94507709D01*
X158349291Y-94595266D01*
X158452246Y-94664059D01*
X158566644Y-94711444D01*
X158688088Y-94735600D01*
X158811912Y-94735600D01*
X158933356Y-94711444D01*
X159047754Y-94664059D01*
X159150709Y-94595266D01*
X159238266Y-94507709D01*
X159307059Y-94404754D01*
X159354444Y-94290356D01*
X159378600Y-94168912D01*
X159378600Y-94045088D01*
X159354444Y-93923644D01*
X159307059Y-93809246D01*
X159238266Y-93706291D01*
X159150709Y-93618734D01*
X159047754Y-93549941D01*
X158933356Y-93502556D01*
X158811912Y-93478400D01*
X158688088Y-93478400D01*
X158566644Y-93502556D01*
X158452246Y-93549941D01*
X158349291Y-93618734D01*
X158261734Y-93706291D01*
X158192941Y-93809246D01*
X158145556Y-93923644D01*
X158121400Y-94045088D01*
X156838600Y-94045088D01*
X156814444Y-93923644D01*
X156767059Y-93809246D01*
X156698266Y-93706291D01*
X156610709Y-93618734D01*
X156507754Y-93549941D01*
X156393356Y-93502556D01*
X156271912Y-93478400D01*
X156148088Y-93478400D01*
X156026644Y-93502556D01*
X155912246Y-93549941D01*
X155809291Y-93618734D01*
X155721734Y-93706291D01*
X155652941Y-93809246D01*
X155605556Y-93923644D01*
X155581400Y-94045088D01*
X141598600Y-94045088D01*
X141574444Y-93923644D01*
X141527059Y-93809246D01*
X141458266Y-93706291D01*
X141370709Y-93618734D01*
X141267754Y-93549941D01*
X141153356Y-93502556D01*
X141031912Y-93478400D01*
X140908088Y-93478400D01*
X140786644Y-93502556D01*
X140672246Y-93549941D01*
X140569291Y-93618734D01*
X140481734Y-93706291D01*
X140412941Y-93809246D01*
X140365556Y-93923644D01*
X140341400Y-94045088D01*
X138677600Y-94045088D01*
X138653444Y-93923644D01*
X138606059Y-93809246D01*
X138537266Y-93706291D01*
X138449709Y-93618734D01*
X138346754Y-93549941D01*
X138232356Y-93502556D01*
X138110912Y-93478400D01*
X137987088Y-93478400D01*
X137865644Y-93502556D01*
X137751246Y-93549941D01*
X137648291Y-93618734D01*
X137560734Y-93706291D01*
X137491941Y-93809246D01*
X137444556Y-93923644D01*
X137420400Y-94045088D01*
X121659600Y-94045088D01*
X121635444Y-93923644D01*
X121588059Y-93809246D01*
X121519266Y-93706291D01*
X121431709Y-93618734D01*
X121328754Y-93549941D01*
X121214356Y-93502556D01*
X121092912Y-93478400D01*
X120969088Y-93478400D01*
X120847644Y-93502556D01*
X120733246Y-93549941D01*
X120630291Y-93618734D01*
X120542734Y-93706291D01*
X120473941Y-93809246D01*
X120426556Y-93923644D01*
X120402400Y-94045088D01*
X118738600Y-94045088D01*
X118714444Y-93923644D01*
X118667059Y-93809246D01*
X118598266Y-93706291D01*
X118510709Y-93618734D01*
X118407754Y-93549941D01*
X118293356Y-93502556D01*
X118171912Y-93478400D01*
X118048088Y-93478400D01*
X117926644Y-93502556D01*
X117812246Y-93549941D01*
X117709291Y-93618734D01*
X117621734Y-93706291D01*
X117552941Y-93809246D01*
X117505556Y-93923644D01*
X117481400Y-94045088D01*
X107308600Y-94045088D01*
X107284444Y-93923644D01*
X107237059Y-93809246D01*
X107168266Y-93706291D01*
X107080709Y-93618734D01*
X106977754Y-93549941D01*
X106863356Y-93502556D01*
X106741912Y-93478400D01*
X106618088Y-93478400D01*
X106496644Y-93502556D01*
X106382246Y-93549941D01*
X106279291Y-93618734D01*
X106191734Y-93706291D01*
X106122941Y-93809246D01*
X106075556Y-93923644D01*
X106051400Y-94045088D01*
X104387600Y-94045088D01*
X104363444Y-93923644D01*
X104316059Y-93809246D01*
X104247266Y-93706291D01*
X104159709Y-93618734D01*
X104056754Y-93549941D01*
X103942356Y-93502556D01*
X103820912Y-93478400D01*
X103697088Y-93478400D01*
X103575644Y-93502556D01*
X103461246Y-93549941D01*
X103358291Y-93618734D01*
X103270734Y-93706291D01*
X103201941Y-93809246D01*
X103154556Y-93923644D01*
X103130400Y-94045088D01*
X87369600Y-94045088D01*
X87345444Y-93923644D01*
X87298059Y-93809246D01*
X87229266Y-93706291D01*
X87141709Y-93618734D01*
X87038754Y-93549941D01*
X86924356Y-93502556D01*
X86802912Y-93478400D01*
X86679088Y-93478400D01*
X86557644Y-93502556D01*
X86443246Y-93549941D01*
X86340291Y-93618734D01*
X86252734Y-93706291D01*
X86183941Y-93809246D01*
X86136556Y-93923644D01*
X86112400Y-94045088D01*
X84448600Y-94045088D01*
X84424444Y-93923644D01*
X84377059Y-93809246D01*
X84308266Y-93706291D01*
X84220709Y-93618734D01*
X84117754Y-93549941D01*
X84003356Y-93502556D01*
X83881912Y-93478400D01*
X83758088Y-93478400D01*
X83636644Y-93502556D01*
X83522246Y-93549941D01*
X83419291Y-93618734D01*
X83331734Y-93706291D01*
X83262941Y-93809246D01*
X83215556Y-93923644D01*
X83191400Y-94045088D01*
X76528600Y-94045088D01*
X76528600Y-91252679D01*
X77663602Y-91252679D01*
X77663602Y-91627321D01*
X77736691Y-91994763D01*
X77880060Y-92340886D01*
X78088200Y-92652389D01*
X78353111Y-92917300D01*
X78664614Y-93125440D01*
X79010737Y-93268809D01*
X79378179Y-93341898D01*
X79752821Y-93341898D01*
X80120263Y-93268809D01*
X80204376Y-93233968D01*
X114706400Y-93233968D01*
X114706400Y-93329032D01*
X114724946Y-93422269D01*
X114761326Y-93510097D01*
X114814140Y-93589140D01*
X114881360Y-93656360D01*
X114960403Y-93709174D01*
X115048231Y-93745554D01*
X115141468Y-93764100D01*
X115236532Y-93764100D01*
X115329769Y-93745554D01*
X115417597Y-93709174D01*
X115496640Y-93656360D01*
X115563860Y-93589140D01*
X115616674Y-93510097D01*
X115653054Y-93422269D01*
X115671600Y-93329032D01*
X115671600Y-93233968D01*
X115653054Y-93140731D01*
X115616674Y-93052903D01*
X115563860Y-92973860D01*
X115496640Y-92906640D01*
X115417597Y-92853826D01*
X115329769Y-92817446D01*
X115236532Y-92798900D01*
X115141468Y-92798900D01*
X115048231Y-92817446D01*
X114960403Y-92853826D01*
X114881360Y-92906640D01*
X114814140Y-92973860D01*
X114761326Y-93052903D01*
X114724946Y-93140731D01*
X114706400Y-93233968D01*
X80204376Y-93233968D01*
X80466386Y-93125440D01*
X80777889Y-92917300D01*
X81042800Y-92652389D01*
X81205783Y-92408468D01*
X112039400Y-92408468D01*
X112039400Y-92503532D01*
X112057946Y-92596769D01*
X112094326Y-92684597D01*
X112147140Y-92763640D01*
X112214360Y-92830860D01*
X112293403Y-92883674D01*
X112381231Y-92920054D01*
X112474468Y-92938600D01*
X112569532Y-92938600D01*
X112662769Y-92920054D01*
X112750597Y-92883674D01*
X112829640Y-92830860D01*
X112896860Y-92763640D01*
X112949674Y-92684597D01*
X112986054Y-92596769D01*
X113004600Y-92503532D01*
X113004600Y-92408468D01*
X112986054Y-92315231D01*
X112949674Y-92227403D01*
X112896860Y-92148360D01*
X112829640Y-92081140D01*
X112750597Y-92028326D01*
X112662769Y-91991946D01*
X112569532Y-91973400D01*
X112474468Y-91973400D01*
X112381231Y-91991946D01*
X112293403Y-92028326D01*
X112214360Y-92081140D01*
X112147140Y-92148360D01*
X112094326Y-92227403D01*
X112057946Y-92315231D01*
X112039400Y-92408468D01*
X81205783Y-92408468D01*
X81250940Y-92340886D01*
X81394309Y-91994763D01*
X81467398Y-91627321D01*
X81467398Y-91252679D01*
X81394309Y-90885237D01*
X81393991Y-90884468D01*
X96037400Y-90884468D01*
X96037400Y-90979532D01*
X96055946Y-91072769D01*
X96092326Y-91160597D01*
X96145140Y-91239640D01*
X96212360Y-91306860D01*
X96291403Y-91359674D01*
X96379231Y-91396054D01*
X96472468Y-91414600D01*
X96567532Y-91414600D01*
X96660769Y-91396054D01*
X96748597Y-91359674D01*
X96827640Y-91306860D01*
X96894860Y-91239640D01*
X96947674Y-91160597D01*
X96984054Y-91072769D01*
X97002600Y-90979532D01*
X97002600Y-90884468D01*
X97307400Y-90884468D01*
X97307400Y-90979532D01*
X97325946Y-91072769D01*
X97362326Y-91160597D01*
X97415140Y-91239640D01*
X97482360Y-91306860D01*
X97561403Y-91359674D01*
X97649231Y-91396054D01*
X97742468Y-91414600D01*
X97837532Y-91414600D01*
X97930769Y-91396054D01*
X98018597Y-91359674D01*
X98097640Y-91306860D01*
X98164860Y-91239640D01*
X98217674Y-91160597D01*
X98254054Y-91072769D01*
X98272600Y-90979532D01*
X98272600Y-90884468D01*
X98577400Y-90884468D01*
X98577400Y-90979532D01*
X98595946Y-91072769D01*
X98632326Y-91160597D01*
X98685140Y-91239640D01*
X98752360Y-91306860D01*
X98831403Y-91359674D01*
X98919231Y-91396054D01*
X99012468Y-91414600D01*
X99107532Y-91414600D01*
X99200769Y-91396054D01*
X99288597Y-91359674D01*
X99367640Y-91306860D01*
X99434860Y-91239640D01*
X99487674Y-91160597D01*
X99524054Y-91072769D01*
X99542600Y-90979532D01*
X99542600Y-90884468D01*
X99847400Y-90884468D01*
X99847400Y-90979532D01*
X99865946Y-91072769D01*
X99902326Y-91160597D01*
X99955140Y-91239640D01*
X100022360Y-91306860D01*
X100101403Y-91359674D01*
X100189231Y-91396054D01*
X100282468Y-91414600D01*
X100377532Y-91414600D01*
X100470769Y-91396054D01*
X100558597Y-91359674D01*
X100637640Y-91306860D01*
X100704860Y-91239640D01*
X100757674Y-91160597D01*
X100794054Y-91072769D01*
X100812600Y-90979532D01*
X100812600Y-90884468D01*
X101117400Y-90884468D01*
X101117400Y-90979532D01*
X101135946Y-91072769D01*
X101172326Y-91160597D01*
X101225140Y-91239640D01*
X101292360Y-91306860D01*
X101371403Y-91359674D01*
X101459231Y-91396054D01*
X101552468Y-91414600D01*
X101647532Y-91414600D01*
X101740769Y-91396054D01*
X101828597Y-91359674D01*
X101907640Y-91306860D01*
X101974860Y-91239640D01*
X102027674Y-91160597D01*
X102064054Y-91072769D01*
X102082600Y-90979532D01*
X102082600Y-90884468D01*
X125247400Y-90884468D01*
X125247400Y-90979532D01*
X125265946Y-91072769D01*
X125302326Y-91160597D01*
X125355140Y-91239640D01*
X125422360Y-91306860D01*
X125501403Y-91359674D01*
X125589231Y-91396054D01*
X125682468Y-91414600D01*
X125777532Y-91414600D01*
X125870769Y-91396054D01*
X125958597Y-91359674D01*
X126037640Y-91306860D01*
X126104860Y-91239640D01*
X126157674Y-91160597D01*
X126194054Y-91072769D01*
X126212600Y-90979532D01*
X126212600Y-90884468D01*
X126517400Y-90884468D01*
X126517400Y-90979532D01*
X126535946Y-91072769D01*
X126572326Y-91160597D01*
X126625140Y-91239640D01*
X126692360Y-91306860D01*
X126771403Y-91359674D01*
X126859231Y-91396054D01*
X126952468Y-91414600D01*
X127047532Y-91414600D01*
X127140769Y-91396054D01*
X127228597Y-91359674D01*
X127307640Y-91306860D01*
X127374860Y-91239640D01*
X127427674Y-91160597D01*
X127464054Y-91072769D01*
X127482600Y-90979532D01*
X127482600Y-90884468D01*
X130327400Y-90884468D01*
X130327400Y-90979532D01*
X130345946Y-91072769D01*
X130382326Y-91160597D01*
X130435140Y-91239640D01*
X130502360Y-91306860D01*
X130581403Y-91359674D01*
X130669231Y-91396054D01*
X130762468Y-91414600D01*
X130857532Y-91414600D01*
X130950769Y-91396054D01*
X131038597Y-91359674D01*
X131117640Y-91306860D01*
X131184860Y-91239640D01*
X131237674Y-91160597D01*
X131274054Y-91072769D01*
X131292600Y-90979532D01*
X131292600Y-90884468D01*
X131597400Y-90884468D01*
X131597400Y-90979532D01*
X131615946Y-91072769D01*
X131652326Y-91160597D01*
X131705140Y-91239640D01*
X131772360Y-91306860D01*
X131851403Y-91359674D01*
X131939231Y-91396054D01*
X132032468Y-91414600D01*
X132127532Y-91414600D01*
X132220769Y-91396054D01*
X132308597Y-91359674D01*
X132387640Y-91306860D01*
X132454860Y-91239640D01*
X132507674Y-91160597D01*
X132544054Y-91072769D01*
X132562600Y-90979532D01*
X132562600Y-90884468D01*
X132867400Y-90884468D01*
X132867400Y-90979532D01*
X132885946Y-91072769D01*
X132922326Y-91160597D01*
X132975140Y-91239640D01*
X133042360Y-91306860D01*
X133121403Y-91359674D01*
X133209231Y-91396054D01*
X133302468Y-91414600D01*
X133397532Y-91414600D01*
X133490769Y-91396054D01*
X133578597Y-91359674D01*
X133657640Y-91306860D01*
X133724860Y-91239640D01*
X133777674Y-91160597D01*
X133814054Y-91072769D01*
X133832600Y-90979532D01*
X133832600Y-90884468D01*
X134137400Y-90884468D01*
X134137400Y-90979532D01*
X134155946Y-91072769D01*
X134192326Y-91160597D01*
X134245140Y-91239640D01*
X134312360Y-91306860D01*
X134391403Y-91359674D01*
X134479231Y-91396054D01*
X134572468Y-91414600D01*
X134667532Y-91414600D01*
X134760769Y-91396054D01*
X134848597Y-91359674D01*
X134927640Y-91306860D01*
X134994860Y-91239640D01*
X135047674Y-91160597D01*
X135084054Y-91072769D01*
X135102600Y-90979532D01*
X135102600Y-90884468D01*
X135407400Y-90884468D01*
X135407400Y-90979532D01*
X135425946Y-91072769D01*
X135462326Y-91160597D01*
X135515140Y-91239640D01*
X135582360Y-91306860D01*
X135661403Y-91359674D01*
X135749231Y-91396054D01*
X135842468Y-91414600D01*
X135937532Y-91414600D01*
X136030769Y-91396054D01*
X136118597Y-91359674D01*
X136197640Y-91306860D01*
X136251821Y-91252679D01*
X159832602Y-91252679D01*
X159832602Y-91627321D01*
X159905691Y-91994763D01*
X160049060Y-92340886D01*
X160257200Y-92652389D01*
X160522111Y-92917300D01*
X160833614Y-93125440D01*
X161179737Y-93268809D01*
X161547179Y-93341898D01*
X161921821Y-93341898D01*
X162289263Y-93268809D01*
X162635386Y-93125440D01*
X162946889Y-92917300D01*
X163211800Y-92652389D01*
X163419940Y-92340886D01*
X163563309Y-91994763D01*
X163636398Y-91627321D01*
X163636398Y-91252679D01*
X163563309Y-90885237D01*
X163419940Y-90539114D01*
X163211800Y-90227611D01*
X162946889Y-89962700D01*
X162635386Y-89754560D01*
X162289263Y-89611191D01*
X161921821Y-89538102D01*
X161547179Y-89538102D01*
X161179737Y-89611191D01*
X160833614Y-89754560D01*
X160522111Y-89962700D01*
X160257200Y-90227611D01*
X160049060Y-90539114D01*
X159905691Y-90885237D01*
X159832602Y-91252679D01*
X136251821Y-91252679D01*
X136264860Y-91239640D01*
X136317674Y-91160597D01*
X136354054Y-91072769D01*
X136372600Y-90979532D01*
X136372600Y-90884468D01*
X136354054Y-90791231D01*
X136317674Y-90703403D01*
X136264860Y-90624360D01*
X136197640Y-90557140D01*
X136118597Y-90504326D01*
X136030769Y-90467946D01*
X135937532Y-90449400D01*
X135842468Y-90449400D01*
X135749231Y-90467946D01*
X135661403Y-90504326D01*
X135582360Y-90557140D01*
X135515140Y-90624360D01*
X135462326Y-90703403D01*
X135425946Y-90791231D01*
X135407400Y-90884468D01*
X135102600Y-90884468D01*
X135084054Y-90791231D01*
X135047674Y-90703403D01*
X134994860Y-90624360D01*
X134927640Y-90557140D01*
X134848597Y-90504326D01*
X134760769Y-90467946D01*
X134667532Y-90449400D01*
X134572468Y-90449400D01*
X134479231Y-90467946D01*
X134391403Y-90504326D01*
X134312360Y-90557140D01*
X134245140Y-90624360D01*
X134192326Y-90703403D01*
X134155946Y-90791231D01*
X134137400Y-90884468D01*
X133832600Y-90884468D01*
X133814054Y-90791231D01*
X133777674Y-90703403D01*
X133724860Y-90624360D01*
X133657640Y-90557140D01*
X133578597Y-90504326D01*
X133490769Y-90467946D01*
X133397532Y-90449400D01*
X133302468Y-90449400D01*
X133209231Y-90467946D01*
X133121403Y-90504326D01*
X133042360Y-90557140D01*
X132975140Y-90624360D01*
X132922326Y-90703403D01*
X132885946Y-90791231D01*
X132867400Y-90884468D01*
X132562600Y-90884468D01*
X132544054Y-90791231D01*
X132507674Y-90703403D01*
X132454860Y-90624360D01*
X132387640Y-90557140D01*
X132308597Y-90504326D01*
X132220769Y-90467946D01*
X132127532Y-90449400D01*
X132032468Y-90449400D01*
X131939231Y-90467946D01*
X131851403Y-90504326D01*
X131772360Y-90557140D01*
X131705140Y-90624360D01*
X131652326Y-90703403D01*
X131615946Y-90791231D01*
X131597400Y-90884468D01*
X131292600Y-90884468D01*
X131274054Y-90791231D01*
X131237674Y-90703403D01*
X131184860Y-90624360D01*
X131117640Y-90557140D01*
X131038597Y-90504326D01*
X130950769Y-90467946D01*
X130857532Y-90449400D01*
X130762468Y-90449400D01*
X130669231Y-90467946D01*
X130581403Y-90504326D01*
X130502360Y-90557140D01*
X130435140Y-90624360D01*
X130382326Y-90703403D01*
X130345946Y-90791231D01*
X130327400Y-90884468D01*
X127482600Y-90884468D01*
X127464054Y-90791231D01*
X127427674Y-90703403D01*
X127374860Y-90624360D01*
X127307640Y-90557140D01*
X127228597Y-90504326D01*
X127140769Y-90467946D01*
X127047532Y-90449400D01*
X126952468Y-90449400D01*
X126859231Y-90467946D01*
X126771403Y-90504326D01*
X126692360Y-90557140D01*
X126625140Y-90624360D01*
X126572326Y-90703403D01*
X126535946Y-90791231D01*
X126517400Y-90884468D01*
X126212600Y-90884468D01*
X126194054Y-90791231D01*
X126157674Y-90703403D01*
X126104860Y-90624360D01*
X126037640Y-90557140D01*
X125958597Y-90504326D01*
X125870769Y-90467946D01*
X125777532Y-90449400D01*
X125682468Y-90449400D01*
X125589231Y-90467946D01*
X125501403Y-90504326D01*
X125422360Y-90557140D01*
X125355140Y-90624360D01*
X125302326Y-90703403D01*
X125265946Y-90791231D01*
X125247400Y-90884468D01*
X102082600Y-90884468D01*
X102064054Y-90791231D01*
X102027674Y-90703403D01*
X101974860Y-90624360D01*
X101907640Y-90557140D01*
X101828597Y-90504326D01*
X101740769Y-90467946D01*
X101647532Y-90449400D01*
X101552468Y-90449400D01*
X101459231Y-90467946D01*
X101371403Y-90504326D01*
X101292360Y-90557140D01*
X101225140Y-90624360D01*
X101172326Y-90703403D01*
X101135946Y-90791231D01*
X101117400Y-90884468D01*
X100812600Y-90884468D01*
X100794054Y-90791231D01*
X100757674Y-90703403D01*
X100704860Y-90624360D01*
X100637640Y-90557140D01*
X100558597Y-90504326D01*
X100470769Y-90467946D01*
X100377532Y-90449400D01*
X100282468Y-90449400D01*
X100189231Y-90467946D01*
X100101403Y-90504326D01*
X100022360Y-90557140D01*
X99955140Y-90624360D01*
X99902326Y-90703403D01*
X99865946Y-90791231D01*
X99847400Y-90884468D01*
X99542600Y-90884468D01*
X99524054Y-90791231D01*
X99487674Y-90703403D01*
X99434860Y-90624360D01*
X99367640Y-90557140D01*
X99288597Y-90504326D01*
X99200769Y-90467946D01*
X99107532Y-90449400D01*
X99012468Y-90449400D01*
X98919231Y-90467946D01*
X98831403Y-90504326D01*
X98752360Y-90557140D01*
X98685140Y-90624360D01*
X98632326Y-90703403D01*
X98595946Y-90791231D01*
X98577400Y-90884468D01*
X98272600Y-90884468D01*
X98254054Y-90791231D01*
X98217674Y-90703403D01*
X98164860Y-90624360D01*
X98097640Y-90557140D01*
X98018597Y-90504326D01*
X97930769Y-90467946D01*
X97837532Y-90449400D01*
X97742468Y-90449400D01*
X97649231Y-90467946D01*
X97561403Y-90504326D01*
X97482360Y-90557140D01*
X97415140Y-90624360D01*
X97362326Y-90703403D01*
X97325946Y-90791231D01*
X97307400Y-90884468D01*
X97002600Y-90884468D01*
X96984054Y-90791231D01*
X96947674Y-90703403D01*
X96894860Y-90624360D01*
X96827640Y-90557140D01*
X96748597Y-90504326D01*
X96660769Y-90467946D01*
X96567532Y-90449400D01*
X96472468Y-90449400D01*
X96379231Y-90467946D01*
X96291403Y-90504326D01*
X96212360Y-90557140D01*
X96145140Y-90624360D01*
X96092326Y-90703403D01*
X96055946Y-90791231D01*
X96037400Y-90884468D01*
X81393991Y-90884468D01*
X81250940Y-90539114D01*
X81042800Y-90227611D01*
X80937657Y-90122468D01*
X120675400Y-90122468D01*
X120675400Y-90217532D01*
X120693946Y-90310769D01*
X120730326Y-90398597D01*
X120783140Y-90477640D01*
X120850360Y-90544860D01*
X120929403Y-90597674D01*
X121017231Y-90634054D01*
X121110468Y-90652600D01*
X121205532Y-90652600D01*
X121298769Y-90634054D01*
X121386597Y-90597674D01*
X121465640Y-90544860D01*
X121532860Y-90477640D01*
X121585674Y-90398597D01*
X121622054Y-90310769D01*
X121640600Y-90217532D01*
X121640600Y-90122468D01*
X121622054Y-90029231D01*
X121585674Y-89941403D01*
X121532860Y-89862360D01*
X121465640Y-89795140D01*
X121386597Y-89742326D01*
X121298769Y-89705946D01*
X121205532Y-89687400D01*
X121110468Y-89687400D01*
X121017231Y-89705946D01*
X120929403Y-89742326D01*
X120850360Y-89795140D01*
X120783140Y-89862360D01*
X120730326Y-89941403D01*
X120693946Y-90029231D01*
X120675400Y-90122468D01*
X80937657Y-90122468D01*
X80777889Y-89962700D01*
X80466386Y-89754560D01*
X80120263Y-89611191D01*
X79752821Y-89538102D01*
X79378179Y-89538102D01*
X79010737Y-89611191D01*
X78664614Y-89754560D01*
X78353111Y-89962700D01*
X78088200Y-90227611D01*
X77880060Y-90539114D01*
X77736691Y-90885237D01*
X77663602Y-91252679D01*
X76528600Y-91252679D01*
X76528600Y-88979468D01*
X125247400Y-88979468D01*
X125247400Y-89074532D01*
X125265946Y-89167769D01*
X125302326Y-89255597D01*
X125355140Y-89334640D01*
X125422360Y-89401860D01*
X125501403Y-89454674D01*
X125589231Y-89491054D01*
X125682468Y-89509600D01*
X125777532Y-89509600D01*
X125870769Y-89491054D01*
X125958597Y-89454674D01*
X126037640Y-89401860D01*
X126104860Y-89334640D01*
X126157674Y-89255597D01*
X126194054Y-89167769D01*
X126212600Y-89074532D01*
X126212600Y-88979468D01*
X126194054Y-88886231D01*
X126157674Y-88798403D01*
X126104860Y-88719360D01*
X126037640Y-88652140D01*
X125958597Y-88599326D01*
X125870769Y-88562946D01*
X125777532Y-88544400D01*
X125682468Y-88544400D01*
X125589231Y-88562946D01*
X125501403Y-88599326D01*
X125422360Y-88652140D01*
X125355140Y-88719360D01*
X125302326Y-88798403D01*
X125265946Y-88886231D01*
X125247400Y-88979468D01*
X76528600Y-88979468D01*
X76528600Y-88344468D01*
X90957400Y-88344468D01*
X90957400Y-88439532D01*
X90975946Y-88532769D01*
X91012326Y-88620597D01*
X91065140Y-88699640D01*
X91132360Y-88766860D01*
X91211403Y-88819674D01*
X91299231Y-88856054D01*
X91392468Y-88874600D01*
X91487532Y-88874600D01*
X91580769Y-88856054D01*
X91668597Y-88819674D01*
X91747640Y-88766860D01*
X91814860Y-88699640D01*
X91867674Y-88620597D01*
X91904054Y-88532769D01*
X91922600Y-88439532D01*
X91922600Y-88344468D01*
X93497400Y-88344468D01*
X93497400Y-88439532D01*
X93515946Y-88532769D01*
X93552326Y-88620597D01*
X93605140Y-88699640D01*
X93672360Y-88766860D01*
X93751403Y-88819674D01*
X93839231Y-88856054D01*
X93932468Y-88874600D01*
X94027532Y-88874600D01*
X94120769Y-88856054D01*
X94208597Y-88819674D01*
X94287640Y-88766860D01*
X94354860Y-88699640D01*
X94407674Y-88620597D01*
X94444054Y-88532769D01*
X94462600Y-88439532D01*
X94462600Y-88344468D01*
X96037400Y-88344468D01*
X96037400Y-88439532D01*
X96055946Y-88532769D01*
X96092326Y-88620597D01*
X96145140Y-88699640D01*
X96212360Y-88766860D01*
X96291403Y-88819674D01*
X96379231Y-88856054D01*
X96472468Y-88874600D01*
X96567532Y-88874600D01*
X96660769Y-88856054D01*
X96748597Y-88819674D01*
X96827640Y-88766860D01*
X96894860Y-88699640D01*
X96947674Y-88620597D01*
X96984054Y-88532769D01*
X97002600Y-88439532D01*
X97002600Y-88344468D01*
X97307400Y-88344468D01*
X97307400Y-88439532D01*
X97325946Y-88532769D01*
X97362326Y-88620597D01*
X97415140Y-88699640D01*
X97482360Y-88766860D01*
X97561403Y-88819674D01*
X97649231Y-88856054D01*
X97742468Y-88874600D01*
X97837532Y-88874600D01*
X97930769Y-88856054D01*
X98018597Y-88819674D01*
X98097640Y-88766860D01*
X98164860Y-88699640D01*
X98217674Y-88620597D01*
X98254054Y-88532769D01*
X98272600Y-88439532D01*
X98272600Y-88344468D01*
X98577400Y-88344468D01*
X98577400Y-88439532D01*
X98595946Y-88532769D01*
X98632326Y-88620597D01*
X98685140Y-88699640D01*
X98752360Y-88766860D01*
X98831403Y-88819674D01*
X98919231Y-88856054D01*
X99012468Y-88874600D01*
X99107532Y-88874600D01*
X99200769Y-88856054D01*
X99288597Y-88819674D01*
X99367640Y-88766860D01*
X99434860Y-88699640D01*
X99487674Y-88620597D01*
X99524054Y-88532769D01*
X99542600Y-88439532D01*
X99542600Y-88344468D01*
X99847400Y-88344468D01*
X99847400Y-88439532D01*
X99865946Y-88532769D01*
X99902326Y-88620597D01*
X99955140Y-88699640D01*
X100022360Y-88766860D01*
X100101403Y-88819674D01*
X100189231Y-88856054D01*
X100282468Y-88874600D01*
X100377532Y-88874600D01*
X100470769Y-88856054D01*
X100558597Y-88819674D01*
X100637640Y-88766860D01*
X100704860Y-88699640D01*
X100757674Y-88620597D01*
X100794054Y-88532769D01*
X100812600Y-88439532D01*
X100812600Y-88344468D01*
X101117400Y-88344468D01*
X101117400Y-88439532D01*
X101135946Y-88532769D01*
X101172326Y-88620597D01*
X101225140Y-88699640D01*
X101292360Y-88766860D01*
X101371403Y-88819674D01*
X101459231Y-88856054D01*
X101552468Y-88874600D01*
X101647532Y-88874600D01*
X101740769Y-88856054D01*
X101828597Y-88819674D01*
X101907640Y-88766860D01*
X101974860Y-88699640D01*
X102027674Y-88620597D01*
X102064054Y-88532769D01*
X102082600Y-88439532D01*
X102082600Y-88344468D01*
X127787400Y-88344468D01*
X127787400Y-88439532D01*
X127805946Y-88532769D01*
X127842326Y-88620597D01*
X127895140Y-88699640D01*
X127962360Y-88766860D01*
X128041403Y-88819674D01*
X128129231Y-88856054D01*
X128222468Y-88874600D01*
X128317532Y-88874600D01*
X128410769Y-88856054D01*
X128498597Y-88819674D01*
X128577640Y-88766860D01*
X128644860Y-88699640D01*
X128697674Y-88620597D01*
X128734054Y-88532769D01*
X128752600Y-88439532D01*
X128752600Y-88344468D01*
X130327400Y-88344468D01*
X130327400Y-88439532D01*
X130345946Y-88532769D01*
X130382326Y-88620597D01*
X130435140Y-88699640D01*
X130502360Y-88766860D01*
X130581403Y-88819674D01*
X130669231Y-88856054D01*
X130762468Y-88874600D01*
X130857532Y-88874600D01*
X130950769Y-88856054D01*
X131038597Y-88819674D01*
X131117640Y-88766860D01*
X131184860Y-88699640D01*
X131237674Y-88620597D01*
X131274054Y-88532769D01*
X131292600Y-88439532D01*
X131292600Y-88344468D01*
X131597400Y-88344468D01*
X131597400Y-88439532D01*
X131615946Y-88532769D01*
X131652326Y-88620597D01*
X131705140Y-88699640D01*
X131772360Y-88766860D01*
X131851403Y-88819674D01*
X131939231Y-88856054D01*
X132032468Y-88874600D01*
X132127532Y-88874600D01*
X132220769Y-88856054D01*
X132308597Y-88819674D01*
X132387640Y-88766860D01*
X132454860Y-88699640D01*
X132507674Y-88620597D01*
X132544054Y-88532769D01*
X132562600Y-88439532D01*
X132562600Y-88344468D01*
X132867400Y-88344468D01*
X132867400Y-88439532D01*
X132885946Y-88532769D01*
X132922326Y-88620597D01*
X132975140Y-88699640D01*
X133042360Y-88766860D01*
X133121403Y-88819674D01*
X133209231Y-88856054D01*
X133302468Y-88874600D01*
X133397532Y-88874600D01*
X133490769Y-88856054D01*
X133578597Y-88819674D01*
X133657640Y-88766860D01*
X133724860Y-88699640D01*
X133777674Y-88620597D01*
X133814054Y-88532769D01*
X133832600Y-88439532D01*
X133832600Y-88344468D01*
X134137400Y-88344468D01*
X134137400Y-88439532D01*
X134155946Y-88532769D01*
X134192326Y-88620597D01*
X134245140Y-88699640D01*
X134312360Y-88766860D01*
X134391403Y-88819674D01*
X134479231Y-88856054D01*
X134572468Y-88874600D01*
X134667532Y-88874600D01*
X134760769Y-88856054D01*
X134848597Y-88819674D01*
X134927640Y-88766860D01*
X134994860Y-88699640D01*
X135047674Y-88620597D01*
X135084054Y-88532769D01*
X135102600Y-88439532D01*
X135102600Y-88344468D01*
X135407400Y-88344468D01*
X135407400Y-88439532D01*
X135425946Y-88532769D01*
X135462326Y-88620597D01*
X135515140Y-88699640D01*
X135582360Y-88766860D01*
X135661403Y-88819674D01*
X135749231Y-88856054D01*
X135842468Y-88874600D01*
X135937532Y-88874600D01*
X136030769Y-88856054D01*
X136118597Y-88819674D01*
X136197640Y-88766860D01*
X136264860Y-88699640D01*
X136317674Y-88620597D01*
X136354054Y-88532769D01*
X136372600Y-88439532D01*
X136372600Y-88344468D01*
X136354054Y-88251231D01*
X136317674Y-88163403D01*
X136264860Y-88084360D01*
X136197640Y-88017140D01*
X136118597Y-87964326D01*
X136030769Y-87927946D01*
X135937532Y-87909400D01*
X135842468Y-87909400D01*
X135749231Y-87927946D01*
X135661403Y-87964326D01*
X135582360Y-88017140D01*
X135515140Y-88084360D01*
X135462326Y-88163403D01*
X135425946Y-88251231D01*
X135407400Y-88344468D01*
X135102600Y-88344468D01*
X135084054Y-88251231D01*
X135047674Y-88163403D01*
X134994860Y-88084360D01*
X134927640Y-88017140D01*
X134848597Y-87964326D01*
X134760769Y-87927946D01*
X134667532Y-87909400D01*
X134572468Y-87909400D01*
X134479231Y-87927946D01*
X134391403Y-87964326D01*
X134312360Y-88017140D01*
X134245140Y-88084360D01*
X134192326Y-88163403D01*
X134155946Y-88251231D01*
X134137400Y-88344468D01*
X133832600Y-88344468D01*
X133814054Y-88251231D01*
X133777674Y-88163403D01*
X133724860Y-88084360D01*
X133657640Y-88017140D01*
X133578597Y-87964326D01*
X133490769Y-87927946D01*
X133397532Y-87909400D01*
X133302468Y-87909400D01*
X133209231Y-87927946D01*
X133121403Y-87964326D01*
X133042360Y-88017140D01*
X132975140Y-88084360D01*
X132922326Y-88163403D01*
X132885946Y-88251231D01*
X132867400Y-88344468D01*
X132562600Y-88344468D01*
X132544054Y-88251231D01*
X132507674Y-88163403D01*
X132454860Y-88084360D01*
X132387640Y-88017140D01*
X132308597Y-87964326D01*
X132220769Y-87927946D01*
X132127532Y-87909400D01*
X132032468Y-87909400D01*
X131939231Y-87927946D01*
X131851403Y-87964326D01*
X131772360Y-88017140D01*
X131705140Y-88084360D01*
X131652326Y-88163403D01*
X131615946Y-88251231D01*
X131597400Y-88344468D01*
X131292600Y-88344468D01*
X131274054Y-88251231D01*
X131237674Y-88163403D01*
X131184860Y-88084360D01*
X131117640Y-88017140D01*
X131038597Y-87964326D01*
X130950769Y-87927946D01*
X130857532Y-87909400D01*
X130762468Y-87909400D01*
X130669231Y-87927946D01*
X130581403Y-87964326D01*
X130502360Y-88017140D01*
X130435140Y-88084360D01*
X130382326Y-88163403D01*
X130345946Y-88251231D01*
X130327400Y-88344468D01*
X128752600Y-88344468D01*
X128734054Y-88251231D01*
X128697674Y-88163403D01*
X128644860Y-88084360D01*
X128577640Y-88017140D01*
X128498597Y-87964326D01*
X128410769Y-87927946D01*
X128317532Y-87909400D01*
X128222468Y-87909400D01*
X128129231Y-87927946D01*
X128041403Y-87964326D01*
X127962360Y-88017140D01*
X127895140Y-88084360D01*
X127842326Y-88163403D01*
X127805946Y-88251231D01*
X127787400Y-88344468D01*
X102082600Y-88344468D01*
X102064054Y-88251231D01*
X102027674Y-88163403D01*
X101974860Y-88084360D01*
X101907640Y-88017140D01*
X101828597Y-87964326D01*
X101740769Y-87927946D01*
X101647532Y-87909400D01*
X101552468Y-87909400D01*
X101459231Y-87927946D01*
X101371403Y-87964326D01*
X101292360Y-88017140D01*
X101225140Y-88084360D01*
X101172326Y-88163403D01*
X101135946Y-88251231D01*
X101117400Y-88344468D01*
X100812600Y-88344468D01*
X100794054Y-88251231D01*
X100757674Y-88163403D01*
X100704860Y-88084360D01*
X100637640Y-88017140D01*
X100558597Y-87964326D01*
X100470769Y-87927946D01*
X100377532Y-87909400D01*
X100282468Y-87909400D01*
X100189231Y-87927946D01*
X100101403Y-87964326D01*
X100022360Y-88017140D01*
X99955140Y-88084360D01*
X99902326Y-88163403D01*
X99865946Y-88251231D01*
X99847400Y-88344468D01*
X99542600Y-88344468D01*
X99524054Y-88251231D01*
X99487674Y-88163403D01*
X99434860Y-88084360D01*
X99367640Y-88017140D01*
X99288597Y-87964326D01*
X99200769Y-87927946D01*
X99107532Y-87909400D01*
X99012468Y-87909400D01*
X98919231Y-87927946D01*
X98831403Y-87964326D01*
X98752360Y-88017140D01*
X98685140Y-88084360D01*
X98632326Y-88163403D01*
X98595946Y-88251231D01*
X98577400Y-88344468D01*
X98272600Y-88344468D01*
X98254054Y-88251231D01*
X98217674Y-88163403D01*
X98164860Y-88084360D01*
X98097640Y-88017140D01*
X98018597Y-87964326D01*
X97930769Y-87927946D01*
X97837532Y-87909400D01*
X97742468Y-87909400D01*
X97649231Y-87927946D01*
X97561403Y-87964326D01*
X97482360Y-88017140D01*
X97415140Y-88084360D01*
X97362326Y-88163403D01*
X97325946Y-88251231D01*
X97307400Y-88344468D01*
X97002600Y-88344468D01*
X96984054Y-88251231D01*
X96947674Y-88163403D01*
X96894860Y-88084360D01*
X96827640Y-88017140D01*
X96748597Y-87964326D01*
X96660769Y-87927946D01*
X96567532Y-87909400D01*
X96472468Y-87909400D01*
X96379231Y-87927946D01*
X96291403Y-87964326D01*
X96212360Y-88017140D01*
X96145140Y-88084360D01*
X96092326Y-88163403D01*
X96055946Y-88251231D01*
X96037400Y-88344468D01*
X94462600Y-88344468D01*
X94444054Y-88251231D01*
X94407674Y-88163403D01*
X94354860Y-88084360D01*
X94287640Y-88017140D01*
X94208597Y-87964326D01*
X94120769Y-87927946D01*
X94027532Y-87909400D01*
X93932468Y-87909400D01*
X93839231Y-87927946D01*
X93751403Y-87964326D01*
X93672360Y-88017140D01*
X93605140Y-88084360D01*
X93552326Y-88163403D01*
X93515946Y-88251231D01*
X93497400Y-88344468D01*
X91922600Y-88344468D01*
X91904054Y-88251231D01*
X91867674Y-88163403D01*
X91814860Y-88084360D01*
X91747640Y-88017140D01*
X91668597Y-87964326D01*
X91580769Y-87927946D01*
X91487532Y-87909400D01*
X91392468Y-87909400D01*
X91299231Y-87927946D01*
X91211403Y-87964326D01*
X91132360Y-88017140D01*
X91065140Y-88084360D01*
X91012326Y-88163403D01*
X90975946Y-88251231D01*
X90957400Y-88344468D01*
X76528600Y-88344468D01*
X76528600Y-82878600D01*
X164771400Y-82878600D01*
X164771401Y-101271400D01*
M02*
