G04 #@! TF.GenerationSoftware,KiCad,Pcbnew,(5.1.5-0-10_14)*
G04 #@! TF.CreationDate,2020-05-15T18:10:59-04:00*
G04 #@! TF.ProjectId,simm-30-4mb,73696d6d-2d33-4302-9d34-6d622e6b6963,rev?*
G04 #@! TF.SameCoordinates,Original*
G04 #@! TF.FileFunction,Paste,Top*
G04 #@! TF.FilePolarity,Positive*
%FSLAX46Y46*%
G04 Gerber Fmt 4.6, Leading zero omitted, Abs format (unit mm)*
G04 Created by KiCad (PCBNEW (5.1.5-0-10_14)) date 2020-05-15 18:10:59*
%MOMM*%
%LPD*%
G04 APERTURE LIST*
%ADD10C,0.100000*%
G04 APERTURE END LIST*
D10*
G36*
X122063785Y-92900731D02*
G01*
X122076497Y-92902616D01*
X122088963Y-92905739D01*
X122101062Y-92910068D01*
X122112679Y-92915562D01*
X122123702Y-92922169D01*
X122134024Y-92929824D01*
X122143546Y-92938454D01*
X122152176Y-92947976D01*
X122159831Y-92958298D01*
X122166438Y-92969321D01*
X122171932Y-92980938D01*
X122176261Y-92993037D01*
X122179384Y-93005503D01*
X122181269Y-93018215D01*
X122181900Y-93031050D01*
X122181900Y-95192950D01*
X122181269Y-95205785D01*
X122179384Y-95218497D01*
X122176261Y-95230963D01*
X122171932Y-95243062D01*
X122166438Y-95254679D01*
X122159831Y-95265702D01*
X122152176Y-95276024D01*
X122143546Y-95285546D01*
X122134024Y-95294176D01*
X122123702Y-95301831D01*
X122112679Y-95308438D01*
X122101062Y-95313932D01*
X122088963Y-95318261D01*
X122076497Y-95321384D01*
X122063785Y-95323269D01*
X122050950Y-95323900D01*
X121789050Y-95323900D01*
X121776215Y-95323269D01*
X121763503Y-95321384D01*
X121751037Y-95318261D01*
X121738938Y-95313932D01*
X121727321Y-95308438D01*
X121716298Y-95301831D01*
X121705976Y-95294176D01*
X121696454Y-95285546D01*
X121687824Y-95276024D01*
X121680169Y-95265702D01*
X121673562Y-95254679D01*
X121668068Y-95243062D01*
X121663739Y-95230963D01*
X121660616Y-95218497D01*
X121658731Y-95205785D01*
X121658100Y-95192950D01*
X121658100Y-93031050D01*
X121658731Y-93018215D01*
X121660616Y-93005503D01*
X121663739Y-92993037D01*
X121668068Y-92980938D01*
X121673562Y-92969321D01*
X121680169Y-92958298D01*
X121687824Y-92947976D01*
X121696454Y-92938454D01*
X121705976Y-92929824D01*
X121716298Y-92922169D01*
X121727321Y-92915562D01*
X121738938Y-92910068D01*
X121751037Y-92905739D01*
X121763503Y-92902616D01*
X121776215Y-92900731D01*
X121789050Y-92900100D01*
X122050950Y-92900100D01*
X122063785Y-92900731D01*
G37*
G36*
X123333785Y-92900731D02*
G01*
X123346497Y-92902616D01*
X123358963Y-92905739D01*
X123371062Y-92910068D01*
X123382679Y-92915562D01*
X123393702Y-92922169D01*
X123404024Y-92929824D01*
X123413546Y-92938454D01*
X123422176Y-92947976D01*
X123429831Y-92958298D01*
X123436438Y-92969321D01*
X123441932Y-92980938D01*
X123446261Y-92993037D01*
X123449384Y-93005503D01*
X123451269Y-93018215D01*
X123451900Y-93031050D01*
X123451900Y-95192950D01*
X123451269Y-95205785D01*
X123449384Y-95218497D01*
X123446261Y-95230963D01*
X123441932Y-95243062D01*
X123436438Y-95254679D01*
X123429831Y-95265702D01*
X123422176Y-95276024D01*
X123413546Y-95285546D01*
X123404024Y-95294176D01*
X123393702Y-95301831D01*
X123382679Y-95308438D01*
X123371062Y-95313932D01*
X123358963Y-95318261D01*
X123346497Y-95321384D01*
X123333785Y-95323269D01*
X123320950Y-95323900D01*
X123059050Y-95323900D01*
X123046215Y-95323269D01*
X123033503Y-95321384D01*
X123021037Y-95318261D01*
X123008938Y-95313932D01*
X122997321Y-95308438D01*
X122986298Y-95301831D01*
X122975976Y-95294176D01*
X122966454Y-95285546D01*
X122957824Y-95276024D01*
X122950169Y-95265702D01*
X122943562Y-95254679D01*
X122938068Y-95243062D01*
X122933739Y-95230963D01*
X122930616Y-95218497D01*
X122928731Y-95205785D01*
X122928100Y-95192950D01*
X122928100Y-93031050D01*
X122928731Y-93018215D01*
X122930616Y-93005503D01*
X122933739Y-92993037D01*
X122938068Y-92980938D01*
X122943562Y-92969321D01*
X122950169Y-92958298D01*
X122957824Y-92947976D01*
X122966454Y-92938454D01*
X122975976Y-92929824D01*
X122986298Y-92922169D01*
X122997321Y-92915562D01*
X123008938Y-92910068D01*
X123021037Y-92905739D01*
X123033503Y-92902616D01*
X123046215Y-92900731D01*
X123059050Y-92900100D01*
X123320950Y-92900100D01*
X123333785Y-92900731D01*
G37*
G36*
X124603785Y-92900731D02*
G01*
X124616497Y-92902616D01*
X124628963Y-92905739D01*
X124641062Y-92910068D01*
X124652679Y-92915562D01*
X124663702Y-92922169D01*
X124674024Y-92929824D01*
X124683546Y-92938454D01*
X124692176Y-92947976D01*
X124699831Y-92958298D01*
X124706438Y-92969321D01*
X124711932Y-92980938D01*
X124716261Y-92993037D01*
X124719384Y-93005503D01*
X124721269Y-93018215D01*
X124721900Y-93031050D01*
X124721900Y-95192950D01*
X124721269Y-95205785D01*
X124719384Y-95218497D01*
X124716261Y-95230963D01*
X124711932Y-95243062D01*
X124706438Y-95254679D01*
X124699831Y-95265702D01*
X124692176Y-95276024D01*
X124683546Y-95285546D01*
X124674024Y-95294176D01*
X124663702Y-95301831D01*
X124652679Y-95308438D01*
X124641062Y-95313932D01*
X124628963Y-95318261D01*
X124616497Y-95321384D01*
X124603785Y-95323269D01*
X124590950Y-95323900D01*
X124329050Y-95323900D01*
X124316215Y-95323269D01*
X124303503Y-95321384D01*
X124291037Y-95318261D01*
X124278938Y-95313932D01*
X124267321Y-95308438D01*
X124256298Y-95301831D01*
X124245976Y-95294176D01*
X124236454Y-95285546D01*
X124227824Y-95276024D01*
X124220169Y-95265702D01*
X124213562Y-95254679D01*
X124208068Y-95243062D01*
X124203739Y-95230963D01*
X124200616Y-95218497D01*
X124198731Y-95205785D01*
X124198100Y-95192950D01*
X124198100Y-93031050D01*
X124198731Y-93018215D01*
X124200616Y-93005503D01*
X124203739Y-92993037D01*
X124208068Y-92980938D01*
X124213562Y-92969321D01*
X124220169Y-92958298D01*
X124227824Y-92947976D01*
X124236454Y-92938454D01*
X124245976Y-92929824D01*
X124256298Y-92922169D01*
X124267321Y-92915562D01*
X124278938Y-92910068D01*
X124291037Y-92905739D01*
X124303503Y-92902616D01*
X124316215Y-92900731D01*
X124329050Y-92900100D01*
X124590950Y-92900100D01*
X124603785Y-92900731D01*
G37*
G36*
X125873785Y-92900731D02*
G01*
X125886497Y-92902616D01*
X125898963Y-92905739D01*
X125911062Y-92910068D01*
X125922679Y-92915562D01*
X125933702Y-92922169D01*
X125944024Y-92929824D01*
X125953546Y-92938454D01*
X125962176Y-92947976D01*
X125969831Y-92958298D01*
X125976438Y-92969321D01*
X125981932Y-92980938D01*
X125986261Y-92993037D01*
X125989384Y-93005503D01*
X125991269Y-93018215D01*
X125991900Y-93031050D01*
X125991900Y-95192950D01*
X125991269Y-95205785D01*
X125989384Y-95218497D01*
X125986261Y-95230963D01*
X125981932Y-95243062D01*
X125976438Y-95254679D01*
X125969831Y-95265702D01*
X125962176Y-95276024D01*
X125953546Y-95285546D01*
X125944024Y-95294176D01*
X125933702Y-95301831D01*
X125922679Y-95308438D01*
X125911062Y-95313932D01*
X125898963Y-95318261D01*
X125886497Y-95321384D01*
X125873785Y-95323269D01*
X125860950Y-95323900D01*
X125599050Y-95323900D01*
X125586215Y-95323269D01*
X125573503Y-95321384D01*
X125561037Y-95318261D01*
X125548938Y-95313932D01*
X125537321Y-95308438D01*
X125526298Y-95301831D01*
X125515976Y-95294176D01*
X125506454Y-95285546D01*
X125497824Y-95276024D01*
X125490169Y-95265702D01*
X125483562Y-95254679D01*
X125478068Y-95243062D01*
X125473739Y-95230963D01*
X125470616Y-95218497D01*
X125468731Y-95205785D01*
X125468100Y-95192950D01*
X125468100Y-93031050D01*
X125468731Y-93018215D01*
X125470616Y-93005503D01*
X125473739Y-92993037D01*
X125478068Y-92980938D01*
X125483562Y-92969321D01*
X125490169Y-92958298D01*
X125497824Y-92947976D01*
X125506454Y-92938454D01*
X125515976Y-92929824D01*
X125526298Y-92922169D01*
X125537321Y-92915562D01*
X125548938Y-92910068D01*
X125561037Y-92905739D01*
X125573503Y-92902616D01*
X125586215Y-92900731D01*
X125599050Y-92900100D01*
X125860950Y-92900100D01*
X125873785Y-92900731D01*
G37*
G36*
X127143785Y-92900731D02*
G01*
X127156497Y-92902616D01*
X127168963Y-92905739D01*
X127181062Y-92910068D01*
X127192679Y-92915562D01*
X127203702Y-92922169D01*
X127214024Y-92929824D01*
X127223546Y-92938454D01*
X127232176Y-92947976D01*
X127239831Y-92958298D01*
X127246438Y-92969321D01*
X127251932Y-92980938D01*
X127256261Y-92993037D01*
X127259384Y-93005503D01*
X127261269Y-93018215D01*
X127261900Y-93031050D01*
X127261900Y-95192950D01*
X127261269Y-95205785D01*
X127259384Y-95218497D01*
X127256261Y-95230963D01*
X127251932Y-95243062D01*
X127246438Y-95254679D01*
X127239831Y-95265702D01*
X127232176Y-95276024D01*
X127223546Y-95285546D01*
X127214024Y-95294176D01*
X127203702Y-95301831D01*
X127192679Y-95308438D01*
X127181062Y-95313932D01*
X127168963Y-95318261D01*
X127156497Y-95321384D01*
X127143785Y-95323269D01*
X127130950Y-95323900D01*
X126869050Y-95323900D01*
X126856215Y-95323269D01*
X126843503Y-95321384D01*
X126831037Y-95318261D01*
X126818938Y-95313932D01*
X126807321Y-95308438D01*
X126796298Y-95301831D01*
X126785976Y-95294176D01*
X126776454Y-95285546D01*
X126767824Y-95276024D01*
X126760169Y-95265702D01*
X126753562Y-95254679D01*
X126748068Y-95243062D01*
X126743739Y-95230963D01*
X126740616Y-95218497D01*
X126738731Y-95205785D01*
X126738100Y-95192950D01*
X126738100Y-93031050D01*
X126738731Y-93018215D01*
X126740616Y-93005503D01*
X126743739Y-92993037D01*
X126748068Y-92980938D01*
X126753562Y-92969321D01*
X126760169Y-92958298D01*
X126767824Y-92947976D01*
X126776454Y-92938454D01*
X126785976Y-92929824D01*
X126796298Y-92922169D01*
X126807321Y-92915562D01*
X126818938Y-92910068D01*
X126831037Y-92905739D01*
X126843503Y-92902616D01*
X126856215Y-92900731D01*
X126869050Y-92900100D01*
X127130950Y-92900100D01*
X127143785Y-92900731D01*
G37*
G36*
X128413785Y-92900731D02*
G01*
X128426497Y-92902616D01*
X128438963Y-92905739D01*
X128451062Y-92910068D01*
X128462679Y-92915562D01*
X128473702Y-92922169D01*
X128484024Y-92929824D01*
X128493546Y-92938454D01*
X128502176Y-92947976D01*
X128509831Y-92958298D01*
X128516438Y-92969321D01*
X128521932Y-92980938D01*
X128526261Y-92993037D01*
X128529384Y-93005503D01*
X128531269Y-93018215D01*
X128531900Y-93031050D01*
X128531900Y-95192950D01*
X128531269Y-95205785D01*
X128529384Y-95218497D01*
X128526261Y-95230963D01*
X128521932Y-95243062D01*
X128516438Y-95254679D01*
X128509831Y-95265702D01*
X128502176Y-95276024D01*
X128493546Y-95285546D01*
X128484024Y-95294176D01*
X128473702Y-95301831D01*
X128462679Y-95308438D01*
X128451062Y-95313932D01*
X128438963Y-95318261D01*
X128426497Y-95321384D01*
X128413785Y-95323269D01*
X128400950Y-95323900D01*
X128139050Y-95323900D01*
X128126215Y-95323269D01*
X128113503Y-95321384D01*
X128101037Y-95318261D01*
X128088938Y-95313932D01*
X128077321Y-95308438D01*
X128066298Y-95301831D01*
X128055976Y-95294176D01*
X128046454Y-95285546D01*
X128037824Y-95276024D01*
X128030169Y-95265702D01*
X128023562Y-95254679D01*
X128018068Y-95243062D01*
X128013739Y-95230963D01*
X128010616Y-95218497D01*
X128008731Y-95205785D01*
X128008100Y-95192950D01*
X128008100Y-93031050D01*
X128008731Y-93018215D01*
X128010616Y-93005503D01*
X128013739Y-92993037D01*
X128018068Y-92980938D01*
X128023562Y-92969321D01*
X128030169Y-92958298D01*
X128037824Y-92947976D01*
X128046454Y-92938454D01*
X128055976Y-92929824D01*
X128066298Y-92922169D01*
X128077321Y-92915562D01*
X128088938Y-92910068D01*
X128101037Y-92905739D01*
X128113503Y-92902616D01*
X128126215Y-92900731D01*
X128139050Y-92900100D01*
X128400950Y-92900100D01*
X128413785Y-92900731D01*
G37*
G36*
X130953785Y-92900731D02*
G01*
X130966497Y-92902616D01*
X130978963Y-92905739D01*
X130991062Y-92910068D01*
X131002679Y-92915562D01*
X131013702Y-92922169D01*
X131024024Y-92929824D01*
X131033546Y-92938454D01*
X131042176Y-92947976D01*
X131049831Y-92958298D01*
X131056438Y-92969321D01*
X131061932Y-92980938D01*
X131066261Y-92993037D01*
X131069384Y-93005503D01*
X131071269Y-93018215D01*
X131071900Y-93031050D01*
X131071900Y-95192950D01*
X131071269Y-95205785D01*
X131069384Y-95218497D01*
X131066261Y-95230963D01*
X131061932Y-95243062D01*
X131056438Y-95254679D01*
X131049831Y-95265702D01*
X131042176Y-95276024D01*
X131033546Y-95285546D01*
X131024024Y-95294176D01*
X131013702Y-95301831D01*
X131002679Y-95308438D01*
X130991062Y-95313932D01*
X130978963Y-95318261D01*
X130966497Y-95321384D01*
X130953785Y-95323269D01*
X130940950Y-95323900D01*
X130679050Y-95323900D01*
X130666215Y-95323269D01*
X130653503Y-95321384D01*
X130641037Y-95318261D01*
X130628938Y-95313932D01*
X130617321Y-95308438D01*
X130606298Y-95301831D01*
X130595976Y-95294176D01*
X130586454Y-95285546D01*
X130577824Y-95276024D01*
X130570169Y-95265702D01*
X130563562Y-95254679D01*
X130558068Y-95243062D01*
X130553739Y-95230963D01*
X130550616Y-95218497D01*
X130548731Y-95205785D01*
X130548100Y-95192950D01*
X130548100Y-93031050D01*
X130548731Y-93018215D01*
X130550616Y-93005503D01*
X130553739Y-92993037D01*
X130558068Y-92980938D01*
X130563562Y-92969321D01*
X130570169Y-92958298D01*
X130577824Y-92947976D01*
X130586454Y-92938454D01*
X130595976Y-92929824D01*
X130606298Y-92922169D01*
X130617321Y-92915562D01*
X130628938Y-92910068D01*
X130641037Y-92905739D01*
X130653503Y-92902616D01*
X130666215Y-92900731D01*
X130679050Y-92900100D01*
X130940950Y-92900100D01*
X130953785Y-92900731D01*
G37*
G36*
X132223785Y-92900731D02*
G01*
X132236497Y-92902616D01*
X132248963Y-92905739D01*
X132261062Y-92910068D01*
X132272679Y-92915562D01*
X132283702Y-92922169D01*
X132294024Y-92929824D01*
X132303546Y-92938454D01*
X132312176Y-92947976D01*
X132319831Y-92958298D01*
X132326438Y-92969321D01*
X132331932Y-92980938D01*
X132336261Y-92993037D01*
X132339384Y-93005503D01*
X132341269Y-93018215D01*
X132341900Y-93031050D01*
X132341900Y-95192950D01*
X132341269Y-95205785D01*
X132339384Y-95218497D01*
X132336261Y-95230963D01*
X132331932Y-95243062D01*
X132326438Y-95254679D01*
X132319831Y-95265702D01*
X132312176Y-95276024D01*
X132303546Y-95285546D01*
X132294024Y-95294176D01*
X132283702Y-95301831D01*
X132272679Y-95308438D01*
X132261062Y-95313932D01*
X132248963Y-95318261D01*
X132236497Y-95321384D01*
X132223785Y-95323269D01*
X132210950Y-95323900D01*
X131949050Y-95323900D01*
X131936215Y-95323269D01*
X131923503Y-95321384D01*
X131911037Y-95318261D01*
X131898938Y-95313932D01*
X131887321Y-95308438D01*
X131876298Y-95301831D01*
X131865976Y-95294176D01*
X131856454Y-95285546D01*
X131847824Y-95276024D01*
X131840169Y-95265702D01*
X131833562Y-95254679D01*
X131828068Y-95243062D01*
X131823739Y-95230963D01*
X131820616Y-95218497D01*
X131818731Y-95205785D01*
X131818100Y-95192950D01*
X131818100Y-93031050D01*
X131818731Y-93018215D01*
X131820616Y-93005503D01*
X131823739Y-92993037D01*
X131828068Y-92980938D01*
X131833562Y-92969321D01*
X131840169Y-92958298D01*
X131847824Y-92947976D01*
X131856454Y-92938454D01*
X131865976Y-92929824D01*
X131876298Y-92922169D01*
X131887321Y-92915562D01*
X131898938Y-92910068D01*
X131911037Y-92905739D01*
X131923503Y-92902616D01*
X131936215Y-92900731D01*
X131949050Y-92900100D01*
X132210950Y-92900100D01*
X132223785Y-92900731D01*
G37*
G36*
X133493785Y-92900731D02*
G01*
X133506497Y-92902616D01*
X133518963Y-92905739D01*
X133531062Y-92910068D01*
X133542679Y-92915562D01*
X133553702Y-92922169D01*
X133564024Y-92929824D01*
X133573546Y-92938454D01*
X133582176Y-92947976D01*
X133589831Y-92958298D01*
X133596438Y-92969321D01*
X133601932Y-92980938D01*
X133606261Y-92993037D01*
X133609384Y-93005503D01*
X133611269Y-93018215D01*
X133611900Y-93031050D01*
X133611900Y-95192950D01*
X133611269Y-95205785D01*
X133609384Y-95218497D01*
X133606261Y-95230963D01*
X133601932Y-95243062D01*
X133596438Y-95254679D01*
X133589831Y-95265702D01*
X133582176Y-95276024D01*
X133573546Y-95285546D01*
X133564024Y-95294176D01*
X133553702Y-95301831D01*
X133542679Y-95308438D01*
X133531062Y-95313932D01*
X133518963Y-95318261D01*
X133506497Y-95321384D01*
X133493785Y-95323269D01*
X133480950Y-95323900D01*
X133219050Y-95323900D01*
X133206215Y-95323269D01*
X133193503Y-95321384D01*
X133181037Y-95318261D01*
X133168938Y-95313932D01*
X133157321Y-95308438D01*
X133146298Y-95301831D01*
X133135976Y-95294176D01*
X133126454Y-95285546D01*
X133117824Y-95276024D01*
X133110169Y-95265702D01*
X133103562Y-95254679D01*
X133098068Y-95243062D01*
X133093739Y-95230963D01*
X133090616Y-95218497D01*
X133088731Y-95205785D01*
X133088100Y-95192950D01*
X133088100Y-93031050D01*
X133088731Y-93018215D01*
X133090616Y-93005503D01*
X133093739Y-92993037D01*
X133098068Y-92980938D01*
X133103562Y-92969321D01*
X133110169Y-92958298D01*
X133117824Y-92947976D01*
X133126454Y-92938454D01*
X133135976Y-92929824D01*
X133146298Y-92922169D01*
X133157321Y-92915562D01*
X133168938Y-92910068D01*
X133181037Y-92905739D01*
X133193503Y-92902616D01*
X133206215Y-92900731D01*
X133219050Y-92900100D01*
X133480950Y-92900100D01*
X133493785Y-92900731D01*
G37*
G36*
X134763785Y-92900731D02*
G01*
X134776497Y-92902616D01*
X134788963Y-92905739D01*
X134801062Y-92910068D01*
X134812679Y-92915562D01*
X134823702Y-92922169D01*
X134834024Y-92929824D01*
X134843546Y-92938454D01*
X134852176Y-92947976D01*
X134859831Y-92958298D01*
X134866438Y-92969321D01*
X134871932Y-92980938D01*
X134876261Y-92993037D01*
X134879384Y-93005503D01*
X134881269Y-93018215D01*
X134881900Y-93031050D01*
X134881900Y-95192950D01*
X134881269Y-95205785D01*
X134879384Y-95218497D01*
X134876261Y-95230963D01*
X134871932Y-95243062D01*
X134866438Y-95254679D01*
X134859831Y-95265702D01*
X134852176Y-95276024D01*
X134843546Y-95285546D01*
X134834024Y-95294176D01*
X134823702Y-95301831D01*
X134812679Y-95308438D01*
X134801062Y-95313932D01*
X134788963Y-95318261D01*
X134776497Y-95321384D01*
X134763785Y-95323269D01*
X134750950Y-95323900D01*
X134489050Y-95323900D01*
X134476215Y-95323269D01*
X134463503Y-95321384D01*
X134451037Y-95318261D01*
X134438938Y-95313932D01*
X134427321Y-95308438D01*
X134416298Y-95301831D01*
X134405976Y-95294176D01*
X134396454Y-95285546D01*
X134387824Y-95276024D01*
X134380169Y-95265702D01*
X134373562Y-95254679D01*
X134368068Y-95243062D01*
X134363739Y-95230963D01*
X134360616Y-95218497D01*
X134358731Y-95205785D01*
X134358100Y-95192950D01*
X134358100Y-93031050D01*
X134358731Y-93018215D01*
X134360616Y-93005503D01*
X134363739Y-92993037D01*
X134368068Y-92980938D01*
X134373562Y-92969321D01*
X134380169Y-92958298D01*
X134387824Y-92947976D01*
X134396454Y-92938454D01*
X134405976Y-92929824D01*
X134416298Y-92922169D01*
X134427321Y-92915562D01*
X134438938Y-92910068D01*
X134451037Y-92905739D01*
X134463503Y-92902616D01*
X134476215Y-92900731D01*
X134489050Y-92900100D01*
X134750950Y-92900100D01*
X134763785Y-92900731D01*
G37*
G36*
X136033785Y-92900731D02*
G01*
X136046497Y-92902616D01*
X136058963Y-92905739D01*
X136071062Y-92910068D01*
X136082679Y-92915562D01*
X136093702Y-92922169D01*
X136104024Y-92929824D01*
X136113546Y-92938454D01*
X136122176Y-92947976D01*
X136129831Y-92958298D01*
X136136438Y-92969321D01*
X136141932Y-92980938D01*
X136146261Y-92993037D01*
X136149384Y-93005503D01*
X136151269Y-93018215D01*
X136151900Y-93031050D01*
X136151900Y-95192950D01*
X136151269Y-95205785D01*
X136149384Y-95218497D01*
X136146261Y-95230963D01*
X136141932Y-95243062D01*
X136136438Y-95254679D01*
X136129831Y-95265702D01*
X136122176Y-95276024D01*
X136113546Y-95285546D01*
X136104024Y-95294176D01*
X136093702Y-95301831D01*
X136082679Y-95308438D01*
X136071062Y-95313932D01*
X136058963Y-95318261D01*
X136046497Y-95321384D01*
X136033785Y-95323269D01*
X136020950Y-95323900D01*
X135759050Y-95323900D01*
X135746215Y-95323269D01*
X135733503Y-95321384D01*
X135721037Y-95318261D01*
X135708938Y-95313932D01*
X135697321Y-95308438D01*
X135686298Y-95301831D01*
X135675976Y-95294176D01*
X135666454Y-95285546D01*
X135657824Y-95276024D01*
X135650169Y-95265702D01*
X135643562Y-95254679D01*
X135638068Y-95243062D01*
X135633739Y-95230963D01*
X135630616Y-95218497D01*
X135628731Y-95205785D01*
X135628100Y-95192950D01*
X135628100Y-93031050D01*
X135628731Y-93018215D01*
X135630616Y-93005503D01*
X135633739Y-92993037D01*
X135638068Y-92980938D01*
X135643562Y-92969321D01*
X135650169Y-92958298D01*
X135657824Y-92947976D01*
X135666454Y-92938454D01*
X135675976Y-92929824D01*
X135686298Y-92922169D01*
X135697321Y-92915562D01*
X135708938Y-92910068D01*
X135721037Y-92905739D01*
X135733503Y-92902616D01*
X135746215Y-92900731D01*
X135759050Y-92900100D01*
X136020950Y-92900100D01*
X136033785Y-92900731D01*
G37*
G36*
X137303785Y-92900731D02*
G01*
X137316497Y-92902616D01*
X137328963Y-92905739D01*
X137341062Y-92910068D01*
X137352679Y-92915562D01*
X137363702Y-92922169D01*
X137374024Y-92929824D01*
X137383546Y-92938454D01*
X137392176Y-92947976D01*
X137399831Y-92958298D01*
X137406438Y-92969321D01*
X137411932Y-92980938D01*
X137416261Y-92993037D01*
X137419384Y-93005503D01*
X137421269Y-93018215D01*
X137421900Y-93031050D01*
X137421900Y-95192950D01*
X137421269Y-95205785D01*
X137419384Y-95218497D01*
X137416261Y-95230963D01*
X137411932Y-95243062D01*
X137406438Y-95254679D01*
X137399831Y-95265702D01*
X137392176Y-95276024D01*
X137383546Y-95285546D01*
X137374024Y-95294176D01*
X137363702Y-95301831D01*
X137352679Y-95308438D01*
X137341062Y-95313932D01*
X137328963Y-95318261D01*
X137316497Y-95321384D01*
X137303785Y-95323269D01*
X137290950Y-95323900D01*
X137029050Y-95323900D01*
X137016215Y-95323269D01*
X137003503Y-95321384D01*
X136991037Y-95318261D01*
X136978938Y-95313932D01*
X136967321Y-95308438D01*
X136956298Y-95301831D01*
X136945976Y-95294176D01*
X136936454Y-95285546D01*
X136927824Y-95276024D01*
X136920169Y-95265702D01*
X136913562Y-95254679D01*
X136908068Y-95243062D01*
X136903739Y-95230963D01*
X136900616Y-95218497D01*
X136898731Y-95205785D01*
X136898100Y-95192950D01*
X136898100Y-93031050D01*
X136898731Y-93018215D01*
X136900616Y-93005503D01*
X136903739Y-92993037D01*
X136908068Y-92980938D01*
X136913562Y-92969321D01*
X136920169Y-92958298D01*
X136927824Y-92947976D01*
X136936454Y-92938454D01*
X136945976Y-92929824D01*
X136956298Y-92922169D01*
X136967321Y-92915562D01*
X136978938Y-92910068D01*
X136991037Y-92905739D01*
X137003503Y-92902616D01*
X137016215Y-92900731D01*
X137029050Y-92900100D01*
X137290950Y-92900100D01*
X137303785Y-92900731D01*
G37*
G36*
X137303785Y-84000731D02*
G01*
X137316497Y-84002616D01*
X137328963Y-84005739D01*
X137341062Y-84010068D01*
X137352679Y-84015562D01*
X137363702Y-84022169D01*
X137374024Y-84029824D01*
X137383546Y-84038454D01*
X137392176Y-84047976D01*
X137399831Y-84058298D01*
X137406438Y-84069321D01*
X137411932Y-84080938D01*
X137416261Y-84093037D01*
X137419384Y-84105503D01*
X137421269Y-84118215D01*
X137421900Y-84131050D01*
X137421900Y-86292950D01*
X137421269Y-86305785D01*
X137419384Y-86318497D01*
X137416261Y-86330963D01*
X137411932Y-86343062D01*
X137406438Y-86354679D01*
X137399831Y-86365702D01*
X137392176Y-86376024D01*
X137383546Y-86385546D01*
X137374024Y-86394176D01*
X137363702Y-86401831D01*
X137352679Y-86408438D01*
X137341062Y-86413932D01*
X137328963Y-86418261D01*
X137316497Y-86421384D01*
X137303785Y-86423269D01*
X137290950Y-86423900D01*
X137029050Y-86423900D01*
X137016215Y-86423269D01*
X137003503Y-86421384D01*
X136991037Y-86418261D01*
X136978938Y-86413932D01*
X136967321Y-86408438D01*
X136956298Y-86401831D01*
X136945976Y-86394176D01*
X136936454Y-86385546D01*
X136927824Y-86376024D01*
X136920169Y-86365702D01*
X136913562Y-86354679D01*
X136908068Y-86343062D01*
X136903739Y-86330963D01*
X136900616Y-86318497D01*
X136898731Y-86305785D01*
X136898100Y-86292950D01*
X136898100Y-84131050D01*
X136898731Y-84118215D01*
X136900616Y-84105503D01*
X136903739Y-84093037D01*
X136908068Y-84080938D01*
X136913562Y-84069321D01*
X136920169Y-84058298D01*
X136927824Y-84047976D01*
X136936454Y-84038454D01*
X136945976Y-84029824D01*
X136956298Y-84022169D01*
X136967321Y-84015562D01*
X136978938Y-84010068D01*
X136991037Y-84005739D01*
X137003503Y-84002616D01*
X137016215Y-84000731D01*
X137029050Y-84000100D01*
X137290950Y-84000100D01*
X137303785Y-84000731D01*
G37*
G36*
X136033785Y-84000731D02*
G01*
X136046497Y-84002616D01*
X136058963Y-84005739D01*
X136071062Y-84010068D01*
X136082679Y-84015562D01*
X136093702Y-84022169D01*
X136104024Y-84029824D01*
X136113546Y-84038454D01*
X136122176Y-84047976D01*
X136129831Y-84058298D01*
X136136438Y-84069321D01*
X136141932Y-84080938D01*
X136146261Y-84093037D01*
X136149384Y-84105503D01*
X136151269Y-84118215D01*
X136151900Y-84131050D01*
X136151900Y-86292950D01*
X136151269Y-86305785D01*
X136149384Y-86318497D01*
X136146261Y-86330963D01*
X136141932Y-86343062D01*
X136136438Y-86354679D01*
X136129831Y-86365702D01*
X136122176Y-86376024D01*
X136113546Y-86385546D01*
X136104024Y-86394176D01*
X136093702Y-86401831D01*
X136082679Y-86408438D01*
X136071062Y-86413932D01*
X136058963Y-86418261D01*
X136046497Y-86421384D01*
X136033785Y-86423269D01*
X136020950Y-86423900D01*
X135759050Y-86423900D01*
X135746215Y-86423269D01*
X135733503Y-86421384D01*
X135721037Y-86418261D01*
X135708938Y-86413932D01*
X135697321Y-86408438D01*
X135686298Y-86401831D01*
X135675976Y-86394176D01*
X135666454Y-86385546D01*
X135657824Y-86376024D01*
X135650169Y-86365702D01*
X135643562Y-86354679D01*
X135638068Y-86343062D01*
X135633739Y-86330963D01*
X135630616Y-86318497D01*
X135628731Y-86305785D01*
X135628100Y-86292950D01*
X135628100Y-84131050D01*
X135628731Y-84118215D01*
X135630616Y-84105503D01*
X135633739Y-84093037D01*
X135638068Y-84080938D01*
X135643562Y-84069321D01*
X135650169Y-84058298D01*
X135657824Y-84047976D01*
X135666454Y-84038454D01*
X135675976Y-84029824D01*
X135686298Y-84022169D01*
X135697321Y-84015562D01*
X135708938Y-84010068D01*
X135721037Y-84005739D01*
X135733503Y-84002616D01*
X135746215Y-84000731D01*
X135759050Y-84000100D01*
X136020950Y-84000100D01*
X136033785Y-84000731D01*
G37*
G36*
X134763785Y-84000731D02*
G01*
X134776497Y-84002616D01*
X134788963Y-84005739D01*
X134801062Y-84010068D01*
X134812679Y-84015562D01*
X134823702Y-84022169D01*
X134834024Y-84029824D01*
X134843546Y-84038454D01*
X134852176Y-84047976D01*
X134859831Y-84058298D01*
X134866438Y-84069321D01*
X134871932Y-84080938D01*
X134876261Y-84093037D01*
X134879384Y-84105503D01*
X134881269Y-84118215D01*
X134881900Y-84131050D01*
X134881900Y-86292950D01*
X134881269Y-86305785D01*
X134879384Y-86318497D01*
X134876261Y-86330963D01*
X134871932Y-86343062D01*
X134866438Y-86354679D01*
X134859831Y-86365702D01*
X134852176Y-86376024D01*
X134843546Y-86385546D01*
X134834024Y-86394176D01*
X134823702Y-86401831D01*
X134812679Y-86408438D01*
X134801062Y-86413932D01*
X134788963Y-86418261D01*
X134776497Y-86421384D01*
X134763785Y-86423269D01*
X134750950Y-86423900D01*
X134489050Y-86423900D01*
X134476215Y-86423269D01*
X134463503Y-86421384D01*
X134451037Y-86418261D01*
X134438938Y-86413932D01*
X134427321Y-86408438D01*
X134416298Y-86401831D01*
X134405976Y-86394176D01*
X134396454Y-86385546D01*
X134387824Y-86376024D01*
X134380169Y-86365702D01*
X134373562Y-86354679D01*
X134368068Y-86343062D01*
X134363739Y-86330963D01*
X134360616Y-86318497D01*
X134358731Y-86305785D01*
X134358100Y-86292950D01*
X134358100Y-84131050D01*
X134358731Y-84118215D01*
X134360616Y-84105503D01*
X134363739Y-84093037D01*
X134368068Y-84080938D01*
X134373562Y-84069321D01*
X134380169Y-84058298D01*
X134387824Y-84047976D01*
X134396454Y-84038454D01*
X134405976Y-84029824D01*
X134416298Y-84022169D01*
X134427321Y-84015562D01*
X134438938Y-84010068D01*
X134451037Y-84005739D01*
X134463503Y-84002616D01*
X134476215Y-84000731D01*
X134489050Y-84000100D01*
X134750950Y-84000100D01*
X134763785Y-84000731D01*
G37*
G36*
X133493785Y-84000731D02*
G01*
X133506497Y-84002616D01*
X133518963Y-84005739D01*
X133531062Y-84010068D01*
X133542679Y-84015562D01*
X133553702Y-84022169D01*
X133564024Y-84029824D01*
X133573546Y-84038454D01*
X133582176Y-84047976D01*
X133589831Y-84058298D01*
X133596438Y-84069321D01*
X133601932Y-84080938D01*
X133606261Y-84093037D01*
X133609384Y-84105503D01*
X133611269Y-84118215D01*
X133611900Y-84131050D01*
X133611900Y-86292950D01*
X133611269Y-86305785D01*
X133609384Y-86318497D01*
X133606261Y-86330963D01*
X133601932Y-86343062D01*
X133596438Y-86354679D01*
X133589831Y-86365702D01*
X133582176Y-86376024D01*
X133573546Y-86385546D01*
X133564024Y-86394176D01*
X133553702Y-86401831D01*
X133542679Y-86408438D01*
X133531062Y-86413932D01*
X133518963Y-86418261D01*
X133506497Y-86421384D01*
X133493785Y-86423269D01*
X133480950Y-86423900D01*
X133219050Y-86423900D01*
X133206215Y-86423269D01*
X133193503Y-86421384D01*
X133181037Y-86418261D01*
X133168938Y-86413932D01*
X133157321Y-86408438D01*
X133146298Y-86401831D01*
X133135976Y-86394176D01*
X133126454Y-86385546D01*
X133117824Y-86376024D01*
X133110169Y-86365702D01*
X133103562Y-86354679D01*
X133098068Y-86343062D01*
X133093739Y-86330963D01*
X133090616Y-86318497D01*
X133088731Y-86305785D01*
X133088100Y-86292950D01*
X133088100Y-84131050D01*
X133088731Y-84118215D01*
X133090616Y-84105503D01*
X133093739Y-84093037D01*
X133098068Y-84080938D01*
X133103562Y-84069321D01*
X133110169Y-84058298D01*
X133117824Y-84047976D01*
X133126454Y-84038454D01*
X133135976Y-84029824D01*
X133146298Y-84022169D01*
X133157321Y-84015562D01*
X133168938Y-84010068D01*
X133181037Y-84005739D01*
X133193503Y-84002616D01*
X133206215Y-84000731D01*
X133219050Y-84000100D01*
X133480950Y-84000100D01*
X133493785Y-84000731D01*
G37*
G36*
X132223785Y-84000731D02*
G01*
X132236497Y-84002616D01*
X132248963Y-84005739D01*
X132261062Y-84010068D01*
X132272679Y-84015562D01*
X132283702Y-84022169D01*
X132294024Y-84029824D01*
X132303546Y-84038454D01*
X132312176Y-84047976D01*
X132319831Y-84058298D01*
X132326438Y-84069321D01*
X132331932Y-84080938D01*
X132336261Y-84093037D01*
X132339384Y-84105503D01*
X132341269Y-84118215D01*
X132341900Y-84131050D01*
X132341900Y-86292950D01*
X132341269Y-86305785D01*
X132339384Y-86318497D01*
X132336261Y-86330963D01*
X132331932Y-86343062D01*
X132326438Y-86354679D01*
X132319831Y-86365702D01*
X132312176Y-86376024D01*
X132303546Y-86385546D01*
X132294024Y-86394176D01*
X132283702Y-86401831D01*
X132272679Y-86408438D01*
X132261062Y-86413932D01*
X132248963Y-86418261D01*
X132236497Y-86421384D01*
X132223785Y-86423269D01*
X132210950Y-86423900D01*
X131949050Y-86423900D01*
X131936215Y-86423269D01*
X131923503Y-86421384D01*
X131911037Y-86418261D01*
X131898938Y-86413932D01*
X131887321Y-86408438D01*
X131876298Y-86401831D01*
X131865976Y-86394176D01*
X131856454Y-86385546D01*
X131847824Y-86376024D01*
X131840169Y-86365702D01*
X131833562Y-86354679D01*
X131828068Y-86343062D01*
X131823739Y-86330963D01*
X131820616Y-86318497D01*
X131818731Y-86305785D01*
X131818100Y-86292950D01*
X131818100Y-84131050D01*
X131818731Y-84118215D01*
X131820616Y-84105503D01*
X131823739Y-84093037D01*
X131828068Y-84080938D01*
X131833562Y-84069321D01*
X131840169Y-84058298D01*
X131847824Y-84047976D01*
X131856454Y-84038454D01*
X131865976Y-84029824D01*
X131876298Y-84022169D01*
X131887321Y-84015562D01*
X131898938Y-84010068D01*
X131911037Y-84005739D01*
X131923503Y-84002616D01*
X131936215Y-84000731D01*
X131949050Y-84000100D01*
X132210950Y-84000100D01*
X132223785Y-84000731D01*
G37*
G36*
X130953785Y-84000731D02*
G01*
X130966497Y-84002616D01*
X130978963Y-84005739D01*
X130991062Y-84010068D01*
X131002679Y-84015562D01*
X131013702Y-84022169D01*
X131024024Y-84029824D01*
X131033546Y-84038454D01*
X131042176Y-84047976D01*
X131049831Y-84058298D01*
X131056438Y-84069321D01*
X131061932Y-84080938D01*
X131066261Y-84093037D01*
X131069384Y-84105503D01*
X131071269Y-84118215D01*
X131071900Y-84131050D01*
X131071900Y-86292950D01*
X131071269Y-86305785D01*
X131069384Y-86318497D01*
X131066261Y-86330963D01*
X131061932Y-86343062D01*
X131056438Y-86354679D01*
X131049831Y-86365702D01*
X131042176Y-86376024D01*
X131033546Y-86385546D01*
X131024024Y-86394176D01*
X131013702Y-86401831D01*
X131002679Y-86408438D01*
X130991062Y-86413932D01*
X130978963Y-86418261D01*
X130966497Y-86421384D01*
X130953785Y-86423269D01*
X130940950Y-86423900D01*
X130679050Y-86423900D01*
X130666215Y-86423269D01*
X130653503Y-86421384D01*
X130641037Y-86418261D01*
X130628938Y-86413932D01*
X130617321Y-86408438D01*
X130606298Y-86401831D01*
X130595976Y-86394176D01*
X130586454Y-86385546D01*
X130577824Y-86376024D01*
X130570169Y-86365702D01*
X130563562Y-86354679D01*
X130558068Y-86343062D01*
X130553739Y-86330963D01*
X130550616Y-86318497D01*
X130548731Y-86305785D01*
X130548100Y-86292950D01*
X130548100Y-84131050D01*
X130548731Y-84118215D01*
X130550616Y-84105503D01*
X130553739Y-84093037D01*
X130558068Y-84080938D01*
X130563562Y-84069321D01*
X130570169Y-84058298D01*
X130577824Y-84047976D01*
X130586454Y-84038454D01*
X130595976Y-84029824D01*
X130606298Y-84022169D01*
X130617321Y-84015562D01*
X130628938Y-84010068D01*
X130641037Y-84005739D01*
X130653503Y-84002616D01*
X130666215Y-84000731D01*
X130679050Y-84000100D01*
X130940950Y-84000100D01*
X130953785Y-84000731D01*
G37*
G36*
X128413785Y-84000731D02*
G01*
X128426497Y-84002616D01*
X128438963Y-84005739D01*
X128451062Y-84010068D01*
X128462679Y-84015562D01*
X128473702Y-84022169D01*
X128484024Y-84029824D01*
X128493546Y-84038454D01*
X128502176Y-84047976D01*
X128509831Y-84058298D01*
X128516438Y-84069321D01*
X128521932Y-84080938D01*
X128526261Y-84093037D01*
X128529384Y-84105503D01*
X128531269Y-84118215D01*
X128531900Y-84131050D01*
X128531900Y-86292950D01*
X128531269Y-86305785D01*
X128529384Y-86318497D01*
X128526261Y-86330963D01*
X128521932Y-86343062D01*
X128516438Y-86354679D01*
X128509831Y-86365702D01*
X128502176Y-86376024D01*
X128493546Y-86385546D01*
X128484024Y-86394176D01*
X128473702Y-86401831D01*
X128462679Y-86408438D01*
X128451062Y-86413932D01*
X128438963Y-86418261D01*
X128426497Y-86421384D01*
X128413785Y-86423269D01*
X128400950Y-86423900D01*
X128139050Y-86423900D01*
X128126215Y-86423269D01*
X128113503Y-86421384D01*
X128101037Y-86418261D01*
X128088938Y-86413932D01*
X128077321Y-86408438D01*
X128066298Y-86401831D01*
X128055976Y-86394176D01*
X128046454Y-86385546D01*
X128037824Y-86376024D01*
X128030169Y-86365702D01*
X128023562Y-86354679D01*
X128018068Y-86343062D01*
X128013739Y-86330963D01*
X128010616Y-86318497D01*
X128008731Y-86305785D01*
X128008100Y-86292950D01*
X128008100Y-84131050D01*
X128008731Y-84118215D01*
X128010616Y-84105503D01*
X128013739Y-84093037D01*
X128018068Y-84080938D01*
X128023562Y-84069321D01*
X128030169Y-84058298D01*
X128037824Y-84047976D01*
X128046454Y-84038454D01*
X128055976Y-84029824D01*
X128066298Y-84022169D01*
X128077321Y-84015562D01*
X128088938Y-84010068D01*
X128101037Y-84005739D01*
X128113503Y-84002616D01*
X128126215Y-84000731D01*
X128139050Y-84000100D01*
X128400950Y-84000100D01*
X128413785Y-84000731D01*
G37*
G36*
X127143785Y-84000731D02*
G01*
X127156497Y-84002616D01*
X127168963Y-84005739D01*
X127181062Y-84010068D01*
X127192679Y-84015562D01*
X127203702Y-84022169D01*
X127214024Y-84029824D01*
X127223546Y-84038454D01*
X127232176Y-84047976D01*
X127239831Y-84058298D01*
X127246438Y-84069321D01*
X127251932Y-84080938D01*
X127256261Y-84093037D01*
X127259384Y-84105503D01*
X127261269Y-84118215D01*
X127261900Y-84131050D01*
X127261900Y-86292950D01*
X127261269Y-86305785D01*
X127259384Y-86318497D01*
X127256261Y-86330963D01*
X127251932Y-86343062D01*
X127246438Y-86354679D01*
X127239831Y-86365702D01*
X127232176Y-86376024D01*
X127223546Y-86385546D01*
X127214024Y-86394176D01*
X127203702Y-86401831D01*
X127192679Y-86408438D01*
X127181062Y-86413932D01*
X127168963Y-86418261D01*
X127156497Y-86421384D01*
X127143785Y-86423269D01*
X127130950Y-86423900D01*
X126869050Y-86423900D01*
X126856215Y-86423269D01*
X126843503Y-86421384D01*
X126831037Y-86418261D01*
X126818938Y-86413932D01*
X126807321Y-86408438D01*
X126796298Y-86401831D01*
X126785976Y-86394176D01*
X126776454Y-86385546D01*
X126767824Y-86376024D01*
X126760169Y-86365702D01*
X126753562Y-86354679D01*
X126748068Y-86343062D01*
X126743739Y-86330963D01*
X126740616Y-86318497D01*
X126738731Y-86305785D01*
X126738100Y-86292950D01*
X126738100Y-84131050D01*
X126738731Y-84118215D01*
X126740616Y-84105503D01*
X126743739Y-84093037D01*
X126748068Y-84080938D01*
X126753562Y-84069321D01*
X126760169Y-84058298D01*
X126767824Y-84047976D01*
X126776454Y-84038454D01*
X126785976Y-84029824D01*
X126796298Y-84022169D01*
X126807321Y-84015562D01*
X126818938Y-84010068D01*
X126831037Y-84005739D01*
X126843503Y-84002616D01*
X126856215Y-84000731D01*
X126869050Y-84000100D01*
X127130950Y-84000100D01*
X127143785Y-84000731D01*
G37*
G36*
X125873785Y-84000731D02*
G01*
X125886497Y-84002616D01*
X125898963Y-84005739D01*
X125911062Y-84010068D01*
X125922679Y-84015562D01*
X125933702Y-84022169D01*
X125944024Y-84029824D01*
X125953546Y-84038454D01*
X125962176Y-84047976D01*
X125969831Y-84058298D01*
X125976438Y-84069321D01*
X125981932Y-84080938D01*
X125986261Y-84093037D01*
X125989384Y-84105503D01*
X125991269Y-84118215D01*
X125991900Y-84131050D01*
X125991900Y-86292950D01*
X125991269Y-86305785D01*
X125989384Y-86318497D01*
X125986261Y-86330963D01*
X125981932Y-86343062D01*
X125976438Y-86354679D01*
X125969831Y-86365702D01*
X125962176Y-86376024D01*
X125953546Y-86385546D01*
X125944024Y-86394176D01*
X125933702Y-86401831D01*
X125922679Y-86408438D01*
X125911062Y-86413932D01*
X125898963Y-86418261D01*
X125886497Y-86421384D01*
X125873785Y-86423269D01*
X125860950Y-86423900D01*
X125599050Y-86423900D01*
X125586215Y-86423269D01*
X125573503Y-86421384D01*
X125561037Y-86418261D01*
X125548938Y-86413932D01*
X125537321Y-86408438D01*
X125526298Y-86401831D01*
X125515976Y-86394176D01*
X125506454Y-86385546D01*
X125497824Y-86376024D01*
X125490169Y-86365702D01*
X125483562Y-86354679D01*
X125478068Y-86343062D01*
X125473739Y-86330963D01*
X125470616Y-86318497D01*
X125468731Y-86305785D01*
X125468100Y-86292950D01*
X125468100Y-84131050D01*
X125468731Y-84118215D01*
X125470616Y-84105503D01*
X125473739Y-84093037D01*
X125478068Y-84080938D01*
X125483562Y-84069321D01*
X125490169Y-84058298D01*
X125497824Y-84047976D01*
X125506454Y-84038454D01*
X125515976Y-84029824D01*
X125526298Y-84022169D01*
X125537321Y-84015562D01*
X125548938Y-84010068D01*
X125561037Y-84005739D01*
X125573503Y-84002616D01*
X125586215Y-84000731D01*
X125599050Y-84000100D01*
X125860950Y-84000100D01*
X125873785Y-84000731D01*
G37*
G36*
X124603785Y-84000731D02*
G01*
X124616497Y-84002616D01*
X124628963Y-84005739D01*
X124641062Y-84010068D01*
X124652679Y-84015562D01*
X124663702Y-84022169D01*
X124674024Y-84029824D01*
X124683546Y-84038454D01*
X124692176Y-84047976D01*
X124699831Y-84058298D01*
X124706438Y-84069321D01*
X124711932Y-84080938D01*
X124716261Y-84093037D01*
X124719384Y-84105503D01*
X124721269Y-84118215D01*
X124721900Y-84131050D01*
X124721900Y-86292950D01*
X124721269Y-86305785D01*
X124719384Y-86318497D01*
X124716261Y-86330963D01*
X124711932Y-86343062D01*
X124706438Y-86354679D01*
X124699831Y-86365702D01*
X124692176Y-86376024D01*
X124683546Y-86385546D01*
X124674024Y-86394176D01*
X124663702Y-86401831D01*
X124652679Y-86408438D01*
X124641062Y-86413932D01*
X124628963Y-86418261D01*
X124616497Y-86421384D01*
X124603785Y-86423269D01*
X124590950Y-86423900D01*
X124329050Y-86423900D01*
X124316215Y-86423269D01*
X124303503Y-86421384D01*
X124291037Y-86418261D01*
X124278938Y-86413932D01*
X124267321Y-86408438D01*
X124256298Y-86401831D01*
X124245976Y-86394176D01*
X124236454Y-86385546D01*
X124227824Y-86376024D01*
X124220169Y-86365702D01*
X124213562Y-86354679D01*
X124208068Y-86343062D01*
X124203739Y-86330963D01*
X124200616Y-86318497D01*
X124198731Y-86305785D01*
X124198100Y-86292950D01*
X124198100Y-84131050D01*
X124198731Y-84118215D01*
X124200616Y-84105503D01*
X124203739Y-84093037D01*
X124208068Y-84080938D01*
X124213562Y-84069321D01*
X124220169Y-84058298D01*
X124227824Y-84047976D01*
X124236454Y-84038454D01*
X124245976Y-84029824D01*
X124256298Y-84022169D01*
X124267321Y-84015562D01*
X124278938Y-84010068D01*
X124291037Y-84005739D01*
X124303503Y-84002616D01*
X124316215Y-84000731D01*
X124329050Y-84000100D01*
X124590950Y-84000100D01*
X124603785Y-84000731D01*
G37*
G36*
X123333785Y-84000731D02*
G01*
X123346497Y-84002616D01*
X123358963Y-84005739D01*
X123371062Y-84010068D01*
X123382679Y-84015562D01*
X123393702Y-84022169D01*
X123404024Y-84029824D01*
X123413546Y-84038454D01*
X123422176Y-84047976D01*
X123429831Y-84058298D01*
X123436438Y-84069321D01*
X123441932Y-84080938D01*
X123446261Y-84093037D01*
X123449384Y-84105503D01*
X123451269Y-84118215D01*
X123451900Y-84131050D01*
X123451900Y-86292950D01*
X123451269Y-86305785D01*
X123449384Y-86318497D01*
X123446261Y-86330963D01*
X123441932Y-86343062D01*
X123436438Y-86354679D01*
X123429831Y-86365702D01*
X123422176Y-86376024D01*
X123413546Y-86385546D01*
X123404024Y-86394176D01*
X123393702Y-86401831D01*
X123382679Y-86408438D01*
X123371062Y-86413932D01*
X123358963Y-86418261D01*
X123346497Y-86421384D01*
X123333785Y-86423269D01*
X123320950Y-86423900D01*
X123059050Y-86423900D01*
X123046215Y-86423269D01*
X123033503Y-86421384D01*
X123021037Y-86418261D01*
X123008938Y-86413932D01*
X122997321Y-86408438D01*
X122986298Y-86401831D01*
X122975976Y-86394176D01*
X122966454Y-86385546D01*
X122957824Y-86376024D01*
X122950169Y-86365702D01*
X122943562Y-86354679D01*
X122938068Y-86343062D01*
X122933739Y-86330963D01*
X122930616Y-86318497D01*
X122928731Y-86305785D01*
X122928100Y-86292950D01*
X122928100Y-84131050D01*
X122928731Y-84118215D01*
X122930616Y-84105503D01*
X122933739Y-84093037D01*
X122938068Y-84080938D01*
X122943562Y-84069321D01*
X122950169Y-84058298D01*
X122957824Y-84047976D01*
X122966454Y-84038454D01*
X122975976Y-84029824D01*
X122986298Y-84022169D01*
X122997321Y-84015562D01*
X123008938Y-84010068D01*
X123021037Y-84005739D01*
X123033503Y-84002616D01*
X123046215Y-84000731D01*
X123059050Y-84000100D01*
X123320950Y-84000100D01*
X123333785Y-84000731D01*
G37*
G36*
X122063785Y-84000731D02*
G01*
X122076497Y-84002616D01*
X122088963Y-84005739D01*
X122101062Y-84010068D01*
X122112679Y-84015562D01*
X122123702Y-84022169D01*
X122134024Y-84029824D01*
X122143546Y-84038454D01*
X122152176Y-84047976D01*
X122159831Y-84058298D01*
X122166438Y-84069321D01*
X122171932Y-84080938D01*
X122176261Y-84093037D01*
X122179384Y-84105503D01*
X122181269Y-84118215D01*
X122181900Y-84131050D01*
X122181900Y-86292950D01*
X122181269Y-86305785D01*
X122179384Y-86318497D01*
X122176261Y-86330963D01*
X122171932Y-86343062D01*
X122166438Y-86354679D01*
X122159831Y-86365702D01*
X122152176Y-86376024D01*
X122143546Y-86385546D01*
X122134024Y-86394176D01*
X122123702Y-86401831D01*
X122112679Y-86408438D01*
X122101062Y-86413932D01*
X122088963Y-86418261D01*
X122076497Y-86421384D01*
X122063785Y-86423269D01*
X122050950Y-86423900D01*
X121789050Y-86423900D01*
X121776215Y-86423269D01*
X121763503Y-86421384D01*
X121751037Y-86418261D01*
X121738938Y-86413932D01*
X121727321Y-86408438D01*
X121716298Y-86401831D01*
X121705976Y-86394176D01*
X121696454Y-86385546D01*
X121687824Y-86376024D01*
X121680169Y-86365702D01*
X121673562Y-86354679D01*
X121668068Y-86343062D01*
X121663739Y-86330963D01*
X121660616Y-86318497D01*
X121658731Y-86305785D01*
X121658100Y-86292950D01*
X121658100Y-84131050D01*
X121658731Y-84118215D01*
X121660616Y-84105503D01*
X121663739Y-84093037D01*
X121668068Y-84080938D01*
X121673562Y-84069321D01*
X121680169Y-84058298D01*
X121687824Y-84047976D01*
X121696454Y-84038454D01*
X121705976Y-84029824D01*
X121716298Y-84022169D01*
X121727321Y-84015562D01*
X121738938Y-84010068D01*
X121751037Y-84005739D01*
X121763503Y-84002616D01*
X121776215Y-84000731D01*
X121789050Y-84000100D01*
X122050950Y-84000100D01*
X122063785Y-84000731D01*
G37*
G36*
X87773785Y-92900731D02*
G01*
X87786497Y-92902616D01*
X87798963Y-92905739D01*
X87811062Y-92910068D01*
X87822679Y-92915562D01*
X87833702Y-92922169D01*
X87844024Y-92929824D01*
X87853546Y-92938454D01*
X87862176Y-92947976D01*
X87869831Y-92958298D01*
X87876438Y-92969321D01*
X87881932Y-92980938D01*
X87886261Y-92993037D01*
X87889384Y-93005503D01*
X87891269Y-93018215D01*
X87891900Y-93031050D01*
X87891900Y-95192950D01*
X87891269Y-95205785D01*
X87889384Y-95218497D01*
X87886261Y-95230963D01*
X87881932Y-95243062D01*
X87876438Y-95254679D01*
X87869831Y-95265702D01*
X87862176Y-95276024D01*
X87853546Y-95285546D01*
X87844024Y-95294176D01*
X87833702Y-95301831D01*
X87822679Y-95308438D01*
X87811062Y-95313932D01*
X87798963Y-95318261D01*
X87786497Y-95321384D01*
X87773785Y-95323269D01*
X87760950Y-95323900D01*
X87499050Y-95323900D01*
X87486215Y-95323269D01*
X87473503Y-95321384D01*
X87461037Y-95318261D01*
X87448938Y-95313932D01*
X87437321Y-95308438D01*
X87426298Y-95301831D01*
X87415976Y-95294176D01*
X87406454Y-95285546D01*
X87397824Y-95276024D01*
X87390169Y-95265702D01*
X87383562Y-95254679D01*
X87378068Y-95243062D01*
X87373739Y-95230963D01*
X87370616Y-95218497D01*
X87368731Y-95205785D01*
X87368100Y-95192950D01*
X87368100Y-93031050D01*
X87368731Y-93018215D01*
X87370616Y-93005503D01*
X87373739Y-92993037D01*
X87378068Y-92980938D01*
X87383562Y-92969321D01*
X87390169Y-92958298D01*
X87397824Y-92947976D01*
X87406454Y-92938454D01*
X87415976Y-92929824D01*
X87426298Y-92922169D01*
X87437321Y-92915562D01*
X87448938Y-92910068D01*
X87461037Y-92905739D01*
X87473503Y-92902616D01*
X87486215Y-92900731D01*
X87499050Y-92900100D01*
X87760950Y-92900100D01*
X87773785Y-92900731D01*
G37*
G36*
X89043785Y-92900731D02*
G01*
X89056497Y-92902616D01*
X89068963Y-92905739D01*
X89081062Y-92910068D01*
X89092679Y-92915562D01*
X89103702Y-92922169D01*
X89114024Y-92929824D01*
X89123546Y-92938454D01*
X89132176Y-92947976D01*
X89139831Y-92958298D01*
X89146438Y-92969321D01*
X89151932Y-92980938D01*
X89156261Y-92993037D01*
X89159384Y-93005503D01*
X89161269Y-93018215D01*
X89161900Y-93031050D01*
X89161900Y-95192950D01*
X89161269Y-95205785D01*
X89159384Y-95218497D01*
X89156261Y-95230963D01*
X89151932Y-95243062D01*
X89146438Y-95254679D01*
X89139831Y-95265702D01*
X89132176Y-95276024D01*
X89123546Y-95285546D01*
X89114024Y-95294176D01*
X89103702Y-95301831D01*
X89092679Y-95308438D01*
X89081062Y-95313932D01*
X89068963Y-95318261D01*
X89056497Y-95321384D01*
X89043785Y-95323269D01*
X89030950Y-95323900D01*
X88769050Y-95323900D01*
X88756215Y-95323269D01*
X88743503Y-95321384D01*
X88731037Y-95318261D01*
X88718938Y-95313932D01*
X88707321Y-95308438D01*
X88696298Y-95301831D01*
X88685976Y-95294176D01*
X88676454Y-95285546D01*
X88667824Y-95276024D01*
X88660169Y-95265702D01*
X88653562Y-95254679D01*
X88648068Y-95243062D01*
X88643739Y-95230963D01*
X88640616Y-95218497D01*
X88638731Y-95205785D01*
X88638100Y-95192950D01*
X88638100Y-93031050D01*
X88638731Y-93018215D01*
X88640616Y-93005503D01*
X88643739Y-92993037D01*
X88648068Y-92980938D01*
X88653562Y-92969321D01*
X88660169Y-92958298D01*
X88667824Y-92947976D01*
X88676454Y-92938454D01*
X88685976Y-92929824D01*
X88696298Y-92922169D01*
X88707321Y-92915562D01*
X88718938Y-92910068D01*
X88731037Y-92905739D01*
X88743503Y-92902616D01*
X88756215Y-92900731D01*
X88769050Y-92900100D01*
X89030950Y-92900100D01*
X89043785Y-92900731D01*
G37*
G36*
X90313785Y-92900731D02*
G01*
X90326497Y-92902616D01*
X90338963Y-92905739D01*
X90351062Y-92910068D01*
X90362679Y-92915562D01*
X90373702Y-92922169D01*
X90384024Y-92929824D01*
X90393546Y-92938454D01*
X90402176Y-92947976D01*
X90409831Y-92958298D01*
X90416438Y-92969321D01*
X90421932Y-92980938D01*
X90426261Y-92993037D01*
X90429384Y-93005503D01*
X90431269Y-93018215D01*
X90431900Y-93031050D01*
X90431900Y-95192950D01*
X90431269Y-95205785D01*
X90429384Y-95218497D01*
X90426261Y-95230963D01*
X90421932Y-95243062D01*
X90416438Y-95254679D01*
X90409831Y-95265702D01*
X90402176Y-95276024D01*
X90393546Y-95285546D01*
X90384024Y-95294176D01*
X90373702Y-95301831D01*
X90362679Y-95308438D01*
X90351062Y-95313932D01*
X90338963Y-95318261D01*
X90326497Y-95321384D01*
X90313785Y-95323269D01*
X90300950Y-95323900D01*
X90039050Y-95323900D01*
X90026215Y-95323269D01*
X90013503Y-95321384D01*
X90001037Y-95318261D01*
X89988938Y-95313932D01*
X89977321Y-95308438D01*
X89966298Y-95301831D01*
X89955976Y-95294176D01*
X89946454Y-95285546D01*
X89937824Y-95276024D01*
X89930169Y-95265702D01*
X89923562Y-95254679D01*
X89918068Y-95243062D01*
X89913739Y-95230963D01*
X89910616Y-95218497D01*
X89908731Y-95205785D01*
X89908100Y-95192950D01*
X89908100Y-93031050D01*
X89908731Y-93018215D01*
X89910616Y-93005503D01*
X89913739Y-92993037D01*
X89918068Y-92980938D01*
X89923562Y-92969321D01*
X89930169Y-92958298D01*
X89937824Y-92947976D01*
X89946454Y-92938454D01*
X89955976Y-92929824D01*
X89966298Y-92922169D01*
X89977321Y-92915562D01*
X89988938Y-92910068D01*
X90001037Y-92905739D01*
X90013503Y-92902616D01*
X90026215Y-92900731D01*
X90039050Y-92900100D01*
X90300950Y-92900100D01*
X90313785Y-92900731D01*
G37*
G36*
X91583785Y-92900731D02*
G01*
X91596497Y-92902616D01*
X91608963Y-92905739D01*
X91621062Y-92910068D01*
X91632679Y-92915562D01*
X91643702Y-92922169D01*
X91654024Y-92929824D01*
X91663546Y-92938454D01*
X91672176Y-92947976D01*
X91679831Y-92958298D01*
X91686438Y-92969321D01*
X91691932Y-92980938D01*
X91696261Y-92993037D01*
X91699384Y-93005503D01*
X91701269Y-93018215D01*
X91701900Y-93031050D01*
X91701900Y-95192950D01*
X91701269Y-95205785D01*
X91699384Y-95218497D01*
X91696261Y-95230963D01*
X91691932Y-95243062D01*
X91686438Y-95254679D01*
X91679831Y-95265702D01*
X91672176Y-95276024D01*
X91663546Y-95285546D01*
X91654024Y-95294176D01*
X91643702Y-95301831D01*
X91632679Y-95308438D01*
X91621062Y-95313932D01*
X91608963Y-95318261D01*
X91596497Y-95321384D01*
X91583785Y-95323269D01*
X91570950Y-95323900D01*
X91309050Y-95323900D01*
X91296215Y-95323269D01*
X91283503Y-95321384D01*
X91271037Y-95318261D01*
X91258938Y-95313932D01*
X91247321Y-95308438D01*
X91236298Y-95301831D01*
X91225976Y-95294176D01*
X91216454Y-95285546D01*
X91207824Y-95276024D01*
X91200169Y-95265702D01*
X91193562Y-95254679D01*
X91188068Y-95243062D01*
X91183739Y-95230963D01*
X91180616Y-95218497D01*
X91178731Y-95205785D01*
X91178100Y-95192950D01*
X91178100Y-93031050D01*
X91178731Y-93018215D01*
X91180616Y-93005503D01*
X91183739Y-92993037D01*
X91188068Y-92980938D01*
X91193562Y-92969321D01*
X91200169Y-92958298D01*
X91207824Y-92947976D01*
X91216454Y-92938454D01*
X91225976Y-92929824D01*
X91236298Y-92922169D01*
X91247321Y-92915562D01*
X91258938Y-92910068D01*
X91271037Y-92905739D01*
X91283503Y-92902616D01*
X91296215Y-92900731D01*
X91309050Y-92900100D01*
X91570950Y-92900100D01*
X91583785Y-92900731D01*
G37*
G36*
X92853785Y-92900731D02*
G01*
X92866497Y-92902616D01*
X92878963Y-92905739D01*
X92891062Y-92910068D01*
X92902679Y-92915562D01*
X92913702Y-92922169D01*
X92924024Y-92929824D01*
X92933546Y-92938454D01*
X92942176Y-92947976D01*
X92949831Y-92958298D01*
X92956438Y-92969321D01*
X92961932Y-92980938D01*
X92966261Y-92993037D01*
X92969384Y-93005503D01*
X92971269Y-93018215D01*
X92971900Y-93031050D01*
X92971900Y-95192950D01*
X92971269Y-95205785D01*
X92969384Y-95218497D01*
X92966261Y-95230963D01*
X92961932Y-95243062D01*
X92956438Y-95254679D01*
X92949831Y-95265702D01*
X92942176Y-95276024D01*
X92933546Y-95285546D01*
X92924024Y-95294176D01*
X92913702Y-95301831D01*
X92902679Y-95308438D01*
X92891062Y-95313932D01*
X92878963Y-95318261D01*
X92866497Y-95321384D01*
X92853785Y-95323269D01*
X92840950Y-95323900D01*
X92579050Y-95323900D01*
X92566215Y-95323269D01*
X92553503Y-95321384D01*
X92541037Y-95318261D01*
X92528938Y-95313932D01*
X92517321Y-95308438D01*
X92506298Y-95301831D01*
X92495976Y-95294176D01*
X92486454Y-95285546D01*
X92477824Y-95276024D01*
X92470169Y-95265702D01*
X92463562Y-95254679D01*
X92458068Y-95243062D01*
X92453739Y-95230963D01*
X92450616Y-95218497D01*
X92448731Y-95205785D01*
X92448100Y-95192950D01*
X92448100Y-93031050D01*
X92448731Y-93018215D01*
X92450616Y-93005503D01*
X92453739Y-92993037D01*
X92458068Y-92980938D01*
X92463562Y-92969321D01*
X92470169Y-92958298D01*
X92477824Y-92947976D01*
X92486454Y-92938454D01*
X92495976Y-92929824D01*
X92506298Y-92922169D01*
X92517321Y-92915562D01*
X92528938Y-92910068D01*
X92541037Y-92905739D01*
X92553503Y-92902616D01*
X92566215Y-92900731D01*
X92579050Y-92900100D01*
X92840950Y-92900100D01*
X92853785Y-92900731D01*
G37*
G36*
X94123785Y-92900731D02*
G01*
X94136497Y-92902616D01*
X94148963Y-92905739D01*
X94161062Y-92910068D01*
X94172679Y-92915562D01*
X94183702Y-92922169D01*
X94194024Y-92929824D01*
X94203546Y-92938454D01*
X94212176Y-92947976D01*
X94219831Y-92958298D01*
X94226438Y-92969321D01*
X94231932Y-92980938D01*
X94236261Y-92993037D01*
X94239384Y-93005503D01*
X94241269Y-93018215D01*
X94241900Y-93031050D01*
X94241900Y-95192950D01*
X94241269Y-95205785D01*
X94239384Y-95218497D01*
X94236261Y-95230963D01*
X94231932Y-95243062D01*
X94226438Y-95254679D01*
X94219831Y-95265702D01*
X94212176Y-95276024D01*
X94203546Y-95285546D01*
X94194024Y-95294176D01*
X94183702Y-95301831D01*
X94172679Y-95308438D01*
X94161062Y-95313932D01*
X94148963Y-95318261D01*
X94136497Y-95321384D01*
X94123785Y-95323269D01*
X94110950Y-95323900D01*
X93849050Y-95323900D01*
X93836215Y-95323269D01*
X93823503Y-95321384D01*
X93811037Y-95318261D01*
X93798938Y-95313932D01*
X93787321Y-95308438D01*
X93776298Y-95301831D01*
X93765976Y-95294176D01*
X93756454Y-95285546D01*
X93747824Y-95276024D01*
X93740169Y-95265702D01*
X93733562Y-95254679D01*
X93728068Y-95243062D01*
X93723739Y-95230963D01*
X93720616Y-95218497D01*
X93718731Y-95205785D01*
X93718100Y-95192950D01*
X93718100Y-93031050D01*
X93718731Y-93018215D01*
X93720616Y-93005503D01*
X93723739Y-92993037D01*
X93728068Y-92980938D01*
X93733562Y-92969321D01*
X93740169Y-92958298D01*
X93747824Y-92947976D01*
X93756454Y-92938454D01*
X93765976Y-92929824D01*
X93776298Y-92922169D01*
X93787321Y-92915562D01*
X93798938Y-92910068D01*
X93811037Y-92905739D01*
X93823503Y-92902616D01*
X93836215Y-92900731D01*
X93849050Y-92900100D01*
X94110950Y-92900100D01*
X94123785Y-92900731D01*
G37*
G36*
X96663785Y-92900731D02*
G01*
X96676497Y-92902616D01*
X96688963Y-92905739D01*
X96701062Y-92910068D01*
X96712679Y-92915562D01*
X96723702Y-92922169D01*
X96734024Y-92929824D01*
X96743546Y-92938454D01*
X96752176Y-92947976D01*
X96759831Y-92958298D01*
X96766438Y-92969321D01*
X96771932Y-92980938D01*
X96776261Y-92993037D01*
X96779384Y-93005503D01*
X96781269Y-93018215D01*
X96781900Y-93031050D01*
X96781900Y-95192950D01*
X96781269Y-95205785D01*
X96779384Y-95218497D01*
X96776261Y-95230963D01*
X96771932Y-95243062D01*
X96766438Y-95254679D01*
X96759831Y-95265702D01*
X96752176Y-95276024D01*
X96743546Y-95285546D01*
X96734024Y-95294176D01*
X96723702Y-95301831D01*
X96712679Y-95308438D01*
X96701062Y-95313932D01*
X96688963Y-95318261D01*
X96676497Y-95321384D01*
X96663785Y-95323269D01*
X96650950Y-95323900D01*
X96389050Y-95323900D01*
X96376215Y-95323269D01*
X96363503Y-95321384D01*
X96351037Y-95318261D01*
X96338938Y-95313932D01*
X96327321Y-95308438D01*
X96316298Y-95301831D01*
X96305976Y-95294176D01*
X96296454Y-95285546D01*
X96287824Y-95276024D01*
X96280169Y-95265702D01*
X96273562Y-95254679D01*
X96268068Y-95243062D01*
X96263739Y-95230963D01*
X96260616Y-95218497D01*
X96258731Y-95205785D01*
X96258100Y-95192950D01*
X96258100Y-93031050D01*
X96258731Y-93018215D01*
X96260616Y-93005503D01*
X96263739Y-92993037D01*
X96268068Y-92980938D01*
X96273562Y-92969321D01*
X96280169Y-92958298D01*
X96287824Y-92947976D01*
X96296454Y-92938454D01*
X96305976Y-92929824D01*
X96316298Y-92922169D01*
X96327321Y-92915562D01*
X96338938Y-92910068D01*
X96351037Y-92905739D01*
X96363503Y-92902616D01*
X96376215Y-92900731D01*
X96389050Y-92900100D01*
X96650950Y-92900100D01*
X96663785Y-92900731D01*
G37*
G36*
X97933785Y-92900731D02*
G01*
X97946497Y-92902616D01*
X97958963Y-92905739D01*
X97971062Y-92910068D01*
X97982679Y-92915562D01*
X97993702Y-92922169D01*
X98004024Y-92929824D01*
X98013546Y-92938454D01*
X98022176Y-92947976D01*
X98029831Y-92958298D01*
X98036438Y-92969321D01*
X98041932Y-92980938D01*
X98046261Y-92993037D01*
X98049384Y-93005503D01*
X98051269Y-93018215D01*
X98051900Y-93031050D01*
X98051900Y-95192950D01*
X98051269Y-95205785D01*
X98049384Y-95218497D01*
X98046261Y-95230963D01*
X98041932Y-95243062D01*
X98036438Y-95254679D01*
X98029831Y-95265702D01*
X98022176Y-95276024D01*
X98013546Y-95285546D01*
X98004024Y-95294176D01*
X97993702Y-95301831D01*
X97982679Y-95308438D01*
X97971062Y-95313932D01*
X97958963Y-95318261D01*
X97946497Y-95321384D01*
X97933785Y-95323269D01*
X97920950Y-95323900D01*
X97659050Y-95323900D01*
X97646215Y-95323269D01*
X97633503Y-95321384D01*
X97621037Y-95318261D01*
X97608938Y-95313932D01*
X97597321Y-95308438D01*
X97586298Y-95301831D01*
X97575976Y-95294176D01*
X97566454Y-95285546D01*
X97557824Y-95276024D01*
X97550169Y-95265702D01*
X97543562Y-95254679D01*
X97538068Y-95243062D01*
X97533739Y-95230963D01*
X97530616Y-95218497D01*
X97528731Y-95205785D01*
X97528100Y-95192950D01*
X97528100Y-93031050D01*
X97528731Y-93018215D01*
X97530616Y-93005503D01*
X97533739Y-92993037D01*
X97538068Y-92980938D01*
X97543562Y-92969321D01*
X97550169Y-92958298D01*
X97557824Y-92947976D01*
X97566454Y-92938454D01*
X97575976Y-92929824D01*
X97586298Y-92922169D01*
X97597321Y-92915562D01*
X97608938Y-92910068D01*
X97621037Y-92905739D01*
X97633503Y-92902616D01*
X97646215Y-92900731D01*
X97659050Y-92900100D01*
X97920950Y-92900100D01*
X97933785Y-92900731D01*
G37*
G36*
X99203785Y-92900731D02*
G01*
X99216497Y-92902616D01*
X99228963Y-92905739D01*
X99241062Y-92910068D01*
X99252679Y-92915562D01*
X99263702Y-92922169D01*
X99274024Y-92929824D01*
X99283546Y-92938454D01*
X99292176Y-92947976D01*
X99299831Y-92958298D01*
X99306438Y-92969321D01*
X99311932Y-92980938D01*
X99316261Y-92993037D01*
X99319384Y-93005503D01*
X99321269Y-93018215D01*
X99321900Y-93031050D01*
X99321900Y-95192950D01*
X99321269Y-95205785D01*
X99319384Y-95218497D01*
X99316261Y-95230963D01*
X99311932Y-95243062D01*
X99306438Y-95254679D01*
X99299831Y-95265702D01*
X99292176Y-95276024D01*
X99283546Y-95285546D01*
X99274024Y-95294176D01*
X99263702Y-95301831D01*
X99252679Y-95308438D01*
X99241062Y-95313932D01*
X99228963Y-95318261D01*
X99216497Y-95321384D01*
X99203785Y-95323269D01*
X99190950Y-95323900D01*
X98929050Y-95323900D01*
X98916215Y-95323269D01*
X98903503Y-95321384D01*
X98891037Y-95318261D01*
X98878938Y-95313932D01*
X98867321Y-95308438D01*
X98856298Y-95301831D01*
X98845976Y-95294176D01*
X98836454Y-95285546D01*
X98827824Y-95276024D01*
X98820169Y-95265702D01*
X98813562Y-95254679D01*
X98808068Y-95243062D01*
X98803739Y-95230963D01*
X98800616Y-95218497D01*
X98798731Y-95205785D01*
X98798100Y-95192950D01*
X98798100Y-93031050D01*
X98798731Y-93018215D01*
X98800616Y-93005503D01*
X98803739Y-92993037D01*
X98808068Y-92980938D01*
X98813562Y-92969321D01*
X98820169Y-92958298D01*
X98827824Y-92947976D01*
X98836454Y-92938454D01*
X98845976Y-92929824D01*
X98856298Y-92922169D01*
X98867321Y-92915562D01*
X98878938Y-92910068D01*
X98891037Y-92905739D01*
X98903503Y-92902616D01*
X98916215Y-92900731D01*
X98929050Y-92900100D01*
X99190950Y-92900100D01*
X99203785Y-92900731D01*
G37*
G36*
X100473785Y-92900731D02*
G01*
X100486497Y-92902616D01*
X100498963Y-92905739D01*
X100511062Y-92910068D01*
X100522679Y-92915562D01*
X100533702Y-92922169D01*
X100544024Y-92929824D01*
X100553546Y-92938454D01*
X100562176Y-92947976D01*
X100569831Y-92958298D01*
X100576438Y-92969321D01*
X100581932Y-92980938D01*
X100586261Y-92993037D01*
X100589384Y-93005503D01*
X100591269Y-93018215D01*
X100591900Y-93031050D01*
X100591900Y-95192950D01*
X100591269Y-95205785D01*
X100589384Y-95218497D01*
X100586261Y-95230963D01*
X100581932Y-95243062D01*
X100576438Y-95254679D01*
X100569831Y-95265702D01*
X100562176Y-95276024D01*
X100553546Y-95285546D01*
X100544024Y-95294176D01*
X100533702Y-95301831D01*
X100522679Y-95308438D01*
X100511062Y-95313932D01*
X100498963Y-95318261D01*
X100486497Y-95321384D01*
X100473785Y-95323269D01*
X100460950Y-95323900D01*
X100199050Y-95323900D01*
X100186215Y-95323269D01*
X100173503Y-95321384D01*
X100161037Y-95318261D01*
X100148938Y-95313932D01*
X100137321Y-95308438D01*
X100126298Y-95301831D01*
X100115976Y-95294176D01*
X100106454Y-95285546D01*
X100097824Y-95276024D01*
X100090169Y-95265702D01*
X100083562Y-95254679D01*
X100078068Y-95243062D01*
X100073739Y-95230963D01*
X100070616Y-95218497D01*
X100068731Y-95205785D01*
X100068100Y-95192950D01*
X100068100Y-93031050D01*
X100068731Y-93018215D01*
X100070616Y-93005503D01*
X100073739Y-92993037D01*
X100078068Y-92980938D01*
X100083562Y-92969321D01*
X100090169Y-92958298D01*
X100097824Y-92947976D01*
X100106454Y-92938454D01*
X100115976Y-92929824D01*
X100126298Y-92922169D01*
X100137321Y-92915562D01*
X100148938Y-92910068D01*
X100161037Y-92905739D01*
X100173503Y-92902616D01*
X100186215Y-92900731D01*
X100199050Y-92900100D01*
X100460950Y-92900100D01*
X100473785Y-92900731D01*
G37*
G36*
X101743785Y-92900731D02*
G01*
X101756497Y-92902616D01*
X101768963Y-92905739D01*
X101781062Y-92910068D01*
X101792679Y-92915562D01*
X101803702Y-92922169D01*
X101814024Y-92929824D01*
X101823546Y-92938454D01*
X101832176Y-92947976D01*
X101839831Y-92958298D01*
X101846438Y-92969321D01*
X101851932Y-92980938D01*
X101856261Y-92993037D01*
X101859384Y-93005503D01*
X101861269Y-93018215D01*
X101861900Y-93031050D01*
X101861900Y-95192950D01*
X101861269Y-95205785D01*
X101859384Y-95218497D01*
X101856261Y-95230963D01*
X101851932Y-95243062D01*
X101846438Y-95254679D01*
X101839831Y-95265702D01*
X101832176Y-95276024D01*
X101823546Y-95285546D01*
X101814024Y-95294176D01*
X101803702Y-95301831D01*
X101792679Y-95308438D01*
X101781062Y-95313932D01*
X101768963Y-95318261D01*
X101756497Y-95321384D01*
X101743785Y-95323269D01*
X101730950Y-95323900D01*
X101469050Y-95323900D01*
X101456215Y-95323269D01*
X101443503Y-95321384D01*
X101431037Y-95318261D01*
X101418938Y-95313932D01*
X101407321Y-95308438D01*
X101396298Y-95301831D01*
X101385976Y-95294176D01*
X101376454Y-95285546D01*
X101367824Y-95276024D01*
X101360169Y-95265702D01*
X101353562Y-95254679D01*
X101348068Y-95243062D01*
X101343739Y-95230963D01*
X101340616Y-95218497D01*
X101338731Y-95205785D01*
X101338100Y-95192950D01*
X101338100Y-93031050D01*
X101338731Y-93018215D01*
X101340616Y-93005503D01*
X101343739Y-92993037D01*
X101348068Y-92980938D01*
X101353562Y-92969321D01*
X101360169Y-92958298D01*
X101367824Y-92947976D01*
X101376454Y-92938454D01*
X101385976Y-92929824D01*
X101396298Y-92922169D01*
X101407321Y-92915562D01*
X101418938Y-92910068D01*
X101431037Y-92905739D01*
X101443503Y-92902616D01*
X101456215Y-92900731D01*
X101469050Y-92900100D01*
X101730950Y-92900100D01*
X101743785Y-92900731D01*
G37*
G36*
X103013785Y-92900731D02*
G01*
X103026497Y-92902616D01*
X103038963Y-92905739D01*
X103051062Y-92910068D01*
X103062679Y-92915562D01*
X103073702Y-92922169D01*
X103084024Y-92929824D01*
X103093546Y-92938454D01*
X103102176Y-92947976D01*
X103109831Y-92958298D01*
X103116438Y-92969321D01*
X103121932Y-92980938D01*
X103126261Y-92993037D01*
X103129384Y-93005503D01*
X103131269Y-93018215D01*
X103131900Y-93031050D01*
X103131900Y-95192950D01*
X103131269Y-95205785D01*
X103129384Y-95218497D01*
X103126261Y-95230963D01*
X103121932Y-95243062D01*
X103116438Y-95254679D01*
X103109831Y-95265702D01*
X103102176Y-95276024D01*
X103093546Y-95285546D01*
X103084024Y-95294176D01*
X103073702Y-95301831D01*
X103062679Y-95308438D01*
X103051062Y-95313932D01*
X103038963Y-95318261D01*
X103026497Y-95321384D01*
X103013785Y-95323269D01*
X103000950Y-95323900D01*
X102739050Y-95323900D01*
X102726215Y-95323269D01*
X102713503Y-95321384D01*
X102701037Y-95318261D01*
X102688938Y-95313932D01*
X102677321Y-95308438D01*
X102666298Y-95301831D01*
X102655976Y-95294176D01*
X102646454Y-95285546D01*
X102637824Y-95276024D01*
X102630169Y-95265702D01*
X102623562Y-95254679D01*
X102618068Y-95243062D01*
X102613739Y-95230963D01*
X102610616Y-95218497D01*
X102608731Y-95205785D01*
X102608100Y-95192950D01*
X102608100Y-93031050D01*
X102608731Y-93018215D01*
X102610616Y-93005503D01*
X102613739Y-92993037D01*
X102618068Y-92980938D01*
X102623562Y-92969321D01*
X102630169Y-92958298D01*
X102637824Y-92947976D01*
X102646454Y-92938454D01*
X102655976Y-92929824D01*
X102666298Y-92922169D01*
X102677321Y-92915562D01*
X102688938Y-92910068D01*
X102701037Y-92905739D01*
X102713503Y-92902616D01*
X102726215Y-92900731D01*
X102739050Y-92900100D01*
X103000950Y-92900100D01*
X103013785Y-92900731D01*
G37*
G36*
X103013785Y-84000731D02*
G01*
X103026497Y-84002616D01*
X103038963Y-84005739D01*
X103051062Y-84010068D01*
X103062679Y-84015562D01*
X103073702Y-84022169D01*
X103084024Y-84029824D01*
X103093546Y-84038454D01*
X103102176Y-84047976D01*
X103109831Y-84058298D01*
X103116438Y-84069321D01*
X103121932Y-84080938D01*
X103126261Y-84093037D01*
X103129384Y-84105503D01*
X103131269Y-84118215D01*
X103131900Y-84131050D01*
X103131900Y-86292950D01*
X103131269Y-86305785D01*
X103129384Y-86318497D01*
X103126261Y-86330963D01*
X103121932Y-86343062D01*
X103116438Y-86354679D01*
X103109831Y-86365702D01*
X103102176Y-86376024D01*
X103093546Y-86385546D01*
X103084024Y-86394176D01*
X103073702Y-86401831D01*
X103062679Y-86408438D01*
X103051062Y-86413932D01*
X103038963Y-86418261D01*
X103026497Y-86421384D01*
X103013785Y-86423269D01*
X103000950Y-86423900D01*
X102739050Y-86423900D01*
X102726215Y-86423269D01*
X102713503Y-86421384D01*
X102701037Y-86418261D01*
X102688938Y-86413932D01*
X102677321Y-86408438D01*
X102666298Y-86401831D01*
X102655976Y-86394176D01*
X102646454Y-86385546D01*
X102637824Y-86376024D01*
X102630169Y-86365702D01*
X102623562Y-86354679D01*
X102618068Y-86343062D01*
X102613739Y-86330963D01*
X102610616Y-86318497D01*
X102608731Y-86305785D01*
X102608100Y-86292950D01*
X102608100Y-84131050D01*
X102608731Y-84118215D01*
X102610616Y-84105503D01*
X102613739Y-84093037D01*
X102618068Y-84080938D01*
X102623562Y-84069321D01*
X102630169Y-84058298D01*
X102637824Y-84047976D01*
X102646454Y-84038454D01*
X102655976Y-84029824D01*
X102666298Y-84022169D01*
X102677321Y-84015562D01*
X102688938Y-84010068D01*
X102701037Y-84005739D01*
X102713503Y-84002616D01*
X102726215Y-84000731D01*
X102739050Y-84000100D01*
X103000950Y-84000100D01*
X103013785Y-84000731D01*
G37*
G36*
X101743785Y-84000731D02*
G01*
X101756497Y-84002616D01*
X101768963Y-84005739D01*
X101781062Y-84010068D01*
X101792679Y-84015562D01*
X101803702Y-84022169D01*
X101814024Y-84029824D01*
X101823546Y-84038454D01*
X101832176Y-84047976D01*
X101839831Y-84058298D01*
X101846438Y-84069321D01*
X101851932Y-84080938D01*
X101856261Y-84093037D01*
X101859384Y-84105503D01*
X101861269Y-84118215D01*
X101861900Y-84131050D01*
X101861900Y-86292950D01*
X101861269Y-86305785D01*
X101859384Y-86318497D01*
X101856261Y-86330963D01*
X101851932Y-86343062D01*
X101846438Y-86354679D01*
X101839831Y-86365702D01*
X101832176Y-86376024D01*
X101823546Y-86385546D01*
X101814024Y-86394176D01*
X101803702Y-86401831D01*
X101792679Y-86408438D01*
X101781062Y-86413932D01*
X101768963Y-86418261D01*
X101756497Y-86421384D01*
X101743785Y-86423269D01*
X101730950Y-86423900D01*
X101469050Y-86423900D01*
X101456215Y-86423269D01*
X101443503Y-86421384D01*
X101431037Y-86418261D01*
X101418938Y-86413932D01*
X101407321Y-86408438D01*
X101396298Y-86401831D01*
X101385976Y-86394176D01*
X101376454Y-86385546D01*
X101367824Y-86376024D01*
X101360169Y-86365702D01*
X101353562Y-86354679D01*
X101348068Y-86343062D01*
X101343739Y-86330963D01*
X101340616Y-86318497D01*
X101338731Y-86305785D01*
X101338100Y-86292950D01*
X101338100Y-84131050D01*
X101338731Y-84118215D01*
X101340616Y-84105503D01*
X101343739Y-84093037D01*
X101348068Y-84080938D01*
X101353562Y-84069321D01*
X101360169Y-84058298D01*
X101367824Y-84047976D01*
X101376454Y-84038454D01*
X101385976Y-84029824D01*
X101396298Y-84022169D01*
X101407321Y-84015562D01*
X101418938Y-84010068D01*
X101431037Y-84005739D01*
X101443503Y-84002616D01*
X101456215Y-84000731D01*
X101469050Y-84000100D01*
X101730950Y-84000100D01*
X101743785Y-84000731D01*
G37*
G36*
X100473785Y-84000731D02*
G01*
X100486497Y-84002616D01*
X100498963Y-84005739D01*
X100511062Y-84010068D01*
X100522679Y-84015562D01*
X100533702Y-84022169D01*
X100544024Y-84029824D01*
X100553546Y-84038454D01*
X100562176Y-84047976D01*
X100569831Y-84058298D01*
X100576438Y-84069321D01*
X100581932Y-84080938D01*
X100586261Y-84093037D01*
X100589384Y-84105503D01*
X100591269Y-84118215D01*
X100591900Y-84131050D01*
X100591900Y-86292950D01*
X100591269Y-86305785D01*
X100589384Y-86318497D01*
X100586261Y-86330963D01*
X100581932Y-86343062D01*
X100576438Y-86354679D01*
X100569831Y-86365702D01*
X100562176Y-86376024D01*
X100553546Y-86385546D01*
X100544024Y-86394176D01*
X100533702Y-86401831D01*
X100522679Y-86408438D01*
X100511062Y-86413932D01*
X100498963Y-86418261D01*
X100486497Y-86421384D01*
X100473785Y-86423269D01*
X100460950Y-86423900D01*
X100199050Y-86423900D01*
X100186215Y-86423269D01*
X100173503Y-86421384D01*
X100161037Y-86418261D01*
X100148938Y-86413932D01*
X100137321Y-86408438D01*
X100126298Y-86401831D01*
X100115976Y-86394176D01*
X100106454Y-86385546D01*
X100097824Y-86376024D01*
X100090169Y-86365702D01*
X100083562Y-86354679D01*
X100078068Y-86343062D01*
X100073739Y-86330963D01*
X100070616Y-86318497D01*
X100068731Y-86305785D01*
X100068100Y-86292950D01*
X100068100Y-84131050D01*
X100068731Y-84118215D01*
X100070616Y-84105503D01*
X100073739Y-84093037D01*
X100078068Y-84080938D01*
X100083562Y-84069321D01*
X100090169Y-84058298D01*
X100097824Y-84047976D01*
X100106454Y-84038454D01*
X100115976Y-84029824D01*
X100126298Y-84022169D01*
X100137321Y-84015562D01*
X100148938Y-84010068D01*
X100161037Y-84005739D01*
X100173503Y-84002616D01*
X100186215Y-84000731D01*
X100199050Y-84000100D01*
X100460950Y-84000100D01*
X100473785Y-84000731D01*
G37*
G36*
X99203785Y-84000731D02*
G01*
X99216497Y-84002616D01*
X99228963Y-84005739D01*
X99241062Y-84010068D01*
X99252679Y-84015562D01*
X99263702Y-84022169D01*
X99274024Y-84029824D01*
X99283546Y-84038454D01*
X99292176Y-84047976D01*
X99299831Y-84058298D01*
X99306438Y-84069321D01*
X99311932Y-84080938D01*
X99316261Y-84093037D01*
X99319384Y-84105503D01*
X99321269Y-84118215D01*
X99321900Y-84131050D01*
X99321900Y-86292950D01*
X99321269Y-86305785D01*
X99319384Y-86318497D01*
X99316261Y-86330963D01*
X99311932Y-86343062D01*
X99306438Y-86354679D01*
X99299831Y-86365702D01*
X99292176Y-86376024D01*
X99283546Y-86385546D01*
X99274024Y-86394176D01*
X99263702Y-86401831D01*
X99252679Y-86408438D01*
X99241062Y-86413932D01*
X99228963Y-86418261D01*
X99216497Y-86421384D01*
X99203785Y-86423269D01*
X99190950Y-86423900D01*
X98929050Y-86423900D01*
X98916215Y-86423269D01*
X98903503Y-86421384D01*
X98891037Y-86418261D01*
X98878938Y-86413932D01*
X98867321Y-86408438D01*
X98856298Y-86401831D01*
X98845976Y-86394176D01*
X98836454Y-86385546D01*
X98827824Y-86376024D01*
X98820169Y-86365702D01*
X98813562Y-86354679D01*
X98808068Y-86343062D01*
X98803739Y-86330963D01*
X98800616Y-86318497D01*
X98798731Y-86305785D01*
X98798100Y-86292950D01*
X98798100Y-84131050D01*
X98798731Y-84118215D01*
X98800616Y-84105503D01*
X98803739Y-84093037D01*
X98808068Y-84080938D01*
X98813562Y-84069321D01*
X98820169Y-84058298D01*
X98827824Y-84047976D01*
X98836454Y-84038454D01*
X98845976Y-84029824D01*
X98856298Y-84022169D01*
X98867321Y-84015562D01*
X98878938Y-84010068D01*
X98891037Y-84005739D01*
X98903503Y-84002616D01*
X98916215Y-84000731D01*
X98929050Y-84000100D01*
X99190950Y-84000100D01*
X99203785Y-84000731D01*
G37*
G36*
X97933785Y-84000731D02*
G01*
X97946497Y-84002616D01*
X97958963Y-84005739D01*
X97971062Y-84010068D01*
X97982679Y-84015562D01*
X97993702Y-84022169D01*
X98004024Y-84029824D01*
X98013546Y-84038454D01*
X98022176Y-84047976D01*
X98029831Y-84058298D01*
X98036438Y-84069321D01*
X98041932Y-84080938D01*
X98046261Y-84093037D01*
X98049384Y-84105503D01*
X98051269Y-84118215D01*
X98051900Y-84131050D01*
X98051900Y-86292950D01*
X98051269Y-86305785D01*
X98049384Y-86318497D01*
X98046261Y-86330963D01*
X98041932Y-86343062D01*
X98036438Y-86354679D01*
X98029831Y-86365702D01*
X98022176Y-86376024D01*
X98013546Y-86385546D01*
X98004024Y-86394176D01*
X97993702Y-86401831D01*
X97982679Y-86408438D01*
X97971062Y-86413932D01*
X97958963Y-86418261D01*
X97946497Y-86421384D01*
X97933785Y-86423269D01*
X97920950Y-86423900D01*
X97659050Y-86423900D01*
X97646215Y-86423269D01*
X97633503Y-86421384D01*
X97621037Y-86418261D01*
X97608938Y-86413932D01*
X97597321Y-86408438D01*
X97586298Y-86401831D01*
X97575976Y-86394176D01*
X97566454Y-86385546D01*
X97557824Y-86376024D01*
X97550169Y-86365702D01*
X97543562Y-86354679D01*
X97538068Y-86343062D01*
X97533739Y-86330963D01*
X97530616Y-86318497D01*
X97528731Y-86305785D01*
X97528100Y-86292950D01*
X97528100Y-84131050D01*
X97528731Y-84118215D01*
X97530616Y-84105503D01*
X97533739Y-84093037D01*
X97538068Y-84080938D01*
X97543562Y-84069321D01*
X97550169Y-84058298D01*
X97557824Y-84047976D01*
X97566454Y-84038454D01*
X97575976Y-84029824D01*
X97586298Y-84022169D01*
X97597321Y-84015562D01*
X97608938Y-84010068D01*
X97621037Y-84005739D01*
X97633503Y-84002616D01*
X97646215Y-84000731D01*
X97659050Y-84000100D01*
X97920950Y-84000100D01*
X97933785Y-84000731D01*
G37*
G36*
X96663785Y-84000731D02*
G01*
X96676497Y-84002616D01*
X96688963Y-84005739D01*
X96701062Y-84010068D01*
X96712679Y-84015562D01*
X96723702Y-84022169D01*
X96734024Y-84029824D01*
X96743546Y-84038454D01*
X96752176Y-84047976D01*
X96759831Y-84058298D01*
X96766438Y-84069321D01*
X96771932Y-84080938D01*
X96776261Y-84093037D01*
X96779384Y-84105503D01*
X96781269Y-84118215D01*
X96781900Y-84131050D01*
X96781900Y-86292950D01*
X96781269Y-86305785D01*
X96779384Y-86318497D01*
X96776261Y-86330963D01*
X96771932Y-86343062D01*
X96766438Y-86354679D01*
X96759831Y-86365702D01*
X96752176Y-86376024D01*
X96743546Y-86385546D01*
X96734024Y-86394176D01*
X96723702Y-86401831D01*
X96712679Y-86408438D01*
X96701062Y-86413932D01*
X96688963Y-86418261D01*
X96676497Y-86421384D01*
X96663785Y-86423269D01*
X96650950Y-86423900D01*
X96389050Y-86423900D01*
X96376215Y-86423269D01*
X96363503Y-86421384D01*
X96351037Y-86418261D01*
X96338938Y-86413932D01*
X96327321Y-86408438D01*
X96316298Y-86401831D01*
X96305976Y-86394176D01*
X96296454Y-86385546D01*
X96287824Y-86376024D01*
X96280169Y-86365702D01*
X96273562Y-86354679D01*
X96268068Y-86343062D01*
X96263739Y-86330963D01*
X96260616Y-86318497D01*
X96258731Y-86305785D01*
X96258100Y-86292950D01*
X96258100Y-84131050D01*
X96258731Y-84118215D01*
X96260616Y-84105503D01*
X96263739Y-84093037D01*
X96268068Y-84080938D01*
X96273562Y-84069321D01*
X96280169Y-84058298D01*
X96287824Y-84047976D01*
X96296454Y-84038454D01*
X96305976Y-84029824D01*
X96316298Y-84022169D01*
X96327321Y-84015562D01*
X96338938Y-84010068D01*
X96351037Y-84005739D01*
X96363503Y-84002616D01*
X96376215Y-84000731D01*
X96389050Y-84000100D01*
X96650950Y-84000100D01*
X96663785Y-84000731D01*
G37*
G36*
X94123785Y-84000731D02*
G01*
X94136497Y-84002616D01*
X94148963Y-84005739D01*
X94161062Y-84010068D01*
X94172679Y-84015562D01*
X94183702Y-84022169D01*
X94194024Y-84029824D01*
X94203546Y-84038454D01*
X94212176Y-84047976D01*
X94219831Y-84058298D01*
X94226438Y-84069321D01*
X94231932Y-84080938D01*
X94236261Y-84093037D01*
X94239384Y-84105503D01*
X94241269Y-84118215D01*
X94241900Y-84131050D01*
X94241900Y-86292950D01*
X94241269Y-86305785D01*
X94239384Y-86318497D01*
X94236261Y-86330963D01*
X94231932Y-86343062D01*
X94226438Y-86354679D01*
X94219831Y-86365702D01*
X94212176Y-86376024D01*
X94203546Y-86385546D01*
X94194024Y-86394176D01*
X94183702Y-86401831D01*
X94172679Y-86408438D01*
X94161062Y-86413932D01*
X94148963Y-86418261D01*
X94136497Y-86421384D01*
X94123785Y-86423269D01*
X94110950Y-86423900D01*
X93849050Y-86423900D01*
X93836215Y-86423269D01*
X93823503Y-86421384D01*
X93811037Y-86418261D01*
X93798938Y-86413932D01*
X93787321Y-86408438D01*
X93776298Y-86401831D01*
X93765976Y-86394176D01*
X93756454Y-86385546D01*
X93747824Y-86376024D01*
X93740169Y-86365702D01*
X93733562Y-86354679D01*
X93728068Y-86343062D01*
X93723739Y-86330963D01*
X93720616Y-86318497D01*
X93718731Y-86305785D01*
X93718100Y-86292950D01*
X93718100Y-84131050D01*
X93718731Y-84118215D01*
X93720616Y-84105503D01*
X93723739Y-84093037D01*
X93728068Y-84080938D01*
X93733562Y-84069321D01*
X93740169Y-84058298D01*
X93747824Y-84047976D01*
X93756454Y-84038454D01*
X93765976Y-84029824D01*
X93776298Y-84022169D01*
X93787321Y-84015562D01*
X93798938Y-84010068D01*
X93811037Y-84005739D01*
X93823503Y-84002616D01*
X93836215Y-84000731D01*
X93849050Y-84000100D01*
X94110950Y-84000100D01*
X94123785Y-84000731D01*
G37*
G36*
X92853785Y-84000731D02*
G01*
X92866497Y-84002616D01*
X92878963Y-84005739D01*
X92891062Y-84010068D01*
X92902679Y-84015562D01*
X92913702Y-84022169D01*
X92924024Y-84029824D01*
X92933546Y-84038454D01*
X92942176Y-84047976D01*
X92949831Y-84058298D01*
X92956438Y-84069321D01*
X92961932Y-84080938D01*
X92966261Y-84093037D01*
X92969384Y-84105503D01*
X92971269Y-84118215D01*
X92971900Y-84131050D01*
X92971900Y-86292950D01*
X92971269Y-86305785D01*
X92969384Y-86318497D01*
X92966261Y-86330963D01*
X92961932Y-86343062D01*
X92956438Y-86354679D01*
X92949831Y-86365702D01*
X92942176Y-86376024D01*
X92933546Y-86385546D01*
X92924024Y-86394176D01*
X92913702Y-86401831D01*
X92902679Y-86408438D01*
X92891062Y-86413932D01*
X92878963Y-86418261D01*
X92866497Y-86421384D01*
X92853785Y-86423269D01*
X92840950Y-86423900D01*
X92579050Y-86423900D01*
X92566215Y-86423269D01*
X92553503Y-86421384D01*
X92541037Y-86418261D01*
X92528938Y-86413932D01*
X92517321Y-86408438D01*
X92506298Y-86401831D01*
X92495976Y-86394176D01*
X92486454Y-86385546D01*
X92477824Y-86376024D01*
X92470169Y-86365702D01*
X92463562Y-86354679D01*
X92458068Y-86343062D01*
X92453739Y-86330963D01*
X92450616Y-86318497D01*
X92448731Y-86305785D01*
X92448100Y-86292950D01*
X92448100Y-84131050D01*
X92448731Y-84118215D01*
X92450616Y-84105503D01*
X92453739Y-84093037D01*
X92458068Y-84080938D01*
X92463562Y-84069321D01*
X92470169Y-84058298D01*
X92477824Y-84047976D01*
X92486454Y-84038454D01*
X92495976Y-84029824D01*
X92506298Y-84022169D01*
X92517321Y-84015562D01*
X92528938Y-84010068D01*
X92541037Y-84005739D01*
X92553503Y-84002616D01*
X92566215Y-84000731D01*
X92579050Y-84000100D01*
X92840950Y-84000100D01*
X92853785Y-84000731D01*
G37*
G36*
X91583785Y-84000731D02*
G01*
X91596497Y-84002616D01*
X91608963Y-84005739D01*
X91621062Y-84010068D01*
X91632679Y-84015562D01*
X91643702Y-84022169D01*
X91654024Y-84029824D01*
X91663546Y-84038454D01*
X91672176Y-84047976D01*
X91679831Y-84058298D01*
X91686438Y-84069321D01*
X91691932Y-84080938D01*
X91696261Y-84093037D01*
X91699384Y-84105503D01*
X91701269Y-84118215D01*
X91701900Y-84131050D01*
X91701900Y-86292950D01*
X91701269Y-86305785D01*
X91699384Y-86318497D01*
X91696261Y-86330963D01*
X91691932Y-86343062D01*
X91686438Y-86354679D01*
X91679831Y-86365702D01*
X91672176Y-86376024D01*
X91663546Y-86385546D01*
X91654024Y-86394176D01*
X91643702Y-86401831D01*
X91632679Y-86408438D01*
X91621062Y-86413932D01*
X91608963Y-86418261D01*
X91596497Y-86421384D01*
X91583785Y-86423269D01*
X91570950Y-86423900D01*
X91309050Y-86423900D01*
X91296215Y-86423269D01*
X91283503Y-86421384D01*
X91271037Y-86418261D01*
X91258938Y-86413932D01*
X91247321Y-86408438D01*
X91236298Y-86401831D01*
X91225976Y-86394176D01*
X91216454Y-86385546D01*
X91207824Y-86376024D01*
X91200169Y-86365702D01*
X91193562Y-86354679D01*
X91188068Y-86343062D01*
X91183739Y-86330963D01*
X91180616Y-86318497D01*
X91178731Y-86305785D01*
X91178100Y-86292950D01*
X91178100Y-84131050D01*
X91178731Y-84118215D01*
X91180616Y-84105503D01*
X91183739Y-84093037D01*
X91188068Y-84080938D01*
X91193562Y-84069321D01*
X91200169Y-84058298D01*
X91207824Y-84047976D01*
X91216454Y-84038454D01*
X91225976Y-84029824D01*
X91236298Y-84022169D01*
X91247321Y-84015562D01*
X91258938Y-84010068D01*
X91271037Y-84005739D01*
X91283503Y-84002616D01*
X91296215Y-84000731D01*
X91309050Y-84000100D01*
X91570950Y-84000100D01*
X91583785Y-84000731D01*
G37*
G36*
X90313785Y-84000731D02*
G01*
X90326497Y-84002616D01*
X90338963Y-84005739D01*
X90351062Y-84010068D01*
X90362679Y-84015562D01*
X90373702Y-84022169D01*
X90384024Y-84029824D01*
X90393546Y-84038454D01*
X90402176Y-84047976D01*
X90409831Y-84058298D01*
X90416438Y-84069321D01*
X90421932Y-84080938D01*
X90426261Y-84093037D01*
X90429384Y-84105503D01*
X90431269Y-84118215D01*
X90431900Y-84131050D01*
X90431900Y-86292950D01*
X90431269Y-86305785D01*
X90429384Y-86318497D01*
X90426261Y-86330963D01*
X90421932Y-86343062D01*
X90416438Y-86354679D01*
X90409831Y-86365702D01*
X90402176Y-86376024D01*
X90393546Y-86385546D01*
X90384024Y-86394176D01*
X90373702Y-86401831D01*
X90362679Y-86408438D01*
X90351062Y-86413932D01*
X90338963Y-86418261D01*
X90326497Y-86421384D01*
X90313785Y-86423269D01*
X90300950Y-86423900D01*
X90039050Y-86423900D01*
X90026215Y-86423269D01*
X90013503Y-86421384D01*
X90001037Y-86418261D01*
X89988938Y-86413932D01*
X89977321Y-86408438D01*
X89966298Y-86401831D01*
X89955976Y-86394176D01*
X89946454Y-86385546D01*
X89937824Y-86376024D01*
X89930169Y-86365702D01*
X89923562Y-86354679D01*
X89918068Y-86343062D01*
X89913739Y-86330963D01*
X89910616Y-86318497D01*
X89908731Y-86305785D01*
X89908100Y-86292950D01*
X89908100Y-84131050D01*
X89908731Y-84118215D01*
X89910616Y-84105503D01*
X89913739Y-84093037D01*
X89918068Y-84080938D01*
X89923562Y-84069321D01*
X89930169Y-84058298D01*
X89937824Y-84047976D01*
X89946454Y-84038454D01*
X89955976Y-84029824D01*
X89966298Y-84022169D01*
X89977321Y-84015562D01*
X89988938Y-84010068D01*
X90001037Y-84005739D01*
X90013503Y-84002616D01*
X90026215Y-84000731D01*
X90039050Y-84000100D01*
X90300950Y-84000100D01*
X90313785Y-84000731D01*
G37*
G36*
X89043785Y-84000731D02*
G01*
X89056497Y-84002616D01*
X89068963Y-84005739D01*
X89081062Y-84010068D01*
X89092679Y-84015562D01*
X89103702Y-84022169D01*
X89114024Y-84029824D01*
X89123546Y-84038454D01*
X89132176Y-84047976D01*
X89139831Y-84058298D01*
X89146438Y-84069321D01*
X89151932Y-84080938D01*
X89156261Y-84093037D01*
X89159384Y-84105503D01*
X89161269Y-84118215D01*
X89161900Y-84131050D01*
X89161900Y-86292950D01*
X89161269Y-86305785D01*
X89159384Y-86318497D01*
X89156261Y-86330963D01*
X89151932Y-86343062D01*
X89146438Y-86354679D01*
X89139831Y-86365702D01*
X89132176Y-86376024D01*
X89123546Y-86385546D01*
X89114024Y-86394176D01*
X89103702Y-86401831D01*
X89092679Y-86408438D01*
X89081062Y-86413932D01*
X89068963Y-86418261D01*
X89056497Y-86421384D01*
X89043785Y-86423269D01*
X89030950Y-86423900D01*
X88769050Y-86423900D01*
X88756215Y-86423269D01*
X88743503Y-86421384D01*
X88731037Y-86418261D01*
X88718938Y-86413932D01*
X88707321Y-86408438D01*
X88696298Y-86401831D01*
X88685976Y-86394176D01*
X88676454Y-86385546D01*
X88667824Y-86376024D01*
X88660169Y-86365702D01*
X88653562Y-86354679D01*
X88648068Y-86343062D01*
X88643739Y-86330963D01*
X88640616Y-86318497D01*
X88638731Y-86305785D01*
X88638100Y-86292950D01*
X88638100Y-84131050D01*
X88638731Y-84118215D01*
X88640616Y-84105503D01*
X88643739Y-84093037D01*
X88648068Y-84080938D01*
X88653562Y-84069321D01*
X88660169Y-84058298D01*
X88667824Y-84047976D01*
X88676454Y-84038454D01*
X88685976Y-84029824D01*
X88696298Y-84022169D01*
X88707321Y-84015562D01*
X88718938Y-84010068D01*
X88731037Y-84005739D01*
X88743503Y-84002616D01*
X88756215Y-84000731D01*
X88769050Y-84000100D01*
X89030950Y-84000100D01*
X89043785Y-84000731D01*
G37*
G36*
X87773785Y-84000731D02*
G01*
X87786497Y-84002616D01*
X87798963Y-84005739D01*
X87811062Y-84010068D01*
X87822679Y-84015562D01*
X87833702Y-84022169D01*
X87844024Y-84029824D01*
X87853546Y-84038454D01*
X87862176Y-84047976D01*
X87869831Y-84058298D01*
X87876438Y-84069321D01*
X87881932Y-84080938D01*
X87886261Y-84093037D01*
X87889384Y-84105503D01*
X87891269Y-84118215D01*
X87891900Y-84131050D01*
X87891900Y-86292950D01*
X87891269Y-86305785D01*
X87889384Y-86318497D01*
X87886261Y-86330963D01*
X87881932Y-86343062D01*
X87876438Y-86354679D01*
X87869831Y-86365702D01*
X87862176Y-86376024D01*
X87853546Y-86385546D01*
X87844024Y-86394176D01*
X87833702Y-86401831D01*
X87822679Y-86408438D01*
X87811062Y-86413932D01*
X87798963Y-86418261D01*
X87786497Y-86421384D01*
X87773785Y-86423269D01*
X87760950Y-86423900D01*
X87499050Y-86423900D01*
X87486215Y-86423269D01*
X87473503Y-86421384D01*
X87461037Y-86418261D01*
X87448938Y-86413932D01*
X87437321Y-86408438D01*
X87426298Y-86401831D01*
X87415976Y-86394176D01*
X87406454Y-86385546D01*
X87397824Y-86376024D01*
X87390169Y-86365702D01*
X87383562Y-86354679D01*
X87378068Y-86343062D01*
X87373739Y-86330963D01*
X87370616Y-86318497D01*
X87368731Y-86305785D01*
X87368100Y-86292950D01*
X87368100Y-84131050D01*
X87368731Y-84118215D01*
X87370616Y-84105503D01*
X87373739Y-84093037D01*
X87378068Y-84080938D01*
X87383562Y-84069321D01*
X87390169Y-84058298D01*
X87397824Y-84047976D01*
X87406454Y-84038454D01*
X87415976Y-84029824D01*
X87426298Y-84022169D01*
X87437321Y-84015562D01*
X87448938Y-84010068D01*
X87461037Y-84005739D01*
X87473503Y-84002616D01*
X87486215Y-84000731D01*
X87499050Y-84000100D01*
X87760950Y-84000100D01*
X87773785Y-84000731D01*
G37*
G36*
X85532312Y-93621272D02*
G01*
X85555945Y-93624778D01*
X85579120Y-93630583D01*
X85601614Y-93638632D01*
X85623212Y-93648846D01*
X85643704Y-93661129D01*
X85662893Y-93675361D01*
X85680595Y-93691405D01*
X85696639Y-93709107D01*
X85710871Y-93728296D01*
X85723154Y-93748788D01*
X85733368Y-93770386D01*
X85741417Y-93792880D01*
X85747222Y-93816055D01*
X85750728Y-93839688D01*
X85751900Y-93863550D01*
X85751900Y-94350450D01*
X85750728Y-94374312D01*
X85747222Y-94397945D01*
X85741417Y-94421120D01*
X85733368Y-94443614D01*
X85723154Y-94465212D01*
X85710871Y-94485704D01*
X85696639Y-94504893D01*
X85680595Y-94522595D01*
X85662893Y-94538639D01*
X85643704Y-94552871D01*
X85623212Y-94565154D01*
X85601614Y-94575368D01*
X85579120Y-94583417D01*
X85555945Y-94589222D01*
X85532312Y-94592728D01*
X85508450Y-94593900D01*
X84671550Y-94593900D01*
X84647688Y-94592728D01*
X84624055Y-94589222D01*
X84600880Y-94583417D01*
X84578386Y-94575368D01*
X84556788Y-94565154D01*
X84536296Y-94552871D01*
X84517107Y-94538639D01*
X84499405Y-94522595D01*
X84483361Y-94504893D01*
X84469129Y-94485704D01*
X84456846Y-94465212D01*
X84446632Y-94443614D01*
X84438583Y-94421120D01*
X84432778Y-94397945D01*
X84429272Y-94374312D01*
X84428100Y-94350450D01*
X84428100Y-93863550D01*
X84429272Y-93839688D01*
X84432778Y-93816055D01*
X84438583Y-93792880D01*
X84446632Y-93770386D01*
X84456846Y-93748788D01*
X84469129Y-93728296D01*
X84483361Y-93709107D01*
X84499405Y-93691405D01*
X84517107Y-93675361D01*
X84536296Y-93661129D01*
X84556788Y-93648846D01*
X84578386Y-93638632D01*
X84600880Y-93630583D01*
X84624055Y-93624778D01*
X84647688Y-93621272D01*
X84671550Y-93620100D01*
X85508450Y-93620100D01*
X85532312Y-93621272D01*
G37*
G36*
X85532312Y-91921272D02*
G01*
X85555945Y-91924778D01*
X85579120Y-91930583D01*
X85601614Y-91938632D01*
X85623212Y-91948846D01*
X85643704Y-91961129D01*
X85662893Y-91975361D01*
X85680595Y-91991405D01*
X85696639Y-92009107D01*
X85710871Y-92028296D01*
X85723154Y-92048788D01*
X85733368Y-92070386D01*
X85741417Y-92092880D01*
X85747222Y-92116055D01*
X85750728Y-92139688D01*
X85751900Y-92163550D01*
X85751900Y-92650450D01*
X85750728Y-92674312D01*
X85747222Y-92697945D01*
X85741417Y-92721120D01*
X85733368Y-92743614D01*
X85723154Y-92765212D01*
X85710871Y-92785704D01*
X85696639Y-92804893D01*
X85680595Y-92822595D01*
X85662893Y-92838639D01*
X85643704Y-92852871D01*
X85623212Y-92865154D01*
X85601614Y-92875368D01*
X85579120Y-92883417D01*
X85555945Y-92889222D01*
X85532312Y-92892728D01*
X85508450Y-92893900D01*
X84671550Y-92893900D01*
X84647688Y-92892728D01*
X84624055Y-92889222D01*
X84600880Y-92883417D01*
X84578386Y-92875368D01*
X84556788Y-92865154D01*
X84536296Y-92852871D01*
X84517107Y-92838639D01*
X84499405Y-92822595D01*
X84483361Y-92804893D01*
X84469129Y-92785704D01*
X84456846Y-92765212D01*
X84446632Y-92743614D01*
X84438583Y-92721120D01*
X84432778Y-92697945D01*
X84429272Y-92674312D01*
X84428100Y-92650450D01*
X84428100Y-92163550D01*
X84429272Y-92139688D01*
X84432778Y-92116055D01*
X84438583Y-92092880D01*
X84446632Y-92070386D01*
X84456846Y-92048788D01*
X84469129Y-92028296D01*
X84483361Y-92009107D01*
X84499405Y-91991405D01*
X84517107Y-91975361D01*
X84536296Y-91961129D01*
X84556788Y-91948846D01*
X84578386Y-91938632D01*
X84600880Y-91930583D01*
X84624055Y-91924778D01*
X84647688Y-91921272D01*
X84671550Y-91920100D01*
X85508450Y-91920100D01*
X85532312Y-91921272D01*
G37*
G36*
X105852312Y-91921272D02*
G01*
X105875945Y-91924778D01*
X105899120Y-91930583D01*
X105921614Y-91938632D01*
X105943212Y-91948846D01*
X105963704Y-91961129D01*
X105982893Y-91975361D01*
X106000595Y-91991405D01*
X106016639Y-92009107D01*
X106030871Y-92028296D01*
X106043154Y-92048788D01*
X106053368Y-92070386D01*
X106061417Y-92092880D01*
X106067222Y-92116055D01*
X106070728Y-92139688D01*
X106071900Y-92163550D01*
X106071900Y-92650450D01*
X106070728Y-92674312D01*
X106067222Y-92697945D01*
X106061417Y-92721120D01*
X106053368Y-92743614D01*
X106043154Y-92765212D01*
X106030871Y-92785704D01*
X106016639Y-92804893D01*
X106000595Y-92822595D01*
X105982893Y-92838639D01*
X105963704Y-92852871D01*
X105943212Y-92865154D01*
X105921614Y-92875368D01*
X105899120Y-92883417D01*
X105875945Y-92889222D01*
X105852312Y-92892728D01*
X105828450Y-92893900D01*
X104991550Y-92893900D01*
X104967688Y-92892728D01*
X104944055Y-92889222D01*
X104920880Y-92883417D01*
X104898386Y-92875368D01*
X104876788Y-92865154D01*
X104856296Y-92852871D01*
X104837107Y-92838639D01*
X104819405Y-92822595D01*
X104803361Y-92804893D01*
X104789129Y-92785704D01*
X104776846Y-92765212D01*
X104766632Y-92743614D01*
X104758583Y-92721120D01*
X104752778Y-92697945D01*
X104749272Y-92674312D01*
X104748100Y-92650450D01*
X104748100Y-92163550D01*
X104749272Y-92139688D01*
X104752778Y-92116055D01*
X104758583Y-92092880D01*
X104766632Y-92070386D01*
X104776846Y-92048788D01*
X104789129Y-92028296D01*
X104803361Y-92009107D01*
X104819405Y-91991405D01*
X104837107Y-91975361D01*
X104856296Y-91961129D01*
X104876788Y-91948846D01*
X104898386Y-91938632D01*
X104920880Y-91930583D01*
X104944055Y-91924778D01*
X104967688Y-91921272D01*
X104991550Y-91920100D01*
X105828450Y-91920100D01*
X105852312Y-91921272D01*
G37*
G36*
X105852312Y-93621272D02*
G01*
X105875945Y-93624778D01*
X105899120Y-93630583D01*
X105921614Y-93638632D01*
X105943212Y-93648846D01*
X105963704Y-93661129D01*
X105982893Y-93675361D01*
X106000595Y-93691405D01*
X106016639Y-93709107D01*
X106030871Y-93728296D01*
X106043154Y-93748788D01*
X106053368Y-93770386D01*
X106061417Y-93792880D01*
X106067222Y-93816055D01*
X106070728Y-93839688D01*
X106071900Y-93863550D01*
X106071900Y-94350450D01*
X106070728Y-94374312D01*
X106067222Y-94397945D01*
X106061417Y-94421120D01*
X106053368Y-94443614D01*
X106043154Y-94465212D01*
X106030871Y-94485704D01*
X106016639Y-94504893D01*
X106000595Y-94522595D01*
X105982893Y-94538639D01*
X105963704Y-94552871D01*
X105943212Y-94565154D01*
X105921614Y-94575368D01*
X105899120Y-94583417D01*
X105875945Y-94589222D01*
X105852312Y-94592728D01*
X105828450Y-94593900D01*
X104991550Y-94593900D01*
X104967688Y-94592728D01*
X104944055Y-94589222D01*
X104920880Y-94583417D01*
X104898386Y-94575368D01*
X104876788Y-94565154D01*
X104856296Y-94552871D01*
X104837107Y-94538639D01*
X104819405Y-94522595D01*
X104803361Y-94504893D01*
X104789129Y-94485704D01*
X104776846Y-94465212D01*
X104766632Y-94443614D01*
X104758583Y-94421120D01*
X104752778Y-94397945D01*
X104749272Y-94374312D01*
X104748100Y-94350450D01*
X104748100Y-93863550D01*
X104749272Y-93839688D01*
X104752778Y-93816055D01*
X104758583Y-93792880D01*
X104766632Y-93770386D01*
X104776846Y-93748788D01*
X104789129Y-93728296D01*
X104803361Y-93709107D01*
X104819405Y-93691405D01*
X104837107Y-93675361D01*
X104856296Y-93661129D01*
X104876788Y-93648846D01*
X104898386Y-93638632D01*
X104920880Y-93630583D01*
X104944055Y-93624778D01*
X104967688Y-93621272D01*
X104991550Y-93620100D01*
X105828450Y-93620100D01*
X105852312Y-93621272D01*
G37*
G36*
X119822312Y-93621272D02*
G01*
X119845945Y-93624778D01*
X119869120Y-93630583D01*
X119891614Y-93638632D01*
X119913212Y-93648846D01*
X119933704Y-93661129D01*
X119952893Y-93675361D01*
X119970595Y-93691405D01*
X119986639Y-93709107D01*
X120000871Y-93728296D01*
X120013154Y-93748788D01*
X120023368Y-93770386D01*
X120031417Y-93792880D01*
X120037222Y-93816055D01*
X120040728Y-93839688D01*
X120041900Y-93863550D01*
X120041900Y-94350450D01*
X120040728Y-94374312D01*
X120037222Y-94397945D01*
X120031417Y-94421120D01*
X120023368Y-94443614D01*
X120013154Y-94465212D01*
X120000871Y-94485704D01*
X119986639Y-94504893D01*
X119970595Y-94522595D01*
X119952893Y-94538639D01*
X119933704Y-94552871D01*
X119913212Y-94565154D01*
X119891614Y-94575368D01*
X119869120Y-94583417D01*
X119845945Y-94589222D01*
X119822312Y-94592728D01*
X119798450Y-94593900D01*
X118961550Y-94593900D01*
X118937688Y-94592728D01*
X118914055Y-94589222D01*
X118890880Y-94583417D01*
X118868386Y-94575368D01*
X118846788Y-94565154D01*
X118826296Y-94552871D01*
X118807107Y-94538639D01*
X118789405Y-94522595D01*
X118773361Y-94504893D01*
X118759129Y-94485704D01*
X118746846Y-94465212D01*
X118736632Y-94443614D01*
X118728583Y-94421120D01*
X118722778Y-94397945D01*
X118719272Y-94374312D01*
X118718100Y-94350450D01*
X118718100Y-93863550D01*
X118719272Y-93839688D01*
X118722778Y-93816055D01*
X118728583Y-93792880D01*
X118736632Y-93770386D01*
X118746846Y-93748788D01*
X118759129Y-93728296D01*
X118773361Y-93709107D01*
X118789405Y-93691405D01*
X118807107Y-93675361D01*
X118826296Y-93661129D01*
X118846788Y-93648846D01*
X118868386Y-93638632D01*
X118890880Y-93630583D01*
X118914055Y-93624778D01*
X118937688Y-93621272D01*
X118961550Y-93620100D01*
X119798450Y-93620100D01*
X119822312Y-93621272D01*
G37*
G36*
X119822312Y-91921272D02*
G01*
X119845945Y-91924778D01*
X119869120Y-91930583D01*
X119891614Y-91938632D01*
X119913212Y-91948846D01*
X119933704Y-91961129D01*
X119952893Y-91975361D01*
X119970595Y-91991405D01*
X119986639Y-92009107D01*
X120000871Y-92028296D01*
X120013154Y-92048788D01*
X120023368Y-92070386D01*
X120031417Y-92092880D01*
X120037222Y-92116055D01*
X120040728Y-92139688D01*
X120041900Y-92163550D01*
X120041900Y-92650450D01*
X120040728Y-92674312D01*
X120037222Y-92697945D01*
X120031417Y-92721120D01*
X120023368Y-92743614D01*
X120013154Y-92765212D01*
X120000871Y-92785704D01*
X119986639Y-92804893D01*
X119970595Y-92822595D01*
X119952893Y-92838639D01*
X119933704Y-92852871D01*
X119913212Y-92865154D01*
X119891614Y-92875368D01*
X119869120Y-92883417D01*
X119845945Y-92889222D01*
X119822312Y-92892728D01*
X119798450Y-92893900D01*
X118961550Y-92893900D01*
X118937688Y-92892728D01*
X118914055Y-92889222D01*
X118890880Y-92883417D01*
X118868386Y-92875368D01*
X118846788Y-92865154D01*
X118826296Y-92852871D01*
X118807107Y-92838639D01*
X118789405Y-92822595D01*
X118773361Y-92804893D01*
X118759129Y-92785704D01*
X118746846Y-92765212D01*
X118736632Y-92743614D01*
X118728583Y-92721120D01*
X118722778Y-92697945D01*
X118719272Y-92674312D01*
X118718100Y-92650450D01*
X118718100Y-92163550D01*
X118719272Y-92139688D01*
X118722778Y-92116055D01*
X118728583Y-92092880D01*
X118736632Y-92070386D01*
X118746846Y-92048788D01*
X118759129Y-92028296D01*
X118773361Y-92009107D01*
X118789405Y-91991405D01*
X118807107Y-91975361D01*
X118826296Y-91961129D01*
X118846788Y-91948846D01*
X118868386Y-91938632D01*
X118890880Y-91930583D01*
X118914055Y-91924778D01*
X118937688Y-91921272D01*
X118961550Y-91920100D01*
X119798450Y-91920100D01*
X119822312Y-91921272D01*
G37*
G36*
X157922312Y-93621272D02*
G01*
X157945945Y-93624778D01*
X157969120Y-93630583D01*
X157991614Y-93638632D01*
X158013212Y-93648846D01*
X158033704Y-93661129D01*
X158052893Y-93675361D01*
X158070595Y-93691405D01*
X158086639Y-93709107D01*
X158100871Y-93728296D01*
X158113154Y-93748788D01*
X158123368Y-93770386D01*
X158131417Y-93792880D01*
X158137222Y-93816055D01*
X158140728Y-93839688D01*
X158141900Y-93863550D01*
X158141900Y-94350450D01*
X158140728Y-94374312D01*
X158137222Y-94397945D01*
X158131417Y-94421120D01*
X158123368Y-94443614D01*
X158113154Y-94465212D01*
X158100871Y-94485704D01*
X158086639Y-94504893D01*
X158070595Y-94522595D01*
X158052893Y-94538639D01*
X158033704Y-94552871D01*
X158013212Y-94565154D01*
X157991614Y-94575368D01*
X157969120Y-94583417D01*
X157945945Y-94589222D01*
X157922312Y-94592728D01*
X157898450Y-94593900D01*
X157061550Y-94593900D01*
X157037688Y-94592728D01*
X157014055Y-94589222D01*
X156990880Y-94583417D01*
X156968386Y-94575368D01*
X156946788Y-94565154D01*
X156926296Y-94552871D01*
X156907107Y-94538639D01*
X156889405Y-94522595D01*
X156873361Y-94504893D01*
X156859129Y-94485704D01*
X156846846Y-94465212D01*
X156836632Y-94443614D01*
X156828583Y-94421120D01*
X156822778Y-94397945D01*
X156819272Y-94374312D01*
X156818100Y-94350450D01*
X156818100Y-93863550D01*
X156819272Y-93839688D01*
X156822778Y-93816055D01*
X156828583Y-93792880D01*
X156836632Y-93770386D01*
X156846846Y-93748788D01*
X156859129Y-93728296D01*
X156873361Y-93709107D01*
X156889405Y-93691405D01*
X156907107Y-93675361D01*
X156926296Y-93661129D01*
X156946788Y-93648846D01*
X156968386Y-93638632D01*
X156990880Y-93630583D01*
X157014055Y-93624778D01*
X157037688Y-93621272D01*
X157061550Y-93620100D01*
X157898450Y-93620100D01*
X157922312Y-93621272D01*
G37*
G36*
X157922312Y-91921272D02*
G01*
X157945945Y-91924778D01*
X157969120Y-91930583D01*
X157991614Y-91938632D01*
X158013212Y-91948846D01*
X158033704Y-91961129D01*
X158052893Y-91975361D01*
X158070595Y-91991405D01*
X158086639Y-92009107D01*
X158100871Y-92028296D01*
X158113154Y-92048788D01*
X158123368Y-92070386D01*
X158131417Y-92092880D01*
X158137222Y-92116055D01*
X158140728Y-92139688D01*
X158141900Y-92163550D01*
X158141900Y-92650450D01*
X158140728Y-92674312D01*
X158137222Y-92697945D01*
X158131417Y-92721120D01*
X158123368Y-92743614D01*
X158113154Y-92765212D01*
X158100871Y-92785704D01*
X158086639Y-92804893D01*
X158070595Y-92822595D01*
X158052893Y-92838639D01*
X158033704Y-92852871D01*
X158013212Y-92865154D01*
X157991614Y-92875368D01*
X157969120Y-92883417D01*
X157945945Y-92889222D01*
X157922312Y-92892728D01*
X157898450Y-92893900D01*
X157061550Y-92893900D01*
X157037688Y-92892728D01*
X157014055Y-92889222D01*
X156990880Y-92883417D01*
X156968386Y-92875368D01*
X156946788Y-92865154D01*
X156926296Y-92852871D01*
X156907107Y-92838639D01*
X156889405Y-92822595D01*
X156873361Y-92804893D01*
X156859129Y-92785704D01*
X156846846Y-92765212D01*
X156836632Y-92743614D01*
X156828583Y-92721120D01*
X156822778Y-92697945D01*
X156819272Y-92674312D01*
X156818100Y-92650450D01*
X156818100Y-92163550D01*
X156819272Y-92139688D01*
X156822778Y-92116055D01*
X156828583Y-92092880D01*
X156836632Y-92070386D01*
X156846846Y-92048788D01*
X156859129Y-92028296D01*
X156873361Y-92009107D01*
X156889405Y-91991405D01*
X156907107Y-91975361D01*
X156926296Y-91961129D01*
X156946788Y-91948846D01*
X156968386Y-91938632D01*
X156990880Y-91930583D01*
X157014055Y-91924778D01*
X157037688Y-91921272D01*
X157061550Y-91920100D01*
X157898450Y-91920100D01*
X157922312Y-91921272D01*
G37*
G36*
X140142312Y-93621272D02*
G01*
X140165945Y-93624778D01*
X140189120Y-93630583D01*
X140211614Y-93638632D01*
X140233212Y-93648846D01*
X140253704Y-93661129D01*
X140272893Y-93675361D01*
X140290595Y-93691405D01*
X140306639Y-93709107D01*
X140320871Y-93728296D01*
X140333154Y-93748788D01*
X140343368Y-93770386D01*
X140351417Y-93792880D01*
X140357222Y-93816055D01*
X140360728Y-93839688D01*
X140361900Y-93863550D01*
X140361900Y-94350450D01*
X140360728Y-94374312D01*
X140357222Y-94397945D01*
X140351417Y-94421120D01*
X140343368Y-94443614D01*
X140333154Y-94465212D01*
X140320871Y-94485704D01*
X140306639Y-94504893D01*
X140290595Y-94522595D01*
X140272893Y-94538639D01*
X140253704Y-94552871D01*
X140233212Y-94565154D01*
X140211614Y-94575368D01*
X140189120Y-94583417D01*
X140165945Y-94589222D01*
X140142312Y-94592728D01*
X140118450Y-94593900D01*
X139281550Y-94593900D01*
X139257688Y-94592728D01*
X139234055Y-94589222D01*
X139210880Y-94583417D01*
X139188386Y-94575368D01*
X139166788Y-94565154D01*
X139146296Y-94552871D01*
X139127107Y-94538639D01*
X139109405Y-94522595D01*
X139093361Y-94504893D01*
X139079129Y-94485704D01*
X139066846Y-94465212D01*
X139056632Y-94443614D01*
X139048583Y-94421120D01*
X139042778Y-94397945D01*
X139039272Y-94374312D01*
X139038100Y-94350450D01*
X139038100Y-93863550D01*
X139039272Y-93839688D01*
X139042778Y-93816055D01*
X139048583Y-93792880D01*
X139056632Y-93770386D01*
X139066846Y-93748788D01*
X139079129Y-93728296D01*
X139093361Y-93709107D01*
X139109405Y-93691405D01*
X139127107Y-93675361D01*
X139146296Y-93661129D01*
X139166788Y-93648846D01*
X139188386Y-93638632D01*
X139210880Y-93630583D01*
X139234055Y-93624778D01*
X139257688Y-93621272D01*
X139281550Y-93620100D01*
X140118450Y-93620100D01*
X140142312Y-93621272D01*
G37*
G36*
X140142312Y-91921272D02*
G01*
X140165945Y-91924778D01*
X140189120Y-91930583D01*
X140211614Y-91938632D01*
X140233212Y-91948846D01*
X140253704Y-91961129D01*
X140272893Y-91975361D01*
X140290595Y-91991405D01*
X140306639Y-92009107D01*
X140320871Y-92028296D01*
X140333154Y-92048788D01*
X140343368Y-92070386D01*
X140351417Y-92092880D01*
X140357222Y-92116055D01*
X140360728Y-92139688D01*
X140361900Y-92163550D01*
X140361900Y-92650450D01*
X140360728Y-92674312D01*
X140357222Y-92697945D01*
X140351417Y-92721120D01*
X140343368Y-92743614D01*
X140333154Y-92765212D01*
X140320871Y-92785704D01*
X140306639Y-92804893D01*
X140290595Y-92822595D01*
X140272893Y-92838639D01*
X140253704Y-92852871D01*
X140233212Y-92865154D01*
X140211614Y-92875368D01*
X140189120Y-92883417D01*
X140165945Y-92889222D01*
X140142312Y-92892728D01*
X140118450Y-92893900D01*
X139281550Y-92893900D01*
X139257688Y-92892728D01*
X139234055Y-92889222D01*
X139210880Y-92883417D01*
X139188386Y-92875368D01*
X139166788Y-92865154D01*
X139146296Y-92852871D01*
X139127107Y-92838639D01*
X139109405Y-92822595D01*
X139093361Y-92804893D01*
X139079129Y-92785704D01*
X139066846Y-92765212D01*
X139056632Y-92743614D01*
X139048583Y-92721120D01*
X139042778Y-92697945D01*
X139039272Y-92674312D01*
X139038100Y-92650450D01*
X139038100Y-92163550D01*
X139039272Y-92139688D01*
X139042778Y-92116055D01*
X139048583Y-92092880D01*
X139056632Y-92070386D01*
X139066846Y-92048788D01*
X139079129Y-92028296D01*
X139093361Y-92009107D01*
X139109405Y-91991405D01*
X139127107Y-91975361D01*
X139146296Y-91961129D01*
X139166788Y-91948846D01*
X139188386Y-91938632D01*
X139210880Y-91930583D01*
X139234055Y-91924778D01*
X139257688Y-91921272D01*
X139281550Y-91920100D01*
X140118450Y-91920100D01*
X140142312Y-91921272D01*
G37*
M02*
