M48
; DRILL file {KiCad (5.1.5-0-10_14)} date Saturday, December 26, 2020 at 10:04:00 PM
; FORMAT={-:-/ absolute / inch / decimal}
; #@! TF.CreationDate,2020-12-26T22:04:00-05:00
; #@! TF.GenerationSoftware,Kicad,Pcbnew,(5.1.5-0-10_14)
FMAT,2
INCH
T1C0.0079
T2C0.0157
T3C0.0197
%
G90
G05
T1
X3.035Y-3.44
X3.035Y-3.6
X3.035Y-3.73
X3.0425Y-3.2925
X3.11Y-3.73
X3.115Y-3.965
X3.145Y-3.36
X3.145Y-3.515
X3.185Y-3.85
X3.26Y-3.285
X3.26Y-3.44
X3.265Y-3.75
X3.45Y-3.545
X3.47Y-3.79
X3.495Y-3.285
X3.5Y-3.545
X3.52Y-3.82
X3.55Y-3.545
X3.6Y-3.48
X3.62Y-3.53
X3.65Y-3.48
X3.65Y-3.8
X3.655Y-3.285
X3.7Y-3.48
X3.75Y-3.53
X3.8Y-3.48
X3.8Y-3.58
X3.83Y-3.285
X3.835Y-3.855
X3.85Y-3.48
X3.85Y-3.58
X3.9Y-3.48
X3.9Y-3.58
X3.935Y-3.855
X3.95Y-3.48
X3.95Y-3.58
X4.0Y-3.48
X4.0Y-3.58
X4.005Y-3.285
X4.045Y-3.855
X4.095Y-3.52
X4.105Y-3.755
X4.15Y-3.74
X4.165Y-3.285
X4.255Y-3.335
X4.285Y-3.755
X4.335Y-3.285
X4.335Y-3.855
X4.345Y-3.755
X4.355Y-3.675
X4.38Y-3.84
X4.39Y-3.645
X4.3925Y-3.71
X4.41Y-3.565
X4.425Y-3.335
X4.425Y-3.52
X4.425Y-3.68
X4.43Y-3.64
X4.44Y-3.755
X4.465Y-3.62
X4.495Y-3.66
X4.505Y-3.285
X4.515Y-3.77
X4.525Y-3.62
X4.535Y-3.6725
X4.575Y-3.66
X4.595Y-3.335
X4.635Y-3.855
X4.675Y-3.285
X4.68Y-3.84
X4.71Y-3.52
X4.77Y-3.55
X4.78Y-3.84
X4.82Y-3.84
X4.845Y-3.285
X4.95Y-3.505
X4.95Y-3.58
X4.98Y-3.53
X5.0Y-3.58
X5.005Y-3.285
X5.05Y-3.48
X5.05Y-3.87
X5.1Y-3.53
X5.15Y-3.48
X5.15Y-3.52
X5.15Y-3.58
X5.18Y-3.285
X5.185Y-3.845
X5.2Y-3.48
X5.2Y-3.52
X5.2Y-3.58
X5.25Y-3.48
X5.25Y-3.52
X5.25Y-3.58
X5.285Y-3.845
X5.3Y-3.48
X5.3Y-3.52
X5.3Y-3.58
X5.35Y-3.48
X5.35Y-3.52
X5.35Y-3.58
X5.355Y-3.285
X5.475Y-3.835
X5.51Y-3.44
X5.515Y-3.285
X5.615Y-3.835
X5.63Y-3.36
X5.63Y-3.52
X5.63Y-3.695
X5.635Y-3.795
X5.675Y-3.835
X5.75Y-3.285
X5.75Y-3.44
X5.75Y-3.6
X5.75Y-3.775
X5.815Y-3.835
X5.87Y-3.36
X5.87Y-3.52
X5.87Y-3.695
X5.99Y-3.285
X5.99Y-3.44
X5.99Y-3.6
X5.99Y-3.775
X6.11Y-3.36
X6.23Y-3.285
X6.23Y-3.44
X6.245Y-3.785
X6.35Y-3.36
X6.35Y-3.515
X6.35Y-3.695
X6.35Y-3.88
X6.4575Y-3.2925
X6.465Y-3.44
X6.465Y-3.6
X6.465Y-3.785
X6.465Y-3.965
T2
X3.3Y-3.64
X3.3Y-3.705
X3.35Y-3.595
X3.35Y-3.75
X3.415Y-3.355
X3.415Y-3.705
X4.085Y-3.34
X4.085Y-3.705
X4.15Y-3.595
X4.2Y-3.705
X4.205Y-3.625
X4.635Y-3.615
X4.65Y-3.705
X4.7Y-3.595
X4.7Y-3.75
X4.765Y-3.34
X4.765Y-3.705
X5.435Y-3.355
X5.435Y-3.705
X5.5Y-3.59
X5.5Y-3.75
X5.55Y-3.64
X5.55Y-3.705
X6.15Y-3.64
X6.15Y-3.705
X6.2Y-3.595
X6.25Y-3.64
X6.25Y-3.705
X3.3Y-3.89
X3.4Y-3.89
X3.5Y-3.89
X3.6Y-3.89
X3.7Y-3.89
X3.8Y-3.89
X3.9Y-3.89
X4.0Y-3.89
X4.1Y-3.89
X4.2Y-3.89
X4.3Y-3.89
X4.4Y-3.89
X4.5Y-3.89
X4.6Y-3.89
X4.7Y-3.89
X4.8Y-3.89
X4.9Y-3.89
X5.0Y-3.89
X5.1Y-3.89
X5.2Y-3.89
X5.3Y-3.89
X5.4Y-3.89
X5.5Y-3.89
X5.6Y-3.89
X5.7Y-3.89
X5.8Y-3.89
X5.9Y-3.89
X6.0Y-3.89
X6.1Y-3.89
X6.2Y-3.89
T3
X6.2Y-3.755
T0
M30
