G04 #@! TF.GenerationSoftware,KiCad,Pcbnew,(5.1.5-0-10_14)*
G04 #@! TF.CreationDate,2020-05-16T13:12:57-04:00*
G04 #@! TF.ProjectId,simm-30-4mb,73696d6d-2d33-4302-9d34-6d622e6b6963,rev?*
G04 #@! TF.SameCoordinates,Original*
G04 #@! TF.FileFunction,Legend,Bot*
G04 #@! TF.FilePolarity,Positive*
%FSLAX46Y46*%
G04 Gerber Fmt 4.6, Leading zero omitted, Abs format (unit mm)*
G04 Created by KiCad (PCBNEW (5.1.5-0-10_14)) date 2020-05-16 13:12:57*
%MOMM*%
%LPD*%
G04 APERTURE LIST*
%ADD10C,0.300000*%
%ADD11C,0.225000*%
%ADD12C,0.100000*%
%ADD13C,0.952400*%
G04 APERTURE END LIST*
D10*
X130389000Y-95055571D02*
X130389000Y-96055571D01*
X130746142Y-94484142D02*
X131103285Y-95555571D01*
X130174714Y-95555571D01*
X128817571Y-96055571D02*
X129674714Y-96055571D01*
X129246142Y-96055571D02*
X129246142Y-94555571D01*
X129389000Y-94769857D01*
X129531857Y-94912714D01*
X129674714Y-94984142D01*
X128103285Y-96055571D02*
X127817571Y-96055571D01*
X127674714Y-95984142D01*
X127603285Y-95912714D01*
X127460428Y-95698428D01*
X127389000Y-95412714D01*
X127389000Y-94841285D01*
X127460428Y-94698428D01*
X127531857Y-94627000D01*
X127674714Y-94555571D01*
X127960428Y-94555571D01*
X128103285Y-94627000D01*
X128174714Y-94698428D01*
X128246142Y-94841285D01*
X128246142Y-95198428D01*
X128174714Y-95341285D01*
X128103285Y-95412714D01*
X127960428Y-95484142D01*
X127674714Y-95484142D01*
X127531857Y-95412714D01*
X127460428Y-95341285D01*
X127389000Y-95198428D01*
X126460428Y-94555571D02*
X126317571Y-94555571D01*
X126174714Y-94627000D01*
X126103285Y-94698428D01*
X126031857Y-94841285D01*
X125960428Y-95127000D01*
X125960428Y-95484142D01*
X126031857Y-95769857D01*
X126103285Y-95912714D01*
X126174714Y-95984142D01*
X126317571Y-96055571D01*
X126460428Y-96055571D01*
X126603285Y-95984142D01*
X126674714Y-95912714D01*
X126746142Y-95769857D01*
X126817571Y-95484142D01*
X126817571Y-95127000D01*
X126746142Y-94841285D01*
X126674714Y-94698428D01*
X126603285Y-94627000D01*
X126460428Y-94555571D01*
X125389000Y-95627000D02*
X124674714Y-95627000D01*
X125531857Y-96055571D02*
X125031857Y-94555571D01*
X124531857Y-96055571D01*
X133941285Y-94627000D02*
X134084142Y-94555571D01*
X134298428Y-94555571D01*
X134512714Y-94627000D01*
X134655571Y-94769857D01*
X134727000Y-94912714D01*
X134798428Y-95198428D01*
X134798428Y-95412714D01*
X134727000Y-95698428D01*
X134655571Y-95841285D01*
X134512714Y-95984142D01*
X134298428Y-96055571D01*
X134155571Y-96055571D01*
X133941285Y-95984142D01*
X133869857Y-95912714D01*
X133869857Y-95412714D01*
X134155571Y-95412714D01*
X133369857Y-94555571D02*
X133012714Y-96055571D01*
X132727000Y-94984142D01*
X132441285Y-96055571D01*
X132084142Y-94555571D01*
D11*
X139446000Y-91821000D02*
X139591142Y-91748428D01*
X139808857Y-91748428D01*
X140026571Y-91821000D01*
X140171714Y-91966142D01*
X140244285Y-92111285D01*
X140316857Y-92401571D01*
X140316857Y-92619285D01*
X140244285Y-92909571D01*
X140171714Y-93054714D01*
X140026571Y-93199857D01*
X139808857Y-93272428D01*
X139663714Y-93272428D01*
X139446000Y-93199857D01*
X139373428Y-93127285D01*
X139373428Y-92619285D01*
X139663714Y-92619285D01*
X138067142Y-93272428D02*
X138067142Y-92474142D01*
X138139714Y-92329000D01*
X138284857Y-92256428D01*
X138575142Y-92256428D01*
X138720285Y-92329000D01*
X138067142Y-93199857D02*
X138212285Y-93272428D01*
X138575142Y-93272428D01*
X138720285Y-93199857D01*
X138792857Y-93054714D01*
X138792857Y-92909571D01*
X138720285Y-92764428D01*
X138575142Y-92691857D01*
X138212285Y-92691857D01*
X138067142Y-92619285D01*
X137341428Y-93272428D02*
X137341428Y-92256428D01*
X137341428Y-92546714D02*
X137268857Y-92401571D01*
X137196285Y-92329000D01*
X137051142Y-92256428D01*
X136906000Y-92256428D01*
X136398000Y-93272428D02*
X136398000Y-92256428D01*
X136398000Y-92546714D02*
X136325428Y-92401571D01*
X136252857Y-92329000D01*
X136107714Y-92256428D01*
X135962571Y-92256428D01*
X134874000Y-93199857D02*
X135019142Y-93272428D01*
X135309428Y-93272428D01*
X135454571Y-93199857D01*
X135527142Y-93054714D01*
X135527142Y-92474142D01*
X135454571Y-92329000D01*
X135309428Y-92256428D01*
X135019142Y-92256428D01*
X134874000Y-92329000D01*
X134801428Y-92474142D01*
X134801428Y-92619285D01*
X135527142Y-92764428D01*
X134366000Y-92256428D02*
X133785428Y-92256428D01*
X134148285Y-91748428D02*
X134148285Y-93054714D01*
X134075714Y-93199857D01*
X133930571Y-93272428D01*
X133785428Y-93272428D01*
X133495142Y-92256428D02*
X132914571Y-92256428D01*
X133277428Y-91748428D02*
X133277428Y-93054714D01*
X133204857Y-93199857D01*
X133059714Y-93272428D01*
X132914571Y-93272428D01*
X132334000Y-91748428D02*
X132334000Y-91821000D01*
X132406571Y-91966142D01*
X132479142Y-92038714D01*
X131753428Y-93199857D02*
X131608285Y-93272428D01*
X131318000Y-93272428D01*
X131172857Y-93199857D01*
X131100285Y-93054714D01*
X131100285Y-92982142D01*
X131172857Y-92837000D01*
X131318000Y-92764428D01*
X131535714Y-92764428D01*
X131680857Y-92691857D01*
X131753428Y-92546714D01*
X131753428Y-92474142D01*
X131680857Y-92329000D01*
X131535714Y-92256428D01*
X131318000Y-92256428D01*
X131172857Y-92329000D01*
X129431142Y-91748428D02*
X129068285Y-93272428D01*
X128778000Y-92183857D01*
X128487714Y-93272428D01*
X128124857Y-91748428D01*
X127326571Y-93272428D02*
X127471714Y-93199857D01*
X127544285Y-93127285D01*
X127616857Y-92982142D01*
X127616857Y-92546714D01*
X127544285Y-92401571D01*
X127471714Y-92329000D01*
X127326571Y-92256428D01*
X127108857Y-92256428D01*
X126963714Y-92329000D01*
X126891142Y-92401571D01*
X126818571Y-92546714D01*
X126818571Y-92982142D01*
X126891142Y-93127285D01*
X126963714Y-93199857D01*
X127108857Y-93272428D01*
X127326571Y-93272428D01*
X126165428Y-93272428D02*
X126165428Y-92256428D01*
X126165428Y-92546714D02*
X126092857Y-92401571D01*
X126020285Y-92329000D01*
X125875142Y-92256428D01*
X125730000Y-92256428D01*
X125222000Y-93272428D02*
X125222000Y-91748428D01*
X125076857Y-92691857D02*
X124641428Y-93272428D01*
X124641428Y-92256428D02*
X125222000Y-92837000D01*
X124060857Y-93199857D02*
X123915714Y-93272428D01*
X123625428Y-93272428D01*
X123480285Y-93199857D01*
X123407714Y-93054714D01*
X123407714Y-92982142D01*
X123480285Y-92837000D01*
X123625428Y-92764428D01*
X123843142Y-92764428D01*
X123988285Y-92691857D01*
X124060857Y-92546714D01*
X124060857Y-92474142D01*
X123988285Y-92329000D01*
X123843142Y-92256428D01*
X123625428Y-92256428D01*
X123480285Y-92329000D01*
X122754571Y-93272428D02*
X122754571Y-91748428D01*
X122101428Y-93272428D02*
X122101428Y-92474142D01*
X122174000Y-92329000D01*
X122319142Y-92256428D01*
X122536857Y-92256428D01*
X122682000Y-92329000D01*
X122754571Y-92401571D01*
X121158000Y-93272428D02*
X121303142Y-93199857D01*
X121375714Y-93127285D01*
X121448285Y-92982142D01*
X121448285Y-92546714D01*
X121375714Y-92401571D01*
X121303142Y-92329000D01*
X121158000Y-92256428D01*
X120940285Y-92256428D01*
X120795142Y-92329000D01*
X120722571Y-92401571D01*
X120650000Y-92546714D01*
X120650000Y-92982142D01*
X120722571Y-93127285D01*
X120795142Y-93199857D01*
X120940285Y-93272428D01*
X121158000Y-93272428D01*
X119996857Y-92256428D02*
X119996857Y-93780428D01*
X119996857Y-92329000D02*
X119851714Y-92256428D01*
X119561428Y-92256428D01*
X119416285Y-92329000D01*
X119343714Y-92401571D01*
X119271142Y-92546714D01*
X119271142Y-92982142D01*
X119343714Y-93127285D01*
X119416285Y-93199857D01*
X119561428Y-93272428D01*
X119851714Y-93272428D01*
X119996857Y-93199857D01*
D10*
X99531714Y-95050428D02*
X99531714Y-96066428D01*
X99894571Y-94469857D02*
X100257428Y-95558428D01*
X99314000Y-95558428D01*
X97572285Y-96066428D02*
X97572285Y-94542428D01*
X97064285Y-95631000D01*
X96556285Y-94542428D01*
X96556285Y-96066428D01*
X95322571Y-95268142D02*
X95104857Y-95340714D01*
X95032285Y-95413285D01*
X94959714Y-95558428D01*
X94959714Y-95776142D01*
X95032285Y-95921285D01*
X95104857Y-95993857D01*
X95250000Y-96066428D01*
X95830571Y-96066428D01*
X95830571Y-94542428D01*
X95322571Y-94542428D01*
X95177428Y-94615000D01*
X95104857Y-94687571D01*
X95032285Y-94832714D01*
X95032285Y-94977857D01*
X95104857Y-95123000D01*
X95177428Y-95195571D01*
X95322571Y-95268142D01*
X95830571Y-95268142D01*
X92274571Y-96066428D02*
X92782571Y-95340714D01*
X93145428Y-96066428D02*
X93145428Y-94542428D01*
X92564857Y-94542428D01*
X92419714Y-94615000D01*
X92347142Y-94687571D01*
X92274571Y-94832714D01*
X92274571Y-95050428D01*
X92347142Y-95195571D01*
X92419714Y-95268142D01*
X92564857Y-95340714D01*
X93145428Y-95340714D01*
X91694000Y-95631000D02*
X90968285Y-95631000D01*
X91839142Y-96066428D02*
X91331142Y-94542428D01*
X90823142Y-96066428D01*
X90315142Y-96066428D02*
X90315142Y-94542428D01*
X89807142Y-95631000D01*
X89299142Y-94542428D01*
X89299142Y-96066428D01*
%LPC*%
D12*
G36*
X84349903Y-98732124D02*
G01*
X84396751Y-98739073D01*
X84442691Y-98750581D01*
X84487283Y-98766536D01*
X84530096Y-98786785D01*
X84570718Y-98811133D01*
X84608758Y-98839345D01*
X84643850Y-98871150D01*
X84675655Y-98906242D01*
X84703867Y-98944282D01*
X84728215Y-98984904D01*
X84748464Y-99027717D01*
X84764419Y-99072309D01*
X84775927Y-99118249D01*
X84782876Y-99165097D01*
X84785200Y-99212400D01*
X84785200Y-100939600D01*
X84782876Y-100986903D01*
X84775927Y-101033751D01*
X84764419Y-101079691D01*
X84748464Y-101124283D01*
X84728215Y-101167096D01*
X84703867Y-101207718D01*
X84675655Y-101245758D01*
X84643850Y-101280850D01*
X84608758Y-101312655D01*
X84570718Y-101340867D01*
X84530096Y-101365215D01*
X84487283Y-101385464D01*
X84442691Y-101401419D01*
X84396751Y-101412927D01*
X84349903Y-101419876D01*
X84302600Y-101422200D01*
X83337400Y-101422200D01*
X83290097Y-101419876D01*
X83243249Y-101412927D01*
X83197309Y-101401419D01*
X83152717Y-101385464D01*
X83109904Y-101365215D01*
X83069282Y-101340867D01*
X83031242Y-101312655D01*
X82996150Y-101280850D01*
X82964345Y-101245758D01*
X82936133Y-101207718D01*
X82911785Y-101167096D01*
X82891536Y-101124283D01*
X82875581Y-101079691D01*
X82864073Y-101033751D01*
X82857124Y-100986903D01*
X82854800Y-100939600D01*
X82854800Y-99212400D01*
X82857124Y-99165097D01*
X82864073Y-99118249D01*
X82875581Y-99072309D01*
X82891536Y-99027717D01*
X82911785Y-98984904D01*
X82936133Y-98944282D01*
X82964345Y-98906242D01*
X82996150Y-98871150D01*
X83031242Y-98839345D01*
X83069282Y-98811133D01*
X83109904Y-98786785D01*
X83152717Y-98766536D01*
X83197309Y-98750581D01*
X83243249Y-98739073D01*
X83290097Y-98732124D01*
X83337400Y-98729800D01*
X84302600Y-98729800D01*
X84349903Y-98732124D01*
G37*
G36*
X86889903Y-98732124D02*
G01*
X86936751Y-98739073D01*
X86982691Y-98750581D01*
X87027283Y-98766536D01*
X87070096Y-98786785D01*
X87110718Y-98811133D01*
X87148758Y-98839345D01*
X87183850Y-98871150D01*
X87215655Y-98906242D01*
X87243867Y-98944282D01*
X87268215Y-98984904D01*
X87288464Y-99027717D01*
X87304419Y-99072309D01*
X87315927Y-99118249D01*
X87322876Y-99165097D01*
X87325200Y-99212400D01*
X87325200Y-100939600D01*
X87322876Y-100986903D01*
X87315927Y-101033751D01*
X87304419Y-101079691D01*
X87288464Y-101124283D01*
X87268215Y-101167096D01*
X87243867Y-101207718D01*
X87215655Y-101245758D01*
X87183850Y-101280850D01*
X87148758Y-101312655D01*
X87110718Y-101340867D01*
X87070096Y-101365215D01*
X87027283Y-101385464D01*
X86982691Y-101401419D01*
X86936751Y-101412927D01*
X86889903Y-101419876D01*
X86842600Y-101422200D01*
X85877400Y-101422200D01*
X85830097Y-101419876D01*
X85783249Y-101412927D01*
X85737309Y-101401419D01*
X85692717Y-101385464D01*
X85649904Y-101365215D01*
X85609282Y-101340867D01*
X85571242Y-101312655D01*
X85536150Y-101280850D01*
X85504345Y-101245758D01*
X85476133Y-101207718D01*
X85451785Y-101167096D01*
X85431536Y-101124283D01*
X85415581Y-101079691D01*
X85404073Y-101033751D01*
X85397124Y-100986903D01*
X85394800Y-100939600D01*
X85394800Y-99212400D01*
X85397124Y-99165097D01*
X85404073Y-99118249D01*
X85415581Y-99072309D01*
X85431536Y-99027717D01*
X85451785Y-98984904D01*
X85476133Y-98944282D01*
X85504345Y-98906242D01*
X85536150Y-98871150D01*
X85571242Y-98839345D01*
X85609282Y-98811133D01*
X85649904Y-98786785D01*
X85692717Y-98766536D01*
X85737309Y-98750581D01*
X85783249Y-98739073D01*
X85830097Y-98732124D01*
X85877400Y-98729800D01*
X86842600Y-98729800D01*
X86889903Y-98732124D01*
G37*
G36*
X89429903Y-98732124D02*
G01*
X89476751Y-98739073D01*
X89522691Y-98750581D01*
X89567283Y-98766536D01*
X89610096Y-98786785D01*
X89650718Y-98811133D01*
X89688758Y-98839345D01*
X89723850Y-98871150D01*
X89755655Y-98906242D01*
X89783867Y-98944282D01*
X89808215Y-98984904D01*
X89828464Y-99027717D01*
X89844419Y-99072309D01*
X89855927Y-99118249D01*
X89862876Y-99165097D01*
X89865200Y-99212400D01*
X89865200Y-100939600D01*
X89862876Y-100986903D01*
X89855927Y-101033751D01*
X89844419Y-101079691D01*
X89828464Y-101124283D01*
X89808215Y-101167096D01*
X89783867Y-101207718D01*
X89755655Y-101245758D01*
X89723850Y-101280850D01*
X89688758Y-101312655D01*
X89650718Y-101340867D01*
X89610096Y-101365215D01*
X89567283Y-101385464D01*
X89522691Y-101401419D01*
X89476751Y-101412927D01*
X89429903Y-101419876D01*
X89382600Y-101422200D01*
X88417400Y-101422200D01*
X88370097Y-101419876D01*
X88323249Y-101412927D01*
X88277309Y-101401419D01*
X88232717Y-101385464D01*
X88189904Y-101365215D01*
X88149282Y-101340867D01*
X88111242Y-101312655D01*
X88076150Y-101280850D01*
X88044345Y-101245758D01*
X88016133Y-101207718D01*
X87991785Y-101167096D01*
X87971536Y-101124283D01*
X87955581Y-101079691D01*
X87944073Y-101033751D01*
X87937124Y-100986903D01*
X87934800Y-100939600D01*
X87934800Y-99212400D01*
X87937124Y-99165097D01*
X87944073Y-99118249D01*
X87955581Y-99072309D01*
X87971536Y-99027717D01*
X87991785Y-98984904D01*
X88016133Y-98944282D01*
X88044345Y-98906242D01*
X88076150Y-98871150D01*
X88111242Y-98839345D01*
X88149282Y-98811133D01*
X88189904Y-98786785D01*
X88232717Y-98766536D01*
X88277309Y-98750581D01*
X88323249Y-98739073D01*
X88370097Y-98732124D01*
X88417400Y-98729800D01*
X89382600Y-98729800D01*
X89429903Y-98732124D01*
G37*
G36*
X91969903Y-98732124D02*
G01*
X92016751Y-98739073D01*
X92062691Y-98750581D01*
X92107283Y-98766536D01*
X92150096Y-98786785D01*
X92190718Y-98811133D01*
X92228758Y-98839345D01*
X92263850Y-98871150D01*
X92295655Y-98906242D01*
X92323867Y-98944282D01*
X92348215Y-98984904D01*
X92368464Y-99027717D01*
X92384419Y-99072309D01*
X92395927Y-99118249D01*
X92402876Y-99165097D01*
X92405200Y-99212400D01*
X92405200Y-100939600D01*
X92402876Y-100986903D01*
X92395927Y-101033751D01*
X92384419Y-101079691D01*
X92368464Y-101124283D01*
X92348215Y-101167096D01*
X92323867Y-101207718D01*
X92295655Y-101245758D01*
X92263850Y-101280850D01*
X92228758Y-101312655D01*
X92190718Y-101340867D01*
X92150096Y-101365215D01*
X92107283Y-101385464D01*
X92062691Y-101401419D01*
X92016751Y-101412927D01*
X91969903Y-101419876D01*
X91922600Y-101422200D01*
X90957400Y-101422200D01*
X90910097Y-101419876D01*
X90863249Y-101412927D01*
X90817309Y-101401419D01*
X90772717Y-101385464D01*
X90729904Y-101365215D01*
X90689282Y-101340867D01*
X90651242Y-101312655D01*
X90616150Y-101280850D01*
X90584345Y-101245758D01*
X90556133Y-101207718D01*
X90531785Y-101167096D01*
X90511536Y-101124283D01*
X90495581Y-101079691D01*
X90484073Y-101033751D01*
X90477124Y-100986903D01*
X90474800Y-100939600D01*
X90474800Y-99212400D01*
X90477124Y-99165097D01*
X90484073Y-99118249D01*
X90495581Y-99072309D01*
X90511536Y-99027717D01*
X90531785Y-98984904D01*
X90556133Y-98944282D01*
X90584345Y-98906242D01*
X90616150Y-98871150D01*
X90651242Y-98839345D01*
X90689282Y-98811133D01*
X90729904Y-98786785D01*
X90772717Y-98766536D01*
X90817309Y-98750581D01*
X90863249Y-98739073D01*
X90910097Y-98732124D01*
X90957400Y-98729800D01*
X91922600Y-98729800D01*
X91969903Y-98732124D01*
G37*
G36*
X94509903Y-98732124D02*
G01*
X94556751Y-98739073D01*
X94602691Y-98750581D01*
X94647283Y-98766536D01*
X94690096Y-98786785D01*
X94730718Y-98811133D01*
X94768758Y-98839345D01*
X94803850Y-98871150D01*
X94835655Y-98906242D01*
X94863867Y-98944282D01*
X94888215Y-98984904D01*
X94908464Y-99027717D01*
X94924419Y-99072309D01*
X94935927Y-99118249D01*
X94942876Y-99165097D01*
X94945200Y-99212400D01*
X94945200Y-100939600D01*
X94942876Y-100986903D01*
X94935927Y-101033751D01*
X94924419Y-101079691D01*
X94908464Y-101124283D01*
X94888215Y-101167096D01*
X94863867Y-101207718D01*
X94835655Y-101245758D01*
X94803850Y-101280850D01*
X94768758Y-101312655D01*
X94730718Y-101340867D01*
X94690096Y-101365215D01*
X94647283Y-101385464D01*
X94602691Y-101401419D01*
X94556751Y-101412927D01*
X94509903Y-101419876D01*
X94462600Y-101422200D01*
X93497400Y-101422200D01*
X93450097Y-101419876D01*
X93403249Y-101412927D01*
X93357309Y-101401419D01*
X93312717Y-101385464D01*
X93269904Y-101365215D01*
X93229282Y-101340867D01*
X93191242Y-101312655D01*
X93156150Y-101280850D01*
X93124345Y-101245758D01*
X93096133Y-101207718D01*
X93071785Y-101167096D01*
X93051536Y-101124283D01*
X93035581Y-101079691D01*
X93024073Y-101033751D01*
X93017124Y-100986903D01*
X93014800Y-100939600D01*
X93014800Y-99212400D01*
X93017124Y-99165097D01*
X93024073Y-99118249D01*
X93035581Y-99072309D01*
X93051536Y-99027717D01*
X93071785Y-98984904D01*
X93096133Y-98944282D01*
X93124345Y-98906242D01*
X93156150Y-98871150D01*
X93191242Y-98839345D01*
X93229282Y-98811133D01*
X93269904Y-98786785D01*
X93312717Y-98766536D01*
X93357309Y-98750581D01*
X93403249Y-98739073D01*
X93450097Y-98732124D01*
X93497400Y-98729800D01*
X94462600Y-98729800D01*
X94509903Y-98732124D01*
G37*
G36*
X97049903Y-98732124D02*
G01*
X97096751Y-98739073D01*
X97142691Y-98750581D01*
X97187283Y-98766536D01*
X97230096Y-98786785D01*
X97270718Y-98811133D01*
X97308758Y-98839345D01*
X97343850Y-98871150D01*
X97375655Y-98906242D01*
X97403867Y-98944282D01*
X97428215Y-98984904D01*
X97448464Y-99027717D01*
X97464419Y-99072309D01*
X97475927Y-99118249D01*
X97482876Y-99165097D01*
X97485200Y-99212400D01*
X97485200Y-100939600D01*
X97482876Y-100986903D01*
X97475927Y-101033751D01*
X97464419Y-101079691D01*
X97448464Y-101124283D01*
X97428215Y-101167096D01*
X97403867Y-101207718D01*
X97375655Y-101245758D01*
X97343850Y-101280850D01*
X97308758Y-101312655D01*
X97270718Y-101340867D01*
X97230096Y-101365215D01*
X97187283Y-101385464D01*
X97142691Y-101401419D01*
X97096751Y-101412927D01*
X97049903Y-101419876D01*
X97002600Y-101422200D01*
X96037400Y-101422200D01*
X95990097Y-101419876D01*
X95943249Y-101412927D01*
X95897309Y-101401419D01*
X95852717Y-101385464D01*
X95809904Y-101365215D01*
X95769282Y-101340867D01*
X95731242Y-101312655D01*
X95696150Y-101280850D01*
X95664345Y-101245758D01*
X95636133Y-101207718D01*
X95611785Y-101167096D01*
X95591536Y-101124283D01*
X95575581Y-101079691D01*
X95564073Y-101033751D01*
X95557124Y-100986903D01*
X95554800Y-100939600D01*
X95554800Y-99212400D01*
X95557124Y-99165097D01*
X95564073Y-99118249D01*
X95575581Y-99072309D01*
X95591536Y-99027717D01*
X95611785Y-98984904D01*
X95636133Y-98944282D01*
X95664345Y-98906242D01*
X95696150Y-98871150D01*
X95731242Y-98839345D01*
X95769282Y-98811133D01*
X95809904Y-98786785D01*
X95852717Y-98766536D01*
X95897309Y-98750581D01*
X95943249Y-98739073D01*
X95990097Y-98732124D01*
X96037400Y-98729800D01*
X97002600Y-98729800D01*
X97049903Y-98732124D01*
G37*
G36*
X99589903Y-98732124D02*
G01*
X99636751Y-98739073D01*
X99682691Y-98750581D01*
X99727283Y-98766536D01*
X99770096Y-98786785D01*
X99810718Y-98811133D01*
X99848758Y-98839345D01*
X99883850Y-98871150D01*
X99915655Y-98906242D01*
X99943867Y-98944282D01*
X99968215Y-98984904D01*
X99988464Y-99027717D01*
X100004419Y-99072309D01*
X100015927Y-99118249D01*
X100022876Y-99165097D01*
X100025200Y-99212400D01*
X100025200Y-100939600D01*
X100022876Y-100986903D01*
X100015927Y-101033751D01*
X100004419Y-101079691D01*
X99988464Y-101124283D01*
X99968215Y-101167096D01*
X99943867Y-101207718D01*
X99915655Y-101245758D01*
X99883850Y-101280850D01*
X99848758Y-101312655D01*
X99810718Y-101340867D01*
X99770096Y-101365215D01*
X99727283Y-101385464D01*
X99682691Y-101401419D01*
X99636751Y-101412927D01*
X99589903Y-101419876D01*
X99542600Y-101422200D01*
X98577400Y-101422200D01*
X98530097Y-101419876D01*
X98483249Y-101412927D01*
X98437309Y-101401419D01*
X98392717Y-101385464D01*
X98349904Y-101365215D01*
X98309282Y-101340867D01*
X98271242Y-101312655D01*
X98236150Y-101280850D01*
X98204345Y-101245758D01*
X98176133Y-101207718D01*
X98151785Y-101167096D01*
X98131536Y-101124283D01*
X98115581Y-101079691D01*
X98104073Y-101033751D01*
X98097124Y-100986903D01*
X98094800Y-100939600D01*
X98094800Y-99212400D01*
X98097124Y-99165097D01*
X98104073Y-99118249D01*
X98115581Y-99072309D01*
X98131536Y-99027717D01*
X98151785Y-98984904D01*
X98176133Y-98944282D01*
X98204345Y-98906242D01*
X98236150Y-98871150D01*
X98271242Y-98839345D01*
X98309282Y-98811133D01*
X98349904Y-98786785D01*
X98392717Y-98766536D01*
X98437309Y-98750581D01*
X98483249Y-98739073D01*
X98530097Y-98732124D01*
X98577400Y-98729800D01*
X99542600Y-98729800D01*
X99589903Y-98732124D01*
G37*
G36*
X102129903Y-98732124D02*
G01*
X102176751Y-98739073D01*
X102222691Y-98750581D01*
X102267283Y-98766536D01*
X102310096Y-98786785D01*
X102350718Y-98811133D01*
X102388758Y-98839345D01*
X102423850Y-98871150D01*
X102455655Y-98906242D01*
X102483867Y-98944282D01*
X102508215Y-98984904D01*
X102528464Y-99027717D01*
X102544419Y-99072309D01*
X102555927Y-99118249D01*
X102562876Y-99165097D01*
X102565200Y-99212400D01*
X102565200Y-100939600D01*
X102562876Y-100986903D01*
X102555927Y-101033751D01*
X102544419Y-101079691D01*
X102528464Y-101124283D01*
X102508215Y-101167096D01*
X102483867Y-101207718D01*
X102455655Y-101245758D01*
X102423850Y-101280850D01*
X102388758Y-101312655D01*
X102350718Y-101340867D01*
X102310096Y-101365215D01*
X102267283Y-101385464D01*
X102222691Y-101401419D01*
X102176751Y-101412927D01*
X102129903Y-101419876D01*
X102082600Y-101422200D01*
X101117400Y-101422200D01*
X101070097Y-101419876D01*
X101023249Y-101412927D01*
X100977309Y-101401419D01*
X100932717Y-101385464D01*
X100889904Y-101365215D01*
X100849282Y-101340867D01*
X100811242Y-101312655D01*
X100776150Y-101280850D01*
X100744345Y-101245758D01*
X100716133Y-101207718D01*
X100691785Y-101167096D01*
X100671536Y-101124283D01*
X100655581Y-101079691D01*
X100644073Y-101033751D01*
X100637124Y-100986903D01*
X100634800Y-100939600D01*
X100634800Y-99212400D01*
X100637124Y-99165097D01*
X100644073Y-99118249D01*
X100655581Y-99072309D01*
X100671536Y-99027717D01*
X100691785Y-98984904D01*
X100716133Y-98944282D01*
X100744345Y-98906242D01*
X100776150Y-98871150D01*
X100811242Y-98839345D01*
X100849282Y-98811133D01*
X100889904Y-98786785D01*
X100932717Y-98766536D01*
X100977309Y-98750581D01*
X101023249Y-98739073D01*
X101070097Y-98732124D01*
X101117400Y-98729800D01*
X102082600Y-98729800D01*
X102129903Y-98732124D01*
G37*
G36*
X104669903Y-98732124D02*
G01*
X104716751Y-98739073D01*
X104762691Y-98750581D01*
X104807283Y-98766536D01*
X104850096Y-98786785D01*
X104890718Y-98811133D01*
X104928758Y-98839345D01*
X104963850Y-98871150D01*
X104995655Y-98906242D01*
X105023867Y-98944282D01*
X105048215Y-98984904D01*
X105068464Y-99027717D01*
X105084419Y-99072309D01*
X105095927Y-99118249D01*
X105102876Y-99165097D01*
X105105200Y-99212400D01*
X105105200Y-100939600D01*
X105102876Y-100986903D01*
X105095927Y-101033751D01*
X105084419Y-101079691D01*
X105068464Y-101124283D01*
X105048215Y-101167096D01*
X105023867Y-101207718D01*
X104995655Y-101245758D01*
X104963850Y-101280850D01*
X104928758Y-101312655D01*
X104890718Y-101340867D01*
X104850096Y-101365215D01*
X104807283Y-101385464D01*
X104762691Y-101401419D01*
X104716751Y-101412927D01*
X104669903Y-101419876D01*
X104622600Y-101422200D01*
X103657400Y-101422200D01*
X103610097Y-101419876D01*
X103563249Y-101412927D01*
X103517309Y-101401419D01*
X103472717Y-101385464D01*
X103429904Y-101365215D01*
X103389282Y-101340867D01*
X103351242Y-101312655D01*
X103316150Y-101280850D01*
X103284345Y-101245758D01*
X103256133Y-101207718D01*
X103231785Y-101167096D01*
X103211536Y-101124283D01*
X103195581Y-101079691D01*
X103184073Y-101033751D01*
X103177124Y-100986903D01*
X103174800Y-100939600D01*
X103174800Y-99212400D01*
X103177124Y-99165097D01*
X103184073Y-99118249D01*
X103195581Y-99072309D01*
X103211536Y-99027717D01*
X103231785Y-98984904D01*
X103256133Y-98944282D01*
X103284345Y-98906242D01*
X103316150Y-98871150D01*
X103351242Y-98839345D01*
X103389282Y-98811133D01*
X103429904Y-98786785D01*
X103472717Y-98766536D01*
X103517309Y-98750581D01*
X103563249Y-98739073D01*
X103610097Y-98732124D01*
X103657400Y-98729800D01*
X104622600Y-98729800D01*
X104669903Y-98732124D01*
G37*
G36*
X107209903Y-98732124D02*
G01*
X107256751Y-98739073D01*
X107302691Y-98750581D01*
X107347283Y-98766536D01*
X107390096Y-98786785D01*
X107430718Y-98811133D01*
X107468758Y-98839345D01*
X107503850Y-98871150D01*
X107535655Y-98906242D01*
X107563867Y-98944282D01*
X107588215Y-98984904D01*
X107608464Y-99027717D01*
X107624419Y-99072309D01*
X107635927Y-99118249D01*
X107642876Y-99165097D01*
X107645200Y-99212400D01*
X107645200Y-100939600D01*
X107642876Y-100986903D01*
X107635927Y-101033751D01*
X107624419Y-101079691D01*
X107608464Y-101124283D01*
X107588215Y-101167096D01*
X107563867Y-101207718D01*
X107535655Y-101245758D01*
X107503850Y-101280850D01*
X107468758Y-101312655D01*
X107430718Y-101340867D01*
X107390096Y-101365215D01*
X107347283Y-101385464D01*
X107302691Y-101401419D01*
X107256751Y-101412927D01*
X107209903Y-101419876D01*
X107162600Y-101422200D01*
X106197400Y-101422200D01*
X106150097Y-101419876D01*
X106103249Y-101412927D01*
X106057309Y-101401419D01*
X106012717Y-101385464D01*
X105969904Y-101365215D01*
X105929282Y-101340867D01*
X105891242Y-101312655D01*
X105856150Y-101280850D01*
X105824345Y-101245758D01*
X105796133Y-101207718D01*
X105771785Y-101167096D01*
X105751536Y-101124283D01*
X105735581Y-101079691D01*
X105724073Y-101033751D01*
X105717124Y-100986903D01*
X105714800Y-100939600D01*
X105714800Y-99212400D01*
X105717124Y-99165097D01*
X105724073Y-99118249D01*
X105735581Y-99072309D01*
X105751536Y-99027717D01*
X105771785Y-98984904D01*
X105796133Y-98944282D01*
X105824345Y-98906242D01*
X105856150Y-98871150D01*
X105891242Y-98839345D01*
X105929282Y-98811133D01*
X105969904Y-98786785D01*
X106012717Y-98766536D01*
X106057309Y-98750581D01*
X106103249Y-98739073D01*
X106150097Y-98732124D01*
X106197400Y-98729800D01*
X107162600Y-98729800D01*
X107209903Y-98732124D01*
G37*
G36*
X109749903Y-98732124D02*
G01*
X109796751Y-98739073D01*
X109842691Y-98750581D01*
X109887283Y-98766536D01*
X109930096Y-98786785D01*
X109970718Y-98811133D01*
X110008758Y-98839345D01*
X110043850Y-98871150D01*
X110075655Y-98906242D01*
X110103867Y-98944282D01*
X110128215Y-98984904D01*
X110148464Y-99027717D01*
X110164419Y-99072309D01*
X110175927Y-99118249D01*
X110182876Y-99165097D01*
X110185200Y-99212400D01*
X110185200Y-100939600D01*
X110182876Y-100986903D01*
X110175927Y-101033751D01*
X110164419Y-101079691D01*
X110148464Y-101124283D01*
X110128215Y-101167096D01*
X110103867Y-101207718D01*
X110075655Y-101245758D01*
X110043850Y-101280850D01*
X110008758Y-101312655D01*
X109970718Y-101340867D01*
X109930096Y-101365215D01*
X109887283Y-101385464D01*
X109842691Y-101401419D01*
X109796751Y-101412927D01*
X109749903Y-101419876D01*
X109702600Y-101422200D01*
X108737400Y-101422200D01*
X108690097Y-101419876D01*
X108643249Y-101412927D01*
X108597309Y-101401419D01*
X108552717Y-101385464D01*
X108509904Y-101365215D01*
X108469282Y-101340867D01*
X108431242Y-101312655D01*
X108396150Y-101280850D01*
X108364345Y-101245758D01*
X108336133Y-101207718D01*
X108311785Y-101167096D01*
X108291536Y-101124283D01*
X108275581Y-101079691D01*
X108264073Y-101033751D01*
X108257124Y-100986903D01*
X108254800Y-100939600D01*
X108254800Y-99212400D01*
X108257124Y-99165097D01*
X108264073Y-99118249D01*
X108275581Y-99072309D01*
X108291536Y-99027717D01*
X108311785Y-98984904D01*
X108336133Y-98944282D01*
X108364345Y-98906242D01*
X108396150Y-98871150D01*
X108431242Y-98839345D01*
X108469282Y-98811133D01*
X108509904Y-98786785D01*
X108552717Y-98766536D01*
X108597309Y-98750581D01*
X108643249Y-98739073D01*
X108690097Y-98732124D01*
X108737400Y-98729800D01*
X109702600Y-98729800D01*
X109749903Y-98732124D01*
G37*
G36*
X112289903Y-98732124D02*
G01*
X112336751Y-98739073D01*
X112382691Y-98750581D01*
X112427283Y-98766536D01*
X112470096Y-98786785D01*
X112510718Y-98811133D01*
X112548758Y-98839345D01*
X112583850Y-98871150D01*
X112615655Y-98906242D01*
X112643867Y-98944282D01*
X112668215Y-98984904D01*
X112688464Y-99027717D01*
X112704419Y-99072309D01*
X112715927Y-99118249D01*
X112722876Y-99165097D01*
X112725200Y-99212400D01*
X112725200Y-100939600D01*
X112722876Y-100986903D01*
X112715927Y-101033751D01*
X112704419Y-101079691D01*
X112688464Y-101124283D01*
X112668215Y-101167096D01*
X112643867Y-101207718D01*
X112615655Y-101245758D01*
X112583850Y-101280850D01*
X112548758Y-101312655D01*
X112510718Y-101340867D01*
X112470096Y-101365215D01*
X112427283Y-101385464D01*
X112382691Y-101401419D01*
X112336751Y-101412927D01*
X112289903Y-101419876D01*
X112242600Y-101422200D01*
X111277400Y-101422200D01*
X111230097Y-101419876D01*
X111183249Y-101412927D01*
X111137309Y-101401419D01*
X111092717Y-101385464D01*
X111049904Y-101365215D01*
X111009282Y-101340867D01*
X110971242Y-101312655D01*
X110936150Y-101280850D01*
X110904345Y-101245758D01*
X110876133Y-101207718D01*
X110851785Y-101167096D01*
X110831536Y-101124283D01*
X110815581Y-101079691D01*
X110804073Y-101033751D01*
X110797124Y-100986903D01*
X110794800Y-100939600D01*
X110794800Y-99212400D01*
X110797124Y-99165097D01*
X110804073Y-99118249D01*
X110815581Y-99072309D01*
X110831536Y-99027717D01*
X110851785Y-98984904D01*
X110876133Y-98944282D01*
X110904345Y-98906242D01*
X110936150Y-98871150D01*
X110971242Y-98839345D01*
X111009282Y-98811133D01*
X111049904Y-98786785D01*
X111092717Y-98766536D01*
X111137309Y-98750581D01*
X111183249Y-98739073D01*
X111230097Y-98732124D01*
X111277400Y-98729800D01*
X112242600Y-98729800D01*
X112289903Y-98732124D01*
G37*
G36*
X114829903Y-98732124D02*
G01*
X114876751Y-98739073D01*
X114922691Y-98750581D01*
X114967283Y-98766536D01*
X115010096Y-98786785D01*
X115050718Y-98811133D01*
X115088758Y-98839345D01*
X115123850Y-98871150D01*
X115155655Y-98906242D01*
X115183867Y-98944282D01*
X115208215Y-98984904D01*
X115228464Y-99027717D01*
X115244419Y-99072309D01*
X115255927Y-99118249D01*
X115262876Y-99165097D01*
X115265200Y-99212400D01*
X115265200Y-100939600D01*
X115262876Y-100986903D01*
X115255927Y-101033751D01*
X115244419Y-101079691D01*
X115228464Y-101124283D01*
X115208215Y-101167096D01*
X115183867Y-101207718D01*
X115155655Y-101245758D01*
X115123850Y-101280850D01*
X115088758Y-101312655D01*
X115050718Y-101340867D01*
X115010096Y-101365215D01*
X114967283Y-101385464D01*
X114922691Y-101401419D01*
X114876751Y-101412927D01*
X114829903Y-101419876D01*
X114782600Y-101422200D01*
X113817400Y-101422200D01*
X113770097Y-101419876D01*
X113723249Y-101412927D01*
X113677309Y-101401419D01*
X113632717Y-101385464D01*
X113589904Y-101365215D01*
X113549282Y-101340867D01*
X113511242Y-101312655D01*
X113476150Y-101280850D01*
X113444345Y-101245758D01*
X113416133Y-101207718D01*
X113391785Y-101167096D01*
X113371536Y-101124283D01*
X113355581Y-101079691D01*
X113344073Y-101033751D01*
X113337124Y-100986903D01*
X113334800Y-100939600D01*
X113334800Y-99212400D01*
X113337124Y-99165097D01*
X113344073Y-99118249D01*
X113355581Y-99072309D01*
X113371536Y-99027717D01*
X113391785Y-98984904D01*
X113416133Y-98944282D01*
X113444345Y-98906242D01*
X113476150Y-98871150D01*
X113511242Y-98839345D01*
X113549282Y-98811133D01*
X113589904Y-98786785D01*
X113632717Y-98766536D01*
X113677309Y-98750581D01*
X113723249Y-98739073D01*
X113770097Y-98732124D01*
X113817400Y-98729800D01*
X114782600Y-98729800D01*
X114829903Y-98732124D01*
G37*
G36*
X117369903Y-98732124D02*
G01*
X117416751Y-98739073D01*
X117462691Y-98750581D01*
X117507283Y-98766536D01*
X117550096Y-98786785D01*
X117590718Y-98811133D01*
X117628758Y-98839345D01*
X117663850Y-98871150D01*
X117695655Y-98906242D01*
X117723867Y-98944282D01*
X117748215Y-98984904D01*
X117768464Y-99027717D01*
X117784419Y-99072309D01*
X117795927Y-99118249D01*
X117802876Y-99165097D01*
X117805200Y-99212400D01*
X117805200Y-100939600D01*
X117802876Y-100986903D01*
X117795927Y-101033751D01*
X117784419Y-101079691D01*
X117768464Y-101124283D01*
X117748215Y-101167096D01*
X117723867Y-101207718D01*
X117695655Y-101245758D01*
X117663850Y-101280850D01*
X117628758Y-101312655D01*
X117590718Y-101340867D01*
X117550096Y-101365215D01*
X117507283Y-101385464D01*
X117462691Y-101401419D01*
X117416751Y-101412927D01*
X117369903Y-101419876D01*
X117322600Y-101422200D01*
X116357400Y-101422200D01*
X116310097Y-101419876D01*
X116263249Y-101412927D01*
X116217309Y-101401419D01*
X116172717Y-101385464D01*
X116129904Y-101365215D01*
X116089282Y-101340867D01*
X116051242Y-101312655D01*
X116016150Y-101280850D01*
X115984345Y-101245758D01*
X115956133Y-101207718D01*
X115931785Y-101167096D01*
X115911536Y-101124283D01*
X115895581Y-101079691D01*
X115884073Y-101033751D01*
X115877124Y-100986903D01*
X115874800Y-100939600D01*
X115874800Y-99212400D01*
X115877124Y-99165097D01*
X115884073Y-99118249D01*
X115895581Y-99072309D01*
X115911536Y-99027717D01*
X115931785Y-98984904D01*
X115956133Y-98944282D01*
X115984345Y-98906242D01*
X116016150Y-98871150D01*
X116051242Y-98839345D01*
X116089282Y-98811133D01*
X116129904Y-98786785D01*
X116172717Y-98766536D01*
X116217309Y-98750581D01*
X116263249Y-98739073D01*
X116310097Y-98732124D01*
X116357400Y-98729800D01*
X117322600Y-98729800D01*
X117369903Y-98732124D01*
G37*
G36*
X119909903Y-98732124D02*
G01*
X119956751Y-98739073D01*
X120002691Y-98750581D01*
X120047283Y-98766536D01*
X120090096Y-98786785D01*
X120130718Y-98811133D01*
X120168758Y-98839345D01*
X120203850Y-98871150D01*
X120235655Y-98906242D01*
X120263867Y-98944282D01*
X120288215Y-98984904D01*
X120308464Y-99027717D01*
X120324419Y-99072309D01*
X120335927Y-99118249D01*
X120342876Y-99165097D01*
X120345200Y-99212400D01*
X120345200Y-100939600D01*
X120342876Y-100986903D01*
X120335927Y-101033751D01*
X120324419Y-101079691D01*
X120308464Y-101124283D01*
X120288215Y-101167096D01*
X120263867Y-101207718D01*
X120235655Y-101245758D01*
X120203850Y-101280850D01*
X120168758Y-101312655D01*
X120130718Y-101340867D01*
X120090096Y-101365215D01*
X120047283Y-101385464D01*
X120002691Y-101401419D01*
X119956751Y-101412927D01*
X119909903Y-101419876D01*
X119862600Y-101422200D01*
X118897400Y-101422200D01*
X118850097Y-101419876D01*
X118803249Y-101412927D01*
X118757309Y-101401419D01*
X118712717Y-101385464D01*
X118669904Y-101365215D01*
X118629282Y-101340867D01*
X118591242Y-101312655D01*
X118556150Y-101280850D01*
X118524345Y-101245758D01*
X118496133Y-101207718D01*
X118471785Y-101167096D01*
X118451536Y-101124283D01*
X118435581Y-101079691D01*
X118424073Y-101033751D01*
X118417124Y-100986903D01*
X118414800Y-100939600D01*
X118414800Y-99212400D01*
X118417124Y-99165097D01*
X118424073Y-99118249D01*
X118435581Y-99072309D01*
X118451536Y-99027717D01*
X118471785Y-98984904D01*
X118496133Y-98944282D01*
X118524345Y-98906242D01*
X118556150Y-98871150D01*
X118591242Y-98839345D01*
X118629282Y-98811133D01*
X118669904Y-98786785D01*
X118712717Y-98766536D01*
X118757309Y-98750581D01*
X118803249Y-98739073D01*
X118850097Y-98732124D01*
X118897400Y-98729800D01*
X119862600Y-98729800D01*
X119909903Y-98732124D01*
G37*
G36*
X122449903Y-98732124D02*
G01*
X122496751Y-98739073D01*
X122542691Y-98750581D01*
X122587283Y-98766536D01*
X122630096Y-98786785D01*
X122670718Y-98811133D01*
X122708758Y-98839345D01*
X122743850Y-98871150D01*
X122775655Y-98906242D01*
X122803867Y-98944282D01*
X122828215Y-98984904D01*
X122848464Y-99027717D01*
X122864419Y-99072309D01*
X122875927Y-99118249D01*
X122882876Y-99165097D01*
X122885200Y-99212400D01*
X122885200Y-100939600D01*
X122882876Y-100986903D01*
X122875927Y-101033751D01*
X122864419Y-101079691D01*
X122848464Y-101124283D01*
X122828215Y-101167096D01*
X122803867Y-101207718D01*
X122775655Y-101245758D01*
X122743850Y-101280850D01*
X122708758Y-101312655D01*
X122670718Y-101340867D01*
X122630096Y-101365215D01*
X122587283Y-101385464D01*
X122542691Y-101401419D01*
X122496751Y-101412927D01*
X122449903Y-101419876D01*
X122402600Y-101422200D01*
X121437400Y-101422200D01*
X121390097Y-101419876D01*
X121343249Y-101412927D01*
X121297309Y-101401419D01*
X121252717Y-101385464D01*
X121209904Y-101365215D01*
X121169282Y-101340867D01*
X121131242Y-101312655D01*
X121096150Y-101280850D01*
X121064345Y-101245758D01*
X121036133Y-101207718D01*
X121011785Y-101167096D01*
X120991536Y-101124283D01*
X120975581Y-101079691D01*
X120964073Y-101033751D01*
X120957124Y-100986903D01*
X120954800Y-100939600D01*
X120954800Y-99212400D01*
X120957124Y-99165097D01*
X120964073Y-99118249D01*
X120975581Y-99072309D01*
X120991536Y-99027717D01*
X121011785Y-98984904D01*
X121036133Y-98944282D01*
X121064345Y-98906242D01*
X121096150Y-98871150D01*
X121131242Y-98839345D01*
X121169282Y-98811133D01*
X121209904Y-98786785D01*
X121252717Y-98766536D01*
X121297309Y-98750581D01*
X121343249Y-98739073D01*
X121390097Y-98732124D01*
X121437400Y-98729800D01*
X122402600Y-98729800D01*
X122449903Y-98732124D01*
G37*
G36*
X124989903Y-98732124D02*
G01*
X125036751Y-98739073D01*
X125082691Y-98750581D01*
X125127283Y-98766536D01*
X125170096Y-98786785D01*
X125210718Y-98811133D01*
X125248758Y-98839345D01*
X125283850Y-98871150D01*
X125315655Y-98906242D01*
X125343867Y-98944282D01*
X125368215Y-98984904D01*
X125388464Y-99027717D01*
X125404419Y-99072309D01*
X125415927Y-99118249D01*
X125422876Y-99165097D01*
X125425200Y-99212400D01*
X125425200Y-100939600D01*
X125422876Y-100986903D01*
X125415927Y-101033751D01*
X125404419Y-101079691D01*
X125388464Y-101124283D01*
X125368215Y-101167096D01*
X125343867Y-101207718D01*
X125315655Y-101245758D01*
X125283850Y-101280850D01*
X125248758Y-101312655D01*
X125210718Y-101340867D01*
X125170096Y-101365215D01*
X125127283Y-101385464D01*
X125082691Y-101401419D01*
X125036751Y-101412927D01*
X124989903Y-101419876D01*
X124942600Y-101422200D01*
X123977400Y-101422200D01*
X123930097Y-101419876D01*
X123883249Y-101412927D01*
X123837309Y-101401419D01*
X123792717Y-101385464D01*
X123749904Y-101365215D01*
X123709282Y-101340867D01*
X123671242Y-101312655D01*
X123636150Y-101280850D01*
X123604345Y-101245758D01*
X123576133Y-101207718D01*
X123551785Y-101167096D01*
X123531536Y-101124283D01*
X123515581Y-101079691D01*
X123504073Y-101033751D01*
X123497124Y-100986903D01*
X123494800Y-100939600D01*
X123494800Y-99212400D01*
X123497124Y-99165097D01*
X123504073Y-99118249D01*
X123515581Y-99072309D01*
X123531536Y-99027717D01*
X123551785Y-98984904D01*
X123576133Y-98944282D01*
X123604345Y-98906242D01*
X123636150Y-98871150D01*
X123671242Y-98839345D01*
X123709282Y-98811133D01*
X123749904Y-98786785D01*
X123792717Y-98766536D01*
X123837309Y-98750581D01*
X123883249Y-98739073D01*
X123930097Y-98732124D01*
X123977400Y-98729800D01*
X124942600Y-98729800D01*
X124989903Y-98732124D01*
G37*
G36*
X127529903Y-98732124D02*
G01*
X127576751Y-98739073D01*
X127622691Y-98750581D01*
X127667283Y-98766536D01*
X127710096Y-98786785D01*
X127750718Y-98811133D01*
X127788758Y-98839345D01*
X127823850Y-98871150D01*
X127855655Y-98906242D01*
X127883867Y-98944282D01*
X127908215Y-98984904D01*
X127928464Y-99027717D01*
X127944419Y-99072309D01*
X127955927Y-99118249D01*
X127962876Y-99165097D01*
X127965200Y-99212400D01*
X127965200Y-100939600D01*
X127962876Y-100986903D01*
X127955927Y-101033751D01*
X127944419Y-101079691D01*
X127928464Y-101124283D01*
X127908215Y-101167096D01*
X127883867Y-101207718D01*
X127855655Y-101245758D01*
X127823850Y-101280850D01*
X127788758Y-101312655D01*
X127750718Y-101340867D01*
X127710096Y-101365215D01*
X127667283Y-101385464D01*
X127622691Y-101401419D01*
X127576751Y-101412927D01*
X127529903Y-101419876D01*
X127482600Y-101422200D01*
X126517400Y-101422200D01*
X126470097Y-101419876D01*
X126423249Y-101412927D01*
X126377309Y-101401419D01*
X126332717Y-101385464D01*
X126289904Y-101365215D01*
X126249282Y-101340867D01*
X126211242Y-101312655D01*
X126176150Y-101280850D01*
X126144345Y-101245758D01*
X126116133Y-101207718D01*
X126091785Y-101167096D01*
X126071536Y-101124283D01*
X126055581Y-101079691D01*
X126044073Y-101033751D01*
X126037124Y-100986903D01*
X126034800Y-100939600D01*
X126034800Y-99212400D01*
X126037124Y-99165097D01*
X126044073Y-99118249D01*
X126055581Y-99072309D01*
X126071536Y-99027717D01*
X126091785Y-98984904D01*
X126116133Y-98944282D01*
X126144345Y-98906242D01*
X126176150Y-98871150D01*
X126211242Y-98839345D01*
X126249282Y-98811133D01*
X126289904Y-98786785D01*
X126332717Y-98766536D01*
X126377309Y-98750581D01*
X126423249Y-98739073D01*
X126470097Y-98732124D01*
X126517400Y-98729800D01*
X127482600Y-98729800D01*
X127529903Y-98732124D01*
G37*
G36*
X130069903Y-98732124D02*
G01*
X130116751Y-98739073D01*
X130162691Y-98750581D01*
X130207283Y-98766536D01*
X130250096Y-98786785D01*
X130290718Y-98811133D01*
X130328758Y-98839345D01*
X130363850Y-98871150D01*
X130395655Y-98906242D01*
X130423867Y-98944282D01*
X130448215Y-98984904D01*
X130468464Y-99027717D01*
X130484419Y-99072309D01*
X130495927Y-99118249D01*
X130502876Y-99165097D01*
X130505200Y-99212400D01*
X130505200Y-100939600D01*
X130502876Y-100986903D01*
X130495927Y-101033751D01*
X130484419Y-101079691D01*
X130468464Y-101124283D01*
X130448215Y-101167096D01*
X130423867Y-101207718D01*
X130395655Y-101245758D01*
X130363850Y-101280850D01*
X130328758Y-101312655D01*
X130290718Y-101340867D01*
X130250096Y-101365215D01*
X130207283Y-101385464D01*
X130162691Y-101401419D01*
X130116751Y-101412927D01*
X130069903Y-101419876D01*
X130022600Y-101422200D01*
X129057400Y-101422200D01*
X129010097Y-101419876D01*
X128963249Y-101412927D01*
X128917309Y-101401419D01*
X128872717Y-101385464D01*
X128829904Y-101365215D01*
X128789282Y-101340867D01*
X128751242Y-101312655D01*
X128716150Y-101280850D01*
X128684345Y-101245758D01*
X128656133Y-101207718D01*
X128631785Y-101167096D01*
X128611536Y-101124283D01*
X128595581Y-101079691D01*
X128584073Y-101033751D01*
X128577124Y-100986903D01*
X128574800Y-100939600D01*
X128574800Y-99212400D01*
X128577124Y-99165097D01*
X128584073Y-99118249D01*
X128595581Y-99072309D01*
X128611536Y-99027717D01*
X128631785Y-98984904D01*
X128656133Y-98944282D01*
X128684345Y-98906242D01*
X128716150Y-98871150D01*
X128751242Y-98839345D01*
X128789282Y-98811133D01*
X128829904Y-98786785D01*
X128872717Y-98766536D01*
X128917309Y-98750581D01*
X128963249Y-98739073D01*
X129010097Y-98732124D01*
X129057400Y-98729800D01*
X130022600Y-98729800D01*
X130069903Y-98732124D01*
G37*
G36*
X132609903Y-98732124D02*
G01*
X132656751Y-98739073D01*
X132702691Y-98750581D01*
X132747283Y-98766536D01*
X132790096Y-98786785D01*
X132830718Y-98811133D01*
X132868758Y-98839345D01*
X132903850Y-98871150D01*
X132935655Y-98906242D01*
X132963867Y-98944282D01*
X132988215Y-98984904D01*
X133008464Y-99027717D01*
X133024419Y-99072309D01*
X133035927Y-99118249D01*
X133042876Y-99165097D01*
X133045200Y-99212400D01*
X133045200Y-100939600D01*
X133042876Y-100986903D01*
X133035927Y-101033751D01*
X133024419Y-101079691D01*
X133008464Y-101124283D01*
X132988215Y-101167096D01*
X132963867Y-101207718D01*
X132935655Y-101245758D01*
X132903850Y-101280850D01*
X132868758Y-101312655D01*
X132830718Y-101340867D01*
X132790096Y-101365215D01*
X132747283Y-101385464D01*
X132702691Y-101401419D01*
X132656751Y-101412927D01*
X132609903Y-101419876D01*
X132562600Y-101422200D01*
X131597400Y-101422200D01*
X131550097Y-101419876D01*
X131503249Y-101412927D01*
X131457309Y-101401419D01*
X131412717Y-101385464D01*
X131369904Y-101365215D01*
X131329282Y-101340867D01*
X131291242Y-101312655D01*
X131256150Y-101280850D01*
X131224345Y-101245758D01*
X131196133Y-101207718D01*
X131171785Y-101167096D01*
X131151536Y-101124283D01*
X131135581Y-101079691D01*
X131124073Y-101033751D01*
X131117124Y-100986903D01*
X131114800Y-100939600D01*
X131114800Y-99212400D01*
X131117124Y-99165097D01*
X131124073Y-99118249D01*
X131135581Y-99072309D01*
X131151536Y-99027717D01*
X131171785Y-98984904D01*
X131196133Y-98944282D01*
X131224345Y-98906242D01*
X131256150Y-98871150D01*
X131291242Y-98839345D01*
X131329282Y-98811133D01*
X131369904Y-98786785D01*
X131412717Y-98766536D01*
X131457309Y-98750581D01*
X131503249Y-98739073D01*
X131550097Y-98732124D01*
X131597400Y-98729800D01*
X132562600Y-98729800D01*
X132609903Y-98732124D01*
G37*
G36*
X135149903Y-98732124D02*
G01*
X135196751Y-98739073D01*
X135242691Y-98750581D01*
X135287283Y-98766536D01*
X135330096Y-98786785D01*
X135370718Y-98811133D01*
X135408758Y-98839345D01*
X135443850Y-98871150D01*
X135475655Y-98906242D01*
X135503867Y-98944282D01*
X135528215Y-98984904D01*
X135548464Y-99027717D01*
X135564419Y-99072309D01*
X135575927Y-99118249D01*
X135582876Y-99165097D01*
X135585200Y-99212400D01*
X135585200Y-100939600D01*
X135582876Y-100986903D01*
X135575927Y-101033751D01*
X135564419Y-101079691D01*
X135548464Y-101124283D01*
X135528215Y-101167096D01*
X135503867Y-101207718D01*
X135475655Y-101245758D01*
X135443850Y-101280850D01*
X135408758Y-101312655D01*
X135370718Y-101340867D01*
X135330096Y-101365215D01*
X135287283Y-101385464D01*
X135242691Y-101401419D01*
X135196751Y-101412927D01*
X135149903Y-101419876D01*
X135102600Y-101422200D01*
X134137400Y-101422200D01*
X134090097Y-101419876D01*
X134043249Y-101412927D01*
X133997309Y-101401419D01*
X133952717Y-101385464D01*
X133909904Y-101365215D01*
X133869282Y-101340867D01*
X133831242Y-101312655D01*
X133796150Y-101280850D01*
X133764345Y-101245758D01*
X133736133Y-101207718D01*
X133711785Y-101167096D01*
X133691536Y-101124283D01*
X133675581Y-101079691D01*
X133664073Y-101033751D01*
X133657124Y-100986903D01*
X133654800Y-100939600D01*
X133654800Y-99212400D01*
X133657124Y-99165097D01*
X133664073Y-99118249D01*
X133675581Y-99072309D01*
X133691536Y-99027717D01*
X133711785Y-98984904D01*
X133736133Y-98944282D01*
X133764345Y-98906242D01*
X133796150Y-98871150D01*
X133831242Y-98839345D01*
X133869282Y-98811133D01*
X133909904Y-98786785D01*
X133952717Y-98766536D01*
X133997309Y-98750581D01*
X134043249Y-98739073D01*
X134090097Y-98732124D01*
X134137400Y-98729800D01*
X135102600Y-98729800D01*
X135149903Y-98732124D01*
G37*
G36*
X137689903Y-98732124D02*
G01*
X137736751Y-98739073D01*
X137782691Y-98750581D01*
X137827283Y-98766536D01*
X137870096Y-98786785D01*
X137910718Y-98811133D01*
X137948758Y-98839345D01*
X137983850Y-98871150D01*
X138015655Y-98906242D01*
X138043867Y-98944282D01*
X138068215Y-98984904D01*
X138088464Y-99027717D01*
X138104419Y-99072309D01*
X138115927Y-99118249D01*
X138122876Y-99165097D01*
X138125200Y-99212400D01*
X138125200Y-100939600D01*
X138122876Y-100986903D01*
X138115927Y-101033751D01*
X138104419Y-101079691D01*
X138088464Y-101124283D01*
X138068215Y-101167096D01*
X138043867Y-101207718D01*
X138015655Y-101245758D01*
X137983850Y-101280850D01*
X137948758Y-101312655D01*
X137910718Y-101340867D01*
X137870096Y-101365215D01*
X137827283Y-101385464D01*
X137782691Y-101401419D01*
X137736751Y-101412927D01*
X137689903Y-101419876D01*
X137642600Y-101422200D01*
X136677400Y-101422200D01*
X136630097Y-101419876D01*
X136583249Y-101412927D01*
X136537309Y-101401419D01*
X136492717Y-101385464D01*
X136449904Y-101365215D01*
X136409282Y-101340867D01*
X136371242Y-101312655D01*
X136336150Y-101280850D01*
X136304345Y-101245758D01*
X136276133Y-101207718D01*
X136251785Y-101167096D01*
X136231536Y-101124283D01*
X136215581Y-101079691D01*
X136204073Y-101033751D01*
X136197124Y-100986903D01*
X136194800Y-100939600D01*
X136194800Y-99212400D01*
X136197124Y-99165097D01*
X136204073Y-99118249D01*
X136215581Y-99072309D01*
X136231536Y-99027717D01*
X136251785Y-98984904D01*
X136276133Y-98944282D01*
X136304345Y-98906242D01*
X136336150Y-98871150D01*
X136371242Y-98839345D01*
X136409282Y-98811133D01*
X136449904Y-98786785D01*
X136492717Y-98766536D01*
X136537309Y-98750581D01*
X136583249Y-98739073D01*
X136630097Y-98732124D01*
X136677400Y-98729800D01*
X137642600Y-98729800D01*
X137689903Y-98732124D01*
G37*
G36*
X140229903Y-98732124D02*
G01*
X140276751Y-98739073D01*
X140322691Y-98750581D01*
X140367283Y-98766536D01*
X140410096Y-98786785D01*
X140450718Y-98811133D01*
X140488758Y-98839345D01*
X140523850Y-98871150D01*
X140555655Y-98906242D01*
X140583867Y-98944282D01*
X140608215Y-98984904D01*
X140628464Y-99027717D01*
X140644419Y-99072309D01*
X140655927Y-99118249D01*
X140662876Y-99165097D01*
X140665200Y-99212400D01*
X140665200Y-100939600D01*
X140662876Y-100986903D01*
X140655927Y-101033751D01*
X140644419Y-101079691D01*
X140628464Y-101124283D01*
X140608215Y-101167096D01*
X140583867Y-101207718D01*
X140555655Y-101245758D01*
X140523850Y-101280850D01*
X140488758Y-101312655D01*
X140450718Y-101340867D01*
X140410096Y-101365215D01*
X140367283Y-101385464D01*
X140322691Y-101401419D01*
X140276751Y-101412927D01*
X140229903Y-101419876D01*
X140182600Y-101422200D01*
X139217400Y-101422200D01*
X139170097Y-101419876D01*
X139123249Y-101412927D01*
X139077309Y-101401419D01*
X139032717Y-101385464D01*
X138989904Y-101365215D01*
X138949282Y-101340867D01*
X138911242Y-101312655D01*
X138876150Y-101280850D01*
X138844345Y-101245758D01*
X138816133Y-101207718D01*
X138791785Y-101167096D01*
X138771536Y-101124283D01*
X138755581Y-101079691D01*
X138744073Y-101033751D01*
X138737124Y-100986903D01*
X138734800Y-100939600D01*
X138734800Y-99212400D01*
X138737124Y-99165097D01*
X138744073Y-99118249D01*
X138755581Y-99072309D01*
X138771536Y-99027717D01*
X138791785Y-98984904D01*
X138816133Y-98944282D01*
X138844345Y-98906242D01*
X138876150Y-98871150D01*
X138911242Y-98839345D01*
X138949282Y-98811133D01*
X138989904Y-98786785D01*
X139032717Y-98766536D01*
X139077309Y-98750581D01*
X139123249Y-98739073D01*
X139170097Y-98732124D01*
X139217400Y-98729800D01*
X140182600Y-98729800D01*
X140229903Y-98732124D01*
G37*
G36*
X142769903Y-98732124D02*
G01*
X142816751Y-98739073D01*
X142862691Y-98750581D01*
X142907283Y-98766536D01*
X142950096Y-98786785D01*
X142990718Y-98811133D01*
X143028758Y-98839345D01*
X143063850Y-98871150D01*
X143095655Y-98906242D01*
X143123867Y-98944282D01*
X143148215Y-98984904D01*
X143168464Y-99027717D01*
X143184419Y-99072309D01*
X143195927Y-99118249D01*
X143202876Y-99165097D01*
X143205200Y-99212400D01*
X143205200Y-100939600D01*
X143202876Y-100986903D01*
X143195927Y-101033751D01*
X143184419Y-101079691D01*
X143168464Y-101124283D01*
X143148215Y-101167096D01*
X143123867Y-101207718D01*
X143095655Y-101245758D01*
X143063850Y-101280850D01*
X143028758Y-101312655D01*
X142990718Y-101340867D01*
X142950096Y-101365215D01*
X142907283Y-101385464D01*
X142862691Y-101401419D01*
X142816751Y-101412927D01*
X142769903Y-101419876D01*
X142722600Y-101422200D01*
X141757400Y-101422200D01*
X141710097Y-101419876D01*
X141663249Y-101412927D01*
X141617309Y-101401419D01*
X141572717Y-101385464D01*
X141529904Y-101365215D01*
X141489282Y-101340867D01*
X141451242Y-101312655D01*
X141416150Y-101280850D01*
X141384345Y-101245758D01*
X141356133Y-101207718D01*
X141331785Y-101167096D01*
X141311536Y-101124283D01*
X141295581Y-101079691D01*
X141284073Y-101033751D01*
X141277124Y-100986903D01*
X141274800Y-100939600D01*
X141274800Y-99212400D01*
X141277124Y-99165097D01*
X141284073Y-99118249D01*
X141295581Y-99072309D01*
X141311536Y-99027717D01*
X141331785Y-98984904D01*
X141356133Y-98944282D01*
X141384345Y-98906242D01*
X141416150Y-98871150D01*
X141451242Y-98839345D01*
X141489282Y-98811133D01*
X141529904Y-98786785D01*
X141572717Y-98766536D01*
X141617309Y-98750581D01*
X141663249Y-98739073D01*
X141710097Y-98732124D01*
X141757400Y-98729800D01*
X142722600Y-98729800D01*
X142769903Y-98732124D01*
G37*
G36*
X145309903Y-98732124D02*
G01*
X145356751Y-98739073D01*
X145402691Y-98750581D01*
X145447283Y-98766536D01*
X145490096Y-98786785D01*
X145530718Y-98811133D01*
X145568758Y-98839345D01*
X145603850Y-98871150D01*
X145635655Y-98906242D01*
X145663867Y-98944282D01*
X145688215Y-98984904D01*
X145708464Y-99027717D01*
X145724419Y-99072309D01*
X145735927Y-99118249D01*
X145742876Y-99165097D01*
X145745200Y-99212400D01*
X145745200Y-100939600D01*
X145742876Y-100986903D01*
X145735927Y-101033751D01*
X145724419Y-101079691D01*
X145708464Y-101124283D01*
X145688215Y-101167096D01*
X145663867Y-101207718D01*
X145635655Y-101245758D01*
X145603850Y-101280850D01*
X145568758Y-101312655D01*
X145530718Y-101340867D01*
X145490096Y-101365215D01*
X145447283Y-101385464D01*
X145402691Y-101401419D01*
X145356751Y-101412927D01*
X145309903Y-101419876D01*
X145262600Y-101422200D01*
X144297400Y-101422200D01*
X144250097Y-101419876D01*
X144203249Y-101412927D01*
X144157309Y-101401419D01*
X144112717Y-101385464D01*
X144069904Y-101365215D01*
X144029282Y-101340867D01*
X143991242Y-101312655D01*
X143956150Y-101280850D01*
X143924345Y-101245758D01*
X143896133Y-101207718D01*
X143871785Y-101167096D01*
X143851536Y-101124283D01*
X143835581Y-101079691D01*
X143824073Y-101033751D01*
X143817124Y-100986903D01*
X143814800Y-100939600D01*
X143814800Y-99212400D01*
X143817124Y-99165097D01*
X143824073Y-99118249D01*
X143835581Y-99072309D01*
X143851536Y-99027717D01*
X143871785Y-98984904D01*
X143896133Y-98944282D01*
X143924345Y-98906242D01*
X143956150Y-98871150D01*
X143991242Y-98839345D01*
X144029282Y-98811133D01*
X144069904Y-98786785D01*
X144112717Y-98766536D01*
X144157309Y-98750581D01*
X144203249Y-98739073D01*
X144250097Y-98732124D01*
X144297400Y-98729800D01*
X145262600Y-98729800D01*
X145309903Y-98732124D01*
G37*
G36*
X147849903Y-98732124D02*
G01*
X147896751Y-98739073D01*
X147942691Y-98750581D01*
X147987283Y-98766536D01*
X148030096Y-98786785D01*
X148070718Y-98811133D01*
X148108758Y-98839345D01*
X148143850Y-98871150D01*
X148175655Y-98906242D01*
X148203867Y-98944282D01*
X148228215Y-98984904D01*
X148248464Y-99027717D01*
X148264419Y-99072309D01*
X148275927Y-99118249D01*
X148282876Y-99165097D01*
X148285200Y-99212400D01*
X148285200Y-100939600D01*
X148282876Y-100986903D01*
X148275927Y-101033751D01*
X148264419Y-101079691D01*
X148248464Y-101124283D01*
X148228215Y-101167096D01*
X148203867Y-101207718D01*
X148175655Y-101245758D01*
X148143850Y-101280850D01*
X148108758Y-101312655D01*
X148070718Y-101340867D01*
X148030096Y-101365215D01*
X147987283Y-101385464D01*
X147942691Y-101401419D01*
X147896751Y-101412927D01*
X147849903Y-101419876D01*
X147802600Y-101422200D01*
X146837400Y-101422200D01*
X146790097Y-101419876D01*
X146743249Y-101412927D01*
X146697309Y-101401419D01*
X146652717Y-101385464D01*
X146609904Y-101365215D01*
X146569282Y-101340867D01*
X146531242Y-101312655D01*
X146496150Y-101280850D01*
X146464345Y-101245758D01*
X146436133Y-101207718D01*
X146411785Y-101167096D01*
X146391536Y-101124283D01*
X146375581Y-101079691D01*
X146364073Y-101033751D01*
X146357124Y-100986903D01*
X146354800Y-100939600D01*
X146354800Y-99212400D01*
X146357124Y-99165097D01*
X146364073Y-99118249D01*
X146375581Y-99072309D01*
X146391536Y-99027717D01*
X146411785Y-98984904D01*
X146436133Y-98944282D01*
X146464345Y-98906242D01*
X146496150Y-98871150D01*
X146531242Y-98839345D01*
X146569282Y-98811133D01*
X146609904Y-98786785D01*
X146652717Y-98766536D01*
X146697309Y-98750581D01*
X146743249Y-98739073D01*
X146790097Y-98732124D01*
X146837400Y-98729800D01*
X147802600Y-98729800D01*
X147849903Y-98732124D01*
G37*
G36*
X150389903Y-98732124D02*
G01*
X150436751Y-98739073D01*
X150482691Y-98750581D01*
X150527283Y-98766536D01*
X150570096Y-98786785D01*
X150610718Y-98811133D01*
X150648758Y-98839345D01*
X150683850Y-98871150D01*
X150715655Y-98906242D01*
X150743867Y-98944282D01*
X150768215Y-98984904D01*
X150788464Y-99027717D01*
X150804419Y-99072309D01*
X150815927Y-99118249D01*
X150822876Y-99165097D01*
X150825200Y-99212400D01*
X150825200Y-100939600D01*
X150822876Y-100986903D01*
X150815927Y-101033751D01*
X150804419Y-101079691D01*
X150788464Y-101124283D01*
X150768215Y-101167096D01*
X150743867Y-101207718D01*
X150715655Y-101245758D01*
X150683850Y-101280850D01*
X150648758Y-101312655D01*
X150610718Y-101340867D01*
X150570096Y-101365215D01*
X150527283Y-101385464D01*
X150482691Y-101401419D01*
X150436751Y-101412927D01*
X150389903Y-101419876D01*
X150342600Y-101422200D01*
X149377400Y-101422200D01*
X149330097Y-101419876D01*
X149283249Y-101412927D01*
X149237309Y-101401419D01*
X149192717Y-101385464D01*
X149149904Y-101365215D01*
X149109282Y-101340867D01*
X149071242Y-101312655D01*
X149036150Y-101280850D01*
X149004345Y-101245758D01*
X148976133Y-101207718D01*
X148951785Y-101167096D01*
X148931536Y-101124283D01*
X148915581Y-101079691D01*
X148904073Y-101033751D01*
X148897124Y-100986903D01*
X148894800Y-100939600D01*
X148894800Y-99212400D01*
X148897124Y-99165097D01*
X148904073Y-99118249D01*
X148915581Y-99072309D01*
X148931536Y-99027717D01*
X148951785Y-98984904D01*
X148976133Y-98944282D01*
X149004345Y-98906242D01*
X149036150Y-98871150D01*
X149071242Y-98839345D01*
X149109282Y-98811133D01*
X149149904Y-98786785D01*
X149192717Y-98766536D01*
X149237309Y-98750581D01*
X149283249Y-98739073D01*
X149330097Y-98732124D01*
X149377400Y-98729800D01*
X150342600Y-98729800D01*
X150389903Y-98732124D01*
G37*
G36*
X152929903Y-98732124D02*
G01*
X152976751Y-98739073D01*
X153022691Y-98750581D01*
X153067283Y-98766536D01*
X153110096Y-98786785D01*
X153150718Y-98811133D01*
X153188758Y-98839345D01*
X153223850Y-98871150D01*
X153255655Y-98906242D01*
X153283867Y-98944282D01*
X153308215Y-98984904D01*
X153328464Y-99027717D01*
X153344419Y-99072309D01*
X153355927Y-99118249D01*
X153362876Y-99165097D01*
X153365200Y-99212400D01*
X153365200Y-100939600D01*
X153362876Y-100986903D01*
X153355927Y-101033751D01*
X153344419Y-101079691D01*
X153328464Y-101124283D01*
X153308215Y-101167096D01*
X153283867Y-101207718D01*
X153255655Y-101245758D01*
X153223850Y-101280850D01*
X153188758Y-101312655D01*
X153150718Y-101340867D01*
X153110096Y-101365215D01*
X153067283Y-101385464D01*
X153022691Y-101401419D01*
X152976751Y-101412927D01*
X152929903Y-101419876D01*
X152882600Y-101422200D01*
X151917400Y-101422200D01*
X151870097Y-101419876D01*
X151823249Y-101412927D01*
X151777309Y-101401419D01*
X151732717Y-101385464D01*
X151689904Y-101365215D01*
X151649282Y-101340867D01*
X151611242Y-101312655D01*
X151576150Y-101280850D01*
X151544345Y-101245758D01*
X151516133Y-101207718D01*
X151491785Y-101167096D01*
X151471536Y-101124283D01*
X151455581Y-101079691D01*
X151444073Y-101033751D01*
X151437124Y-100986903D01*
X151434800Y-100939600D01*
X151434800Y-99212400D01*
X151437124Y-99165097D01*
X151444073Y-99118249D01*
X151455581Y-99072309D01*
X151471536Y-99027717D01*
X151491785Y-98984904D01*
X151516133Y-98944282D01*
X151544345Y-98906242D01*
X151576150Y-98871150D01*
X151611242Y-98839345D01*
X151649282Y-98811133D01*
X151689904Y-98786785D01*
X151732717Y-98766536D01*
X151777309Y-98750581D01*
X151823249Y-98739073D01*
X151870097Y-98732124D01*
X151917400Y-98729800D01*
X152882600Y-98729800D01*
X152929903Y-98732124D01*
G37*
G36*
X155469903Y-98732124D02*
G01*
X155516751Y-98739073D01*
X155562691Y-98750581D01*
X155607283Y-98766536D01*
X155650096Y-98786785D01*
X155690718Y-98811133D01*
X155728758Y-98839345D01*
X155763850Y-98871150D01*
X155795655Y-98906242D01*
X155823867Y-98944282D01*
X155848215Y-98984904D01*
X155868464Y-99027717D01*
X155884419Y-99072309D01*
X155895927Y-99118249D01*
X155902876Y-99165097D01*
X155905200Y-99212400D01*
X155905200Y-100939600D01*
X155902876Y-100986903D01*
X155895927Y-101033751D01*
X155884419Y-101079691D01*
X155868464Y-101124283D01*
X155848215Y-101167096D01*
X155823867Y-101207718D01*
X155795655Y-101245758D01*
X155763850Y-101280850D01*
X155728758Y-101312655D01*
X155690718Y-101340867D01*
X155650096Y-101365215D01*
X155607283Y-101385464D01*
X155562691Y-101401419D01*
X155516751Y-101412927D01*
X155469903Y-101419876D01*
X155422600Y-101422200D01*
X154457400Y-101422200D01*
X154410097Y-101419876D01*
X154363249Y-101412927D01*
X154317309Y-101401419D01*
X154272717Y-101385464D01*
X154229904Y-101365215D01*
X154189282Y-101340867D01*
X154151242Y-101312655D01*
X154116150Y-101280850D01*
X154084345Y-101245758D01*
X154056133Y-101207718D01*
X154031785Y-101167096D01*
X154011536Y-101124283D01*
X153995581Y-101079691D01*
X153984073Y-101033751D01*
X153977124Y-100986903D01*
X153974800Y-100939600D01*
X153974800Y-99212400D01*
X153977124Y-99165097D01*
X153984073Y-99118249D01*
X153995581Y-99072309D01*
X154011536Y-99027717D01*
X154031785Y-98984904D01*
X154056133Y-98944282D01*
X154084345Y-98906242D01*
X154116150Y-98871150D01*
X154151242Y-98839345D01*
X154189282Y-98811133D01*
X154229904Y-98786785D01*
X154272717Y-98766536D01*
X154317309Y-98750581D01*
X154363249Y-98739073D01*
X154410097Y-98732124D01*
X154457400Y-98729800D01*
X155422600Y-98729800D01*
X155469903Y-98732124D01*
G37*
G36*
X158009903Y-98732124D02*
G01*
X158056751Y-98739073D01*
X158102691Y-98750581D01*
X158147283Y-98766536D01*
X158190096Y-98786785D01*
X158230718Y-98811133D01*
X158268758Y-98839345D01*
X158303850Y-98871150D01*
X158335655Y-98906242D01*
X158363867Y-98944282D01*
X158388215Y-98984904D01*
X158408464Y-99027717D01*
X158424419Y-99072309D01*
X158435927Y-99118249D01*
X158442876Y-99165097D01*
X158445200Y-99212400D01*
X158445200Y-100939600D01*
X158442876Y-100986903D01*
X158435927Y-101033751D01*
X158424419Y-101079691D01*
X158408464Y-101124283D01*
X158388215Y-101167096D01*
X158363867Y-101207718D01*
X158335655Y-101245758D01*
X158303850Y-101280850D01*
X158268758Y-101312655D01*
X158230718Y-101340867D01*
X158190096Y-101365215D01*
X158147283Y-101385464D01*
X158102691Y-101401419D01*
X158056751Y-101412927D01*
X158009903Y-101419876D01*
X157962600Y-101422200D01*
X156997400Y-101422200D01*
X156950097Y-101419876D01*
X156903249Y-101412927D01*
X156857309Y-101401419D01*
X156812717Y-101385464D01*
X156769904Y-101365215D01*
X156729282Y-101340867D01*
X156691242Y-101312655D01*
X156656150Y-101280850D01*
X156624345Y-101245758D01*
X156596133Y-101207718D01*
X156571785Y-101167096D01*
X156551536Y-101124283D01*
X156535581Y-101079691D01*
X156524073Y-101033751D01*
X156517124Y-100986903D01*
X156514800Y-100939600D01*
X156514800Y-99212400D01*
X156517124Y-99165097D01*
X156524073Y-99118249D01*
X156535581Y-99072309D01*
X156551536Y-99027717D01*
X156571785Y-98984904D01*
X156596133Y-98944282D01*
X156624345Y-98906242D01*
X156656150Y-98871150D01*
X156691242Y-98839345D01*
X156729282Y-98811133D01*
X156769904Y-98786785D01*
X156812717Y-98766536D01*
X156857309Y-98750581D01*
X156903249Y-98739073D01*
X156950097Y-98732124D01*
X156997400Y-98729800D01*
X157962600Y-98729800D01*
X158009903Y-98732124D01*
G37*
D13*
X88900000Y-98806000D03*
X86360000Y-98806000D03*
X83820000Y-98806000D03*
X93980000Y-98806000D03*
X91440000Y-98806000D03*
X96520000Y-98806000D03*
X99060000Y-98806000D03*
X104140000Y-98806000D03*
X101600000Y-98806000D03*
X109220000Y-98806000D03*
X106680000Y-98806000D03*
X111760000Y-98806000D03*
X116840000Y-98806000D03*
X114300000Y-98806000D03*
X119380000Y-98806000D03*
X124460000Y-98806000D03*
X121920000Y-98806000D03*
X127000000Y-98806000D03*
X149860000Y-98806000D03*
X147320000Y-98806000D03*
X152400000Y-98806000D03*
X134620000Y-98806000D03*
X132080000Y-98806000D03*
X137160000Y-98806000D03*
X142240000Y-98806000D03*
X139700000Y-98806000D03*
X144780000Y-98806000D03*
X129540000Y-98806000D03*
X154940000Y-98806000D03*
X157480000Y-98806000D03*
M02*
