G04 #@! TF.GenerationSoftware,KiCad,Pcbnew,(7.0.0-0)*
G04 #@! TF.CreationDate,2023-02-28T11:31:52-05:00*
G04 #@! TF.ProjectId,GW4194-SOJ-DC,47573431-3934-42d5-934f-4a2d44432e6b,1.1-SOJ-DC*
G04 #@! TF.SameCoordinates,Original*
G04 #@! TF.FileFunction,Copper,L2,Inr*
G04 #@! TF.FilePolarity,Positive*
%FSLAX46Y46*%
G04 Gerber Fmt 4.6, Leading zero omitted, Abs format (unit mm)*
G04 Created by KiCad (PCBNEW (7.0.0-0)) date 2023-02-28 11:31:52*
%MOMM*%
%LPD*%
G01*
G04 APERTURE LIST*
G04 #@! TA.AperFunction,ComponentPad*
%ADD10C,0.800000*%
G04 #@! TD*
G04 #@! TA.AperFunction,ViaPad*
%ADD11C,0.508000*%
G04 #@! TD*
G04 #@! TA.AperFunction,ViaPad*
%ADD12C,0.800000*%
G04 #@! TD*
G04 #@! TA.AperFunction,ViaPad*
%ADD13C,0.600000*%
G04 #@! TD*
G04 #@! TA.AperFunction,ViaPad*
%ADD14C,1.000000*%
G04 #@! TD*
G04 APERTURE END LIST*
D10*
X83820000Y-98806000D03*
X86360000Y-98806000D03*
X88900000Y-98806000D03*
X91440000Y-98806000D03*
X93980000Y-98806000D03*
X96520000Y-98806000D03*
X99060000Y-98806000D03*
X101600000Y-98806000D03*
X104140000Y-98806000D03*
X106680000Y-98806000D03*
X109220000Y-98806000D03*
X111760000Y-98806000D03*
X114300000Y-98806000D03*
X116840000Y-98806000D03*
X119380000Y-98806000D03*
X121920000Y-98806000D03*
X124460000Y-98806000D03*
X127000000Y-98806000D03*
X129540000Y-98806000D03*
X132080000Y-98806000D03*
X134620000Y-98806000D03*
X137160000Y-98806000D03*
X139700000Y-98806000D03*
X142240000Y-98806000D03*
X144780000Y-98806000D03*
X147320000Y-98806000D03*
X149860000Y-98806000D03*
X152400000Y-98806000D03*
X154940000Y-98806000D03*
X157480000Y-98806000D03*
D11*
X77089000Y-86995000D03*
X164211000Y-86995000D03*
X164211000Y-96139000D03*
X78994000Y-94742000D03*
X159131000Y-82169000D03*
X148971000Y-82169000D03*
X92329000Y-82169000D03*
X102489000Y-82169000D03*
X138811000Y-82169000D03*
X82169000Y-82169000D03*
X112649000Y-82169000D03*
X128651000Y-82169000D03*
D12*
X155250000Y-94300000D03*
X154350000Y-95500000D03*
X153450000Y-94300000D03*
X117729000Y-91821000D03*
D13*
X102870000Y-90868500D03*
X121920000Y-90868500D03*
D11*
X140779500Y-92519500D03*
D13*
X103568500Y-92837000D03*
X87630000Y-90932000D03*
D12*
X85090000Y-91313000D03*
X158750000Y-94107000D03*
X106807000Y-92075000D03*
D13*
X137160000Y-94805500D03*
X87630000Y-94805500D03*
D12*
X105410000Y-91313000D03*
D13*
X86931500Y-92837000D03*
D12*
X139700000Y-91186000D03*
X83820000Y-92456000D03*
D13*
X121920000Y-94805500D03*
X137160000Y-90868500D03*
D12*
X119380000Y-91313000D03*
D14*
X157480000Y-95377000D03*
D11*
X146050000Y-97853500D03*
X147400000Y-96500000D03*
X158600000Y-90450000D03*
X127000000Y-90932000D03*
X112522000Y-92456000D03*
X84450000Y-86500000D03*
X91440000Y-88392000D03*
X112776000Y-95377000D03*
X110617000Y-93345000D03*
X95250000Y-89662000D03*
X112395000Y-89408000D03*
X119634000Y-89408000D03*
X92710000Y-96520000D03*
X111252000Y-97536000D03*
X117729000Y-97917000D03*
X118872000Y-97536000D03*
X139065000Y-97409000D03*
X89408000Y-97028000D03*
X88138000Y-96266000D03*
X114173000Y-92964000D03*
X114935000Y-91948000D03*
X114681000Y-95758000D03*
X144145000Y-97409000D03*
X143129000Y-96393000D03*
X88900000Y-90043000D03*
X87630000Y-90043000D03*
X90170000Y-90043000D03*
X91948000Y-89662000D03*
X126238000Y-89598500D03*
X112395000Y-93472000D03*
X113411000Y-91948000D03*
X116205000Y-92964000D03*
X111506000Y-92583000D03*
X121412000Y-97536000D03*
X122428000Y-97536000D03*
X110363000Y-95377000D03*
X164020500Y-82359500D03*
X164211000Y-100711000D03*
X79121000Y-100711000D03*
X77089000Y-94361000D03*
X77089000Y-91440000D03*
X79883000Y-84709000D03*
X161290000Y-93853000D03*
X161290000Y-98552000D03*
X80899000Y-97790000D03*
X79883000Y-89281000D03*
X133350000Y-98298000D03*
X110109000Y-97917000D03*
X102743000Y-97917000D03*
X99949000Y-97917000D03*
X97409000Y-97917000D03*
X158623000Y-96139000D03*
X111569500Y-94234000D03*
X104013000Y-89408000D03*
X108839000Y-95377000D03*
X112014000Y-90551000D03*
X164211000Y-91567000D03*
X77279500Y-82359500D03*
X154051000Y-82169000D03*
X87249000Y-82169000D03*
X97409000Y-82169000D03*
X143891000Y-82169000D03*
X110109000Y-84963000D03*
X105029000Y-84963000D03*
X115189000Y-84963000D03*
X126111000Y-83502500D03*
X107569000Y-82169000D03*
X117729000Y-82169000D03*
X123571000Y-82169000D03*
X133731000Y-82169000D03*
X128270000Y-98298000D03*
X143510000Y-98298000D03*
X157350000Y-86050000D03*
D12*
X156200000Y-92200000D03*
D11*
X148050000Y-86850000D03*
X155650000Y-86200000D03*
X143000000Y-86550000D03*
X140950000Y-88900000D03*
D13*
X137160000Y-84518500D03*
X137160000Y-88392000D03*
D12*
X150000000Y-94100000D03*
D13*
X102870000Y-83629500D03*
D11*
X105410000Y-94996000D03*
X140779500Y-93980000D03*
D13*
X121920000Y-89471500D03*
D11*
X84450000Y-84500000D03*
D13*
X145800000Y-95050000D03*
X87630000Y-84518500D03*
D12*
X151250000Y-95150000D03*
X83820000Y-94107000D03*
X119380000Y-95250000D03*
X158750000Y-92456000D03*
X85090000Y-95250000D03*
D13*
X148200000Y-89450000D03*
X146900000Y-93950000D03*
X153550000Y-89050000D03*
X121920000Y-83883500D03*
D12*
X139700000Y-95250000D03*
D13*
X86931500Y-86487000D03*
D11*
X148900000Y-95000000D03*
D13*
X138557000Y-94107000D03*
X144700000Y-93950000D03*
D12*
X157480000Y-91313000D03*
D11*
X158450000Y-89250000D03*
D13*
X137858500Y-86487000D03*
D12*
X118110000Y-94107000D03*
D13*
X104267000Y-94107000D03*
X86233000Y-94107000D03*
D12*
X106680000Y-94107000D03*
D13*
X87630000Y-88455500D03*
X155800000Y-89100000D03*
D12*
X155300000Y-91000000D03*
X152500000Y-94100000D03*
D11*
X146800000Y-90150000D03*
X132080000Y-90932000D03*
X100330000Y-90932000D03*
X99060000Y-90932000D03*
X133350000Y-90932000D03*
X97790000Y-90932000D03*
X134620000Y-90932000D03*
X135890000Y-90932000D03*
X96520000Y-90932000D03*
X93980000Y-88392000D03*
X135890000Y-88392000D03*
X96520000Y-88392000D03*
X134620000Y-88392000D03*
X133350000Y-88392000D03*
X97790000Y-88392000D03*
X132080000Y-88392000D03*
X99060000Y-88392000D03*
X130810000Y-88392000D03*
X100330000Y-88392000D03*
X101600000Y-90932000D03*
X130810000Y-90932000D03*
X101600000Y-88392000D03*
X128270000Y-88392000D03*
X125730000Y-90932000D03*
X115189000Y-93281500D03*
D13*
X146950000Y-92400000D03*
D11*
X147600000Y-91500000D03*
X154700000Y-86650000D03*
D12*
X150050000Y-92400000D03*
D11*
X145800000Y-91500000D03*
D12*
X153400000Y-91000000D03*
D13*
X144700000Y-92550000D03*
D12*
X152500000Y-92200000D03*
D11*
X156550000Y-86650000D03*
D12*
X151250000Y-91350000D03*
D13*
X153500000Y-87350000D03*
X155900000Y-87550000D03*
G04 #@! TA.AperFunction,Conductor*
G36*
X163578947Y-81530731D02*
G01*
X163769325Y-81545715D01*
X163780967Y-81547559D01*
X163963778Y-81591448D01*
X163974997Y-81595093D01*
X164148689Y-81667038D01*
X164159202Y-81672395D01*
X164319501Y-81770627D01*
X164329048Y-81777563D01*
X164472004Y-81899660D01*
X164480339Y-81907995D01*
X164517411Y-81951400D01*
X164602436Y-82050951D01*
X164609372Y-82060498D01*
X164707604Y-82220797D01*
X164712962Y-82231312D01*
X164784906Y-82405003D01*
X164788552Y-82416225D01*
X164832439Y-82599026D01*
X164834285Y-82610681D01*
X164849268Y-82801052D01*
X164849500Y-82806952D01*
X164849500Y-101274300D01*
X164839425Y-101311900D01*
X164811900Y-101339425D01*
X164774300Y-101349500D01*
X78557700Y-101349500D01*
X78520100Y-101339425D01*
X78492575Y-101311900D01*
X78482500Y-101274300D01*
X78482500Y-99568000D01*
X85852000Y-99568000D01*
X85852000Y-100457000D01*
X86858098Y-100457000D01*
X86868000Y-100457000D01*
X86868000Y-99568000D01*
X88392000Y-99568000D01*
X88392000Y-100457000D01*
X89398098Y-100457000D01*
X89408000Y-100457000D01*
X89408000Y-99568000D01*
X90932000Y-99568000D01*
X90932000Y-100457000D01*
X91938098Y-100457000D01*
X91948000Y-100457000D01*
X91948000Y-99568000D01*
X93472000Y-99568000D01*
X93472000Y-100457000D01*
X94478098Y-100457000D01*
X94488000Y-100457000D01*
X94488000Y-99568000D01*
X96012000Y-99568000D01*
X96012000Y-100457000D01*
X97018098Y-100457000D01*
X97028000Y-100457000D01*
X97028000Y-99568000D01*
X98552000Y-99568000D01*
X98552000Y-100457000D01*
X99558098Y-100457000D01*
X99568000Y-100457000D01*
X99568000Y-99568000D01*
X101092000Y-99568000D01*
X101092000Y-100457000D01*
X102098098Y-100457000D01*
X102108000Y-100457000D01*
X102108000Y-99568000D01*
X106172000Y-99568000D01*
X106172000Y-100457000D01*
X107178098Y-100457000D01*
X107188000Y-100457000D01*
X107188000Y-99568000D01*
X108712000Y-99568000D01*
X108712000Y-100457000D01*
X109718098Y-100457000D01*
X109728000Y-100457000D01*
X109728000Y-99568000D01*
X111252000Y-99568000D01*
X111252000Y-100457000D01*
X112258098Y-100457000D01*
X112268000Y-100457000D01*
X112268000Y-99568000D01*
X113792000Y-99568000D01*
X113792000Y-100457000D01*
X114798098Y-100457000D01*
X114808000Y-100457000D01*
X114808000Y-99568000D01*
X116332000Y-99568000D01*
X116332000Y-100457000D01*
X117338098Y-100457000D01*
X117348000Y-100457000D01*
X117348000Y-99568000D01*
X118872000Y-99568000D01*
X118872000Y-100457000D01*
X119878098Y-100457000D01*
X119888000Y-100457000D01*
X119888000Y-99568000D01*
X121412000Y-99568000D01*
X121412000Y-100457000D01*
X122418098Y-100457000D01*
X122428000Y-100457000D01*
X122428000Y-99568000D01*
X123952000Y-99568000D01*
X123952000Y-100457000D01*
X124958098Y-100457000D01*
X124968000Y-100457000D01*
X124968000Y-99568000D01*
X126492000Y-99568000D01*
X126492000Y-100457000D01*
X127498098Y-100457000D01*
X127508000Y-100457000D01*
X127508000Y-99568000D01*
X129032000Y-99568000D01*
X129032000Y-100457000D01*
X130038098Y-100457000D01*
X130048000Y-100457000D01*
X130048000Y-99568000D01*
X131572000Y-99568000D01*
X131572000Y-100457000D01*
X132578098Y-100457000D01*
X132588000Y-100457000D01*
X132588000Y-99568000D01*
X134112000Y-99568000D01*
X134112000Y-100457000D01*
X135118098Y-100457000D01*
X135128000Y-100457000D01*
X135128000Y-99568000D01*
X139192000Y-99568000D01*
X139192000Y-100457000D01*
X140198098Y-100457000D01*
X140208000Y-100457000D01*
X140208000Y-99568000D01*
X141732000Y-99568000D01*
X141732000Y-100457000D01*
X142738098Y-100457000D01*
X142748000Y-100457000D01*
X142748000Y-99568000D01*
X144272000Y-99568000D01*
X144272000Y-100457000D01*
X145278098Y-100457000D01*
X145288000Y-100457000D01*
X145288000Y-99568000D01*
X146812000Y-99568000D01*
X146812000Y-100457000D01*
X147818098Y-100457000D01*
X147828000Y-100457000D01*
X147828000Y-99568000D01*
X149352000Y-99568000D01*
X149352000Y-100457000D01*
X150358098Y-100457000D01*
X150368000Y-100457000D01*
X150368000Y-99568000D01*
X151892000Y-99568000D01*
X151892000Y-100457000D01*
X152898098Y-100457000D01*
X152908000Y-100457000D01*
X152908000Y-99568000D01*
X154432000Y-99568000D01*
X154432000Y-100457000D01*
X155438098Y-100457000D01*
X155448000Y-100457000D01*
X155448000Y-99568000D01*
X154432000Y-99568000D01*
X152908000Y-99568000D01*
X151892000Y-99568000D01*
X150368000Y-99568000D01*
X149352000Y-99568000D01*
X147828000Y-99568000D01*
X146812000Y-99568000D01*
X145288000Y-99568000D01*
X144272000Y-99568000D01*
X142748000Y-99568000D01*
X141732000Y-99568000D01*
X140208000Y-99568000D01*
X139192000Y-99568000D01*
X135128000Y-99568000D01*
X134112000Y-99568000D01*
X132588000Y-99568000D01*
X131572000Y-99568000D01*
X130048000Y-99568000D01*
X129032000Y-99568000D01*
X127508000Y-99568000D01*
X126492000Y-99568000D01*
X124968000Y-99568000D01*
X123952000Y-99568000D01*
X122428000Y-99568000D01*
X121412000Y-99568000D01*
X119888000Y-99568000D01*
X118872000Y-99568000D01*
X117348000Y-99568000D01*
X116332000Y-99568000D01*
X114808000Y-99568000D01*
X113792000Y-99568000D01*
X112268000Y-99568000D01*
X111252000Y-99568000D01*
X109728000Y-99568000D01*
X108712000Y-99568000D01*
X107188000Y-99568000D01*
X106172000Y-99568000D01*
X102108000Y-99568000D01*
X101092000Y-99568000D01*
X99568000Y-99568000D01*
X98552000Y-99568000D01*
X97028000Y-99568000D01*
X96012000Y-99568000D01*
X94488000Y-99568000D01*
X93472000Y-99568000D01*
X91948000Y-99568000D01*
X90932000Y-99568000D01*
X89408000Y-99568000D01*
X88392000Y-99568000D01*
X86868000Y-99568000D01*
X85852000Y-99568000D01*
X78482500Y-99568000D01*
X78482500Y-98806000D01*
X83262329Y-98806000D01*
X83281331Y-98950336D01*
X83283217Y-98954889D01*
X83335158Y-99080287D01*
X83335160Y-99080291D01*
X83337043Y-99084836D01*
X83425667Y-99200333D01*
X83541164Y-99288957D01*
X83675664Y-99344669D01*
X83820000Y-99363671D01*
X83964336Y-99344669D01*
X84098836Y-99288957D01*
X84214333Y-99200333D01*
X84302957Y-99084836D01*
X84358669Y-98950336D01*
X84377671Y-98806000D01*
X85802329Y-98806000D01*
X85821331Y-98950336D01*
X85823217Y-98954889D01*
X85875158Y-99080287D01*
X85875160Y-99080291D01*
X85877043Y-99084836D01*
X85965667Y-99200333D01*
X86081164Y-99288957D01*
X86215664Y-99344669D01*
X86360000Y-99363671D01*
X86504336Y-99344669D01*
X86638836Y-99288957D01*
X86754333Y-99200333D01*
X86842957Y-99084836D01*
X86898669Y-98950336D01*
X86917671Y-98806000D01*
X88342329Y-98806000D01*
X88361331Y-98950336D01*
X88363217Y-98954889D01*
X88415158Y-99080287D01*
X88415160Y-99080291D01*
X88417043Y-99084836D01*
X88505667Y-99200333D01*
X88621164Y-99288957D01*
X88755664Y-99344669D01*
X88900000Y-99363671D01*
X89044336Y-99344669D01*
X89178836Y-99288957D01*
X89294333Y-99200333D01*
X89382957Y-99084836D01*
X89438669Y-98950336D01*
X89457671Y-98806000D01*
X90882329Y-98806000D01*
X90901331Y-98950336D01*
X90903217Y-98954889D01*
X90955158Y-99080287D01*
X90955160Y-99080291D01*
X90957043Y-99084836D01*
X91045667Y-99200333D01*
X91161164Y-99288957D01*
X91295664Y-99344669D01*
X91440000Y-99363671D01*
X91584336Y-99344669D01*
X91718836Y-99288957D01*
X91834333Y-99200333D01*
X91922957Y-99084836D01*
X91978669Y-98950336D01*
X91997671Y-98806000D01*
X93422329Y-98806000D01*
X93441331Y-98950336D01*
X93443217Y-98954889D01*
X93495158Y-99080287D01*
X93495160Y-99080291D01*
X93497043Y-99084836D01*
X93585667Y-99200333D01*
X93701164Y-99288957D01*
X93835664Y-99344669D01*
X93980000Y-99363671D01*
X94124336Y-99344669D01*
X94258836Y-99288957D01*
X94374333Y-99200333D01*
X94462957Y-99084836D01*
X94518669Y-98950336D01*
X94537671Y-98806000D01*
X95962329Y-98806000D01*
X95981331Y-98950336D01*
X95983217Y-98954889D01*
X96035158Y-99080287D01*
X96035160Y-99080291D01*
X96037043Y-99084836D01*
X96125667Y-99200333D01*
X96241164Y-99288957D01*
X96375664Y-99344669D01*
X96520000Y-99363671D01*
X96664336Y-99344669D01*
X96798836Y-99288957D01*
X96914333Y-99200333D01*
X97002957Y-99084836D01*
X97058669Y-98950336D01*
X97077671Y-98806000D01*
X98502329Y-98806000D01*
X98521331Y-98950336D01*
X98523217Y-98954889D01*
X98575158Y-99080287D01*
X98575160Y-99080291D01*
X98577043Y-99084836D01*
X98665667Y-99200333D01*
X98781164Y-99288957D01*
X98915664Y-99344669D01*
X99060000Y-99363671D01*
X99204336Y-99344669D01*
X99338836Y-99288957D01*
X99454333Y-99200333D01*
X99542957Y-99084836D01*
X99598669Y-98950336D01*
X99617671Y-98806000D01*
X101042329Y-98806000D01*
X101061331Y-98950336D01*
X101063217Y-98954889D01*
X101115158Y-99080287D01*
X101115160Y-99080291D01*
X101117043Y-99084836D01*
X101205667Y-99200333D01*
X101321164Y-99288957D01*
X101455664Y-99344669D01*
X101600000Y-99363671D01*
X101744336Y-99344669D01*
X101878836Y-99288957D01*
X101994333Y-99200333D01*
X102082957Y-99084836D01*
X102138669Y-98950336D01*
X102157671Y-98806000D01*
X106122329Y-98806000D01*
X106141331Y-98950336D01*
X106143217Y-98954889D01*
X106195158Y-99080287D01*
X106195160Y-99080291D01*
X106197043Y-99084836D01*
X106285667Y-99200333D01*
X106401164Y-99288957D01*
X106535664Y-99344669D01*
X106680000Y-99363671D01*
X106824336Y-99344669D01*
X106958836Y-99288957D01*
X107074333Y-99200333D01*
X107162957Y-99084836D01*
X107218669Y-98950336D01*
X107237671Y-98806000D01*
X108662329Y-98806000D01*
X108681331Y-98950336D01*
X108683217Y-98954889D01*
X108735158Y-99080287D01*
X108735160Y-99080291D01*
X108737043Y-99084836D01*
X108825667Y-99200333D01*
X108941164Y-99288957D01*
X109075664Y-99344669D01*
X109220000Y-99363671D01*
X109364336Y-99344669D01*
X109498836Y-99288957D01*
X109614333Y-99200333D01*
X109702957Y-99084836D01*
X109758669Y-98950336D01*
X109777671Y-98806000D01*
X111202329Y-98806000D01*
X111221331Y-98950336D01*
X111223217Y-98954889D01*
X111275158Y-99080287D01*
X111275160Y-99080291D01*
X111277043Y-99084836D01*
X111365667Y-99200333D01*
X111481164Y-99288957D01*
X111615664Y-99344669D01*
X111760000Y-99363671D01*
X111904336Y-99344669D01*
X112038836Y-99288957D01*
X112154333Y-99200333D01*
X112242957Y-99084836D01*
X112298669Y-98950336D01*
X112317671Y-98806000D01*
X113742329Y-98806000D01*
X113761331Y-98950336D01*
X113763217Y-98954889D01*
X113815158Y-99080287D01*
X113815160Y-99080291D01*
X113817043Y-99084836D01*
X113905667Y-99200333D01*
X114021164Y-99288957D01*
X114155664Y-99344669D01*
X114300000Y-99363671D01*
X114444336Y-99344669D01*
X114578836Y-99288957D01*
X114694333Y-99200333D01*
X114782957Y-99084836D01*
X114838669Y-98950336D01*
X114857671Y-98806000D01*
X116282329Y-98806000D01*
X116301331Y-98950336D01*
X116303217Y-98954889D01*
X116355158Y-99080287D01*
X116355160Y-99080291D01*
X116357043Y-99084836D01*
X116445667Y-99200333D01*
X116561164Y-99288957D01*
X116695664Y-99344669D01*
X116840000Y-99363671D01*
X116984336Y-99344669D01*
X117118836Y-99288957D01*
X117234333Y-99200333D01*
X117322957Y-99084836D01*
X117378669Y-98950336D01*
X117397671Y-98806000D01*
X118822329Y-98806000D01*
X118841331Y-98950336D01*
X118843217Y-98954889D01*
X118895158Y-99080287D01*
X118895160Y-99080291D01*
X118897043Y-99084836D01*
X118985667Y-99200333D01*
X119101164Y-99288957D01*
X119235664Y-99344669D01*
X119380000Y-99363671D01*
X119524336Y-99344669D01*
X119658836Y-99288957D01*
X119774333Y-99200333D01*
X119862957Y-99084836D01*
X119918669Y-98950336D01*
X119937671Y-98806000D01*
X121362329Y-98806000D01*
X121381331Y-98950336D01*
X121383217Y-98954889D01*
X121435158Y-99080287D01*
X121435160Y-99080291D01*
X121437043Y-99084836D01*
X121525667Y-99200333D01*
X121641164Y-99288957D01*
X121775664Y-99344669D01*
X121920000Y-99363671D01*
X122064336Y-99344669D01*
X122198836Y-99288957D01*
X122314333Y-99200333D01*
X122402957Y-99084836D01*
X122458669Y-98950336D01*
X122477671Y-98806000D01*
X123902329Y-98806000D01*
X123921331Y-98950336D01*
X123923217Y-98954889D01*
X123975158Y-99080287D01*
X123975160Y-99080291D01*
X123977043Y-99084836D01*
X124065667Y-99200333D01*
X124181164Y-99288957D01*
X124315664Y-99344669D01*
X124460000Y-99363671D01*
X124604336Y-99344669D01*
X124738836Y-99288957D01*
X124854333Y-99200333D01*
X124942957Y-99084836D01*
X124998669Y-98950336D01*
X125017671Y-98806000D01*
X126442329Y-98806000D01*
X126461331Y-98950336D01*
X126463217Y-98954889D01*
X126515158Y-99080287D01*
X126515160Y-99080291D01*
X126517043Y-99084836D01*
X126605667Y-99200333D01*
X126721164Y-99288957D01*
X126855664Y-99344669D01*
X127000000Y-99363671D01*
X127144336Y-99344669D01*
X127278836Y-99288957D01*
X127394333Y-99200333D01*
X127482957Y-99084836D01*
X127538669Y-98950336D01*
X127557671Y-98806000D01*
X128982329Y-98806000D01*
X129001331Y-98950336D01*
X129003217Y-98954889D01*
X129055158Y-99080287D01*
X129055160Y-99080291D01*
X129057043Y-99084836D01*
X129145667Y-99200333D01*
X129261164Y-99288957D01*
X129395664Y-99344669D01*
X129540000Y-99363671D01*
X129684336Y-99344669D01*
X129818836Y-99288957D01*
X129934333Y-99200333D01*
X130022957Y-99084836D01*
X130078669Y-98950336D01*
X130097671Y-98806000D01*
X131522329Y-98806000D01*
X131541331Y-98950336D01*
X131543217Y-98954889D01*
X131595158Y-99080287D01*
X131595160Y-99080291D01*
X131597043Y-99084836D01*
X131685667Y-99200333D01*
X131801164Y-99288957D01*
X131935664Y-99344669D01*
X132080000Y-99363671D01*
X132224336Y-99344669D01*
X132358836Y-99288957D01*
X132474333Y-99200333D01*
X132562957Y-99084836D01*
X132618669Y-98950336D01*
X132637671Y-98806000D01*
X134062329Y-98806000D01*
X134081331Y-98950336D01*
X134083217Y-98954889D01*
X134135158Y-99080287D01*
X134135160Y-99080291D01*
X134137043Y-99084836D01*
X134225667Y-99200333D01*
X134341164Y-99288957D01*
X134475664Y-99344669D01*
X134620000Y-99363671D01*
X134764336Y-99344669D01*
X134898836Y-99288957D01*
X135014333Y-99200333D01*
X135102957Y-99084836D01*
X135158669Y-98950336D01*
X135177671Y-98806000D01*
X139142329Y-98806000D01*
X139161331Y-98950336D01*
X139163217Y-98954889D01*
X139215158Y-99080287D01*
X139215160Y-99080291D01*
X139217043Y-99084836D01*
X139305667Y-99200333D01*
X139421164Y-99288957D01*
X139555664Y-99344669D01*
X139700000Y-99363671D01*
X139844336Y-99344669D01*
X139978836Y-99288957D01*
X140094333Y-99200333D01*
X140182957Y-99084836D01*
X140238669Y-98950336D01*
X140257671Y-98806000D01*
X141682329Y-98806000D01*
X141701331Y-98950336D01*
X141703217Y-98954889D01*
X141755158Y-99080287D01*
X141755160Y-99080291D01*
X141757043Y-99084836D01*
X141845667Y-99200333D01*
X141961164Y-99288957D01*
X142095664Y-99344669D01*
X142240000Y-99363671D01*
X142384336Y-99344669D01*
X142518836Y-99288957D01*
X142634333Y-99200333D01*
X142722957Y-99084836D01*
X142778669Y-98950336D01*
X142797671Y-98806000D01*
X144222329Y-98806000D01*
X144241331Y-98950336D01*
X144243217Y-98954889D01*
X144295158Y-99080287D01*
X144295160Y-99080291D01*
X144297043Y-99084836D01*
X144385667Y-99200333D01*
X144501164Y-99288957D01*
X144635664Y-99344669D01*
X144780000Y-99363671D01*
X144924336Y-99344669D01*
X145058836Y-99288957D01*
X145174333Y-99200333D01*
X145262957Y-99084836D01*
X145318669Y-98950336D01*
X145337671Y-98806000D01*
X146762329Y-98806000D01*
X146781331Y-98950336D01*
X146783217Y-98954889D01*
X146835158Y-99080287D01*
X146835160Y-99080291D01*
X146837043Y-99084836D01*
X146925667Y-99200333D01*
X147041164Y-99288957D01*
X147175664Y-99344669D01*
X147320000Y-99363671D01*
X147464336Y-99344669D01*
X147598836Y-99288957D01*
X147714333Y-99200333D01*
X147802957Y-99084836D01*
X147858669Y-98950336D01*
X147877671Y-98806000D01*
X149302329Y-98806000D01*
X149321331Y-98950336D01*
X149323217Y-98954889D01*
X149375158Y-99080287D01*
X149375160Y-99080291D01*
X149377043Y-99084836D01*
X149465667Y-99200333D01*
X149581164Y-99288957D01*
X149715664Y-99344669D01*
X149860000Y-99363671D01*
X150004336Y-99344669D01*
X150138836Y-99288957D01*
X150254333Y-99200333D01*
X150342957Y-99084836D01*
X150398669Y-98950336D01*
X150417671Y-98806000D01*
X151842329Y-98806000D01*
X151861331Y-98950336D01*
X151863217Y-98954889D01*
X151915158Y-99080287D01*
X151915160Y-99080291D01*
X151917043Y-99084836D01*
X152005667Y-99200333D01*
X152121164Y-99288957D01*
X152255664Y-99344669D01*
X152400000Y-99363671D01*
X152544336Y-99344669D01*
X152678836Y-99288957D01*
X152794333Y-99200333D01*
X152882957Y-99084836D01*
X152938669Y-98950336D01*
X152957671Y-98806000D01*
X154382329Y-98806000D01*
X154401331Y-98950336D01*
X154403217Y-98954889D01*
X154455158Y-99080287D01*
X154455160Y-99080291D01*
X154457043Y-99084836D01*
X154545667Y-99200333D01*
X154661164Y-99288957D01*
X154795664Y-99344669D01*
X154940000Y-99363671D01*
X155084336Y-99344669D01*
X155218836Y-99288957D01*
X155334333Y-99200333D01*
X155422957Y-99084836D01*
X155478669Y-98950336D01*
X155497671Y-98806000D01*
X156922329Y-98806000D01*
X156941331Y-98950336D01*
X156943217Y-98954889D01*
X156995158Y-99080287D01*
X156995160Y-99080291D01*
X156997043Y-99084836D01*
X157085667Y-99200333D01*
X157201164Y-99288957D01*
X157335664Y-99344669D01*
X157480000Y-99363671D01*
X157624336Y-99344669D01*
X157758836Y-99288957D01*
X157874333Y-99200333D01*
X157962957Y-99084836D01*
X158018669Y-98950336D01*
X158037671Y-98806000D01*
X158018669Y-98661664D01*
X157962957Y-98527165D01*
X157874333Y-98411667D01*
X157758836Y-98323043D01*
X157754291Y-98321160D01*
X157754287Y-98321158D01*
X157628889Y-98269217D01*
X157624336Y-98267331D01*
X157619451Y-98266687D01*
X157619448Y-98266687D01*
X157484884Y-98248972D01*
X157480000Y-98248329D01*
X157475116Y-98248972D01*
X157340551Y-98266687D01*
X157340546Y-98266688D01*
X157335664Y-98267331D01*
X157331112Y-98269216D01*
X157331110Y-98269217D01*
X157205713Y-98321158D01*
X157205706Y-98321162D01*
X157201165Y-98323043D01*
X157197260Y-98326038D01*
X157197257Y-98326041D01*
X157089573Y-98408669D01*
X157089569Y-98408672D01*
X157085667Y-98411667D01*
X157082672Y-98415569D01*
X157082669Y-98415573D01*
X157000041Y-98523257D01*
X157000038Y-98523260D01*
X156997043Y-98527165D01*
X156995162Y-98531706D01*
X156995158Y-98531713D01*
X156943217Y-98657110D01*
X156941331Y-98661664D01*
X156940688Y-98666546D01*
X156940687Y-98666551D01*
X156923411Y-98797777D01*
X156922329Y-98806000D01*
X155497671Y-98806000D01*
X155478669Y-98661664D01*
X155422957Y-98527165D01*
X155334333Y-98411667D01*
X155218836Y-98323043D01*
X155214291Y-98321160D01*
X155214287Y-98321158D01*
X155088889Y-98269217D01*
X155084336Y-98267331D01*
X155079451Y-98266687D01*
X155079448Y-98266687D01*
X154944884Y-98248972D01*
X154940000Y-98248329D01*
X154935116Y-98248972D01*
X154800551Y-98266687D01*
X154800546Y-98266688D01*
X154795664Y-98267331D01*
X154791112Y-98269216D01*
X154791110Y-98269217D01*
X154665713Y-98321158D01*
X154665706Y-98321162D01*
X154661165Y-98323043D01*
X154657260Y-98326038D01*
X154657257Y-98326041D01*
X154549573Y-98408669D01*
X154549569Y-98408672D01*
X154545667Y-98411667D01*
X154542672Y-98415569D01*
X154542669Y-98415573D01*
X154460041Y-98523257D01*
X154460038Y-98523260D01*
X154457043Y-98527165D01*
X154455162Y-98531706D01*
X154455158Y-98531713D01*
X154403217Y-98657110D01*
X154401331Y-98661664D01*
X154400688Y-98666546D01*
X154400687Y-98666551D01*
X154383411Y-98797777D01*
X154382329Y-98806000D01*
X152957671Y-98806000D01*
X152938669Y-98661664D01*
X152882957Y-98527165D01*
X152794333Y-98411667D01*
X152678836Y-98323043D01*
X152674291Y-98321160D01*
X152674287Y-98321158D01*
X152548889Y-98269217D01*
X152544336Y-98267331D01*
X152539451Y-98266687D01*
X152539448Y-98266687D01*
X152404884Y-98248972D01*
X152400000Y-98248329D01*
X152395116Y-98248972D01*
X152260551Y-98266687D01*
X152260546Y-98266688D01*
X152255664Y-98267331D01*
X152251112Y-98269216D01*
X152251110Y-98269217D01*
X152125713Y-98321158D01*
X152125706Y-98321162D01*
X152121165Y-98323043D01*
X152117260Y-98326038D01*
X152117257Y-98326041D01*
X152009573Y-98408669D01*
X152009569Y-98408672D01*
X152005667Y-98411667D01*
X152002672Y-98415569D01*
X152002669Y-98415573D01*
X151920041Y-98523257D01*
X151920038Y-98523260D01*
X151917043Y-98527165D01*
X151915162Y-98531706D01*
X151915158Y-98531713D01*
X151863217Y-98657110D01*
X151861331Y-98661664D01*
X151860688Y-98666546D01*
X151860687Y-98666551D01*
X151843411Y-98797777D01*
X151842329Y-98806000D01*
X150417671Y-98806000D01*
X150398669Y-98661664D01*
X150342957Y-98527165D01*
X150254333Y-98411667D01*
X150138836Y-98323043D01*
X150134291Y-98321160D01*
X150134287Y-98321158D01*
X150008889Y-98269217D01*
X150004336Y-98267331D01*
X149999451Y-98266687D01*
X149999448Y-98266687D01*
X149864884Y-98248972D01*
X149860000Y-98248329D01*
X149855116Y-98248972D01*
X149720551Y-98266687D01*
X149720546Y-98266688D01*
X149715664Y-98267331D01*
X149711112Y-98269216D01*
X149711110Y-98269217D01*
X149585713Y-98321158D01*
X149585706Y-98321162D01*
X149581165Y-98323043D01*
X149577260Y-98326038D01*
X149577257Y-98326041D01*
X149469573Y-98408669D01*
X149469569Y-98408672D01*
X149465667Y-98411667D01*
X149462672Y-98415569D01*
X149462669Y-98415573D01*
X149380041Y-98523257D01*
X149380038Y-98523260D01*
X149377043Y-98527165D01*
X149375162Y-98531706D01*
X149375158Y-98531713D01*
X149323217Y-98657110D01*
X149321331Y-98661664D01*
X149320688Y-98666546D01*
X149320687Y-98666551D01*
X149303411Y-98797777D01*
X149302329Y-98806000D01*
X147877671Y-98806000D01*
X147858669Y-98661664D01*
X147802957Y-98527165D01*
X147714333Y-98411667D01*
X147598836Y-98323043D01*
X147594291Y-98321160D01*
X147594287Y-98321158D01*
X147468889Y-98269217D01*
X147464336Y-98267331D01*
X147459451Y-98266687D01*
X147459448Y-98266687D01*
X147324884Y-98248972D01*
X147320000Y-98248329D01*
X147315116Y-98248972D01*
X147180551Y-98266687D01*
X147180546Y-98266688D01*
X147175664Y-98267331D01*
X147171112Y-98269216D01*
X147171110Y-98269217D01*
X147045713Y-98321158D01*
X147045706Y-98321162D01*
X147041165Y-98323043D01*
X147037260Y-98326038D01*
X147037257Y-98326041D01*
X146929573Y-98408669D01*
X146929569Y-98408672D01*
X146925667Y-98411667D01*
X146922672Y-98415569D01*
X146922669Y-98415573D01*
X146840041Y-98523257D01*
X146840038Y-98523260D01*
X146837043Y-98527165D01*
X146835162Y-98531706D01*
X146835158Y-98531713D01*
X146783217Y-98657110D01*
X146781331Y-98661664D01*
X146780688Y-98666546D01*
X146780687Y-98666551D01*
X146763411Y-98797777D01*
X146762329Y-98806000D01*
X145337671Y-98806000D01*
X145318669Y-98661664D01*
X145262957Y-98527165D01*
X145174333Y-98411667D01*
X145058836Y-98323043D01*
X145054291Y-98321160D01*
X145054287Y-98321158D01*
X144928889Y-98269217D01*
X144924336Y-98267331D01*
X144919451Y-98266687D01*
X144919448Y-98266687D01*
X144784884Y-98248972D01*
X144780000Y-98248329D01*
X144775116Y-98248972D01*
X144640551Y-98266687D01*
X144640546Y-98266688D01*
X144635664Y-98267331D01*
X144631112Y-98269216D01*
X144631110Y-98269217D01*
X144505713Y-98321158D01*
X144505706Y-98321162D01*
X144501165Y-98323043D01*
X144497260Y-98326038D01*
X144497257Y-98326041D01*
X144389573Y-98408669D01*
X144389569Y-98408672D01*
X144385667Y-98411667D01*
X144382672Y-98415569D01*
X144382669Y-98415573D01*
X144300041Y-98523257D01*
X144300038Y-98523260D01*
X144297043Y-98527165D01*
X144295162Y-98531706D01*
X144295158Y-98531713D01*
X144243217Y-98657110D01*
X144241331Y-98661664D01*
X144240688Y-98666546D01*
X144240687Y-98666551D01*
X144223411Y-98797777D01*
X144222329Y-98806000D01*
X142797671Y-98806000D01*
X142778669Y-98661664D01*
X142722957Y-98527165D01*
X142634333Y-98411667D01*
X142518836Y-98323043D01*
X142514291Y-98321160D01*
X142514287Y-98321158D01*
X142388889Y-98269217D01*
X142384336Y-98267331D01*
X142379451Y-98266687D01*
X142379448Y-98266687D01*
X142244884Y-98248972D01*
X142240000Y-98248329D01*
X142235116Y-98248972D01*
X142100551Y-98266687D01*
X142100546Y-98266688D01*
X142095664Y-98267331D01*
X142091112Y-98269216D01*
X142091110Y-98269217D01*
X141965713Y-98321158D01*
X141965706Y-98321162D01*
X141961165Y-98323043D01*
X141957260Y-98326038D01*
X141957257Y-98326041D01*
X141849573Y-98408669D01*
X141849569Y-98408672D01*
X141845667Y-98411667D01*
X141842672Y-98415569D01*
X141842669Y-98415573D01*
X141760041Y-98523257D01*
X141760038Y-98523260D01*
X141757043Y-98527165D01*
X141755162Y-98531706D01*
X141755158Y-98531713D01*
X141703217Y-98657110D01*
X141701331Y-98661664D01*
X141700688Y-98666546D01*
X141700687Y-98666551D01*
X141683411Y-98797777D01*
X141682329Y-98806000D01*
X140257671Y-98806000D01*
X140238669Y-98661664D01*
X140182957Y-98527165D01*
X140094333Y-98411667D01*
X139978836Y-98323043D01*
X139974291Y-98321160D01*
X139974287Y-98321158D01*
X139848889Y-98269217D01*
X139844336Y-98267331D01*
X139839451Y-98266687D01*
X139839448Y-98266687D01*
X139704884Y-98248972D01*
X139700000Y-98248329D01*
X139695116Y-98248972D01*
X139560551Y-98266687D01*
X139560546Y-98266688D01*
X139555664Y-98267331D01*
X139551112Y-98269216D01*
X139551110Y-98269217D01*
X139425713Y-98321158D01*
X139425706Y-98321162D01*
X139421165Y-98323043D01*
X139417260Y-98326038D01*
X139417257Y-98326041D01*
X139309573Y-98408669D01*
X139309569Y-98408672D01*
X139305667Y-98411667D01*
X139302672Y-98415569D01*
X139302669Y-98415573D01*
X139220041Y-98523257D01*
X139220038Y-98523260D01*
X139217043Y-98527165D01*
X139215162Y-98531706D01*
X139215158Y-98531713D01*
X139163217Y-98657110D01*
X139161331Y-98661664D01*
X139160688Y-98666546D01*
X139160687Y-98666551D01*
X139143411Y-98797777D01*
X139142329Y-98806000D01*
X135177671Y-98806000D01*
X135158669Y-98661664D01*
X135102957Y-98527165D01*
X135014333Y-98411667D01*
X134898836Y-98323043D01*
X134894291Y-98321160D01*
X134894287Y-98321158D01*
X134768889Y-98269217D01*
X134764336Y-98267331D01*
X134759451Y-98266687D01*
X134759448Y-98266687D01*
X134624884Y-98248972D01*
X134620000Y-98248329D01*
X134615116Y-98248972D01*
X134480551Y-98266687D01*
X134480546Y-98266688D01*
X134475664Y-98267331D01*
X134471112Y-98269216D01*
X134471110Y-98269217D01*
X134345713Y-98321158D01*
X134345706Y-98321162D01*
X134341165Y-98323043D01*
X134337260Y-98326038D01*
X134337257Y-98326041D01*
X134229573Y-98408669D01*
X134229569Y-98408672D01*
X134225667Y-98411667D01*
X134222672Y-98415569D01*
X134222669Y-98415573D01*
X134140041Y-98523257D01*
X134140038Y-98523260D01*
X134137043Y-98527165D01*
X134135162Y-98531706D01*
X134135158Y-98531713D01*
X134083217Y-98657110D01*
X134081331Y-98661664D01*
X134080688Y-98666546D01*
X134080687Y-98666551D01*
X134063411Y-98797777D01*
X134062329Y-98806000D01*
X132637671Y-98806000D01*
X132618669Y-98661664D01*
X132562957Y-98527165D01*
X132474333Y-98411667D01*
X132358836Y-98323043D01*
X132354291Y-98321160D01*
X132354287Y-98321158D01*
X132228889Y-98269217D01*
X132224336Y-98267331D01*
X132219451Y-98266687D01*
X132219448Y-98266687D01*
X132084884Y-98248972D01*
X132080000Y-98248329D01*
X132075116Y-98248972D01*
X131940551Y-98266687D01*
X131940546Y-98266688D01*
X131935664Y-98267331D01*
X131931112Y-98269216D01*
X131931110Y-98269217D01*
X131805713Y-98321158D01*
X131805706Y-98321162D01*
X131801165Y-98323043D01*
X131797260Y-98326038D01*
X131797257Y-98326041D01*
X131689573Y-98408669D01*
X131689569Y-98408672D01*
X131685667Y-98411667D01*
X131682672Y-98415569D01*
X131682669Y-98415573D01*
X131600041Y-98523257D01*
X131600038Y-98523260D01*
X131597043Y-98527165D01*
X131595162Y-98531706D01*
X131595158Y-98531713D01*
X131543217Y-98657110D01*
X131541331Y-98661664D01*
X131540688Y-98666546D01*
X131540687Y-98666551D01*
X131523411Y-98797777D01*
X131522329Y-98806000D01*
X130097671Y-98806000D01*
X130078669Y-98661664D01*
X130022957Y-98527165D01*
X129934333Y-98411667D01*
X129818836Y-98323043D01*
X129814291Y-98321160D01*
X129814287Y-98321158D01*
X129688889Y-98269217D01*
X129684336Y-98267331D01*
X129679451Y-98266687D01*
X129679448Y-98266687D01*
X129544884Y-98248972D01*
X129540000Y-98248329D01*
X129535116Y-98248972D01*
X129400551Y-98266687D01*
X129400546Y-98266688D01*
X129395664Y-98267331D01*
X129391112Y-98269216D01*
X129391110Y-98269217D01*
X129265713Y-98321158D01*
X129265706Y-98321162D01*
X129261165Y-98323043D01*
X129257260Y-98326038D01*
X129257257Y-98326041D01*
X129149573Y-98408669D01*
X129149569Y-98408672D01*
X129145667Y-98411667D01*
X129142672Y-98415569D01*
X129142669Y-98415573D01*
X129060041Y-98523257D01*
X129060038Y-98523260D01*
X129057043Y-98527165D01*
X129055162Y-98531706D01*
X129055158Y-98531713D01*
X129003217Y-98657110D01*
X129001331Y-98661664D01*
X129000688Y-98666546D01*
X129000687Y-98666551D01*
X128983411Y-98797777D01*
X128982329Y-98806000D01*
X127557671Y-98806000D01*
X127538669Y-98661664D01*
X127482957Y-98527165D01*
X127394333Y-98411667D01*
X127278836Y-98323043D01*
X127274291Y-98321160D01*
X127274287Y-98321158D01*
X127148889Y-98269217D01*
X127144336Y-98267331D01*
X127139451Y-98266687D01*
X127139448Y-98266687D01*
X127004884Y-98248972D01*
X127000000Y-98248329D01*
X126995116Y-98248972D01*
X126860551Y-98266687D01*
X126860546Y-98266688D01*
X126855664Y-98267331D01*
X126851112Y-98269216D01*
X126851110Y-98269217D01*
X126725713Y-98321158D01*
X126725706Y-98321162D01*
X126721165Y-98323043D01*
X126717260Y-98326038D01*
X126717257Y-98326041D01*
X126609573Y-98408669D01*
X126609569Y-98408672D01*
X126605667Y-98411667D01*
X126602672Y-98415569D01*
X126602669Y-98415573D01*
X126520041Y-98523257D01*
X126520038Y-98523260D01*
X126517043Y-98527165D01*
X126515162Y-98531706D01*
X126515158Y-98531713D01*
X126463217Y-98657110D01*
X126461331Y-98661664D01*
X126460688Y-98666546D01*
X126460687Y-98666551D01*
X126443411Y-98797777D01*
X126442329Y-98806000D01*
X125017671Y-98806000D01*
X124998669Y-98661664D01*
X124942957Y-98527165D01*
X124854333Y-98411667D01*
X124738836Y-98323043D01*
X124734291Y-98321160D01*
X124734287Y-98321158D01*
X124608889Y-98269217D01*
X124604336Y-98267331D01*
X124599451Y-98266687D01*
X124599448Y-98266687D01*
X124464884Y-98248972D01*
X124460000Y-98248329D01*
X124455116Y-98248972D01*
X124320551Y-98266687D01*
X124320546Y-98266688D01*
X124315664Y-98267331D01*
X124311112Y-98269216D01*
X124311110Y-98269217D01*
X124185713Y-98321158D01*
X124185706Y-98321162D01*
X124181165Y-98323043D01*
X124177260Y-98326038D01*
X124177257Y-98326041D01*
X124069573Y-98408669D01*
X124069569Y-98408672D01*
X124065667Y-98411667D01*
X124062672Y-98415569D01*
X124062669Y-98415573D01*
X123980041Y-98523257D01*
X123980038Y-98523260D01*
X123977043Y-98527165D01*
X123975162Y-98531706D01*
X123975158Y-98531713D01*
X123923217Y-98657110D01*
X123921331Y-98661664D01*
X123920688Y-98666546D01*
X123920687Y-98666551D01*
X123903411Y-98797777D01*
X123902329Y-98806000D01*
X122477671Y-98806000D01*
X122458669Y-98661664D01*
X122402957Y-98527165D01*
X122314333Y-98411667D01*
X122198836Y-98323043D01*
X122194291Y-98321160D01*
X122194287Y-98321158D01*
X122068889Y-98269217D01*
X122064336Y-98267331D01*
X122059451Y-98266687D01*
X122059448Y-98266687D01*
X121924884Y-98248972D01*
X121920000Y-98248329D01*
X121915116Y-98248972D01*
X121780551Y-98266687D01*
X121780546Y-98266688D01*
X121775664Y-98267331D01*
X121771112Y-98269216D01*
X121771110Y-98269217D01*
X121645713Y-98321158D01*
X121645706Y-98321162D01*
X121641165Y-98323043D01*
X121637260Y-98326038D01*
X121637257Y-98326041D01*
X121529573Y-98408669D01*
X121529569Y-98408672D01*
X121525667Y-98411667D01*
X121522672Y-98415569D01*
X121522669Y-98415573D01*
X121440041Y-98523257D01*
X121440038Y-98523260D01*
X121437043Y-98527165D01*
X121435162Y-98531706D01*
X121435158Y-98531713D01*
X121383217Y-98657110D01*
X121381331Y-98661664D01*
X121380688Y-98666546D01*
X121380687Y-98666551D01*
X121363411Y-98797777D01*
X121362329Y-98806000D01*
X119937671Y-98806000D01*
X119918669Y-98661664D01*
X119862957Y-98527165D01*
X119774333Y-98411667D01*
X119658836Y-98323043D01*
X119654291Y-98321160D01*
X119654287Y-98321158D01*
X119528889Y-98269217D01*
X119524336Y-98267331D01*
X119519451Y-98266687D01*
X119519448Y-98266687D01*
X119384884Y-98248972D01*
X119380000Y-98248329D01*
X119375116Y-98248972D01*
X119240551Y-98266687D01*
X119240546Y-98266688D01*
X119235664Y-98267331D01*
X119231112Y-98269216D01*
X119231110Y-98269217D01*
X119105713Y-98321158D01*
X119105706Y-98321162D01*
X119101165Y-98323043D01*
X119097260Y-98326038D01*
X119097257Y-98326041D01*
X118989573Y-98408669D01*
X118989569Y-98408672D01*
X118985667Y-98411667D01*
X118982672Y-98415569D01*
X118982669Y-98415573D01*
X118900041Y-98523257D01*
X118900038Y-98523260D01*
X118897043Y-98527165D01*
X118895162Y-98531706D01*
X118895158Y-98531713D01*
X118843217Y-98657110D01*
X118841331Y-98661664D01*
X118840688Y-98666546D01*
X118840687Y-98666551D01*
X118823411Y-98797777D01*
X118822329Y-98806000D01*
X117397671Y-98806000D01*
X117378669Y-98661664D01*
X117322957Y-98527165D01*
X117234333Y-98411667D01*
X117118836Y-98323043D01*
X117114291Y-98321160D01*
X117114287Y-98321158D01*
X116988889Y-98269217D01*
X116984336Y-98267331D01*
X116979451Y-98266687D01*
X116979448Y-98266687D01*
X116844884Y-98248972D01*
X116840000Y-98248329D01*
X116835116Y-98248972D01*
X116700551Y-98266687D01*
X116700546Y-98266688D01*
X116695664Y-98267331D01*
X116691112Y-98269216D01*
X116691110Y-98269217D01*
X116565713Y-98321158D01*
X116565706Y-98321162D01*
X116561165Y-98323043D01*
X116557260Y-98326038D01*
X116557257Y-98326041D01*
X116449573Y-98408669D01*
X116449569Y-98408672D01*
X116445667Y-98411667D01*
X116442672Y-98415569D01*
X116442669Y-98415573D01*
X116360041Y-98523257D01*
X116360038Y-98523260D01*
X116357043Y-98527165D01*
X116355162Y-98531706D01*
X116355158Y-98531713D01*
X116303217Y-98657110D01*
X116301331Y-98661664D01*
X116300688Y-98666546D01*
X116300687Y-98666551D01*
X116283411Y-98797777D01*
X116282329Y-98806000D01*
X114857671Y-98806000D01*
X114838669Y-98661664D01*
X114782957Y-98527165D01*
X114694333Y-98411667D01*
X114578836Y-98323043D01*
X114574291Y-98321160D01*
X114574287Y-98321158D01*
X114448889Y-98269217D01*
X114444336Y-98267331D01*
X114439451Y-98266687D01*
X114439448Y-98266687D01*
X114304884Y-98248972D01*
X114300000Y-98248329D01*
X114295116Y-98248972D01*
X114160551Y-98266687D01*
X114160546Y-98266688D01*
X114155664Y-98267331D01*
X114151112Y-98269216D01*
X114151110Y-98269217D01*
X114025713Y-98321158D01*
X114025706Y-98321162D01*
X114021165Y-98323043D01*
X114017260Y-98326038D01*
X114017257Y-98326041D01*
X113909573Y-98408669D01*
X113909569Y-98408672D01*
X113905667Y-98411667D01*
X113902672Y-98415569D01*
X113902669Y-98415573D01*
X113820041Y-98523257D01*
X113820038Y-98523260D01*
X113817043Y-98527165D01*
X113815162Y-98531706D01*
X113815158Y-98531713D01*
X113763217Y-98657110D01*
X113761331Y-98661664D01*
X113760688Y-98666546D01*
X113760687Y-98666551D01*
X113743411Y-98797777D01*
X113742329Y-98806000D01*
X112317671Y-98806000D01*
X112298669Y-98661664D01*
X112242957Y-98527165D01*
X112154333Y-98411667D01*
X112038836Y-98323043D01*
X112034291Y-98321160D01*
X112034287Y-98321158D01*
X111908889Y-98269217D01*
X111904336Y-98267331D01*
X111899451Y-98266687D01*
X111899448Y-98266687D01*
X111764884Y-98248972D01*
X111760000Y-98248329D01*
X111755116Y-98248972D01*
X111620551Y-98266687D01*
X111620546Y-98266688D01*
X111615664Y-98267331D01*
X111611112Y-98269216D01*
X111611110Y-98269217D01*
X111485713Y-98321158D01*
X111485706Y-98321162D01*
X111481165Y-98323043D01*
X111477260Y-98326038D01*
X111477257Y-98326041D01*
X111369573Y-98408669D01*
X111369569Y-98408672D01*
X111365667Y-98411667D01*
X111362672Y-98415569D01*
X111362669Y-98415573D01*
X111280041Y-98523257D01*
X111280038Y-98523260D01*
X111277043Y-98527165D01*
X111275162Y-98531706D01*
X111275158Y-98531713D01*
X111223217Y-98657110D01*
X111221331Y-98661664D01*
X111220688Y-98666546D01*
X111220687Y-98666551D01*
X111203411Y-98797777D01*
X111202329Y-98806000D01*
X109777671Y-98806000D01*
X109758669Y-98661664D01*
X109702957Y-98527165D01*
X109614333Y-98411667D01*
X109498836Y-98323043D01*
X109494291Y-98321160D01*
X109494287Y-98321158D01*
X109368889Y-98269217D01*
X109364336Y-98267331D01*
X109359451Y-98266687D01*
X109359448Y-98266687D01*
X109224884Y-98248972D01*
X109220000Y-98248329D01*
X109215116Y-98248972D01*
X109080551Y-98266687D01*
X109080546Y-98266688D01*
X109075664Y-98267331D01*
X109071112Y-98269216D01*
X109071110Y-98269217D01*
X108945713Y-98321158D01*
X108945706Y-98321162D01*
X108941165Y-98323043D01*
X108937260Y-98326038D01*
X108937257Y-98326041D01*
X108829573Y-98408669D01*
X108829569Y-98408672D01*
X108825667Y-98411667D01*
X108822672Y-98415569D01*
X108822669Y-98415573D01*
X108740041Y-98523257D01*
X108740038Y-98523260D01*
X108737043Y-98527165D01*
X108735162Y-98531706D01*
X108735158Y-98531713D01*
X108683217Y-98657110D01*
X108681331Y-98661664D01*
X108680688Y-98666546D01*
X108680687Y-98666551D01*
X108663411Y-98797777D01*
X108662329Y-98806000D01*
X107237671Y-98806000D01*
X107218669Y-98661664D01*
X107162957Y-98527165D01*
X107074333Y-98411667D01*
X106958836Y-98323043D01*
X106954291Y-98321160D01*
X106954287Y-98321158D01*
X106828889Y-98269217D01*
X106824336Y-98267331D01*
X106819451Y-98266687D01*
X106819448Y-98266687D01*
X106684884Y-98248972D01*
X106680000Y-98248329D01*
X106675116Y-98248972D01*
X106540551Y-98266687D01*
X106540546Y-98266688D01*
X106535664Y-98267331D01*
X106531112Y-98269216D01*
X106531110Y-98269217D01*
X106405713Y-98321158D01*
X106405706Y-98321162D01*
X106401165Y-98323043D01*
X106397260Y-98326038D01*
X106397257Y-98326041D01*
X106289573Y-98408669D01*
X106289569Y-98408672D01*
X106285667Y-98411667D01*
X106282672Y-98415569D01*
X106282669Y-98415573D01*
X106200041Y-98523257D01*
X106200038Y-98523260D01*
X106197043Y-98527165D01*
X106195162Y-98531706D01*
X106195158Y-98531713D01*
X106143217Y-98657110D01*
X106141331Y-98661664D01*
X106140688Y-98666546D01*
X106140687Y-98666551D01*
X106123411Y-98797777D01*
X106122329Y-98806000D01*
X102157671Y-98806000D01*
X102138669Y-98661664D01*
X102082957Y-98527165D01*
X101994333Y-98411667D01*
X101878836Y-98323043D01*
X101874291Y-98321160D01*
X101874287Y-98321158D01*
X101748889Y-98269217D01*
X101744336Y-98267331D01*
X101739451Y-98266687D01*
X101739448Y-98266687D01*
X101604884Y-98248972D01*
X101600000Y-98248329D01*
X101595116Y-98248972D01*
X101460551Y-98266687D01*
X101460546Y-98266688D01*
X101455664Y-98267331D01*
X101451112Y-98269216D01*
X101451110Y-98269217D01*
X101325713Y-98321158D01*
X101325706Y-98321162D01*
X101321165Y-98323043D01*
X101317260Y-98326038D01*
X101317257Y-98326041D01*
X101209573Y-98408669D01*
X101209569Y-98408672D01*
X101205667Y-98411667D01*
X101202672Y-98415569D01*
X101202669Y-98415573D01*
X101120041Y-98523257D01*
X101120038Y-98523260D01*
X101117043Y-98527165D01*
X101115162Y-98531706D01*
X101115158Y-98531713D01*
X101063217Y-98657110D01*
X101061331Y-98661664D01*
X101060688Y-98666546D01*
X101060687Y-98666551D01*
X101043411Y-98797777D01*
X101042329Y-98806000D01*
X99617671Y-98806000D01*
X99598669Y-98661664D01*
X99542957Y-98527165D01*
X99454333Y-98411667D01*
X99338836Y-98323043D01*
X99334291Y-98321160D01*
X99334287Y-98321158D01*
X99208889Y-98269217D01*
X99204336Y-98267331D01*
X99199451Y-98266687D01*
X99199448Y-98266687D01*
X99064884Y-98248972D01*
X99060000Y-98248329D01*
X99055116Y-98248972D01*
X98920551Y-98266687D01*
X98920546Y-98266688D01*
X98915664Y-98267331D01*
X98911112Y-98269216D01*
X98911110Y-98269217D01*
X98785713Y-98321158D01*
X98785706Y-98321162D01*
X98781165Y-98323043D01*
X98777260Y-98326038D01*
X98777257Y-98326041D01*
X98669573Y-98408669D01*
X98669569Y-98408672D01*
X98665667Y-98411667D01*
X98662672Y-98415569D01*
X98662669Y-98415573D01*
X98580041Y-98523257D01*
X98580038Y-98523260D01*
X98577043Y-98527165D01*
X98575162Y-98531706D01*
X98575158Y-98531713D01*
X98523217Y-98657110D01*
X98521331Y-98661664D01*
X98520688Y-98666546D01*
X98520687Y-98666551D01*
X98503411Y-98797777D01*
X98502329Y-98806000D01*
X97077671Y-98806000D01*
X97058669Y-98661664D01*
X97002957Y-98527165D01*
X96914333Y-98411667D01*
X96798836Y-98323043D01*
X96794291Y-98321160D01*
X96794287Y-98321158D01*
X96668889Y-98269217D01*
X96664336Y-98267331D01*
X96659451Y-98266687D01*
X96659448Y-98266687D01*
X96524884Y-98248972D01*
X96520000Y-98248329D01*
X96515116Y-98248972D01*
X96380551Y-98266687D01*
X96380546Y-98266688D01*
X96375664Y-98267331D01*
X96371112Y-98269216D01*
X96371110Y-98269217D01*
X96245713Y-98321158D01*
X96245706Y-98321162D01*
X96241165Y-98323043D01*
X96237260Y-98326038D01*
X96237257Y-98326041D01*
X96129573Y-98408669D01*
X96129569Y-98408672D01*
X96125667Y-98411667D01*
X96122672Y-98415569D01*
X96122669Y-98415573D01*
X96040041Y-98523257D01*
X96040038Y-98523260D01*
X96037043Y-98527165D01*
X96035162Y-98531706D01*
X96035158Y-98531713D01*
X95983217Y-98657110D01*
X95981331Y-98661664D01*
X95980688Y-98666546D01*
X95980687Y-98666551D01*
X95963411Y-98797777D01*
X95962329Y-98806000D01*
X94537671Y-98806000D01*
X94518669Y-98661664D01*
X94462957Y-98527165D01*
X94374333Y-98411667D01*
X94258836Y-98323043D01*
X94254291Y-98321160D01*
X94254287Y-98321158D01*
X94128889Y-98269217D01*
X94124336Y-98267331D01*
X94119451Y-98266687D01*
X94119448Y-98266687D01*
X93984884Y-98248972D01*
X93980000Y-98248329D01*
X93975116Y-98248972D01*
X93840551Y-98266687D01*
X93840546Y-98266688D01*
X93835664Y-98267331D01*
X93831112Y-98269216D01*
X93831110Y-98269217D01*
X93705713Y-98321158D01*
X93705706Y-98321162D01*
X93701165Y-98323043D01*
X93697260Y-98326038D01*
X93697257Y-98326041D01*
X93589573Y-98408669D01*
X93589569Y-98408672D01*
X93585667Y-98411667D01*
X93582672Y-98415569D01*
X93582669Y-98415573D01*
X93500041Y-98523257D01*
X93500038Y-98523260D01*
X93497043Y-98527165D01*
X93495162Y-98531706D01*
X93495158Y-98531713D01*
X93443217Y-98657110D01*
X93441331Y-98661664D01*
X93440688Y-98666546D01*
X93440687Y-98666551D01*
X93423411Y-98797777D01*
X93422329Y-98806000D01*
X91997671Y-98806000D01*
X91978669Y-98661664D01*
X91922957Y-98527165D01*
X91834333Y-98411667D01*
X91718836Y-98323043D01*
X91714291Y-98321160D01*
X91714287Y-98321158D01*
X91588889Y-98269217D01*
X91584336Y-98267331D01*
X91579451Y-98266687D01*
X91579448Y-98266687D01*
X91444884Y-98248972D01*
X91440000Y-98248329D01*
X91435116Y-98248972D01*
X91300551Y-98266687D01*
X91300546Y-98266688D01*
X91295664Y-98267331D01*
X91291112Y-98269216D01*
X91291110Y-98269217D01*
X91165713Y-98321158D01*
X91165706Y-98321162D01*
X91161165Y-98323043D01*
X91157260Y-98326038D01*
X91157257Y-98326041D01*
X91049573Y-98408669D01*
X91049569Y-98408672D01*
X91045667Y-98411667D01*
X91042672Y-98415569D01*
X91042669Y-98415573D01*
X90960041Y-98523257D01*
X90960038Y-98523260D01*
X90957043Y-98527165D01*
X90955162Y-98531706D01*
X90955158Y-98531713D01*
X90903217Y-98657110D01*
X90901331Y-98661664D01*
X90900688Y-98666546D01*
X90900687Y-98666551D01*
X90883411Y-98797777D01*
X90882329Y-98806000D01*
X89457671Y-98806000D01*
X89438669Y-98661664D01*
X89382957Y-98527165D01*
X89294333Y-98411667D01*
X89178836Y-98323043D01*
X89174291Y-98321160D01*
X89174287Y-98321158D01*
X89048889Y-98269217D01*
X89044336Y-98267331D01*
X89039451Y-98266687D01*
X89039448Y-98266687D01*
X88904884Y-98248972D01*
X88900000Y-98248329D01*
X88895116Y-98248972D01*
X88760551Y-98266687D01*
X88760546Y-98266688D01*
X88755664Y-98267331D01*
X88751112Y-98269216D01*
X88751110Y-98269217D01*
X88625713Y-98321158D01*
X88625706Y-98321162D01*
X88621165Y-98323043D01*
X88617260Y-98326038D01*
X88617257Y-98326041D01*
X88509573Y-98408669D01*
X88509569Y-98408672D01*
X88505667Y-98411667D01*
X88502672Y-98415569D01*
X88502669Y-98415573D01*
X88420041Y-98523257D01*
X88420038Y-98523260D01*
X88417043Y-98527165D01*
X88415162Y-98531706D01*
X88415158Y-98531713D01*
X88363217Y-98657110D01*
X88361331Y-98661664D01*
X88360688Y-98666546D01*
X88360687Y-98666551D01*
X88343411Y-98797777D01*
X88342329Y-98806000D01*
X86917671Y-98806000D01*
X86898669Y-98661664D01*
X86842957Y-98527165D01*
X86754333Y-98411667D01*
X86638836Y-98323043D01*
X86634291Y-98321160D01*
X86634287Y-98321158D01*
X86508889Y-98269217D01*
X86504336Y-98267331D01*
X86499451Y-98266687D01*
X86499448Y-98266687D01*
X86364884Y-98248972D01*
X86360000Y-98248329D01*
X86355116Y-98248972D01*
X86220551Y-98266687D01*
X86220546Y-98266688D01*
X86215664Y-98267331D01*
X86211112Y-98269216D01*
X86211110Y-98269217D01*
X86085713Y-98321158D01*
X86085706Y-98321162D01*
X86081165Y-98323043D01*
X86077260Y-98326038D01*
X86077257Y-98326041D01*
X85969573Y-98408669D01*
X85969569Y-98408672D01*
X85965667Y-98411667D01*
X85962672Y-98415569D01*
X85962669Y-98415573D01*
X85880041Y-98523257D01*
X85880038Y-98523260D01*
X85877043Y-98527165D01*
X85875162Y-98531706D01*
X85875158Y-98531713D01*
X85823217Y-98657110D01*
X85821331Y-98661664D01*
X85820688Y-98666546D01*
X85820687Y-98666551D01*
X85803411Y-98797777D01*
X85802329Y-98806000D01*
X84377671Y-98806000D01*
X84358669Y-98661664D01*
X84302957Y-98527165D01*
X84214333Y-98411667D01*
X84098836Y-98323043D01*
X84094291Y-98321160D01*
X84094287Y-98321158D01*
X83968889Y-98269217D01*
X83964336Y-98267331D01*
X83959451Y-98266687D01*
X83959448Y-98266687D01*
X83824884Y-98248972D01*
X83820000Y-98248329D01*
X83815116Y-98248972D01*
X83680551Y-98266687D01*
X83680546Y-98266688D01*
X83675664Y-98267331D01*
X83671112Y-98269216D01*
X83671110Y-98269217D01*
X83545713Y-98321158D01*
X83545706Y-98321162D01*
X83541165Y-98323043D01*
X83537260Y-98326038D01*
X83537257Y-98326041D01*
X83429573Y-98408669D01*
X83429569Y-98408672D01*
X83425667Y-98411667D01*
X83422672Y-98415569D01*
X83422669Y-98415573D01*
X83340041Y-98523257D01*
X83340038Y-98523260D01*
X83337043Y-98527165D01*
X83335162Y-98531706D01*
X83335158Y-98531713D01*
X83283217Y-98657110D01*
X83281331Y-98661664D01*
X83280688Y-98666546D01*
X83280687Y-98666551D01*
X83263411Y-98797777D01*
X83262329Y-98806000D01*
X78482500Y-98806000D01*
X78482500Y-97853500D01*
X145638028Y-97853500D01*
X145638954Y-97859347D01*
X145657264Y-97974959D01*
X145657265Y-97974964D01*
X145658191Y-97980806D01*
X145660875Y-97986074D01*
X145660877Y-97986079D01*
X145714019Y-98090374D01*
X145716708Y-98095651D01*
X145807849Y-98186792D01*
X145867099Y-98216981D01*
X145917420Y-98242622D01*
X145917421Y-98242622D01*
X145922694Y-98245309D01*
X145928539Y-98246234D01*
X145928540Y-98246235D01*
X146044153Y-98264546D01*
X146050000Y-98265472D01*
X146177306Y-98245309D01*
X146292151Y-98186792D01*
X146383292Y-98095651D01*
X146441809Y-97980806D01*
X146461972Y-97853500D01*
X146441809Y-97726194D01*
X146383292Y-97611349D01*
X146292151Y-97520208D01*
X146286874Y-97517519D01*
X146182579Y-97464377D01*
X146182574Y-97464375D01*
X146177306Y-97461691D01*
X146171464Y-97460765D01*
X146171459Y-97460764D01*
X146055847Y-97442454D01*
X146050000Y-97441528D01*
X146044153Y-97442454D01*
X145928540Y-97460764D01*
X145928533Y-97460766D01*
X145922694Y-97461691D01*
X145917426Y-97464374D01*
X145917420Y-97464377D01*
X145813125Y-97517519D01*
X145813121Y-97517521D01*
X145807849Y-97520208D01*
X145803662Y-97524394D01*
X145803659Y-97524397D01*
X145720897Y-97607159D01*
X145720894Y-97607162D01*
X145716708Y-97611349D01*
X145714021Y-97616621D01*
X145714019Y-97616625D01*
X145660877Y-97720920D01*
X145660874Y-97720926D01*
X145658191Y-97726194D01*
X145657266Y-97732033D01*
X145657264Y-97732040D01*
X145638954Y-97847653D01*
X145638028Y-97853500D01*
X78482500Y-97853500D01*
X78482500Y-96719489D01*
X78482500Y-96717031D01*
X78453928Y-96500000D01*
X146988028Y-96500000D01*
X146988954Y-96505847D01*
X147007264Y-96621459D01*
X147007265Y-96621464D01*
X147008191Y-96627306D01*
X147010875Y-96632574D01*
X147010877Y-96632579D01*
X147055161Y-96719489D01*
X147066708Y-96742151D01*
X147157849Y-96833292D01*
X147166108Y-96837500D01*
X147267420Y-96889122D01*
X147267421Y-96889122D01*
X147272694Y-96891809D01*
X147278539Y-96892734D01*
X147278540Y-96892735D01*
X147394153Y-96911046D01*
X147400000Y-96911972D01*
X147527306Y-96891809D01*
X147642151Y-96833292D01*
X147733292Y-96742151D01*
X147791809Y-96627306D01*
X147811972Y-96500000D01*
X147811046Y-96494153D01*
X147792735Y-96378540D01*
X147792734Y-96378539D01*
X147791809Y-96372694D01*
X147733292Y-96257849D01*
X147642151Y-96166708D01*
X147636874Y-96164019D01*
X147587772Y-96139000D01*
X163799028Y-96139000D01*
X163799954Y-96144847D01*
X163818264Y-96260459D01*
X163818265Y-96260464D01*
X163819191Y-96266306D01*
X163821875Y-96271574D01*
X163821877Y-96271579D01*
X163873399Y-96372694D01*
X163877708Y-96381151D01*
X163968849Y-96472292D01*
X163980356Y-96478155D01*
X164078420Y-96528122D01*
X164078421Y-96528122D01*
X164083694Y-96530809D01*
X164089539Y-96531734D01*
X164089540Y-96531735D01*
X164205153Y-96550046D01*
X164211000Y-96550972D01*
X164338306Y-96530809D01*
X164453151Y-96472292D01*
X164544292Y-96381151D01*
X164602809Y-96266306D01*
X164622972Y-96139000D01*
X164607081Y-96038669D01*
X164603735Y-96017540D01*
X164603734Y-96017539D01*
X164602809Y-96011694D01*
X164544292Y-95896849D01*
X164453151Y-95805708D01*
X164447874Y-95803019D01*
X164343579Y-95749877D01*
X164343574Y-95749875D01*
X164338306Y-95747191D01*
X164332464Y-95746265D01*
X164332459Y-95746264D01*
X164216847Y-95727954D01*
X164211000Y-95727028D01*
X164205153Y-95727954D01*
X164089540Y-95746264D01*
X164089533Y-95746266D01*
X164083694Y-95747191D01*
X164078426Y-95749874D01*
X164078420Y-95749877D01*
X163974125Y-95803019D01*
X163974121Y-95803021D01*
X163968849Y-95805708D01*
X163964662Y-95809894D01*
X163964659Y-95809897D01*
X163881897Y-95892659D01*
X163881894Y-95892662D01*
X163877708Y-95896849D01*
X163875021Y-95902121D01*
X163875019Y-95902125D01*
X163821877Y-96006420D01*
X163821874Y-96006426D01*
X163819191Y-96011694D01*
X163818266Y-96017533D01*
X163818264Y-96017540D01*
X163803482Y-96110877D01*
X163799028Y-96139000D01*
X147587772Y-96139000D01*
X147532579Y-96110877D01*
X147532574Y-96110875D01*
X147527306Y-96108191D01*
X147521464Y-96107265D01*
X147521459Y-96107264D01*
X147405847Y-96088954D01*
X147400000Y-96088028D01*
X147394153Y-96088954D01*
X147278540Y-96107264D01*
X147278533Y-96107266D01*
X147272694Y-96108191D01*
X147267426Y-96110874D01*
X147267420Y-96110877D01*
X147163125Y-96164019D01*
X147163121Y-96164021D01*
X147157849Y-96166708D01*
X147153662Y-96170894D01*
X147153659Y-96170897D01*
X147070897Y-96253659D01*
X147070894Y-96253662D01*
X147066708Y-96257849D01*
X147064021Y-96263121D01*
X147064019Y-96263125D01*
X147010877Y-96367420D01*
X147010874Y-96367426D01*
X147008191Y-96372694D01*
X147007266Y-96378533D01*
X147007264Y-96378540D01*
X146988954Y-96494153D01*
X146988028Y-96500000D01*
X78453928Y-96500000D01*
X78451052Y-96478155D01*
X78388692Y-96245427D01*
X78296489Y-96022829D01*
X78176020Y-95814171D01*
X78029347Y-95623022D01*
X77906325Y-95500000D01*
X153792329Y-95500000D01*
X153792972Y-95504884D01*
X153808781Y-95624972D01*
X153811331Y-95644336D01*
X153813217Y-95648889D01*
X153865158Y-95774287D01*
X153865160Y-95774291D01*
X153867043Y-95778836D01*
X153955667Y-95894333D01*
X154071164Y-95982957D01*
X154205664Y-96038669D01*
X154350000Y-96057671D01*
X154494336Y-96038669D01*
X154628836Y-95982957D01*
X154744333Y-95894333D01*
X154832957Y-95778836D01*
X154888669Y-95644336D01*
X154907671Y-95500000D01*
X154891478Y-95377000D01*
X156822305Y-95377000D01*
X156822853Y-95381513D01*
X156837832Y-95504884D01*
X156841416Y-95534397D01*
X156843029Y-95538652D01*
X156843030Y-95538653D01*
X156884837Y-95648889D01*
X156897640Y-95682646D01*
X156900224Y-95686390D01*
X156900226Y-95686393D01*
X156985120Y-95809383D01*
X156987708Y-95813132D01*
X156991111Y-95816147D01*
X156991114Y-95816150D01*
X156991295Y-95816310D01*
X157106387Y-95918272D01*
X157246778Y-95991956D01*
X157400724Y-96029900D01*
X157554725Y-96029900D01*
X157559276Y-96029900D01*
X157713222Y-95991956D01*
X157853613Y-95918272D01*
X157972292Y-95813132D01*
X158062360Y-95682646D01*
X158118584Y-95534397D01*
X158137695Y-95377000D01*
X158118584Y-95219603D01*
X158062360Y-95071354D01*
X157972292Y-94940868D01*
X157968887Y-94937852D01*
X157968885Y-94937849D01*
X157877656Y-94857028D01*
X157853613Y-94835728D01*
X157849588Y-94833615D01*
X157849586Y-94833614D01*
X157717247Y-94764156D01*
X157717243Y-94764154D01*
X157713222Y-94762044D01*
X157677063Y-94753131D01*
X157563693Y-94725188D01*
X157563687Y-94725187D01*
X157559276Y-94724100D01*
X157400724Y-94724100D01*
X157396313Y-94725187D01*
X157396306Y-94725188D01*
X157251192Y-94760956D01*
X157246778Y-94762044D01*
X157242759Y-94764153D01*
X157242752Y-94764156D01*
X157110413Y-94833614D01*
X157110407Y-94833618D01*
X157106387Y-94835728D01*
X157102986Y-94838740D01*
X157102983Y-94838743D01*
X156991114Y-94937849D01*
X156991107Y-94937856D01*
X156987708Y-94940868D01*
X156985124Y-94944611D01*
X156985120Y-94944616D01*
X156900226Y-95067606D01*
X156900222Y-95067612D01*
X156897640Y-95071354D01*
X156896028Y-95075603D01*
X156896026Y-95075608D01*
X156843030Y-95215346D01*
X156841416Y-95219603D01*
X156822305Y-95377000D01*
X154891478Y-95377000D01*
X154888669Y-95355664D01*
X154832957Y-95221165D01*
X154744333Y-95105667D01*
X154628836Y-95017043D01*
X154624291Y-95015160D01*
X154624287Y-95015158D01*
X154498889Y-94963217D01*
X154494336Y-94961331D01*
X154489451Y-94960687D01*
X154489448Y-94960687D01*
X154354884Y-94942972D01*
X154350000Y-94942329D01*
X154345116Y-94942972D01*
X154210551Y-94960687D01*
X154210546Y-94960688D01*
X154205664Y-94961331D01*
X154201112Y-94963216D01*
X154201110Y-94963217D01*
X154075713Y-95015158D01*
X154075706Y-95015162D01*
X154071165Y-95017043D01*
X154067260Y-95020038D01*
X154067257Y-95020041D01*
X153959573Y-95102669D01*
X153959569Y-95102672D01*
X153955667Y-95105667D01*
X153952672Y-95109569D01*
X153952669Y-95109573D01*
X153870041Y-95217257D01*
X153870038Y-95217260D01*
X153867043Y-95221165D01*
X153865162Y-95225706D01*
X153865158Y-95225713D01*
X153831288Y-95307483D01*
X153811331Y-95355664D01*
X153810688Y-95360546D01*
X153810687Y-95360551D01*
X153798759Y-95451156D01*
X153792329Y-95500000D01*
X77906325Y-95500000D01*
X77858978Y-95452653D01*
X77667829Y-95305980D01*
X77665694Y-95304747D01*
X77665689Y-95304744D01*
X77461298Y-95186739D01*
X77461297Y-95186738D01*
X77459171Y-95185511D01*
X77236573Y-95093308D01*
X77234211Y-95092675D01*
X77234202Y-95092672D01*
X77006215Y-95031583D01*
X77006214Y-95031582D01*
X77003845Y-95030948D01*
X77001419Y-95030628D01*
X77001411Y-95030627D01*
X76767404Y-94999820D01*
X76767395Y-94999819D01*
X76764969Y-94999500D01*
X76762511Y-94999500D01*
X76525700Y-94999500D01*
X76488100Y-94989425D01*
X76460575Y-94961900D01*
X76450500Y-94924300D01*
X76450500Y-94742000D01*
X78582028Y-94742000D01*
X78582954Y-94747847D01*
X78601264Y-94863459D01*
X78601265Y-94863464D01*
X78602191Y-94869306D01*
X78604875Y-94874574D01*
X78604877Y-94874579D01*
X78649370Y-94961900D01*
X78660708Y-94984151D01*
X78751849Y-95075292D01*
X78785959Y-95092672D01*
X78861420Y-95131122D01*
X78861421Y-95131122D01*
X78866694Y-95133809D01*
X78872539Y-95134734D01*
X78872540Y-95134735D01*
X78988153Y-95153046D01*
X78994000Y-95153972D01*
X79121306Y-95133809D01*
X79236151Y-95075292D01*
X79327292Y-94984151D01*
X79385809Y-94869306D01*
X79395915Y-94805500D01*
X87172443Y-94805500D01*
X87173208Y-94810821D01*
X87189523Y-94924300D01*
X87190977Y-94934409D01*
X87245079Y-95052874D01*
X87248598Y-95056935D01*
X87326842Y-95147235D01*
X87326844Y-95147236D01*
X87330364Y-95151299D01*
X87439924Y-95221708D01*
X87564883Y-95258400D01*
X87689737Y-95258400D01*
X87695117Y-95258400D01*
X87820076Y-95221708D01*
X87929636Y-95151299D01*
X88014921Y-95052874D01*
X88069023Y-94934409D01*
X88087557Y-94805500D01*
X121462443Y-94805500D01*
X121463208Y-94810821D01*
X121479523Y-94924300D01*
X121480977Y-94934409D01*
X121535079Y-95052874D01*
X121538598Y-95056935D01*
X121616842Y-95147235D01*
X121616844Y-95147236D01*
X121620364Y-95151299D01*
X121729924Y-95221708D01*
X121854883Y-95258400D01*
X121979737Y-95258400D01*
X121985117Y-95258400D01*
X122110076Y-95221708D01*
X122219636Y-95151299D01*
X122304921Y-95052874D01*
X122359023Y-94934409D01*
X122377557Y-94805500D01*
X136702443Y-94805500D01*
X136703208Y-94810821D01*
X136719523Y-94924300D01*
X136720977Y-94934409D01*
X136775079Y-95052874D01*
X136778598Y-95056935D01*
X136856842Y-95147235D01*
X136856844Y-95147236D01*
X136860364Y-95151299D01*
X136969924Y-95221708D01*
X137094883Y-95258400D01*
X137219737Y-95258400D01*
X137225117Y-95258400D01*
X137350076Y-95221708D01*
X137459636Y-95151299D01*
X137544921Y-95052874D01*
X137599023Y-94934409D01*
X137617557Y-94805500D01*
X137599023Y-94676591D01*
X137544921Y-94558126D01*
X137459636Y-94459701D01*
X137442812Y-94448889D01*
X137354600Y-94392199D01*
X137354598Y-94392198D01*
X137350076Y-94389292D01*
X137344915Y-94387776D01*
X137344914Y-94387776D01*
X137230278Y-94354115D01*
X137230275Y-94354114D01*
X137225117Y-94352600D01*
X137094883Y-94352600D01*
X137089725Y-94354114D01*
X137089721Y-94354115D01*
X136975085Y-94387776D01*
X136975081Y-94387777D01*
X136969924Y-94389292D01*
X136965404Y-94392196D01*
X136965399Y-94392199D01*
X136864886Y-94456794D01*
X136864881Y-94456797D01*
X136860364Y-94459701D01*
X136856847Y-94463759D01*
X136856842Y-94463764D01*
X136778598Y-94554064D01*
X136778595Y-94554067D01*
X136775079Y-94558126D01*
X136772846Y-94563013D01*
X136772846Y-94563015D01*
X136735099Y-94645669D01*
X136720977Y-94676591D01*
X136702443Y-94805500D01*
X122377557Y-94805500D01*
X122359023Y-94676591D01*
X122304921Y-94558126D01*
X122219636Y-94459701D01*
X122202812Y-94448889D01*
X122114600Y-94392199D01*
X122114598Y-94392198D01*
X122110076Y-94389292D01*
X122104915Y-94387776D01*
X122104914Y-94387776D01*
X121990278Y-94354115D01*
X121990275Y-94354114D01*
X121985117Y-94352600D01*
X121854883Y-94352600D01*
X121849725Y-94354114D01*
X121849721Y-94354115D01*
X121735085Y-94387776D01*
X121735081Y-94387777D01*
X121729924Y-94389292D01*
X121725404Y-94392196D01*
X121725399Y-94392199D01*
X121624886Y-94456794D01*
X121624881Y-94456797D01*
X121620364Y-94459701D01*
X121616847Y-94463759D01*
X121616842Y-94463764D01*
X121538598Y-94554064D01*
X121538595Y-94554067D01*
X121535079Y-94558126D01*
X121532846Y-94563013D01*
X121532846Y-94563015D01*
X121495099Y-94645669D01*
X121480977Y-94676591D01*
X121462443Y-94805500D01*
X88087557Y-94805500D01*
X88069023Y-94676591D01*
X88014921Y-94558126D01*
X87929636Y-94459701D01*
X87912812Y-94448889D01*
X87824600Y-94392199D01*
X87824598Y-94392198D01*
X87820076Y-94389292D01*
X87814915Y-94387776D01*
X87814914Y-94387776D01*
X87700278Y-94354115D01*
X87700275Y-94354114D01*
X87695117Y-94352600D01*
X87564883Y-94352600D01*
X87559725Y-94354114D01*
X87559721Y-94354115D01*
X87445085Y-94387776D01*
X87445081Y-94387777D01*
X87439924Y-94389292D01*
X87435404Y-94392196D01*
X87435399Y-94392199D01*
X87334886Y-94456794D01*
X87334881Y-94456797D01*
X87330364Y-94459701D01*
X87326847Y-94463759D01*
X87326842Y-94463764D01*
X87248598Y-94554064D01*
X87248595Y-94554067D01*
X87245079Y-94558126D01*
X87242846Y-94563013D01*
X87242846Y-94563015D01*
X87205099Y-94645669D01*
X87190977Y-94676591D01*
X87172443Y-94805500D01*
X79395915Y-94805500D01*
X79405972Y-94742000D01*
X79394838Y-94671701D01*
X79386735Y-94620540D01*
X79386734Y-94620539D01*
X79385809Y-94614694D01*
X79327292Y-94499849D01*
X79236151Y-94408708D01*
X79203751Y-94392199D01*
X79126579Y-94352877D01*
X79126574Y-94352875D01*
X79121306Y-94350191D01*
X79115464Y-94349265D01*
X79115459Y-94349264D01*
X78999847Y-94330954D01*
X78994000Y-94330028D01*
X78988153Y-94330954D01*
X78872540Y-94349264D01*
X78872533Y-94349266D01*
X78866694Y-94350191D01*
X78861426Y-94352874D01*
X78861420Y-94352877D01*
X78757125Y-94406019D01*
X78757121Y-94406021D01*
X78751849Y-94408708D01*
X78747662Y-94412894D01*
X78747659Y-94412897D01*
X78664897Y-94495659D01*
X78664894Y-94495662D01*
X78660708Y-94499849D01*
X78658021Y-94505121D01*
X78658019Y-94505125D01*
X78604877Y-94609420D01*
X78604874Y-94609426D01*
X78602191Y-94614694D01*
X78601266Y-94620533D01*
X78601264Y-94620540D01*
X78589103Y-94697330D01*
X78582028Y-94742000D01*
X76450500Y-94742000D01*
X76450500Y-94300000D01*
X152892329Y-94300000D01*
X152892972Y-94304884D01*
X152906640Y-94408708D01*
X152911331Y-94444336D01*
X152913217Y-94448889D01*
X152965158Y-94574287D01*
X152965160Y-94574291D01*
X152967043Y-94578836D01*
X153055667Y-94694333D01*
X153171164Y-94782957D01*
X153305664Y-94838669D01*
X153450000Y-94857671D01*
X153594336Y-94838669D01*
X153728836Y-94782957D01*
X153844333Y-94694333D01*
X153932957Y-94578836D01*
X153988669Y-94444336D01*
X154007671Y-94300000D01*
X154692329Y-94300000D01*
X154692972Y-94304884D01*
X154706640Y-94408708D01*
X154711331Y-94444336D01*
X154713217Y-94448889D01*
X154765158Y-94574287D01*
X154765160Y-94574291D01*
X154767043Y-94578836D01*
X154855667Y-94694333D01*
X154971164Y-94782957D01*
X155105664Y-94838669D01*
X155250000Y-94857671D01*
X155394336Y-94838669D01*
X155528836Y-94782957D01*
X155644333Y-94694333D01*
X155732957Y-94578836D01*
X155788669Y-94444336D01*
X155807671Y-94300000D01*
X155788669Y-94155664D01*
X155768511Y-94107000D01*
X158192329Y-94107000D01*
X158211331Y-94251336D01*
X158213217Y-94255889D01*
X158265158Y-94381287D01*
X158265160Y-94381291D01*
X158267043Y-94385836D01*
X158355667Y-94501333D01*
X158471164Y-94589957D01*
X158605664Y-94645669D01*
X158750000Y-94664671D01*
X158894336Y-94645669D01*
X159028836Y-94589957D01*
X159144333Y-94501333D01*
X159232957Y-94385836D01*
X159288669Y-94251336D01*
X159307671Y-94107000D01*
X159288669Y-93962664D01*
X159232957Y-93828165D01*
X159144333Y-93712667D01*
X159028836Y-93624043D01*
X159024291Y-93622160D01*
X159024287Y-93622158D01*
X158898889Y-93570217D01*
X158894336Y-93568331D01*
X158889451Y-93567687D01*
X158889448Y-93567687D01*
X158754884Y-93549972D01*
X158750000Y-93549329D01*
X158745116Y-93549972D01*
X158610551Y-93567687D01*
X158610546Y-93567688D01*
X158605664Y-93568331D01*
X158601112Y-93570216D01*
X158601110Y-93570217D01*
X158475713Y-93622158D01*
X158475706Y-93622162D01*
X158471165Y-93624043D01*
X158467260Y-93627038D01*
X158467257Y-93627041D01*
X158359573Y-93709669D01*
X158359569Y-93709672D01*
X158355667Y-93712667D01*
X158352672Y-93716569D01*
X158352669Y-93716573D01*
X158270041Y-93824257D01*
X158270038Y-93824260D01*
X158267043Y-93828165D01*
X158265162Y-93832706D01*
X158265158Y-93832713D01*
X158234940Y-93905667D01*
X158211331Y-93962664D01*
X158210688Y-93967546D01*
X158210687Y-93967551D01*
X158193411Y-94098777D01*
X158192329Y-94107000D01*
X155768511Y-94107000D01*
X155732957Y-94021165D01*
X155644333Y-93905667D01*
X155528836Y-93817043D01*
X155524291Y-93815160D01*
X155524287Y-93815158D01*
X155398889Y-93763217D01*
X155394336Y-93761331D01*
X155389451Y-93760687D01*
X155389448Y-93760687D01*
X155254884Y-93742972D01*
X155250000Y-93742329D01*
X155245116Y-93742972D01*
X155110551Y-93760687D01*
X155110546Y-93760688D01*
X155105664Y-93761331D01*
X155101112Y-93763216D01*
X155101110Y-93763217D01*
X154975713Y-93815158D01*
X154975706Y-93815162D01*
X154971165Y-93817043D01*
X154967260Y-93820038D01*
X154967257Y-93820041D01*
X154859573Y-93902669D01*
X154859569Y-93902672D01*
X154855667Y-93905667D01*
X154852672Y-93909569D01*
X154852669Y-93909573D01*
X154770041Y-94017257D01*
X154770038Y-94017260D01*
X154767043Y-94021165D01*
X154765162Y-94025706D01*
X154765158Y-94025713D01*
X154729465Y-94111884D01*
X154711331Y-94155664D01*
X154710688Y-94160546D01*
X154710687Y-94160551D01*
X154698136Y-94255889D01*
X154692329Y-94300000D01*
X154007671Y-94300000D01*
X153988669Y-94155664D01*
X153932957Y-94021165D01*
X153844333Y-93905667D01*
X153728836Y-93817043D01*
X153724291Y-93815160D01*
X153724287Y-93815158D01*
X153598889Y-93763217D01*
X153594336Y-93761331D01*
X153589451Y-93760687D01*
X153589448Y-93760687D01*
X153454884Y-93742972D01*
X153450000Y-93742329D01*
X153445116Y-93742972D01*
X153310551Y-93760687D01*
X153310546Y-93760688D01*
X153305664Y-93761331D01*
X153301112Y-93763216D01*
X153301110Y-93763217D01*
X153175713Y-93815158D01*
X153175706Y-93815162D01*
X153171165Y-93817043D01*
X153167260Y-93820038D01*
X153167257Y-93820041D01*
X153059573Y-93902669D01*
X153059569Y-93902672D01*
X153055667Y-93905667D01*
X153052672Y-93909569D01*
X153052669Y-93909573D01*
X152970041Y-94017257D01*
X152970038Y-94017260D01*
X152967043Y-94021165D01*
X152965162Y-94025706D01*
X152965158Y-94025713D01*
X152929465Y-94111884D01*
X152911331Y-94155664D01*
X152910688Y-94160546D01*
X152910687Y-94160551D01*
X152898136Y-94255889D01*
X152892329Y-94300000D01*
X76450500Y-94300000D01*
X76450500Y-91440000D01*
X77722805Y-91440000D01*
X77722997Y-91442685D01*
X77740017Y-91680667D01*
X77741561Y-91702243D01*
X77742129Y-91704855D01*
X77742131Y-91704867D01*
X77796873Y-91956512D01*
X77796876Y-91956522D01*
X77797447Y-91959147D01*
X77840658Y-92075000D01*
X77862586Y-92133792D01*
X77889326Y-92205483D01*
X77896341Y-92218330D01*
X78014040Y-92433882D01*
X78014044Y-92433888D01*
X78015326Y-92436236D01*
X78172884Y-92646709D01*
X78358791Y-92832616D01*
X78569264Y-92990174D01*
X78571615Y-92991457D01*
X78571617Y-92991459D01*
X78592570Y-93002900D01*
X78800017Y-93116174D01*
X79046353Y-93208053D01*
X79303257Y-93263939D01*
X79565500Y-93282695D01*
X79827743Y-93263939D01*
X80084647Y-93208053D01*
X80330983Y-93116174D01*
X80561736Y-92990174D01*
X80772209Y-92832616D01*
X80958116Y-92646709D01*
X81100879Y-92456000D01*
X83262329Y-92456000D01*
X83262972Y-92460884D01*
X83280564Y-92594515D01*
X83281331Y-92600336D01*
X83283217Y-92604889D01*
X83335158Y-92730287D01*
X83335160Y-92730291D01*
X83337043Y-92734836D01*
X83425667Y-92850333D01*
X83541164Y-92938957D01*
X83675664Y-92994669D01*
X83820000Y-93013671D01*
X83964336Y-92994669D01*
X84098836Y-92938957D01*
X84214333Y-92850333D01*
X84224564Y-92837000D01*
X86473943Y-92837000D01*
X86474708Y-92842321D01*
X86491292Y-92957671D01*
X86492477Y-92965909D01*
X86546579Y-93084374D01*
X86550098Y-93088435D01*
X86628342Y-93178735D01*
X86628344Y-93178736D01*
X86631864Y-93182799D01*
X86741424Y-93253208D01*
X86866383Y-93289900D01*
X86991237Y-93289900D01*
X86996617Y-93289900D01*
X87121576Y-93253208D01*
X87231136Y-93182799D01*
X87316421Y-93084374D01*
X87370523Y-92965909D01*
X87389057Y-92837000D01*
X103110943Y-92837000D01*
X103111708Y-92842321D01*
X103128292Y-92957671D01*
X103129477Y-92965909D01*
X103183579Y-93084374D01*
X103187098Y-93088435D01*
X103265342Y-93178735D01*
X103265344Y-93178736D01*
X103268864Y-93182799D01*
X103378424Y-93253208D01*
X103503383Y-93289900D01*
X103628237Y-93289900D01*
X103633617Y-93289900D01*
X103662224Y-93281500D01*
X114777028Y-93281500D01*
X114777954Y-93287347D01*
X114796264Y-93402959D01*
X114796265Y-93402964D01*
X114797191Y-93408806D01*
X114799875Y-93414074D01*
X114799877Y-93414079D01*
X114853019Y-93518374D01*
X114855708Y-93523651D01*
X114946849Y-93614792D01*
X114965005Y-93624043D01*
X115056420Y-93670622D01*
X115056421Y-93670622D01*
X115061694Y-93673309D01*
X115067539Y-93674234D01*
X115067540Y-93674235D01*
X115183153Y-93692546D01*
X115189000Y-93693472D01*
X115316306Y-93673309D01*
X115431151Y-93614792D01*
X115522292Y-93523651D01*
X115580809Y-93408806D01*
X115600972Y-93281500D01*
X115596491Y-93253208D01*
X115581735Y-93160040D01*
X115581734Y-93160039D01*
X115580809Y-93154194D01*
X115522292Y-93039349D01*
X115431151Y-92948208D01*
X115413692Y-92939312D01*
X115321579Y-92892377D01*
X115321574Y-92892375D01*
X115316306Y-92889691D01*
X115310464Y-92888765D01*
X115310459Y-92888764D01*
X115194847Y-92870454D01*
X115189000Y-92869528D01*
X115183153Y-92870454D01*
X115067540Y-92888764D01*
X115067533Y-92888766D01*
X115061694Y-92889691D01*
X115056426Y-92892374D01*
X115056420Y-92892377D01*
X114952125Y-92945519D01*
X114952121Y-92945521D01*
X114946849Y-92948208D01*
X114942662Y-92952394D01*
X114942659Y-92952397D01*
X114859897Y-93035159D01*
X114859894Y-93035162D01*
X114855708Y-93039349D01*
X114853021Y-93044621D01*
X114853019Y-93044625D01*
X114799877Y-93148920D01*
X114799874Y-93148926D01*
X114797191Y-93154194D01*
X114796266Y-93160033D01*
X114796264Y-93160040D01*
X114781509Y-93253208D01*
X114777028Y-93281500D01*
X103662224Y-93281500D01*
X103758576Y-93253208D01*
X103868136Y-93182799D01*
X103953421Y-93084374D01*
X104007523Y-92965909D01*
X104026057Y-92837000D01*
X104007523Y-92708091D01*
X103953421Y-92589626D01*
X103900810Y-92528909D01*
X103871657Y-92495264D01*
X103871655Y-92495262D01*
X103868136Y-92491201D01*
X103854975Y-92482743D01*
X103763100Y-92423699D01*
X103763098Y-92423698D01*
X103758576Y-92420792D01*
X103753415Y-92419276D01*
X103753414Y-92419276D01*
X103638778Y-92385615D01*
X103638775Y-92385614D01*
X103633617Y-92384100D01*
X103503383Y-92384100D01*
X103498225Y-92385614D01*
X103498221Y-92385615D01*
X103383585Y-92419276D01*
X103383581Y-92419277D01*
X103378424Y-92420792D01*
X103373904Y-92423696D01*
X103373899Y-92423699D01*
X103273386Y-92488294D01*
X103273381Y-92488297D01*
X103268864Y-92491201D01*
X103265347Y-92495259D01*
X103265342Y-92495264D01*
X103187098Y-92585564D01*
X103187095Y-92585567D01*
X103183579Y-92589626D01*
X103181346Y-92594513D01*
X103181346Y-92594515D01*
X103132103Y-92702340D01*
X103129477Y-92708091D01*
X103128712Y-92713408D01*
X103128712Y-92713410D01*
X103116640Y-92797374D01*
X103110943Y-92837000D01*
X87389057Y-92837000D01*
X87370523Y-92708091D01*
X87316421Y-92589626D01*
X87263810Y-92528909D01*
X87234657Y-92495264D01*
X87234655Y-92495262D01*
X87231136Y-92491201D01*
X87217975Y-92482743D01*
X87126100Y-92423699D01*
X87126098Y-92423698D01*
X87121576Y-92420792D01*
X87116415Y-92419276D01*
X87116414Y-92419276D01*
X87001778Y-92385615D01*
X87001775Y-92385614D01*
X86996617Y-92384100D01*
X86866383Y-92384100D01*
X86861225Y-92385614D01*
X86861221Y-92385615D01*
X86746585Y-92419276D01*
X86746581Y-92419277D01*
X86741424Y-92420792D01*
X86736904Y-92423696D01*
X86736899Y-92423699D01*
X86636386Y-92488294D01*
X86636381Y-92488297D01*
X86631864Y-92491201D01*
X86628347Y-92495259D01*
X86628342Y-92495264D01*
X86550098Y-92585564D01*
X86550095Y-92585567D01*
X86546579Y-92589626D01*
X86544346Y-92594513D01*
X86544346Y-92594515D01*
X86495103Y-92702340D01*
X86492477Y-92708091D01*
X86491712Y-92713408D01*
X86491712Y-92713410D01*
X86479640Y-92797374D01*
X86473943Y-92837000D01*
X84224564Y-92837000D01*
X84302957Y-92734836D01*
X84358669Y-92600336D01*
X84377671Y-92456000D01*
X84358669Y-92311664D01*
X84302957Y-92177165D01*
X84224564Y-92075000D01*
X106249329Y-92075000D01*
X106249972Y-92079884D01*
X106267608Y-92213849D01*
X106268331Y-92219336D01*
X106270217Y-92223889D01*
X106322158Y-92349287D01*
X106322160Y-92349291D01*
X106324043Y-92353836D01*
X106412667Y-92469333D01*
X106528164Y-92557957D01*
X106662664Y-92613669D01*
X106807000Y-92632671D01*
X106951336Y-92613669D01*
X107085836Y-92557957D01*
X107201333Y-92469333D01*
X107211564Y-92456000D01*
X112110028Y-92456000D01*
X112110954Y-92461847D01*
X112129264Y-92577459D01*
X112129265Y-92577464D01*
X112130191Y-92583306D01*
X112132875Y-92588574D01*
X112132877Y-92588579D01*
X112181926Y-92684841D01*
X112188708Y-92698151D01*
X112279849Y-92789292D01*
X112295711Y-92797374D01*
X112389420Y-92845122D01*
X112389421Y-92845122D01*
X112394694Y-92847809D01*
X112400539Y-92848734D01*
X112400540Y-92848735D01*
X112516153Y-92867046D01*
X112522000Y-92867972D01*
X112649306Y-92847809D01*
X112764151Y-92789292D01*
X112855292Y-92698151D01*
X112913809Y-92583306D01*
X112923915Y-92519500D01*
X140367528Y-92519500D01*
X140368454Y-92525347D01*
X140386764Y-92640959D01*
X140386765Y-92640964D01*
X140387691Y-92646806D01*
X140390375Y-92652074D01*
X140390377Y-92652079D01*
X140443519Y-92756374D01*
X140446208Y-92761651D01*
X140537349Y-92852792D01*
X140590665Y-92879958D01*
X140646920Y-92908622D01*
X140646921Y-92908622D01*
X140652194Y-92911309D01*
X140658039Y-92912234D01*
X140658040Y-92912235D01*
X140773653Y-92930546D01*
X140779500Y-92931472D01*
X140906806Y-92911309D01*
X141021651Y-92852792D01*
X141112792Y-92761651D01*
X141171309Y-92646806D01*
X141186642Y-92550000D01*
X144242443Y-92550000D01*
X144243208Y-92555321D01*
X144251689Y-92614312D01*
X144260977Y-92678909D01*
X144315079Y-92797374D01*
X144318598Y-92801435D01*
X144396842Y-92891735D01*
X144396844Y-92891736D01*
X144400364Y-92895799D01*
X144509924Y-92966208D01*
X144634883Y-93002900D01*
X144759737Y-93002900D01*
X144765117Y-93002900D01*
X144890076Y-92966208D01*
X144999636Y-92895799D01*
X145084921Y-92797374D01*
X145139023Y-92678909D01*
X145157557Y-92550000D01*
X145139023Y-92421091D01*
X145129391Y-92400000D01*
X146492443Y-92400000D01*
X146493208Y-92405321D01*
X146508783Y-92513653D01*
X146510977Y-92528909D01*
X146565079Y-92647374D01*
X146568598Y-92651435D01*
X146646842Y-92741735D01*
X146646844Y-92741736D01*
X146650364Y-92745799D01*
X146759924Y-92816208D01*
X146884883Y-92852900D01*
X147009737Y-92852900D01*
X147015117Y-92852900D01*
X147140076Y-92816208D01*
X147249636Y-92745799D01*
X147334921Y-92647374D01*
X147389023Y-92528909D01*
X147407557Y-92400000D01*
X149492329Y-92400000D01*
X149492972Y-92404884D01*
X149509943Y-92533798D01*
X149511331Y-92544336D01*
X149513217Y-92548889D01*
X149565158Y-92674287D01*
X149565160Y-92674291D01*
X149567043Y-92678836D01*
X149655667Y-92794333D01*
X149771164Y-92882957D01*
X149905664Y-92938669D01*
X150050000Y-92957671D01*
X150194336Y-92938669D01*
X150328836Y-92882957D01*
X150444333Y-92794333D01*
X150532957Y-92678836D01*
X150588669Y-92544336D01*
X150607671Y-92400000D01*
X150588669Y-92255664D01*
X150565612Y-92200000D01*
X151942329Y-92200000D01*
X151942972Y-92204884D01*
X151959271Y-92328694D01*
X151961331Y-92344336D01*
X151963217Y-92348889D01*
X152015158Y-92474287D01*
X152015160Y-92474291D01*
X152017043Y-92478836D01*
X152105667Y-92594333D01*
X152221164Y-92682957D01*
X152355664Y-92738669D01*
X152500000Y-92757671D01*
X152644336Y-92738669D01*
X152778836Y-92682957D01*
X152894333Y-92594333D01*
X152982957Y-92478836D01*
X153038669Y-92344336D01*
X153057671Y-92200000D01*
X153038669Y-92055664D01*
X152982957Y-91921165D01*
X152894333Y-91805667D01*
X152778836Y-91717043D01*
X152774291Y-91715160D01*
X152774287Y-91715158D01*
X152660710Y-91668113D01*
X152644336Y-91661331D01*
X152639451Y-91660687D01*
X152639448Y-91660687D01*
X152504884Y-91642972D01*
X152500000Y-91642329D01*
X152495116Y-91642972D01*
X152360551Y-91660687D01*
X152360546Y-91660688D01*
X152355664Y-91661331D01*
X152351112Y-91663216D01*
X152351110Y-91663217D01*
X152225713Y-91715158D01*
X152225706Y-91715162D01*
X152221165Y-91717043D01*
X152217260Y-91720038D01*
X152217257Y-91720041D01*
X152109573Y-91802669D01*
X152109569Y-91802672D01*
X152105667Y-91805667D01*
X152102672Y-91809569D01*
X152102669Y-91809573D01*
X152020041Y-91917257D01*
X152020038Y-91917260D01*
X152017043Y-91921165D01*
X152015162Y-91925706D01*
X152015158Y-91925713D01*
X151965767Y-92044954D01*
X151961331Y-92055664D01*
X151960688Y-92060546D01*
X151960687Y-92060551D01*
X151944499Y-92183519D01*
X151942329Y-92200000D01*
X150565612Y-92200000D01*
X150543706Y-92147116D01*
X150534841Y-92125713D01*
X150534840Y-92125712D01*
X150532957Y-92121165D01*
X150444333Y-92005667D01*
X150328836Y-91917043D01*
X150324291Y-91915160D01*
X150324287Y-91915158D01*
X150198889Y-91863217D01*
X150194336Y-91861331D01*
X150189451Y-91860687D01*
X150189448Y-91860687D01*
X150054884Y-91842972D01*
X150050000Y-91842329D01*
X150045116Y-91842972D01*
X149910551Y-91860687D01*
X149910546Y-91860688D01*
X149905664Y-91861331D01*
X149901112Y-91863216D01*
X149901110Y-91863217D01*
X149775713Y-91915158D01*
X149775706Y-91915162D01*
X149771165Y-91917043D01*
X149767260Y-91920038D01*
X149767257Y-91920041D01*
X149659573Y-92002669D01*
X149659569Y-92002672D01*
X149655667Y-92005667D01*
X149652672Y-92009569D01*
X149652669Y-92009573D01*
X149570041Y-92117257D01*
X149570038Y-92117260D01*
X149567043Y-92121165D01*
X149565162Y-92125706D01*
X149565158Y-92125713D01*
X149513217Y-92251110D01*
X149511331Y-92255664D01*
X149510688Y-92260546D01*
X149510687Y-92260551D01*
X149497554Y-92360312D01*
X149492329Y-92400000D01*
X147407557Y-92400000D01*
X147389023Y-92271091D01*
X147334921Y-92152626D01*
X147285237Y-92095287D01*
X147253157Y-92058264D01*
X147253155Y-92058262D01*
X147249636Y-92054201D01*
X147245113Y-92051294D01*
X147144600Y-91986699D01*
X147144598Y-91986698D01*
X147140076Y-91983792D01*
X147134915Y-91982276D01*
X147134914Y-91982276D01*
X147020278Y-91948615D01*
X147020275Y-91948614D01*
X147015117Y-91947100D01*
X146884883Y-91947100D01*
X146879725Y-91948614D01*
X146879721Y-91948615D01*
X146765085Y-91982276D01*
X146765081Y-91982277D01*
X146759924Y-91983792D01*
X146755404Y-91986696D01*
X146755399Y-91986699D01*
X146654886Y-92051294D01*
X146654881Y-92051297D01*
X146650364Y-92054201D01*
X146646847Y-92058259D01*
X146646842Y-92058264D01*
X146568598Y-92148564D01*
X146568595Y-92148567D01*
X146565079Y-92152626D01*
X146562846Y-92157513D01*
X146562846Y-92157515D01*
X146513210Y-92266201D01*
X146510977Y-92271091D01*
X146510212Y-92276408D01*
X146510212Y-92276410D01*
X146498513Y-92357782D01*
X146492443Y-92400000D01*
X145129391Y-92400000D01*
X145084921Y-92302626D01*
X145016696Y-92223889D01*
X145003157Y-92208264D01*
X145003155Y-92208262D01*
X144999636Y-92204201D01*
X144993099Y-92200000D01*
X144894600Y-92136699D01*
X144894598Y-92136698D01*
X144890076Y-92133792D01*
X144884915Y-92132276D01*
X144884914Y-92132276D01*
X144770278Y-92098615D01*
X144770275Y-92098614D01*
X144765117Y-92097100D01*
X144634883Y-92097100D01*
X144629725Y-92098614D01*
X144629721Y-92098615D01*
X144515085Y-92132276D01*
X144515081Y-92132277D01*
X144509924Y-92133792D01*
X144505404Y-92136696D01*
X144505399Y-92136699D01*
X144404886Y-92201294D01*
X144404881Y-92201297D01*
X144400364Y-92204201D01*
X144396847Y-92208259D01*
X144396842Y-92208264D01*
X144318598Y-92298564D01*
X144318595Y-92298567D01*
X144315079Y-92302626D01*
X144312846Y-92307513D01*
X144312846Y-92307515D01*
X144268179Y-92405321D01*
X144260977Y-92421091D01*
X144260212Y-92426408D01*
X144260212Y-92426410D01*
X144245475Y-92528909D01*
X144242443Y-92550000D01*
X141186642Y-92550000D01*
X141188313Y-92539448D01*
X141190546Y-92525347D01*
X141191472Y-92519500D01*
X141190546Y-92513653D01*
X141172235Y-92398040D01*
X141172234Y-92398039D01*
X141171309Y-92392194D01*
X141151764Y-92353836D01*
X141138954Y-92328694D01*
X141112792Y-92277349D01*
X141021651Y-92186208D01*
X141016374Y-92183519D01*
X140912079Y-92130377D01*
X140912074Y-92130375D01*
X140906806Y-92127691D01*
X140900964Y-92126765D01*
X140900959Y-92126764D01*
X140785347Y-92108454D01*
X140779500Y-92107528D01*
X140773653Y-92108454D01*
X140658040Y-92126764D01*
X140658033Y-92126766D01*
X140652194Y-92127691D01*
X140646926Y-92130374D01*
X140646920Y-92130377D01*
X140542625Y-92183519D01*
X140542621Y-92183521D01*
X140537349Y-92186208D01*
X140533162Y-92190394D01*
X140533159Y-92190397D01*
X140450397Y-92273159D01*
X140450394Y-92273162D01*
X140446208Y-92277349D01*
X140443521Y-92282621D01*
X140443519Y-92282625D01*
X140390377Y-92386920D01*
X140390374Y-92386926D01*
X140387691Y-92392194D01*
X140386766Y-92398033D01*
X140386764Y-92398040D01*
X140368454Y-92513653D01*
X140367528Y-92519500D01*
X112923915Y-92519500D01*
X112933972Y-92456000D01*
X112933046Y-92450153D01*
X112914735Y-92334540D01*
X112914734Y-92334539D01*
X112913809Y-92328694D01*
X112898886Y-92299407D01*
X112876598Y-92255664D01*
X112855292Y-92213849D01*
X112764151Y-92122708D01*
X112753453Y-92117257D01*
X112654579Y-92066877D01*
X112654574Y-92066875D01*
X112649306Y-92064191D01*
X112643464Y-92063265D01*
X112643459Y-92063264D01*
X112527847Y-92044954D01*
X112522000Y-92044028D01*
X112516153Y-92044954D01*
X112400540Y-92063264D01*
X112400533Y-92063266D01*
X112394694Y-92064191D01*
X112389426Y-92066874D01*
X112389420Y-92066877D01*
X112285125Y-92120019D01*
X112285121Y-92120021D01*
X112279849Y-92122708D01*
X112275662Y-92126894D01*
X112275659Y-92126897D01*
X112192897Y-92209659D01*
X112192894Y-92209662D01*
X112188708Y-92213849D01*
X112186021Y-92219121D01*
X112186019Y-92219125D01*
X112132877Y-92323420D01*
X112132874Y-92323426D01*
X112130191Y-92328694D01*
X112129266Y-92334533D01*
X112129264Y-92334540D01*
X112110954Y-92450153D01*
X112110028Y-92456000D01*
X107211564Y-92456000D01*
X107289957Y-92353836D01*
X107345669Y-92219336D01*
X107364671Y-92075000D01*
X107345669Y-91930664D01*
X107300244Y-91821000D01*
X117171329Y-91821000D01*
X117171972Y-91825884D01*
X117188129Y-91948615D01*
X117190331Y-91965336D01*
X117192217Y-91969889D01*
X117244158Y-92095287D01*
X117244160Y-92095291D01*
X117246043Y-92099836D01*
X117334667Y-92215333D01*
X117450164Y-92303957D01*
X117454711Y-92305840D01*
X117454712Y-92305841D01*
X117468770Y-92311664D01*
X117584664Y-92359669D01*
X117729000Y-92378671D01*
X117873336Y-92359669D01*
X118007836Y-92303957D01*
X118123333Y-92215333D01*
X118211957Y-92099836D01*
X118267669Y-91965336D01*
X118286671Y-91821000D01*
X118267669Y-91676664D01*
X118211957Y-91542165D01*
X118123333Y-91426667D01*
X118007836Y-91338043D01*
X118003291Y-91336160D01*
X118003287Y-91336158D01*
X117947378Y-91313000D01*
X118822329Y-91313000D01*
X118822972Y-91317884D01*
X118839048Y-91440000D01*
X118841331Y-91457336D01*
X118843217Y-91461889D01*
X118895158Y-91587287D01*
X118895160Y-91587291D01*
X118897043Y-91591836D01*
X118985667Y-91707333D01*
X119101164Y-91795957D01*
X119235664Y-91851669D01*
X119380000Y-91870671D01*
X119524336Y-91851669D01*
X119658836Y-91795957D01*
X119774333Y-91707333D01*
X119862957Y-91591836D01*
X119918669Y-91457336D01*
X119937671Y-91313000D01*
X119918669Y-91168664D01*
X119862957Y-91034165D01*
X119774333Y-90918667D01*
X119708954Y-90868500D01*
X121462443Y-90868500D01*
X121463208Y-90873821D01*
X121474975Y-90955667D01*
X121480977Y-90997409D01*
X121535079Y-91115874D01*
X121538598Y-91119935D01*
X121616842Y-91210235D01*
X121616844Y-91210236D01*
X121620364Y-91214299D01*
X121729924Y-91284708D01*
X121854883Y-91321400D01*
X121979737Y-91321400D01*
X121985117Y-91321400D01*
X122110076Y-91284708D01*
X122219636Y-91214299D01*
X122304921Y-91115874D01*
X122359023Y-90997409D01*
X122368427Y-90932000D01*
X125318028Y-90932000D01*
X125318954Y-90937847D01*
X125337264Y-91053459D01*
X125337265Y-91053464D01*
X125338191Y-91059306D01*
X125340875Y-91064574D01*
X125340877Y-91064579D01*
X125393912Y-91168664D01*
X125396708Y-91174151D01*
X125487849Y-91265292D01*
X125521290Y-91282331D01*
X125597420Y-91321122D01*
X125597421Y-91321122D01*
X125602694Y-91323809D01*
X125608539Y-91324734D01*
X125608540Y-91324735D01*
X125724153Y-91343046D01*
X125730000Y-91343972D01*
X125857306Y-91323809D01*
X125972151Y-91265292D01*
X126063292Y-91174151D01*
X126121809Y-91059306D01*
X126141972Y-90932000D01*
X126588028Y-90932000D01*
X126588954Y-90937847D01*
X126607264Y-91053459D01*
X126607265Y-91053464D01*
X126608191Y-91059306D01*
X126610875Y-91064574D01*
X126610877Y-91064579D01*
X126663912Y-91168664D01*
X126666708Y-91174151D01*
X126757849Y-91265292D01*
X126791290Y-91282331D01*
X126867420Y-91321122D01*
X126867421Y-91321122D01*
X126872694Y-91323809D01*
X126878539Y-91324734D01*
X126878540Y-91324735D01*
X126994153Y-91343046D01*
X127000000Y-91343972D01*
X127127306Y-91323809D01*
X127242151Y-91265292D01*
X127333292Y-91174151D01*
X127391809Y-91059306D01*
X127411972Y-90932000D01*
X130398028Y-90932000D01*
X130398954Y-90937847D01*
X130417264Y-91053459D01*
X130417265Y-91053464D01*
X130418191Y-91059306D01*
X130420875Y-91064574D01*
X130420877Y-91064579D01*
X130473912Y-91168664D01*
X130476708Y-91174151D01*
X130567849Y-91265292D01*
X130601290Y-91282331D01*
X130677420Y-91321122D01*
X130677421Y-91321122D01*
X130682694Y-91323809D01*
X130688539Y-91324734D01*
X130688540Y-91324735D01*
X130804153Y-91343046D01*
X130810000Y-91343972D01*
X130937306Y-91323809D01*
X131052151Y-91265292D01*
X131143292Y-91174151D01*
X131201809Y-91059306D01*
X131221972Y-90932000D01*
X131668028Y-90932000D01*
X131668954Y-90937847D01*
X131687264Y-91053459D01*
X131687265Y-91053464D01*
X131688191Y-91059306D01*
X131690875Y-91064574D01*
X131690877Y-91064579D01*
X131743912Y-91168664D01*
X131746708Y-91174151D01*
X131837849Y-91265292D01*
X131871290Y-91282331D01*
X131947420Y-91321122D01*
X131947421Y-91321122D01*
X131952694Y-91323809D01*
X131958539Y-91324734D01*
X131958540Y-91324735D01*
X132074153Y-91343046D01*
X132080000Y-91343972D01*
X132207306Y-91323809D01*
X132322151Y-91265292D01*
X132413292Y-91174151D01*
X132471809Y-91059306D01*
X132491972Y-90932000D01*
X132938028Y-90932000D01*
X132938954Y-90937847D01*
X132957264Y-91053459D01*
X132957265Y-91053464D01*
X132958191Y-91059306D01*
X132960875Y-91064574D01*
X132960877Y-91064579D01*
X133013912Y-91168664D01*
X133016708Y-91174151D01*
X133107849Y-91265292D01*
X133141290Y-91282331D01*
X133217420Y-91321122D01*
X133217421Y-91321122D01*
X133222694Y-91323809D01*
X133228539Y-91324734D01*
X133228540Y-91324735D01*
X133344153Y-91343046D01*
X133350000Y-91343972D01*
X133477306Y-91323809D01*
X133592151Y-91265292D01*
X133683292Y-91174151D01*
X133741809Y-91059306D01*
X133761972Y-90932000D01*
X134208028Y-90932000D01*
X134208954Y-90937847D01*
X134227264Y-91053459D01*
X134227265Y-91053464D01*
X134228191Y-91059306D01*
X134230875Y-91064574D01*
X134230877Y-91064579D01*
X134283912Y-91168664D01*
X134286708Y-91174151D01*
X134377849Y-91265292D01*
X134411290Y-91282331D01*
X134487420Y-91321122D01*
X134487421Y-91321122D01*
X134492694Y-91323809D01*
X134498539Y-91324734D01*
X134498540Y-91324735D01*
X134614153Y-91343046D01*
X134620000Y-91343972D01*
X134747306Y-91323809D01*
X134862151Y-91265292D01*
X134953292Y-91174151D01*
X135011809Y-91059306D01*
X135031972Y-90932000D01*
X135478028Y-90932000D01*
X135478954Y-90937847D01*
X135497264Y-91053459D01*
X135497265Y-91053464D01*
X135498191Y-91059306D01*
X135500875Y-91064574D01*
X135500877Y-91064579D01*
X135553912Y-91168664D01*
X135556708Y-91174151D01*
X135647849Y-91265292D01*
X135681290Y-91282331D01*
X135757420Y-91321122D01*
X135757421Y-91321122D01*
X135762694Y-91323809D01*
X135768539Y-91324734D01*
X135768540Y-91324735D01*
X135884153Y-91343046D01*
X135890000Y-91343972D01*
X136017306Y-91323809D01*
X136132151Y-91265292D01*
X136223292Y-91174151D01*
X136281809Y-91059306D01*
X136301972Y-90932000D01*
X136299807Y-90918332D01*
X136291915Y-90868500D01*
X136702443Y-90868500D01*
X136703208Y-90873821D01*
X136714975Y-90955667D01*
X136720977Y-90997409D01*
X136775079Y-91115874D01*
X136778598Y-91119935D01*
X136856842Y-91210235D01*
X136856844Y-91210236D01*
X136860364Y-91214299D01*
X136969924Y-91284708D01*
X137094883Y-91321400D01*
X137219737Y-91321400D01*
X137225117Y-91321400D01*
X137350076Y-91284708D01*
X137459636Y-91214299D01*
X137484157Y-91186000D01*
X139142329Y-91186000D01*
X139142972Y-91190884D01*
X139160593Y-91324735D01*
X139161331Y-91330336D01*
X139163217Y-91334889D01*
X139215158Y-91460287D01*
X139215160Y-91460291D01*
X139217043Y-91464836D01*
X139305667Y-91580333D01*
X139421164Y-91668957D01*
X139425711Y-91670840D01*
X139425712Y-91670841D01*
X139448544Y-91680298D01*
X139555664Y-91724669D01*
X139700000Y-91743671D01*
X139844336Y-91724669D01*
X139978836Y-91668957D01*
X140094333Y-91580333D01*
X140155975Y-91500000D01*
X145388028Y-91500000D01*
X145388954Y-91505847D01*
X145407264Y-91621459D01*
X145407265Y-91621464D01*
X145408191Y-91627306D01*
X145410875Y-91632574D01*
X145410877Y-91632579D01*
X145455442Y-91720041D01*
X145466708Y-91742151D01*
X145557849Y-91833292D01*
X145575585Y-91842329D01*
X145667420Y-91889122D01*
X145667421Y-91889122D01*
X145672694Y-91891809D01*
X145678539Y-91892734D01*
X145678540Y-91892735D01*
X145794153Y-91911046D01*
X145800000Y-91911972D01*
X145927306Y-91891809D01*
X146042151Y-91833292D01*
X146133292Y-91742151D01*
X146191809Y-91627306D01*
X146202940Y-91557028D01*
X146211046Y-91505847D01*
X146211972Y-91500000D01*
X147188028Y-91500000D01*
X147188954Y-91505847D01*
X147207264Y-91621459D01*
X147207265Y-91621464D01*
X147208191Y-91627306D01*
X147210875Y-91632574D01*
X147210877Y-91632579D01*
X147255442Y-91720041D01*
X147266708Y-91742151D01*
X147357849Y-91833292D01*
X147375585Y-91842329D01*
X147467420Y-91889122D01*
X147467421Y-91889122D01*
X147472694Y-91891809D01*
X147478539Y-91892734D01*
X147478540Y-91892735D01*
X147594153Y-91911046D01*
X147600000Y-91911972D01*
X147727306Y-91891809D01*
X147842151Y-91833292D01*
X147933292Y-91742151D01*
X147991809Y-91627306D01*
X148002940Y-91557028D01*
X148011046Y-91505847D01*
X148011972Y-91500000D01*
X148008798Y-91479958D01*
X147992735Y-91378540D01*
X147992734Y-91378539D01*
X147991809Y-91372694D01*
X147980245Y-91350000D01*
X150692329Y-91350000D01*
X150692972Y-91354884D01*
X150709832Y-91482957D01*
X150711331Y-91494336D01*
X150713217Y-91498889D01*
X150765158Y-91624287D01*
X150765160Y-91624291D01*
X150767043Y-91628836D01*
X150795528Y-91665958D01*
X150849943Y-91736874D01*
X150855667Y-91744333D01*
X150971164Y-91832957D01*
X151105664Y-91888669D01*
X151250000Y-91907671D01*
X151394336Y-91888669D01*
X151528836Y-91832957D01*
X151644333Y-91744333D01*
X151732957Y-91628836D01*
X151788669Y-91494336D01*
X151807671Y-91350000D01*
X151788669Y-91205664D01*
X151732957Y-91071165D01*
X151678351Y-91000000D01*
X152842329Y-91000000D01*
X152842972Y-91004884D01*
X152858118Y-91119935D01*
X152861331Y-91144336D01*
X152863217Y-91148889D01*
X152915158Y-91274287D01*
X152915160Y-91274291D01*
X152917043Y-91278836D01*
X152920041Y-91282743D01*
X152997265Y-91383384D01*
X153005667Y-91394333D01*
X153121164Y-91482957D01*
X153125711Y-91484840D01*
X153125712Y-91484841D01*
X153148193Y-91494153D01*
X153255664Y-91538669D01*
X153400000Y-91557671D01*
X153544336Y-91538669D01*
X153678836Y-91482957D01*
X153734819Y-91440000D01*
X159891805Y-91440000D01*
X159891997Y-91442685D01*
X159909017Y-91680667D01*
X159910561Y-91702243D01*
X159911129Y-91704855D01*
X159911131Y-91704867D01*
X159965873Y-91956512D01*
X159965876Y-91956522D01*
X159966447Y-91959147D01*
X160009658Y-92075000D01*
X160031586Y-92133792D01*
X160058326Y-92205483D01*
X160065341Y-92218330D01*
X160183040Y-92433882D01*
X160183044Y-92433888D01*
X160184326Y-92436236D01*
X160341884Y-92646709D01*
X160527791Y-92832616D01*
X160738264Y-92990174D01*
X160740615Y-92991457D01*
X160740617Y-92991459D01*
X160761570Y-93002900D01*
X160969017Y-93116174D01*
X161215353Y-93208053D01*
X161472257Y-93263939D01*
X161734500Y-93282695D01*
X161996743Y-93263939D01*
X162253647Y-93208053D01*
X162499983Y-93116174D01*
X162730736Y-92990174D01*
X162941209Y-92832616D01*
X163127116Y-92646709D01*
X163284674Y-92436236D01*
X163410674Y-92205483D01*
X163502553Y-91959147D01*
X163558439Y-91702243D01*
X163577195Y-91440000D01*
X163558439Y-91177757D01*
X163555450Y-91164019D01*
X163503126Y-90923487D01*
X163503125Y-90923486D01*
X163502553Y-90920853D01*
X163410674Y-90674517D01*
X163284674Y-90443764D01*
X163127116Y-90233291D01*
X162941209Y-90047384D01*
X162730736Y-89889826D01*
X162728388Y-89888544D01*
X162728382Y-89888540D01*
X162502336Y-89765111D01*
X162502337Y-89765111D01*
X162499983Y-89763826D01*
X162253647Y-89671947D01*
X162251022Y-89671376D01*
X162251012Y-89671373D01*
X161999367Y-89616631D01*
X161999355Y-89616629D01*
X161996743Y-89616061D01*
X161994069Y-89615869D01*
X161994064Y-89615869D01*
X161737185Y-89597497D01*
X161734500Y-89597305D01*
X161731815Y-89597497D01*
X161474935Y-89615869D01*
X161474928Y-89615869D01*
X161472257Y-89616061D01*
X161469645Y-89616628D01*
X161469632Y-89616631D01*
X161217987Y-89671373D01*
X161217973Y-89671376D01*
X161215353Y-89671947D01*
X161212835Y-89672885D01*
X161212832Y-89672887D01*
X160971528Y-89762889D01*
X160971522Y-89762891D01*
X160969017Y-89763826D01*
X160966667Y-89765109D01*
X160966663Y-89765111D01*
X160740617Y-89888540D01*
X160740604Y-89888547D01*
X160738264Y-89889826D01*
X160736122Y-89891429D01*
X160736118Y-89891432D01*
X160529942Y-90045773D01*
X160529935Y-90045778D01*
X160527791Y-90047384D01*
X160525892Y-90049282D01*
X160525885Y-90049289D01*
X160343789Y-90231385D01*
X160343782Y-90231392D01*
X160341884Y-90233291D01*
X160340278Y-90235435D01*
X160340273Y-90235442D01*
X160205409Y-90415600D01*
X160184326Y-90443764D01*
X160183047Y-90446104D01*
X160183040Y-90446117D01*
X160059611Y-90672163D01*
X160058326Y-90674517D01*
X160057391Y-90677022D01*
X160057389Y-90677028D01*
X159967387Y-90918332D01*
X159966447Y-90920853D01*
X159965876Y-90923473D01*
X159965873Y-90923487D01*
X159911131Y-91175132D01*
X159911128Y-91175145D01*
X159910561Y-91177757D01*
X159910369Y-91180428D01*
X159910369Y-91180435D01*
X159895071Y-91394333D01*
X159891805Y-91440000D01*
X153734819Y-91440000D01*
X153794333Y-91394333D01*
X153882957Y-91278836D01*
X153938669Y-91144336D01*
X153957671Y-91000000D01*
X153938669Y-90855664D01*
X153882957Y-90721165D01*
X153794333Y-90605667D01*
X153781759Y-90596019D01*
X153736584Y-90561355D01*
X153678836Y-90517043D01*
X153674291Y-90515160D01*
X153674287Y-90515158D01*
X153548889Y-90463217D01*
X153544336Y-90461331D01*
X153539451Y-90460687D01*
X153539448Y-90460687D01*
X153458269Y-90450000D01*
X158188028Y-90450000D01*
X158188954Y-90455847D01*
X158207264Y-90571459D01*
X158207265Y-90571464D01*
X158208191Y-90577306D01*
X158210875Y-90582574D01*
X158210877Y-90582579D01*
X158257723Y-90674517D01*
X158266708Y-90692151D01*
X158357849Y-90783292D01*
X158407145Y-90808410D01*
X158467420Y-90839122D01*
X158467421Y-90839122D01*
X158472694Y-90841809D01*
X158478539Y-90842734D01*
X158478540Y-90842735D01*
X158594153Y-90861046D01*
X158600000Y-90861972D01*
X158727306Y-90841809D01*
X158842151Y-90783292D01*
X158933292Y-90692151D01*
X158991809Y-90577306D01*
X159011972Y-90450000D01*
X159010757Y-90442329D01*
X158992735Y-90328540D01*
X158992734Y-90328539D01*
X158991809Y-90322694D01*
X158933292Y-90207849D01*
X158842151Y-90116708D01*
X158815248Y-90103000D01*
X158732579Y-90060877D01*
X158732574Y-90060875D01*
X158727306Y-90058191D01*
X158721464Y-90057265D01*
X158721459Y-90057264D01*
X158605847Y-90038954D01*
X158600000Y-90038028D01*
X158594153Y-90038954D01*
X158478540Y-90057264D01*
X158478533Y-90057266D01*
X158472694Y-90058191D01*
X158467426Y-90060874D01*
X158467420Y-90060877D01*
X158363125Y-90114019D01*
X158363121Y-90114021D01*
X158357849Y-90116708D01*
X158353662Y-90120894D01*
X158353659Y-90120897D01*
X158270897Y-90203659D01*
X158270894Y-90203662D01*
X158266708Y-90207849D01*
X158264021Y-90213121D01*
X158264019Y-90213125D01*
X158210877Y-90317420D01*
X158210874Y-90317426D01*
X158208191Y-90322694D01*
X158207266Y-90328533D01*
X158207264Y-90328540D01*
X158189243Y-90442329D01*
X158188028Y-90450000D01*
X153458269Y-90450000D01*
X153404884Y-90442972D01*
X153400000Y-90442329D01*
X153395116Y-90442972D01*
X153260551Y-90460687D01*
X153260546Y-90460688D01*
X153255664Y-90461331D01*
X153251112Y-90463216D01*
X153251110Y-90463217D01*
X153125713Y-90515158D01*
X153125706Y-90515162D01*
X153121165Y-90517043D01*
X153117260Y-90520038D01*
X153117257Y-90520041D01*
X153009573Y-90602669D01*
X153009569Y-90602672D01*
X153005667Y-90605667D01*
X153002672Y-90609569D01*
X153002669Y-90609573D01*
X152920041Y-90717257D01*
X152920038Y-90717260D01*
X152917043Y-90721165D01*
X152915162Y-90725706D01*
X152915158Y-90725713D01*
X152868183Y-90839122D01*
X152861331Y-90855664D01*
X152860688Y-90860546D01*
X152860687Y-90860551D01*
X152848560Y-90952669D01*
X152842329Y-91000000D01*
X151678351Y-91000000D01*
X151644333Y-90955667D01*
X151528836Y-90867043D01*
X151524291Y-90865160D01*
X151524287Y-90865158D01*
X151398889Y-90813217D01*
X151394336Y-90811331D01*
X151389451Y-90810687D01*
X151389448Y-90810687D01*
X151254884Y-90792972D01*
X151250000Y-90792329D01*
X151245116Y-90792972D01*
X151110551Y-90810687D01*
X151110546Y-90810688D01*
X151105664Y-90811331D01*
X151101112Y-90813216D01*
X151101110Y-90813217D01*
X150975713Y-90865158D01*
X150975706Y-90865162D01*
X150971165Y-90867043D01*
X150967260Y-90870038D01*
X150967257Y-90870041D01*
X150859573Y-90952669D01*
X150859569Y-90952672D01*
X150855667Y-90955667D01*
X150852672Y-90959569D01*
X150852669Y-90959573D01*
X150770041Y-91067257D01*
X150770038Y-91067260D01*
X150767043Y-91071165D01*
X150765162Y-91075706D01*
X150765158Y-91075713D01*
X150719476Y-91186000D01*
X150711331Y-91205664D01*
X150710688Y-91210546D01*
X150710687Y-91210551D01*
X150700725Y-91286223D01*
X150692329Y-91350000D01*
X147980245Y-91350000D01*
X147976702Y-91343046D01*
X147944938Y-91280705D01*
X147933292Y-91257849D01*
X147842151Y-91166708D01*
X147807180Y-91148889D01*
X147732579Y-91110877D01*
X147732574Y-91110875D01*
X147727306Y-91108191D01*
X147721464Y-91107265D01*
X147721459Y-91107264D01*
X147605847Y-91088954D01*
X147600000Y-91088028D01*
X147594153Y-91088954D01*
X147478540Y-91107264D01*
X147478533Y-91107266D01*
X147472694Y-91108191D01*
X147467426Y-91110874D01*
X147467420Y-91110877D01*
X147363125Y-91164019D01*
X147363121Y-91164021D01*
X147357849Y-91166708D01*
X147353662Y-91170894D01*
X147353659Y-91170897D01*
X147270897Y-91253659D01*
X147270894Y-91253662D01*
X147266708Y-91257849D01*
X147264021Y-91263121D01*
X147264019Y-91263125D01*
X147210877Y-91367420D01*
X147210874Y-91367426D01*
X147208191Y-91372694D01*
X147207266Y-91378533D01*
X147207264Y-91378540D01*
X147191202Y-91479958D01*
X147188028Y-91500000D01*
X146211972Y-91500000D01*
X146208798Y-91479958D01*
X146192735Y-91378540D01*
X146192734Y-91378539D01*
X146191809Y-91372694D01*
X146176702Y-91343046D01*
X146144938Y-91280705D01*
X146133292Y-91257849D01*
X146042151Y-91166708D01*
X146007180Y-91148889D01*
X145932579Y-91110877D01*
X145932574Y-91110875D01*
X145927306Y-91108191D01*
X145921464Y-91107265D01*
X145921459Y-91107264D01*
X145805847Y-91088954D01*
X145800000Y-91088028D01*
X145794153Y-91088954D01*
X145678540Y-91107264D01*
X145678533Y-91107266D01*
X145672694Y-91108191D01*
X145667426Y-91110874D01*
X145667420Y-91110877D01*
X145563125Y-91164019D01*
X145563121Y-91164021D01*
X145557849Y-91166708D01*
X145553662Y-91170894D01*
X145553659Y-91170897D01*
X145470897Y-91253659D01*
X145470894Y-91253662D01*
X145466708Y-91257849D01*
X145464021Y-91263121D01*
X145464019Y-91263125D01*
X145410877Y-91367420D01*
X145410874Y-91367426D01*
X145408191Y-91372694D01*
X145407266Y-91378533D01*
X145407264Y-91378540D01*
X145391202Y-91479958D01*
X145388028Y-91500000D01*
X140155975Y-91500000D01*
X140182957Y-91464836D01*
X140238669Y-91330336D01*
X140257671Y-91186000D01*
X140238669Y-91041664D01*
X140182957Y-90907165D01*
X140094333Y-90791667D01*
X140083418Y-90783292D01*
X139982743Y-90706041D01*
X139978836Y-90703043D01*
X139974291Y-90701160D01*
X139974287Y-90701158D01*
X139848889Y-90649217D01*
X139844336Y-90647331D01*
X139839451Y-90646687D01*
X139839448Y-90646687D01*
X139704884Y-90628972D01*
X139700000Y-90628329D01*
X139695116Y-90628972D01*
X139560551Y-90646687D01*
X139560546Y-90646688D01*
X139555664Y-90647331D01*
X139551112Y-90649216D01*
X139551110Y-90649217D01*
X139425713Y-90701158D01*
X139425706Y-90701162D01*
X139421165Y-90703043D01*
X139417260Y-90706038D01*
X139417257Y-90706041D01*
X139309573Y-90788669D01*
X139309569Y-90788672D01*
X139305667Y-90791667D01*
X139302672Y-90795569D01*
X139302669Y-90795573D01*
X139220041Y-90903257D01*
X139220038Y-90903260D01*
X139217043Y-90907165D01*
X139215162Y-90911706D01*
X139215158Y-90911713D01*
X139166056Y-91030257D01*
X139161331Y-91041664D01*
X139160688Y-91046546D01*
X139160687Y-91046551D01*
X139147814Y-91144336D01*
X139142329Y-91186000D01*
X137484157Y-91186000D01*
X137544921Y-91115874D01*
X137599023Y-90997409D01*
X137617557Y-90868500D01*
X137599023Y-90739591D01*
X137544921Y-90621126D01*
X137501885Y-90571459D01*
X137463157Y-90526764D01*
X137463155Y-90526762D01*
X137459636Y-90522701D01*
X137450832Y-90517043D01*
X137354600Y-90455199D01*
X137354598Y-90455198D01*
X137350076Y-90452292D01*
X137344915Y-90450776D01*
X137344914Y-90450776D01*
X137230278Y-90417115D01*
X137230275Y-90417114D01*
X137225117Y-90415600D01*
X137094883Y-90415600D01*
X137089725Y-90417114D01*
X137089721Y-90417115D01*
X136975085Y-90450776D01*
X136975081Y-90450777D01*
X136969924Y-90452292D01*
X136965404Y-90455196D01*
X136965399Y-90455199D01*
X136864886Y-90519794D01*
X136864881Y-90519797D01*
X136860364Y-90522701D01*
X136856847Y-90526759D01*
X136856842Y-90526764D01*
X136778598Y-90617064D01*
X136778595Y-90617067D01*
X136775079Y-90621126D01*
X136720977Y-90739591D01*
X136720212Y-90744908D01*
X136720212Y-90744910D01*
X136703586Y-90860551D01*
X136702443Y-90868500D01*
X136291915Y-90868500D01*
X136282735Y-90810540D01*
X136282734Y-90810539D01*
X136281809Y-90804694D01*
X136275836Y-90792972D01*
X136225980Y-90695125D01*
X136223292Y-90689849D01*
X136132151Y-90598708D01*
X136101900Y-90583294D01*
X136022579Y-90542877D01*
X136022574Y-90542875D01*
X136017306Y-90540191D01*
X136011464Y-90539265D01*
X136011459Y-90539264D01*
X135895847Y-90520954D01*
X135890000Y-90520028D01*
X135884153Y-90520954D01*
X135768540Y-90539264D01*
X135768533Y-90539266D01*
X135762694Y-90540191D01*
X135757426Y-90542874D01*
X135757420Y-90542877D01*
X135653125Y-90596019D01*
X135653121Y-90596021D01*
X135647849Y-90598708D01*
X135643662Y-90602894D01*
X135643659Y-90602897D01*
X135560897Y-90685659D01*
X135560894Y-90685662D01*
X135556708Y-90689849D01*
X135554021Y-90695121D01*
X135554019Y-90695125D01*
X135500877Y-90799420D01*
X135500874Y-90799426D01*
X135498191Y-90804694D01*
X135497266Y-90810533D01*
X135497264Y-90810540D01*
X135480193Y-90918332D01*
X135478028Y-90932000D01*
X135031972Y-90932000D01*
X135029807Y-90918332D01*
X135012735Y-90810540D01*
X135012734Y-90810539D01*
X135011809Y-90804694D01*
X135005836Y-90792972D01*
X134955980Y-90695125D01*
X134953292Y-90689849D01*
X134862151Y-90598708D01*
X134831900Y-90583294D01*
X134752579Y-90542877D01*
X134752574Y-90542875D01*
X134747306Y-90540191D01*
X134741464Y-90539265D01*
X134741459Y-90539264D01*
X134625847Y-90520954D01*
X134620000Y-90520028D01*
X134614153Y-90520954D01*
X134498540Y-90539264D01*
X134498533Y-90539266D01*
X134492694Y-90540191D01*
X134487426Y-90542874D01*
X134487420Y-90542877D01*
X134383125Y-90596019D01*
X134383121Y-90596021D01*
X134377849Y-90598708D01*
X134373662Y-90602894D01*
X134373659Y-90602897D01*
X134290897Y-90685659D01*
X134290894Y-90685662D01*
X134286708Y-90689849D01*
X134284021Y-90695121D01*
X134284019Y-90695125D01*
X134230877Y-90799420D01*
X134230874Y-90799426D01*
X134228191Y-90804694D01*
X134227266Y-90810533D01*
X134227264Y-90810540D01*
X134210193Y-90918332D01*
X134208028Y-90932000D01*
X133761972Y-90932000D01*
X133759807Y-90918332D01*
X133742735Y-90810540D01*
X133742734Y-90810539D01*
X133741809Y-90804694D01*
X133735836Y-90792972D01*
X133685980Y-90695125D01*
X133683292Y-90689849D01*
X133592151Y-90598708D01*
X133561900Y-90583294D01*
X133482579Y-90542877D01*
X133482574Y-90542875D01*
X133477306Y-90540191D01*
X133471464Y-90539265D01*
X133471459Y-90539264D01*
X133355847Y-90520954D01*
X133350000Y-90520028D01*
X133344153Y-90520954D01*
X133228540Y-90539264D01*
X133228533Y-90539266D01*
X133222694Y-90540191D01*
X133217426Y-90542874D01*
X133217420Y-90542877D01*
X133113125Y-90596019D01*
X133113121Y-90596021D01*
X133107849Y-90598708D01*
X133103662Y-90602894D01*
X133103659Y-90602897D01*
X133020897Y-90685659D01*
X133020894Y-90685662D01*
X133016708Y-90689849D01*
X133014021Y-90695121D01*
X133014019Y-90695125D01*
X132960877Y-90799420D01*
X132960874Y-90799426D01*
X132958191Y-90804694D01*
X132957266Y-90810533D01*
X132957264Y-90810540D01*
X132940193Y-90918332D01*
X132938028Y-90932000D01*
X132491972Y-90932000D01*
X132489807Y-90918332D01*
X132472735Y-90810540D01*
X132472734Y-90810539D01*
X132471809Y-90804694D01*
X132465836Y-90792972D01*
X132415980Y-90695125D01*
X132413292Y-90689849D01*
X132322151Y-90598708D01*
X132291900Y-90583294D01*
X132212579Y-90542877D01*
X132212574Y-90542875D01*
X132207306Y-90540191D01*
X132201464Y-90539265D01*
X132201459Y-90539264D01*
X132085847Y-90520954D01*
X132080000Y-90520028D01*
X132074153Y-90520954D01*
X131958540Y-90539264D01*
X131958533Y-90539266D01*
X131952694Y-90540191D01*
X131947426Y-90542874D01*
X131947420Y-90542877D01*
X131843125Y-90596019D01*
X131843121Y-90596021D01*
X131837849Y-90598708D01*
X131833662Y-90602894D01*
X131833659Y-90602897D01*
X131750897Y-90685659D01*
X131750894Y-90685662D01*
X131746708Y-90689849D01*
X131744021Y-90695121D01*
X131744019Y-90695125D01*
X131690877Y-90799420D01*
X131690874Y-90799426D01*
X131688191Y-90804694D01*
X131687266Y-90810533D01*
X131687264Y-90810540D01*
X131670193Y-90918332D01*
X131668028Y-90932000D01*
X131221972Y-90932000D01*
X131219807Y-90918332D01*
X131202735Y-90810540D01*
X131202734Y-90810539D01*
X131201809Y-90804694D01*
X131195836Y-90792972D01*
X131145980Y-90695125D01*
X131143292Y-90689849D01*
X131052151Y-90598708D01*
X131021900Y-90583294D01*
X130942579Y-90542877D01*
X130942574Y-90542875D01*
X130937306Y-90540191D01*
X130931464Y-90539265D01*
X130931459Y-90539264D01*
X130815847Y-90520954D01*
X130810000Y-90520028D01*
X130804153Y-90520954D01*
X130688540Y-90539264D01*
X130688533Y-90539266D01*
X130682694Y-90540191D01*
X130677426Y-90542874D01*
X130677420Y-90542877D01*
X130573125Y-90596019D01*
X130573121Y-90596021D01*
X130567849Y-90598708D01*
X130563662Y-90602894D01*
X130563659Y-90602897D01*
X130480897Y-90685659D01*
X130480894Y-90685662D01*
X130476708Y-90689849D01*
X130474021Y-90695121D01*
X130474019Y-90695125D01*
X130420877Y-90799420D01*
X130420874Y-90799426D01*
X130418191Y-90804694D01*
X130417266Y-90810533D01*
X130417264Y-90810540D01*
X130400193Y-90918332D01*
X130398028Y-90932000D01*
X127411972Y-90932000D01*
X127409807Y-90918332D01*
X127392735Y-90810540D01*
X127392734Y-90810539D01*
X127391809Y-90804694D01*
X127385836Y-90792972D01*
X127335980Y-90695125D01*
X127333292Y-90689849D01*
X127242151Y-90598708D01*
X127211900Y-90583294D01*
X127132579Y-90542877D01*
X127132574Y-90542875D01*
X127127306Y-90540191D01*
X127121464Y-90539265D01*
X127121459Y-90539264D01*
X127005847Y-90520954D01*
X127000000Y-90520028D01*
X126994153Y-90520954D01*
X126878540Y-90539264D01*
X126878533Y-90539266D01*
X126872694Y-90540191D01*
X126867426Y-90542874D01*
X126867420Y-90542877D01*
X126763125Y-90596019D01*
X126763121Y-90596021D01*
X126757849Y-90598708D01*
X126753662Y-90602894D01*
X126753659Y-90602897D01*
X126670897Y-90685659D01*
X126670894Y-90685662D01*
X126666708Y-90689849D01*
X126664021Y-90695121D01*
X126664019Y-90695125D01*
X126610877Y-90799420D01*
X126610874Y-90799426D01*
X126608191Y-90804694D01*
X126607266Y-90810533D01*
X126607264Y-90810540D01*
X126590193Y-90918332D01*
X126588028Y-90932000D01*
X126141972Y-90932000D01*
X126139807Y-90918332D01*
X126122735Y-90810540D01*
X126122734Y-90810539D01*
X126121809Y-90804694D01*
X126115836Y-90792972D01*
X126065980Y-90695125D01*
X126063292Y-90689849D01*
X125972151Y-90598708D01*
X125941900Y-90583294D01*
X125862579Y-90542877D01*
X125862574Y-90542875D01*
X125857306Y-90540191D01*
X125851464Y-90539265D01*
X125851459Y-90539264D01*
X125735847Y-90520954D01*
X125730000Y-90520028D01*
X125724153Y-90520954D01*
X125608540Y-90539264D01*
X125608533Y-90539266D01*
X125602694Y-90540191D01*
X125597426Y-90542874D01*
X125597420Y-90542877D01*
X125493125Y-90596019D01*
X125493121Y-90596021D01*
X125487849Y-90598708D01*
X125483662Y-90602894D01*
X125483659Y-90602897D01*
X125400897Y-90685659D01*
X125400894Y-90685662D01*
X125396708Y-90689849D01*
X125394021Y-90695121D01*
X125394019Y-90695125D01*
X125340877Y-90799420D01*
X125340874Y-90799426D01*
X125338191Y-90804694D01*
X125337266Y-90810533D01*
X125337264Y-90810540D01*
X125320193Y-90918332D01*
X125318028Y-90932000D01*
X122368427Y-90932000D01*
X122377557Y-90868500D01*
X122359023Y-90739591D01*
X122304921Y-90621126D01*
X122261885Y-90571459D01*
X122223157Y-90526764D01*
X122223155Y-90526762D01*
X122219636Y-90522701D01*
X122210832Y-90517043D01*
X122114600Y-90455199D01*
X122114598Y-90455198D01*
X122110076Y-90452292D01*
X122104915Y-90450776D01*
X122104914Y-90450776D01*
X121990278Y-90417115D01*
X121990275Y-90417114D01*
X121985117Y-90415600D01*
X121854883Y-90415600D01*
X121849725Y-90417114D01*
X121849721Y-90417115D01*
X121735085Y-90450776D01*
X121735081Y-90450777D01*
X121729924Y-90452292D01*
X121725404Y-90455196D01*
X121725399Y-90455199D01*
X121624886Y-90519794D01*
X121624881Y-90519797D01*
X121620364Y-90522701D01*
X121616847Y-90526759D01*
X121616842Y-90526764D01*
X121538598Y-90617064D01*
X121538595Y-90617067D01*
X121535079Y-90621126D01*
X121480977Y-90739591D01*
X121480212Y-90744908D01*
X121480212Y-90744910D01*
X121463586Y-90860551D01*
X121462443Y-90868500D01*
X119708954Y-90868500D01*
X119658836Y-90830043D01*
X119654291Y-90828160D01*
X119654287Y-90828158D01*
X119528889Y-90776217D01*
X119524336Y-90774331D01*
X119519451Y-90773687D01*
X119519448Y-90773687D01*
X119384884Y-90755972D01*
X119380000Y-90755329D01*
X119375116Y-90755972D01*
X119240551Y-90773687D01*
X119240546Y-90773688D01*
X119235664Y-90774331D01*
X119231112Y-90776216D01*
X119231110Y-90776217D01*
X119105713Y-90828158D01*
X119105706Y-90828162D01*
X119101165Y-90830043D01*
X119097260Y-90833038D01*
X119097257Y-90833041D01*
X118989573Y-90915669D01*
X118989569Y-90915672D01*
X118985667Y-90918667D01*
X118982672Y-90922569D01*
X118982669Y-90922573D01*
X118900041Y-91030257D01*
X118900038Y-91030260D01*
X118897043Y-91034165D01*
X118895162Y-91038706D01*
X118895158Y-91038713D01*
X118851408Y-91144336D01*
X118841331Y-91168664D01*
X118840688Y-91173546D01*
X118840687Y-91173551D01*
X118826367Y-91282331D01*
X118822329Y-91313000D01*
X117947378Y-91313000D01*
X117882732Y-91286223D01*
X117873336Y-91282331D01*
X117868451Y-91281687D01*
X117868448Y-91281687D01*
X117733884Y-91263972D01*
X117729000Y-91263329D01*
X117724116Y-91263972D01*
X117589551Y-91281687D01*
X117589546Y-91281688D01*
X117584664Y-91282331D01*
X117580112Y-91284216D01*
X117580110Y-91284217D01*
X117454713Y-91336158D01*
X117454706Y-91336162D01*
X117450165Y-91338043D01*
X117446260Y-91341038D01*
X117446257Y-91341041D01*
X117338573Y-91423669D01*
X117338569Y-91423672D01*
X117334667Y-91426667D01*
X117331672Y-91430569D01*
X117331669Y-91430573D01*
X117249041Y-91538257D01*
X117249038Y-91538260D01*
X117246043Y-91542165D01*
X117244162Y-91546706D01*
X117244158Y-91546713D01*
X117193523Y-91668957D01*
X117190331Y-91676664D01*
X117189688Y-91681546D01*
X117189687Y-91681551D01*
X117174378Y-91797841D01*
X117171329Y-91821000D01*
X107300244Y-91821000D01*
X107289957Y-91796165D01*
X107201333Y-91680667D01*
X107085836Y-91592043D01*
X107081291Y-91590160D01*
X107081287Y-91590158D01*
X106955889Y-91538217D01*
X106951336Y-91536331D01*
X106946451Y-91535687D01*
X106946448Y-91535687D01*
X106811884Y-91517972D01*
X106807000Y-91517329D01*
X106802116Y-91517972D01*
X106667551Y-91535687D01*
X106667546Y-91535688D01*
X106662664Y-91536331D01*
X106658112Y-91538216D01*
X106658110Y-91538217D01*
X106532713Y-91590158D01*
X106532706Y-91590162D01*
X106528165Y-91592043D01*
X106524260Y-91595038D01*
X106524257Y-91595041D01*
X106416573Y-91677669D01*
X106416569Y-91677672D01*
X106412667Y-91680667D01*
X106409672Y-91684569D01*
X106409669Y-91684573D01*
X106327041Y-91792257D01*
X106327038Y-91792260D01*
X106324043Y-91796165D01*
X106322162Y-91800706D01*
X106322158Y-91800713D01*
X106270217Y-91926110D01*
X106268331Y-91930664D01*
X106267688Y-91935546D01*
X106267687Y-91935551D01*
X106252474Y-92051110D01*
X106249329Y-92075000D01*
X84224564Y-92075000D01*
X84214333Y-92061667D01*
X84098836Y-91973043D01*
X84094291Y-91971160D01*
X84094287Y-91971158D01*
X83968889Y-91919217D01*
X83964336Y-91917331D01*
X83959451Y-91916687D01*
X83959448Y-91916687D01*
X83824884Y-91898972D01*
X83820000Y-91898329D01*
X83815116Y-91898972D01*
X83680551Y-91916687D01*
X83680546Y-91916688D01*
X83675664Y-91917331D01*
X83671112Y-91919216D01*
X83671110Y-91919217D01*
X83545713Y-91971158D01*
X83545706Y-91971162D01*
X83541165Y-91973043D01*
X83537260Y-91976038D01*
X83537257Y-91976041D01*
X83429573Y-92058669D01*
X83429569Y-92058672D01*
X83425667Y-92061667D01*
X83422672Y-92065569D01*
X83422669Y-92065573D01*
X83340041Y-92173257D01*
X83340038Y-92173260D01*
X83337043Y-92177165D01*
X83335162Y-92181706D01*
X83335158Y-92181713D01*
X83284523Y-92303957D01*
X83281331Y-92311664D01*
X83280688Y-92316546D01*
X83280687Y-92316551D01*
X83265241Y-92433882D01*
X83262329Y-92456000D01*
X81100879Y-92456000D01*
X81115674Y-92436236D01*
X81241674Y-92205483D01*
X81333553Y-91959147D01*
X81389439Y-91702243D01*
X81408195Y-91440000D01*
X81399112Y-91313000D01*
X84532329Y-91313000D01*
X84532972Y-91317884D01*
X84549048Y-91440000D01*
X84551331Y-91457336D01*
X84553217Y-91461889D01*
X84605158Y-91587287D01*
X84605160Y-91587291D01*
X84607043Y-91591836D01*
X84695667Y-91707333D01*
X84811164Y-91795957D01*
X84945664Y-91851669D01*
X85090000Y-91870671D01*
X85234336Y-91851669D01*
X85368836Y-91795957D01*
X85484333Y-91707333D01*
X85572957Y-91591836D01*
X85628669Y-91457336D01*
X85647671Y-91313000D01*
X85628669Y-91168664D01*
X85572957Y-91034165D01*
X85494564Y-90932000D01*
X87172443Y-90932000D01*
X87173208Y-90937321D01*
X87181517Y-90995116D01*
X87190977Y-91060909D01*
X87245079Y-91179374D01*
X87255052Y-91190884D01*
X87326842Y-91273735D01*
X87326844Y-91273736D01*
X87330364Y-91277799D01*
X87439924Y-91348208D01*
X87564883Y-91384900D01*
X87689737Y-91384900D01*
X87695117Y-91384900D01*
X87820076Y-91348208D01*
X87929636Y-91277799D01*
X88014921Y-91179374D01*
X88069023Y-91060909D01*
X88087557Y-90932000D01*
X96108028Y-90932000D01*
X96108954Y-90937847D01*
X96127264Y-91053459D01*
X96127265Y-91053464D01*
X96128191Y-91059306D01*
X96130875Y-91064574D01*
X96130877Y-91064579D01*
X96183912Y-91168664D01*
X96186708Y-91174151D01*
X96277849Y-91265292D01*
X96311290Y-91282331D01*
X96387420Y-91321122D01*
X96387421Y-91321122D01*
X96392694Y-91323809D01*
X96398539Y-91324734D01*
X96398540Y-91324735D01*
X96514153Y-91343046D01*
X96520000Y-91343972D01*
X96647306Y-91323809D01*
X96762151Y-91265292D01*
X96853292Y-91174151D01*
X96911809Y-91059306D01*
X96931972Y-90932000D01*
X97378028Y-90932000D01*
X97378954Y-90937847D01*
X97397264Y-91053459D01*
X97397265Y-91053464D01*
X97398191Y-91059306D01*
X97400875Y-91064574D01*
X97400877Y-91064579D01*
X97453912Y-91168664D01*
X97456708Y-91174151D01*
X97547849Y-91265292D01*
X97581290Y-91282331D01*
X97657420Y-91321122D01*
X97657421Y-91321122D01*
X97662694Y-91323809D01*
X97668539Y-91324734D01*
X97668540Y-91324735D01*
X97784153Y-91343046D01*
X97790000Y-91343972D01*
X97917306Y-91323809D01*
X98032151Y-91265292D01*
X98123292Y-91174151D01*
X98181809Y-91059306D01*
X98201972Y-90932000D01*
X98648028Y-90932000D01*
X98648954Y-90937847D01*
X98667264Y-91053459D01*
X98667265Y-91053464D01*
X98668191Y-91059306D01*
X98670875Y-91064574D01*
X98670877Y-91064579D01*
X98723912Y-91168664D01*
X98726708Y-91174151D01*
X98817849Y-91265292D01*
X98851290Y-91282331D01*
X98927420Y-91321122D01*
X98927421Y-91321122D01*
X98932694Y-91323809D01*
X98938539Y-91324734D01*
X98938540Y-91324735D01*
X99054153Y-91343046D01*
X99060000Y-91343972D01*
X99187306Y-91323809D01*
X99302151Y-91265292D01*
X99393292Y-91174151D01*
X99451809Y-91059306D01*
X99471972Y-90932000D01*
X99918028Y-90932000D01*
X99918954Y-90937847D01*
X99937264Y-91053459D01*
X99937265Y-91053464D01*
X99938191Y-91059306D01*
X99940875Y-91064574D01*
X99940877Y-91064579D01*
X99993912Y-91168664D01*
X99996708Y-91174151D01*
X100087849Y-91265292D01*
X100121290Y-91282331D01*
X100197420Y-91321122D01*
X100197421Y-91321122D01*
X100202694Y-91323809D01*
X100208539Y-91324734D01*
X100208540Y-91324735D01*
X100324153Y-91343046D01*
X100330000Y-91343972D01*
X100457306Y-91323809D01*
X100572151Y-91265292D01*
X100663292Y-91174151D01*
X100721809Y-91059306D01*
X100741972Y-90932000D01*
X101188028Y-90932000D01*
X101188954Y-90937847D01*
X101207264Y-91053459D01*
X101207265Y-91053464D01*
X101208191Y-91059306D01*
X101210875Y-91064574D01*
X101210877Y-91064579D01*
X101263912Y-91168664D01*
X101266708Y-91174151D01*
X101357849Y-91265292D01*
X101391290Y-91282331D01*
X101467420Y-91321122D01*
X101467421Y-91321122D01*
X101472694Y-91323809D01*
X101478539Y-91324734D01*
X101478540Y-91324735D01*
X101594153Y-91343046D01*
X101600000Y-91343972D01*
X101727306Y-91323809D01*
X101842151Y-91265292D01*
X101933292Y-91174151D01*
X101991809Y-91059306D01*
X102011972Y-90932000D01*
X102009807Y-90918332D01*
X102001915Y-90868500D01*
X102412443Y-90868500D01*
X102413208Y-90873821D01*
X102424975Y-90955667D01*
X102430977Y-90997409D01*
X102485079Y-91115874D01*
X102488598Y-91119935D01*
X102566842Y-91210235D01*
X102566844Y-91210236D01*
X102570364Y-91214299D01*
X102679924Y-91284708D01*
X102804883Y-91321400D01*
X102929737Y-91321400D01*
X102935117Y-91321400D01*
X102963724Y-91313000D01*
X104852329Y-91313000D01*
X104852972Y-91317884D01*
X104869048Y-91440000D01*
X104871331Y-91457336D01*
X104873217Y-91461889D01*
X104925158Y-91587287D01*
X104925160Y-91587291D01*
X104927043Y-91591836D01*
X105015667Y-91707333D01*
X105131164Y-91795957D01*
X105265664Y-91851669D01*
X105410000Y-91870671D01*
X105554336Y-91851669D01*
X105688836Y-91795957D01*
X105804333Y-91707333D01*
X105892957Y-91591836D01*
X105948669Y-91457336D01*
X105967671Y-91313000D01*
X105948669Y-91168664D01*
X105892957Y-91034165D01*
X105804333Y-90918667D01*
X105688836Y-90830043D01*
X105684291Y-90828160D01*
X105684287Y-90828158D01*
X105558889Y-90776217D01*
X105554336Y-90774331D01*
X105549451Y-90773687D01*
X105549448Y-90773687D01*
X105414884Y-90755972D01*
X105410000Y-90755329D01*
X105405116Y-90755972D01*
X105270551Y-90773687D01*
X105270546Y-90773688D01*
X105265664Y-90774331D01*
X105261112Y-90776216D01*
X105261110Y-90776217D01*
X105135713Y-90828158D01*
X105135706Y-90828162D01*
X105131165Y-90830043D01*
X105127260Y-90833038D01*
X105127257Y-90833041D01*
X105019573Y-90915669D01*
X105019569Y-90915672D01*
X105015667Y-90918667D01*
X105012672Y-90922569D01*
X105012669Y-90922573D01*
X104930041Y-91030257D01*
X104930038Y-91030260D01*
X104927043Y-91034165D01*
X104925162Y-91038706D01*
X104925158Y-91038713D01*
X104881408Y-91144336D01*
X104871331Y-91168664D01*
X104870688Y-91173546D01*
X104870687Y-91173551D01*
X104856367Y-91282331D01*
X104852329Y-91313000D01*
X102963724Y-91313000D01*
X103060076Y-91284708D01*
X103169636Y-91214299D01*
X103254921Y-91115874D01*
X103309023Y-90997409D01*
X103327557Y-90868500D01*
X103309023Y-90739591D01*
X103254921Y-90621126D01*
X103211885Y-90571459D01*
X103173157Y-90526764D01*
X103173155Y-90526762D01*
X103169636Y-90522701D01*
X103160832Y-90517043D01*
X103064600Y-90455199D01*
X103064598Y-90455198D01*
X103060076Y-90452292D01*
X103054915Y-90450776D01*
X103054914Y-90450776D01*
X102940278Y-90417115D01*
X102940275Y-90417114D01*
X102935117Y-90415600D01*
X102804883Y-90415600D01*
X102799725Y-90417114D01*
X102799721Y-90417115D01*
X102685085Y-90450776D01*
X102685081Y-90450777D01*
X102679924Y-90452292D01*
X102675404Y-90455196D01*
X102675399Y-90455199D01*
X102574886Y-90519794D01*
X102574881Y-90519797D01*
X102570364Y-90522701D01*
X102566847Y-90526759D01*
X102566842Y-90526764D01*
X102488598Y-90617064D01*
X102488595Y-90617067D01*
X102485079Y-90621126D01*
X102430977Y-90739591D01*
X102430212Y-90744908D01*
X102430212Y-90744910D01*
X102413586Y-90860551D01*
X102412443Y-90868500D01*
X102001915Y-90868500D01*
X101992735Y-90810540D01*
X101992734Y-90810539D01*
X101991809Y-90804694D01*
X101985836Y-90792972D01*
X101935980Y-90695125D01*
X101933292Y-90689849D01*
X101842151Y-90598708D01*
X101811900Y-90583294D01*
X101732579Y-90542877D01*
X101732574Y-90542875D01*
X101727306Y-90540191D01*
X101721464Y-90539265D01*
X101721459Y-90539264D01*
X101605847Y-90520954D01*
X101600000Y-90520028D01*
X101594153Y-90520954D01*
X101478540Y-90539264D01*
X101478533Y-90539266D01*
X101472694Y-90540191D01*
X101467426Y-90542874D01*
X101467420Y-90542877D01*
X101363125Y-90596019D01*
X101363121Y-90596021D01*
X101357849Y-90598708D01*
X101353662Y-90602894D01*
X101353659Y-90602897D01*
X101270897Y-90685659D01*
X101270894Y-90685662D01*
X101266708Y-90689849D01*
X101264021Y-90695121D01*
X101264019Y-90695125D01*
X101210877Y-90799420D01*
X101210874Y-90799426D01*
X101208191Y-90804694D01*
X101207266Y-90810533D01*
X101207264Y-90810540D01*
X101190193Y-90918332D01*
X101188028Y-90932000D01*
X100741972Y-90932000D01*
X100739807Y-90918332D01*
X100722735Y-90810540D01*
X100722734Y-90810539D01*
X100721809Y-90804694D01*
X100715836Y-90792972D01*
X100665980Y-90695125D01*
X100663292Y-90689849D01*
X100572151Y-90598708D01*
X100541900Y-90583294D01*
X100462579Y-90542877D01*
X100462574Y-90542875D01*
X100457306Y-90540191D01*
X100451464Y-90539265D01*
X100451459Y-90539264D01*
X100335847Y-90520954D01*
X100330000Y-90520028D01*
X100324153Y-90520954D01*
X100208540Y-90539264D01*
X100208533Y-90539266D01*
X100202694Y-90540191D01*
X100197426Y-90542874D01*
X100197420Y-90542877D01*
X100093125Y-90596019D01*
X100093121Y-90596021D01*
X100087849Y-90598708D01*
X100083662Y-90602894D01*
X100083659Y-90602897D01*
X100000897Y-90685659D01*
X100000894Y-90685662D01*
X99996708Y-90689849D01*
X99994021Y-90695121D01*
X99994019Y-90695125D01*
X99940877Y-90799420D01*
X99940874Y-90799426D01*
X99938191Y-90804694D01*
X99937266Y-90810533D01*
X99937264Y-90810540D01*
X99920193Y-90918332D01*
X99918028Y-90932000D01*
X99471972Y-90932000D01*
X99469807Y-90918332D01*
X99452735Y-90810540D01*
X99452734Y-90810539D01*
X99451809Y-90804694D01*
X99445836Y-90792972D01*
X99395980Y-90695125D01*
X99393292Y-90689849D01*
X99302151Y-90598708D01*
X99271900Y-90583294D01*
X99192579Y-90542877D01*
X99192574Y-90542875D01*
X99187306Y-90540191D01*
X99181464Y-90539265D01*
X99181459Y-90539264D01*
X99065847Y-90520954D01*
X99060000Y-90520028D01*
X99054153Y-90520954D01*
X98938540Y-90539264D01*
X98938533Y-90539266D01*
X98932694Y-90540191D01*
X98927426Y-90542874D01*
X98927420Y-90542877D01*
X98823125Y-90596019D01*
X98823121Y-90596021D01*
X98817849Y-90598708D01*
X98813662Y-90602894D01*
X98813659Y-90602897D01*
X98730897Y-90685659D01*
X98730894Y-90685662D01*
X98726708Y-90689849D01*
X98724021Y-90695121D01*
X98724019Y-90695125D01*
X98670877Y-90799420D01*
X98670874Y-90799426D01*
X98668191Y-90804694D01*
X98667266Y-90810533D01*
X98667264Y-90810540D01*
X98650193Y-90918332D01*
X98648028Y-90932000D01*
X98201972Y-90932000D01*
X98199807Y-90918332D01*
X98182735Y-90810540D01*
X98182734Y-90810539D01*
X98181809Y-90804694D01*
X98175836Y-90792972D01*
X98125980Y-90695125D01*
X98123292Y-90689849D01*
X98032151Y-90598708D01*
X98001900Y-90583294D01*
X97922579Y-90542877D01*
X97922574Y-90542875D01*
X97917306Y-90540191D01*
X97911464Y-90539265D01*
X97911459Y-90539264D01*
X97795847Y-90520954D01*
X97790000Y-90520028D01*
X97784153Y-90520954D01*
X97668540Y-90539264D01*
X97668533Y-90539266D01*
X97662694Y-90540191D01*
X97657426Y-90542874D01*
X97657420Y-90542877D01*
X97553125Y-90596019D01*
X97553121Y-90596021D01*
X97547849Y-90598708D01*
X97543662Y-90602894D01*
X97543659Y-90602897D01*
X97460897Y-90685659D01*
X97460894Y-90685662D01*
X97456708Y-90689849D01*
X97454021Y-90695121D01*
X97454019Y-90695125D01*
X97400877Y-90799420D01*
X97400874Y-90799426D01*
X97398191Y-90804694D01*
X97397266Y-90810533D01*
X97397264Y-90810540D01*
X97380193Y-90918332D01*
X97378028Y-90932000D01*
X96931972Y-90932000D01*
X96929807Y-90918332D01*
X96912735Y-90810540D01*
X96912734Y-90810539D01*
X96911809Y-90804694D01*
X96905836Y-90792972D01*
X96855980Y-90695125D01*
X96853292Y-90689849D01*
X96762151Y-90598708D01*
X96731900Y-90583294D01*
X96652579Y-90542877D01*
X96652574Y-90542875D01*
X96647306Y-90540191D01*
X96641464Y-90539265D01*
X96641459Y-90539264D01*
X96525847Y-90520954D01*
X96520000Y-90520028D01*
X96514153Y-90520954D01*
X96398540Y-90539264D01*
X96398533Y-90539266D01*
X96392694Y-90540191D01*
X96387426Y-90542874D01*
X96387420Y-90542877D01*
X96283125Y-90596019D01*
X96283121Y-90596021D01*
X96277849Y-90598708D01*
X96273662Y-90602894D01*
X96273659Y-90602897D01*
X96190897Y-90685659D01*
X96190894Y-90685662D01*
X96186708Y-90689849D01*
X96184021Y-90695121D01*
X96184019Y-90695125D01*
X96130877Y-90799420D01*
X96130874Y-90799426D01*
X96128191Y-90804694D01*
X96127266Y-90810533D01*
X96127264Y-90810540D01*
X96110193Y-90918332D01*
X96108028Y-90932000D01*
X88087557Y-90932000D01*
X88069023Y-90803091D01*
X88014921Y-90684626D01*
X87964135Y-90626015D01*
X87933157Y-90590264D01*
X87933155Y-90590262D01*
X87929636Y-90586201D01*
X87862222Y-90542877D01*
X87824600Y-90518699D01*
X87824598Y-90518698D01*
X87820076Y-90515792D01*
X87814915Y-90514276D01*
X87814914Y-90514276D01*
X87700278Y-90480615D01*
X87700275Y-90480614D01*
X87695117Y-90479100D01*
X87564883Y-90479100D01*
X87559725Y-90480614D01*
X87559721Y-90480615D01*
X87445085Y-90514276D01*
X87445081Y-90514277D01*
X87439924Y-90515792D01*
X87435404Y-90518696D01*
X87435399Y-90518699D01*
X87334886Y-90583294D01*
X87334881Y-90583297D01*
X87330364Y-90586201D01*
X87326847Y-90590259D01*
X87326842Y-90590264D01*
X87248598Y-90680564D01*
X87248595Y-90680567D01*
X87245079Y-90684626D01*
X87242846Y-90689513D01*
X87242846Y-90689515D01*
X87200019Y-90783292D01*
X87190977Y-90803091D01*
X87190212Y-90808408D01*
X87190212Y-90808410D01*
X87176014Y-90907165D01*
X87172443Y-90932000D01*
X85494564Y-90932000D01*
X85484333Y-90918667D01*
X85368836Y-90830043D01*
X85364291Y-90828160D01*
X85364287Y-90828158D01*
X85238889Y-90776217D01*
X85234336Y-90774331D01*
X85229451Y-90773687D01*
X85229448Y-90773687D01*
X85094884Y-90755972D01*
X85090000Y-90755329D01*
X85085116Y-90755972D01*
X84950551Y-90773687D01*
X84950546Y-90773688D01*
X84945664Y-90774331D01*
X84941112Y-90776216D01*
X84941110Y-90776217D01*
X84815713Y-90828158D01*
X84815706Y-90828162D01*
X84811165Y-90830043D01*
X84807260Y-90833038D01*
X84807257Y-90833041D01*
X84699573Y-90915669D01*
X84699569Y-90915672D01*
X84695667Y-90918667D01*
X84692672Y-90922569D01*
X84692669Y-90922573D01*
X84610041Y-91030257D01*
X84610038Y-91030260D01*
X84607043Y-91034165D01*
X84605162Y-91038706D01*
X84605158Y-91038713D01*
X84561408Y-91144336D01*
X84551331Y-91168664D01*
X84550688Y-91173546D01*
X84550687Y-91173551D01*
X84536367Y-91282331D01*
X84532329Y-91313000D01*
X81399112Y-91313000D01*
X81389439Y-91177757D01*
X81386450Y-91164019D01*
X81334126Y-90923487D01*
X81334125Y-90923486D01*
X81333553Y-90920853D01*
X81241674Y-90674517D01*
X81115674Y-90443764D01*
X80958116Y-90233291D01*
X80772209Y-90047384D01*
X80561736Y-89889826D01*
X80559388Y-89888544D01*
X80559382Y-89888540D01*
X80333336Y-89765111D01*
X80333337Y-89765111D01*
X80330983Y-89763826D01*
X80084647Y-89671947D01*
X80082022Y-89671376D01*
X80082012Y-89671373D01*
X79830367Y-89616631D01*
X79830355Y-89616629D01*
X79827743Y-89616061D01*
X79825069Y-89615869D01*
X79825064Y-89615869D01*
X79568185Y-89597497D01*
X79565500Y-89597305D01*
X79562815Y-89597497D01*
X79305935Y-89615869D01*
X79305928Y-89615869D01*
X79303257Y-89616061D01*
X79300645Y-89616628D01*
X79300632Y-89616631D01*
X79048987Y-89671373D01*
X79048973Y-89671376D01*
X79046353Y-89671947D01*
X79043835Y-89672885D01*
X79043832Y-89672887D01*
X78802528Y-89762889D01*
X78802522Y-89762891D01*
X78800017Y-89763826D01*
X78797667Y-89765109D01*
X78797663Y-89765111D01*
X78571617Y-89888540D01*
X78571604Y-89888547D01*
X78569264Y-89889826D01*
X78567122Y-89891429D01*
X78567118Y-89891432D01*
X78360942Y-90045773D01*
X78360935Y-90045778D01*
X78358791Y-90047384D01*
X78356892Y-90049282D01*
X78356885Y-90049289D01*
X78174789Y-90231385D01*
X78174782Y-90231392D01*
X78172884Y-90233291D01*
X78171278Y-90235435D01*
X78171273Y-90235442D01*
X78036409Y-90415600D01*
X78015326Y-90443764D01*
X78014047Y-90446104D01*
X78014040Y-90446117D01*
X77890611Y-90672163D01*
X77889326Y-90674517D01*
X77888391Y-90677022D01*
X77888389Y-90677028D01*
X77798387Y-90918332D01*
X77797447Y-90920853D01*
X77796876Y-90923473D01*
X77796873Y-90923487D01*
X77742131Y-91175132D01*
X77742128Y-91175145D01*
X77741561Y-91177757D01*
X77741369Y-91180428D01*
X77741369Y-91180435D01*
X77726071Y-91394333D01*
X77722805Y-91440000D01*
X76450500Y-91440000D01*
X76450500Y-88392000D01*
X91028028Y-88392000D01*
X91028954Y-88397847D01*
X91047264Y-88513459D01*
X91047265Y-88513464D01*
X91048191Y-88519306D01*
X91050875Y-88524574D01*
X91050877Y-88524579D01*
X91104019Y-88628874D01*
X91106708Y-88634151D01*
X91197849Y-88725292D01*
X91257099Y-88755481D01*
X91307420Y-88781122D01*
X91307421Y-88781122D01*
X91312694Y-88783809D01*
X91318539Y-88784734D01*
X91318540Y-88784735D01*
X91434153Y-88803046D01*
X91440000Y-88803972D01*
X91567306Y-88783809D01*
X91682151Y-88725292D01*
X91773292Y-88634151D01*
X91831809Y-88519306D01*
X91851972Y-88392000D01*
X93568028Y-88392000D01*
X93568954Y-88397847D01*
X93587264Y-88513459D01*
X93587265Y-88513464D01*
X93588191Y-88519306D01*
X93590875Y-88524574D01*
X93590877Y-88524579D01*
X93644019Y-88628874D01*
X93646708Y-88634151D01*
X93737849Y-88725292D01*
X93797099Y-88755481D01*
X93847420Y-88781122D01*
X93847421Y-88781122D01*
X93852694Y-88783809D01*
X93858539Y-88784734D01*
X93858540Y-88784735D01*
X93974153Y-88803046D01*
X93980000Y-88803972D01*
X94107306Y-88783809D01*
X94222151Y-88725292D01*
X94313292Y-88634151D01*
X94371809Y-88519306D01*
X94391972Y-88392000D01*
X96108028Y-88392000D01*
X96108954Y-88397847D01*
X96127264Y-88513459D01*
X96127265Y-88513464D01*
X96128191Y-88519306D01*
X96130875Y-88524574D01*
X96130877Y-88524579D01*
X96184019Y-88628874D01*
X96186708Y-88634151D01*
X96277849Y-88725292D01*
X96337099Y-88755481D01*
X96387420Y-88781122D01*
X96387421Y-88781122D01*
X96392694Y-88783809D01*
X96398539Y-88784734D01*
X96398540Y-88784735D01*
X96514153Y-88803046D01*
X96520000Y-88803972D01*
X96647306Y-88783809D01*
X96762151Y-88725292D01*
X96853292Y-88634151D01*
X96911809Y-88519306D01*
X96931972Y-88392000D01*
X97378028Y-88392000D01*
X97378954Y-88397847D01*
X97397264Y-88513459D01*
X97397265Y-88513464D01*
X97398191Y-88519306D01*
X97400875Y-88524574D01*
X97400877Y-88524579D01*
X97454019Y-88628874D01*
X97456708Y-88634151D01*
X97547849Y-88725292D01*
X97607099Y-88755481D01*
X97657420Y-88781122D01*
X97657421Y-88781122D01*
X97662694Y-88783809D01*
X97668539Y-88784734D01*
X97668540Y-88784735D01*
X97784153Y-88803046D01*
X97790000Y-88803972D01*
X97917306Y-88783809D01*
X98032151Y-88725292D01*
X98123292Y-88634151D01*
X98181809Y-88519306D01*
X98201972Y-88392000D01*
X98648028Y-88392000D01*
X98648954Y-88397847D01*
X98667264Y-88513459D01*
X98667265Y-88513464D01*
X98668191Y-88519306D01*
X98670875Y-88524574D01*
X98670877Y-88524579D01*
X98724019Y-88628874D01*
X98726708Y-88634151D01*
X98817849Y-88725292D01*
X98877099Y-88755481D01*
X98927420Y-88781122D01*
X98927421Y-88781122D01*
X98932694Y-88783809D01*
X98938539Y-88784734D01*
X98938540Y-88784735D01*
X99054153Y-88803046D01*
X99060000Y-88803972D01*
X99187306Y-88783809D01*
X99302151Y-88725292D01*
X99393292Y-88634151D01*
X99451809Y-88519306D01*
X99471972Y-88392000D01*
X99918028Y-88392000D01*
X99918954Y-88397847D01*
X99937264Y-88513459D01*
X99937265Y-88513464D01*
X99938191Y-88519306D01*
X99940875Y-88524574D01*
X99940877Y-88524579D01*
X99994019Y-88628874D01*
X99996708Y-88634151D01*
X100087849Y-88725292D01*
X100147099Y-88755481D01*
X100197420Y-88781122D01*
X100197421Y-88781122D01*
X100202694Y-88783809D01*
X100208539Y-88784734D01*
X100208540Y-88784735D01*
X100324153Y-88803046D01*
X100330000Y-88803972D01*
X100457306Y-88783809D01*
X100572151Y-88725292D01*
X100663292Y-88634151D01*
X100721809Y-88519306D01*
X100741972Y-88392000D01*
X101188028Y-88392000D01*
X101188954Y-88397847D01*
X101207264Y-88513459D01*
X101207265Y-88513464D01*
X101208191Y-88519306D01*
X101210875Y-88524574D01*
X101210877Y-88524579D01*
X101264019Y-88628874D01*
X101266708Y-88634151D01*
X101357849Y-88725292D01*
X101417099Y-88755481D01*
X101467420Y-88781122D01*
X101467421Y-88781122D01*
X101472694Y-88783809D01*
X101478539Y-88784734D01*
X101478540Y-88784735D01*
X101594153Y-88803046D01*
X101600000Y-88803972D01*
X101727306Y-88783809D01*
X101842151Y-88725292D01*
X101933292Y-88634151D01*
X101991809Y-88519306D01*
X102011972Y-88392000D01*
X127858028Y-88392000D01*
X127858954Y-88397847D01*
X127877264Y-88513459D01*
X127877265Y-88513464D01*
X127878191Y-88519306D01*
X127880875Y-88524574D01*
X127880877Y-88524579D01*
X127934019Y-88628874D01*
X127936708Y-88634151D01*
X128027849Y-88725292D01*
X128087099Y-88755481D01*
X128137420Y-88781122D01*
X128137421Y-88781122D01*
X128142694Y-88783809D01*
X128148539Y-88784734D01*
X128148540Y-88784735D01*
X128264153Y-88803046D01*
X128270000Y-88803972D01*
X128397306Y-88783809D01*
X128512151Y-88725292D01*
X128603292Y-88634151D01*
X128661809Y-88519306D01*
X128681972Y-88392000D01*
X130398028Y-88392000D01*
X130398954Y-88397847D01*
X130417264Y-88513459D01*
X130417265Y-88513464D01*
X130418191Y-88519306D01*
X130420875Y-88524574D01*
X130420877Y-88524579D01*
X130474019Y-88628874D01*
X130476708Y-88634151D01*
X130567849Y-88725292D01*
X130627099Y-88755481D01*
X130677420Y-88781122D01*
X130677421Y-88781122D01*
X130682694Y-88783809D01*
X130688539Y-88784734D01*
X130688540Y-88784735D01*
X130804153Y-88803046D01*
X130810000Y-88803972D01*
X130937306Y-88783809D01*
X131052151Y-88725292D01*
X131143292Y-88634151D01*
X131201809Y-88519306D01*
X131221972Y-88392000D01*
X131668028Y-88392000D01*
X131668954Y-88397847D01*
X131687264Y-88513459D01*
X131687265Y-88513464D01*
X131688191Y-88519306D01*
X131690875Y-88524574D01*
X131690877Y-88524579D01*
X131744019Y-88628874D01*
X131746708Y-88634151D01*
X131837849Y-88725292D01*
X131897099Y-88755481D01*
X131947420Y-88781122D01*
X131947421Y-88781122D01*
X131952694Y-88783809D01*
X131958539Y-88784734D01*
X131958540Y-88784735D01*
X132074153Y-88803046D01*
X132080000Y-88803972D01*
X132207306Y-88783809D01*
X132322151Y-88725292D01*
X132413292Y-88634151D01*
X132471809Y-88519306D01*
X132491972Y-88392000D01*
X132938028Y-88392000D01*
X132938954Y-88397847D01*
X132957264Y-88513459D01*
X132957265Y-88513464D01*
X132958191Y-88519306D01*
X132960875Y-88524574D01*
X132960877Y-88524579D01*
X133014019Y-88628874D01*
X133016708Y-88634151D01*
X133107849Y-88725292D01*
X133167099Y-88755481D01*
X133217420Y-88781122D01*
X133217421Y-88781122D01*
X133222694Y-88783809D01*
X133228539Y-88784734D01*
X133228540Y-88784735D01*
X133344153Y-88803046D01*
X133350000Y-88803972D01*
X133477306Y-88783809D01*
X133592151Y-88725292D01*
X133683292Y-88634151D01*
X133741809Y-88519306D01*
X133761972Y-88392000D01*
X134208028Y-88392000D01*
X134208954Y-88397847D01*
X134227264Y-88513459D01*
X134227265Y-88513464D01*
X134228191Y-88519306D01*
X134230875Y-88524574D01*
X134230877Y-88524579D01*
X134284019Y-88628874D01*
X134286708Y-88634151D01*
X134377849Y-88725292D01*
X134437099Y-88755481D01*
X134487420Y-88781122D01*
X134487421Y-88781122D01*
X134492694Y-88783809D01*
X134498539Y-88784734D01*
X134498540Y-88784735D01*
X134614153Y-88803046D01*
X134620000Y-88803972D01*
X134747306Y-88783809D01*
X134862151Y-88725292D01*
X134953292Y-88634151D01*
X135011809Y-88519306D01*
X135031972Y-88392000D01*
X135478028Y-88392000D01*
X135478954Y-88397847D01*
X135497264Y-88513459D01*
X135497265Y-88513464D01*
X135498191Y-88519306D01*
X135500875Y-88524574D01*
X135500877Y-88524579D01*
X135554019Y-88628874D01*
X135556708Y-88634151D01*
X135647849Y-88725292D01*
X135707099Y-88755481D01*
X135757420Y-88781122D01*
X135757421Y-88781122D01*
X135762694Y-88783809D01*
X135768539Y-88784734D01*
X135768540Y-88784735D01*
X135884153Y-88803046D01*
X135890000Y-88803972D01*
X136017306Y-88783809D01*
X136132151Y-88725292D01*
X136223292Y-88634151D01*
X136281809Y-88519306D01*
X136301972Y-88392000D01*
X136281809Y-88264694D01*
X136223292Y-88149849D01*
X136132151Y-88058708D01*
X136126874Y-88056019D01*
X136022579Y-88002877D01*
X136022574Y-88002875D01*
X136017306Y-88000191D01*
X136011464Y-87999265D01*
X136011459Y-87999264D01*
X135895847Y-87980954D01*
X135890000Y-87980028D01*
X135884153Y-87980954D01*
X135768540Y-87999264D01*
X135768533Y-87999266D01*
X135762694Y-88000191D01*
X135757426Y-88002874D01*
X135757420Y-88002877D01*
X135653125Y-88056019D01*
X135653121Y-88056021D01*
X135647849Y-88058708D01*
X135643662Y-88062894D01*
X135643659Y-88062897D01*
X135560897Y-88145659D01*
X135560894Y-88145662D01*
X135556708Y-88149849D01*
X135554021Y-88155121D01*
X135554019Y-88155125D01*
X135500877Y-88259420D01*
X135500874Y-88259426D01*
X135498191Y-88264694D01*
X135497266Y-88270533D01*
X135497264Y-88270540D01*
X135478954Y-88386153D01*
X135478028Y-88392000D01*
X135031972Y-88392000D01*
X135011809Y-88264694D01*
X134953292Y-88149849D01*
X134862151Y-88058708D01*
X134856874Y-88056019D01*
X134752579Y-88002877D01*
X134752574Y-88002875D01*
X134747306Y-88000191D01*
X134741464Y-87999265D01*
X134741459Y-87999264D01*
X134625847Y-87980954D01*
X134620000Y-87980028D01*
X134614153Y-87980954D01*
X134498540Y-87999264D01*
X134498533Y-87999266D01*
X134492694Y-88000191D01*
X134487426Y-88002874D01*
X134487420Y-88002877D01*
X134383125Y-88056019D01*
X134383121Y-88056021D01*
X134377849Y-88058708D01*
X134373662Y-88062894D01*
X134373659Y-88062897D01*
X134290897Y-88145659D01*
X134290894Y-88145662D01*
X134286708Y-88149849D01*
X134284021Y-88155121D01*
X134284019Y-88155125D01*
X134230877Y-88259420D01*
X134230874Y-88259426D01*
X134228191Y-88264694D01*
X134227266Y-88270533D01*
X134227264Y-88270540D01*
X134208954Y-88386153D01*
X134208028Y-88392000D01*
X133761972Y-88392000D01*
X133741809Y-88264694D01*
X133683292Y-88149849D01*
X133592151Y-88058708D01*
X133586874Y-88056019D01*
X133482579Y-88002877D01*
X133482574Y-88002875D01*
X133477306Y-88000191D01*
X133471464Y-87999265D01*
X133471459Y-87999264D01*
X133355847Y-87980954D01*
X133350000Y-87980028D01*
X133344153Y-87980954D01*
X133228540Y-87999264D01*
X133228533Y-87999266D01*
X133222694Y-88000191D01*
X133217426Y-88002874D01*
X133217420Y-88002877D01*
X133113125Y-88056019D01*
X133113121Y-88056021D01*
X133107849Y-88058708D01*
X133103662Y-88062894D01*
X133103659Y-88062897D01*
X133020897Y-88145659D01*
X133020894Y-88145662D01*
X133016708Y-88149849D01*
X133014021Y-88155121D01*
X133014019Y-88155125D01*
X132960877Y-88259420D01*
X132960874Y-88259426D01*
X132958191Y-88264694D01*
X132957266Y-88270533D01*
X132957264Y-88270540D01*
X132938954Y-88386153D01*
X132938028Y-88392000D01*
X132491972Y-88392000D01*
X132471809Y-88264694D01*
X132413292Y-88149849D01*
X132322151Y-88058708D01*
X132316874Y-88056019D01*
X132212579Y-88002877D01*
X132212574Y-88002875D01*
X132207306Y-88000191D01*
X132201464Y-87999265D01*
X132201459Y-87999264D01*
X132085847Y-87980954D01*
X132080000Y-87980028D01*
X132074153Y-87980954D01*
X131958540Y-87999264D01*
X131958533Y-87999266D01*
X131952694Y-88000191D01*
X131947426Y-88002874D01*
X131947420Y-88002877D01*
X131843125Y-88056019D01*
X131843121Y-88056021D01*
X131837849Y-88058708D01*
X131833662Y-88062894D01*
X131833659Y-88062897D01*
X131750897Y-88145659D01*
X131750894Y-88145662D01*
X131746708Y-88149849D01*
X131744021Y-88155121D01*
X131744019Y-88155125D01*
X131690877Y-88259420D01*
X131690874Y-88259426D01*
X131688191Y-88264694D01*
X131687266Y-88270533D01*
X131687264Y-88270540D01*
X131668954Y-88386153D01*
X131668028Y-88392000D01*
X131221972Y-88392000D01*
X131201809Y-88264694D01*
X131143292Y-88149849D01*
X131052151Y-88058708D01*
X131046874Y-88056019D01*
X130942579Y-88002877D01*
X130942574Y-88002875D01*
X130937306Y-88000191D01*
X130931464Y-87999265D01*
X130931459Y-87999264D01*
X130815847Y-87980954D01*
X130810000Y-87980028D01*
X130804153Y-87980954D01*
X130688540Y-87999264D01*
X130688533Y-87999266D01*
X130682694Y-88000191D01*
X130677426Y-88002874D01*
X130677420Y-88002877D01*
X130573125Y-88056019D01*
X130573121Y-88056021D01*
X130567849Y-88058708D01*
X130563662Y-88062894D01*
X130563659Y-88062897D01*
X130480897Y-88145659D01*
X130480894Y-88145662D01*
X130476708Y-88149849D01*
X130474021Y-88155121D01*
X130474019Y-88155125D01*
X130420877Y-88259420D01*
X130420874Y-88259426D01*
X130418191Y-88264694D01*
X130417266Y-88270533D01*
X130417264Y-88270540D01*
X130398954Y-88386153D01*
X130398028Y-88392000D01*
X128681972Y-88392000D01*
X128661809Y-88264694D01*
X128603292Y-88149849D01*
X128512151Y-88058708D01*
X128506874Y-88056019D01*
X128402579Y-88002877D01*
X128402574Y-88002875D01*
X128397306Y-88000191D01*
X128391464Y-87999265D01*
X128391459Y-87999264D01*
X128275847Y-87980954D01*
X128270000Y-87980028D01*
X128264153Y-87980954D01*
X128148540Y-87999264D01*
X128148533Y-87999266D01*
X128142694Y-88000191D01*
X128137426Y-88002874D01*
X128137420Y-88002877D01*
X128033125Y-88056019D01*
X128033121Y-88056021D01*
X128027849Y-88058708D01*
X128023662Y-88062894D01*
X128023659Y-88062897D01*
X127940897Y-88145659D01*
X127940894Y-88145662D01*
X127936708Y-88149849D01*
X127934021Y-88155121D01*
X127934019Y-88155125D01*
X127880877Y-88259420D01*
X127880874Y-88259426D01*
X127878191Y-88264694D01*
X127877266Y-88270533D01*
X127877264Y-88270540D01*
X127858954Y-88386153D01*
X127858028Y-88392000D01*
X102011972Y-88392000D01*
X101991809Y-88264694D01*
X101933292Y-88149849D01*
X101842151Y-88058708D01*
X101836874Y-88056019D01*
X101732579Y-88002877D01*
X101732574Y-88002875D01*
X101727306Y-88000191D01*
X101721464Y-87999265D01*
X101721459Y-87999264D01*
X101605847Y-87980954D01*
X101600000Y-87980028D01*
X101594153Y-87980954D01*
X101478540Y-87999264D01*
X101478533Y-87999266D01*
X101472694Y-88000191D01*
X101467426Y-88002874D01*
X101467420Y-88002877D01*
X101363125Y-88056019D01*
X101363121Y-88056021D01*
X101357849Y-88058708D01*
X101353662Y-88062894D01*
X101353659Y-88062897D01*
X101270897Y-88145659D01*
X101270894Y-88145662D01*
X101266708Y-88149849D01*
X101264021Y-88155121D01*
X101264019Y-88155125D01*
X101210877Y-88259420D01*
X101210874Y-88259426D01*
X101208191Y-88264694D01*
X101207266Y-88270533D01*
X101207264Y-88270540D01*
X101188954Y-88386153D01*
X101188028Y-88392000D01*
X100741972Y-88392000D01*
X100721809Y-88264694D01*
X100663292Y-88149849D01*
X100572151Y-88058708D01*
X100566874Y-88056019D01*
X100462579Y-88002877D01*
X100462574Y-88002875D01*
X100457306Y-88000191D01*
X100451464Y-87999265D01*
X100451459Y-87999264D01*
X100335847Y-87980954D01*
X100330000Y-87980028D01*
X100324153Y-87980954D01*
X100208540Y-87999264D01*
X100208533Y-87999266D01*
X100202694Y-88000191D01*
X100197426Y-88002874D01*
X100197420Y-88002877D01*
X100093125Y-88056019D01*
X100093121Y-88056021D01*
X100087849Y-88058708D01*
X100083662Y-88062894D01*
X100083659Y-88062897D01*
X100000897Y-88145659D01*
X100000894Y-88145662D01*
X99996708Y-88149849D01*
X99994021Y-88155121D01*
X99994019Y-88155125D01*
X99940877Y-88259420D01*
X99940874Y-88259426D01*
X99938191Y-88264694D01*
X99937266Y-88270533D01*
X99937264Y-88270540D01*
X99918954Y-88386153D01*
X99918028Y-88392000D01*
X99471972Y-88392000D01*
X99451809Y-88264694D01*
X99393292Y-88149849D01*
X99302151Y-88058708D01*
X99296874Y-88056019D01*
X99192579Y-88002877D01*
X99192574Y-88002875D01*
X99187306Y-88000191D01*
X99181464Y-87999265D01*
X99181459Y-87999264D01*
X99065847Y-87980954D01*
X99060000Y-87980028D01*
X99054153Y-87980954D01*
X98938540Y-87999264D01*
X98938533Y-87999266D01*
X98932694Y-88000191D01*
X98927426Y-88002874D01*
X98927420Y-88002877D01*
X98823125Y-88056019D01*
X98823121Y-88056021D01*
X98817849Y-88058708D01*
X98813662Y-88062894D01*
X98813659Y-88062897D01*
X98730897Y-88145659D01*
X98730894Y-88145662D01*
X98726708Y-88149849D01*
X98724021Y-88155121D01*
X98724019Y-88155125D01*
X98670877Y-88259420D01*
X98670874Y-88259426D01*
X98668191Y-88264694D01*
X98667266Y-88270533D01*
X98667264Y-88270540D01*
X98648954Y-88386153D01*
X98648028Y-88392000D01*
X98201972Y-88392000D01*
X98181809Y-88264694D01*
X98123292Y-88149849D01*
X98032151Y-88058708D01*
X98026874Y-88056019D01*
X97922579Y-88002877D01*
X97922574Y-88002875D01*
X97917306Y-88000191D01*
X97911464Y-87999265D01*
X97911459Y-87999264D01*
X97795847Y-87980954D01*
X97790000Y-87980028D01*
X97784153Y-87980954D01*
X97668540Y-87999264D01*
X97668533Y-87999266D01*
X97662694Y-88000191D01*
X97657426Y-88002874D01*
X97657420Y-88002877D01*
X97553125Y-88056019D01*
X97553121Y-88056021D01*
X97547849Y-88058708D01*
X97543662Y-88062894D01*
X97543659Y-88062897D01*
X97460897Y-88145659D01*
X97460894Y-88145662D01*
X97456708Y-88149849D01*
X97454021Y-88155121D01*
X97454019Y-88155125D01*
X97400877Y-88259420D01*
X97400874Y-88259426D01*
X97398191Y-88264694D01*
X97397266Y-88270533D01*
X97397264Y-88270540D01*
X97378954Y-88386153D01*
X97378028Y-88392000D01*
X96931972Y-88392000D01*
X96911809Y-88264694D01*
X96853292Y-88149849D01*
X96762151Y-88058708D01*
X96756874Y-88056019D01*
X96652579Y-88002877D01*
X96652574Y-88002875D01*
X96647306Y-88000191D01*
X96641464Y-87999265D01*
X96641459Y-87999264D01*
X96525847Y-87980954D01*
X96520000Y-87980028D01*
X96514153Y-87980954D01*
X96398540Y-87999264D01*
X96398533Y-87999266D01*
X96392694Y-88000191D01*
X96387426Y-88002874D01*
X96387420Y-88002877D01*
X96283125Y-88056019D01*
X96283121Y-88056021D01*
X96277849Y-88058708D01*
X96273662Y-88062894D01*
X96273659Y-88062897D01*
X96190897Y-88145659D01*
X96190894Y-88145662D01*
X96186708Y-88149849D01*
X96184021Y-88155121D01*
X96184019Y-88155125D01*
X96130877Y-88259420D01*
X96130874Y-88259426D01*
X96128191Y-88264694D01*
X96127266Y-88270533D01*
X96127264Y-88270540D01*
X96108954Y-88386153D01*
X96108028Y-88392000D01*
X94391972Y-88392000D01*
X94371809Y-88264694D01*
X94313292Y-88149849D01*
X94222151Y-88058708D01*
X94216874Y-88056019D01*
X94112579Y-88002877D01*
X94112574Y-88002875D01*
X94107306Y-88000191D01*
X94101464Y-87999265D01*
X94101459Y-87999264D01*
X93985847Y-87980954D01*
X93980000Y-87980028D01*
X93974153Y-87980954D01*
X93858540Y-87999264D01*
X93858533Y-87999266D01*
X93852694Y-88000191D01*
X93847426Y-88002874D01*
X93847420Y-88002877D01*
X93743125Y-88056019D01*
X93743121Y-88056021D01*
X93737849Y-88058708D01*
X93733662Y-88062894D01*
X93733659Y-88062897D01*
X93650897Y-88145659D01*
X93650894Y-88145662D01*
X93646708Y-88149849D01*
X93644021Y-88155121D01*
X93644019Y-88155125D01*
X93590877Y-88259420D01*
X93590874Y-88259426D01*
X93588191Y-88264694D01*
X93587266Y-88270533D01*
X93587264Y-88270540D01*
X93568954Y-88386153D01*
X93568028Y-88392000D01*
X91851972Y-88392000D01*
X91831809Y-88264694D01*
X91773292Y-88149849D01*
X91682151Y-88058708D01*
X91676874Y-88056019D01*
X91572579Y-88002877D01*
X91572574Y-88002875D01*
X91567306Y-88000191D01*
X91561464Y-87999265D01*
X91561459Y-87999264D01*
X91445847Y-87980954D01*
X91440000Y-87980028D01*
X91434153Y-87980954D01*
X91318540Y-87999264D01*
X91318533Y-87999266D01*
X91312694Y-88000191D01*
X91307426Y-88002874D01*
X91307420Y-88002877D01*
X91203125Y-88056019D01*
X91203121Y-88056021D01*
X91197849Y-88058708D01*
X91193662Y-88062894D01*
X91193659Y-88062897D01*
X91110897Y-88145659D01*
X91110894Y-88145662D01*
X91106708Y-88149849D01*
X91104021Y-88155121D01*
X91104019Y-88155125D01*
X91050877Y-88259420D01*
X91050874Y-88259426D01*
X91048191Y-88264694D01*
X91047266Y-88270533D01*
X91047264Y-88270540D01*
X91028954Y-88386153D01*
X91028028Y-88392000D01*
X76450500Y-88392000D01*
X76450500Y-86995000D01*
X76677028Y-86995000D01*
X76677954Y-87000847D01*
X76696264Y-87116459D01*
X76696265Y-87116464D01*
X76697191Y-87122306D01*
X76699875Y-87127574D01*
X76699877Y-87127579D01*
X76738919Y-87204201D01*
X76755708Y-87237151D01*
X76846849Y-87328292D01*
X76879010Y-87344679D01*
X76956420Y-87384122D01*
X76956421Y-87384122D01*
X76961694Y-87386809D01*
X76967539Y-87387734D01*
X76967540Y-87387735D01*
X77083153Y-87406046D01*
X77089000Y-87406972D01*
X77216306Y-87386809D01*
X77288547Y-87350000D01*
X153042443Y-87350000D01*
X153060977Y-87478909D01*
X153115079Y-87597374D01*
X153118598Y-87601435D01*
X153196842Y-87691735D01*
X153196844Y-87691736D01*
X153200364Y-87695799D01*
X153309924Y-87766208D01*
X153434883Y-87802900D01*
X153559737Y-87802900D01*
X153565117Y-87802900D01*
X153690076Y-87766208D01*
X153799636Y-87695799D01*
X153884921Y-87597374D01*
X153906556Y-87550000D01*
X155442443Y-87550000D01*
X155460977Y-87678909D01*
X155515079Y-87797374D01*
X155518598Y-87801435D01*
X155596842Y-87891735D01*
X155596844Y-87891736D01*
X155600364Y-87895799D01*
X155709924Y-87966208D01*
X155834883Y-88002900D01*
X155959737Y-88002900D01*
X155965117Y-88002900D01*
X156090076Y-87966208D01*
X156199636Y-87895799D01*
X156284921Y-87797374D01*
X156339023Y-87678909D01*
X156357557Y-87550000D01*
X156339023Y-87421091D01*
X156284921Y-87302626D01*
X156199636Y-87204201D01*
X156195113Y-87201294D01*
X156094600Y-87136699D01*
X156094598Y-87136698D01*
X156090076Y-87133792D01*
X156084915Y-87132276D01*
X156084914Y-87132276D01*
X155970278Y-87098615D01*
X155970275Y-87098614D01*
X155965117Y-87097100D01*
X155834883Y-87097100D01*
X155829725Y-87098614D01*
X155829721Y-87098615D01*
X155715085Y-87132276D01*
X155715081Y-87132277D01*
X155709924Y-87133792D01*
X155705404Y-87136696D01*
X155705399Y-87136699D01*
X155604886Y-87201294D01*
X155604881Y-87201297D01*
X155600364Y-87204201D01*
X155596847Y-87208259D01*
X155596842Y-87208264D01*
X155518598Y-87298564D01*
X155518595Y-87298567D01*
X155515079Y-87302626D01*
X155512846Y-87307513D01*
X155512846Y-87307515D01*
X155477860Y-87384122D01*
X155460977Y-87421091D01*
X155442443Y-87550000D01*
X153906556Y-87550000D01*
X153939023Y-87478909D01*
X153957557Y-87350000D01*
X153939023Y-87221091D01*
X153884921Y-87102626D01*
X153799636Y-87004201D01*
X153776221Y-86989153D01*
X153694600Y-86936699D01*
X153694598Y-86936698D01*
X153690076Y-86933792D01*
X153684915Y-86932276D01*
X153684914Y-86932276D01*
X153570278Y-86898615D01*
X153570275Y-86898614D01*
X153565117Y-86897100D01*
X153434883Y-86897100D01*
X153429725Y-86898614D01*
X153429721Y-86898615D01*
X153315085Y-86932276D01*
X153315081Y-86932277D01*
X153309924Y-86933792D01*
X153305404Y-86936696D01*
X153305399Y-86936699D01*
X153204886Y-87001294D01*
X153204881Y-87001297D01*
X153200364Y-87004201D01*
X153196847Y-87008259D01*
X153196842Y-87008264D01*
X153118598Y-87098564D01*
X153118595Y-87098567D01*
X153115079Y-87102626D01*
X153112846Y-87107513D01*
X153112846Y-87107515D01*
X153066835Y-87208264D01*
X153060977Y-87221091D01*
X153060212Y-87226408D01*
X153060212Y-87226410D01*
X153045564Y-87328292D01*
X153042443Y-87350000D01*
X77288547Y-87350000D01*
X77331151Y-87328292D01*
X77422292Y-87237151D01*
X77480809Y-87122306D01*
X77500972Y-86995000D01*
X77480809Y-86867694D01*
X77422292Y-86752849D01*
X77331151Y-86661708D01*
X77325874Y-86659019D01*
X77221579Y-86605877D01*
X77221574Y-86605875D01*
X77216306Y-86603191D01*
X77210464Y-86602265D01*
X77210459Y-86602264D01*
X77094847Y-86583954D01*
X77089000Y-86583028D01*
X77083153Y-86583954D01*
X76967540Y-86602264D01*
X76967533Y-86602266D01*
X76961694Y-86603191D01*
X76956426Y-86605874D01*
X76956420Y-86605877D01*
X76852125Y-86659019D01*
X76852121Y-86659021D01*
X76846849Y-86661708D01*
X76842662Y-86665894D01*
X76842659Y-86665897D01*
X76759897Y-86748659D01*
X76759894Y-86748662D01*
X76755708Y-86752849D01*
X76753021Y-86758121D01*
X76753019Y-86758125D01*
X76699877Y-86862420D01*
X76699874Y-86862426D01*
X76697191Y-86867694D01*
X76696266Y-86873533D01*
X76696264Y-86873540D01*
X76679546Y-86979102D01*
X76677028Y-86995000D01*
X76450500Y-86995000D01*
X76450500Y-86500000D01*
X84038028Y-86500000D01*
X84038954Y-86505847D01*
X84057264Y-86621459D01*
X84057265Y-86621464D01*
X84058191Y-86627306D01*
X84060875Y-86632574D01*
X84060877Y-86632579D01*
X84077854Y-86665897D01*
X84116708Y-86742151D01*
X84207849Y-86833292D01*
X84265015Y-86862420D01*
X84317420Y-86889122D01*
X84317421Y-86889122D01*
X84322694Y-86891809D01*
X84328539Y-86892734D01*
X84328540Y-86892735D01*
X84444153Y-86911046D01*
X84450000Y-86911972D01*
X84577306Y-86891809D01*
X84692151Y-86833292D01*
X84783292Y-86742151D01*
X84830246Y-86650000D01*
X154288028Y-86650000D01*
X154288954Y-86655847D01*
X154307264Y-86771459D01*
X154307265Y-86771464D01*
X154308191Y-86777306D01*
X154310875Y-86782574D01*
X154310877Y-86782579D01*
X154338087Y-86835980D01*
X154366708Y-86892151D01*
X154457849Y-86983292D01*
X154493180Y-87001294D01*
X154567420Y-87039122D01*
X154567421Y-87039122D01*
X154572694Y-87041809D01*
X154578539Y-87042734D01*
X154578540Y-87042735D01*
X154694153Y-87061046D01*
X154700000Y-87061972D01*
X154827306Y-87041809D01*
X154942151Y-86983292D01*
X155033292Y-86892151D01*
X155091809Y-86777306D01*
X155111972Y-86650000D01*
X156138028Y-86650000D01*
X156138954Y-86655847D01*
X156157264Y-86771459D01*
X156157265Y-86771464D01*
X156158191Y-86777306D01*
X156160875Y-86782574D01*
X156160877Y-86782579D01*
X156188087Y-86835980D01*
X156216708Y-86892151D01*
X156307849Y-86983292D01*
X156343180Y-87001294D01*
X156417420Y-87039122D01*
X156417421Y-87039122D01*
X156422694Y-87041809D01*
X156428539Y-87042734D01*
X156428540Y-87042735D01*
X156544153Y-87061046D01*
X156550000Y-87061972D01*
X156677306Y-87041809D01*
X156769173Y-86995000D01*
X163799028Y-86995000D01*
X163799954Y-87000847D01*
X163818264Y-87116459D01*
X163818265Y-87116464D01*
X163819191Y-87122306D01*
X163821875Y-87127574D01*
X163821877Y-87127579D01*
X163860919Y-87204201D01*
X163877708Y-87237151D01*
X163968849Y-87328292D01*
X164001010Y-87344679D01*
X164078420Y-87384122D01*
X164078421Y-87384122D01*
X164083694Y-87386809D01*
X164089539Y-87387734D01*
X164089540Y-87387735D01*
X164205153Y-87406046D01*
X164211000Y-87406972D01*
X164338306Y-87386809D01*
X164453151Y-87328292D01*
X164544292Y-87237151D01*
X164602809Y-87122306D01*
X164622972Y-86995000D01*
X164602809Y-86867694D01*
X164544292Y-86752849D01*
X164453151Y-86661708D01*
X164447874Y-86659019D01*
X164343579Y-86605877D01*
X164343574Y-86605875D01*
X164338306Y-86603191D01*
X164332464Y-86602265D01*
X164332459Y-86602264D01*
X164216847Y-86583954D01*
X164211000Y-86583028D01*
X164205153Y-86583954D01*
X164089540Y-86602264D01*
X164089533Y-86602266D01*
X164083694Y-86603191D01*
X164078426Y-86605874D01*
X164078420Y-86605877D01*
X163974125Y-86659019D01*
X163974121Y-86659021D01*
X163968849Y-86661708D01*
X163964662Y-86665894D01*
X163964659Y-86665897D01*
X163881897Y-86748659D01*
X163881894Y-86748662D01*
X163877708Y-86752849D01*
X163875021Y-86758121D01*
X163875019Y-86758125D01*
X163821877Y-86862420D01*
X163821874Y-86862426D01*
X163819191Y-86867694D01*
X163818266Y-86873533D01*
X163818264Y-86873540D01*
X163801546Y-86979102D01*
X163799028Y-86995000D01*
X156769173Y-86995000D01*
X156792151Y-86983292D01*
X156883292Y-86892151D01*
X156941809Y-86777306D01*
X156961972Y-86650000D01*
X156954558Y-86603191D01*
X156942735Y-86528540D01*
X156942734Y-86528539D01*
X156941809Y-86522694D01*
X156927266Y-86494153D01*
X156885980Y-86413125D01*
X156883292Y-86407849D01*
X156792151Y-86316708D01*
X156786874Y-86314019D01*
X156682579Y-86260877D01*
X156682574Y-86260875D01*
X156677306Y-86258191D01*
X156671464Y-86257265D01*
X156671459Y-86257264D01*
X156555847Y-86238954D01*
X156550000Y-86238028D01*
X156544153Y-86238954D01*
X156428540Y-86257264D01*
X156428533Y-86257266D01*
X156422694Y-86258191D01*
X156417426Y-86260874D01*
X156417420Y-86260877D01*
X156313125Y-86314019D01*
X156313121Y-86314021D01*
X156307849Y-86316708D01*
X156303662Y-86320894D01*
X156303659Y-86320897D01*
X156220897Y-86403659D01*
X156220894Y-86403662D01*
X156216708Y-86407849D01*
X156214021Y-86413121D01*
X156214019Y-86413125D01*
X156160877Y-86517420D01*
X156160874Y-86517426D01*
X156158191Y-86522694D01*
X156157266Y-86528533D01*
X156157264Y-86528540D01*
X156145016Y-86605877D01*
X156138028Y-86650000D01*
X155111972Y-86650000D01*
X155104558Y-86603191D01*
X155092735Y-86528540D01*
X155092734Y-86528539D01*
X155091809Y-86522694D01*
X155077266Y-86494153D01*
X155035980Y-86413125D01*
X155033292Y-86407849D01*
X154942151Y-86316708D01*
X154936874Y-86314019D01*
X154832579Y-86260877D01*
X154832574Y-86260875D01*
X154827306Y-86258191D01*
X154821464Y-86257265D01*
X154821459Y-86257264D01*
X154705847Y-86238954D01*
X154700000Y-86238028D01*
X154694153Y-86238954D01*
X154578540Y-86257264D01*
X154578533Y-86257266D01*
X154572694Y-86258191D01*
X154567426Y-86260874D01*
X154567420Y-86260877D01*
X154463125Y-86314019D01*
X154463121Y-86314021D01*
X154457849Y-86316708D01*
X154453662Y-86320894D01*
X154453659Y-86320897D01*
X154370897Y-86403659D01*
X154370894Y-86403662D01*
X154366708Y-86407849D01*
X154364021Y-86413121D01*
X154364019Y-86413125D01*
X154310877Y-86517420D01*
X154310874Y-86517426D01*
X154308191Y-86522694D01*
X154307266Y-86528533D01*
X154307264Y-86528540D01*
X154295016Y-86605877D01*
X154288028Y-86650000D01*
X84830246Y-86650000D01*
X84841809Y-86627306D01*
X84861972Y-86500000D01*
X84841809Y-86372694D01*
X84783292Y-86257849D01*
X84692151Y-86166708D01*
X84686874Y-86164019D01*
X84582579Y-86110877D01*
X84582574Y-86110875D01*
X84577306Y-86108191D01*
X84571464Y-86107265D01*
X84571459Y-86107264D01*
X84455847Y-86088954D01*
X84450000Y-86088028D01*
X84444153Y-86088954D01*
X84328540Y-86107264D01*
X84328533Y-86107266D01*
X84322694Y-86108191D01*
X84317426Y-86110874D01*
X84317420Y-86110877D01*
X84213125Y-86164019D01*
X84213121Y-86164021D01*
X84207849Y-86166708D01*
X84203662Y-86170894D01*
X84203659Y-86170897D01*
X84120897Y-86253659D01*
X84120894Y-86253662D01*
X84116708Y-86257849D01*
X84114021Y-86263121D01*
X84114019Y-86263125D01*
X84060877Y-86367420D01*
X84060874Y-86367426D01*
X84058191Y-86372694D01*
X84057266Y-86378533D01*
X84057264Y-86378540D01*
X84051787Y-86413125D01*
X84038028Y-86500000D01*
X76450500Y-86500000D01*
X76450500Y-82806952D01*
X76450732Y-82801052D01*
X76452442Y-82779326D01*
X76465715Y-82610672D01*
X76467558Y-82599034D01*
X76511449Y-82416217D01*
X76515093Y-82405003D01*
X76557932Y-82301579D01*
X76587040Y-82231304D01*
X76592395Y-82220797D01*
X76624136Y-82169000D01*
X81757028Y-82169000D01*
X81757954Y-82174847D01*
X81776264Y-82290459D01*
X81776265Y-82290464D01*
X81777191Y-82296306D01*
X81779875Y-82301574D01*
X81779877Y-82301579D01*
X81832575Y-82405003D01*
X81835708Y-82411151D01*
X81926849Y-82502292D01*
X81986099Y-82532481D01*
X82036420Y-82558122D01*
X82036421Y-82558122D01*
X82041694Y-82560809D01*
X82047539Y-82561734D01*
X82047540Y-82561735D01*
X82163153Y-82580046D01*
X82169000Y-82580972D01*
X82296306Y-82560809D01*
X82411151Y-82502292D01*
X82502292Y-82411151D01*
X82560809Y-82296306D01*
X82580972Y-82169000D01*
X91917028Y-82169000D01*
X91917954Y-82174847D01*
X91936264Y-82290459D01*
X91936265Y-82290464D01*
X91937191Y-82296306D01*
X91939875Y-82301574D01*
X91939877Y-82301579D01*
X91992575Y-82405003D01*
X91995708Y-82411151D01*
X92086849Y-82502292D01*
X92146099Y-82532481D01*
X92196420Y-82558122D01*
X92196421Y-82558122D01*
X92201694Y-82560809D01*
X92207539Y-82561734D01*
X92207540Y-82561735D01*
X92323153Y-82580046D01*
X92329000Y-82580972D01*
X92456306Y-82560809D01*
X92571151Y-82502292D01*
X92662292Y-82411151D01*
X92720809Y-82296306D01*
X92740972Y-82169000D01*
X102077028Y-82169000D01*
X102077954Y-82174847D01*
X102096264Y-82290459D01*
X102096265Y-82290464D01*
X102097191Y-82296306D01*
X102099875Y-82301574D01*
X102099877Y-82301579D01*
X102152575Y-82405003D01*
X102155708Y-82411151D01*
X102246849Y-82502292D01*
X102306099Y-82532481D01*
X102356420Y-82558122D01*
X102356421Y-82558122D01*
X102361694Y-82560809D01*
X102367539Y-82561734D01*
X102367540Y-82561735D01*
X102483153Y-82580046D01*
X102489000Y-82580972D01*
X102616306Y-82560809D01*
X102731151Y-82502292D01*
X102822292Y-82411151D01*
X102880809Y-82296306D01*
X102900972Y-82169000D01*
X112237028Y-82169000D01*
X112237954Y-82174847D01*
X112256264Y-82290459D01*
X112256265Y-82290464D01*
X112257191Y-82296306D01*
X112259875Y-82301574D01*
X112259877Y-82301579D01*
X112312575Y-82405003D01*
X112315708Y-82411151D01*
X112406849Y-82502292D01*
X112466099Y-82532481D01*
X112516420Y-82558122D01*
X112516421Y-82558122D01*
X112521694Y-82560809D01*
X112527539Y-82561734D01*
X112527540Y-82561735D01*
X112643153Y-82580046D01*
X112649000Y-82580972D01*
X112776306Y-82560809D01*
X112891151Y-82502292D01*
X112982292Y-82411151D01*
X113040809Y-82296306D01*
X113060972Y-82169000D01*
X128239028Y-82169000D01*
X128239954Y-82174847D01*
X128258264Y-82290459D01*
X128258265Y-82290464D01*
X128259191Y-82296306D01*
X128261875Y-82301574D01*
X128261877Y-82301579D01*
X128314575Y-82405003D01*
X128317708Y-82411151D01*
X128408849Y-82502292D01*
X128468099Y-82532481D01*
X128518420Y-82558122D01*
X128518421Y-82558122D01*
X128523694Y-82560809D01*
X128529539Y-82561734D01*
X128529540Y-82561735D01*
X128645153Y-82580046D01*
X128651000Y-82580972D01*
X128778306Y-82560809D01*
X128893151Y-82502292D01*
X128984292Y-82411151D01*
X129042809Y-82296306D01*
X129062972Y-82169000D01*
X138399028Y-82169000D01*
X138399954Y-82174847D01*
X138418264Y-82290459D01*
X138418265Y-82290464D01*
X138419191Y-82296306D01*
X138421875Y-82301574D01*
X138421877Y-82301579D01*
X138474575Y-82405003D01*
X138477708Y-82411151D01*
X138568849Y-82502292D01*
X138628099Y-82532481D01*
X138678420Y-82558122D01*
X138678421Y-82558122D01*
X138683694Y-82560809D01*
X138689539Y-82561734D01*
X138689540Y-82561735D01*
X138805153Y-82580046D01*
X138811000Y-82580972D01*
X138938306Y-82560809D01*
X139053151Y-82502292D01*
X139144292Y-82411151D01*
X139202809Y-82296306D01*
X139222972Y-82169000D01*
X148559028Y-82169000D01*
X148559954Y-82174847D01*
X148578264Y-82290459D01*
X148578265Y-82290464D01*
X148579191Y-82296306D01*
X148581875Y-82301574D01*
X148581877Y-82301579D01*
X148634575Y-82405003D01*
X148637708Y-82411151D01*
X148728849Y-82502292D01*
X148788099Y-82532481D01*
X148838420Y-82558122D01*
X148838421Y-82558122D01*
X148843694Y-82560809D01*
X148849539Y-82561734D01*
X148849540Y-82561735D01*
X148965153Y-82580046D01*
X148971000Y-82580972D01*
X149098306Y-82560809D01*
X149213151Y-82502292D01*
X149304292Y-82411151D01*
X149362809Y-82296306D01*
X149382972Y-82169000D01*
X158719028Y-82169000D01*
X158719954Y-82174847D01*
X158738264Y-82290459D01*
X158738265Y-82290464D01*
X158739191Y-82296306D01*
X158741875Y-82301574D01*
X158741877Y-82301579D01*
X158794575Y-82405003D01*
X158797708Y-82411151D01*
X158888849Y-82502292D01*
X158948099Y-82532481D01*
X158998420Y-82558122D01*
X158998421Y-82558122D01*
X159003694Y-82560809D01*
X159009539Y-82561734D01*
X159009540Y-82561735D01*
X159125153Y-82580046D01*
X159131000Y-82580972D01*
X159258306Y-82560809D01*
X159373151Y-82502292D01*
X159464292Y-82411151D01*
X159522809Y-82296306D01*
X159542972Y-82169000D01*
X159525787Y-82060498D01*
X159523735Y-82047540D01*
X159523734Y-82047539D01*
X159522809Y-82041694D01*
X159464292Y-81926849D01*
X159373151Y-81835708D01*
X159367874Y-81833019D01*
X159263579Y-81779877D01*
X159263574Y-81779875D01*
X159258306Y-81777191D01*
X159252464Y-81776265D01*
X159252459Y-81776264D01*
X159136847Y-81757954D01*
X159131000Y-81757028D01*
X159125153Y-81757954D01*
X159009540Y-81776264D01*
X159009533Y-81776266D01*
X159003694Y-81777191D01*
X158998426Y-81779874D01*
X158998420Y-81779877D01*
X158894125Y-81833019D01*
X158894121Y-81833021D01*
X158888849Y-81835708D01*
X158884662Y-81839894D01*
X158884659Y-81839897D01*
X158801897Y-81922659D01*
X158801894Y-81922662D01*
X158797708Y-81926849D01*
X158795021Y-81932121D01*
X158795019Y-81932125D01*
X158741877Y-82036420D01*
X158741874Y-82036426D01*
X158739191Y-82041694D01*
X158738266Y-82047533D01*
X158738264Y-82047540D01*
X158719954Y-82163153D01*
X158719028Y-82169000D01*
X149382972Y-82169000D01*
X149365787Y-82060498D01*
X149363735Y-82047540D01*
X149363734Y-82047539D01*
X149362809Y-82041694D01*
X149304292Y-81926849D01*
X149213151Y-81835708D01*
X149207874Y-81833019D01*
X149103579Y-81779877D01*
X149103574Y-81779875D01*
X149098306Y-81777191D01*
X149092464Y-81776265D01*
X149092459Y-81776264D01*
X148976847Y-81757954D01*
X148971000Y-81757028D01*
X148965153Y-81757954D01*
X148849540Y-81776264D01*
X148849533Y-81776266D01*
X148843694Y-81777191D01*
X148838426Y-81779874D01*
X148838420Y-81779877D01*
X148734125Y-81833019D01*
X148734121Y-81833021D01*
X148728849Y-81835708D01*
X148724662Y-81839894D01*
X148724659Y-81839897D01*
X148641897Y-81922659D01*
X148641894Y-81922662D01*
X148637708Y-81926849D01*
X148635021Y-81932121D01*
X148635019Y-81932125D01*
X148581877Y-82036420D01*
X148581874Y-82036426D01*
X148579191Y-82041694D01*
X148578266Y-82047533D01*
X148578264Y-82047540D01*
X148559954Y-82163153D01*
X148559028Y-82169000D01*
X139222972Y-82169000D01*
X139205787Y-82060498D01*
X139203735Y-82047540D01*
X139203734Y-82047539D01*
X139202809Y-82041694D01*
X139144292Y-81926849D01*
X139053151Y-81835708D01*
X139047874Y-81833019D01*
X138943579Y-81779877D01*
X138943574Y-81779875D01*
X138938306Y-81777191D01*
X138932464Y-81776265D01*
X138932459Y-81776264D01*
X138816847Y-81757954D01*
X138811000Y-81757028D01*
X138805153Y-81757954D01*
X138689540Y-81776264D01*
X138689533Y-81776266D01*
X138683694Y-81777191D01*
X138678426Y-81779874D01*
X138678420Y-81779877D01*
X138574125Y-81833019D01*
X138574121Y-81833021D01*
X138568849Y-81835708D01*
X138564662Y-81839894D01*
X138564659Y-81839897D01*
X138481897Y-81922659D01*
X138481894Y-81922662D01*
X138477708Y-81926849D01*
X138475021Y-81932121D01*
X138475019Y-81932125D01*
X138421877Y-82036420D01*
X138421874Y-82036426D01*
X138419191Y-82041694D01*
X138418266Y-82047533D01*
X138418264Y-82047540D01*
X138399954Y-82163153D01*
X138399028Y-82169000D01*
X129062972Y-82169000D01*
X129045787Y-82060498D01*
X129043735Y-82047540D01*
X129043734Y-82047539D01*
X129042809Y-82041694D01*
X128984292Y-81926849D01*
X128893151Y-81835708D01*
X128887874Y-81833019D01*
X128783579Y-81779877D01*
X128783574Y-81779875D01*
X128778306Y-81777191D01*
X128772464Y-81776265D01*
X128772459Y-81776264D01*
X128656847Y-81757954D01*
X128651000Y-81757028D01*
X128645153Y-81757954D01*
X128529540Y-81776264D01*
X128529533Y-81776266D01*
X128523694Y-81777191D01*
X128518426Y-81779874D01*
X128518420Y-81779877D01*
X128414125Y-81833019D01*
X128414121Y-81833021D01*
X128408849Y-81835708D01*
X128404662Y-81839894D01*
X128404659Y-81839897D01*
X128321897Y-81922659D01*
X128321894Y-81922662D01*
X128317708Y-81926849D01*
X128315021Y-81932121D01*
X128315019Y-81932125D01*
X128261877Y-82036420D01*
X128261874Y-82036426D01*
X128259191Y-82041694D01*
X128258266Y-82047533D01*
X128258264Y-82047540D01*
X128239954Y-82163153D01*
X128239028Y-82169000D01*
X113060972Y-82169000D01*
X113043787Y-82060498D01*
X113041735Y-82047540D01*
X113041734Y-82047539D01*
X113040809Y-82041694D01*
X112982292Y-81926849D01*
X112891151Y-81835708D01*
X112885874Y-81833019D01*
X112781579Y-81779877D01*
X112781574Y-81779875D01*
X112776306Y-81777191D01*
X112770464Y-81776265D01*
X112770459Y-81776264D01*
X112654847Y-81757954D01*
X112649000Y-81757028D01*
X112643153Y-81757954D01*
X112527540Y-81776264D01*
X112527533Y-81776266D01*
X112521694Y-81777191D01*
X112516426Y-81779874D01*
X112516420Y-81779877D01*
X112412125Y-81833019D01*
X112412121Y-81833021D01*
X112406849Y-81835708D01*
X112402662Y-81839894D01*
X112402659Y-81839897D01*
X112319897Y-81922659D01*
X112319894Y-81922662D01*
X112315708Y-81926849D01*
X112313021Y-81932121D01*
X112313019Y-81932125D01*
X112259877Y-82036420D01*
X112259874Y-82036426D01*
X112257191Y-82041694D01*
X112256266Y-82047533D01*
X112256264Y-82047540D01*
X112237954Y-82163153D01*
X112237028Y-82169000D01*
X102900972Y-82169000D01*
X102883787Y-82060498D01*
X102881735Y-82047540D01*
X102881734Y-82047539D01*
X102880809Y-82041694D01*
X102822292Y-81926849D01*
X102731151Y-81835708D01*
X102725874Y-81833019D01*
X102621579Y-81779877D01*
X102621574Y-81779875D01*
X102616306Y-81777191D01*
X102610464Y-81776265D01*
X102610459Y-81776264D01*
X102494847Y-81757954D01*
X102489000Y-81757028D01*
X102483153Y-81757954D01*
X102367540Y-81776264D01*
X102367533Y-81776266D01*
X102361694Y-81777191D01*
X102356426Y-81779874D01*
X102356420Y-81779877D01*
X102252125Y-81833019D01*
X102252121Y-81833021D01*
X102246849Y-81835708D01*
X102242662Y-81839894D01*
X102242659Y-81839897D01*
X102159897Y-81922659D01*
X102159894Y-81922662D01*
X102155708Y-81926849D01*
X102153021Y-81932121D01*
X102153019Y-81932125D01*
X102099877Y-82036420D01*
X102099874Y-82036426D01*
X102097191Y-82041694D01*
X102096266Y-82047533D01*
X102096264Y-82047540D01*
X102077954Y-82163153D01*
X102077028Y-82169000D01*
X92740972Y-82169000D01*
X92723787Y-82060498D01*
X92721735Y-82047540D01*
X92721734Y-82047539D01*
X92720809Y-82041694D01*
X92662292Y-81926849D01*
X92571151Y-81835708D01*
X92565874Y-81833019D01*
X92461579Y-81779877D01*
X92461574Y-81779875D01*
X92456306Y-81777191D01*
X92450464Y-81776265D01*
X92450459Y-81776264D01*
X92334847Y-81757954D01*
X92329000Y-81757028D01*
X92323153Y-81757954D01*
X92207540Y-81776264D01*
X92207533Y-81776266D01*
X92201694Y-81777191D01*
X92196426Y-81779874D01*
X92196420Y-81779877D01*
X92092125Y-81833019D01*
X92092121Y-81833021D01*
X92086849Y-81835708D01*
X92082662Y-81839894D01*
X92082659Y-81839897D01*
X91999897Y-81922659D01*
X91999894Y-81922662D01*
X91995708Y-81926849D01*
X91993021Y-81932121D01*
X91993019Y-81932125D01*
X91939877Y-82036420D01*
X91939874Y-82036426D01*
X91937191Y-82041694D01*
X91936266Y-82047533D01*
X91936264Y-82047540D01*
X91917954Y-82163153D01*
X91917028Y-82169000D01*
X82580972Y-82169000D01*
X82563787Y-82060498D01*
X82561735Y-82047540D01*
X82561734Y-82047539D01*
X82560809Y-82041694D01*
X82502292Y-81926849D01*
X82411151Y-81835708D01*
X82405874Y-81833019D01*
X82301579Y-81779877D01*
X82301574Y-81779875D01*
X82296306Y-81777191D01*
X82290464Y-81776265D01*
X82290459Y-81776264D01*
X82174847Y-81757954D01*
X82169000Y-81757028D01*
X82163153Y-81757954D01*
X82047540Y-81776264D01*
X82047533Y-81776266D01*
X82041694Y-81777191D01*
X82036426Y-81779874D01*
X82036420Y-81779877D01*
X81932125Y-81833019D01*
X81932121Y-81833021D01*
X81926849Y-81835708D01*
X81922662Y-81839894D01*
X81922659Y-81839897D01*
X81839897Y-81922659D01*
X81839894Y-81922662D01*
X81835708Y-81926849D01*
X81833021Y-81932121D01*
X81833019Y-81932125D01*
X81779877Y-82036420D01*
X81779874Y-82036426D01*
X81777191Y-82041694D01*
X81776266Y-82047533D01*
X81776264Y-82047540D01*
X81757954Y-82163153D01*
X81757028Y-82169000D01*
X76624136Y-82169000D01*
X76690627Y-82060498D01*
X76697558Y-82050957D01*
X76819665Y-81907989D01*
X76827989Y-81899665D01*
X76970957Y-81777558D01*
X76980498Y-81770627D01*
X77140797Y-81672395D01*
X77151304Y-81667040D01*
X77325005Y-81595092D01*
X77336217Y-81591449D01*
X77519034Y-81547558D01*
X77530672Y-81545715D01*
X77721052Y-81530731D01*
X77726952Y-81530500D01*
X77768170Y-81530500D01*
X163531830Y-81530500D01*
X163573048Y-81530500D01*
X163578947Y-81530731D01*
G37*
G04 #@! TD.AperFunction*
M02*
