G04 #@! TF.GenerationSoftware,KiCad,Pcbnew,(7.0.0-0)*
G04 #@! TF.CreationDate,2023-02-28T11:31:52-05:00*
G04 #@! TF.ProjectId,GW4194-SOJ-DC,47573431-3934-42d5-934f-4a2d44432e6b,1.1-SOJ-DC*
G04 #@! TF.SameCoordinates,Original*
G04 #@! TF.FileFunction,Legend,Bot*
G04 #@! TF.FilePolarity,Positive*
%FSLAX46Y46*%
G04 Gerber Fmt 4.6, Leading zero omitted, Abs format (unit mm)*
G04 Created by KiCad (PCBNEW (7.0.0-0)) date 2023-02-28 11:31:52*
%MOMM*%
%LPD*%
G01*
G04 APERTURE LIST*
G04 Aperture macros list*
%AMRoundRect*
0 Rectangle with rounded corners*
0 $1 Rounding radius*
0 $2 $3 $4 $5 $6 $7 $8 $9 X,Y pos of 4 corners*
0 Add a 4 corners polygon primitive as box body*
4,1,4,$2,$3,$4,$5,$6,$7,$8,$9,$2,$3,0*
0 Add four circle primitives for the rounded corners*
1,1,$1+$1,$2,$3*
1,1,$1+$1,$4,$5*
1,1,$1+$1,$6,$7*
1,1,$1+$1,$8,$9*
0 Add four rect primitives between the rounded corners*
20,1,$1+$1,$2,$3,$4,$5,0*
20,1,$1+$1,$4,$5,$6,$7,0*
20,1,$1+$1,$6,$7,$8,$9,0*
20,1,$1+$1,$8,$9,$2,$3,0*%
G04 Aperture macros list end*
%ADD10C,0.300000*%
%ADD11C,0.225000*%
%ADD12C,0.203200*%
%ADD13C,0.952400*%
%ADD14RoundRect,0.520700X-0.444500X-0.825500X0.444500X-0.825500X0.444500X0.825500X-0.444500X0.825500X0*%
G04 APERTURE END LIST*
D10*
X133941285Y-94499500D02*
X134084143Y-94428071D01*
X134084143Y-94428071D02*
X134298428Y-94428071D01*
X134298428Y-94428071D02*
X134512714Y-94499500D01*
X134512714Y-94499500D02*
X134655571Y-94642357D01*
X134655571Y-94642357D02*
X134727000Y-94785214D01*
X134727000Y-94785214D02*
X134798428Y-95070928D01*
X134798428Y-95070928D02*
X134798428Y-95285214D01*
X134798428Y-95285214D02*
X134727000Y-95570928D01*
X134727000Y-95570928D02*
X134655571Y-95713785D01*
X134655571Y-95713785D02*
X134512714Y-95856642D01*
X134512714Y-95856642D02*
X134298428Y-95928071D01*
X134298428Y-95928071D02*
X134155571Y-95928071D01*
X134155571Y-95928071D02*
X133941285Y-95856642D01*
X133941285Y-95856642D02*
X133869857Y-95785214D01*
X133869857Y-95785214D02*
X133869857Y-95285214D01*
X133869857Y-95285214D02*
X134155571Y-95285214D01*
X133369857Y-94428071D02*
X133012714Y-95928071D01*
X133012714Y-95928071D02*
X132727000Y-94856642D01*
X132727000Y-94856642D02*
X132441285Y-95928071D01*
X132441285Y-95928071D02*
X132084143Y-94428071D01*
X130388999Y-94928071D02*
X130388999Y-95928071D01*
X130746141Y-94356642D02*
X131103284Y-95428071D01*
X131103284Y-95428071D02*
X130174713Y-95428071D01*
X128817570Y-95928071D02*
X129674713Y-95928071D01*
X129246142Y-95928071D02*
X129246142Y-94428071D01*
X129246142Y-94428071D02*
X129388999Y-94642357D01*
X129388999Y-94642357D02*
X129531856Y-94785214D01*
X129531856Y-94785214D02*
X129674713Y-94856642D01*
X128103285Y-95928071D02*
X127817571Y-95928071D01*
X127817571Y-95928071D02*
X127674714Y-95856642D01*
X127674714Y-95856642D02*
X127603285Y-95785214D01*
X127603285Y-95785214D02*
X127460428Y-95570928D01*
X127460428Y-95570928D02*
X127388999Y-95285214D01*
X127388999Y-95285214D02*
X127388999Y-94713785D01*
X127388999Y-94713785D02*
X127460428Y-94570928D01*
X127460428Y-94570928D02*
X127531857Y-94499500D01*
X127531857Y-94499500D02*
X127674714Y-94428071D01*
X127674714Y-94428071D02*
X127960428Y-94428071D01*
X127960428Y-94428071D02*
X128103285Y-94499500D01*
X128103285Y-94499500D02*
X128174714Y-94570928D01*
X128174714Y-94570928D02*
X128246142Y-94713785D01*
X128246142Y-94713785D02*
X128246142Y-95070928D01*
X128246142Y-95070928D02*
X128174714Y-95213785D01*
X128174714Y-95213785D02*
X128103285Y-95285214D01*
X128103285Y-95285214D02*
X127960428Y-95356642D01*
X127960428Y-95356642D02*
X127674714Y-95356642D01*
X127674714Y-95356642D02*
X127531857Y-95285214D01*
X127531857Y-95285214D02*
X127460428Y-95213785D01*
X127460428Y-95213785D02*
X127388999Y-95070928D01*
X126103286Y-94928071D02*
X126103286Y-95928071D01*
X126460428Y-94356642D02*
X126817571Y-95428071D01*
X126817571Y-95428071D02*
X125889000Y-95428071D01*
X125389000Y-95499500D02*
X124674715Y-95499500D01*
X125531857Y-95928071D02*
X125031857Y-94428071D01*
X125031857Y-94428071D02*
X124531857Y-95928071D01*
D11*
X139322628Y-91691460D02*
X139467771Y-91618888D01*
X139467771Y-91618888D02*
X139685485Y-91618888D01*
X139685485Y-91618888D02*
X139903199Y-91691460D01*
X139903199Y-91691460D02*
X140048342Y-91836602D01*
X140048342Y-91836602D02*
X140120913Y-91981745D01*
X140120913Y-91981745D02*
X140193485Y-92272031D01*
X140193485Y-92272031D02*
X140193485Y-92489745D01*
X140193485Y-92489745D02*
X140120913Y-92780031D01*
X140120913Y-92780031D02*
X140048342Y-92925174D01*
X140048342Y-92925174D02*
X139903199Y-93070317D01*
X139903199Y-93070317D02*
X139685485Y-93142888D01*
X139685485Y-93142888D02*
X139540342Y-93142888D01*
X139540342Y-93142888D02*
X139322628Y-93070317D01*
X139322628Y-93070317D02*
X139250056Y-92997745D01*
X139250056Y-92997745D02*
X139250056Y-92489745D01*
X139250056Y-92489745D02*
X139540342Y-92489745D01*
X137943771Y-93142888D02*
X137943771Y-92344602D01*
X137943771Y-92344602D02*
X138016342Y-92199460D01*
X138016342Y-92199460D02*
X138161485Y-92126888D01*
X138161485Y-92126888D02*
X138451771Y-92126888D01*
X138451771Y-92126888D02*
X138596913Y-92199460D01*
X137943771Y-93070317D02*
X138088913Y-93142888D01*
X138088913Y-93142888D02*
X138451771Y-93142888D01*
X138451771Y-93142888D02*
X138596913Y-93070317D01*
X138596913Y-93070317D02*
X138669485Y-92925174D01*
X138669485Y-92925174D02*
X138669485Y-92780031D01*
X138669485Y-92780031D02*
X138596913Y-92634888D01*
X138596913Y-92634888D02*
X138451771Y-92562317D01*
X138451771Y-92562317D02*
X138088913Y-92562317D01*
X138088913Y-92562317D02*
X137943771Y-92489745D01*
X137218056Y-93142888D02*
X137218056Y-92126888D01*
X137218056Y-92417174D02*
X137145485Y-92272031D01*
X137145485Y-92272031D02*
X137072914Y-92199460D01*
X137072914Y-92199460D02*
X136927771Y-92126888D01*
X136927771Y-92126888D02*
X136782628Y-92126888D01*
X136274627Y-93142888D02*
X136274627Y-92126888D01*
X136274627Y-92417174D02*
X136202056Y-92272031D01*
X136202056Y-92272031D02*
X136129485Y-92199460D01*
X136129485Y-92199460D02*
X135984342Y-92126888D01*
X135984342Y-92126888D02*
X135839199Y-92126888D01*
X134750627Y-93070317D02*
X134895770Y-93142888D01*
X134895770Y-93142888D02*
X135186056Y-93142888D01*
X135186056Y-93142888D02*
X135331198Y-93070317D01*
X135331198Y-93070317D02*
X135403770Y-92925174D01*
X135403770Y-92925174D02*
X135403770Y-92344602D01*
X135403770Y-92344602D02*
X135331198Y-92199460D01*
X135331198Y-92199460D02*
X135186056Y-92126888D01*
X135186056Y-92126888D02*
X134895770Y-92126888D01*
X134895770Y-92126888D02*
X134750627Y-92199460D01*
X134750627Y-92199460D02*
X134678056Y-92344602D01*
X134678056Y-92344602D02*
X134678056Y-92489745D01*
X134678056Y-92489745D02*
X135403770Y-92634888D01*
X134242627Y-92126888D02*
X133662055Y-92126888D01*
X134024912Y-91618888D02*
X134024912Y-92925174D01*
X134024912Y-92925174D02*
X133952341Y-93070317D01*
X133952341Y-93070317D02*
X133807198Y-93142888D01*
X133807198Y-93142888D02*
X133662055Y-93142888D01*
X133371770Y-92126888D02*
X132791198Y-92126888D01*
X133154055Y-91618888D02*
X133154055Y-92925174D01*
X133154055Y-92925174D02*
X133081484Y-93070317D01*
X133081484Y-93070317D02*
X132936341Y-93142888D01*
X132936341Y-93142888D02*
X132791198Y-93142888D01*
X132210627Y-91618888D02*
X132210627Y-91691460D01*
X132210627Y-91691460D02*
X132283198Y-91836602D01*
X132283198Y-91836602D02*
X132355770Y-91909174D01*
X131630056Y-93070317D02*
X131484913Y-93142888D01*
X131484913Y-93142888D02*
X131194627Y-93142888D01*
X131194627Y-93142888D02*
X131049484Y-93070317D01*
X131049484Y-93070317D02*
X130976913Y-92925174D01*
X130976913Y-92925174D02*
X130976913Y-92852602D01*
X130976913Y-92852602D02*
X131049484Y-92707460D01*
X131049484Y-92707460D02*
X131194627Y-92634888D01*
X131194627Y-92634888D02*
X131412342Y-92634888D01*
X131412342Y-92634888D02*
X131557484Y-92562317D01*
X131557484Y-92562317D02*
X131630056Y-92417174D01*
X131630056Y-92417174D02*
X131630056Y-92344602D01*
X131630056Y-92344602D02*
X131557484Y-92199460D01*
X131557484Y-92199460D02*
X131412342Y-92126888D01*
X131412342Y-92126888D02*
X131194627Y-92126888D01*
X131194627Y-92126888D02*
X131049484Y-92199460D01*
X129554513Y-91618888D02*
X129191656Y-93142888D01*
X129191656Y-93142888D02*
X128901370Y-92054317D01*
X128901370Y-92054317D02*
X128611085Y-93142888D01*
X128611085Y-93142888D02*
X128248228Y-91618888D01*
X127449942Y-93142888D02*
X127595085Y-93070317D01*
X127595085Y-93070317D02*
X127667656Y-92997745D01*
X127667656Y-92997745D02*
X127740228Y-92852602D01*
X127740228Y-92852602D02*
X127740228Y-92417174D01*
X127740228Y-92417174D02*
X127667656Y-92272031D01*
X127667656Y-92272031D02*
X127595085Y-92199460D01*
X127595085Y-92199460D02*
X127449942Y-92126888D01*
X127449942Y-92126888D02*
X127232228Y-92126888D01*
X127232228Y-92126888D02*
X127087085Y-92199460D01*
X127087085Y-92199460D02*
X127014514Y-92272031D01*
X127014514Y-92272031D02*
X126941942Y-92417174D01*
X126941942Y-92417174D02*
X126941942Y-92852602D01*
X126941942Y-92852602D02*
X127014514Y-92997745D01*
X127014514Y-92997745D02*
X127087085Y-93070317D01*
X127087085Y-93070317D02*
X127232228Y-93142888D01*
X127232228Y-93142888D02*
X127449942Y-93142888D01*
X126288799Y-93142888D02*
X126288799Y-92126888D01*
X126288799Y-92417174D02*
X126216228Y-92272031D01*
X126216228Y-92272031D02*
X126143657Y-92199460D01*
X126143657Y-92199460D02*
X125998514Y-92126888D01*
X125998514Y-92126888D02*
X125853371Y-92126888D01*
X125345370Y-93142888D02*
X125345370Y-91618888D01*
X125200228Y-92562317D02*
X124764799Y-93142888D01*
X124764799Y-92126888D02*
X125345370Y-92707460D01*
X124184228Y-93070317D02*
X124039085Y-93142888D01*
X124039085Y-93142888D02*
X123748799Y-93142888D01*
X123748799Y-93142888D02*
X123603656Y-93070317D01*
X123603656Y-93070317D02*
X123531085Y-92925174D01*
X123531085Y-92925174D02*
X123531085Y-92852602D01*
X123531085Y-92852602D02*
X123603656Y-92707460D01*
X123603656Y-92707460D02*
X123748799Y-92634888D01*
X123748799Y-92634888D02*
X123966514Y-92634888D01*
X123966514Y-92634888D02*
X124111656Y-92562317D01*
X124111656Y-92562317D02*
X124184228Y-92417174D01*
X124184228Y-92417174D02*
X124184228Y-92344602D01*
X124184228Y-92344602D02*
X124111656Y-92199460D01*
X124111656Y-92199460D02*
X123966514Y-92126888D01*
X123966514Y-92126888D02*
X123748799Y-92126888D01*
X123748799Y-92126888D02*
X123603656Y-92199460D01*
X122877942Y-93142888D02*
X122877942Y-91618888D01*
X122224800Y-93142888D02*
X122224800Y-92344602D01*
X122224800Y-92344602D02*
X122297371Y-92199460D01*
X122297371Y-92199460D02*
X122442514Y-92126888D01*
X122442514Y-92126888D02*
X122660228Y-92126888D01*
X122660228Y-92126888D02*
X122805371Y-92199460D01*
X122805371Y-92199460D02*
X122877942Y-92272031D01*
X121281371Y-93142888D02*
X121426514Y-93070317D01*
X121426514Y-93070317D02*
X121499085Y-92997745D01*
X121499085Y-92997745D02*
X121571657Y-92852602D01*
X121571657Y-92852602D02*
X121571657Y-92417174D01*
X121571657Y-92417174D02*
X121499085Y-92272031D01*
X121499085Y-92272031D02*
X121426514Y-92199460D01*
X121426514Y-92199460D02*
X121281371Y-92126888D01*
X121281371Y-92126888D02*
X121063657Y-92126888D01*
X121063657Y-92126888D02*
X120918514Y-92199460D01*
X120918514Y-92199460D02*
X120845943Y-92272031D01*
X120845943Y-92272031D02*
X120773371Y-92417174D01*
X120773371Y-92417174D02*
X120773371Y-92852602D01*
X120773371Y-92852602D02*
X120845943Y-92997745D01*
X120845943Y-92997745D02*
X120918514Y-93070317D01*
X120918514Y-93070317D02*
X121063657Y-93142888D01*
X121063657Y-93142888D02*
X121281371Y-93142888D01*
X120120228Y-92126888D02*
X120120228Y-93650888D01*
X120120228Y-92199460D02*
X119975086Y-92126888D01*
X119975086Y-92126888D02*
X119684800Y-92126888D01*
X119684800Y-92126888D02*
X119539657Y-92199460D01*
X119539657Y-92199460D02*
X119467086Y-92272031D01*
X119467086Y-92272031D02*
X119394514Y-92417174D01*
X119394514Y-92417174D02*
X119394514Y-92852602D01*
X119394514Y-92852602D02*
X119467086Y-92997745D01*
X119467086Y-92997745D02*
X119539657Y-93070317D01*
X119539657Y-93070317D02*
X119684800Y-93142888D01*
X119684800Y-93142888D02*
X119975086Y-93142888D01*
X119975086Y-93142888D02*
X120120228Y-93070317D01*
D12*
X101837066Y-95072925D02*
X101643542Y-95750259D01*
X101643542Y-95750259D02*
X101450018Y-95266449D01*
X101450018Y-95266449D02*
X101256494Y-95750259D01*
X101256494Y-95750259D02*
X101062970Y-95072925D01*
X100675923Y-95750259D02*
X100675923Y-95072925D01*
X100675923Y-94734259D02*
X100724304Y-94782640D01*
X100724304Y-94782640D02*
X100675923Y-94831020D01*
X100675923Y-94831020D02*
X100627542Y-94782640D01*
X100627542Y-94782640D02*
X100675923Y-94734259D01*
X100675923Y-94734259D02*
X100675923Y-94831020D01*
X100337256Y-95072925D02*
X99950208Y-95072925D01*
X100192113Y-94734259D02*
X100192113Y-95605116D01*
X100192113Y-95605116D02*
X100143732Y-95701878D01*
X100143732Y-95701878D02*
X100046970Y-95750259D01*
X100046970Y-95750259D02*
X99950208Y-95750259D01*
X99611542Y-95750259D02*
X99611542Y-94734259D01*
X99176113Y-95750259D02*
X99176113Y-95218068D01*
X99176113Y-95218068D02*
X99224494Y-95121306D01*
X99224494Y-95121306D02*
X99321256Y-95072925D01*
X99321256Y-95072925D02*
X99466399Y-95072925D01*
X99466399Y-95072925D02*
X99563161Y-95121306D01*
X99563161Y-95121306D02*
X99611542Y-95169687D01*
X97647275Y-95072925D02*
X97647275Y-95750259D01*
X97889180Y-94685878D02*
X98131085Y-95411592D01*
X98131085Y-95411592D02*
X97502132Y-95411592D01*
X97115085Y-95750259D02*
X97115085Y-94734259D01*
X97115085Y-94734259D02*
X96776418Y-95459973D01*
X96776418Y-95459973D02*
X96437751Y-94734259D01*
X96437751Y-94734259D02*
X96437751Y-95750259D01*
X94763770Y-95653497D02*
X94812151Y-95701878D01*
X94812151Y-95701878D02*
X94957294Y-95750259D01*
X94957294Y-95750259D02*
X95054056Y-95750259D01*
X95054056Y-95750259D02*
X95199199Y-95701878D01*
X95199199Y-95701878D02*
X95295961Y-95605116D01*
X95295961Y-95605116D02*
X95344342Y-95508354D01*
X95344342Y-95508354D02*
X95392723Y-95314830D01*
X95392723Y-95314830D02*
X95392723Y-95169687D01*
X95392723Y-95169687D02*
X95344342Y-94976163D01*
X95344342Y-94976163D02*
X95295961Y-94879401D01*
X95295961Y-94879401D02*
X95199199Y-94782640D01*
X95199199Y-94782640D02*
X95054056Y-94734259D01*
X95054056Y-94734259D02*
X94957294Y-94734259D01*
X94957294Y-94734259D02*
X94812151Y-94782640D01*
X94812151Y-94782640D02*
X94763770Y-94831020D01*
X93989675Y-95218068D02*
X93844532Y-95266449D01*
X93844532Y-95266449D02*
X93796151Y-95314830D01*
X93796151Y-95314830D02*
X93747770Y-95411592D01*
X93747770Y-95411592D02*
X93747770Y-95556735D01*
X93747770Y-95556735D02*
X93796151Y-95653497D01*
X93796151Y-95653497D02*
X93844532Y-95701878D01*
X93844532Y-95701878D02*
X93941294Y-95750259D01*
X93941294Y-95750259D02*
X94328342Y-95750259D01*
X94328342Y-95750259D02*
X94328342Y-94734259D01*
X94328342Y-94734259D02*
X93989675Y-94734259D01*
X93989675Y-94734259D02*
X93892913Y-94782640D01*
X93892913Y-94782640D02*
X93844532Y-94831020D01*
X93844532Y-94831020D02*
X93796151Y-94927782D01*
X93796151Y-94927782D02*
X93796151Y-95024544D01*
X93796151Y-95024544D02*
X93844532Y-95121306D01*
X93844532Y-95121306D02*
X93892913Y-95169687D01*
X93892913Y-95169687D02*
X93989675Y-95218068D01*
X93989675Y-95218068D02*
X94328342Y-95218068D01*
X92731770Y-95750259D02*
X93070437Y-95266449D01*
X93312342Y-95750259D02*
X93312342Y-94734259D01*
X93312342Y-94734259D02*
X92925294Y-94734259D01*
X92925294Y-94734259D02*
X92828532Y-94782640D01*
X92828532Y-94782640D02*
X92780151Y-94831020D01*
X92780151Y-94831020D02*
X92731770Y-94927782D01*
X92731770Y-94927782D02*
X92731770Y-95072925D01*
X92731770Y-95072925D02*
X92780151Y-95169687D01*
X92780151Y-95169687D02*
X92828532Y-95218068D01*
X92828532Y-95218068D02*
X92925294Y-95266449D01*
X92925294Y-95266449D02*
X93312342Y-95266449D01*
X91831885Y-95072925D02*
X91444837Y-95072925D01*
X91686742Y-95750259D02*
X91686742Y-94879401D01*
X91686742Y-94879401D02*
X91638361Y-94782640D01*
X91638361Y-94782640D02*
X91541599Y-94734259D01*
X91541599Y-94734259D02*
X91444837Y-94734259D01*
X91106171Y-95750259D02*
X91106171Y-95072925D01*
X91106171Y-94734259D02*
X91154552Y-94782640D01*
X91154552Y-94782640D02*
X91106171Y-94831020D01*
X91106171Y-94831020D02*
X91057790Y-94782640D01*
X91057790Y-94782640D02*
X91106171Y-94734259D01*
X91106171Y-94734259D02*
X91106171Y-94831020D01*
X90719123Y-95750259D02*
X90186932Y-95072925D01*
X90719123Y-95072925D02*
X90186932Y-95750259D01*
D10*
X100554971Y-93015888D02*
X100554971Y-94031888D01*
X100917828Y-92435317D02*
X101280685Y-93523888D01*
X101280685Y-93523888D02*
X100337256Y-93523888D01*
X98842284Y-94031888D02*
X98842284Y-92507888D01*
X98842284Y-92507888D02*
X98334284Y-93596460D01*
X98334284Y-93596460D02*
X97826284Y-92507888D01*
X97826284Y-92507888D02*
X97826284Y-94031888D01*
X96592570Y-93233602D02*
X96374856Y-93306174D01*
X96374856Y-93306174D02*
X96302285Y-93378745D01*
X96302285Y-93378745D02*
X96229713Y-93523888D01*
X96229713Y-93523888D02*
X96229713Y-93741602D01*
X96229713Y-93741602D02*
X96302285Y-93886745D01*
X96302285Y-93886745D02*
X96374856Y-93959317D01*
X96374856Y-93959317D02*
X96519999Y-94031888D01*
X96519999Y-94031888D02*
X97100570Y-94031888D01*
X97100570Y-94031888D02*
X97100570Y-92507888D01*
X97100570Y-92507888D02*
X96592570Y-92507888D01*
X96592570Y-92507888D02*
X96447428Y-92580460D01*
X96447428Y-92580460D02*
X96374856Y-92653031D01*
X96374856Y-92653031D02*
X96302285Y-92798174D01*
X96302285Y-92798174D02*
X96302285Y-92943317D01*
X96302285Y-92943317D02*
X96374856Y-93088460D01*
X96374856Y-93088460D02*
X96447428Y-93161031D01*
X96447428Y-93161031D02*
X96592570Y-93233602D01*
X96592570Y-93233602D02*
X97100570Y-93233602D01*
X93791313Y-94031888D02*
X94299313Y-93306174D01*
X94662170Y-94031888D02*
X94662170Y-92507888D01*
X94662170Y-92507888D02*
X94081599Y-92507888D01*
X94081599Y-92507888D02*
X93936456Y-92580460D01*
X93936456Y-92580460D02*
X93863885Y-92653031D01*
X93863885Y-92653031D02*
X93791313Y-92798174D01*
X93791313Y-92798174D02*
X93791313Y-93015888D01*
X93791313Y-93015888D02*
X93863885Y-93161031D01*
X93863885Y-93161031D02*
X93936456Y-93233602D01*
X93936456Y-93233602D02*
X94081599Y-93306174D01*
X94081599Y-93306174D02*
X94662170Y-93306174D01*
X93210742Y-93596460D02*
X92485028Y-93596460D01*
X93355885Y-94031888D02*
X92847885Y-92507888D01*
X92847885Y-92507888D02*
X92339885Y-94031888D01*
X91831884Y-94031888D02*
X91831884Y-92507888D01*
X91831884Y-92507888D02*
X91323884Y-93596460D01*
X91323884Y-93596460D02*
X90815884Y-92507888D01*
X90815884Y-92507888D02*
X90815884Y-94031888D01*
D12*
X163667439Y-99307807D02*
X163125573Y-99307807D01*
X163125573Y-99307807D02*
X163667439Y-100120607D01*
X163667439Y-100120607D02*
X163125573Y-100120607D01*
X162815935Y-100120607D02*
X162815935Y-99307807D01*
X162351478Y-100120607D02*
X162699820Y-99656150D01*
X162351478Y-99307807D02*
X162815935Y-99772264D01*
X161964430Y-100081902D02*
X161964430Y-100120607D01*
X161964430Y-100120607D02*
X162003135Y-100198016D01*
X162003135Y-100198016D02*
X162041839Y-100236721D01*
X160702654Y-99346512D02*
X160780064Y-99307807D01*
X160780064Y-99307807D02*
X160896178Y-99307807D01*
X160896178Y-99307807D02*
X161012292Y-99346512D01*
X161012292Y-99346512D02*
X161089702Y-99423921D01*
X161089702Y-99423921D02*
X161128407Y-99501331D01*
X161128407Y-99501331D02*
X161167111Y-99656150D01*
X161167111Y-99656150D02*
X161167111Y-99772264D01*
X161167111Y-99772264D02*
X161128407Y-99927083D01*
X161128407Y-99927083D02*
X161089702Y-100004492D01*
X161089702Y-100004492D02*
X161012292Y-100081902D01*
X161012292Y-100081902D02*
X160896178Y-100120607D01*
X160896178Y-100120607D02*
X160818769Y-100120607D01*
X160818769Y-100120607D02*
X160702654Y-100081902D01*
X160702654Y-100081902D02*
X160663950Y-100043197D01*
X160663950Y-100043197D02*
X160663950Y-99772264D01*
X160663950Y-99772264D02*
X160818769Y-99772264D01*
X160044673Y-99694854D02*
X160315607Y-99694854D01*
X160315607Y-100120607D02*
X160315607Y-99307807D01*
X160315607Y-99307807D02*
X159928559Y-99307807D01*
%LPC*%
D13*
X83820000Y-98806000D03*
D14*
X83820000Y-100076000D03*
D13*
X86360000Y-98806000D03*
D14*
X86360000Y-100076000D03*
D13*
X88900000Y-98806000D03*
D14*
X88900000Y-100076000D03*
D13*
X91440000Y-98806000D03*
D14*
X91440000Y-100076000D03*
D13*
X93980000Y-98806000D03*
D14*
X93980000Y-100076000D03*
D13*
X96520000Y-98806000D03*
D14*
X96520000Y-100076000D03*
D13*
X99060000Y-98806000D03*
D14*
X99060000Y-100076000D03*
D13*
X101600000Y-98806000D03*
D14*
X101600000Y-100076000D03*
D13*
X104140000Y-98806000D03*
D14*
X104140000Y-100076000D03*
D13*
X106680000Y-98806000D03*
D14*
X106680000Y-100076000D03*
D13*
X109220000Y-98806000D03*
D14*
X109220000Y-100076000D03*
D13*
X111760000Y-98806000D03*
D14*
X111760000Y-100076000D03*
D13*
X114300000Y-98806000D03*
D14*
X114300000Y-100076000D03*
D13*
X116840000Y-98806000D03*
D14*
X116840000Y-100076000D03*
D13*
X119380000Y-98806000D03*
D14*
X119380000Y-100076000D03*
D13*
X121920000Y-98806000D03*
D14*
X121920000Y-100076000D03*
D13*
X124460000Y-98806000D03*
D14*
X124460000Y-100076000D03*
D13*
X127000000Y-98806000D03*
D14*
X127000000Y-100076000D03*
D13*
X129540000Y-98806000D03*
D14*
X129540000Y-100076000D03*
D13*
X132080000Y-98806000D03*
D14*
X132080000Y-100076000D03*
D13*
X134620000Y-98806000D03*
D14*
X134620000Y-100076000D03*
D13*
X137160000Y-98806000D03*
D14*
X137160000Y-100076000D03*
D13*
X139700000Y-98806000D03*
D14*
X139700000Y-100076000D03*
D13*
X142240000Y-98806000D03*
D14*
X142240000Y-100076000D03*
D13*
X144780000Y-98806000D03*
D14*
X144780000Y-100076000D03*
D13*
X147320000Y-98806000D03*
D14*
X147320000Y-100076000D03*
D13*
X149860000Y-98806000D03*
D14*
X149860000Y-100076000D03*
D13*
X152400000Y-98806000D03*
D14*
X152400000Y-100076000D03*
D13*
X154940000Y-98806000D03*
D14*
X154940000Y-100076000D03*
D13*
X157480000Y-98806000D03*
D14*
X157480000Y-100076000D03*
M02*
