G04 #@! TF.GenerationSoftware,KiCad,Pcbnew,(5.1.10-1-10_14)*
G04 #@! TF.CreationDate,2021-07-28T15:37:57-04:00*
G04 #@! TF.ProjectId,GW4194-SOJ,47573431-3934-42d5-934f-4a2e6b696361,1.0-SOJ*
G04 #@! TF.SameCoordinates,Original*
G04 #@! TF.FileFunction,Legend,Bot*
G04 #@! TF.FilePolarity,Positive*
%FSLAX46Y46*%
G04 Gerber Fmt 4.6, Leading zero omitted, Abs format (unit mm)*
G04 Created by KiCad (PCBNEW (5.1.10-1-10_14)) date 2021-07-28 15:37:57*
%MOMM*%
%LPD*%
G01*
G04 APERTURE LIST*
%ADD10C,0.203200*%
%ADD11C,0.300000*%
%ADD12C,0.225000*%
%ADD13C,0.952400*%
G04 APERTURE END LIST*
D10*
X163733238Y-99376895D02*
X163191371Y-99376895D01*
X163733238Y-100189695D01*
X163191371Y-100189695D01*
X162881733Y-100189695D02*
X162881733Y-99376895D01*
X162417276Y-100189695D02*
X162765619Y-99725238D01*
X162417276Y-99376895D02*
X162881733Y-99841352D01*
X162030228Y-100150990D02*
X162030228Y-100189695D01*
X162068933Y-100267104D01*
X162107638Y-100305809D01*
X160636857Y-99415600D02*
X160714266Y-99376895D01*
X160830380Y-99376895D01*
X160946495Y-99415600D01*
X161023904Y-99493009D01*
X161062609Y-99570419D01*
X161101314Y-99725238D01*
X161101314Y-99841352D01*
X161062609Y-99996171D01*
X161023904Y-100073580D01*
X160946495Y-100150990D01*
X160830380Y-100189695D01*
X160752971Y-100189695D01*
X160636857Y-100150990D01*
X160598152Y-100112285D01*
X160598152Y-99841352D01*
X160752971Y-99841352D01*
X159978876Y-99763942D02*
X160249809Y-99763942D01*
X160249809Y-100189695D02*
X160249809Y-99376895D01*
X159862761Y-99376895D01*
D11*
X100801714Y-93145428D02*
X100801714Y-94161428D01*
X101164571Y-92564857D02*
X101527428Y-93653428D01*
X100584000Y-93653428D01*
X98842285Y-94161428D02*
X98842285Y-92637428D01*
X98334285Y-93726000D01*
X97826285Y-92637428D01*
X97826285Y-94161428D01*
X96592571Y-93363142D02*
X96374857Y-93435714D01*
X96302285Y-93508285D01*
X96229714Y-93653428D01*
X96229714Y-93871142D01*
X96302285Y-94016285D01*
X96374857Y-94088857D01*
X96520000Y-94161428D01*
X97100571Y-94161428D01*
X97100571Y-92637428D01*
X96592571Y-92637428D01*
X96447428Y-92710000D01*
X96374857Y-92782571D01*
X96302285Y-92927714D01*
X96302285Y-93072857D01*
X96374857Y-93218000D01*
X96447428Y-93290571D01*
X96592571Y-93363142D01*
X97100571Y-93363142D01*
X93544571Y-94161428D02*
X94052571Y-93435714D01*
X94415428Y-94161428D02*
X94415428Y-92637428D01*
X93834857Y-92637428D01*
X93689714Y-92710000D01*
X93617142Y-92782571D01*
X93544571Y-92927714D01*
X93544571Y-93145428D01*
X93617142Y-93290571D01*
X93689714Y-93363142D01*
X93834857Y-93435714D01*
X94415428Y-93435714D01*
X92964000Y-93726000D02*
X92238285Y-93726000D01*
X93109142Y-94161428D02*
X92601142Y-92637428D01*
X92093142Y-94161428D01*
X91585142Y-94161428D02*
X91585142Y-92637428D01*
X91077142Y-93726000D01*
X90569142Y-92637428D01*
X90569142Y-94161428D01*
D10*
X102083809Y-95159285D02*
X101890285Y-95836619D01*
X101696761Y-95352809D01*
X101503238Y-95836619D01*
X101309714Y-95159285D01*
X100922666Y-95836619D02*
X100922666Y-95159285D01*
X100922666Y-94820619D02*
X100971047Y-94869000D01*
X100922666Y-94917380D01*
X100874285Y-94869000D01*
X100922666Y-94820619D01*
X100922666Y-94917380D01*
X100584000Y-95159285D02*
X100196952Y-95159285D01*
X100438857Y-94820619D02*
X100438857Y-95691476D01*
X100390476Y-95788238D01*
X100293714Y-95836619D01*
X100196952Y-95836619D01*
X99858285Y-95836619D02*
X99858285Y-94820619D01*
X99422857Y-95836619D02*
X99422857Y-95304428D01*
X99471238Y-95207666D01*
X99568000Y-95159285D01*
X99713142Y-95159285D01*
X99809904Y-95207666D01*
X99858285Y-95256047D01*
X97729523Y-95159285D02*
X97729523Y-95836619D01*
X97971428Y-94772238D02*
X98213333Y-95497952D01*
X97584380Y-95497952D01*
X97197333Y-95836619D02*
X97197333Y-94820619D01*
X96858666Y-95546333D01*
X96519999Y-94820619D01*
X96519999Y-95836619D01*
X94681523Y-95739857D02*
X94729904Y-95788238D01*
X94875047Y-95836619D01*
X94971809Y-95836619D01*
X95116952Y-95788238D01*
X95213714Y-95691476D01*
X95262095Y-95594714D01*
X95310476Y-95401190D01*
X95310476Y-95256047D01*
X95262095Y-95062523D01*
X95213714Y-94965761D01*
X95116952Y-94869000D01*
X94971809Y-94820619D01*
X94875047Y-94820619D01*
X94729904Y-94869000D01*
X94681523Y-94917380D01*
X93907428Y-95304428D02*
X93762285Y-95352809D01*
X93713904Y-95401190D01*
X93665523Y-95497952D01*
X93665523Y-95643095D01*
X93713904Y-95739857D01*
X93762285Y-95788238D01*
X93859047Y-95836619D01*
X94246095Y-95836619D01*
X94246095Y-94820619D01*
X93907428Y-94820619D01*
X93810666Y-94869000D01*
X93762285Y-94917380D01*
X93713904Y-95014142D01*
X93713904Y-95110904D01*
X93762285Y-95207666D01*
X93810666Y-95256047D01*
X93907428Y-95304428D01*
X94246095Y-95304428D01*
X92649523Y-95836619D02*
X92988190Y-95352809D01*
X93230095Y-95836619D02*
X93230095Y-94820619D01*
X92843047Y-94820619D01*
X92746285Y-94869000D01*
X92697904Y-94917380D01*
X92649523Y-95014142D01*
X92649523Y-95159285D01*
X92697904Y-95256047D01*
X92746285Y-95304428D01*
X92843047Y-95352809D01*
X93230095Y-95352809D01*
X91585142Y-95159285D02*
X91198095Y-95159285D01*
X91439999Y-95836619D02*
X91439999Y-94965761D01*
X91391619Y-94869000D01*
X91294857Y-94820619D01*
X91198095Y-94820619D01*
X90859428Y-95836619D02*
X90859428Y-95159285D01*
X90859428Y-94820619D02*
X90907809Y-94869000D01*
X90859428Y-94917380D01*
X90811047Y-94869000D01*
X90859428Y-94820619D01*
X90859428Y-94917380D01*
X90472380Y-95836619D02*
X89940190Y-95159285D01*
X90472380Y-95159285D02*
X89940190Y-95836619D01*
D12*
X139446000Y-91821000D02*
X139591142Y-91748428D01*
X139808857Y-91748428D01*
X140026571Y-91821000D01*
X140171714Y-91966142D01*
X140244285Y-92111285D01*
X140316857Y-92401571D01*
X140316857Y-92619285D01*
X140244285Y-92909571D01*
X140171714Y-93054714D01*
X140026571Y-93199857D01*
X139808857Y-93272428D01*
X139663714Y-93272428D01*
X139446000Y-93199857D01*
X139373428Y-93127285D01*
X139373428Y-92619285D01*
X139663714Y-92619285D01*
X138067142Y-93272428D02*
X138067142Y-92474142D01*
X138139714Y-92329000D01*
X138284857Y-92256428D01*
X138575142Y-92256428D01*
X138720285Y-92329000D01*
X138067142Y-93199857D02*
X138212285Y-93272428D01*
X138575142Y-93272428D01*
X138720285Y-93199857D01*
X138792857Y-93054714D01*
X138792857Y-92909571D01*
X138720285Y-92764428D01*
X138575142Y-92691857D01*
X138212285Y-92691857D01*
X138067142Y-92619285D01*
X137341428Y-93272428D02*
X137341428Y-92256428D01*
X137341428Y-92546714D02*
X137268857Y-92401571D01*
X137196285Y-92329000D01*
X137051142Y-92256428D01*
X136906000Y-92256428D01*
X136398000Y-93272428D02*
X136398000Y-92256428D01*
X136398000Y-92546714D02*
X136325428Y-92401571D01*
X136252857Y-92329000D01*
X136107714Y-92256428D01*
X135962571Y-92256428D01*
X134874000Y-93199857D02*
X135019142Y-93272428D01*
X135309428Y-93272428D01*
X135454571Y-93199857D01*
X135527142Y-93054714D01*
X135527142Y-92474142D01*
X135454571Y-92329000D01*
X135309428Y-92256428D01*
X135019142Y-92256428D01*
X134874000Y-92329000D01*
X134801428Y-92474142D01*
X134801428Y-92619285D01*
X135527142Y-92764428D01*
X134366000Y-92256428D02*
X133785428Y-92256428D01*
X134148285Y-91748428D02*
X134148285Y-93054714D01*
X134075714Y-93199857D01*
X133930571Y-93272428D01*
X133785428Y-93272428D01*
X133495142Y-92256428D02*
X132914571Y-92256428D01*
X133277428Y-91748428D02*
X133277428Y-93054714D01*
X133204857Y-93199857D01*
X133059714Y-93272428D01*
X132914571Y-93272428D01*
X132334000Y-91748428D02*
X132334000Y-91821000D01*
X132406571Y-91966142D01*
X132479142Y-92038714D01*
X131753428Y-93199857D02*
X131608285Y-93272428D01*
X131318000Y-93272428D01*
X131172857Y-93199857D01*
X131100285Y-93054714D01*
X131100285Y-92982142D01*
X131172857Y-92837000D01*
X131318000Y-92764428D01*
X131535714Y-92764428D01*
X131680857Y-92691857D01*
X131753428Y-92546714D01*
X131753428Y-92474142D01*
X131680857Y-92329000D01*
X131535714Y-92256428D01*
X131318000Y-92256428D01*
X131172857Y-92329000D01*
X129431142Y-91748428D02*
X129068285Y-93272428D01*
X128778000Y-92183857D01*
X128487714Y-93272428D01*
X128124857Y-91748428D01*
X127326571Y-93272428D02*
X127471714Y-93199857D01*
X127544285Y-93127285D01*
X127616857Y-92982142D01*
X127616857Y-92546714D01*
X127544285Y-92401571D01*
X127471714Y-92329000D01*
X127326571Y-92256428D01*
X127108857Y-92256428D01*
X126963714Y-92329000D01*
X126891142Y-92401571D01*
X126818571Y-92546714D01*
X126818571Y-92982142D01*
X126891142Y-93127285D01*
X126963714Y-93199857D01*
X127108857Y-93272428D01*
X127326571Y-93272428D01*
X126165428Y-93272428D02*
X126165428Y-92256428D01*
X126165428Y-92546714D02*
X126092857Y-92401571D01*
X126020285Y-92329000D01*
X125875142Y-92256428D01*
X125730000Y-92256428D01*
X125222000Y-93272428D02*
X125222000Y-91748428D01*
X125076857Y-92691857D02*
X124641428Y-93272428D01*
X124641428Y-92256428D02*
X125222000Y-92837000D01*
X124060857Y-93199857D02*
X123915714Y-93272428D01*
X123625428Y-93272428D01*
X123480285Y-93199857D01*
X123407714Y-93054714D01*
X123407714Y-92982142D01*
X123480285Y-92837000D01*
X123625428Y-92764428D01*
X123843142Y-92764428D01*
X123988285Y-92691857D01*
X124060857Y-92546714D01*
X124060857Y-92474142D01*
X123988285Y-92329000D01*
X123843142Y-92256428D01*
X123625428Y-92256428D01*
X123480285Y-92329000D01*
X122754571Y-93272428D02*
X122754571Y-91748428D01*
X122101428Y-93272428D02*
X122101428Y-92474142D01*
X122174000Y-92329000D01*
X122319142Y-92256428D01*
X122536857Y-92256428D01*
X122682000Y-92329000D01*
X122754571Y-92401571D01*
X121158000Y-93272428D02*
X121303142Y-93199857D01*
X121375714Y-93127285D01*
X121448285Y-92982142D01*
X121448285Y-92546714D01*
X121375714Y-92401571D01*
X121303142Y-92329000D01*
X121158000Y-92256428D01*
X120940285Y-92256428D01*
X120795142Y-92329000D01*
X120722571Y-92401571D01*
X120650000Y-92546714D01*
X120650000Y-92982142D01*
X120722571Y-93127285D01*
X120795142Y-93199857D01*
X120940285Y-93272428D01*
X121158000Y-93272428D01*
X119996857Y-92256428D02*
X119996857Y-93780428D01*
X119996857Y-92329000D02*
X119851714Y-92256428D01*
X119561428Y-92256428D01*
X119416285Y-92329000D01*
X119343714Y-92401571D01*
X119271142Y-92546714D01*
X119271142Y-92982142D01*
X119343714Y-93127285D01*
X119416285Y-93199857D01*
X119561428Y-93272428D01*
X119851714Y-93272428D01*
X119996857Y-93199857D01*
D11*
X130389000Y-95055571D02*
X130389000Y-96055571D01*
X130746142Y-94484142D02*
X131103285Y-95555571D01*
X130174714Y-95555571D01*
X128817571Y-96055571D02*
X129674714Y-96055571D01*
X129246142Y-96055571D02*
X129246142Y-94555571D01*
X129389000Y-94769857D01*
X129531857Y-94912714D01*
X129674714Y-94984142D01*
X128103285Y-96055571D02*
X127817571Y-96055571D01*
X127674714Y-95984142D01*
X127603285Y-95912714D01*
X127460428Y-95698428D01*
X127389000Y-95412714D01*
X127389000Y-94841285D01*
X127460428Y-94698428D01*
X127531857Y-94627000D01*
X127674714Y-94555571D01*
X127960428Y-94555571D01*
X128103285Y-94627000D01*
X128174714Y-94698428D01*
X128246142Y-94841285D01*
X128246142Y-95198428D01*
X128174714Y-95341285D01*
X128103285Y-95412714D01*
X127960428Y-95484142D01*
X127674714Y-95484142D01*
X127531857Y-95412714D01*
X127460428Y-95341285D01*
X127389000Y-95198428D01*
X126103285Y-95055571D02*
X126103285Y-96055571D01*
X126460428Y-94484142D02*
X126817571Y-95555571D01*
X125889000Y-95555571D01*
X125389000Y-95627000D02*
X124674714Y-95627000D01*
X125531857Y-96055571D02*
X125031857Y-94555571D01*
X124531857Y-96055571D01*
X133941285Y-94627000D02*
X134084142Y-94555571D01*
X134298428Y-94555571D01*
X134512714Y-94627000D01*
X134655571Y-94769857D01*
X134727000Y-94912714D01*
X134798428Y-95198428D01*
X134798428Y-95412714D01*
X134727000Y-95698428D01*
X134655571Y-95841285D01*
X134512714Y-95984142D01*
X134298428Y-96055571D01*
X134155571Y-96055571D01*
X133941285Y-95984142D01*
X133869857Y-95912714D01*
X133869857Y-95412714D01*
X134155571Y-95412714D01*
X133369857Y-94555571D02*
X133012714Y-96055571D01*
X132727000Y-94984142D01*
X132441285Y-96055571D01*
X132084142Y-94555571D01*
%LPC*%
G36*
G01*
X82854800Y-100939600D02*
X82854800Y-99212400D01*
G75*
G02*
X83337400Y-98729800I482600J0D01*
G01*
X84302600Y-98729800D01*
G75*
G02*
X84785200Y-99212400I0J-482600D01*
G01*
X84785200Y-100939600D01*
G75*
G02*
X84302600Y-101422200I-482600J0D01*
G01*
X83337400Y-101422200D01*
G75*
G02*
X82854800Y-100939600I0J482600D01*
G01*
G37*
G36*
G01*
X85394800Y-100939600D02*
X85394800Y-99212400D01*
G75*
G02*
X85877400Y-98729800I482600J0D01*
G01*
X86842600Y-98729800D01*
G75*
G02*
X87325200Y-99212400I0J-482600D01*
G01*
X87325200Y-100939600D01*
G75*
G02*
X86842600Y-101422200I-482600J0D01*
G01*
X85877400Y-101422200D01*
G75*
G02*
X85394800Y-100939600I0J482600D01*
G01*
G37*
G36*
G01*
X87934800Y-100939600D02*
X87934800Y-99212400D01*
G75*
G02*
X88417400Y-98729800I482600J0D01*
G01*
X89382600Y-98729800D01*
G75*
G02*
X89865200Y-99212400I0J-482600D01*
G01*
X89865200Y-100939600D01*
G75*
G02*
X89382600Y-101422200I-482600J0D01*
G01*
X88417400Y-101422200D01*
G75*
G02*
X87934800Y-100939600I0J482600D01*
G01*
G37*
G36*
G01*
X90474800Y-100939600D02*
X90474800Y-99212400D01*
G75*
G02*
X90957400Y-98729800I482600J0D01*
G01*
X91922600Y-98729800D01*
G75*
G02*
X92405200Y-99212400I0J-482600D01*
G01*
X92405200Y-100939600D01*
G75*
G02*
X91922600Y-101422200I-482600J0D01*
G01*
X90957400Y-101422200D01*
G75*
G02*
X90474800Y-100939600I0J482600D01*
G01*
G37*
G36*
G01*
X93014800Y-100939600D02*
X93014800Y-99212400D01*
G75*
G02*
X93497400Y-98729800I482600J0D01*
G01*
X94462600Y-98729800D01*
G75*
G02*
X94945200Y-99212400I0J-482600D01*
G01*
X94945200Y-100939600D01*
G75*
G02*
X94462600Y-101422200I-482600J0D01*
G01*
X93497400Y-101422200D01*
G75*
G02*
X93014800Y-100939600I0J482600D01*
G01*
G37*
G36*
G01*
X95554800Y-100939600D02*
X95554800Y-99212400D01*
G75*
G02*
X96037400Y-98729800I482600J0D01*
G01*
X97002600Y-98729800D01*
G75*
G02*
X97485200Y-99212400I0J-482600D01*
G01*
X97485200Y-100939600D01*
G75*
G02*
X97002600Y-101422200I-482600J0D01*
G01*
X96037400Y-101422200D01*
G75*
G02*
X95554800Y-100939600I0J482600D01*
G01*
G37*
G36*
G01*
X98094800Y-100939600D02*
X98094800Y-99212400D01*
G75*
G02*
X98577400Y-98729800I482600J0D01*
G01*
X99542600Y-98729800D01*
G75*
G02*
X100025200Y-99212400I0J-482600D01*
G01*
X100025200Y-100939600D01*
G75*
G02*
X99542600Y-101422200I-482600J0D01*
G01*
X98577400Y-101422200D01*
G75*
G02*
X98094800Y-100939600I0J482600D01*
G01*
G37*
G36*
G01*
X100634800Y-100939600D02*
X100634800Y-99212400D01*
G75*
G02*
X101117400Y-98729800I482600J0D01*
G01*
X102082600Y-98729800D01*
G75*
G02*
X102565200Y-99212400I0J-482600D01*
G01*
X102565200Y-100939600D01*
G75*
G02*
X102082600Y-101422200I-482600J0D01*
G01*
X101117400Y-101422200D01*
G75*
G02*
X100634800Y-100939600I0J482600D01*
G01*
G37*
G36*
G01*
X103174800Y-100939600D02*
X103174800Y-99212400D01*
G75*
G02*
X103657400Y-98729800I482600J0D01*
G01*
X104622600Y-98729800D01*
G75*
G02*
X105105200Y-99212400I0J-482600D01*
G01*
X105105200Y-100939600D01*
G75*
G02*
X104622600Y-101422200I-482600J0D01*
G01*
X103657400Y-101422200D01*
G75*
G02*
X103174800Y-100939600I0J482600D01*
G01*
G37*
G36*
G01*
X105714800Y-100939600D02*
X105714800Y-99212400D01*
G75*
G02*
X106197400Y-98729800I482600J0D01*
G01*
X107162600Y-98729800D01*
G75*
G02*
X107645200Y-99212400I0J-482600D01*
G01*
X107645200Y-100939600D01*
G75*
G02*
X107162600Y-101422200I-482600J0D01*
G01*
X106197400Y-101422200D01*
G75*
G02*
X105714800Y-100939600I0J482600D01*
G01*
G37*
G36*
G01*
X108254800Y-100939600D02*
X108254800Y-99212400D01*
G75*
G02*
X108737400Y-98729800I482600J0D01*
G01*
X109702600Y-98729800D01*
G75*
G02*
X110185200Y-99212400I0J-482600D01*
G01*
X110185200Y-100939600D01*
G75*
G02*
X109702600Y-101422200I-482600J0D01*
G01*
X108737400Y-101422200D01*
G75*
G02*
X108254800Y-100939600I0J482600D01*
G01*
G37*
G36*
G01*
X110794800Y-100939600D02*
X110794800Y-99212400D01*
G75*
G02*
X111277400Y-98729800I482600J0D01*
G01*
X112242600Y-98729800D01*
G75*
G02*
X112725200Y-99212400I0J-482600D01*
G01*
X112725200Y-100939600D01*
G75*
G02*
X112242600Y-101422200I-482600J0D01*
G01*
X111277400Y-101422200D01*
G75*
G02*
X110794800Y-100939600I0J482600D01*
G01*
G37*
G36*
G01*
X113334800Y-100939600D02*
X113334800Y-99212400D01*
G75*
G02*
X113817400Y-98729800I482600J0D01*
G01*
X114782600Y-98729800D01*
G75*
G02*
X115265200Y-99212400I0J-482600D01*
G01*
X115265200Y-100939600D01*
G75*
G02*
X114782600Y-101422200I-482600J0D01*
G01*
X113817400Y-101422200D01*
G75*
G02*
X113334800Y-100939600I0J482600D01*
G01*
G37*
G36*
G01*
X115874800Y-100939600D02*
X115874800Y-99212400D01*
G75*
G02*
X116357400Y-98729800I482600J0D01*
G01*
X117322600Y-98729800D01*
G75*
G02*
X117805200Y-99212400I0J-482600D01*
G01*
X117805200Y-100939600D01*
G75*
G02*
X117322600Y-101422200I-482600J0D01*
G01*
X116357400Y-101422200D01*
G75*
G02*
X115874800Y-100939600I0J482600D01*
G01*
G37*
G36*
G01*
X118414800Y-100939600D02*
X118414800Y-99212400D01*
G75*
G02*
X118897400Y-98729800I482600J0D01*
G01*
X119862600Y-98729800D01*
G75*
G02*
X120345200Y-99212400I0J-482600D01*
G01*
X120345200Y-100939600D01*
G75*
G02*
X119862600Y-101422200I-482600J0D01*
G01*
X118897400Y-101422200D01*
G75*
G02*
X118414800Y-100939600I0J482600D01*
G01*
G37*
G36*
G01*
X120954800Y-100939600D02*
X120954800Y-99212400D01*
G75*
G02*
X121437400Y-98729800I482600J0D01*
G01*
X122402600Y-98729800D01*
G75*
G02*
X122885200Y-99212400I0J-482600D01*
G01*
X122885200Y-100939600D01*
G75*
G02*
X122402600Y-101422200I-482600J0D01*
G01*
X121437400Y-101422200D01*
G75*
G02*
X120954800Y-100939600I0J482600D01*
G01*
G37*
G36*
G01*
X123494800Y-100939600D02*
X123494800Y-99212400D01*
G75*
G02*
X123977400Y-98729800I482600J0D01*
G01*
X124942600Y-98729800D01*
G75*
G02*
X125425200Y-99212400I0J-482600D01*
G01*
X125425200Y-100939600D01*
G75*
G02*
X124942600Y-101422200I-482600J0D01*
G01*
X123977400Y-101422200D01*
G75*
G02*
X123494800Y-100939600I0J482600D01*
G01*
G37*
G36*
G01*
X126034800Y-100939600D02*
X126034800Y-99212400D01*
G75*
G02*
X126517400Y-98729800I482600J0D01*
G01*
X127482600Y-98729800D01*
G75*
G02*
X127965200Y-99212400I0J-482600D01*
G01*
X127965200Y-100939600D01*
G75*
G02*
X127482600Y-101422200I-482600J0D01*
G01*
X126517400Y-101422200D01*
G75*
G02*
X126034800Y-100939600I0J482600D01*
G01*
G37*
G36*
G01*
X128574800Y-100939600D02*
X128574800Y-99212400D01*
G75*
G02*
X129057400Y-98729800I482600J0D01*
G01*
X130022600Y-98729800D01*
G75*
G02*
X130505200Y-99212400I0J-482600D01*
G01*
X130505200Y-100939600D01*
G75*
G02*
X130022600Y-101422200I-482600J0D01*
G01*
X129057400Y-101422200D01*
G75*
G02*
X128574800Y-100939600I0J482600D01*
G01*
G37*
G36*
G01*
X131114800Y-100939600D02*
X131114800Y-99212400D01*
G75*
G02*
X131597400Y-98729800I482600J0D01*
G01*
X132562600Y-98729800D01*
G75*
G02*
X133045200Y-99212400I0J-482600D01*
G01*
X133045200Y-100939600D01*
G75*
G02*
X132562600Y-101422200I-482600J0D01*
G01*
X131597400Y-101422200D01*
G75*
G02*
X131114800Y-100939600I0J482600D01*
G01*
G37*
G36*
G01*
X133654800Y-100939600D02*
X133654800Y-99212400D01*
G75*
G02*
X134137400Y-98729800I482600J0D01*
G01*
X135102600Y-98729800D01*
G75*
G02*
X135585200Y-99212400I0J-482600D01*
G01*
X135585200Y-100939600D01*
G75*
G02*
X135102600Y-101422200I-482600J0D01*
G01*
X134137400Y-101422200D01*
G75*
G02*
X133654800Y-100939600I0J482600D01*
G01*
G37*
G36*
G01*
X136194800Y-100939600D02*
X136194800Y-99212400D01*
G75*
G02*
X136677400Y-98729800I482600J0D01*
G01*
X137642600Y-98729800D01*
G75*
G02*
X138125200Y-99212400I0J-482600D01*
G01*
X138125200Y-100939600D01*
G75*
G02*
X137642600Y-101422200I-482600J0D01*
G01*
X136677400Y-101422200D01*
G75*
G02*
X136194800Y-100939600I0J482600D01*
G01*
G37*
G36*
G01*
X138734800Y-100939600D02*
X138734800Y-99212400D01*
G75*
G02*
X139217400Y-98729800I482600J0D01*
G01*
X140182600Y-98729800D01*
G75*
G02*
X140665200Y-99212400I0J-482600D01*
G01*
X140665200Y-100939600D01*
G75*
G02*
X140182600Y-101422200I-482600J0D01*
G01*
X139217400Y-101422200D01*
G75*
G02*
X138734800Y-100939600I0J482600D01*
G01*
G37*
G36*
G01*
X141274800Y-100939600D02*
X141274800Y-99212400D01*
G75*
G02*
X141757400Y-98729800I482600J0D01*
G01*
X142722600Y-98729800D01*
G75*
G02*
X143205200Y-99212400I0J-482600D01*
G01*
X143205200Y-100939600D01*
G75*
G02*
X142722600Y-101422200I-482600J0D01*
G01*
X141757400Y-101422200D01*
G75*
G02*
X141274800Y-100939600I0J482600D01*
G01*
G37*
G36*
G01*
X143814800Y-100939600D02*
X143814800Y-99212400D01*
G75*
G02*
X144297400Y-98729800I482600J0D01*
G01*
X145262600Y-98729800D01*
G75*
G02*
X145745200Y-99212400I0J-482600D01*
G01*
X145745200Y-100939600D01*
G75*
G02*
X145262600Y-101422200I-482600J0D01*
G01*
X144297400Y-101422200D01*
G75*
G02*
X143814800Y-100939600I0J482600D01*
G01*
G37*
G36*
G01*
X146354800Y-100939600D02*
X146354800Y-99212400D01*
G75*
G02*
X146837400Y-98729800I482600J0D01*
G01*
X147802600Y-98729800D01*
G75*
G02*
X148285200Y-99212400I0J-482600D01*
G01*
X148285200Y-100939600D01*
G75*
G02*
X147802600Y-101422200I-482600J0D01*
G01*
X146837400Y-101422200D01*
G75*
G02*
X146354800Y-100939600I0J482600D01*
G01*
G37*
G36*
G01*
X148894800Y-100939600D02*
X148894800Y-99212400D01*
G75*
G02*
X149377400Y-98729800I482600J0D01*
G01*
X150342600Y-98729800D01*
G75*
G02*
X150825200Y-99212400I0J-482600D01*
G01*
X150825200Y-100939600D01*
G75*
G02*
X150342600Y-101422200I-482600J0D01*
G01*
X149377400Y-101422200D01*
G75*
G02*
X148894800Y-100939600I0J482600D01*
G01*
G37*
G36*
G01*
X151434800Y-100939600D02*
X151434800Y-99212400D01*
G75*
G02*
X151917400Y-98729800I482600J0D01*
G01*
X152882600Y-98729800D01*
G75*
G02*
X153365200Y-99212400I0J-482600D01*
G01*
X153365200Y-100939600D01*
G75*
G02*
X152882600Y-101422200I-482600J0D01*
G01*
X151917400Y-101422200D01*
G75*
G02*
X151434800Y-100939600I0J482600D01*
G01*
G37*
G36*
G01*
X153974800Y-100939600D02*
X153974800Y-99212400D01*
G75*
G02*
X154457400Y-98729800I482600J0D01*
G01*
X155422600Y-98729800D01*
G75*
G02*
X155905200Y-99212400I0J-482600D01*
G01*
X155905200Y-100939600D01*
G75*
G02*
X155422600Y-101422200I-482600J0D01*
G01*
X154457400Y-101422200D01*
G75*
G02*
X153974800Y-100939600I0J482600D01*
G01*
G37*
G36*
G01*
X156514800Y-100939600D02*
X156514800Y-99212400D01*
G75*
G02*
X156997400Y-98729800I482600J0D01*
G01*
X157962600Y-98729800D01*
G75*
G02*
X158445200Y-99212400I0J-482600D01*
G01*
X158445200Y-100939600D01*
G75*
G02*
X157962600Y-101422200I-482600J0D01*
G01*
X156997400Y-101422200D01*
G75*
G02*
X156514800Y-100939600I0J482600D01*
G01*
G37*
D13*
X88900000Y-98806000D03*
X86360000Y-98806000D03*
X83820000Y-98806000D03*
X93980000Y-98806000D03*
X91440000Y-98806000D03*
X96520000Y-98806000D03*
X99060000Y-98806000D03*
X104140000Y-98806000D03*
X101600000Y-98806000D03*
X109220000Y-98806000D03*
X106680000Y-98806000D03*
X111760000Y-98806000D03*
X116840000Y-98806000D03*
X114300000Y-98806000D03*
X119380000Y-98806000D03*
X124460000Y-98806000D03*
X121920000Y-98806000D03*
X127000000Y-98806000D03*
X149860000Y-98806000D03*
X147320000Y-98806000D03*
X152400000Y-98806000D03*
X134620000Y-98806000D03*
X132080000Y-98806000D03*
X137160000Y-98806000D03*
X142240000Y-98806000D03*
X139700000Y-98806000D03*
X144780000Y-98806000D03*
X129540000Y-98806000D03*
X154940000Y-98806000D03*
X157480000Y-98806000D03*
M02*
