G04 #@! TF.GenerationSoftware,KiCad,Pcbnew,7.0.1-0*
G04 #@! TF.CreationDate,2023-11-01T19:37:55-04:00*
G04 #@! TF.ProjectId,GW4194,47573431-3934-42e6-9b69-6361645f7063,1.1-SOJ-DC*
G04 #@! TF.SameCoordinates,Original*
G04 #@! TF.FileFunction,Copper,L2,Inr*
G04 #@! TF.FilePolarity,Positive*
%FSLAX46Y46*%
G04 Gerber Fmt 4.6, Leading zero omitted, Abs format (unit mm)*
G04 Created by KiCad (PCBNEW 7.0.1-0) date 2023-11-01 19:37:55*
%MOMM*%
%LPD*%
G01*
G04 APERTURE LIST*
G04 #@! TA.AperFunction,ComponentPad*
%ADD10C,0.800000*%
G04 #@! TD*
G04 #@! TA.AperFunction,ViaPad*
%ADD11C,0.508000*%
G04 #@! TD*
G04 #@! TA.AperFunction,ViaPad*
%ADD12C,0.800000*%
G04 #@! TD*
G04 #@! TA.AperFunction,ViaPad*
%ADD13C,0.600000*%
G04 #@! TD*
G04 #@! TA.AperFunction,ViaPad*
%ADD14C,1.000000*%
G04 #@! TD*
G04 APERTURE END LIST*
D10*
X83820000Y-98806000D03*
X86360000Y-98806000D03*
X88900000Y-98806000D03*
X91440000Y-98806000D03*
X93980000Y-98806000D03*
X96520000Y-98806000D03*
X99060000Y-98806000D03*
X101600000Y-98806000D03*
X104140000Y-98806000D03*
X106680000Y-98806000D03*
X109220000Y-98806000D03*
X111760000Y-98806000D03*
X114300000Y-98806000D03*
X116840000Y-98806000D03*
X119380000Y-98806000D03*
X121920000Y-98806000D03*
X124460000Y-98806000D03*
X127000000Y-98806000D03*
X129540000Y-98806000D03*
X132080000Y-98806000D03*
X134620000Y-98806000D03*
X137160000Y-98806000D03*
X139700000Y-98806000D03*
X142240000Y-98806000D03*
X144780000Y-98806000D03*
X147320000Y-98806000D03*
X149860000Y-98806000D03*
X152400000Y-98806000D03*
X154940000Y-98806000D03*
X157480000Y-98806000D03*
D11*
X77089000Y-86995000D03*
X164211000Y-86995000D03*
X164211000Y-96139000D03*
X78994000Y-94742000D03*
X159131000Y-82169000D03*
X148971000Y-82169000D03*
X92329000Y-82169000D03*
X102489000Y-82169000D03*
X138811000Y-82169000D03*
X82169000Y-82169000D03*
X112649000Y-82169000D03*
X128651000Y-82169000D03*
D12*
X155250000Y-94300000D03*
X154350000Y-95500000D03*
X153450000Y-94300000D03*
X117729000Y-91821000D03*
D13*
X102870000Y-90868500D03*
X121920000Y-90868500D03*
D11*
X140779500Y-92519500D03*
D13*
X103568500Y-92837000D03*
X87630000Y-90932000D03*
D12*
X85090000Y-91313000D03*
X158750000Y-94107000D03*
X106807000Y-92075000D03*
D13*
X137160000Y-94805500D03*
X87630000Y-94805500D03*
D12*
X105410000Y-91313000D03*
D13*
X86931500Y-92837000D03*
D12*
X139700000Y-91186000D03*
X83820000Y-92456000D03*
D13*
X121920000Y-94805500D03*
X137160000Y-90868500D03*
D12*
X119380000Y-91313000D03*
D14*
X157480000Y-95377000D03*
D11*
X146050000Y-97853500D03*
X147400000Y-96500000D03*
X158600000Y-90450000D03*
X127000000Y-90932000D03*
X112522000Y-92456000D03*
X84450000Y-86500000D03*
X91440000Y-88392000D03*
X112776000Y-95377000D03*
X110617000Y-93345000D03*
X95250000Y-90932000D03*
X112395000Y-89408000D03*
X119634000Y-89408000D03*
X111252000Y-97536000D03*
X117729000Y-97917000D03*
X118872000Y-97536000D03*
X139065000Y-97409000D03*
X89408000Y-97028000D03*
X88074500Y-97282000D03*
X114173000Y-92964000D03*
X114935000Y-91948000D03*
X114681000Y-95758000D03*
X144145000Y-97409000D03*
X143129000Y-96393000D03*
X88900000Y-90043000D03*
X87630000Y-90043000D03*
X90170000Y-90043000D03*
X91948000Y-89662000D03*
X126238000Y-89598500D03*
X112395000Y-93472000D03*
X113411000Y-91948000D03*
X116205000Y-92964000D03*
X111506000Y-92583000D03*
X121412000Y-97536000D03*
X122428000Y-97536000D03*
X110363000Y-95377000D03*
X163957000Y-82423000D03*
X164147500Y-100647500D03*
X79184500Y-100647500D03*
X77152500Y-94297500D03*
X77089000Y-91440000D03*
X79883000Y-84709000D03*
X161290000Y-93853000D03*
X161290000Y-98552000D03*
X80899000Y-97790000D03*
X79883000Y-88900000D03*
X133350000Y-98298000D03*
X110109000Y-97917000D03*
X102743000Y-97917000D03*
X99949000Y-97917000D03*
X97409000Y-97917000D03*
X158623000Y-96139000D03*
X111569500Y-94234000D03*
X104013000Y-89408000D03*
X108839000Y-95377000D03*
X112014000Y-90551000D03*
X164211000Y-91567000D03*
X77343000Y-82423000D03*
X154051000Y-82169000D03*
X87249000Y-82169000D03*
X97409000Y-82169000D03*
X143891000Y-82169000D03*
X110109000Y-84963000D03*
X105029000Y-84963000D03*
X115189000Y-84963000D03*
X126111000Y-83502500D03*
X107569000Y-82169000D03*
X117729000Y-82169000D03*
X123571000Y-82169000D03*
X133731000Y-82169000D03*
X128270000Y-98298000D03*
X143510000Y-98298000D03*
X157350000Y-86050000D03*
D12*
X156200000Y-92200000D03*
D11*
X148050000Y-86850000D03*
X155650000Y-86200000D03*
X143000000Y-86550000D03*
X140950000Y-88900000D03*
D13*
X137160000Y-84518500D03*
X137160000Y-88392000D03*
D12*
X150000000Y-94100000D03*
D13*
X102870000Y-83629500D03*
D11*
X105410000Y-94996000D03*
X140779500Y-93980000D03*
D13*
X121920000Y-89471500D03*
D11*
X84450000Y-84500000D03*
D13*
X145800000Y-95050000D03*
X87630000Y-84518500D03*
D12*
X151250000Y-95150000D03*
X83820000Y-94107000D03*
X119380000Y-95250000D03*
X158750000Y-92456000D03*
X85090000Y-95250000D03*
D13*
X148200000Y-89450000D03*
X146900000Y-93950000D03*
X153550000Y-89050000D03*
X121920000Y-83883500D03*
D12*
X139700000Y-95250000D03*
D13*
X86931500Y-86487000D03*
D11*
X148900000Y-95000000D03*
D13*
X138557000Y-94107000D03*
X144700000Y-93950000D03*
D12*
X157480000Y-91313000D03*
D11*
X158450000Y-89250000D03*
D13*
X137858500Y-86487000D03*
D12*
X118110000Y-94107000D03*
D13*
X104267000Y-94107000D03*
D11*
X93027500Y-96520000D03*
D13*
X86233000Y-94107000D03*
D12*
X106680000Y-94107000D03*
D13*
X87630000Y-88455500D03*
X155800000Y-89100000D03*
D12*
X155300000Y-91000000D03*
D11*
X129540000Y-90932000D03*
D12*
X152500000Y-94100000D03*
D11*
X146800000Y-90150000D03*
X132080000Y-90932000D03*
X100330000Y-90932000D03*
X99060000Y-90932000D03*
X133350000Y-90932000D03*
X97790000Y-90932000D03*
X134620000Y-90932000D03*
X135890000Y-90932000D03*
X96520000Y-90932000D03*
X93980000Y-88392000D03*
X135890000Y-88392000D03*
X96520000Y-88392000D03*
X134620000Y-88392000D03*
X133350000Y-88392000D03*
X97790000Y-88392000D03*
X132080000Y-88392000D03*
X99060000Y-88392000D03*
X130810000Y-88392000D03*
X100330000Y-88392000D03*
X101600000Y-90932000D03*
X130810000Y-90932000D03*
X101600000Y-88392000D03*
X128270000Y-88392000D03*
X125730000Y-90932000D03*
X115189000Y-93281500D03*
D13*
X146950000Y-92400000D03*
D11*
X147600000Y-91500000D03*
X154700000Y-86650000D03*
D12*
X150050000Y-92400000D03*
D11*
X145800000Y-91500000D03*
D12*
X153400000Y-91000000D03*
D13*
X144700000Y-92550000D03*
D12*
X152500000Y-92200000D03*
D11*
X156550000Y-86650000D03*
D12*
X151250000Y-91350000D03*
D13*
X153500000Y-87350000D03*
X155900000Y-87550000D03*
G04 #@! TA.AperFunction,Conductor*
G36*
X163578947Y-81585531D02*
G01*
X163760755Y-81599840D01*
X163772394Y-81601683D01*
X163946844Y-81643565D01*
X163958060Y-81647209D01*
X164123815Y-81715867D01*
X164134323Y-81721222D01*
X164287290Y-81814961D01*
X164296835Y-81821895D01*
X164433255Y-81938409D01*
X164441590Y-81946744D01*
X164481255Y-81993185D01*
X164558103Y-82083163D01*
X164565038Y-82092709D01*
X164658777Y-82245676D01*
X164664135Y-82256190D01*
X164732789Y-82421936D01*
X164736435Y-82433159D01*
X164778314Y-82607597D01*
X164780160Y-82619252D01*
X164794468Y-82801052D01*
X164794700Y-82806952D01*
X164794700Y-101219500D01*
X164784625Y-101257100D01*
X164757100Y-101284625D01*
X164719500Y-101294700D01*
X78612500Y-101294700D01*
X78574900Y-101284625D01*
X78547375Y-101257100D01*
X78537300Y-101219500D01*
X78537300Y-99568000D01*
X85852000Y-99568000D01*
X85852000Y-100457000D01*
X86868000Y-100457000D01*
X86868000Y-99568000D01*
X88392000Y-99568000D01*
X88392000Y-100457000D01*
X89408000Y-100457000D01*
X89408000Y-99568000D01*
X90932000Y-99568000D01*
X90932000Y-100457000D01*
X91948000Y-100457000D01*
X91948000Y-99568000D01*
X93472000Y-99568000D01*
X93472000Y-100457000D01*
X94488000Y-100457000D01*
X94488000Y-99568000D01*
X96012000Y-99568000D01*
X96012000Y-100457000D01*
X97028000Y-100457000D01*
X97028000Y-99568000D01*
X98552000Y-99568000D01*
X98552000Y-100457000D01*
X99568000Y-100457000D01*
X99568000Y-99568000D01*
X101092000Y-99568000D01*
X101092000Y-100457000D01*
X102108000Y-100457000D01*
X102108000Y-99568000D01*
X106172000Y-99568000D01*
X106172000Y-100457000D01*
X107188000Y-100457000D01*
X107188000Y-99568000D01*
X108712000Y-99568000D01*
X108712000Y-100457000D01*
X109728000Y-100457000D01*
X109728000Y-99568000D01*
X111252000Y-99568000D01*
X111252000Y-100457000D01*
X112268000Y-100457000D01*
X112268000Y-99568000D01*
X113792000Y-99568000D01*
X113792000Y-100457000D01*
X114808000Y-100457000D01*
X114808000Y-99568000D01*
X116332000Y-99568000D01*
X116332000Y-100457000D01*
X117348000Y-100457000D01*
X117348000Y-99568000D01*
X118872000Y-99568000D01*
X118872000Y-100457000D01*
X119888000Y-100457000D01*
X119888000Y-99568000D01*
X121412000Y-99568000D01*
X121412000Y-100457000D01*
X122428000Y-100457000D01*
X122428000Y-99568000D01*
X123952000Y-99568000D01*
X123952000Y-100457000D01*
X124968000Y-100457000D01*
X124968000Y-99568000D01*
X126492000Y-99568000D01*
X126492000Y-100457000D01*
X127508000Y-100457000D01*
X127508000Y-99568000D01*
X129032000Y-99568000D01*
X129032000Y-100457000D01*
X130048000Y-100457000D01*
X130048000Y-99568000D01*
X131572000Y-99568000D01*
X131572000Y-100457000D01*
X132588000Y-100457000D01*
X132588000Y-99568000D01*
X134112000Y-99568000D01*
X134112000Y-100457000D01*
X135128000Y-100457000D01*
X135128000Y-99568000D01*
X139192000Y-99568000D01*
X139192000Y-100457000D01*
X140208000Y-100457000D01*
X140208000Y-99568000D01*
X141732000Y-99568000D01*
X141732000Y-100457000D01*
X142748000Y-100457000D01*
X142748000Y-99568000D01*
X144272000Y-99568000D01*
X144272000Y-100457000D01*
X145288000Y-100457000D01*
X145288000Y-99568000D01*
X146812000Y-99568000D01*
X146812000Y-100457000D01*
X147828000Y-100457000D01*
X147828000Y-99568000D01*
X149352000Y-99568000D01*
X149352000Y-100457000D01*
X150368000Y-100457000D01*
X150368000Y-99568000D01*
X151892000Y-99568000D01*
X151892000Y-100457000D01*
X152908000Y-100457000D01*
X152908000Y-99568000D01*
X154432000Y-99568000D01*
X154432000Y-100457000D01*
X155448000Y-100457000D01*
X155448000Y-99568000D01*
X154432000Y-99568000D01*
X152908000Y-99568000D01*
X151892000Y-99568000D01*
X150368000Y-99568000D01*
X149352000Y-99568000D01*
X147828000Y-99568000D01*
X146812000Y-99568000D01*
X145288000Y-99568000D01*
X144272000Y-99568000D01*
X142748000Y-99568000D01*
X141732000Y-99568000D01*
X140208000Y-99568000D01*
X139192000Y-99568000D01*
X135128000Y-99568000D01*
X134112000Y-99568000D01*
X132588000Y-99568000D01*
X131572000Y-99568000D01*
X130048000Y-99568000D01*
X129032000Y-99568000D01*
X127508000Y-99568000D01*
X126492000Y-99568000D01*
X124968000Y-99568000D01*
X123952000Y-99568000D01*
X122428000Y-99568000D01*
X121412000Y-99568000D01*
X119888000Y-99568000D01*
X118872000Y-99568000D01*
X117348000Y-99568000D01*
X116332000Y-99568000D01*
X114808000Y-99568000D01*
X113792000Y-99568000D01*
X112268000Y-99568000D01*
X111252000Y-99568000D01*
X109728000Y-99568000D01*
X108712000Y-99568000D01*
X107188000Y-99568000D01*
X106172000Y-99568000D01*
X102108000Y-99568000D01*
X101092000Y-99568000D01*
X99568000Y-99568000D01*
X98552000Y-99568000D01*
X97028000Y-99568000D01*
X96012000Y-99568000D01*
X94488000Y-99568000D01*
X93472000Y-99568000D01*
X91948000Y-99568000D01*
X90932000Y-99568000D01*
X89408000Y-99568000D01*
X88392000Y-99568000D01*
X86868000Y-99568000D01*
X85852000Y-99568000D01*
X78537300Y-99568000D01*
X78537300Y-98806000D01*
X83262329Y-98806000D01*
X83281331Y-98950336D01*
X83337043Y-99084837D01*
X83381354Y-99142584D01*
X83425667Y-99200333D01*
X83500924Y-99258080D01*
X83541162Y-99288956D01*
X83541163Y-99288956D01*
X83541164Y-99288957D01*
X83675664Y-99344669D01*
X83820000Y-99363671D01*
X83964336Y-99344669D01*
X84098836Y-99288957D01*
X84214333Y-99200333D01*
X84302957Y-99084836D01*
X84358669Y-98950336D01*
X84377671Y-98806000D01*
X85802329Y-98806000D01*
X85821331Y-98950336D01*
X85877043Y-99084837D01*
X85921354Y-99142584D01*
X85965667Y-99200333D01*
X86040924Y-99258080D01*
X86081162Y-99288956D01*
X86081163Y-99288956D01*
X86081164Y-99288957D01*
X86215664Y-99344669D01*
X86360000Y-99363671D01*
X86504336Y-99344669D01*
X86638836Y-99288957D01*
X86754333Y-99200333D01*
X86842957Y-99084836D01*
X86898669Y-98950336D01*
X86917671Y-98806000D01*
X88342329Y-98806000D01*
X88361331Y-98950336D01*
X88417043Y-99084837D01*
X88461354Y-99142584D01*
X88505667Y-99200333D01*
X88580924Y-99258080D01*
X88621162Y-99288956D01*
X88621163Y-99288956D01*
X88621164Y-99288957D01*
X88755664Y-99344669D01*
X88900000Y-99363671D01*
X89044336Y-99344669D01*
X89178836Y-99288957D01*
X89294333Y-99200333D01*
X89382957Y-99084836D01*
X89438669Y-98950336D01*
X89457671Y-98806000D01*
X90882329Y-98806000D01*
X90901331Y-98950336D01*
X90957043Y-99084837D01*
X91001354Y-99142584D01*
X91045667Y-99200333D01*
X91120924Y-99258080D01*
X91161162Y-99288956D01*
X91161163Y-99288956D01*
X91161164Y-99288957D01*
X91295664Y-99344669D01*
X91440000Y-99363671D01*
X91584336Y-99344669D01*
X91718836Y-99288957D01*
X91834333Y-99200333D01*
X91922957Y-99084836D01*
X91978669Y-98950336D01*
X91997671Y-98806000D01*
X93422329Y-98806000D01*
X93441331Y-98950336D01*
X93497043Y-99084837D01*
X93541354Y-99142584D01*
X93585667Y-99200333D01*
X93660924Y-99258080D01*
X93701162Y-99288956D01*
X93701163Y-99288956D01*
X93701164Y-99288957D01*
X93835664Y-99344669D01*
X93980000Y-99363671D01*
X94124336Y-99344669D01*
X94258836Y-99288957D01*
X94374333Y-99200333D01*
X94462957Y-99084836D01*
X94518669Y-98950336D01*
X94537671Y-98806000D01*
X95962329Y-98806000D01*
X95981331Y-98950336D01*
X96037043Y-99084837D01*
X96081354Y-99142584D01*
X96125667Y-99200333D01*
X96200924Y-99258080D01*
X96241162Y-99288956D01*
X96241163Y-99288956D01*
X96241164Y-99288957D01*
X96375664Y-99344669D01*
X96520000Y-99363671D01*
X96664336Y-99344669D01*
X96798836Y-99288957D01*
X96914333Y-99200333D01*
X97002957Y-99084836D01*
X97058669Y-98950336D01*
X97077671Y-98806000D01*
X98502329Y-98806000D01*
X98521331Y-98950336D01*
X98577043Y-99084837D01*
X98621354Y-99142584D01*
X98665667Y-99200333D01*
X98740924Y-99258080D01*
X98781162Y-99288956D01*
X98781163Y-99288956D01*
X98781164Y-99288957D01*
X98915664Y-99344669D01*
X99060000Y-99363671D01*
X99204336Y-99344669D01*
X99338836Y-99288957D01*
X99454333Y-99200333D01*
X99542957Y-99084836D01*
X99598669Y-98950336D01*
X99617671Y-98806000D01*
X101042329Y-98806000D01*
X101061331Y-98950336D01*
X101117043Y-99084837D01*
X101161354Y-99142584D01*
X101205667Y-99200333D01*
X101280924Y-99258080D01*
X101321162Y-99288956D01*
X101321163Y-99288956D01*
X101321164Y-99288957D01*
X101455664Y-99344669D01*
X101600000Y-99363671D01*
X101744336Y-99344669D01*
X101878836Y-99288957D01*
X101994333Y-99200333D01*
X102082957Y-99084836D01*
X102138669Y-98950336D01*
X102157671Y-98806000D01*
X106122329Y-98806000D01*
X106141331Y-98950336D01*
X106197043Y-99084837D01*
X106241354Y-99142584D01*
X106285667Y-99200333D01*
X106360924Y-99258080D01*
X106401162Y-99288956D01*
X106401163Y-99288956D01*
X106401164Y-99288957D01*
X106535664Y-99344669D01*
X106680000Y-99363671D01*
X106824336Y-99344669D01*
X106958836Y-99288957D01*
X107074333Y-99200333D01*
X107162957Y-99084836D01*
X107218669Y-98950336D01*
X107237671Y-98806000D01*
X108662329Y-98806000D01*
X108681331Y-98950336D01*
X108737043Y-99084837D01*
X108781354Y-99142584D01*
X108825667Y-99200333D01*
X108900924Y-99258080D01*
X108941162Y-99288956D01*
X108941163Y-99288956D01*
X108941164Y-99288957D01*
X109075664Y-99344669D01*
X109220000Y-99363671D01*
X109364336Y-99344669D01*
X109498836Y-99288957D01*
X109614333Y-99200333D01*
X109702957Y-99084836D01*
X109758669Y-98950336D01*
X109777671Y-98806000D01*
X111202329Y-98806000D01*
X111221331Y-98950336D01*
X111277043Y-99084837D01*
X111321354Y-99142584D01*
X111365667Y-99200333D01*
X111440924Y-99258080D01*
X111481162Y-99288956D01*
X111481163Y-99288956D01*
X111481164Y-99288957D01*
X111615664Y-99344669D01*
X111760000Y-99363671D01*
X111904336Y-99344669D01*
X112038836Y-99288957D01*
X112154333Y-99200333D01*
X112242957Y-99084836D01*
X112298669Y-98950336D01*
X112317671Y-98806000D01*
X113742329Y-98806000D01*
X113761331Y-98950336D01*
X113817043Y-99084837D01*
X113861354Y-99142584D01*
X113905667Y-99200333D01*
X113980924Y-99258080D01*
X114021162Y-99288956D01*
X114021163Y-99288956D01*
X114021164Y-99288957D01*
X114155664Y-99344669D01*
X114300000Y-99363671D01*
X114444336Y-99344669D01*
X114578836Y-99288957D01*
X114694333Y-99200333D01*
X114782957Y-99084836D01*
X114838669Y-98950336D01*
X114857671Y-98806000D01*
X116282329Y-98806000D01*
X116301331Y-98950336D01*
X116357043Y-99084837D01*
X116401354Y-99142584D01*
X116445667Y-99200333D01*
X116520924Y-99258080D01*
X116561162Y-99288956D01*
X116561163Y-99288956D01*
X116561164Y-99288957D01*
X116695664Y-99344669D01*
X116840000Y-99363671D01*
X116984336Y-99344669D01*
X117118836Y-99288957D01*
X117234333Y-99200333D01*
X117322957Y-99084836D01*
X117378669Y-98950336D01*
X117397671Y-98806000D01*
X118822329Y-98806000D01*
X118841331Y-98950336D01*
X118897043Y-99084837D01*
X118941354Y-99142584D01*
X118985667Y-99200333D01*
X119060924Y-99258080D01*
X119101162Y-99288956D01*
X119101163Y-99288956D01*
X119101164Y-99288957D01*
X119235664Y-99344669D01*
X119380000Y-99363671D01*
X119524336Y-99344669D01*
X119658836Y-99288957D01*
X119774333Y-99200333D01*
X119862957Y-99084836D01*
X119918669Y-98950336D01*
X119937671Y-98806000D01*
X119937671Y-98805999D01*
X121362329Y-98805999D01*
X121381331Y-98950336D01*
X121437043Y-99084837D01*
X121481354Y-99142584D01*
X121525667Y-99200333D01*
X121600924Y-99258080D01*
X121641162Y-99288956D01*
X121641163Y-99288956D01*
X121641164Y-99288957D01*
X121775664Y-99344669D01*
X121920000Y-99363671D01*
X122064336Y-99344669D01*
X122198836Y-99288957D01*
X122314333Y-99200333D01*
X122402957Y-99084836D01*
X122458669Y-98950336D01*
X122477671Y-98806000D01*
X122477671Y-98805999D01*
X123902329Y-98805999D01*
X123921331Y-98950336D01*
X123977043Y-99084837D01*
X124021354Y-99142584D01*
X124065667Y-99200333D01*
X124140924Y-99258080D01*
X124181162Y-99288956D01*
X124181163Y-99288956D01*
X124181164Y-99288957D01*
X124315664Y-99344669D01*
X124460000Y-99363671D01*
X124604336Y-99344669D01*
X124738836Y-99288957D01*
X124854333Y-99200333D01*
X124942957Y-99084836D01*
X124998669Y-98950336D01*
X125017671Y-98806000D01*
X125017671Y-98805999D01*
X126442329Y-98805999D01*
X126461331Y-98950336D01*
X126517043Y-99084837D01*
X126561354Y-99142584D01*
X126605667Y-99200333D01*
X126680924Y-99258080D01*
X126721162Y-99288956D01*
X126721163Y-99288956D01*
X126721164Y-99288957D01*
X126855664Y-99344669D01*
X127000000Y-99363671D01*
X127144336Y-99344669D01*
X127278836Y-99288957D01*
X127394333Y-99200333D01*
X127482957Y-99084836D01*
X127538669Y-98950336D01*
X127557671Y-98806000D01*
X127557671Y-98805999D01*
X128982329Y-98805999D01*
X129001331Y-98950336D01*
X129057043Y-99084837D01*
X129101354Y-99142584D01*
X129145667Y-99200333D01*
X129220924Y-99258080D01*
X129261162Y-99288956D01*
X129261163Y-99288956D01*
X129261164Y-99288957D01*
X129395664Y-99344669D01*
X129540000Y-99363671D01*
X129684336Y-99344669D01*
X129818836Y-99288957D01*
X129934333Y-99200333D01*
X130022957Y-99084836D01*
X130078669Y-98950336D01*
X130097671Y-98806000D01*
X130097671Y-98805999D01*
X131522329Y-98805999D01*
X131541331Y-98950336D01*
X131597043Y-99084837D01*
X131641354Y-99142584D01*
X131685667Y-99200333D01*
X131760924Y-99258080D01*
X131801162Y-99288956D01*
X131801163Y-99288956D01*
X131801164Y-99288957D01*
X131935664Y-99344669D01*
X132080000Y-99363671D01*
X132224336Y-99344669D01*
X132358836Y-99288957D01*
X132474333Y-99200333D01*
X132562957Y-99084836D01*
X132618669Y-98950336D01*
X132637671Y-98806000D01*
X132637671Y-98805999D01*
X134062329Y-98805999D01*
X134081331Y-98950336D01*
X134137043Y-99084837D01*
X134181354Y-99142584D01*
X134225667Y-99200333D01*
X134300924Y-99258080D01*
X134341162Y-99288956D01*
X134341163Y-99288956D01*
X134341164Y-99288957D01*
X134475664Y-99344669D01*
X134620000Y-99363671D01*
X134764336Y-99344669D01*
X134898836Y-99288957D01*
X135014333Y-99200333D01*
X135102957Y-99084836D01*
X135158669Y-98950336D01*
X135177671Y-98806000D01*
X135177671Y-98805999D01*
X139142329Y-98805999D01*
X139161331Y-98950336D01*
X139217043Y-99084837D01*
X139261354Y-99142584D01*
X139305667Y-99200333D01*
X139380924Y-99258080D01*
X139421162Y-99288956D01*
X139421163Y-99288956D01*
X139421164Y-99288957D01*
X139555664Y-99344669D01*
X139700000Y-99363671D01*
X139844336Y-99344669D01*
X139978836Y-99288957D01*
X140094333Y-99200333D01*
X140182957Y-99084836D01*
X140238669Y-98950336D01*
X140257671Y-98806000D01*
X140257671Y-98805999D01*
X141682329Y-98805999D01*
X141701331Y-98950336D01*
X141757043Y-99084837D01*
X141801354Y-99142584D01*
X141845667Y-99200333D01*
X141920924Y-99258080D01*
X141961162Y-99288956D01*
X141961163Y-99288956D01*
X141961164Y-99288957D01*
X142095664Y-99344669D01*
X142240000Y-99363671D01*
X142384336Y-99344669D01*
X142518836Y-99288957D01*
X142634333Y-99200333D01*
X142722957Y-99084836D01*
X142778669Y-98950336D01*
X142797671Y-98806000D01*
X142797671Y-98805999D01*
X144222329Y-98805999D01*
X144241331Y-98950336D01*
X144297043Y-99084837D01*
X144341354Y-99142584D01*
X144385667Y-99200333D01*
X144460924Y-99258080D01*
X144501162Y-99288956D01*
X144501163Y-99288956D01*
X144501164Y-99288957D01*
X144635664Y-99344669D01*
X144780000Y-99363671D01*
X144924336Y-99344669D01*
X145058836Y-99288957D01*
X145174333Y-99200333D01*
X145262957Y-99084836D01*
X145318669Y-98950336D01*
X145337671Y-98806000D01*
X145337671Y-98805999D01*
X146762329Y-98805999D01*
X146781331Y-98950336D01*
X146837043Y-99084837D01*
X146881354Y-99142584D01*
X146925667Y-99200333D01*
X147000924Y-99258080D01*
X147041162Y-99288956D01*
X147041163Y-99288956D01*
X147041164Y-99288957D01*
X147175664Y-99344669D01*
X147320000Y-99363671D01*
X147464336Y-99344669D01*
X147598836Y-99288957D01*
X147714333Y-99200333D01*
X147802957Y-99084836D01*
X147858669Y-98950336D01*
X147877671Y-98806000D01*
X147877671Y-98805999D01*
X149302329Y-98805999D01*
X149321331Y-98950336D01*
X149377043Y-99084837D01*
X149421354Y-99142584D01*
X149465667Y-99200333D01*
X149540924Y-99258080D01*
X149581162Y-99288956D01*
X149581163Y-99288956D01*
X149581164Y-99288957D01*
X149715664Y-99344669D01*
X149860000Y-99363671D01*
X150004336Y-99344669D01*
X150138836Y-99288957D01*
X150254333Y-99200333D01*
X150342957Y-99084836D01*
X150398669Y-98950336D01*
X150417671Y-98806000D01*
X150417671Y-98805999D01*
X151842329Y-98805999D01*
X151861331Y-98950336D01*
X151917043Y-99084837D01*
X151961354Y-99142584D01*
X152005667Y-99200333D01*
X152080924Y-99258080D01*
X152121162Y-99288956D01*
X152121163Y-99288956D01*
X152121164Y-99288957D01*
X152255664Y-99344669D01*
X152400000Y-99363671D01*
X152544336Y-99344669D01*
X152678836Y-99288957D01*
X152794333Y-99200333D01*
X152882957Y-99084836D01*
X152938669Y-98950336D01*
X152957671Y-98806000D01*
X152957671Y-98805999D01*
X154382329Y-98805999D01*
X154401331Y-98950336D01*
X154457043Y-99084837D01*
X154501354Y-99142584D01*
X154545667Y-99200333D01*
X154620924Y-99258080D01*
X154661162Y-99288956D01*
X154661163Y-99288956D01*
X154661164Y-99288957D01*
X154795664Y-99344669D01*
X154940000Y-99363671D01*
X155084336Y-99344669D01*
X155218836Y-99288957D01*
X155334333Y-99200333D01*
X155422957Y-99084836D01*
X155478669Y-98950336D01*
X155497671Y-98806000D01*
X155497671Y-98805999D01*
X156922329Y-98805999D01*
X156941331Y-98950336D01*
X156997043Y-99084837D01*
X157041354Y-99142584D01*
X157085667Y-99200333D01*
X157160924Y-99258080D01*
X157201162Y-99288956D01*
X157201163Y-99288956D01*
X157201164Y-99288957D01*
X157335664Y-99344669D01*
X157480000Y-99363671D01*
X157624336Y-99344669D01*
X157758836Y-99288957D01*
X157874333Y-99200333D01*
X157962957Y-99084836D01*
X158018669Y-98950336D01*
X158037671Y-98806000D01*
X158018669Y-98661664D01*
X157962957Y-98527165D01*
X157874333Y-98411667D01*
X157816584Y-98367354D01*
X157758837Y-98323043D01*
X157624336Y-98267331D01*
X157480000Y-98248329D01*
X157335664Y-98267331D01*
X157201164Y-98323043D01*
X157085667Y-98411667D01*
X156997043Y-98527164D01*
X156941331Y-98661664D01*
X156922329Y-98805999D01*
X155497671Y-98805999D01*
X155478669Y-98661664D01*
X155422957Y-98527165D01*
X155334333Y-98411667D01*
X155276584Y-98367354D01*
X155218837Y-98323043D01*
X155084336Y-98267331D01*
X154940000Y-98248329D01*
X154795664Y-98267331D01*
X154661164Y-98323043D01*
X154545667Y-98411667D01*
X154457043Y-98527164D01*
X154401331Y-98661664D01*
X154382329Y-98805999D01*
X152957671Y-98805999D01*
X152938669Y-98661664D01*
X152882957Y-98527165D01*
X152794333Y-98411667D01*
X152736584Y-98367354D01*
X152678837Y-98323043D01*
X152544336Y-98267331D01*
X152400000Y-98248329D01*
X152255664Y-98267331D01*
X152121164Y-98323043D01*
X152005667Y-98411667D01*
X151917043Y-98527164D01*
X151861331Y-98661664D01*
X151842329Y-98805999D01*
X150417671Y-98805999D01*
X150398669Y-98661664D01*
X150342957Y-98527165D01*
X150254333Y-98411667D01*
X150196584Y-98367354D01*
X150138837Y-98323043D01*
X150004336Y-98267331D01*
X149860000Y-98248329D01*
X149715664Y-98267331D01*
X149581164Y-98323043D01*
X149465667Y-98411667D01*
X149377043Y-98527164D01*
X149321331Y-98661664D01*
X149302329Y-98805999D01*
X147877671Y-98805999D01*
X147858669Y-98661664D01*
X147802957Y-98527165D01*
X147714333Y-98411667D01*
X147656584Y-98367354D01*
X147598837Y-98323043D01*
X147464336Y-98267331D01*
X147320000Y-98248329D01*
X147175664Y-98267331D01*
X147041164Y-98323043D01*
X146925667Y-98411667D01*
X146837043Y-98527164D01*
X146781331Y-98661664D01*
X146762329Y-98805999D01*
X145337671Y-98805999D01*
X145318669Y-98661664D01*
X145262957Y-98527165D01*
X145174333Y-98411667D01*
X145116584Y-98367354D01*
X145058837Y-98323043D01*
X144924336Y-98267331D01*
X144780000Y-98248329D01*
X144635664Y-98267331D01*
X144501164Y-98323043D01*
X144385667Y-98411667D01*
X144297043Y-98527164D01*
X144241331Y-98661664D01*
X144222329Y-98805999D01*
X142797671Y-98805999D01*
X142778669Y-98661664D01*
X142722957Y-98527165D01*
X142634333Y-98411667D01*
X142576584Y-98367354D01*
X142518837Y-98323043D01*
X142384336Y-98267331D01*
X142240000Y-98248329D01*
X142095664Y-98267331D01*
X141961164Y-98323043D01*
X141845667Y-98411667D01*
X141757043Y-98527164D01*
X141701331Y-98661664D01*
X141682329Y-98805999D01*
X140257671Y-98805999D01*
X140238669Y-98661664D01*
X140182957Y-98527165D01*
X140094333Y-98411667D01*
X140036584Y-98367354D01*
X139978837Y-98323043D01*
X139844336Y-98267331D01*
X139700000Y-98248329D01*
X139555664Y-98267331D01*
X139421164Y-98323043D01*
X139305667Y-98411667D01*
X139217043Y-98527164D01*
X139161331Y-98661664D01*
X139142329Y-98805999D01*
X135177671Y-98805999D01*
X135158669Y-98661664D01*
X135102957Y-98527165D01*
X135014333Y-98411667D01*
X134956584Y-98367354D01*
X134898837Y-98323043D01*
X134764336Y-98267331D01*
X134620000Y-98248329D01*
X134475664Y-98267331D01*
X134341164Y-98323043D01*
X134225667Y-98411667D01*
X134137043Y-98527164D01*
X134081331Y-98661664D01*
X134062329Y-98805999D01*
X132637671Y-98805999D01*
X132618669Y-98661664D01*
X132562957Y-98527165D01*
X132474333Y-98411667D01*
X132416584Y-98367354D01*
X132358837Y-98323043D01*
X132224336Y-98267331D01*
X132080000Y-98248329D01*
X131935664Y-98267331D01*
X131801164Y-98323043D01*
X131685667Y-98411667D01*
X131597043Y-98527164D01*
X131541331Y-98661664D01*
X131522329Y-98805999D01*
X130097671Y-98805999D01*
X130078669Y-98661664D01*
X130022957Y-98527165D01*
X129934333Y-98411667D01*
X129876584Y-98367354D01*
X129818837Y-98323043D01*
X129684336Y-98267331D01*
X129540000Y-98248329D01*
X129395664Y-98267331D01*
X129261164Y-98323043D01*
X129145667Y-98411667D01*
X129057043Y-98527164D01*
X129001331Y-98661664D01*
X128982329Y-98805999D01*
X127557671Y-98805999D01*
X127538669Y-98661664D01*
X127482957Y-98527165D01*
X127394333Y-98411667D01*
X127336584Y-98367354D01*
X127278837Y-98323043D01*
X127144336Y-98267331D01*
X127000000Y-98248329D01*
X126855664Y-98267331D01*
X126721164Y-98323043D01*
X126605667Y-98411667D01*
X126517043Y-98527164D01*
X126461331Y-98661664D01*
X126442329Y-98805999D01*
X125017671Y-98805999D01*
X124998669Y-98661664D01*
X124942957Y-98527165D01*
X124854333Y-98411667D01*
X124796584Y-98367354D01*
X124738837Y-98323043D01*
X124604336Y-98267331D01*
X124460000Y-98248329D01*
X124315664Y-98267331D01*
X124181164Y-98323043D01*
X124065667Y-98411667D01*
X123977043Y-98527164D01*
X123921331Y-98661664D01*
X123902329Y-98805999D01*
X122477671Y-98805999D01*
X122458669Y-98661664D01*
X122402957Y-98527165D01*
X122314333Y-98411667D01*
X122256584Y-98367354D01*
X122198837Y-98323043D01*
X122064336Y-98267331D01*
X121920000Y-98248329D01*
X121775664Y-98267331D01*
X121641164Y-98323043D01*
X121525667Y-98411667D01*
X121437043Y-98527164D01*
X121381331Y-98661664D01*
X121362329Y-98805999D01*
X119937671Y-98805999D01*
X119918669Y-98661664D01*
X119862957Y-98527165D01*
X119774333Y-98411667D01*
X119716584Y-98367354D01*
X119658837Y-98323043D01*
X119524336Y-98267331D01*
X119380000Y-98248329D01*
X119235664Y-98267331D01*
X119101164Y-98323043D01*
X118985667Y-98411667D01*
X118897043Y-98527164D01*
X118841331Y-98661664D01*
X118822329Y-98806000D01*
X117397671Y-98806000D01*
X117378669Y-98661664D01*
X117322957Y-98527165D01*
X117234333Y-98411667D01*
X117176584Y-98367354D01*
X117118837Y-98323043D01*
X116984336Y-98267331D01*
X116840000Y-98248329D01*
X116695664Y-98267331D01*
X116561164Y-98323043D01*
X116445667Y-98411667D01*
X116357043Y-98527164D01*
X116301331Y-98661664D01*
X116282329Y-98806000D01*
X114857671Y-98806000D01*
X114838669Y-98661664D01*
X114782957Y-98527165D01*
X114694333Y-98411667D01*
X114636584Y-98367354D01*
X114578837Y-98323043D01*
X114444336Y-98267331D01*
X114300000Y-98248329D01*
X114155664Y-98267331D01*
X114021164Y-98323043D01*
X113905667Y-98411667D01*
X113817043Y-98527164D01*
X113761331Y-98661664D01*
X113742329Y-98806000D01*
X112317671Y-98806000D01*
X112298669Y-98661664D01*
X112242957Y-98527165D01*
X112154333Y-98411667D01*
X112096584Y-98367354D01*
X112038837Y-98323043D01*
X111904336Y-98267331D01*
X111760000Y-98248329D01*
X111615664Y-98267331D01*
X111481164Y-98323043D01*
X111365667Y-98411667D01*
X111277043Y-98527164D01*
X111221331Y-98661664D01*
X111202329Y-98806000D01*
X109777671Y-98806000D01*
X109758669Y-98661664D01*
X109702957Y-98527165D01*
X109614333Y-98411667D01*
X109556584Y-98367354D01*
X109498837Y-98323043D01*
X109364336Y-98267331D01*
X109220000Y-98248329D01*
X109075664Y-98267331D01*
X108941164Y-98323043D01*
X108825667Y-98411667D01*
X108737043Y-98527164D01*
X108681331Y-98661664D01*
X108662329Y-98806000D01*
X107237671Y-98806000D01*
X107218669Y-98661664D01*
X107162957Y-98527165D01*
X107074333Y-98411667D01*
X107016584Y-98367354D01*
X106958837Y-98323043D01*
X106824336Y-98267331D01*
X106680000Y-98248329D01*
X106535664Y-98267331D01*
X106401164Y-98323043D01*
X106285667Y-98411667D01*
X106197043Y-98527164D01*
X106141331Y-98661664D01*
X106122329Y-98806000D01*
X102157671Y-98806000D01*
X102138669Y-98661664D01*
X102082957Y-98527165D01*
X101994333Y-98411667D01*
X101936584Y-98367354D01*
X101878837Y-98323043D01*
X101744336Y-98267331D01*
X101600000Y-98248329D01*
X101455664Y-98267331D01*
X101321164Y-98323043D01*
X101205667Y-98411667D01*
X101117043Y-98527164D01*
X101061331Y-98661664D01*
X101042329Y-98806000D01*
X99617671Y-98806000D01*
X99598669Y-98661664D01*
X99542957Y-98527165D01*
X99454333Y-98411667D01*
X99396584Y-98367354D01*
X99338837Y-98323043D01*
X99204336Y-98267331D01*
X99060000Y-98248329D01*
X98915664Y-98267331D01*
X98781164Y-98323043D01*
X98665667Y-98411667D01*
X98577043Y-98527164D01*
X98521331Y-98661664D01*
X98502329Y-98806000D01*
X97077671Y-98806000D01*
X97058669Y-98661664D01*
X97002957Y-98527165D01*
X96914333Y-98411667D01*
X96856584Y-98367354D01*
X96798837Y-98323043D01*
X96664336Y-98267331D01*
X96520000Y-98248329D01*
X96375664Y-98267331D01*
X96241164Y-98323043D01*
X96125667Y-98411667D01*
X96037043Y-98527164D01*
X95981331Y-98661664D01*
X95962329Y-98806000D01*
X94537671Y-98806000D01*
X94518669Y-98661664D01*
X94462957Y-98527165D01*
X94374333Y-98411667D01*
X94316584Y-98367354D01*
X94258837Y-98323043D01*
X94124336Y-98267331D01*
X93980000Y-98248329D01*
X93835664Y-98267331D01*
X93701164Y-98323043D01*
X93585667Y-98411667D01*
X93497043Y-98527164D01*
X93441331Y-98661664D01*
X93422329Y-98806000D01*
X91997671Y-98806000D01*
X91978669Y-98661664D01*
X91922957Y-98527165D01*
X91834333Y-98411667D01*
X91776584Y-98367354D01*
X91718837Y-98323043D01*
X91584336Y-98267331D01*
X91440000Y-98248329D01*
X91295664Y-98267331D01*
X91161164Y-98323043D01*
X91045667Y-98411667D01*
X90957043Y-98527164D01*
X90901331Y-98661664D01*
X90882329Y-98806000D01*
X89457671Y-98806000D01*
X89438669Y-98661664D01*
X89382957Y-98527165D01*
X89294333Y-98411667D01*
X89236584Y-98367354D01*
X89178837Y-98323043D01*
X89044336Y-98267331D01*
X88900000Y-98248329D01*
X88755664Y-98267331D01*
X88621164Y-98323043D01*
X88505667Y-98411667D01*
X88417043Y-98527164D01*
X88361331Y-98661664D01*
X88342329Y-98806000D01*
X86917671Y-98806000D01*
X86898669Y-98661664D01*
X86842957Y-98527165D01*
X86754333Y-98411667D01*
X86696584Y-98367354D01*
X86638837Y-98323043D01*
X86504336Y-98267331D01*
X86360000Y-98248329D01*
X86215664Y-98267331D01*
X86081164Y-98323043D01*
X85965667Y-98411667D01*
X85877043Y-98527164D01*
X85821331Y-98661664D01*
X85802329Y-98806000D01*
X84377671Y-98806000D01*
X84358669Y-98661664D01*
X84302957Y-98527165D01*
X84214333Y-98411667D01*
X84156584Y-98367354D01*
X84098837Y-98323043D01*
X83964336Y-98267331D01*
X83820000Y-98248329D01*
X83675664Y-98267331D01*
X83541164Y-98323043D01*
X83425667Y-98411667D01*
X83337043Y-98527164D01*
X83281331Y-98661664D01*
X83262329Y-98806000D01*
X78537300Y-98806000D01*
X78537300Y-97853500D01*
X145638028Y-97853500D01*
X145658190Y-97980805D01*
X145716709Y-98095653D01*
X145807846Y-98186790D01*
X145807848Y-98186791D01*
X145807849Y-98186792D01*
X145922694Y-98245309D01*
X146050000Y-98265472D01*
X146177306Y-98245309D01*
X146292151Y-98186792D01*
X146383292Y-98095651D01*
X146441809Y-97980806D01*
X146461972Y-97853500D01*
X146441809Y-97726194D01*
X146383292Y-97611349D01*
X146383291Y-97611348D01*
X146383290Y-97611346D01*
X146292153Y-97520209D01*
X146177305Y-97461690D01*
X146050000Y-97441528D01*
X145922694Y-97461690D01*
X145807846Y-97520209D01*
X145716709Y-97611346D01*
X145658190Y-97726194D01*
X145638028Y-97853500D01*
X78537300Y-97853500D01*
X78537300Y-96713442D01*
X78537300Y-96713439D01*
X78509199Y-96499999D01*
X146988028Y-96499999D01*
X147008190Y-96627305D01*
X147066709Y-96742153D01*
X147157846Y-96833290D01*
X147157848Y-96833291D01*
X147157849Y-96833292D01*
X147272694Y-96891809D01*
X147400000Y-96911972D01*
X147527306Y-96891809D01*
X147642151Y-96833292D01*
X147733292Y-96742151D01*
X147791809Y-96627306D01*
X147811972Y-96500000D01*
X147791809Y-96372694D01*
X147733292Y-96257849D01*
X147733291Y-96257848D01*
X147733290Y-96257846D01*
X147642153Y-96166709D01*
X147587772Y-96139000D01*
X163799028Y-96139000D01*
X163819190Y-96266305D01*
X163877709Y-96381153D01*
X163968846Y-96472290D01*
X163968848Y-96472291D01*
X163968849Y-96472292D01*
X164083694Y-96530809D01*
X164211000Y-96550972D01*
X164338306Y-96530809D01*
X164453151Y-96472292D01*
X164544292Y-96381151D01*
X164602809Y-96266306D01*
X164622972Y-96139000D01*
X164602809Y-96011694D01*
X164544292Y-95896849D01*
X164544291Y-95896848D01*
X164544290Y-95896846D01*
X164453153Y-95805709D01*
X164338305Y-95747190D01*
X164211000Y-95727028D01*
X164083694Y-95747190D01*
X163968846Y-95805709D01*
X163877709Y-95896846D01*
X163819190Y-96011694D01*
X163799028Y-96139000D01*
X147587772Y-96139000D01*
X147527305Y-96108190D01*
X147400000Y-96088028D01*
X147272694Y-96108190D01*
X147157846Y-96166709D01*
X147066709Y-96257846D01*
X147008190Y-96372694D01*
X146988028Y-96499999D01*
X78509199Y-96499999D01*
X78504913Y-96467441D01*
X78440695Y-96227774D01*
X78345743Y-95998540D01*
X78285579Y-95894333D01*
X78221682Y-95783659D01*
X78070633Y-95586809D01*
X77983824Y-95500000D01*
X153792329Y-95500000D01*
X153811331Y-95644336D01*
X153867043Y-95778837D01*
X153887663Y-95805709D01*
X153955667Y-95894333D01*
X154030924Y-95952080D01*
X154071162Y-95982956D01*
X154071163Y-95982956D01*
X154071164Y-95982957D01*
X154205664Y-96038669D01*
X154350000Y-96057671D01*
X154494336Y-96038669D01*
X154628836Y-95982957D01*
X154744333Y-95894333D01*
X154832957Y-95778836D01*
X154888669Y-95644336D01*
X154907671Y-95500000D01*
X154891478Y-95377000D01*
X156822305Y-95377000D01*
X156841416Y-95534398D01*
X156883111Y-95644336D01*
X156897640Y-95682646D01*
X156987708Y-95813132D01*
X157106387Y-95918272D01*
X157246778Y-95991956D01*
X157400724Y-96029900D01*
X157559276Y-96029900D01*
X157713222Y-95991956D01*
X157853613Y-95918272D01*
X157972292Y-95813132D01*
X158062360Y-95682646D01*
X158118584Y-95534397D01*
X158137695Y-95377000D01*
X158118584Y-95219603D01*
X158062360Y-95071354D01*
X157972292Y-94940868D01*
X157853613Y-94835728D01*
X157853612Y-94835727D01*
X157713221Y-94762043D01*
X157559276Y-94724100D01*
X157400724Y-94724100D01*
X157246778Y-94762043D01*
X157106387Y-94835727D01*
X156987708Y-94940868D01*
X156897640Y-95071353D01*
X156841416Y-95219601D01*
X156822305Y-95377000D01*
X154891478Y-95377000D01*
X154888669Y-95355664D01*
X154832957Y-95221165D01*
X154744333Y-95105667D01*
X154660455Y-95041305D01*
X154628837Y-95017043D01*
X154494336Y-94961331D01*
X154350000Y-94942329D01*
X154205664Y-94961331D01*
X154071164Y-95017043D01*
X153955667Y-95105667D01*
X153867043Y-95221164D01*
X153811331Y-95355664D01*
X153792329Y-95500000D01*
X77983824Y-95500000D01*
X77895190Y-95411366D01*
X77698340Y-95260317D01*
X77483462Y-95136258D01*
X77409609Y-95105667D01*
X77254226Y-95041305D01*
X77014559Y-94977087D01*
X76768561Y-94944700D01*
X76768558Y-94944700D01*
X76580500Y-94944700D01*
X76542900Y-94934625D01*
X76515375Y-94907100D01*
X76505300Y-94869500D01*
X76505300Y-94742000D01*
X78582028Y-94742000D01*
X78602190Y-94869305D01*
X78660709Y-94984153D01*
X78751846Y-95075290D01*
X78751848Y-95075291D01*
X78751849Y-95075292D01*
X78866694Y-95133809D01*
X78994000Y-95153972D01*
X79121306Y-95133809D01*
X79236151Y-95075292D01*
X79327292Y-94984151D01*
X79385809Y-94869306D01*
X79395915Y-94805500D01*
X87172443Y-94805500D01*
X87190977Y-94934410D01*
X87245078Y-95052873D01*
X87245079Y-95052874D01*
X87330364Y-95151299D01*
X87439924Y-95221708D01*
X87564883Y-95258400D01*
X87695116Y-95258400D01*
X87695117Y-95258400D01*
X87820076Y-95221708D01*
X87929636Y-95151299D01*
X88014921Y-95052874D01*
X88069023Y-94934409D01*
X88087557Y-94805500D01*
X88087557Y-94805499D01*
X121462443Y-94805499D01*
X121480977Y-94934410D01*
X121535078Y-95052873D01*
X121535079Y-95052874D01*
X121620364Y-95151299D01*
X121729924Y-95221708D01*
X121854883Y-95258400D01*
X121985116Y-95258400D01*
X121985117Y-95258400D01*
X122110076Y-95221708D01*
X122219636Y-95151299D01*
X122304921Y-95052874D01*
X122359023Y-94934409D01*
X122377557Y-94805500D01*
X122377557Y-94805499D01*
X136702443Y-94805499D01*
X136720977Y-94934410D01*
X136775078Y-95052873D01*
X136775079Y-95052874D01*
X136860364Y-95151299D01*
X136969924Y-95221708D01*
X137094883Y-95258400D01*
X137225116Y-95258400D01*
X137225117Y-95258400D01*
X137350076Y-95221708D01*
X137459636Y-95151299D01*
X137544921Y-95052874D01*
X137599023Y-94934409D01*
X137617557Y-94805500D01*
X137599023Y-94676591D01*
X137544921Y-94558126D01*
X137459636Y-94459701D01*
X137350076Y-94389292D01*
X137350075Y-94389291D01*
X137350074Y-94389291D01*
X137277060Y-94367852D01*
X137225117Y-94352600D01*
X137094883Y-94352600D01*
X137058192Y-94363373D01*
X136969925Y-94389291D01*
X136939710Y-94408709D01*
X136860364Y-94459701D01*
X136860363Y-94459701D01*
X136860363Y-94459702D01*
X136775078Y-94558126D01*
X136720977Y-94676589D01*
X136702443Y-94805499D01*
X122377557Y-94805499D01*
X122359023Y-94676591D01*
X122304921Y-94558126D01*
X122219636Y-94459701D01*
X122110076Y-94389292D01*
X122110075Y-94389291D01*
X122110074Y-94389291D01*
X122037060Y-94367852D01*
X121985117Y-94352600D01*
X121854883Y-94352600D01*
X121818192Y-94363373D01*
X121729925Y-94389291D01*
X121699710Y-94408709D01*
X121620364Y-94459701D01*
X121620363Y-94459701D01*
X121620363Y-94459702D01*
X121535078Y-94558126D01*
X121480977Y-94676589D01*
X121462443Y-94805499D01*
X88087557Y-94805499D01*
X88069023Y-94676591D01*
X88014921Y-94558126D01*
X87929636Y-94459701D01*
X87820076Y-94389292D01*
X87820075Y-94389291D01*
X87820074Y-94389291D01*
X87747060Y-94367852D01*
X87695117Y-94352600D01*
X87564883Y-94352600D01*
X87528192Y-94363373D01*
X87439925Y-94389291D01*
X87409710Y-94408709D01*
X87330364Y-94459701D01*
X87330363Y-94459701D01*
X87330363Y-94459702D01*
X87245078Y-94558126D01*
X87190977Y-94676589D01*
X87172443Y-94805500D01*
X79395915Y-94805500D01*
X79405972Y-94742000D01*
X79385809Y-94614694D01*
X79327292Y-94499849D01*
X79327291Y-94499848D01*
X79327290Y-94499846D01*
X79236153Y-94408709D01*
X79121305Y-94350190D01*
X78994000Y-94330028D01*
X78866694Y-94350190D01*
X78751846Y-94408709D01*
X78660709Y-94499846D01*
X78602190Y-94614694D01*
X78582028Y-94742000D01*
X76505300Y-94742000D01*
X76505300Y-94300000D01*
X152892329Y-94300000D01*
X152911331Y-94444336D01*
X152967043Y-94578837D01*
X152975576Y-94589957D01*
X153055667Y-94694333D01*
X153117788Y-94742000D01*
X153171162Y-94782956D01*
X153171163Y-94782956D01*
X153171164Y-94782957D01*
X153305664Y-94838669D01*
X153450000Y-94857671D01*
X153594336Y-94838669D01*
X153728836Y-94782957D01*
X153844333Y-94694333D01*
X153932957Y-94578836D01*
X153988669Y-94444336D01*
X154007671Y-94300000D01*
X154692329Y-94300000D01*
X154711331Y-94444336D01*
X154767043Y-94578837D01*
X154775576Y-94589957D01*
X154855667Y-94694333D01*
X154917788Y-94742000D01*
X154971162Y-94782956D01*
X154971163Y-94782956D01*
X154971164Y-94782957D01*
X155105664Y-94838669D01*
X155250000Y-94857671D01*
X155394336Y-94838669D01*
X155528836Y-94782957D01*
X155644333Y-94694333D01*
X155732957Y-94578836D01*
X155788669Y-94444336D01*
X155807671Y-94300000D01*
X155788669Y-94155664D01*
X155768511Y-94107000D01*
X158192329Y-94107000D01*
X158211331Y-94251336D01*
X158267043Y-94385837D01*
X158284593Y-94408708D01*
X158355667Y-94501333D01*
X158429681Y-94558126D01*
X158471162Y-94589956D01*
X158471163Y-94589956D01*
X158471164Y-94589957D01*
X158605664Y-94645669D01*
X158750000Y-94664671D01*
X158894336Y-94645669D01*
X159028836Y-94589957D01*
X159144333Y-94501333D01*
X159232957Y-94385836D01*
X159288669Y-94251336D01*
X159307671Y-94107000D01*
X159288669Y-93962664D01*
X159232957Y-93828165D01*
X159144333Y-93712667D01*
X159086584Y-93668354D01*
X159028837Y-93624043D01*
X158894336Y-93568331D01*
X158750000Y-93549329D01*
X158605664Y-93568331D01*
X158471164Y-93624043D01*
X158355667Y-93712667D01*
X158267043Y-93828164D01*
X158211331Y-93962664D01*
X158192329Y-94107000D01*
X155768511Y-94107000D01*
X155732957Y-94021165D01*
X155644333Y-93905667D01*
X155586584Y-93861355D01*
X155528837Y-93817043D01*
X155394336Y-93761331D01*
X155250000Y-93742329D01*
X155105664Y-93761331D01*
X154971164Y-93817043D01*
X154855667Y-93905667D01*
X154767043Y-94021164D01*
X154711331Y-94155664D01*
X154692329Y-94300000D01*
X154007671Y-94300000D01*
X153988669Y-94155664D01*
X153932957Y-94021165D01*
X153844333Y-93905667D01*
X153786584Y-93861355D01*
X153728837Y-93817043D01*
X153594336Y-93761331D01*
X153450000Y-93742329D01*
X153305664Y-93761331D01*
X153171164Y-93817043D01*
X153055667Y-93905667D01*
X152967043Y-94021164D01*
X152911331Y-94155664D01*
X152892329Y-94300000D01*
X76505300Y-94300000D01*
X76505300Y-91440000D01*
X77667864Y-91440000D01*
X77687179Y-91710061D01*
X77744731Y-91974622D01*
X77839350Y-92228307D01*
X77969105Y-92465935D01*
X77969108Y-92465939D01*
X78104927Y-92647373D01*
X78131367Y-92682692D01*
X78322807Y-92874132D01*
X78322810Y-92874134D01*
X78322813Y-92874137D01*
X78539561Y-93036392D01*
X78539564Y-93036394D01*
X78544976Y-93039349D01*
X78777194Y-93166150D01*
X79030874Y-93260767D01*
X79030877Y-93260768D01*
X79295437Y-93318319D01*
X79295438Y-93318320D01*
X79565500Y-93337635D01*
X79835562Y-93318320D01*
X80004819Y-93281500D01*
X80100122Y-93260768D01*
X80100122Y-93260767D01*
X80100126Y-93260767D01*
X80353806Y-93166150D01*
X80591439Y-93036392D01*
X80808187Y-92874137D01*
X80999637Y-92682687D01*
X81161892Y-92465939D01*
X81167319Y-92456000D01*
X83262329Y-92456000D01*
X83281331Y-92600336D01*
X83337043Y-92734837D01*
X83357620Y-92761653D01*
X83425667Y-92850333D01*
X83500924Y-92908080D01*
X83541162Y-92938956D01*
X83541163Y-92938956D01*
X83541164Y-92938957D01*
X83675664Y-92994669D01*
X83820000Y-93013671D01*
X83964336Y-92994669D01*
X84098836Y-92938957D01*
X84214333Y-92850333D01*
X84224564Y-92837000D01*
X86473943Y-92837000D01*
X86492477Y-92965910D01*
X86546578Y-93084373D01*
X86546579Y-93084374D01*
X86631864Y-93182799D01*
X86741424Y-93253208D01*
X86866383Y-93289900D01*
X86996616Y-93289900D01*
X86996617Y-93289900D01*
X87121576Y-93253208D01*
X87231136Y-93182799D01*
X87316421Y-93084374D01*
X87370523Y-92965909D01*
X87389057Y-92837000D01*
X103110943Y-92837000D01*
X103129477Y-92965910D01*
X103183578Y-93084373D01*
X103183579Y-93084374D01*
X103268864Y-93182799D01*
X103378424Y-93253208D01*
X103503383Y-93289900D01*
X103633616Y-93289900D01*
X103633617Y-93289900D01*
X103662224Y-93281500D01*
X114777028Y-93281500D01*
X114797190Y-93408805D01*
X114855709Y-93523653D01*
X114946846Y-93614790D01*
X114946848Y-93614791D01*
X114946849Y-93614792D01*
X115061694Y-93673309D01*
X115189000Y-93693472D01*
X115316306Y-93673309D01*
X115431151Y-93614792D01*
X115522292Y-93523651D01*
X115580809Y-93408806D01*
X115600972Y-93281500D01*
X115580809Y-93154194D01*
X115522292Y-93039349D01*
X115522291Y-93039348D01*
X115522290Y-93039346D01*
X115431153Y-92948209D01*
X115316305Y-92889690D01*
X115189000Y-92869528D01*
X115061694Y-92889690D01*
X114946846Y-92948209D01*
X114855709Y-93039346D01*
X114797190Y-93154194D01*
X114777028Y-93281500D01*
X103662224Y-93281500D01*
X103758576Y-93253208D01*
X103868136Y-93182799D01*
X103953421Y-93084374D01*
X104007523Y-92965909D01*
X104026057Y-92837000D01*
X104007523Y-92708091D01*
X103953421Y-92589626D01*
X103868136Y-92491201D01*
X103758576Y-92420792D01*
X103758575Y-92420791D01*
X103758574Y-92420791D01*
X103661182Y-92392194D01*
X103633617Y-92384100D01*
X103503383Y-92384100D01*
X103475818Y-92392194D01*
X103378425Y-92420791D01*
X103323644Y-92455996D01*
X103268864Y-92491201D01*
X103268863Y-92491201D01*
X103268863Y-92491202D01*
X103183578Y-92589626D01*
X103129477Y-92708089D01*
X103110943Y-92837000D01*
X87389057Y-92837000D01*
X87370523Y-92708091D01*
X87316421Y-92589626D01*
X87231136Y-92491201D01*
X87121576Y-92420792D01*
X87121575Y-92420791D01*
X87121574Y-92420791D01*
X87024182Y-92392194D01*
X86996617Y-92384100D01*
X86866383Y-92384100D01*
X86838818Y-92392194D01*
X86741425Y-92420791D01*
X86686644Y-92455996D01*
X86631864Y-92491201D01*
X86631863Y-92491201D01*
X86631863Y-92491202D01*
X86546578Y-92589626D01*
X86492477Y-92708089D01*
X86473943Y-92837000D01*
X84224564Y-92837000D01*
X84302957Y-92734836D01*
X84358669Y-92600336D01*
X84377671Y-92456000D01*
X84358669Y-92311664D01*
X84302957Y-92177165D01*
X84224564Y-92075000D01*
X106249329Y-92075000D01*
X106252599Y-92099836D01*
X106268331Y-92219336D01*
X106324043Y-92353837D01*
X106347265Y-92384100D01*
X106412667Y-92469333D01*
X106478046Y-92519500D01*
X106528162Y-92557956D01*
X106528163Y-92557956D01*
X106528164Y-92557957D01*
X106662664Y-92613669D01*
X106807000Y-92632671D01*
X106951336Y-92613669D01*
X107085836Y-92557957D01*
X107201333Y-92469333D01*
X107211564Y-92456000D01*
X112110028Y-92456000D01*
X112130190Y-92583305D01*
X112188709Y-92698153D01*
X112279846Y-92789290D01*
X112279848Y-92789291D01*
X112279849Y-92789292D01*
X112394694Y-92847809D01*
X112522000Y-92867972D01*
X112649306Y-92847809D01*
X112764151Y-92789292D01*
X112855292Y-92698151D01*
X112913809Y-92583306D01*
X112923915Y-92519500D01*
X140367528Y-92519500D01*
X140387690Y-92646805D01*
X140446209Y-92761653D01*
X140537346Y-92852790D01*
X140537348Y-92852791D01*
X140537349Y-92852792D01*
X140652194Y-92911309D01*
X140779500Y-92931472D01*
X140906806Y-92911309D01*
X141021651Y-92852792D01*
X141112792Y-92761651D01*
X141171309Y-92646806D01*
X141186641Y-92550000D01*
X144242443Y-92550000D01*
X144247232Y-92583306D01*
X144260977Y-92678910D01*
X144315078Y-92797373D01*
X144315079Y-92797374D01*
X144400364Y-92895799D01*
X144509924Y-92966208D01*
X144634883Y-93002900D01*
X144765116Y-93002900D01*
X144765117Y-93002900D01*
X144890076Y-92966208D01*
X144999636Y-92895799D01*
X145084921Y-92797374D01*
X145139023Y-92678909D01*
X145157557Y-92550000D01*
X145139023Y-92421091D01*
X145129390Y-92399999D01*
X146492443Y-92399999D01*
X146510977Y-92528910D01*
X146565078Y-92647373D01*
X146565079Y-92647374D01*
X146650364Y-92745799D01*
X146759924Y-92816208D01*
X146884883Y-92852900D01*
X147015116Y-92852900D01*
X147015117Y-92852900D01*
X147140076Y-92816208D01*
X147249636Y-92745799D01*
X147334921Y-92647374D01*
X147389023Y-92528909D01*
X147407557Y-92400000D01*
X149492329Y-92400000D01*
X149501009Y-92465935D01*
X149511331Y-92544336D01*
X149567043Y-92678837D01*
X149589491Y-92708091D01*
X149655667Y-92794333D01*
X149711272Y-92837000D01*
X149771162Y-92882956D01*
X149771163Y-92882956D01*
X149771164Y-92882957D01*
X149905664Y-92938669D01*
X150050000Y-92957671D01*
X150194336Y-92938669D01*
X150328836Y-92882957D01*
X150444333Y-92794333D01*
X150532957Y-92678836D01*
X150588669Y-92544336D01*
X150607671Y-92400000D01*
X150588669Y-92255664D01*
X150565612Y-92200000D01*
X151942329Y-92200000D01*
X151944348Y-92215333D01*
X151961331Y-92344336D01*
X152017043Y-92478837D01*
X152055465Y-92528909D01*
X152105667Y-92594333D01*
X152155629Y-92632670D01*
X152221162Y-92682956D01*
X152221163Y-92682956D01*
X152221164Y-92682957D01*
X152355664Y-92738669D01*
X152500000Y-92757671D01*
X152644336Y-92738669D01*
X152778836Y-92682957D01*
X152894333Y-92594333D01*
X152982957Y-92478836D01*
X153038669Y-92344336D01*
X153057671Y-92200000D01*
X153038669Y-92055664D01*
X152982957Y-91921165D01*
X152894333Y-91805667D01*
X152814400Y-91744332D01*
X152778837Y-91717043D01*
X152644336Y-91661331D01*
X152500000Y-91642329D01*
X152355664Y-91661331D01*
X152221164Y-91717043D01*
X152105667Y-91805667D01*
X152017043Y-91921164D01*
X151961331Y-92055664D01*
X151944145Y-92186209D01*
X151942329Y-92200000D01*
X150565612Y-92200000D01*
X150532957Y-92121165D01*
X150444333Y-92005667D01*
X150368007Y-91947100D01*
X150328837Y-91917043D01*
X150194336Y-91861331D01*
X150050000Y-91842329D01*
X149905664Y-91861331D01*
X149771164Y-91917043D01*
X149655667Y-92005667D01*
X149567043Y-92121164D01*
X149511331Y-92255664D01*
X149498407Y-92353836D01*
X149492329Y-92400000D01*
X147407557Y-92400000D01*
X147389023Y-92271091D01*
X147334921Y-92152626D01*
X147249636Y-92054201D01*
X147140076Y-91983792D01*
X147140075Y-91983791D01*
X147140074Y-91983791D01*
X147067060Y-91962352D01*
X147015117Y-91947100D01*
X146884883Y-91947100D01*
X146848192Y-91957873D01*
X146759925Y-91983791D01*
X146725885Y-92005667D01*
X146650364Y-92054201D01*
X146650363Y-92054201D01*
X146650363Y-92054202D01*
X146565078Y-92152626D01*
X146510977Y-92271089D01*
X146492443Y-92399999D01*
X145129390Y-92399999D01*
X145084921Y-92302626D01*
X144999636Y-92204201D01*
X144890076Y-92133792D01*
X144890075Y-92133791D01*
X144890074Y-92133791D01*
X144817060Y-92112352D01*
X144765117Y-92097100D01*
X144634883Y-92097100D01*
X144599369Y-92107528D01*
X144509925Y-92133791D01*
X144480617Y-92152626D01*
X144400364Y-92204201D01*
X144400363Y-92204201D01*
X144400363Y-92204202D01*
X144315078Y-92302626D01*
X144260977Y-92421089D01*
X144250897Y-92491201D01*
X144242443Y-92550000D01*
X141186641Y-92550000D01*
X141191472Y-92519500D01*
X141171309Y-92392194D01*
X141112792Y-92277349D01*
X141112791Y-92277348D01*
X141112790Y-92277346D01*
X141021653Y-92186209D01*
X140906805Y-92127690D01*
X140779500Y-92107528D01*
X140652194Y-92127690D01*
X140537346Y-92186209D01*
X140446209Y-92277346D01*
X140387690Y-92392194D01*
X140367528Y-92519500D01*
X112923915Y-92519500D01*
X112933972Y-92456000D01*
X112913809Y-92328694D01*
X112855292Y-92213849D01*
X112855291Y-92213848D01*
X112855290Y-92213846D01*
X112764153Y-92122709D01*
X112649305Y-92064190D01*
X112522000Y-92044028D01*
X112394694Y-92064190D01*
X112279846Y-92122709D01*
X112188709Y-92213846D01*
X112130190Y-92328694D01*
X112110028Y-92456000D01*
X107211564Y-92456000D01*
X107289957Y-92353836D01*
X107345669Y-92219336D01*
X107364671Y-92075000D01*
X107345669Y-91930664D01*
X107300244Y-91821000D01*
X117171329Y-91821000D01*
X117190331Y-91965336D01*
X117246043Y-92099837D01*
X117272098Y-92133792D01*
X117334667Y-92215333D01*
X117398328Y-92264182D01*
X117450162Y-92303956D01*
X117450163Y-92303956D01*
X117450164Y-92303957D01*
X117584664Y-92359669D01*
X117729000Y-92378671D01*
X117873336Y-92359669D01*
X118007836Y-92303957D01*
X118123333Y-92215333D01*
X118211957Y-92099836D01*
X118267669Y-91965336D01*
X118286671Y-91821000D01*
X118267669Y-91676664D01*
X118211957Y-91542165D01*
X118123333Y-91426667D01*
X118023419Y-91350000D01*
X118007837Y-91338043D01*
X117947378Y-91313000D01*
X118822329Y-91313000D01*
X118841331Y-91457336D01*
X118897043Y-91591837D01*
X118924259Y-91627305D01*
X118985667Y-91707333D01*
X119060924Y-91765080D01*
X119101162Y-91795956D01*
X119101163Y-91795956D01*
X119101164Y-91795957D01*
X119235664Y-91851669D01*
X119380000Y-91870671D01*
X119524336Y-91851669D01*
X119658836Y-91795957D01*
X119774333Y-91707333D01*
X119862957Y-91591836D01*
X119918669Y-91457336D01*
X119937671Y-91313000D01*
X119918669Y-91168664D01*
X119862957Y-91034165D01*
X119774333Y-90918667D01*
X119708953Y-90868499D01*
X121462443Y-90868499D01*
X121480977Y-90997410D01*
X121535078Y-91115873D01*
X121535079Y-91115874D01*
X121620364Y-91214299D01*
X121729924Y-91284708D01*
X121854883Y-91321400D01*
X121985116Y-91321400D01*
X121985117Y-91321400D01*
X122110076Y-91284708D01*
X122219636Y-91214299D01*
X122304921Y-91115874D01*
X122359023Y-90997409D01*
X122368427Y-90931999D01*
X125318028Y-90931999D01*
X125338190Y-91059305D01*
X125396709Y-91174153D01*
X125487846Y-91265290D01*
X125487848Y-91265291D01*
X125487849Y-91265292D01*
X125602694Y-91323809D01*
X125730000Y-91343972D01*
X125857306Y-91323809D01*
X125972151Y-91265292D01*
X126063292Y-91174151D01*
X126121809Y-91059306D01*
X126141972Y-90932000D01*
X126141972Y-90931999D01*
X126588028Y-90931999D01*
X126608190Y-91059305D01*
X126666709Y-91174153D01*
X126757846Y-91265290D01*
X126757848Y-91265291D01*
X126757849Y-91265292D01*
X126872694Y-91323809D01*
X127000000Y-91343972D01*
X127127306Y-91323809D01*
X127242151Y-91265292D01*
X127333292Y-91174151D01*
X127391809Y-91059306D01*
X127411972Y-90932000D01*
X127411972Y-90931999D01*
X130398028Y-90931999D01*
X130418190Y-91059305D01*
X130476709Y-91174153D01*
X130567846Y-91265290D01*
X130567848Y-91265291D01*
X130567849Y-91265292D01*
X130682694Y-91323809D01*
X130810000Y-91343972D01*
X130937306Y-91323809D01*
X131052151Y-91265292D01*
X131143292Y-91174151D01*
X131201809Y-91059306D01*
X131221972Y-90932000D01*
X131221972Y-90931999D01*
X131668028Y-90931999D01*
X131688190Y-91059305D01*
X131746709Y-91174153D01*
X131837846Y-91265290D01*
X131837848Y-91265291D01*
X131837849Y-91265292D01*
X131952694Y-91323809D01*
X132080000Y-91343972D01*
X132207306Y-91323809D01*
X132322151Y-91265292D01*
X132413292Y-91174151D01*
X132471809Y-91059306D01*
X132491972Y-90932000D01*
X132491972Y-90931999D01*
X132938028Y-90931999D01*
X132958190Y-91059305D01*
X133016709Y-91174153D01*
X133107846Y-91265290D01*
X133107848Y-91265291D01*
X133107849Y-91265292D01*
X133222694Y-91323809D01*
X133350000Y-91343972D01*
X133477306Y-91323809D01*
X133592151Y-91265292D01*
X133683292Y-91174151D01*
X133741809Y-91059306D01*
X133761972Y-90932000D01*
X133761972Y-90931999D01*
X134208028Y-90931999D01*
X134228190Y-91059305D01*
X134286709Y-91174153D01*
X134377846Y-91265290D01*
X134377848Y-91265291D01*
X134377849Y-91265292D01*
X134492694Y-91323809D01*
X134620000Y-91343972D01*
X134747306Y-91323809D01*
X134862151Y-91265292D01*
X134953292Y-91174151D01*
X135011809Y-91059306D01*
X135031972Y-90932000D01*
X135031972Y-90931999D01*
X135478028Y-90931999D01*
X135498190Y-91059305D01*
X135556709Y-91174153D01*
X135647846Y-91265290D01*
X135647848Y-91265291D01*
X135647849Y-91265292D01*
X135762694Y-91323809D01*
X135890000Y-91343972D01*
X136017306Y-91323809D01*
X136132151Y-91265292D01*
X136223292Y-91174151D01*
X136281809Y-91059306D01*
X136301972Y-90932000D01*
X136291915Y-90868499D01*
X136702443Y-90868499D01*
X136720977Y-90997410D01*
X136775078Y-91115873D01*
X136775079Y-91115874D01*
X136860364Y-91214299D01*
X136969924Y-91284708D01*
X137094883Y-91321400D01*
X137225116Y-91321400D01*
X137225117Y-91321400D01*
X137350076Y-91284708D01*
X137459636Y-91214299D01*
X137484157Y-91186000D01*
X139142329Y-91186000D01*
X139152768Y-91265290D01*
X139161331Y-91330336D01*
X139217043Y-91464837D01*
X139244025Y-91500000D01*
X139305667Y-91580333D01*
X139368879Y-91628837D01*
X139421162Y-91668956D01*
X139421163Y-91668956D01*
X139421164Y-91668957D01*
X139555664Y-91724669D01*
X139700000Y-91743671D01*
X139844336Y-91724669D01*
X139978836Y-91668957D01*
X140094333Y-91580333D01*
X140155975Y-91499999D01*
X145388028Y-91499999D01*
X145408190Y-91627305D01*
X145466709Y-91742153D01*
X145557846Y-91833290D01*
X145557848Y-91833291D01*
X145557849Y-91833292D01*
X145672694Y-91891809D01*
X145800000Y-91911972D01*
X145927306Y-91891809D01*
X146042151Y-91833292D01*
X146133292Y-91742151D01*
X146191809Y-91627306D01*
X146211972Y-91500000D01*
X146211972Y-91499999D01*
X147188028Y-91499999D01*
X147208190Y-91627305D01*
X147266709Y-91742153D01*
X147357846Y-91833290D01*
X147357848Y-91833291D01*
X147357849Y-91833292D01*
X147472694Y-91891809D01*
X147600000Y-91911972D01*
X147727306Y-91891809D01*
X147842151Y-91833292D01*
X147933292Y-91742151D01*
X147991809Y-91627306D01*
X148011972Y-91500000D01*
X147991809Y-91372694D01*
X147980246Y-91350000D01*
X150692329Y-91350000D01*
X150704178Y-91440000D01*
X150711331Y-91494336D01*
X150767043Y-91628837D01*
X150791977Y-91661331D01*
X150855667Y-91744333D01*
X150923216Y-91796165D01*
X150971162Y-91832956D01*
X150971163Y-91832956D01*
X150971164Y-91832957D01*
X151105664Y-91888669D01*
X151250000Y-91907671D01*
X151394336Y-91888669D01*
X151528836Y-91832957D01*
X151644333Y-91744333D01*
X151732957Y-91628836D01*
X151788669Y-91494336D01*
X151807671Y-91350000D01*
X151788669Y-91205664D01*
X151732957Y-91071165D01*
X151678351Y-91000000D01*
X152842329Y-91000000D01*
X152857584Y-91115873D01*
X152861331Y-91144336D01*
X152917043Y-91278837D01*
X152951552Y-91323809D01*
X153005667Y-91394333D01*
X153080924Y-91452080D01*
X153121162Y-91482956D01*
X153121163Y-91482956D01*
X153121164Y-91482957D01*
X153255664Y-91538669D01*
X153400000Y-91557671D01*
X153544336Y-91538669D01*
X153678836Y-91482957D01*
X153734820Y-91439999D01*
X159836864Y-91439999D01*
X159856179Y-91710061D01*
X159913731Y-91974622D01*
X160008350Y-92228307D01*
X160138105Y-92465935D01*
X160138108Y-92465939D01*
X160273927Y-92647373D01*
X160300367Y-92682692D01*
X160491807Y-92874132D01*
X160491810Y-92874134D01*
X160491813Y-92874137D01*
X160708561Y-93036392D01*
X160708564Y-93036394D01*
X160713976Y-93039349D01*
X160946194Y-93166150D01*
X161199874Y-93260767D01*
X161199877Y-93260768D01*
X161464437Y-93318319D01*
X161464438Y-93318320D01*
X161734500Y-93337635D01*
X162004562Y-93318320D01*
X162173819Y-93281500D01*
X162269122Y-93260768D01*
X162269122Y-93260767D01*
X162269126Y-93260767D01*
X162522806Y-93166150D01*
X162760439Y-93036392D01*
X162977187Y-92874137D01*
X163168637Y-92682687D01*
X163330892Y-92465939D01*
X163460650Y-92228306D01*
X163555267Y-91974626D01*
X163564831Y-91930664D01*
X163586013Y-91833290D01*
X163612820Y-91710062D01*
X163632135Y-91440000D01*
X163612820Y-91169938D01*
X163588753Y-91059305D01*
X163555268Y-90905377D01*
X163520191Y-90811331D01*
X163460650Y-90651694D01*
X163420031Y-90577306D01*
X163330894Y-90414064D01*
X163267652Y-90329582D01*
X163168637Y-90197313D01*
X163168634Y-90197310D01*
X163168632Y-90197307D01*
X162977192Y-90005867D01*
X162760435Y-89843605D01*
X162522807Y-89713850D01*
X162269122Y-89619231D01*
X162004561Y-89561679D01*
X161734500Y-89542364D01*
X161464438Y-89561679D01*
X161199877Y-89619231D01*
X160946192Y-89713850D01*
X160708564Y-89843605D01*
X160491807Y-90005867D01*
X160300367Y-90197307D01*
X160138105Y-90414064D01*
X160008350Y-90651692D01*
X159913731Y-90905377D01*
X159856179Y-91169938D01*
X159836864Y-91439999D01*
X153734820Y-91439999D01*
X153794333Y-91394333D01*
X153882957Y-91278836D01*
X153938669Y-91144336D01*
X153957671Y-91000000D01*
X153938669Y-90855664D01*
X153882957Y-90721165D01*
X153794333Y-90605667D01*
X153736584Y-90561355D01*
X153678837Y-90517043D01*
X153544336Y-90461331D01*
X153458260Y-90449999D01*
X158188028Y-90449999D01*
X158208190Y-90577305D01*
X158266709Y-90692153D01*
X158357846Y-90783290D01*
X158357848Y-90783291D01*
X158357849Y-90783292D01*
X158472694Y-90841809D01*
X158600000Y-90861972D01*
X158727306Y-90841809D01*
X158842151Y-90783292D01*
X158933292Y-90692151D01*
X158991809Y-90577306D01*
X159011972Y-90450000D01*
X158991809Y-90322694D01*
X158933292Y-90207849D01*
X158933291Y-90207848D01*
X158933290Y-90207846D01*
X158842153Y-90116709D01*
X158727305Y-90058190D01*
X158600000Y-90038028D01*
X158472694Y-90058190D01*
X158357846Y-90116709D01*
X158266709Y-90207846D01*
X158208190Y-90322694D01*
X158188028Y-90449999D01*
X153458260Y-90449999D01*
X153400000Y-90442329D01*
X153255664Y-90461331D01*
X153121164Y-90517043D01*
X153005667Y-90605667D01*
X152917043Y-90721164D01*
X152871944Y-90830043D01*
X152861331Y-90855664D01*
X152842329Y-91000000D01*
X151678351Y-91000000D01*
X151644333Y-90955667D01*
X151578790Y-90905374D01*
X151528837Y-90867043D01*
X151394336Y-90811331D01*
X151250000Y-90792329D01*
X151105664Y-90811331D01*
X150971164Y-90867043D01*
X150855667Y-90955667D01*
X150767043Y-91071164D01*
X150711331Y-91205664D01*
X150693123Y-91343972D01*
X150692329Y-91350000D01*
X147980246Y-91350000D01*
X147933292Y-91257849D01*
X147933291Y-91257848D01*
X147933290Y-91257846D01*
X147842153Y-91166709D01*
X147727305Y-91108190D01*
X147600000Y-91088028D01*
X147472694Y-91108190D01*
X147357846Y-91166709D01*
X147266709Y-91257846D01*
X147208190Y-91372694D01*
X147188028Y-91499999D01*
X146211972Y-91499999D01*
X146191809Y-91372694D01*
X146133292Y-91257849D01*
X146133291Y-91257848D01*
X146133290Y-91257846D01*
X146042153Y-91166709D01*
X145927305Y-91108190D01*
X145800000Y-91088028D01*
X145672694Y-91108190D01*
X145557846Y-91166709D01*
X145466709Y-91257846D01*
X145408190Y-91372694D01*
X145388028Y-91499999D01*
X140155975Y-91499999D01*
X140182957Y-91464836D01*
X140238669Y-91330336D01*
X140257671Y-91186000D01*
X140238669Y-91041664D01*
X140182957Y-90907165D01*
X140094333Y-90791667D01*
X140026464Y-90739589D01*
X139978837Y-90703043D01*
X139844336Y-90647331D01*
X139700000Y-90628329D01*
X139555664Y-90647331D01*
X139421164Y-90703043D01*
X139305667Y-90791667D01*
X139217043Y-90907164D01*
X139161331Y-91041664D01*
X139144444Y-91169938D01*
X139142329Y-91186000D01*
X137484157Y-91186000D01*
X137544921Y-91115874D01*
X137599023Y-90997409D01*
X137617557Y-90868500D01*
X137599023Y-90739591D01*
X137544921Y-90621126D01*
X137459636Y-90522701D01*
X137350076Y-90452292D01*
X137350075Y-90452291D01*
X137350074Y-90452291D01*
X137277060Y-90430852D01*
X137225117Y-90415600D01*
X137094883Y-90415600D01*
X137058191Y-90426373D01*
X136969925Y-90452291D01*
X136928209Y-90479100D01*
X136860364Y-90522701D01*
X136860363Y-90522701D01*
X136860363Y-90522702D01*
X136775078Y-90621126D01*
X136720977Y-90739589D01*
X136702443Y-90868499D01*
X136291915Y-90868499D01*
X136281809Y-90804694D01*
X136223292Y-90689849D01*
X136223291Y-90689848D01*
X136223290Y-90689846D01*
X136132153Y-90598709D01*
X136017305Y-90540190D01*
X135890000Y-90520028D01*
X135762694Y-90540190D01*
X135647846Y-90598709D01*
X135556709Y-90689846D01*
X135498190Y-90804694D01*
X135478028Y-90931999D01*
X135031972Y-90931999D01*
X135011809Y-90804694D01*
X134953292Y-90689849D01*
X134953291Y-90689848D01*
X134953290Y-90689846D01*
X134862153Y-90598709D01*
X134747305Y-90540190D01*
X134620000Y-90520028D01*
X134492694Y-90540190D01*
X134377846Y-90598709D01*
X134286709Y-90689846D01*
X134228190Y-90804694D01*
X134208028Y-90931999D01*
X133761972Y-90931999D01*
X133741809Y-90804694D01*
X133683292Y-90689849D01*
X133683291Y-90689848D01*
X133683290Y-90689846D01*
X133592153Y-90598709D01*
X133477305Y-90540190D01*
X133350000Y-90520028D01*
X133222694Y-90540190D01*
X133107846Y-90598709D01*
X133016709Y-90689846D01*
X132958190Y-90804694D01*
X132938028Y-90931999D01*
X132491972Y-90931999D01*
X132471809Y-90804694D01*
X132413292Y-90689849D01*
X132413291Y-90689848D01*
X132413290Y-90689846D01*
X132322153Y-90598709D01*
X132207305Y-90540190D01*
X132080000Y-90520028D01*
X131952694Y-90540190D01*
X131837846Y-90598709D01*
X131746709Y-90689846D01*
X131688190Y-90804694D01*
X131668028Y-90931999D01*
X131221972Y-90931999D01*
X131201809Y-90804694D01*
X131143292Y-90689849D01*
X131143291Y-90689848D01*
X131143290Y-90689846D01*
X131052153Y-90598709D01*
X130937305Y-90540190D01*
X130810000Y-90520028D01*
X130682694Y-90540190D01*
X130567846Y-90598709D01*
X130476709Y-90689846D01*
X130418190Y-90804694D01*
X130398028Y-90931999D01*
X127411972Y-90931999D01*
X127391809Y-90804694D01*
X127333292Y-90689849D01*
X127333291Y-90689848D01*
X127333290Y-90689846D01*
X127242153Y-90598709D01*
X127127305Y-90540190D01*
X127000000Y-90520028D01*
X126872694Y-90540190D01*
X126757846Y-90598709D01*
X126666709Y-90689846D01*
X126608190Y-90804694D01*
X126588028Y-90931999D01*
X126141972Y-90931999D01*
X126121809Y-90804694D01*
X126063292Y-90689849D01*
X126063291Y-90689848D01*
X126063290Y-90689846D01*
X125972153Y-90598709D01*
X125857305Y-90540190D01*
X125730000Y-90520028D01*
X125602694Y-90540190D01*
X125487846Y-90598709D01*
X125396709Y-90689846D01*
X125338190Y-90804694D01*
X125318028Y-90931999D01*
X122368427Y-90931999D01*
X122377557Y-90868500D01*
X122359023Y-90739591D01*
X122304921Y-90621126D01*
X122219636Y-90522701D01*
X122110076Y-90452292D01*
X122110075Y-90452291D01*
X122110074Y-90452291D01*
X122037060Y-90430852D01*
X121985117Y-90415600D01*
X121854883Y-90415600D01*
X121818191Y-90426373D01*
X121729925Y-90452291D01*
X121688209Y-90479100D01*
X121620364Y-90522701D01*
X121620363Y-90522701D01*
X121620363Y-90522702D01*
X121535078Y-90621126D01*
X121480977Y-90739589D01*
X121462443Y-90868499D01*
X119708953Y-90868499D01*
X119700447Y-90861972D01*
X119658837Y-90830043D01*
X119524336Y-90774331D01*
X119380000Y-90755329D01*
X119235664Y-90774331D01*
X119101164Y-90830043D01*
X118985667Y-90918667D01*
X118897043Y-91034164D01*
X118841331Y-91168664D01*
X118822329Y-91313000D01*
X117947378Y-91313000D01*
X117873336Y-91282331D01*
X117729000Y-91263329D01*
X117584664Y-91282331D01*
X117450164Y-91338043D01*
X117334667Y-91426667D01*
X117246043Y-91542164D01*
X117190331Y-91676664D01*
X117171329Y-91821000D01*
X107300244Y-91821000D01*
X107289957Y-91796165D01*
X107201333Y-91680667D01*
X107131792Y-91627306D01*
X107085837Y-91592043D01*
X106951336Y-91536331D01*
X106807000Y-91517329D01*
X106662664Y-91536331D01*
X106528164Y-91592043D01*
X106412667Y-91680667D01*
X106324043Y-91796164D01*
X106268331Y-91930664D01*
X106251875Y-92055664D01*
X106249329Y-92075000D01*
X84224564Y-92075000D01*
X84214333Y-92061667D01*
X84156584Y-92017354D01*
X84098837Y-91973043D01*
X83964336Y-91917331D01*
X83820000Y-91898329D01*
X83675664Y-91917331D01*
X83541164Y-91973043D01*
X83425667Y-92061667D01*
X83337043Y-92177164D01*
X83281331Y-92311664D01*
X83262329Y-92456000D01*
X81167319Y-92456000D01*
X81291650Y-92228306D01*
X81386267Y-91974626D01*
X81395831Y-91930664D01*
X81417013Y-91833290D01*
X81443820Y-91710062D01*
X81463135Y-91440000D01*
X81454052Y-91313000D01*
X84532329Y-91313000D01*
X84551331Y-91457336D01*
X84607043Y-91591837D01*
X84634259Y-91627305D01*
X84695667Y-91707333D01*
X84770924Y-91765080D01*
X84811162Y-91795956D01*
X84811163Y-91795956D01*
X84811164Y-91795957D01*
X84945664Y-91851669D01*
X85090000Y-91870671D01*
X85234336Y-91851669D01*
X85368836Y-91795957D01*
X85484333Y-91707333D01*
X85572957Y-91591836D01*
X85628669Y-91457336D01*
X85647671Y-91313000D01*
X85628669Y-91168664D01*
X85572957Y-91034165D01*
X85494564Y-90932000D01*
X87172443Y-90932000D01*
X87190977Y-91060910D01*
X87245078Y-91179373D01*
X87250820Y-91186000D01*
X87330364Y-91277799D01*
X87439924Y-91348208D01*
X87564883Y-91384900D01*
X87695116Y-91384900D01*
X87695117Y-91384900D01*
X87820076Y-91348208D01*
X87929636Y-91277799D01*
X88014921Y-91179374D01*
X88069023Y-91060909D01*
X88087557Y-90932000D01*
X96108028Y-90932000D01*
X96128190Y-91059305D01*
X96186709Y-91174153D01*
X96277846Y-91265290D01*
X96277848Y-91265291D01*
X96277849Y-91265292D01*
X96392694Y-91323809D01*
X96520000Y-91343972D01*
X96647306Y-91323809D01*
X96762151Y-91265292D01*
X96853292Y-91174151D01*
X96911809Y-91059306D01*
X96931972Y-90932000D01*
X97378028Y-90932000D01*
X97398190Y-91059305D01*
X97456709Y-91174153D01*
X97547846Y-91265290D01*
X97547848Y-91265291D01*
X97547849Y-91265292D01*
X97662694Y-91323809D01*
X97790000Y-91343972D01*
X97917306Y-91323809D01*
X98032151Y-91265292D01*
X98123292Y-91174151D01*
X98181809Y-91059306D01*
X98201972Y-90932000D01*
X98648028Y-90932000D01*
X98668190Y-91059305D01*
X98726709Y-91174153D01*
X98817846Y-91265290D01*
X98817848Y-91265291D01*
X98817849Y-91265292D01*
X98932694Y-91323809D01*
X99060000Y-91343972D01*
X99187306Y-91323809D01*
X99302151Y-91265292D01*
X99393292Y-91174151D01*
X99451809Y-91059306D01*
X99471972Y-90932000D01*
X99918028Y-90932000D01*
X99938190Y-91059305D01*
X99996709Y-91174153D01*
X100087846Y-91265290D01*
X100087848Y-91265291D01*
X100087849Y-91265292D01*
X100202694Y-91323809D01*
X100330000Y-91343972D01*
X100457306Y-91323809D01*
X100572151Y-91265292D01*
X100663292Y-91174151D01*
X100721809Y-91059306D01*
X100741972Y-90932000D01*
X101188028Y-90932000D01*
X101208190Y-91059305D01*
X101266709Y-91174153D01*
X101357846Y-91265290D01*
X101357848Y-91265291D01*
X101357849Y-91265292D01*
X101472694Y-91323809D01*
X101600000Y-91343972D01*
X101727306Y-91323809D01*
X101842151Y-91265292D01*
X101933292Y-91174151D01*
X101991809Y-91059306D01*
X102011972Y-90932000D01*
X102001915Y-90868499D01*
X102412443Y-90868499D01*
X102430977Y-90997410D01*
X102485078Y-91115873D01*
X102485079Y-91115874D01*
X102570364Y-91214299D01*
X102679924Y-91284708D01*
X102804883Y-91321400D01*
X102935116Y-91321400D01*
X102935117Y-91321400D01*
X102963724Y-91313000D01*
X104852329Y-91313000D01*
X104871331Y-91457336D01*
X104927043Y-91591837D01*
X104954259Y-91627305D01*
X105015667Y-91707333D01*
X105090924Y-91765080D01*
X105131162Y-91795956D01*
X105131163Y-91795956D01*
X105131164Y-91795957D01*
X105265664Y-91851669D01*
X105410000Y-91870671D01*
X105554336Y-91851669D01*
X105688836Y-91795957D01*
X105804333Y-91707333D01*
X105892957Y-91591836D01*
X105948669Y-91457336D01*
X105967671Y-91313000D01*
X105948669Y-91168664D01*
X105892957Y-91034165D01*
X105804333Y-90918667D01*
X105730447Y-90861972D01*
X105688837Y-90830043D01*
X105554336Y-90774331D01*
X105410000Y-90755329D01*
X105265664Y-90774331D01*
X105131164Y-90830043D01*
X105015667Y-90918667D01*
X104927043Y-91034164D01*
X104871331Y-91168664D01*
X104852329Y-91313000D01*
X102963724Y-91313000D01*
X103060076Y-91284708D01*
X103169636Y-91214299D01*
X103254921Y-91115874D01*
X103309023Y-90997409D01*
X103327557Y-90868500D01*
X103309023Y-90739591D01*
X103254921Y-90621126D01*
X103169636Y-90522701D01*
X103060076Y-90452292D01*
X103060075Y-90452291D01*
X103060074Y-90452291D01*
X102987060Y-90430852D01*
X102935117Y-90415600D01*
X102804883Y-90415600D01*
X102768191Y-90426373D01*
X102679925Y-90452291D01*
X102638209Y-90479100D01*
X102570364Y-90522701D01*
X102570363Y-90522701D01*
X102570363Y-90522702D01*
X102485078Y-90621126D01*
X102430977Y-90739589D01*
X102412443Y-90868499D01*
X102001915Y-90868499D01*
X101991809Y-90804694D01*
X101933292Y-90689849D01*
X101933291Y-90689848D01*
X101933290Y-90689846D01*
X101842153Y-90598709D01*
X101727305Y-90540190D01*
X101600000Y-90520028D01*
X101472694Y-90540190D01*
X101357846Y-90598709D01*
X101266709Y-90689846D01*
X101208190Y-90804694D01*
X101188028Y-90932000D01*
X100741972Y-90932000D01*
X100721809Y-90804694D01*
X100663292Y-90689849D01*
X100663291Y-90689848D01*
X100663290Y-90689846D01*
X100572153Y-90598709D01*
X100457305Y-90540190D01*
X100330000Y-90520028D01*
X100202694Y-90540190D01*
X100087846Y-90598709D01*
X99996709Y-90689846D01*
X99938190Y-90804694D01*
X99918028Y-90932000D01*
X99471972Y-90932000D01*
X99451809Y-90804694D01*
X99393292Y-90689849D01*
X99393291Y-90689848D01*
X99393290Y-90689846D01*
X99302153Y-90598709D01*
X99187305Y-90540190D01*
X99060000Y-90520028D01*
X98932694Y-90540190D01*
X98817846Y-90598709D01*
X98726709Y-90689846D01*
X98668190Y-90804694D01*
X98648028Y-90932000D01*
X98201972Y-90932000D01*
X98181809Y-90804694D01*
X98123292Y-90689849D01*
X98123291Y-90689848D01*
X98123290Y-90689846D01*
X98032153Y-90598709D01*
X97917305Y-90540190D01*
X97790000Y-90520028D01*
X97662694Y-90540190D01*
X97547846Y-90598709D01*
X97456709Y-90689846D01*
X97398190Y-90804694D01*
X97378028Y-90932000D01*
X96931972Y-90932000D01*
X96911809Y-90804694D01*
X96853292Y-90689849D01*
X96853291Y-90689848D01*
X96853290Y-90689846D01*
X96762153Y-90598709D01*
X96647305Y-90540190D01*
X96520000Y-90520028D01*
X96392694Y-90540190D01*
X96277846Y-90598709D01*
X96186709Y-90689846D01*
X96128190Y-90804694D01*
X96108028Y-90932000D01*
X88087557Y-90932000D01*
X88069023Y-90803091D01*
X88014921Y-90684626D01*
X87929636Y-90586201D01*
X87820076Y-90515792D01*
X87820075Y-90515791D01*
X87820074Y-90515791D01*
X87747060Y-90494352D01*
X87695117Y-90479100D01*
X87564883Y-90479100D01*
X87528191Y-90489873D01*
X87439925Y-90515791D01*
X87401959Y-90540190D01*
X87330364Y-90586201D01*
X87330363Y-90586201D01*
X87330363Y-90586202D01*
X87245078Y-90684626D01*
X87190977Y-90803089D01*
X87172443Y-90932000D01*
X85494564Y-90932000D01*
X85484333Y-90918667D01*
X85410447Y-90861972D01*
X85368837Y-90830043D01*
X85234336Y-90774331D01*
X85090000Y-90755329D01*
X84945664Y-90774331D01*
X84811164Y-90830043D01*
X84695667Y-90918667D01*
X84607043Y-91034164D01*
X84551331Y-91168664D01*
X84532329Y-91313000D01*
X81454052Y-91313000D01*
X81443820Y-91169938D01*
X81419753Y-91059305D01*
X81386268Y-90905377D01*
X81351191Y-90811331D01*
X81291650Y-90651694D01*
X81251031Y-90577306D01*
X81161894Y-90414064D01*
X81098652Y-90329582D01*
X80999637Y-90197313D01*
X80999634Y-90197310D01*
X80999632Y-90197307D01*
X80808192Y-90005867D01*
X80591435Y-89843605D01*
X80353807Y-89713850D01*
X80100122Y-89619231D01*
X79835561Y-89561679D01*
X79565500Y-89542364D01*
X79295438Y-89561679D01*
X79030877Y-89619231D01*
X78777192Y-89713850D01*
X78539564Y-89843605D01*
X78322807Y-90005867D01*
X78131367Y-90197307D01*
X77969105Y-90414064D01*
X77839350Y-90651692D01*
X77744731Y-90905377D01*
X77687179Y-91169938D01*
X77667864Y-91440000D01*
X76505300Y-91440000D01*
X76505300Y-88392000D01*
X91028028Y-88392000D01*
X91048190Y-88519305D01*
X91106709Y-88634153D01*
X91197846Y-88725290D01*
X91197848Y-88725291D01*
X91197849Y-88725292D01*
X91312694Y-88783809D01*
X91440000Y-88803972D01*
X91567306Y-88783809D01*
X91682151Y-88725292D01*
X91773292Y-88634151D01*
X91831809Y-88519306D01*
X91851972Y-88392000D01*
X93568028Y-88392000D01*
X93588190Y-88519305D01*
X93646709Y-88634153D01*
X93737846Y-88725290D01*
X93737848Y-88725291D01*
X93737849Y-88725292D01*
X93852694Y-88783809D01*
X93980000Y-88803972D01*
X94107306Y-88783809D01*
X94222151Y-88725292D01*
X94313292Y-88634151D01*
X94371809Y-88519306D01*
X94391972Y-88392000D01*
X96108028Y-88392000D01*
X96128190Y-88519305D01*
X96186709Y-88634153D01*
X96277846Y-88725290D01*
X96277848Y-88725291D01*
X96277849Y-88725292D01*
X96392694Y-88783809D01*
X96520000Y-88803972D01*
X96647306Y-88783809D01*
X96762151Y-88725292D01*
X96853292Y-88634151D01*
X96911809Y-88519306D01*
X96931972Y-88392000D01*
X97378028Y-88392000D01*
X97398190Y-88519305D01*
X97456709Y-88634153D01*
X97547846Y-88725290D01*
X97547848Y-88725291D01*
X97547849Y-88725292D01*
X97662694Y-88783809D01*
X97790000Y-88803972D01*
X97917306Y-88783809D01*
X98032151Y-88725292D01*
X98123292Y-88634151D01*
X98181809Y-88519306D01*
X98201972Y-88392000D01*
X98648028Y-88392000D01*
X98668190Y-88519305D01*
X98726709Y-88634153D01*
X98817846Y-88725290D01*
X98817848Y-88725291D01*
X98817849Y-88725292D01*
X98932694Y-88783809D01*
X99060000Y-88803972D01*
X99187306Y-88783809D01*
X99302151Y-88725292D01*
X99393292Y-88634151D01*
X99451809Y-88519306D01*
X99471972Y-88392000D01*
X99918028Y-88392000D01*
X99938190Y-88519305D01*
X99996709Y-88634153D01*
X100087846Y-88725290D01*
X100087848Y-88725291D01*
X100087849Y-88725292D01*
X100202694Y-88783809D01*
X100330000Y-88803972D01*
X100457306Y-88783809D01*
X100572151Y-88725292D01*
X100663292Y-88634151D01*
X100721809Y-88519306D01*
X100741972Y-88392000D01*
X101188028Y-88392000D01*
X101208190Y-88519305D01*
X101266709Y-88634153D01*
X101357846Y-88725290D01*
X101357848Y-88725291D01*
X101357849Y-88725292D01*
X101472694Y-88783809D01*
X101600000Y-88803972D01*
X101727306Y-88783809D01*
X101842151Y-88725292D01*
X101933292Y-88634151D01*
X101991809Y-88519306D01*
X102011972Y-88392000D01*
X102011972Y-88391999D01*
X127858028Y-88391999D01*
X127878190Y-88519305D01*
X127936709Y-88634153D01*
X128027846Y-88725290D01*
X128027848Y-88725291D01*
X128027849Y-88725292D01*
X128142694Y-88783809D01*
X128270000Y-88803972D01*
X128397306Y-88783809D01*
X128512151Y-88725292D01*
X128603292Y-88634151D01*
X128661809Y-88519306D01*
X128681972Y-88392000D01*
X128681972Y-88391999D01*
X130398028Y-88391999D01*
X130418190Y-88519305D01*
X130476709Y-88634153D01*
X130567846Y-88725290D01*
X130567848Y-88725291D01*
X130567849Y-88725292D01*
X130682694Y-88783809D01*
X130810000Y-88803972D01*
X130937306Y-88783809D01*
X131052151Y-88725292D01*
X131143292Y-88634151D01*
X131201809Y-88519306D01*
X131221972Y-88392000D01*
X131221972Y-88391999D01*
X131668028Y-88391999D01*
X131688190Y-88519305D01*
X131746709Y-88634153D01*
X131837846Y-88725290D01*
X131837848Y-88725291D01*
X131837849Y-88725292D01*
X131952694Y-88783809D01*
X132080000Y-88803972D01*
X132207306Y-88783809D01*
X132322151Y-88725292D01*
X132413292Y-88634151D01*
X132471809Y-88519306D01*
X132491972Y-88392000D01*
X132491972Y-88391999D01*
X132938028Y-88391999D01*
X132958190Y-88519305D01*
X133016709Y-88634153D01*
X133107846Y-88725290D01*
X133107848Y-88725291D01*
X133107849Y-88725292D01*
X133222694Y-88783809D01*
X133350000Y-88803972D01*
X133477306Y-88783809D01*
X133592151Y-88725292D01*
X133683292Y-88634151D01*
X133741809Y-88519306D01*
X133761972Y-88392000D01*
X133761972Y-88391999D01*
X134208028Y-88391999D01*
X134228190Y-88519305D01*
X134286709Y-88634153D01*
X134377846Y-88725290D01*
X134377848Y-88725291D01*
X134377849Y-88725292D01*
X134492694Y-88783809D01*
X134620000Y-88803972D01*
X134747306Y-88783809D01*
X134862151Y-88725292D01*
X134953292Y-88634151D01*
X135011809Y-88519306D01*
X135031972Y-88392000D01*
X135031972Y-88391999D01*
X135478028Y-88391999D01*
X135498190Y-88519305D01*
X135556709Y-88634153D01*
X135647846Y-88725290D01*
X135647848Y-88725291D01*
X135647849Y-88725292D01*
X135762694Y-88783809D01*
X135890000Y-88803972D01*
X136017306Y-88783809D01*
X136132151Y-88725292D01*
X136223292Y-88634151D01*
X136281809Y-88519306D01*
X136301972Y-88392000D01*
X136281809Y-88264694D01*
X136223292Y-88149849D01*
X136223291Y-88149848D01*
X136223290Y-88149846D01*
X136132153Y-88058709D01*
X136017305Y-88000190D01*
X135890000Y-87980028D01*
X135762694Y-88000190D01*
X135647846Y-88058709D01*
X135556709Y-88149846D01*
X135498190Y-88264694D01*
X135478028Y-88391999D01*
X135031972Y-88391999D01*
X135011809Y-88264694D01*
X134953292Y-88149849D01*
X134953291Y-88149848D01*
X134953290Y-88149846D01*
X134862153Y-88058709D01*
X134747305Y-88000190D01*
X134620000Y-87980028D01*
X134492694Y-88000190D01*
X134377846Y-88058709D01*
X134286709Y-88149846D01*
X134228190Y-88264694D01*
X134208028Y-88391999D01*
X133761972Y-88391999D01*
X133741809Y-88264694D01*
X133683292Y-88149849D01*
X133683291Y-88149848D01*
X133683290Y-88149846D01*
X133592153Y-88058709D01*
X133477305Y-88000190D01*
X133350000Y-87980028D01*
X133222694Y-88000190D01*
X133107846Y-88058709D01*
X133016709Y-88149846D01*
X132958190Y-88264694D01*
X132938028Y-88391999D01*
X132491972Y-88391999D01*
X132471809Y-88264694D01*
X132413292Y-88149849D01*
X132413291Y-88149848D01*
X132413290Y-88149846D01*
X132322153Y-88058709D01*
X132207305Y-88000190D01*
X132080000Y-87980028D01*
X131952694Y-88000190D01*
X131837846Y-88058709D01*
X131746709Y-88149846D01*
X131688190Y-88264694D01*
X131668028Y-88391999D01*
X131221972Y-88391999D01*
X131201809Y-88264694D01*
X131143292Y-88149849D01*
X131143291Y-88149848D01*
X131143290Y-88149846D01*
X131052153Y-88058709D01*
X130937305Y-88000190D01*
X130810000Y-87980028D01*
X130682694Y-88000190D01*
X130567846Y-88058709D01*
X130476709Y-88149846D01*
X130418190Y-88264694D01*
X130398028Y-88391999D01*
X128681972Y-88391999D01*
X128661809Y-88264694D01*
X128603292Y-88149849D01*
X128603291Y-88149848D01*
X128603290Y-88149846D01*
X128512153Y-88058709D01*
X128397305Y-88000190D01*
X128270000Y-87980028D01*
X128142694Y-88000190D01*
X128027846Y-88058709D01*
X127936709Y-88149846D01*
X127878190Y-88264694D01*
X127858028Y-88391999D01*
X102011972Y-88391999D01*
X101991809Y-88264694D01*
X101933292Y-88149849D01*
X101933291Y-88149848D01*
X101933290Y-88149846D01*
X101842153Y-88058709D01*
X101727305Y-88000190D01*
X101600000Y-87980028D01*
X101472694Y-88000190D01*
X101357846Y-88058709D01*
X101266709Y-88149846D01*
X101208190Y-88264694D01*
X101188028Y-88392000D01*
X100741972Y-88392000D01*
X100721809Y-88264694D01*
X100663292Y-88149849D01*
X100663291Y-88149848D01*
X100663290Y-88149846D01*
X100572153Y-88058709D01*
X100457305Y-88000190D01*
X100330000Y-87980028D01*
X100202694Y-88000190D01*
X100087846Y-88058709D01*
X99996709Y-88149846D01*
X99938190Y-88264694D01*
X99918028Y-88392000D01*
X99471972Y-88392000D01*
X99451809Y-88264694D01*
X99393292Y-88149849D01*
X99393291Y-88149848D01*
X99393290Y-88149846D01*
X99302153Y-88058709D01*
X99187305Y-88000190D01*
X99060000Y-87980028D01*
X98932694Y-88000190D01*
X98817846Y-88058709D01*
X98726709Y-88149846D01*
X98668190Y-88264694D01*
X98648028Y-88392000D01*
X98201972Y-88392000D01*
X98181809Y-88264694D01*
X98123292Y-88149849D01*
X98123291Y-88149848D01*
X98123290Y-88149846D01*
X98032153Y-88058709D01*
X97917305Y-88000190D01*
X97790000Y-87980028D01*
X97662694Y-88000190D01*
X97547846Y-88058709D01*
X97456709Y-88149846D01*
X97398190Y-88264694D01*
X97378028Y-88392000D01*
X96931972Y-88392000D01*
X96911809Y-88264694D01*
X96853292Y-88149849D01*
X96853291Y-88149848D01*
X96853290Y-88149846D01*
X96762153Y-88058709D01*
X96647305Y-88000190D01*
X96520000Y-87980028D01*
X96392694Y-88000190D01*
X96277846Y-88058709D01*
X96186709Y-88149846D01*
X96128190Y-88264694D01*
X96108028Y-88392000D01*
X94391972Y-88392000D01*
X94371809Y-88264694D01*
X94313292Y-88149849D01*
X94313291Y-88149848D01*
X94313290Y-88149846D01*
X94222153Y-88058709D01*
X94107305Y-88000190D01*
X93980000Y-87980028D01*
X93852694Y-88000190D01*
X93737846Y-88058709D01*
X93646709Y-88149846D01*
X93588190Y-88264694D01*
X93568028Y-88392000D01*
X91851972Y-88392000D01*
X91831809Y-88264694D01*
X91773292Y-88149849D01*
X91773291Y-88149848D01*
X91773290Y-88149846D01*
X91682153Y-88058709D01*
X91567305Y-88000190D01*
X91440000Y-87980028D01*
X91312694Y-88000190D01*
X91197846Y-88058709D01*
X91106709Y-88149846D01*
X91048190Y-88264694D01*
X91028028Y-88392000D01*
X76505300Y-88392000D01*
X76505300Y-86995000D01*
X76677028Y-86995000D01*
X76697190Y-87122305D01*
X76755709Y-87237153D01*
X76846846Y-87328290D01*
X76846848Y-87328291D01*
X76846849Y-87328292D01*
X76961694Y-87386809D01*
X77089000Y-87406972D01*
X77216306Y-87386809D01*
X77288547Y-87350000D01*
X153042443Y-87350000D01*
X153060977Y-87478910D01*
X153115078Y-87597373D01*
X153115079Y-87597374D01*
X153200364Y-87695799D01*
X153309924Y-87766208D01*
X153434883Y-87802900D01*
X153565116Y-87802900D01*
X153565117Y-87802900D01*
X153690076Y-87766208D01*
X153799636Y-87695799D01*
X153884921Y-87597374D01*
X153906556Y-87550000D01*
X155442443Y-87550000D01*
X155460977Y-87678910D01*
X155515078Y-87797373D01*
X155515079Y-87797374D01*
X155600364Y-87895799D01*
X155709924Y-87966208D01*
X155834883Y-88002900D01*
X155965116Y-88002900D01*
X155965117Y-88002900D01*
X156090076Y-87966208D01*
X156199636Y-87895799D01*
X156284921Y-87797374D01*
X156339023Y-87678909D01*
X156357557Y-87550000D01*
X156339023Y-87421091D01*
X156284921Y-87302626D01*
X156199636Y-87204201D01*
X156090076Y-87133792D01*
X156090075Y-87133791D01*
X156090074Y-87133791D01*
X155983936Y-87102626D01*
X155965117Y-87097100D01*
X155834883Y-87097100D01*
X155816064Y-87102626D01*
X155709925Y-87133791D01*
X155655143Y-87168996D01*
X155600364Y-87204201D01*
X155600363Y-87204201D01*
X155600363Y-87204202D01*
X155515078Y-87302626D01*
X155460977Y-87421089D01*
X155442443Y-87550000D01*
X153906556Y-87550000D01*
X153939023Y-87478909D01*
X153957557Y-87350000D01*
X153939023Y-87221091D01*
X153884921Y-87102626D01*
X153799636Y-87004201D01*
X153690076Y-86933792D01*
X153690075Y-86933791D01*
X153690074Y-86933791D01*
X153615762Y-86911971D01*
X153565117Y-86897100D01*
X153434883Y-86897100D01*
X153398191Y-86907873D01*
X153309925Y-86933791D01*
X153255143Y-86968996D01*
X153200364Y-87004201D01*
X153200363Y-87004201D01*
X153200363Y-87004202D01*
X153115078Y-87102626D01*
X153060977Y-87221089D01*
X153042443Y-87350000D01*
X77288547Y-87350000D01*
X77331151Y-87328292D01*
X77422292Y-87237151D01*
X77480809Y-87122306D01*
X77500972Y-86995000D01*
X77480809Y-86867694D01*
X77422292Y-86752849D01*
X77422291Y-86752848D01*
X77422290Y-86752846D01*
X77331153Y-86661709D01*
X77216305Y-86603190D01*
X77089000Y-86583028D01*
X76961694Y-86603190D01*
X76846846Y-86661709D01*
X76755709Y-86752846D01*
X76697190Y-86867694D01*
X76677028Y-86995000D01*
X76505300Y-86995000D01*
X76505300Y-86500000D01*
X84038028Y-86500000D01*
X84058190Y-86627305D01*
X84116709Y-86742153D01*
X84207846Y-86833290D01*
X84207848Y-86833291D01*
X84207849Y-86833292D01*
X84322694Y-86891809D01*
X84450000Y-86911972D01*
X84577306Y-86891809D01*
X84692151Y-86833292D01*
X84783292Y-86742151D01*
X84830246Y-86650000D01*
X154288028Y-86650000D01*
X154308190Y-86777305D01*
X154366709Y-86892153D01*
X154457846Y-86983290D01*
X154457848Y-86983291D01*
X154457849Y-86983292D01*
X154572694Y-87041809D01*
X154700000Y-87061972D01*
X154827306Y-87041809D01*
X154942151Y-86983292D01*
X155033292Y-86892151D01*
X155091809Y-86777306D01*
X155111972Y-86650000D01*
X156138028Y-86650000D01*
X156158190Y-86777305D01*
X156216709Y-86892153D01*
X156307846Y-86983290D01*
X156307848Y-86983291D01*
X156307849Y-86983292D01*
X156422694Y-87041809D01*
X156550000Y-87061972D01*
X156677306Y-87041809D01*
X156769173Y-86995000D01*
X163799028Y-86995000D01*
X163802221Y-87015162D01*
X163819190Y-87122305D01*
X163877709Y-87237153D01*
X163968846Y-87328290D01*
X163968848Y-87328291D01*
X163968849Y-87328292D01*
X164083694Y-87386809D01*
X164211000Y-87406972D01*
X164338306Y-87386809D01*
X164453151Y-87328292D01*
X164544292Y-87237151D01*
X164602809Y-87122306D01*
X164622972Y-86995000D01*
X164602809Y-86867694D01*
X164544292Y-86752849D01*
X164544291Y-86752848D01*
X164544290Y-86752846D01*
X164453153Y-86661709D01*
X164338305Y-86603190D01*
X164211000Y-86583028D01*
X164083694Y-86603190D01*
X163968846Y-86661709D01*
X163877709Y-86752846D01*
X163819190Y-86867694D01*
X163800882Y-86983292D01*
X163799028Y-86995000D01*
X156769173Y-86995000D01*
X156792151Y-86983292D01*
X156883292Y-86892151D01*
X156941809Y-86777306D01*
X156961972Y-86650000D01*
X156941809Y-86522694D01*
X156883292Y-86407849D01*
X156883291Y-86407848D01*
X156883290Y-86407846D01*
X156792153Y-86316709D01*
X156677305Y-86258190D01*
X156550000Y-86238028D01*
X156422694Y-86258190D01*
X156307846Y-86316709D01*
X156216709Y-86407846D01*
X156158190Y-86522694D01*
X156138028Y-86650000D01*
X155111972Y-86650000D01*
X155091809Y-86522694D01*
X155033292Y-86407849D01*
X155033291Y-86407848D01*
X155033290Y-86407846D01*
X154942153Y-86316709D01*
X154827305Y-86258190D01*
X154700000Y-86238028D01*
X154572694Y-86258190D01*
X154457846Y-86316709D01*
X154366709Y-86407846D01*
X154308190Y-86522694D01*
X154288028Y-86650000D01*
X84830246Y-86650000D01*
X84841809Y-86627306D01*
X84861972Y-86500000D01*
X84841809Y-86372694D01*
X84783292Y-86257849D01*
X84783291Y-86257848D01*
X84783290Y-86257846D01*
X84692153Y-86166709D01*
X84577305Y-86108190D01*
X84450000Y-86088028D01*
X84322694Y-86108190D01*
X84207846Y-86166709D01*
X84116709Y-86257846D01*
X84058190Y-86372694D01*
X84038028Y-86500000D01*
X76505300Y-86500000D01*
X76505300Y-82806952D01*
X76505532Y-82801052D01*
X76514736Y-82684101D01*
X76519840Y-82619242D01*
X76521683Y-82607607D01*
X76563566Y-82433151D01*
X76567207Y-82421943D01*
X76635869Y-82256178D01*
X76641222Y-82245676D01*
X76660187Y-82214729D01*
X76688210Y-82169000D01*
X81757028Y-82169000D01*
X81777190Y-82296305D01*
X81835709Y-82411153D01*
X81926846Y-82502290D01*
X81926848Y-82502291D01*
X81926849Y-82502292D01*
X82041694Y-82560809D01*
X82169000Y-82580972D01*
X82296306Y-82560809D01*
X82411151Y-82502292D01*
X82502292Y-82411151D01*
X82560809Y-82296306D01*
X82580972Y-82169000D01*
X91917028Y-82169000D01*
X91937190Y-82296305D01*
X91995709Y-82411153D01*
X92086846Y-82502290D01*
X92086848Y-82502291D01*
X92086849Y-82502292D01*
X92201694Y-82560809D01*
X92329000Y-82580972D01*
X92456306Y-82560809D01*
X92571151Y-82502292D01*
X92662292Y-82411151D01*
X92720809Y-82296306D01*
X92740972Y-82169000D01*
X102077028Y-82169000D01*
X102097190Y-82296305D01*
X102155709Y-82411153D01*
X102246846Y-82502290D01*
X102246848Y-82502291D01*
X102246849Y-82502292D01*
X102361694Y-82560809D01*
X102489000Y-82580972D01*
X102616306Y-82560809D01*
X102731151Y-82502292D01*
X102822292Y-82411151D01*
X102880809Y-82296306D01*
X102900972Y-82169000D01*
X112237028Y-82169000D01*
X112257190Y-82296305D01*
X112315709Y-82411153D01*
X112406846Y-82502290D01*
X112406848Y-82502291D01*
X112406849Y-82502292D01*
X112521694Y-82560809D01*
X112649000Y-82580972D01*
X112776306Y-82560809D01*
X112891151Y-82502292D01*
X112982292Y-82411151D01*
X113040809Y-82296306D01*
X113060972Y-82169000D01*
X113060972Y-82168999D01*
X128239028Y-82168999D01*
X128259190Y-82296305D01*
X128317709Y-82411153D01*
X128408846Y-82502290D01*
X128408848Y-82502291D01*
X128408849Y-82502292D01*
X128523694Y-82560809D01*
X128651000Y-82580972D01*
X128778306Y-82560809D01*
X128893151Y-82502292D01*
X128984292Y-82411151D01*
X129042809Y-82296306D01*
X129062972Y-82169000D01*
X129062972Y-82168999D01*
X138399028Y-82168999D01*
X138419190Y-82296305D01*
X138477709Y-82411153D01*
X138568846Y-82502290D01*
X138568848Y-82502291D01*
X138568849Y-82502292D01*
X138683694Y-82560809D01*
X138811000Y-82580972D01*
X138938306Y-82560809D01*
X139053151Y-82502292D01*
X139144292Y-82411151D01*
X139202809Y-82296306D01*
X139222972Y-82169000D01*
X148559028Y-82169000D01*
X148579190Y-82296305D01*
X148637709Y-82411153D01*
X148728846Y-82502290D01*
X148728848Y-82502291D01*
X148728849Y-82502292D01*
X148843694Y-82560809D01*
X148971000Y-82580972D01*
X149098306Y-82560809D01*
X149213151Y-82502292D01*
X149304292Y-82411151D01*
X149362809Y-82296306D01*
X149382972Y-82169000D01*
X158719028Y-82169000D01*
X158739190Y-82296305D01*
X158797709Y-82411153D01*
X158888846Y-82502290D01*
X158888848Y-82502291D01*
X158888849Y-82502292D01*
X159003694Y-82560809D01*
X159131000Y-82580972D01*
X159258306Y-82560809D01*
X159373151Y-82502292D01*
X159464292Y-82411151D01*
X159522809Y-82296306D01*
X159542972Y-82169000D01*
X159522809Y-82041694D01*
X159464292Y-81926849D01*
X159464291Y-81926848D01*
X159464290Y-81926846D01*
X159373153Y-81835709D01*
X159258305Y-81777190D01*
X159151162Y-81760221D01*
X159131000Y-81757028D01*
X159130999Y-81757028D01*
X159003694Y-81777190D01*
X158888846Y-81835709D01*
X158797709Y-81926846D01*
X158739190Y-82041694D01*
X158719028Y-82169000D01*
X149382972Y-82169000D01*
X149362809Y-82041694D01*
X149304292Y-81926849D01*
X149304291Y-81926848D01*
X149304290Y-81926846D01*
X149213153Y-81835709D01*
X149098305Y-81777190D01*
X148991162Y-81760221D01*
X148971000Y-81757028D01*
X148970999Y-81757028D01*
X148843694Y-81777190D01*
X148728846Y-81835709D01*
X148637709Y-81926846D01*
X148579190Y-82041694D01*
X148559028Y-82169000D01*
X139222972Y-82169000D01*
X139202809Y-82041694D01*
X139144292Y-81926849D01*
X139144291Y-81926848D01*
X139144290Y-81926846D01*
X139053153Y-81835709D01*
X138938305Y-81777190D01*
X138831162Y-81760221D01*
X138811000Y-81757028D01*
X138810999Y-81757028D01*
X138683694Y-81777190D01*
X138568846Y-81835709D01*
X138477709Y-81926846D01*
X138419190Y-82041694D01*
X138399028Y-82168999D01*
X129062972Y-82168999D01*
X129042809Y-82041694D01*
X128984292Y-81926849D01*
X128984291Y-81926848D01*
X128984290Y-81926846D01*
X128893153Y-81835709D01*
X128778305Y-81777190D01*
X128671162Y-81760221D01*
X128651000Y-81757028D01*
X128650999Y-81757028D01*
X128523694Y-81777190D01*
X128408846Y-81835709D01*
X128317709Y-81926846D01*
X128259190Y-82041694D01*
X128239028Y-82168999D01*
X113060972Y-82168999D01*
X113040809Y-82041694D01*
X112982292Y-81926849D01*
X112982291Y-81926848D01*
X112982290Y-81926846D01*
X112891153Y-81835709D01*
X112776305Y-81777190D01*
X112669162Y-81760221D01*
X112649000Y-81757028D01*
X112648999Y-81757028D01*
X112521694Y-81777190D01*
X112406846Y-81835709D01*
X112315709Y-81926846D01*
X112257190Y-82041694D01*
X112237028Y-82169000D01*
X102900972Y-82169000D01*
X102880809Y-82041694D01*
X102822292Y-81926849D01*
X102822291Y-81926848D01*
X102822290Y-81926846D01*
X102731153Y-81835709D01*
X102616305Y-81777190D01*
X102509162Y-81760221D01*
X102489000Y-81757028D01*
X102488999Y-81757028D01*
X102361694Y-81777190D01*
X102246846Y-81835709D01*
X102155709Y-81926846D01*
X102097190Y-82041694D01*
X102077028Y-82169000D01*
X92740972Y-82169000D01*
X92720809Y-82041694D01*
X92662292Y-81926849D01*
X92662291Y-81926848D01*
X92662290Y-81926846D01*
X92571153Y-81835709D01*
X92456305Y-81777190D01*
X92349162Y-81760221D01*
X92329000Y-81757028D01*
X92328999Y-81757028D01*
X92201694Y-81777190D01*
X92086846Y-81835709D01*
X91995709Y-81926846D01*
X91937190Y-82041694D01*
X91917028Y-82169000D01*
X82580972Y-82169000D01*
X82560809Y-82041694D01*
X82502292Y-81926849D01*
X82502291Y-81926848D01*
X82502290Y-81926846D01*
X82411153Y-81835709D01*
X82296305Y-81777190D01*
X82189162Y-81760221D01*
X82169000Y-81757028D01*
X82168999Y-81757028D01*
X82041694Y-81777190D01*
X81926846Y-81835709D01*
X81835709Y-81926846D01*
X81777190Y-82041694D01*
X81757028Y-82169000D01*
X76688210Y-82169000D01*
X76734961Y-82092709D01*
X76741890Y-82083170D01*
X76858415Y-81946737D01*
X76866737Y-81938415D01*
X77003170Y-81821890D01*
X77012709Y-81814961D01*
X77165676Y-81721222D01*
X77176178Y-81715869D01*
X77341943Y-81647207D01*
X77353151Y-81643566D01*
X77527607Y-81601683D01*
X77539242Y-81599840D01*
X77721052Y-81585531D01*
X77726952Y-81585300D01*
X77772355Y-81585300D01*
X163527645Y-81585300D01*
X163573048Y-81585300D01*
X163578947Y-81585531D01*
G37*
G04 #@! TD.AperFunction*
M02*
