G04 #@! TF.GenerationSoftware,KiCad,Pcbnew,7.0.1-0*
G04 #@! TF.CreationDate,2023-11-01T19:37:55-04:00*
G04 #@! TF.ProjectId,GW4194,47573431-3934-42e6-9b69-6361645f7063,1.1-SOJ-DC*
G04 #@! TF.SameCoordinates,Original*
G04 #@! TF.FileFunction,Paste,Top*
G04 #@! TF.FilePolarity,Positive*
%FSLAX46Y46*%
G04 Gerber Fmt 4.6, Leading zero omitted, Abs format (unit mm)*
G04 Created by KiCad (PCBNEW 7.0.1-0) date 2023-11-01 19:37:55*
%MOMM*%
%LPD*%
G01*
G04 APERTURE LIST*
G04 Aperture macros list*
%AMRoundRect*
0 Rectangle with rounded corners*
0 $1 Rounding radius*
0 $2 $3 $4 $5 $6 $7 $8 $9 X,Y pos of 4 corners*
0 Add a 4 corners polygon primitive as box body*
4,1,4,$2,$3,$4,$5,$6,$7,$8,$9,$2,$3,0*
0 Add four circle primitives for the rounded corners*
1,1,$1+$1,$2,$3*
1,1,$1+$1,$4,$5*
1,1,$1+$1,$6,$7*
1,1,$1+$1,$8,$9*
0 Add four rect primitives between the rounded corners*
20,1,$1+$1,$2,$3,$4,$5,0*
20,1,$1+$1,$4,$5,$6,$7,0*
20,1,$1+$1,$6,$7,$8,$9,0*
20,1,$1+$1,$8,$9,$2,$3,0*%
G04 Aperture macros list end*
%ADD10RoundRect,0.237500X-0.437500X0.262500X-0.437500X-0.262500X0.437500X-0.262500X0.437500X0.262500X0*%
%ADD11RoundRect,0.237500X0.437500X-0.262500X0.437500X0.262500X-0.437500X0.262500X-0.437500X-0.262500X0*%
%ADD12RoundRect,0.187500X0.212500X0.487500X-0.212500X0.487500X-0.212500X-0.487500X0.212500X-0.487500X0*%
%ADD13RoundRect,0.187500X-0.212500X-0.487500X0.212500X-0.487500X0.212500X0.487500X-0.212500X0.487500X0*%
%ADD14RoundRect,0.187500X-0.487500X0.212500X-0.487500X-0.212500X0.487500X-0.212500X0.487500X0.212500X0*%
%ADD15RoundRect,0.060000X0.100000X-0.400000X0.100000X0.400000X-0.100000X0.400000X-0.100000X-0.400000X0*%
%ADD16RoundRect,0.150000X-0.200000X0.475000X-0.200000X-0.475000X0.200000X-0.475000X0.200000X0.475000X0*%
%ADD17RoundRect,0.187500X0.487500X-0.212500X0.487500X0.212500X-0.487500X0.212500X-0.487500X-0.212500X0*%
%ADD18RoundRect,0.125000X0.150000X-1.374000X0.150000X1.374000X-0.150000X1.374000X-0.150000X-1.374000X0*%
%ADD19RoundRect,0.110000X-0.425000X-0.150000X0.425000X-0.150000X0.425000X0.150000X-0.425000X0.150000X0*%
%ADD20RoundRect,0.060000X-0.475000X-0.100000X0.475000X-0.100000X0.475000X0.100000X-0.475000X0.100000X0*%
%ADD21RoundRect,0.072500X-0.462500X-0.112500X0.462500X-0.112500X0.462500X0.112500X-0.462500X0.112500X0*%
G04 APERTURE END LIST*
D10*
X85090000Y-92407000D03*
X85090000Y-94107000D03*
X105410000Y-92407000D03*
X105410000Y-94107000D03*
X119380000Y-92407000D03*
X119380000Y-94107000D03*
D11*
X157480000Y-94107000D03*
X157480000Y-92407000D03*
D12*
X83650000Y-86500000D03*
X81750000Y-86500000D03*
D13*
X81750000Y-84500000D03*
X83650000Y-84500000D03*
D10*
X146800000Y-87550000D03*
X146800000Y-89250000D03*
D14*
X144800000Y-87450000D03*
X144800000Y-89350000D03*
D15*
X147600000Y-94100000D03*
X148250000Y-94100000D03*
X148900000Y-94100000D03*
X148900000Y-92400000D03*
X147600000Y-92400000D03*
X156550000Y-89250000D03*
X157200000Y-89250000D03*
X157850000Y-89250000D03*
X157850000Y-87550000D03*
X156550000Y-87550000D03*
D10*
X154700000Y-87550000D03*
X154700000Y-89250000D03*
D16*
X155300000Y-92200000D03*
X153400000Y-92200000D03*
X154350000Y-94300000D03*
D10*
X151250000Y-92400000D03*
X151250000Y-94100000D03*
D17*
X142200000Y-89350000D03*
X142200000Y-87450000D03*
D10*
X145800000Y-92400000D03*
X145800000Y-94100000D03*
D18*
X121920000Y-92837000D03*
X123190000Y-92837000D03*
X124460000Y-92837000D03*
X125730000Y-92837000D03*
X127000000Y-92837000D03*
X128270000Y-92837000D03*
X130810000Y-92837000D03*
X132080000Y-92837000D03*
X133350000Y-92837000D03*
X134620000Y-92837000D03*
X135890000Y-92837000D03*
X137160000Y-92837000D03*
X137160000Y-86487000D03*
X135890000Y-86487000D03*
X134620000Y-86487000D03*
X133350000Y-86487000D03*
X132080000Y-86487000D03*
X130810000Y-86487000D03*
X128270000Y-86487000D03*
X127000000Y-86487000D03*
X125730000Y-86487000D03*
X124460000Y-86487000D03*
X123190000Y-86487000D03*
X121920000Y-86487000D03*
X87630000Y-92837000D03*
X88900000Y-92837000D03*
X90170000Y-92837000D03*
X91440000Y-92837000D03*
X92710000Y-92837000D03*
X93980000Y-92837000D03*
X96520000Y-92837000D03*
X97790000Y-92837000D03*
X99060000Y-92837000D03*
X100330000Y-92837000D03*
X101600000Y-92837000D03*
X102870000Y-92837000D03*
X102870000Y-86487000D03*
X101600000Y-86487000D03*
X100330000Y-86487000D03*
X99060000Y-86487000D03*
X97790000Y-86487000D03*
X96520000Y-86487000D03*
X93980000Y-86487000D03*
X92710000Y-86487000D03*
X91440000Y-86487000D03*
X90170000Y-86487000D03*
X88900000Y-86487000D03*
X87630000Y-86487000D03*
D10*
X139700000Y-92407000D03*
X139700000Y-94107000D03*
D19*
X149200000Y-87350000D03*
D20*
X149200000Y-88075000D03*
X149200000Y-88725000D03*
D19*
X149200000Y-89450000D03*
X152500000Y-89450000D03*
D21*
X152500000Y-88725000D03*
X152500000Y-88075000D03*
D19*
X152500000Y-87350000D03*
D14*
X159500000Y-86550000D03*
X159500000Y-88450000D03*
M02*
