G04 #@! TF.GenerationSoftware,KiCad,Pcbnew,(5.1.10-1-10_14)*
G04 #@! TF.CreationDate,2021-07-28T15:37:25-04:00*
G04 #@! TF.ProjectId,GW4190-SOJ,47573431-3930-42d5-934f-4a2e6b696361,2.0-SOJ*
G04 #@! TF.SameCoordinates,Original*
G04 #@! TF.FileFunction,Soldermask,Top*
G04 #@! TF.FilePolarity,Negative*
%FSLAX46Y46*%
G04 Gerber Fmt 4.6, Leading zero omitted, Abs format (unit mm)*
G04 Created by KiCad (PCBNEW (5.1.10-1-10_14)) date 2021-07-28 15:37:25*
%MOMM*%
%LPD*%
G01*
G04 APERTURE LIST*
%ADD10C,0.952400*%
%ADD11C,0.100000*%
G04 APERTURE END LIST*
G36*
G01*
X137335000Y-88061000D02*
X136985000Y-88061000D01*
G75*
G02*
X136810000Y-87886000I0J175000D01*
G01*
X136810000Y-85088000D01*
G75*
G02*
X136985000Y-84913000I175000J0D01*
G01*
X137335000Y-84913000D01*
G75*
G02*
X137510000Y-85088000I0J-175000D01*
G01*
X137510000Y-87886000D01*
G75*
G02*
X137335000Y-88061000I-175000J0D01*
G01*
G37*
G36*
G01*
X122095000Y-88061000D02*
X121745000Y-88061000D01*
G75*
G02*
X121570000Y-87886000I0J175000D01*
G01*
X121570000Y-85088000D01*
G75*
G02*
X121745000Y-84913000I175000J0D01*
G01*
X122095000Y-84913000D01*
G75*
G02*
X122270000Y-85088000I0J-175000D01*
G01*
X122270000Y-87886000D01*
G75*
G02*
X122095000Y-88061000I-175000J0D01*
G01*
G37*
G36*
G01*
X123365000Y-88061000D02*
X123015000Y-88061000D01*
G75*
G02*
X122840000Y-87886000I0J175000D01*
G01*
X122840000Y-85088000D01*
G75*
G02*
X123015000Y-84913000I175000J0D01*
G01*
X123365000Y-84913000D01*
G75*
G02*
X123540000Y-85088000I0J-175000D01*
G01*
X123540000Y-87886000D01*
G75*
G02*
X123365000Y-88061000I-175000J0D01*
G01*
G37*
G36*
G01*
X124635000Y-88061000D02*
X124285000Y-88061000D01*
G75*
G02*
X124110000Y-87886000I0J175000D01*
G01*
X124110000Y-85088000D01*
G75*
G02*
X124285000Y-84913000I175000J0D01*
G01*
X124635000Y-84913000D01*
G75*
G02*
X124810000Y-85088000I0J-175000D01*
G01*
X124810000Y-87886000D01*
G75*
G02*
X124635000Y-88061000I-175000J0D01*
G01*
G37*
G36*
G01*
X125905000Y-88061000D02*
X125555000Y-88061000D01*
G75*
G02*
X125380000Y-87886000I0J175000D01*
G01*
X125380000Y-85088000D01*
G75*
G02*
X125555000Y-84913000I175000J0D01*
G01*
X125905000Y-84913000D01*
G75*
G02*
X126080000Y-85088000I0J-175000D01*
G01*
X126080000Y-87886000D01*
G75*
G02*
X125905000Y-88061000I-175000J0D01*
G01*
G37*
G36*
G01*
X127175000Y-88061000D02*
X126825000Y-88061000D01*
G75*
G02*
X126650000Y-87886000I0J175000D01*
G01*
X126650000Y-85088000D01*
G75*
G02*
X126825000Y-84913000I175000J0D01*
G01*
X127175000Y-84913000D01*
G75*
G02*
X127350000Y-85088000I0J-175000D01*
G01*
X127350000Y-87886000D01*
G75*
G02*
X127175000Y-88061000I-175000J0D01*
G01*
G37*
G36*
G01*
X132255000Y-88061000D02*
X131905000Y-88061000D01*
G75*
G02*
X131730000Y-87886000I0J175000D01*
G01*
X131730000Y-85088000D01*
G75*
G02*
X131905000Y-84913000I175000J0D01*
G01*
X132255000Y-84913000D01*
G75*
G02*
X132430000Y-85088000I0J-175000D01*
G01*
X132430000Y-87886000D01*
G75*
G02*
X132255000Y-88061000I-175000J0D01*
G01*
G37*
G36*
G01*
X133525000Y-88061000D02*
X133175000Y-88061000D01*
G75*
G02*
X133000000Y-87886000I0J175000D01*
G01*
X133000000Y-85088000D01*
G75*
G02*
X133175000Y-84913000I175000J0D01*
G01*
X133525000Y-84913000D01*
G75*
G02*
X133700000Y-85088000I0J-175000D01*
G01*
X133700000Y-87886000D01*
G75*
G02*
X133525000Y-88061000I-175000J0D01*
G01*
G37*
G36*
G01*
X134795000Y-88061000D02*
X134445000Y-88061000D01*
G75*
G02*
X134270000Y-87886000I0J175000D01*
G01*
X134270000Y-85088000D01*
G75*
G02*
X134445000Y-84913000I175000J0D01*
G01*
X134795000Y-84913000D01*
G75*
G02*
X134970000Y-85088000I0J-175000D01*
G01*
X134970000Y-87886000D01*
G75*
G02*
X134795000Y-88061000I-175000J0D01*
G01*
G37*
G36*
G01*
X136065000Y-88061000D02*
X135715000Y-88061000D01*
G75*
G02*
X135540000Y-87886000I0J175000D01*
G01*
X135540000Y-85088000D01*
G75*
G02*
X135715000Y-84913000I175000J0D01*
G01*
X136065000Y-84913000D01*
G75*
G02*
X136240000Y-85088000I0J-175000D01*
G01*
X136240000Y-87886000D01*
G75*
G02*
X136065000Y-88061000I-175000J0D01*
G01*
G37*
G36*
G01*
X137335000Y-94411000D02*
X136985000Y-94411000D01*
G75*
G02*
X136810000Y-94236000I0J175000D01*
G01*
X136810000Y-91438000D01*
G75*
G02*
X136985000Y-91263000I175000J0D01*
G01*
X137335000Y-91263000D01*
G75*
G02*
X137510000Y-91438000I0J-175000D01*
G01*
X137510000Y-94236000D01*
G75*
G02*
X137335000Y-94411000I-175000J0D01*
G01*
G37*
G36*
G01*
X136065000Y-94411000D02*
X135715000Y-94411000D01*
G75*
G02*
X135540000Y-94236000I0J175000D01*
G01*
X135540000Y-91438000D01*
G75*
G02*
X135715000Y-91263000I175000J0D01*
G01*
X136065000Y-91263000D01*
G75*
G02*
X136240000Y-91438000I0J-175000D01*
G01*
X136240000Y-94236000D01*
G75*
G02*
X136065000Y-94411000I-175000J0D01*
G01*
G37*
G36*
G01*
X134795000Y-94411000D02*
X134445000Y-94411000D01*
G75*
G02*
X134270000Y-94236000I0J175000D01*
G01*
X134270000Y-91438000D01*
G75*
G02*
X134445000Y-91263000I175000J0D01*
G01*
X134795000Y-91263000D01*
G75*
G02*
X134970000Y-91438000I0J-175000D01*
G01*
X134970000Y-94236000D01*
G75*
G02*
X134795000Y-94411000I-175000J0D01*
G01*
G37*
G36*
G01*
X133525000Y-94411000D02*
X133175000Y-94411000D01*
G75*
G02*
X133000000Y-94236000I0J175000D01*
G01*
X133000000Y-91438000D01*
G75*
G02*
X133175000Y-91263000I175000J0D01*
G01*
X133525000Y-91263000D01*
G75*
G02*
X133700000Y-91438000I0J-175000D01*
G01*
X133700000Y-94236000D01*
G75*
G02*
X133525000Y-94411000I-175000J0D01*
G01*
G37*
G36*
G01*
X132255000Y-94411000D02*
X131905000Y-94411000D01*
G75*
G02*
X131730000Y-94236000I0J175000D01*
G01*
X131730000Y-91438000D01*
G75*
G02*
X131905000Y-91263000I175000J0D01*
G01*
X132255000Y-91263000D01*
G75*
G02*
X132430000Y-91438000I0J-175000D01*
G01*
X132430000Y-94236000D01*
G75*
G02*
X132255000Y-94411000I-175000J0D01*
G01*
G37*
G36*
G01*
X127175000Y-94411000D02*
X126825000Y-94411000D01*
G75*
G02*
X126650000Y-94236000I0J175000D01*
G01*
X126650000Y-91438000D01*
G75*
G02*
X126825000Y-91263000I175000J0D01*
G01*
X127175000Y-91263000D01*
G75*
G02*
X127350000Y-91438000I0J-175000D01*
G01*
X127350000Y-94236000D01*
G75*
G02*
X127175000Y-94411000I-175000J0D01*
G01*
G37*
G36*
G01*
X125905000Y-94411000D02*
X125555000Y-94411000D01*
G75*
G02*
X125380000Y-94236000I0J175000D01*
G01*
X125380000Y-91438000D01*
G75*
G02*
X125555000Y-91263000I175000J0D01*
G01*
X125905000Y-91263000D01*
G75*
G02*
X126080000Y-91438000I0J-175000D01*
G01*
X126080000Y-94236000D01*
G75*
G02*
X125905000Y-94411000I-175000J0D01*
G01*
G37*
G36*
G01*
X124635000Y-94411000D02*
X124285000Y-94411000D01*
G75*
G02*
X124110000Y-94236000I0J175000D01*
G01*
X124110000Y-91438000D01*
G75*
G02*
X124285000Y-91263000I175000J0D01*
G01*
X124635000Y-91263000D01*
G75*
G02*
X124810000Y-91438000I0J-175000D01*
G01*
X124810000Y-94236000D01*
G75*
G02*
X124635000Y-94411000I-175000J0D01*
G01*
G37*
G36*
G01*
X123365000Y-94411000D02*
X123015000Y-94411000D01*
G75*
G02*
X122840000Y-94236000I0J175000D01*
G01*
X122840000Y-91438000D01*
G75*
G02*
X123015000Y-91263000I175000J0D01*
G01*
X123365000Y-91263000D01*
G75*
G02*
X123540000Y-91438000I0J-175000D01*
G01*
X123540000Y-94236000D01*
G75*
G02*
X123365000Y-94411000I-175000J0D01*
G01*
G37*
G36*
G01*
X122095000Y-94411000D02*
X121745000Y-94411000D01*
G75*
G02*
X121570000Y-94236000I0J175000D01*
G01*
X121570000Y-91438000D01*
G75*
G02*
X121745000Y-91263000I175000J0D01*
G01*
X122095000Y-91263000D01*
G75*
G02*
X122270000Y-91438000I0J-175000D01*
G01*
X122270000Y-94236000D01*
G75*
G02*
X122095000Y-94411000I-175000J0D01*
G01*
G37*
G36*
G01*
X128445000Y-88061000D02*
X128095000Y-88061000D01*
G75*
G02*
X127920000Y-87886000I0J175000D01*
G01*
X127920000Y-85088000D01*
G75*
G02*
X128095000Y-84913000I175000J0D01*
G01*
X128445000Y-84913000D01*
G75*
G02*
X128620000Y-85088000I0J-175000D01*
G01*
X128620000Y-87886000D01*
G75*
G02*
X128445000Y-88061000I-175000J0D01*
G01*
G37*
G36*
G01*
X128445000Y-94411000D02*
X128095000Y-94411000D01*
G75*
G02*
X127920000Y-94236000I0J175000D01*
G01*
X127920000Y-91438000D01*
G75*
G02*
X128095000Y-91263000I175000J0D01*
G01*
X128445000Y-91263000D01*
G75*
G02*
X128620000Y-91438000I0J-175000D01*
G01*
X128620000Y-94236000D01*
G75*
G02*
X128445000Y-94411000I-175000J0D01*
G01*
G37*
G36*
G01*
X130985000Y-88061000D02*
X130635000Y-88061000D01*
G75*
G02*
X130460000Y-87886000I0J175000D01*
G01*
X130460000Y-85088000D01*
G75*
G02*
X130635000Y-84913000I175000J0D01*
G01*
X130985000Y-84913000D01*
G75*
G02*
X131160000Y-85088000I0J-175000D01*
G01*
X131160000Y-87886000D01*
G75*
G02*
X130985000Y-88061000I-175000J0D01*
G01*
G37*
G36*
G01*
X130985000Y-94411000D02*
X130635000Y-94411000D01*
G75*
G02*
X130460000Y-94236000I0J175000D01*
G01*
X130460000Y-91438000D01*
G75*
G02*
X130635000Y-91263000I175000J0D01*
G01*
X130985000Y-91263000D01*
G75*
G02*
X131160000Y-91438000I0J-175000D01*
G01*
X131160000Y-94236000D01*
G75*
G02*
X130985000Y-94411000I-175000J0D01*
G01*
G37*
G36*
G01*
X103045000Y-88061000D02*
X102695000Y-88061000D01*
G75*
G02*
X102520000Y-87886000I0J175000D01*
G01*
X102520000Y-85088000D01*
G75*
G02*
X102695000Y-84913000I175000J0D01*
G01*
X103045000Y-84913000D01*
G75*
G02*
X103220000Y-85088000I0J-175000D01*
G01*
X103220000Y-87886000D01*
G75*
G02*
X103045000Y-88061000I-175000J0D01*
G01*
G37*
G36*
G01*
X87805000Y-88061000D02*
X87455000Y-88061000D01*
G75*
G02*
X87280000Y-87886000I0J175000D01*
G01*
X87280000Y-85088000D01*
G75*
G02*
X87455000Y-84913000I175000J0D01*
G01*
X87805000Y-84913000D01*
G75*
G02*
X87980000Y-85088000I0J-175000D01*
G01*
X87980000Y-87886000D01*
G75*
G02*
X87805000Y-88061000I-175000J0D01*
G01*
G37*
G36*
G01*
X89075000Y-88061000D02*
X88725000Y-88061000D01*
G75*
G02*
X88550000Y-87886000I0J175000D01*
G01*
X88550000Y-85088000D01*
G75*
G02*
X88725000Y-84913000I175000J0D01*
G01*
X89075000Y-84913000D01*
G75*
G02*
X89250000Y-85088000I0J-175000D01*
G01*
X89250000Y-87886000D01*
G75*
G02*
X89075000Y-88061000I-175000J0D01*
G01*
G37*
G36*
G01*
X90345000Y-88061000D02*
X89995000Y-88061000D01*
G75*
G02*
X89820000Y-87886000I0J175000D01*
G01*
X89820000Y-85088000D01*
G75*
G02*
X89995000Y-84913000I175000J0D01*
G01*
X90345000Y-84913000D01*
G75*
G02*
X90520000Y-85088000I0J-175000D01*
G01*
X90520000Y-87886000D01*
G75*
G02*
X90345000Y-88061000I-175000J0D01*
G01*
G37*
G36*
G01*
X91615000Y-88061000D02*
X91265000Y-88061000D01*
G75*
G02*
X91090000Y-87886000I0J175000D01*
G01*
X91090000Y-85088000D01*
G75*
G02*
X91265000Y-84913000I175000J0D01*
G01*
X91615000Y-84913000D01*
G75*
G02*
X91790000Y-85088000I0J-175000D01*
G01*
X91790000Y-87886000D01*
G75*
G02*
X91615000Y-88061000I-175000J0D01*
G01*
G37*
G36*
G01*
X92885000Y-88061000D02*
X92535000Y-88061000D01*
G75*
G02*
X92360000Y-87886000I0J175000D01*
G01*
X92360000Y-85088000D01*
G75*
G02*
X92535000Y-84913000I175000J0D01*
G01*
X92885000Y-84913000D01*
G75*
G02*
X93060000Y-85088000I0J-175000D01*
G01*
X93060000Y-87886000D01*
G75*
G02*
X92885000Y-88061000I-175000J0D01*
G01*
G37*
G36*
G01*
X97965000Y-88061000D02*
X97615000Y-88061000D01*
G75*
G02*
X97440000Y-87886000I0J175000D01*
G01*
X97440000Y-85088000D01*
G75*
G02*
X97615000Y-84913000I175000J0D01*
G01*
X97965000Y-84913000D01*
G75*
G02*
X98140000Y-85088000I0J-175000D01*
G01*
X98140000Y-87886000D01*
G75*
G02*
X97965000Y-88061000I-175000J0D01*
G01*
G37*
G36*
G01*
X99235000Y-88061000D02*
X98885000Y-88061000D01*
G75*
G02*
X98710000Y-87886000I0J175000D01*
G01*
X98710000Y-85088000D01*
G75*
G02*
X98885000Y-84913000I175000J0D01*
G01*
X99235000Y-84913000D01*
G75*
G02*
X99410000Y-85088000I0J-175000D01*
G01*
X99410000Y-87886000D01*
G75*
G02*
X99235000Y-88061000I-175000J0D01*
G01*
G37*
G36*
G01*
X100505000Y-88061000D02*
X100155000Y-88061000D01*
G75*
G02*
X99980000Y-87886000I0J175000D01*
G01*
X99980000Y-85088000D01*
G75*
G02*
X100155000Y-84913000I175000J0D01*
G01*
X100505000Y-84913000D01*
G75*
G02*
X100680000Y-85088000I0J-175000D01*
G01*
X100680000Y-87886000D01*
G75*
G02*
X100505000Y-88061000I-175000J0D01*
G01*
G37*
G36*
G01*
X101775000Y-88061000D02*
X101425000Y-88061000D01*
G75*
G02*
X101250000Y-87886000I0J175000D01*
G01*
X101250000Y-85088000D01*
G75*
G02*
X101425000Y-84913000I175000J0D01*
G01*
X101775000Y-84913000D01*
G75*
G02*
X101950000Y-85088000I0J-175000D01*
G01*
X101950000Y-87886000D01*
G75*
G02*
X101775000Y-88061000I-175000J0D01*
G01*
G37*
G36*
G01*
X103045000Y-94411000D02*
X102695000Y-94411000D01*
G75*
G02*
X102520000Y-94236000I0J175000D01*
G01*
X102520000Y-91438000D01*
G75*
G02*
X102695000Y-91263000I175000J0D01*
G01*
X103045000Y-91263000D01*
G75*
G02*
X103220000Y-91438000I0J-175000D01*
G01*
X103220000Y-94236000D01*
G75*
G02*
X103045000Y-94411000I-175000J0D01*
G01*
G37*
G36*
G01*
X101775000Y-94411000D02*
X101425000Y-94411000D01*
G75*
G02*
X101250000Y-94236000I0J175000D01*
G01*
X101250000Y-91438000D01*
G75*
G02*
X101425000Y-91263000I175000J0D01*
G01*
X101775000Y-91263000D01*
G75*
G02*
X101950000Y-91438000I0J-175000D01*
G01*
X101950000Y-94236000D01*
G75*
G02*
X101775000Y-94411000I-175000J0D01*
G01*
G37*
G36*
G01*
X100505000Y-94411000D02*
X100155000Y-94411000D01*
G75*
G02*
X99980000Y-94236000I0J175000D01*
G01*
X99980000Y-91438000D01*
G75*
G02*
X100155000Y-91263000I175000J0D01*
G01*
X100505000Y-91263000D01*
G75*
G02*
X100680000Y-91438000I0J-175000D01*
G01*
X100680000Y-94236000D01*
G75*
G02*
X100505000Y-94411000I-175000J0D01*
G01*
G37*
G36*
G01*
X99235000Y-94411000D02*
X98885000Y-94411000D01*
G75*
G02*
X98710000Y-94236000I0J175000D01*
G01*
X98710000Y-91438000D01*
G75*
G02*
X98885000Y-91263000I175000J0D01*
G01*
X99235000Y-91263000D01*
G75*
G02*
X99410000Y-91438000I0J-175000D01*
G01*
X99410000Y-94236000D01*
G75*
G02*
X99235000Y-94411000I-175000J0D01*
G01*
G37*
G36*
G01*
X97965000Y-94411000D02*
X97615000Y-94411000D01*
G75*
G02*
X97440000Y-94236000I0J175000D01*
G01*
X97440000Y-91438000D01*
G75*
G02*
X97615000Y-91263000I175000J0D01*
G01*
X97965000Y-91263000D01*
G75*
G02*
X98140000Y-91438000I0J-175000D01*
G01*
X98140000Y-94236000D01*
G75*
G02*
X97965000Y-94411000I-175000J0D01*
G01*
G37*
G36*
G01*
X92885000Y-94411000D02*
X92535000Y-94411000D01*
G75*
G02*
X92360000Y-94236000I0J175000D01*
G01*
X92360000Y-91438000D01*
G75*
G02*
X92535000Y-91263000I175000J0D01*
G01*
X92885000Y-91263000D01*
G75*
G02*
X93060000Y-91438000I0J-175000D01*
G01*
X93060000Y-94236000D01*
G75*
G02*
X92885000Y-94411000I-175000J0D01*
G01*
G37*
G36*
G01*
X91615000Y-94411000D02*
X91265000Y-94411000D01*
G75*
G02*
X91090000Y-94236000I0J175000D01*
G01*
X91090000Y-91438000D01*
G75*
G02*
X91265000Y-91263000I175000J0D01*
G01*
X91615000Y-91263000D01*
G75*
G02*
X91790000Y-91438000I0J-175000D01*
G01*
X91790000Y-94236000D01*
G75*
G02*
X91615000Y-94411000I-175000J0D01*
G01*
G37*
G36*
G01*
X90345000Y-94411000D02*
X89995000Y-94411000D01*
G75*
G02*
X89820000Y-94236000I0J175000D01*
G01*
X89820000Y-91438000D01*
G75*
G02*
X89995000Y-91263000I175000J0D01*
G01*
X90345000Y-91263000D01*
G75*
G02*
X90520000Y-91438000I0J-175000D01*
G01*
X90520000Y-94236000D01*
G75*
G02*
X90345000Y-94411000I-175000J0D01*
G01*
G37*
G36*
G01*
X89075000Y-94411000D02*
X88725000Y-94411000D01*
G75*
G02*
X88550000Y-94236000I0J175000D01*
G01*
X88550000Y-91438000D01*
G75*
G02*
X88725000Y-91263000I175000J0D01*
G01*
X89075000Y-91263000D01*
G75*
G02*
X89250000Y-91438000I0J-175000D01*
G01*
X89250000Y-94236000D01*
G75*
G02*
X89075000Y-94411000I-175000J0D01*
G01*
G37*
G36*
G01*
X87805000Y-94411000D02*
X87455000Y-94411000D01*
G75*
G02*
X87280000Y-94236000I0J175000D01*
G01*
X87280000Y-91438000D01*
G75*
G02*
X87455000Y-91263000I175000J0D01*
G01*
X87805000Y-91263000D01*
G75*
G02*
X87980000Y-91438000I0J-175000D01*
G01*
X87980000Y-94236000D01*
G75*
G02*
X87805000Y-94411000I-175000J0D01*
G01*
G37*
G36*
G01*
X94155000Y-88061000D02*
X93805000Y-88061000D01*
G75*
G02*
X93630000Y-87886000I0J175000D01*
G01*
X93630000Y-85088000D01*
G75*
G02*
X93805000Y-84913000I175000J0D01*
G01*
X94155000Y-84913000D01*
G75*
G02*
X94330000Y-85088000I0J-175000D01*
G01*
X94330000Y-87886000D01*
G75*
G02*
X94155000Y-88061000I-175000J0D01*
G01*
G37*
G36*
G01*
X94155000Y-94411000D02*
X93805000Y-94411000D01*
G75*
G02*
X93630000Y-94236000I0J175000D01*
G01*
X93630000Y-91438000D01*
G75*
G02*
X93805000Y-91263000I175000J0D01*
G01*
X94155000Y-91263000D01*
G75*
G02*
X94330000Y-91438000I0J-175000D01*
G01*
X94330000Y-94236000D01*
G75*
G02*
X94155000Y-94411000I-175000J0D01*
G01*
G37*
G36*
G01*
X96695000Y-88061000D02*
X96345000Y-88061000D01*
G75*
G02*
X96170000Y-87886000I0J175000D01*
G01*
X96170000Y-85088000D01*
G75*
G02*
X96345000Y-84913000I175000J0D01*
G01*
X96695000Y-84913000D01*
G75*
G02*
X96870000Y-85088000I0J-175000D01*
G01*
X96870000Y-87886000D01*
G75*
G02*
X96695000Y-88061000I-175000J0D01*
G01*
G37*
G36*
G01*
X96695000Y-94411000D02*
X96345000Y-94411000D01*
G75*
G02*
X96170000Y-94236000I0J175000D01*
G01*
X96170000Y-91438000D01*
G75*
G02*
X96345000Y-91263000I175000J0D01*
G01*
X96695000Y-91263000D01*
G75*
G02*
X96870000Y-91438000I0J-175000D01*
G01*
X96870000Y-94236000D01*
G75*
G02*
X96695000Y-94411000I-175000J0D01*
G01*
G37*
G36*
G01*
X84627500Y-93532000D02*
X85552500Y-93532000D01*
G75*
G02*
X85840000Y-93819500I0J-287500D01*
G01*
X85840000Y-94394500D01*
G75*
G02*
X85552500Y-94682000I-287500J0D01*
G01*
X84627500Y-94682000D01*
G75*
G02*
X84340000Y-94394500I0J287500D01*
G01*
X84340000Y-93819500D01*
G75*
G02*
X84627500Y-93532000I287500J0D01*
G01*
G37*
G36*
G01*
X84627500Y-91832000D02*
X85552500Y-91832000D01*
G75*
G02*
X85840000Y-92119500I0J-287500D01*
G01*
X85840000Y-92694500D01*
G75*
G02*
X85552500Y-92982000I-287500J0D01*
G01*
X84627500Y-92982000D01*
G75*
G02*
X84340000Y-92694500I0J287500D01*
G01*
X84340000Y-92119500D01*
G75*
G02*
X84627500Y-91832000I287500J0D01*
G01*
G37*
G36*
G01*
X104947500Y-93532000D02*
X105872500Y-93532000D01*
G75*
G02*
X106160000Y-93819500I0J-287500D01*
G01*
X106160000Y-94394500D01*
G75*
G02*
X105872500Y-94682000I-287500J0D01*
G01*
X104947500Y-94682000D01*
G75*
G02*
X104660000Y-94394500I0J287500D01*
G01*
X104660000Y-93819500D01*
G75*
G02*
X104947500Y-93532000I287500J0D01*
G01*
G37*
G36*
G01*
X104947500Y-91832000D02*
X105872500Y-91832000D01*
G75*
G02*
X106160000Y-92119500I0J-287500D01*
G01*
X106160000Y-92694500D01*
G75*
G02*
X105872500Y-92982000I-287500J0D01*
G01*
X104947500Y-92982000D01*
G75*
G02*
X104660000Y-92694500I0J287500D01*
G01*
X104660000Y-92119500D01*
G75*
G02*
X104947500Y-91832000I287500J0D01*
G01*
G37*
G36*
G01*
X118917500Y-93532000D02*
X119842500Y-93532000D01*
G75*
G02*
X120130000Y-93819500I0J-287500D01*
G01*
X120130000Y-94394500D01*
G75*
G02*
X119842500Y-94682000I-287500J0D01*
G01*
X118917500Y-94682000D01*
G75*
G02*
X118630000Y-94394500I0J287500D01*
G01*
X118630000Y-93819500D01*
G75*
G02*
X118917500Y-93532000I287500J0D01*
G01*
G37*
G36*
G01*
X118917500Y-91832000D02*
X119842500Y-91832000D01*
G75*
G02*
X120130000Y-92119500I0J-287500D01*
G01*
X120130000Y-92694500D01*
G75*
G02*
X119842500Y-92982000I-287500J0D01*
G01*
X118917500Y-92982000D01*
G75*
G02*
X118630000Y-92694500I0J287500D01*
G01*
X118630000Y-92119500D01*
G75*
G02*
X118917500Y-91832000I287500J0D01*
G01*
G37*
G36*
G01*
X157942500Y-92982000D02*
X157017500Y-92982000D01*
G75*
G02*
X156730000Y-92694500I0J287500D01*
G01*
X156730000Y-92119500D01*
G75*
G02*
X157017500Y-91832000I287500J0D01*
G01*
X157942500Y-91832000D01*
G75*
G02*
X158230000Y-92119500I0J-287500D01*
G01*
X158230000Y-92694500D01*
G75*
G02*
X157942500Y-92982000I-287500J0D01*
G01*
G37*
G36*
G01*
X157942500Y-94682000D02*
X157017500Y-94682000D01*
G75*
G02*
X156730000Y-94394500I0J287500D01*
G01*
X156730000Y-93819500D01*
G75*
G02*
X157017500Y-93532000I287500J0D01*
G01*
X157942500Y-93532000D01*
G75*
G02*
X158230000Y-93819500I0J-287500D01*
G01*
X158230000Y-94394500D01*
G75*
G02*
X157942500Y-94682000I-287500J0D01*
G01*
G37*
G36*
G01*
X139237500Y-93532000D02*
X140162500Y-93532000D01*
G75*
G02*
X140450000Y-93819500I0J-287500D01*
G01*
X140450000Y-94394500D01*
G75*
G02*
X140162500Y-94682000I-287500J0D01*
G01*
X139237500Y-94682000D01*
G75*
G02*
X138950000Y-94394500I0J287500D01*
G01*
X138950000Y-93819500D01*
G75*
G02*
X139237500Y-93532000I287500J0D01*
G01*
G37*
G36*
G01*
X139237500Y-91832000D02*
X140162500Y-91832000D01*
G75*
G02*
X140450000Y-92119500I0J-287500D01*
G01*
X140450000Y-92694500D01*
G75*
G02*
X140162500Y-92982000I-287500J0D01*
G01*
X139237500Y-92982000D01*
G75*
G02*
X138950000Y-92694500I0J287500D01*
G01*
X138950000Y-92119500D01*
G75*
G02*
X139237500Y-91832000I287500J0D01*
G01*
G37*
G36*
G01*
X82854800Y-100939600D02*
X82854800Y-99212400D01*
G75*
G02*
X83337400Y-98729800I482600J0D01*
G01*
X84302600Y-98729800D01*
G75*
G02*
X84785200Y-99212400I0J-482600D01*
G01*
X84785200Y-100939600D01*
G75*
G02*
X84302600Y-101422200I-482600J0D01*
G01*
X83337400Y-101422200D01*
G75*
G02*
X82854800Y-100939600I0J482600D01*
G01*
G37*
G36*
G01*
X85394800Y-100939600D02*
X85394800Y-99212400D01*
G75*
G02*
X85877400Y-98729800I482600J0D01*
G01*
X86842600Y-98729800D01*
G75*
G02*
X87325200Y-99212400I0J-482600D01*
G01*
X87325200Y-100939600D01*
G75*
G02*
X86842600Y-101422200I-482600J0D01*
G01*
X85877400Y-101422200D01*
G75*
G02*
X85394800Y-100939600I0J482600D01*
G01*
G37*
D10*
X88900000Y-98806000D03*
G36*
G01*
X108254800Y-100939600D02*
X108254800Y-99212400D01*
G75*
G02*
X108737400Y-98729800I482600J0D01*
G01*
X109702600Y-98729800D01*
G75*
G02*
X110185200Y-99212400I0J-482600D01*
G01*
X110185200Y-100939600D01*
G75*
G02*
X109702600Y-101422200I-482600J0D01*
G01*
X108737400Y-101422200D01*
G75*
G02*
X108254800Y-100939600I0J482600D01*
G01*
G37*
G36*
G01*
X93014800Y-100939600D02*
X93014800Y-99212400D01*
G75*
G02*
X93497400Y-98729800I482600J0D01*
G01*
X94462600Y-98729800D01*
G75*
G02*
X94945200Y-99212400I0J-482600D01*
G01*
X94945200Y-100939600D01*
G75*
G02*
X94462600Y-101422200I-482600J0D01*
G01*
X93497400Y-101422200D01*
G75*
G02*
X93014800Y-100939600I0J482600D01*
G01*
G37*
G36*
G01*
X110794800Y-100939600D02*
X110794800Y-99212400D01*
G75*
G02*
X111277400Y-98729800I482600J0D01*
G01*
X112242600Y-98729800D01*
G75*
G02*
X112725200Y-99212400I0J-482600D01*
G01*
X112725200Y-100939600D01*
G75*
G02*
X112242600Y-101422200I-482600J0D01*
G01*
X111277400Y-101422200D01*
G75*
G02*
X110794800Y-100939600I0J482600D01*
G01*
G37*
G36*
G01*
X146354800Y-100939600D02*
X146354800Y-99212400D01*
G75*
G02*
X146837400Y-98729800I482600J0D01*
G01*
X147802600Y-98729800D01*
G75*
G02*
X148285200Y-99212400I0J-482600D01*
G01*
X148285200Y-100939600D01*
G75*
G02*
X147802600Y-101422200I-482600J0D01*
G01*
X146837400Y-101422200D01*
G75*
G02*
X146354800Y-100939600I0J482600D01*
G01*
G37*
G36*
G01*
X113334800Y-100939600D02*
X113334800Y-99212400D01*
G75*
G02*
X113817400Y-98729800I482600J0D01*
G01*
X114782600Y-98729800D01*
G75*
G02*
X115265200Y-99212400I0J-482600D01*
G01*
X115265200Y-100939600D01*
G75*
G02*
X114782600Y-101422200I-482600J0D01*
G01*
X113817400Y-101422200D01*
G75*
G02*
X113334800Y-100939600I0J482600D01*
G01*
G37*
G36*
G01*
X115874800Y-100939600D02*
X115874800Y-99212400D01*
G75*
G02*
X116357400Y-98729800I482600J0D01*
G01*
X117322600Y-98729800D01*
G75*
G02*
X117805200Y-99212400I0J-482600D01*
G01*
X117805200Y-100939600D01*
G75*
G02*
X117322600Y-101422200I-482600J0D01*
G01*
X116357400Y-101422200D01*
G75*
G02*
X115874800Y-100939600I0J482600D01*
G01*
G37*
G36*
G01*
X90474800Y-100939600D02*
X90474800Y-99212400D01*
G75*
G02*
X90957400Y-98729800I482600J0D01*
G01*
X91922600Y-98729800D01*
G75*
G02*
X92405200Y-99212400I0J-482600D01*
G01*
X92405200Y-100939600D01*
G75*
G02*
X91922600Y-101422200I-482600J0D01*
G01*
X90957400Y-101422200D01*
G75*
G02*
X90474800Y-100939600I0J482600D01*
G01*
G37*
G36*
G01*
X153974800Y-100939600D02*
X153974800Y-99212400D01*
G75*
G02*
X154457400Y-98729800I482600J0D01*
G01*
X155422600Y-98729800D01*
G75*
G02*
X155905200Y-99212400I0J-482600D01*
G01*
X155905200Y-100939600D01*
G75*
G02*
X155422600Y-101422200I-482600J0D01*
G01*
X154457400Y-101422200D01*
G75*
G02*
X153974800Y-100939600I0J482600D01*
G01*
G37*
G36*
G01*
X87934800Y-100939600D02*
X87934800Y-99212400D01*
G75*
G02*
X88417400Y-98729800I482600J0D01*
G01*
X89382600Y-98729800D01*
G75*
G02*
X89865200Y-99212400I0J-482600D01*
G01*
X89865200Y-100939600D01*
G75*
G02*
X89382600Y-101422200I-482600J0D01*
G01*
X88417400Y-101422200D01*
G75*
G02*
X87934800Y-100939600I0J482600D01*
G01*
G37*
G36*
G01*
X141274800Y-100939600D02*
X141274800Y-99212400D01*
G75*
G02*
X141757400Y-98729800I482600J0D01*
G01*
X142722600Y-98729800D01*
G75*
G02*
X143205200Y-99212400I0J-482600D01*
G01*
X143205200Y-100939600D01*
G75*
G02*
X142722600Y-101422200I-482600J0D01*
G01*
X141757400Y-101422200D01*
G75*
G02*
X141274800Y-100939600I0J482600D01*
G01*
G37*
G36*
G01*
X120954800Y-100939600D02*
X120954800Y-99212400D01*
G75*
G02*
X121437400Y-98729800I482600J0D01*
G01*
X122402600Y-98729800D01*
G75*
G02*
X122885200Y-99212400I0J-482600D01*
G01*
X122885200Y-100939600D01*
G75*
G02*
X122402600Y-101422200I-482600J0D01*
G01*
X121437400Y-101422200D01*
G75*
G02*
X120954800Y-100939600I0J482600D01*
G01*
G37*
G36*
G01*
X131114800Y-100939600D02*
X131114800Y-99212400D01*
G75*
G02*
X131597400Y-98729800I482600J0D01*
G01*
X132562600Y-98729800D01*
G75*
G02*
X133045200Y-99212400I0J-482600D01*
G01*
X133045200Y-100939600D01*
G75*
G02*
X132562600Y-101422200I-482600J0D01*
G01*
X131597400Y-101422200D01*
G75*
G02*
X131114800Y-100939600I0J482600D01*
G01*
G37*
G36*
G01*
X138734800Y-100939600D02*
X138734800Y-99212400D01*
G75*
G02*
X139217400Y-98729800I482600J0D01*
G01*
X140182600Y-98729800D01*
G75*
G02*
X140665200Y-99212400I0J-482600D01*
G01*
X140665200Y-100939600D01*
G75*
G02*
X140182600Y-101422200I-482600J0D01*
G01*
X139217400Y-101422200D01*
G75*
G02*
X138734800Y-100939600I0J482600D01*
G01*
G37*
G36*
G01*
X103174800Y-100939600D02*
X103174800Y-99212400D01*
G75*
G02*
X103657400Y-98729800I482600J0D01*
G01*
X104622600Y-98729800D01*
G75*
G02*
X105105200Y-99212400I0J-482600D01*
G01*
X105105200Y-100939600D01*
G75*
G02*
X104622600Y-101422200I-482600J0D01*
G01*
X103657400Y-101422200D01*
G75*
G02*
X103174800Y-100939600I0J482600D01*
G01*
G37*
G36*
G01*
X126034800Y-100939600D02*
X126034800Y-99212400D01*
G75*
G02*
X126517400Y-98729800I482600J0D01*
G01*
X127482600Y-98729800D01*
G75*
G02*
X127965200Y-99212400I0J-482600D01*
G01*
X127965200Y-100939600D01*
G75*
G02*
X127482600Y-101422200I-482600J0D01*
G01*
X126517400Y-101422200D01*
G75*
G02*
X126034800Y-100939600I0J482600D01*
G01*
G37*
G36*
G01*
X133654800Y-100939600D02*
X133654800Y-99212400D01*
G75*
G02*
X134137400Y-98729800I482600J0D01*
G01*
X135102600Y-98729800D01*
G75*
G02*
X135585200Y-99212400I0J-482600D01*
G01*
X135585200Y-100939600D01*
G75*
G02*
X135102600Y-101422200I-482600J0D01*
G01*
X134137400Y-101422200D01*
G75*
G02*
X133654800Y-100939600I0J482600D01*
G01*
G37*
G36*
G01*
X128574800Y-100939600D02*
X128574800Y-99212400D01*
G75*
G02*
X129057400Y-98729800I482600J0D01*
G01*
X130022600Y-98729800D01*
G75*
G02*
X130505200Y-99212400I0J-482600D01*
G01*
X130505200Y-100939600D01*
G75*
G02*
X130022600Y-101422200I-482600J0D01*
G01*
X129057400Y-101422200D01*
G75*
G02*
X128574800Y-100939600I0J482600D01*
G01*
G37*
G36*
G01*
X105714800Y-100939600D02*
X105714800Y-99212400D01*
G75*
G02*
X106197400Y-98729800I482600J0D01*
G01*
X107162600Y-98729800D01*
G75*
G02*
X107645200Y-99212400I0J-482600D01*
G01*
X107645200Y-100939600D01*
G75*
G02*
X107162600Y-101422200I-482600J0D01*
G01*
X106197400Y-101422200D01*
G75*
G02*
X105714800Y-100939600I0J482600D01*
G01*
G37*
G36*
G01*
X136194800Y-100939600D02*
X136194800Y-99212400D01*
G75*
G02*
X136677400Y-98729800I482600J0D01*
G01*
X137642600Y-98729800D01*
G75*
G02*
X138125200Y-99212400I0J-482600D01*
G01*
X138125200Y-100939600D01*
G75*
G02*
X137642600Y-101422200I-482600J0D01*
G01*
X136677400Y-101422200D01*
G75*
G02*
X136194800Y-100939600I0J482600D01*
G01*
G37*
G36*
G01*
X95554800Y-100939600D02*
X95554800Y-99212400D01*
G75*
G02*
X96037400Y-98729800I482600J0D01*
G01*
X97002600Y-98729800D01*
G75*
G02*
X97485200Y-99212400I0J-482600D01*
G01*
X97485200Y-100939600D01*
G75*
G02*
X97002600Y-101422200I-482600J0D01*
G01*
X96037400Y-101422200D01*
G75*
G02*
X95554800Y-100939600I0J482600D01*
G01*
G37*
G36*
G01*
X123494800Y-100939600D02*
X123494800Y-99212400D01*
G75*
G02*
X123977400Y-98729800I482600J0D01*
G01*
X124942600Y-98729800D01*
G75*
G02*
X125425200Y-99212400I0J-482600D01*
G01*
X125425200Y-100939600D01*
G75*
G02*
X124942600Y-101422200I-482600J0D01*
G01*
X123977400Y-101422200D01*
G75*
G02*
X123494800Y-100939600I0J482600D01*
G01*
G37*
G36*
G01*
X98094800Y-100939600D02*
X98094800Y-99212400D01*
G75*
G02*
X98577400Y-98729800I482600J0D01*
G01*
X99542600Y-98729800D01*
G75*
G02*
X100025200Y-99212400I0J-482600D01*
G01*
X100025200Y-100939600D01*
G75*
G02*
X99542600Y-101422200I-482600J0D01*
G01*
X98577400Y-101422200D01*
G75*
G02*
X98094800Y-100939600I0J482600D01*
G01*
G37*
G36*
G01*
X100634800Y-100939600D02*
X100634800Y-99212400D01*
G75*
G02*
X101117400Y-98729800I482600J0D01*
G01*
X102082600Y-98729800D01*
G75*
G02*
X102565200Y-99212400I0J-482600D01*
G01*
X102565200Y-100939600D01*
G75*
G02*
X102082600Y-101422200I-482600J0D01*
G01*
X101117400Y-101422200D01*
G75*
G02*
X100634800Y-100939600I0J482600D01*
G01*
G37*
G36*
G01*
X148894800Y-100939600D02*
X148894800Y-99212400D01*
G75*
G02*
X149377400Y-98729800I482600J0D01*
G01*
X150342600Y-98729800D01*
G75*
G02*
X150825200Y-99212400I0J-482600D01*
G01*
X150825200Y-100939600D01*
G75*
G02*
X150342600Y-101422200I-482600J0D01*
G01*
X149377400Y-101422200D01*
G75*
G02*
X148894800Y-100939600I0J482600D01*
G01*
G37*
G36*
G01*
X151434800Y-100939600D02*
X151434800Y-99212400D01*
G75*
G02*
X151917400Y-98729800I482600J0D01*
G01*
X152882600Y-98729800D01*
G75*
G02*
X153365200Y-99212400I0J-482600D01*
G01*
X153365200Y-100939600D01*
G75*
G02*
X152882600Y-101422200I-482600J0D01*
G01*
X151917400Y-101422200D01*
G75*
G02*
X151434800Y-100939600I0J482600D01*
G01*
G37*
G36*
G01*
X156514800Y-100939600D02*
X156514800Y-99212400D01*
G75*
G02*
X156997400Y-98729800I482600J0D01*
G01*
X157962600Y-98729800D01*
G75*
G02*
X158445200Y-99212400I0J-482600D01*
G01*
X158445200Y-100939600D01*
G75*
G02*
X157962600Y-101422200I-482600J0D01*
G01*
X156997400Y-101422200D01*
G75*
G02*
X156514800Y-100939600I0J482600D01*
G01*
G37*
G36*
G01*
X118414800Y-100939600D02*
X118414800Y-99212400D01*
G75*
G02*
X118897400Y-98729800I482600J0D01*
G01*
X119862600Y-98729800D01*
G75*
G02*
X120345200Y-99212400I0J-482600D01*
G01*
X120345200Y-100939600D01*
G75*
G02*
X119862600Y-101422200I-482600J0D01*
G01*
X118897400Y-101422200D01*
G75*
G02*
X118414800Y-100939600I0J482600D01*
G01*
G37*
G36*
G01*
X143814800Y-100939600D02*
X143814800Y-99212400D01*
G75*
G02*
X144297400Y-98729800I482600J0D01*
G01*
X145262600Y-98729800D01*
G75*
G02*
X145745200Y-99212400I0J-482600D01*
G01*
X145745200Y-100939600D01*
G75*
G02*
X145262600Y-101422200I-482600J0D01*
G01*
X144297400Y-101422200D01*
G75*
G02*
X143814800Y-100939600I0J482600D01*
G01*
G37*
X86360000Y-98806000D03*
X83820000Y-98806000D03*
X93980000Y-98806000D03*
X91440000Y-98806000D03*
X96520000Y-98806000D03*
X99060000Y-98806000D03*
X104140000Y-98806000D03*
X101600000Y-98806000D03*
X109220000Y-98806000D03*
X106680000Y-98806000D03*
X111760000Y-98806000D03*
X116840000Y-98806000D03*
X114300000Y-98806000D03*
X119380000Y-98806000D03*
X124460000Y-98806000D03*
X121920000Y-98806000D03*
X127000000Y-98806000D03*
X149860000Y-98806000D03*
X147320000Y-98806000D03*
X152400000Y-98806000D03*
X134620000Y-98806000D03*
X132080000Y-98806000D03*
X137160000Y-98806000D03*
X142240000Y-98806000D03*
X139700000Y-98806000D03*
X144780000Y-98806000D03*
X129540000Y-98806000D03*
X154940000Y-98806000D03*
X157480000Y-98806000D03*
G36*
G01*
X82225000Y-85987500D02*
X82225000Y-87012500D01*
G75*
G02*
X81987500Y-87250000I-237500J0D01*
G01*
X81512500Y-87250000D01*
G75*
G02*
X81275000Y-87012500I0J237500D01*
G01*
X81275000Y-85987500D01*
G75*
G02*
X81512500Y-85750000I237500J0D01*
G01*
X81987500Y-85750000D01*
G75*
G02*
X82225000Y-85987500I0J-237500D01*
G01*
G37*
G36*
G01*
X84125000Y-85987500D02*
X84125000Y-87012500D01*
G75*
G02*
X83887500Y-87250000I-237500J0D01*
G01*
X83412500Y-87250000D01*
G75*
G02*
X83175000Y-87012500I0J237500D01*
G01*
X83175000Y-85987500D01*
G75*
G02*
X83412500Y-85750000I237500J0D01*
G01*
X83887500Y-85750000D01*
G75*
G02*
X84125000Y-85987500I0J-237500D01*
G01*
G37*
G36*
G01*
X81275000Y-85012500D02*
X81275000Y-83987500D01*
G75*
G02*
X81512500Y-83750000I237500J0D01*
G01*
X81987500Y-83750000D01*
G75*
G02*
X82225000Y-83987500I0J-237500D01*
G01*
X82225000Y-85012500D01*
G75*
G02*
X81987500Y-85250000I-237500J0D01*
G01*
X81512500Y-85250000D01*
G75*
G02*
X81275000Y-85012500I0J237500D01*
G01*
G37*
G36*
G01*
X83175000Y-85012500D02*
X83175000Y-83987500D01*
G75*
G02*
X83412500Y-83750000I237500J0D01*
G01*
X83887500Y-83750000D01*
G75*
G02*
X84125000Y-83987500I0J-237500D01*
G01*
X84125000Y-85012500D01*
G75*
G02*
X83887500Y-85250000I-237500J0D01*
G01*
X83412500Y-85250000D01*
G75*
G02*
X83175000Y-85012500I0J237500D01*
G01*
G37*
D11*
G36*
X83362407Y-98684071D02*
G01*
X83362782Y-98685678D01*
X83353928Y-98730190D01*
X83351966Y-98731800D01*
X83337494Y-98731800D01*
X83243644Y-98741043D01*
X83153486Y-98768393D01*
X83070398Y-98812804D01*
X82997571Y-98872571D01*
X82937804Y-98945398D01*
X82893393Y-99028486D01*
X82866043Y-99118644D01*
X82856790Y-99212596D01*
X82855625Y-99214222D01*
X82853635Y-99214026D01*
X82852800Y-99212400D01*
X82852800Y-99183767D01*
X82852810Y-99183571D01*
X82861774Y-99092560D01*
X82861850Y-99092175D01*
X82887489Y-99007651D01*
X82887639Y-99007289D01*
X82929274Y-98929397D01*
X82929492Y-98929071D01*
X82985521Y-98860798D01*
X82985798Y-98860521D01*
X83054071Y-98804492D01*
X83054397Y-98804274D01*
X83132289Y-98762639D01*
X83132651Y-98762489D01*
X83217174Y-98736850D01*
X83217559Y-98736774D01*
X83305979Y-98728065D01*
X83317907Y-98725693D01*
X83329042Y-98721080D01*
X83339065Y-98714383D01*
X83347587Y-98705861D01*
X83354284Y-98695838D01*
X83358972Y-98684523D01*
X83360559Y-98683305D01*
X83362407Y-98684071D01*
G37*
G36*
X124002407Y-98684071D02*
G01*
X124002782Y-98685678D01*
X123993928Y-98730190D01*
X123991966Y-98731800D01*
X123977494Y-98731800D01*
X123883644Y-98741043D01*
X123793486Y-98768393D01*
X123710398Y-98812804D01*
X123637571Y-98872571D01*
X123577804Y-98945398D01*
X123533393Y-99028486D01*
X123506043Y-99118644D01*
X123496790Y-99212596D01*
X123495625Y-99214222D01*
X123493635Y-99214026D01*
X123492800Y-99212400D01*
X123492800Y-99183767D01*
X123492810Y-99183571D01*
X123501774Y-99092560D01*
X123501850Y-99092175D01*
X123527489Y-99007651D01*
X123527639Y-99007289D01*
X123569274Y-98929397D01*
X123569492Y-98929071D01*
X123625521Y-98860798D01*
X123625798Y-98860521D01*
X123694071Y-98804492D01*
X123694397Y-98804274D01*
X123772289Y-98762639D01*
X123772651Y-98762489D01*
X123857174Y-98736850D01*
X123857559Y-98736774D01*
X123945979Y-98728065D01*
X123957907Y-98725693D01*
X123969042Y-98721080D01*
X123979065Y-98714383D01*
X123987587Y-98705861D01*
X123994284Y-98695838D01*
X123998972Y-98684523D01*
X124000559Y-98683305D01*
X124002407Y-98684071D01*
G37*
G36*
X126542407Y-98684071D02*
G01*
X126542782Y-98685678D01*
X126533928Y-98730190D01*
X126531966Y-98731800D01*
X126517494Y-98731800D01*
X126423644Y-98741043D01*
X126333486Y-98768393D01*
X126250398Y-98812804D01*
X126177571Y-98872571D01*
X126117804Y-98945398D01*
X126073393Y-99028486D01*
X126046043Y-99118644D01*
X126036790Y-99212596D01*
X126035625Y-99214222D01*
X126033635Y-99214026D01*
X126032800Y-99212400D01*
X126032800Y-99183767D01*
X126032810Y-99183571D01*
X126041774Y-99092560D01*
X126041850Y-99092175D01*
X126067489Y-99007651D01*
X126067639Y-99007289D01*
X126109274Y-98929397D01*
X126109492Y-98929071D01*
X126165521Y-98860798D01*
X126165798Y-98860521D01*
X126234071Y-98804492D01*
X126234397Y-98804274D01*
X126312289Y-98762639D01*
X126312651Y-98762489D01*
X126397174Y-98736850D01*
X126397559Y-98736774D01*
X126485979Y-98728065D01*
X126497907Y-98725693D01*
X126509042Y-98721080D01*
X126519065Y-98714383D01*
X126527587Y-98705861D01*
X126534284Y-98695838D01*
X126538972Y-98684523D01*
X126540559Y-98683305D01*
X126542407Y-98684071D01*
G37*
G36*
X121462407Y-98684071D02*
G01*
X121462782Y-98685678D01*
X121453928Y-98730190D01*
X121451966Y-98731800D01*
X121437494Y-98731800D01*
X121343644Y-98741043D01*
X121253486Y-98768393D01*
X121170398Y-98812804D01*
X121097571Y-98872571D01*
X121037804Y-98945398D01*
X120993393Y-99028486D01*
X120966043Y-99118644D01*
X120956790Y-99212596D01*
X120955625Y-99214222D01*
X120953635Y-99214026D01*
X120952800Y-99212400D01*
X120952800Y-99183767D01*
X120952810Y-99183571D01*
X120961774Y-99092560D01*
X120961850Y-99092175D01*
X120987489Y-99007651D01*
X120987639Y-99007289D01*
X121029274Y-98929397D01*
X121029492Y-98929071D01*
X121085521Y-98860798D01*
X121085798Y-98860521D01*
X121154071Y-98804492D01*
X121154397Y-98804274D01*
X121232289Y-98762639D01*
X121232651Y-98762489D01*
X121317174Y-98736850D01*
X121317559Y-98736774D01*
X121405979Y-98728065D01*
X121417907Y-98725693D01*
X121429042Y-98721080D01*
X121439065Y-98714383D01*
X121447587Y-98705861D01*
X121454284Y-98695838D01*
X121458972Y-98684523D01*
X121460559Y-98683305D01*
X121462407Y-98684071D01*
G37*
G36*
X129082407Y-98684071D02*
G01*
X129082782Y-98685678D01*
X129073928Y-98730190D01*
X129071966Y-98731800D01*
X129057494Y-98731800D01*
X128963644Y-98741043D01*
X128873486Y-98768393D01*
X128790398Y-98812804D01*
X128717571Y-98872571D01*
X128657804Y-98945398D01*
X128613393Y-99028486D01*
X128586043Y-99118644D01*
X128576790Y-99212596D01*
X128575625Y-99214222D01*
X128573635Y-99214026D01*
X128572800Y-99212400D01*
X128572800Y-99183767D01*
X128572810Y-99183571D01*
X128581774Y-99092560D01*
X128581850Y-99092175D01*
X128607489Y-99007651D01*
X128607639Y-99007289D01*
X128649274Y-98929397D01*
X128649492Y-98929071D01*
X128705521Y-98860798D01*
X128705798Y-98860521D01*
X128774071Y-98804492D01*
X128774397Y-98804274D01*
X128852289Y-98762639D01*
X128852651Y-98762489D01*
X128937174Y-98736850D01*
X128937559Y-98736774D01*
X129025979Y-98728065D01*
X129037907Y-98725693D01*
X129049042Y-98721080D01*
X129059065Y-98714383D01*
X129067587Y-98705861D01*
X129074284Y-98695838D01*
X129078972Y-98684523D01*
X129080559Y-98683305D01*
X129082407Y-98684071D01*
G37*
G36*
X149402407Y-98684071D02*
G01*
X149402782Y-98685678D01*
X149393928Y-98730190D01*
X149391966Y-98731800D01*
X149377494Y-98731800D01*
X149283644Y-98741043D01*
X149193486Y-98768393D01*
X149110398Y-98812804D01*
X149037571Y-98872571D01*
X148977804Y-98945398D01*
X148933393Y-99028486D01*
X148906043Y-99118644D01*
X148896790Y-99212596D01*
X148895625Y-99214222D01*
X148893635Y-99214026D01*
X148892800Y-99212400D01*
X148892800Y-99183767D01*
X148892810Y-99183571D01*
X148901774Y-99092560D01*
X148901850Y-99092175D01*
X148927489Y-99007651D01*
X148927639Y-99007289D01*
X148969274Y-98929397D01*
X148969492Y-98929071D01*
X149025521Y-98860798D01*
X149025798Y-98860521D01*
X149094071Y-98804492D01*
X149094397Y-98804274D01*
X149172289Y-98762639D01*
X149172651Y-98762489D01*
X149257174Y-98736850D01*
X149257559Y-98736774D01*
X149345979Y-98728065D01*
X149357907Y-98725693D01*
X149369042Y-98721080D01*
X149379065Y-98714383D01*
X149387587Y-98705861D01*
X149394284Y-98695838D01*
X149398972Y-98684523D01*
X149400559Y-98683305D01*
X149402407Y-98684071D01*
G37*
G36*
X96062407Y-98684071D02*
G01*
X96062782Y-98685678D01*
X96053928Y-98730190D01*
X96051966Y-98731800D01*
X96037494Y-98731800D01*
X95943644Y-98741043D01*
X95853486Y-98768393D01*
X95770398Y-98812804D01*
X95697571Y-98872571D01*
X95637804Y-98945398D01*
X95593393Y-99028486D01*
X95566043Y-99118644D01*
X95556790Y-99212596D01*
X95555625Y-99214222D01*
X95553635Y-99214026D01*
X95552800Y-99212400D01*
X95552800Y-99183767D01*
X95552810Y-99183571D01*
X95561774Y-99092560D01*
X95561850Y-99092175D01*
X95587489Y-99007651D01*
X95587639Y-99007289D01*
X95629274Y-98929397D01*
X95629492Y-98929071D01*
X95685521Y-98860798D01*
X95685798Y-98860521D01*
X95754071Y-98804492D01*
X95754397Y-98804274D01*
X95832289Y-98762639D01*
X95832651Y-98762489D01*
X95917174Y-98736850D01*
X95917559Y-98736774D01*
X96005979Y-98728065D01*
X96017907Y-98725693D01*
X96029042Y-98721080D01*
X96039065Y-98714383D01*
X96047587Y-98705861D01*
X96054284Y-98695838D01*
X96058972Y-98684523D01*
X96060559Y-98683305D01*
X96062407Y-98684071D01*
G37*
G36*
X146862407Y-98684071D02*
G01*
X146862782Y-98685678D01*
X146853928Y-98730190D01*
X146851966Y-98731800D01*
X146837494Y-98731800D01*
X146743644Y-98741043D01*
X146653486Y-98768393D01*
X146570398Y-98812804D01*
X146497571Y-98872571D01*
X146437804Y-98945398D01*
X146393393Y-99028486D01*
X146366043Y-99118644D01*
X146356790Y-99212596D01*
X146355625Y-99214222D01*
X146353635Y-99214026D01*
X146352800Y-99212400D01*
X146352800Y-99183767D01*
X146352810Y-99183571D01*
X146361774Y-99092560D01*
X146361850Y-99092175D01*
X146387489Y-99007651D01*
X146387639Y-99007289D01*
X146429274Y-98929397D01*
X146429492Y-98929071D01*
X146485521Y-98860798D01*
X146485798Y-98860521D01*
X146554071Y-98804492D01*
X146554397Y-98804274D01*
X146632289Y-98762639D01*
X146632651Y-98762489D01*
X146717174Y-98736850D01*
X146717559Y-98736774D01*
X146805979Y-98728065D01*
X146817907Y-98725693D01*
X146829042Y-98721080D01*
X146839065Y-98714383D01*
X146847587Y-98705861D01*
X146854284Y-98695838D01*
X146858972Y-98684523D01*
X146860559Y-98683305D01*
X146862407Y-98684071D01*
G37*
G36*
X98602407Y-98684071D02*
G01*
X98602782Y-98685678D01*
X98593928Y-98730190D01*
X98591966Y-98731800D01*
X98577494Y-98731800D01*
X98483644Y-98741043D01*
X98393486Y-98768393D01*
X98310398Y-98812804D01*
X98237571Y-98872571D01*
X98177804Y-98945398D01*
X98133393Y-99028486D01*
X98106043Y-99118644D01*
X98096790Y-99212596D01*
X98095625Y-99214222D01*
X98093635Y-99214026D01*
X98092800Y-99212400D01*
X98092800Y-99183767D01*
X98092810Y-99183571D01*
X98101774Y-99092560D01*
X98101850Y-99092175D01*
X98127489Y-99007651D01*
X98127639Y-99007289D01*
X98169274Y-98929397D01*
X98169492Y-98929071D01*
X98225521Y-98860798D01*
X98225798Y-98860521D01*
X98294071Y-98804492D01*
X98294397Y-98804274D01*
X98372289Y-98762639D01*
X98372651Y-98762489D01*
X98457174Y-98736850D01*
X98457559Y-98736774D01*
X98545979Y-98728065D01*
X98557907Y-98725693D01*
X98569042Y-98721080D01*
X98579065Y-98714383D01*
X98587587Y-98705861D01*
X98594284Y-98695838D01*
X98598972Y-98684523D01*
X98600559Y-98683305D01*
X98602407Y-98684071D01*
G37*
G36*
X144322407Y-98684071D02*
G01*
X144322782Y-98685678D01*
X144313928Y-98730190D01*
X144311966Y-98731800D01*
X144297494Y-98731800D01*
X144203644Y-98741043D01*
X144113486Y-98768393D01*
X144030398Y-98812804D01*
X143957571Y-98872571D01*
X143897804Y-98945398D01*
X143853393Y-99028486D01*
X143826043Y-99118644D01*
X143816790Y-99212596D01*
X143815625Y-99214222D01*
X143813635Y-99214026D01*
X143812800Y-99212400D01*
X143812800Y-99183767D01*
X143812810Y-99183571D01*
X143821774Y-99092560D01*
X143821850Y-99092175D01*
X143847489Y-99007651D01*
X143847639Y-99007289D01*
X143889274Y-98929397D01*
X143889492Y-98929071D01*
X143945521Y-98860798D01*
X143945798Y-98860521D01*
X144014071Y-98804492D01*
X144014397Y-98804274D01*
X144092289Y-98762639D01*
X144092651Y-98762489D01*
X144177174Y-98736850D01*
X144177559Y-98736774D01*
X144265979Y-98728065D01*
X144277907Y-98725693D01*
X144289042Y-98721080D01*
X144299065Y-98714383D01*
X144307587Y-98705861D01*
X144314284Y-98695838D01*
X144318972Y-98684523D01*
X144320559Y-98683305D01*
X144322407Y-98684071D01*
G37*
G36*
X93522407Y-98684071D02*
G01*
X93522782Y-98685678D01*
X93513928Y-98730190D01*
X93511966Y-98731800D01*
X93497494Y-98731800D01*
X93403644Y-98741043D01*
X93313486Y-98768393D01*
X93230398Y-98812804D01*
X93157571Y-98872571D01*
X93097804Y-98945398D01*
X93053393Y-99028486D01*
X93026043Y-99118644D01*
X93016790Y-99212596D01*
X93015625Y-99214222D01*
X93013635Y-99214026D01*
X93012800Y-99212400D01*
X93012800Y-99183767D01*
X93012810Y-99183571D01*
X93021774Y-99092560D01*
X93021850Y-99092175D01*
X93047489Y-99007651D01*
X93047639Y-99007289D01*
X93089274Y-98929397D01*
X93089492Y-98929071D01*
X93145521Y-98860798D01*
X93145798Y-98860521D01*
X93214071Y-98804492D01*
X93214397Y-98804274D01*
X93292289Y-98762639D01*
X93292651Y-98762489D01*
X93377174Y-98736850D01*
X93377559Y-98736774D01*
X93465979Y-98728065D01*
X93477907Y-98725693D01*
X93489042Y-98721080D01*
X93499065Y-98714383D01*
X93507587Y-98705861D01*
X93514284Y-98695838D01*
X93518972Y-98684523D01*
X93520559Y-98683305D01*
X93522407Y-98684071D01*
G37*
G36*
X101142407Y-98684071D02*
G01*
X101142782Y-98685678D01*
X101133928Y-98730190D01*
X101131966Y-98731800D01*
X101117494Y-98731800D01*
X101023644Y-98741043D01*
X100933486Y-98768393D01*
X100850398Y-98812804D01*
X100777571Y-98872571D01*
X100717804Y-98945398D01*
X100673393Y-99028486D01*
X100646043Y-99118644D01*
X100636790Y-99212596D01*
X100635625Y-99214222D01*
X100633635Y-99214026D01*
X100632800Y-99212400D01*
X100632800Y-99183767D01*
X100632810Y-99183571D01*
X100641774Y-99092560D01*
X100641850Y-99092175D01*
X100667489Y-99007651D01*
X100667639Y-99007289D01*
X100709274Y-98929397D01*
X100709492Y-98929071D01*
X100765521Y-98860798D01*
X100765798Y-98860521D01*
X100834071Y-98804492D01*
X100834397Y-98804274D01*
X100912289Y-98762639D01*
X100912651Y-98762489D01*
X100997174Y-98736850D01*
X100997559Y-98736774D01*
X101085979Y-98728065D01*
X101097907Y-98725693D01*
X101109042Y-98721080D01*
X101119065Y-98714383D01*
X101127587Y-98705861D01*
X101134284Y-98695838D01*
X101138972Y-98684523D01*
X101140559Y-98683305D01*
X101142407Y-98684071D01*
G37*
G36*
X103682407Y-98684071D02*
G01*
X103682782Y-98685678D01*
X103673928Y-98730190D01*
X103671966Y-98731800D01*
X103657494Y-98731800D01*
X103563644Y-98741043D01*
X103473486Y-98768393D01*
X103390398Y-98812804D01*
X103317571Y-98872571D01*
X103257804Y-98945398D01*
X103213393Y-99028486D01*
X103186043Y-99118644D01*
X103176790Y-99212596D01*
X103175625Y-99214222D01*
X103173635Y-99214026D01*
X103172800Y-99212400D01*
X103172800Y-99183767D01*
X103172810Y-99183571D01*
X103181774Y-99092560D01*
X103181850Y-99092175D01*
X103207489Y-99007651D01*
X103207639Y-99007289D01*
X103249274Y-98929397D01*
X103249492Y-98929071D01*
X103305521Y-98860798D01*
X103305798Y-98860521D01*
X103374071Y-98804492D01*
X103374397Y-98804274D01*
X103452289Y-98762639D01*
X103452651Y-98762489D01*
X103537174Y-98736850D01*
X103537559Y-98736774D01*
X103625979Y-98728065D01*
X103637907Y-98725693D01*
X103649042Y-98721080D01*
X103659065Y-98714383D01*
X103667587Y-98705861D01*
X103674284Y-98695838D01*
X103678972Y-98684523D01*
X103680559Y-98683305D01*
X103682407Y-98684071D01*
G37*
G36*
X151942407Y-98684071D02*
G01*
X151942782Y-98685678D01*
X151933928Y-98730190D01*
X151931966Y-98731800D01*
X151917494Y-98731800D01*
X151823644Y-98741043D01*
X151733486Y-98768393D01*
X151650398Y-98812804D01*
X151577571Y-98872571D01*
X151517804Y-98945398D01*
X151473393Y-99028486D01*
X151446043Y-99118644D01*
X151436790Y-99212596D01*
X151435625Y-99214222D01*
X151433635Y-99214026D01*
X151432800Y-99212400D01*
X151432800Y-99183767D01*
X151432810Y-99183571D01*
X151441774Y-99092560D01*
X151441850Y-99092175D01*
X151467489Y-99007651D01*
X151467639Y-99007289D01*
X151509274Y-98929397D01*
X151509492Y-98929071D01*
X151565521Y-98860798D01*
X151565798Y-98860521D01*
X151634071Y-98804492D01*
X151634397Y-98804274D01*
X151712289Y-98762639D01*
X151712651Y-98762489D01*
X151797174Y-98736850D01*
X151797559Y-98736774D01*
X151885979Y-98728065D01*
X151897907Y-98725693D01*
X151909042Y-98721080D01*
X151919065Y-98714383D01*
X151927587Y-98705861D01*
X151934284Y-98695838D01*
X151938972Y-98684523D01*
X151940559Y-98683305D01*
X151942407Y-98684071D01*
G37*
G36*
X141782407Y-98684071D02*
G01*
X141782782Y-98685678D01*
X141773928Y-98730190D01*
X141771966Y-98731800D01*
X141757494Y-98731800D01*
X141663644Y-98741043D01*
X141573486Y-98768393D01*
X141490398Y-98812804D01*
X141417571Y-98872571D01*
X141357804Y-98945398D01*
X141313393Y-99028486D01*
X141286043Y-99118644D01*
X141276790Y-99212596D01*
X141275625Y-99214222D01*
X141273635Y-99214026D01*
X141272800Y-99212400D01*
X141272800Y-99183767D01*
X141272810Y-99183571D01*
X141281774Y-99092560D01*
X141281850Y-99092175D01*
X141307489Y-99007651D01*
X141307639Y-99007289D01*
X141349274Y-98929397D01*
X141349492Y-98929071D01*
X141405521Y-98860798D01*
X141405798Y-98860521D01*
X141474071Y-98804492D01*
X141474397Y-98804274D01*
X141552289Y-98762639D01*
X141552651Y-98762489D01*
X141637174Y-98736850D01*
X141637559Y-98736774D01*
X141725979Y-98728065D01*
X141737907Y-98725693D01*
X141749042Y-98721080D01*
X141759065Y-98714383D01*
X141767587Y-98705861D01*
X141774284Y-98695838D01*
X141778972Y-98684523D01*
X141780559Y-98683305D01*
X141782407Y-98684071D01*
G37*
G36*
X90982407Y-98684071D02*
G01*
X90982782Y-98685678D01*
X90973928Y-98730190D01*
X90971966Y-98731800D01*
X90957494Y-98731800D01*
X90863644Y-98741043D01*
X90773486Y-98768393D01*
X90690398Y-98812804D01*
X90617571Y-98872571D01*
X90557804Y-98945398D01*
X90513393Y-99028486D01*
X90486043Y-99118644D01*
X90476790Y-99212596D01*
X90475625Y-99214222D01*
X90473635Y-99214026D01*
X90472800Y-99212400D01*
X90472800Y-99183767D01*
X90472810Y-99183571D01*
X90481774Y-99092560D01*
X90481850Y-99092175D01*
X90507489Y-99007651D01*
X90507639Y-99007289D01*
X90549274Y-98929397D01*
X90549492Y-98929071D01*
X90605521Y-98860798D01*
X90605798Y-98860521D01*
X90674071Y-98804492D01*
X90674397Y-98804274D01*
X90752289Y-98762639D01*
X90752651Y-98762489D01*
X90837174Y-98736850D01*
X90837559Y-98736774D01*
X90925979Y-98728065D01*
X90937907Y-98725693D01*
X90949042Y-98721080D01*
X90959065Y-98714383D01*
X90967587Y-98705861D01*
X90974284Y-98695838D01*
X90978972Y-98684523D01*
X90980559Y-98683305D01*
X90982407Y-98684071D01*
G37*
G36*
X106222407Y-98684071D02*
G01*
X106222782Y-98685678D01*
X106213928Y-98730190D01*
X106211966Y-98731800D01*
X106197494Y-98731800D01*
X106103644Y-98741043D01*
X106013486Y-98768393D01*
X105930398Y-98812804D01*
X105857571Y-98872571D01*
X105797804Y-98945398D01*
X105753393Y-99028486D01*
X105726043Y-99118644D01*
X105716790Y-99212596D01*
X105715625Y-99214222D01*
X105713635Y-99214026D01*
X105712800Y-99212400D01*
X105712800Y-99183767D01*
X105712810Y-99183571D01*
X105721774Y-99092560D01*
X105721850Y-99092175D01*
X105747489Y-99007651D01*
X105747639Y-99007289D01*
X105789274Y-98929397D01*
X105789492Y-98929071D01*
X105845521Y-98860798D01*
X105845798Y-98860521D01*
X105914071Y-98804492D01*
X105914397Y-98804274D01*
X105992289Y-98762639D01*
X105992651Y-98762489D01*
X106077174Y-98736850D01*
X106077559Y-98736774D01*
X106165979Y-98728065D01*
X106177907Y-98725693D01*
X106189042Y-98721080D01*
X106199065Y-98714383D01*
X106207587Y-98705861D01*
X106214284Y-98695838D01*
X106218972Y-98684523D01*
X106220559Y-98683305D01*
X106222407Y-98684071D01*
G37*
G36*
X139242407Y-98684071D02*
G01*
X139242782Y-98685678D01*
X139233928Y-98730190D01*
X139231966Y-98731800D01*
X139217494Y-98731800D01*
X139123644Y-98741043D01*
X139033486Y-98768393D01*
X138950398Y-98812804D01*
X138877571Y-98872571D01*
X138817804Y-98945398D01*
X138773393Y-99028486D01*
X138746043Y-99118644D01*
X138736790Y-99212596D01*
X138735625Y-99214222D01*
X138733635Y-99214026D01*
X138732800Y-99212400D01*
X138732800Y-99183767D01*
X138732810Y-99183571D01*
X138741774Y-99092560D01*
X138741850Y-99092175D01*
X138767489Y-99007651D01*
X138767639Y-99007289D01*
X138809274Y-98929397D01*
X138809492Y-98929071D01*
X138865521Y-98860798D01*
X138865798Y-98860521D01*
X138934071Y-98804492D01*
X138934397Y-98804274D01*
X139012289Y-98762639D01*
X139012651Y-98762489D01*
X139097174Y-98736850D01*
X139097559Y-98736774D01*
X139185979Y-98728065D01*
X139197907Y-98725693D01*
X139209042Y-98721080D01*
X139219065Y-98714383D01*
X139227587Y-98705861D01*
X139234284Y-98695838D01*
X139238972Y-98684523D01*
X139240559Y-98683305D01*
X139242407Y-98684071D01*
G37*
G36*
X108762407Y-98684071D02*
G01*
X108762782Y-98685678D01*
X108753928Y-98730190D01*
X108751966Y-98731800D01*
X108737494Y-98731800D01*
X108643644Y-98741043D01*
X108553486Y-98768393D01*
X108470398Y-98812804D01*
X108397571Y-98872571D01*
X108337804Y-98945398D01*
X108293393Y-99028486D01*
X108266043Y-99118644D01*
X108256790Y-99212596D01*
X108255625Y-99214222D01*
X108253635Y-99214026D01*
X108252800Y-99212400D01*
X108252800Y-99183767D01*
X108252810Y-99183571D01*
X108261774Y-99092560D01*
X108261850Y-99092175D01*
X108287489Y-99007651D01*
X108287639Y-99007289D01*
X108329274Y-98929397D01*
X108329492Y-98929071D01*
X108385521Y-98860798D01*
X108385798Y-98860521D01*
X108454071Y-98804492D01*
X108454397Y-98804274D01*
X108532289Y-98762639D01*
X108532651Y-98762489D01*
X108617174Y-98736850D01*
X108617559Y-98736774D01*
X108705979Y-98728065D01*
X108717907Y-98725693D01*
X108729042Y-98721080D01*
X108739065Y-98714383D01*
X108747587Y-98705861D01*
X108754284Y-98695838D01*
X108758972Y-98684523D01*
X108760559Y-98683305D01*
X108762407Y-98684071D01*
G37*
G36*
X136702407Y-98684071D02*
G01*
X136702782Y-98685678D01*
X136693928Y-98730190D01*
X136691966Y-98731800D01*
X136677494Y-98731800D01*
X136583644Y-98741043D01*
X136493486Y-98768393D01*
X136410398Y-98812804D01*
X136337571Y-98872571D01*
X136277804Y-98945398D01*
X136233393Y-99028486D01*
X136206043Y-99118644D01*
X136196790Y-99212596D01*
X136195625Y-99214222D01*
X136193635Y-99214026D01*
X136192800Y-99212400D01*
X136192800Y-99183767D01*
X136192810Y-99183571D01*
X136201774Y-99092560D01*
X136201850Y-99092175D01*
X136227489Y-99007651D01*
X136227639Y-99007289D01*
X136269274Y-98929397D01*
X136269492Y-98929071D01*
X136325521Y-98860798D01*
X136325798Y-98860521D01*
X136394071Y-98804492D01*
X136394397Y-98804274D01*
X136472289Y-98762639D01*
X136472651Y-98762489D01*
X136557174Y-98736850D01*
X136557559Y-98736774D01*
X136645979Y-98728065D01*
X136657907Y-98725693D01*
X136669042Y-98721080D01*
X136679065Y-98714383D01*
X136687587Y-98705861D01*
X136694284Y-98695838D01*
X136698972Y-98684523D01*
X136700559Y-98683305D01*
X136702407Y-98684071D01*
G37*
G36*
X88442407Y-98684071D02*
G01*
X88442782Y-98685678D01*
X88433928Y-98730190D01*
X88431966Y-98731800D01*
X88417494Y-98731800D01*
X88323644Y-98741043D01*
X88233486Y-98768393D01*
X88150398Y-98812804D01*
X88077571Y-98872571D01*
X88017804Y-98945398D01*
X87973393Y-99028486D01*
X87946043Y-99118644D01*
X87936790Y-99212596D01*
X87935625Y-99214222D01*
X87933635Y-99214026D01*
X87932800Y-99212400D01*
X87932800Y-99183767D01*
X87932810Y-99183571D01*
X87941774Y-99092560D01*
X87941850Y-99092175D01*
X87967489Y-99007651D01*
X87967639Y-99007289D01*
X88009274Y-98929397D01*
X88009492Y-98929071D01*
X88065521Y-98860798D01*
X88065798Y-98860521D01*
X88134071Y-98804492D01*
X88134397Y-98804274D01*
X88212289Y-98762639D01*
X88212651Y-98762489D01*
X88297174Y-98736850D01*
X88297559Y-98736774D01*
X88385979Y-98728065D01*
X88397907Y-98725693D01*
X88409042Y-98721080D01*
X88419065Y-98714383D01*
X88427587Y-98705861D01*
X88434284Y-98695838D01*
X88438972Y-98684523D01*
X88440559Y-98683305D01*
X88442407Y-98684071D01*
G37*
G36*
X118922407Y-98684071D02*
G01*
X118922782Y-98685678D01*
X118913928Y-98730190D01*
X118911966Y-98731800D01*
X118897494Y-98731800D01*
X118803644Y-98741043D01*
X118713486Y-98768393D01*
X118630398Y-98812804D01*
X118557571Y-98872571D01*
X118497804Y-98945398D01*
X118453393Y-99028486D01*
X118426043Y-99118644D01*
X118416790Y-99212596D01*
X118415625Y-99214222D01*
X118413635Y-99214026D01*
X118412800Y-99212400D01*
X118412800Y-99183767D01*
X118412810Y-99183571D01*
X118421774Y-99092560D01*
X118421850Y-99092175D01*
X118447489Y-99007651D01*
X118447639Y-99007289D01*
X118489274Y-98929397D01*
X118489492Y-98929071D01*
X118545521Y-98860798D01*
X118545798Y-98860521D01*
X118614071Y-98804492D01*
X118614397Y-98804274D01*
X118692289Y-98762639D01*
X118692651Y-98762489D01*
X118777174Y-98736850D01*
X118777559Y-98736774D01*
X118865979Y-98728065D01*
X118877907Y-98725693D01*
X118889042Y-98721080D01*
X118899065Y-98714383D01*
X118907587Y-98705861D01*
X118914284Y-98695838D01*
X118918972Y-98684523D01*
X118920559Y-98683305D01*
X118922407Y-98684071D01*
G37*
G36*
X154482407Y-98684071D02*
G01*
X154482782Y-98685678D01*
X154473928Y-98730190D01*
X154471966Y-98731800D01*
X154457494Y-98731800D01*
X154363644Y-98741043D01*
X154273486Y-98768393D01*
X154190398Y-98812804D01*
X154117571Y-98872571D01*
X154057804Y-98945398D01*
X154013393Y-99028486D01*
X153986043Y-99118644D01*
X153976790Y-99212596D01*
X153975625Y-99214222D01*
X153973635Y-99214026D01*
X153972800Y-99212400D01*
X153972800Y-99183767D01*
X153972810Y-99183571D01*
X153981774Y-99092560D01*
X153981850Y-99092175D01*
X154007489Y-99007651D01*
X154007639Y-99007289D01*
X154049274Y-98929397D01*
X154049492Y-98929071D01*
X154105521Y-98860798D01*
X154105798Y-98860521D01*
X154174071Y-98804492D01*
X154174397Y-98804274D01*
X154252289Y-98762639D01*
X154252651Y-98762489D01*
X154337174Y-98736850D01*
X154337559Y-98736774D01*
X154425979Y-98728065D01*
X154437907Y-98725693D01*
X154449042Y-98721080D01*
X154459065Y-98714383D01*
X154467587Y-98705861D01*
X154474284Y-98695838D01*
X154478972Y-98684523D01*
X154480559Y-98683305D01*
X154482407Y-98684071D01*
G37*
G36*
X111302407Y-98684071D02*
G01*
X111302782Y-98685678D01*
X111293928Y-98730190D01*
X111291966Y-98731800D01*
X111277494Y-98731800D01*
X111183644Y-98741043D01*
X111093486Y-98768393D01*
X111010398Y-98812804D01*
X110937571Y-98872571D01*
X110877804Y-98945398D01*
X110833393Y-99028486D01*
X110806043Y-99118644D01*
X110796790Y-99212596D01*
X110795625Y-99214222D01*
X110793635Y-99214026D01*
X110792800Y-99212400D01*
X110792800Y-99183767D01*
X110792810Y-99183571D01*
X110801774Y-99092560D01*
X110801850Y-99092175D01*
X110827489Y-99007651D01*
X110827639Y-99007289D01*
X110869274Y-98929397D01*
X110869492Y-98929071D01*
X110925521Y-98860798D01*
X110925798Y-98860521D01*
X110994071Y-98804492D01*
X110994397Y-98804274D01*
X111072289Y-98762639D01*
X111072651Y-98762489D01*
X111157174Y-98736850D01*
X111157559Y-98736774D01*
X111245979Y-98728065D01*
X111257907Y-98725693D01*
X111269042Y-98721080D01*
X111279065Y-98714383D01*
X111287587Y-98705861D01*
X111294284Y-98695838D01*
X111298972Y-98684523D01*
X111300559Y-98683305D01*
X111302407Y-98684071D01*
G37*
G36*
X157022407Y-98684071D02*
G01*
X157022782Y-98685678D01*
X157013928Y-98730190D01*
X157011966Y-98731800D01*
X156997494Y-98731800D01*
X156903644Y-98741043D01*
X156813486Y-98768393D01*
X156730398Y-98812804D01*
X156657571Y-98872571D01*
X156597804Y-98945398D01*
X156553393Y-99028486D01*
X156526043Y-99118644D01*
X156516790Y-99212596D01*
X156515625Y-99214222D01*
X156513635Y-99214026D01*
X156512800Y-99212400D01*
X156512800Y-99183767D01*
X156512810Y-99183571D01*
X156521774Y-99092560D01*
X156521850Y-99092175D01*
X156547489Y-99007651D01*
X156547639Y-99007289D01*
X156589274Y-98929397D01*
X156589492Y-98929071D01*
X156645521Y-98860798D01*
X156645798Y-98860521D01*
X156714071Y-98804492D01*
X156714397Y-98804274D01*
X156792289Y-98762639D01*
X156792651Y-98762489D01*
X156877174Y-98736850D01*
X156877559Y-98736774D01*
X156965979Y-98728065D01*
X156977907Y-98725693D01*
X156989042Y-98721080D01*
X156999065Y-98714383D01*
X157007587Y-98705861D01*
X157014284Y-98695838D01*
X157018972Y-98684523D01*
X157020559Y-98683305D01*
X157022407Y-98684071D01*
G37*
G36*
X134162407Y-98684071D02*
G01*
X134162782Y-98685678D01*
X134153928Y-98730190D01*
X134151966Y-98731800D01*
X134137494Y-98731800D01*
X134043644Y-98741043D01*
X133953486Y-98768393D01*
X133870398Y-98812804D01*
X133797571Y-98872571D01*
X133737804Y-98945398D01*
X133693393Y-99028486D01*
X133666043Y-99118644D01*
X133656790Y-99212596D01*
X133655625Y-99214222D01*
X133653635Y-99214026D01*
X133652800Y-99212400D01*
X133652800Y-99183767D01*
X133652810Y-99183571D01*
X133661774Y-99092560D01*
X133661850Y-99092175D01*
X133687489Y-99007651D01*
X133687639Y-99007289D01*
X133729274Y-98929397D01*
X133729492Y-98929071D01*
X133785521Y-98860798D01*
X133785798Y-98860521D01*
X133854071Y-98804492D01*
X133854397Y-98804274D01*
X133932289Y-98762639D01*
X133932651Y-98762489D01*
X134017174Y-98736850D01*
X134017559Y-98736774D01*
X134105979Y-98728065D01*
X134117907Y-98725693D01*
X134129042Y-98721080D01*
X134139065Y-98714383D01*
X134147587Y-98705861D01*
X134154284Y-98695838D01*
X134158972Y-98684523D01*
X134160559Y-98683305D01*
X134162407Y-98684071D01*
G37*
G36*
X113842407Y-98684071D02*
G01*
X113842782Y-98685678D01*
X113833928Y-98730190D01*
X113831966Y-98731800D01*
X113817494Y-98731800D01*
X113723644Y-98741043D01*
X113633486Y-98768393D01*
X113550398Y-98812804D01*
X113477571Y-98872571D01*
X113417804Y-98945398D01*
X113373393Y-99028486D01*
X113346043Y-99118644D01*
X113336790Y-99212596D01*
X113335625Y-99214222D01*
X113333635Y-99214026D01*
X113332800Y-99212400D01*
X113332800Y-99183767D01*
X113332810Y-99183571D01*
X113341774Y-99092560D01*
X113341850Y-99092175D01*
X113367489Y-99007651D01*
X113367639Y-99007289D01*
X113409274Y-98929397D01*
X113409492Y-98929071D01*
X113465521Y-98860798D01*
X113465798Y-98860521D01*
X113534071Y-98804492D01*
X113534397Y-98804274D01*
X113612289Y-98762639D01*
X113612651Y-98762489D01*
X113697174Y-98736850D01*
X113697559Y-98736774D01*
X113785979Y-98728065D01*
X113797907Y-98725693D01*
X113809042Y-98721080D01*
X113819065Y-98714383D01*
X113827587Y-98705861D01*
X113834284Y-98695838D01*
X113838972Y-98684523D01*
X113840559Y-98683305D01*
X113842407Y-98684071D01*
G37*
G36*
X131622407Y-98684071D02*
G01*
X131622782Y-98685678D01*
X131613928Y-98730190D01*
X131611966Y-98731800D01*
X131597494Y-98731800D01*
X131503644Y-98741043D01*
X131413486Y-98768393D01*
X131330398Y-98812804D01*
X131257571Y-98872571D01*
X131197804Y-98945398D01*
X131153393Y-99028486D01*
X131126043Y-99118644D01*
X131116790Y-99212596D01*
X131115625Y-99214222D01*
X131113635Y-99214026D01*
X131112800Y-99212400D01*
X131112800Y-99183767D01*
X131112810Y-99183571D01*
X131121774Y-99092560D01*
X131121850Y-99092175D01*
X131147489Y-99007651D01*
X131147639Y-99007289D01*
X131189274Y-98929397D01*
X131189492Y-98929071D01*
X131245521Y-98860798D01*
X131245798Y-98860521D01*
X131314071Y-98804492D01*
X131314397Y-98804274D01*
X131392289Y-98762639D01*
X131392651Y-98762489D01*
X131477174Y-98736850D01*
X131477559Y-98736774D01*
X131565979Y-98728065D01*
X131577907Y-98725693D01*
X131589042Y-98721080D01*
X131599065Y-98714383D01*
X131607587Y-98705861D01*
X131614284Y-98695838D01*
X131618972Y-98684523D01*
X131620559Y-98683305D01*
X131622407Y-98684071D01*
G37*
G36*
X85902407Y-98684071D02*
G01*
X85902782Y-98685678D01*
X85893928Y-98730190D01*
X85891966Y-98731800D01*
X85877494Y-98731800D01*
X85783644Y-98741043D01*
X85693486Y-98768393D01*
X85610398Y-98812804D01*
X85537571Y-98872571D01*
X85477804Y-98945398D01*
X85433393Y-99028486D01*
X85406043Y-99118644D01*
X85396790Y-99212596D01*
X85395625Y-99214222D01*
X85393635Y-99214026D01*
X85392800Y-99212400D01*
X85392800Y-99183767D01*
X85392810Y-99183571D01*
X85401774Y-99092560D01*
X85401850Y-99092175D01*
X85427489Y-99007651D01*
X85427639Y-99007289D01*
X85469274Y-98929397D01*
X85469492Y-98929071D01*
X85525521Y-98860798D01*
X85525798Y-98860521D01*
X85594071Y-98804492D01*
X85594397Y-98804274D01*
X85672289Y-98762639D01*
X85672651Y-98762489D01*
X85757174Y-98736850D01*
X85757559Y-98736774D01*
X85845979Y-98728065D01*
X85857907Y-98725693D01*
X85869042Y-98721080D01*
X85879065Y-98714383D01*
X85887587Y-98705861D01*
X85894284Y-98695838D01*
X85898972Y-98684523D01*
X85900559Y-98683305D01*
X85902407Y-98684071D01*
G37*
G36*
X116382407Y-98684071D02*
G01*
X116382782Y-98685678D01*
X116373928Y-98730190D01*
X116371966Y-98731800D01*
X116357494Y-98731800D01*
X116263644Y-98741043D01*
X116173486Y-98768393D01*
X116090398Y-98812804D01*
X116017571Y-98872571D01*
X115957804Y-98945398D01*
X115913393Y-99028486D01*
X115886043Y-99118644D01*
X115876790Y-99212596D01*
X115875625Y-99214222D01*
X115873635Y-99214026D01*
X115872800Y-99212400D01*
X115872800Y-99183767D01*
X115872810Y-99183571D01*
X115881774Y-99092560D01*
X115881850Y-99092175D01*
X115907489Y-99007651D01*
X115907639Y-99007289D01*
X115949274Y-98929397D01*
X115949492Y-98929071D01*
X116005521Y-98860798D01*
X116005798Y-98860521D01*
X116074071Y-98804492D01*
X116074397Y-98804274D01*
X116152289Y-98762639D01*
X116152651Y-98762489D01*
X116237174Y-98736850D01*
X116237559Y-98736774D01*
X116325979Y-98728065D01*
X116337907Y-98725693D01*
X116349042Y-98721080D01*
X116359065Y-98714383D01*
X116367587Y-98705861D01*
X116374284Y-98695838D01*
X116378972Y-98684523D01*
X116380559Y-98683305D01*
X116382407Y-98684071D01*
G37*
G36*
X94440485Y-98681645D02*
G01*
X94443135Y-98690381D01*
X94448817Y-98701013D01*
X94456463Y-98710330D01*
X94465780Y-98717977D01*
X94476411Y-98723660D01*
X94487998Y-98727175D01*
X94493964Y-98728060D01*
X94582441Y-98736774D01*
X94582826Y-98736850D01*
X94667349Y-98762489D01*
X94667711Y-98762639D01*
X94745603Y-98804274D01*
X94745929Y-98804492D01*
X94814202Y-98860521D01*
X94814479Y-98860798D01*
X94870508Y-98929071D01*
X94870726Y-98929397D01*
X94912361Y-99007289D01*
X94912511Y-99007651D01*
X94938150Y-99092175D01*
X94938226Y-99092560D01*
X94947190Y-99183571D01*
X94947200Y-99183767D01*
X94947200Y-99212400D01*
X94946200Y-99214132D01*
X94944200Y-99214132D01*
X94943210Y-99212596D01*
X94933957Y-99118644D01*
X94906607Y-99028486D01*
X94862196Y-98945398D01*
X94802429Y-98872571D01*
X94729602Y-98812804D01*
X94646514Y-98768393D01*
X94556356Y-98741043D01*
X94462506Y-98731800D01*
X94448034Y-98731800D01*
X94446072Y-98730190D01*
X94436609Y-98682616D01*
X94437252Y-98680722D01*
X94439214Y-98680332D01*
X94440485Y-98681645D01*
G37*
G36*
X130000485Y-98681645D02*
G01*
X130003135Y-98690381D01*
X130008817Y-98701013D01*
X130016463Y-98710330D01*
X130025780Y-98717977D01*
X130036411Y-98723660D01*
X130047998Y-98727175D01*
X130053964Y-98728060D01*
X130142441Y-98736774D01*
X130142826Y-98736850D01*
X130227349Y-98762489D01*
X130227711Y-98762639D01*
X130305603Y-98804274D01*
X130305929Y-98804492D01*
X130374202Y-98860521D01*
X130374479Y-98860798D01*
X130430508Y-98929071D01*
X130430726Y-98929397D01*
X130472361Y-99007289D01*
X130472511Y-99007651D01*
X130498150Y-99092175D01*
X130498226Y-99092560D01*
X130507190Y-99183571D01*
X130507200Y-99183767D01*
X130507200Y-99212400D01*
X130506200Y-99214132D01*
X130504200Y-99214132D01*
X130503210Y-99212596D01*
X130493957Y-99118644D01*
X130466607Y-99028486D01*
X130422196Y-98945398D01*
X130362429Y-98872571D01*
X130289602Y-98812804D01*
X130206514Y-98768393D01*
X130116356Y-98741043D01*
X130022506Y-98731800D01*
X130008034Y-98731800D01*
X130006072Y-98730190D01*
X129996609Y-98682616D01*
X129997252Y-98680722D01*
X129999214Y-98680332D01*
X130000485Y-98681645D01*
G37*
G36*
X124920485Y-98681645D02*
G01*
X124923135Y-98690381D01*
X124928817Y-98701013D01*
X124936463Y-98710330D01*
X124945780Y-98717977D01*
X124956411Y-98723660D01*
X124967998Y-98727175D01*
X124973964Y-98728060D01*
X125062441Y-98736774D01*
X125062826Y-98736850D01*
X125147349Y-98762489D01*
X125147711Y-98762639D01*
X125225603Y-98804274D01*
X125225929Y-98804492D01*
X125294202Y-98860521D01*
X125294479Y-98860798D01*
X125350508Y-98929071D01*
X125350726Y-98929397D01*
X125392361Y-99007289D01*
X125392511Y-99007651D01*
X125418150Y-99092175D01*
X125418226Y-99092560D01*
X125427190Y-99183571D01*
X125427200Y-99183767D01*
X125427200Y-99212400D01*
X125426200Y-99214132D01*
X125424200Y-99214132D01*
X125423210Y-99212596D01*
X125413957Y-99118644D01*
X125386607Y-99028486D01*
X125342196Y-98945398D01*
X125282429Y-98872571D01*
X125209602Y-98812804D01*
X125126514Y-98768393D01*
X125036356Y-98741043D01*
X124942506Y-98731800D01*
X124928034Y-98731800D01*
X124926072Y-98730190D01*
X124916609Y-98682616D01*
X124917252Y-98680722D01*
X124919214Y-98680332D01*
X124920485Y-98681645D01*
G37*
G36*
X122380485Y-98681645D02*
G01*
X122383135Y-98690381D01*
X122388817Y-98701013D01*
X122396463Y-98710330D01*
X122405780Y-98717977D01*
X122416411Y-98723660D01*
X122427998Y-98727175D01*
X122433964Y-98728060D01*
X122522441Y-98736774D01*
X122522826Y-98736850D01*
X122607349Y-98762489D01*
X122607711Y-98762639D01*
X122685603Y-98804274D01*
X122685929Y-98804492D01*
X122754202Y-98860521D01*
X122754479Y-98860798D01*
X122810508Y-98929071D01*
X122810726Y-98929397D01*
X122852361Y-99007289D01*
X122852511Y-99007651D01*
X122878150Y-99092175D01*
X122878226Y-99092560D01*
X122887190Y-99183571D01*
X122887200Y-99183767D01*
X122887200Y-99212400D01*
X122886200Y-99214132D01*
X122884200Y-99214132D01*
X122883210Y-99212596D01*
X122873957Y-99118644D01*
X122846607Y-99028486D01*
X122802196Y-98945398D01*
X122742429Y-98872571D01*
X122669602Y-98812804D01*
X122586514Y-98768393D01*
X122496356Y-98741043D01*
X122402506Y-98731800D01*
X122388034Y-98731800D01*
X122386072Y-98730190D01*
X122376609Y-98682616D01*
X122377252Y-98680722D01*
X122379214Y-98680332D01*
X122380485Y-98681645D01*
G37*
G36*
X114760485Y-98681645D02*
G01*
X114763135Y-98690381D01*
X114768817Y-98701013D01*
X114776463Y-98710330D01*
X114785780Y-98717977D01*
X114796411Y-98723660D01*
X114807998Y-98727175D01*
X114813964Y-98728060D01*
X114902441Y-98736774D01*
X114902826Y-98736850D01*
X114987349Y-98762489D01*
X114987711Y-98762639D01*
X115065603Y-98804274D01*
X115065929Y-98804492D01*
X115134202Y-98860521D01*
X115134479Y-98860798D01*
X115190508Y-98929071D01*
X115190726Y-98929397D01*
X115232361Y-99007289D01*
X115232511Y-99007651D01*
X115258150Y-99092175D01*
X115258226Y-99092560D01*
X115267190Y-99183571D01*
X115267200Y-99183767D01*
X115267200Y-99212400D01*
X115266200Y-99214132D01*
X115264200Y-99214132D01*
X115263210Y-99212596D01*
X115253957Y-99118644D01*
X115226607Y-99028486D01*
X115182196Y-98945398D01*
X115122429Y-98872571D01*
X115049602Y-98812804D01*
X114966514Y-98768393D01*
X114876356Y-98741043D01*
X114782506Y-98731800D01*
X114768034Y-98731800D01*
X114766072Y-98730190D01*
X114756609Y-98682616D01*
X114757252Y-98680722D01*
X114759214Y-98680332D01*
X114760485Y-98681645D01*
G37*
G36*
X84280485Y-98681645D02*
G01*
X84283135Y-98690381D01*
X84288817Y-98701013D01*
X84296463Y-98710330D01*
X84305780Y-98717977D01*
X84316411Y-98723660D01*
X84327998Y-98727175D01*
X84333964Y-98728060D01*
X84422441Y-98736774D01*
X84422826Y-98736850D01*
X84507349Y-98762489D01*
X84507711Y-98762639D01*
X84585603Y-98804274D01*
X84585929Y-98804492D01*
X84654202Y-98860521D01*
X84654479Y-98860798D01*
X84710508Y-98929071D01*
X84710726Y-98929397D01*
X84752361Y-99007289D01*
X84752511Y-99007651D01*
X84778150Y-99092175D01*
X84778226Y-99092560D01*
X84787190Y-99183571D01*
X84787200Y-99183767D01*
X84787200Y-99212400D01*
X84786200Y-99214132D01*
X84784200Y-99214132D01*
X84783210Y-99212596D01*
X84773957Y-99118644D01*
X84746607Y-99028486D01*
X84702196Y-98945398D01*
X84642429Y-98872571D01*
X84569602Y-98812804D01*
X84486514Y-98768393D01*
X84396356Y-98741043D01*
X84302506Y-98731800D01*
X84288034Y-98731800D01*
X84286072Y-98730190D01*
X84276609Y-98682616D01*
X84277252Y-98680722D01*
X84279214Y-98680332D01*
X84280485Y-98681645D01*
G37*
G36*
X147780485Y-98681645D02*
G01*
X147783135Y-98690381D01*
X147788817Y-98701013D01*
X147796463Y-98710330D01*
X147805780Y-98717977D01*
X147816411Y-98723660D01*
X147827998Y-98727175D01*
X147833964Y-98728060D01*
X147922441Y-98736774D01*
X147922826Y-98736850D01*
X148007349Y-98762489D01*
X148007711Y-98762639D01*
X148085603Y-98804274D01*
X148085929Y-98804492D01*
X148154202Y-98860521D01*
X148154479Y-98860798D01*
X148210508Y-98929071D01*
X148210726Y-98929397D01*
X148252361Y-99007289D01*
X148252511Y-99007651D01*
X148278150Y-99092175D01*
X148278226Y-99092560D01*
X148287190Y-99183571D01*
X148287200Y-99183767D01*
X148287200Y-99212400D01*
X148286200Y-99214132D01*
X148284200Y-99214132D01*
X148283210Y-99212596D01*
X148273957Y-99118644D01*
X148246607Y-99028486D01*
X148202196Y-98945398D01*
X148142429Y-98872571D01*
X148069602Y-98812804D01*
X147986514Y-98768393D01*
X147896356Y-98741043D01*
X147802506Y-98731800D01*
X147788034Y-98731800D01*
X147786072Y-98730190D01*
X147776609Y-98682616D01*
X147777252Y-98680722D01*
X147779214Y-98680332D01*
X147780485Y-98681645D01*
G37*
G36*
X157940485Y-98681645D02*
G01*
X157943135Y-98690381D01*
X157948817Y-98701013D01*
X157956463Y-98710330D01*
X157965780Y-98717977D01*
X157976411Y-98723660D01*
X157987998Y-98727175D01*
X157993964Y-98728060D01*
X158082441Y-98736774D01*
X158082826Y-98736850D01*
X158167349Y-98762489D01*
X158167711Y-98762639D01*
X158245603Y-98804274D01*
X158245929Y-98804492D01*
X158314202Y-98860521D01*
X158314479Y-98860798D01*
X158370508Y-98929071D01*
X158370726Y-98929397D01*
X158412361Y-99007289D01*
X158412511Y-99007651D01*
X158438150Y-99092175D01*
X158438226Y-99092560D01*
X158447190Y-99183571D01*
X158447200Y-99183767D01*
X158447200Y-99212400D01*
X158446200Y-99214132D01*
X158444200Y-99214132D01*
X158443210Y-99212596D01*
X158433957Y-99118644D01*
X158406607Y-99028486D01*
X158362196Y-98945398D01*
X158302429Y-98872571D01*
X158229602Y-98812804D01*
X158146514Y-98768393D01*
X158056356Y-98741043D01*
X157962506Y-98731800D01*
X157948034Y-98731800D01*
X157946072Y-98730190D01*
X157936609Y-98682616D01*
X157937252Y-98680722D01*
X157939214Y-98680332D01*
X157940485Y-98681645D01*
G37*
G36*
X155400485Y-98681645D02*
G01*
X155403135Y-98690381D01*
X155408817Y-98701013D01*
X155416463Y-98710330D01*
X155425780Y-98717977D01*
X155436411Y-98723660D01*
X155447998Y-98727175D01*
X155453964Y-98728060D01*
X155542441Y-98736774D01*
X155542826Y-98736850D01*
X155627349Y-98762489D01*
X155627711Y-98762639D01*
X155705603Y-98804274D01*
X155705929Y-98804492D01*
X155774202Y-98860521D01*
X155774479Y-98860798D01*
X155830508Y-98929071D01*
X155830726Y-98929397D01*
X155872361Y-99007289D01*
X155872511Y-99007651D01*
X155898150Y-99092175D01*
X155898226Y-99092560D01*
X155907190Y-99183571D01*
X155907200Y-99183767D01*
X155907200Y-99212400D01*
X155906200Y-99214132D01*
X155904200Y-99214132D01*
X155903210Y-99212596D01*
X155893957Y-99118644D01*
X155866607Y-99028486D01*
X155822196Y-98945398D01*
X155762429Y-98872571D01*
X155689602Y-98812804D01*
X155606514Y-98768393D01*
X155516356Y-98741043D01*
X155422506Y-98731800D01*
X155408034Y-98731800D01*
X155406072Y-98730190D01*
X155396609Y-98682616D01*
X155397252Y-98680722D01*
X155399214Y-98680332D01*
X155400485Y-98681645D01*
G37*
G36*
X96980485Y-98681645D02*
G01*
X96983135Y-98690381D01*
X96988817Y-98701013D01*
X96996463Y-98710330D01*
X97005780Y-98717977D01*
X97016411Y-98723660D01*
X97027998Y-98727175D01*
X97033964Y-98728060D01*
X97122441Y-98736774D01*
X97122826Y-98736850D01*
X97207349Y-98762489D01*
X97207711Y-98762639D01*
X97285603Y-98804274D01*
X97285929Y-98804492D01*
X97354202Y-98860521D01*
X97354479Y-98860798D01*
X97410508Y-98929071D01*
X97410726Y-98929397D01*
X97452361Y-99007289D01*
X97452511Y-99007651D01*
X97478150Y-99092175D01*
X97478226Y-99092560D01*
X97487190Y-99183571D01*
X97487200Y-99183767D01*
X97487200Y-99212400D01*
X97486200Y-99214132D01*
X97484200Y-99214132D01*
X97483210Y-99212596D01*
X97473957Y-99118644D01*
X97446607Y-99028486D01*
X97402196Y-98945398D01*
X97342429Y-98872571D01*
X97269602Y-98812804D01*
X97186514Y-98768393D01*
X97096356Y-98741043D01*
X97002506Y-98731800D01*
X96988034Y-98731800D01*
X96986072Y-98730190D01*
X96976609Y-98682616D01*
X96977252Y-98680722D01*
X96979214Y-98680332D01*
X96980485Y-98681645D01*
G37*
G36*
X127460485Y-98681645D02*
G01*
X127463135Y-98690381D01*
X127468817Y-98701013D01*
X127476463Y-98710330D01*
X127485780Y-98717977D01*
X127496411Y-98723660D01*
X127507998Y-98727175D01*
X127513964Y-98728060D01*
X127602441Y-98736774D01*
X127602826Y-98736850D01*
X127687349Y-98762489D01*
X127687711Y-98762639D01*
X127765603Y-98804274D01*
X127765929Y-98804492D01*
X127834202Y-98860521D01*
X127834479Y-98860798D01*
X127890508Y-98929071D01*
X127890726Y-98929397D01*
X127932361Y-99007289D01*
X127932511Y-99007651D01*
X127958150Y-99092175D01*
X127958226Y-99092560D01*
X127967190Y-99183571D01*
X127967200Y-99183767D01*
X127967200Y-99212400D01*
X127966200Y-99214132D01*
X127964200Y-99214132D01*
X127963210Y-99212596D01*
X127953957Y-99118644D01*
X127926607Y-99028486D01*
X127882196Y-98945398D01*
X127822429Y-98872571D01*
X127749602Y-98812804D01*
X127666514Y-98768393D01*
X127576356Y-98741043D01*
X127482506Y-98731800D01*
X127468034Y-98731800D01*
X127466072Y-98730190D01*
X127456609Y-98682616D01*
X127457252Y-98680722D01*
X127459214Y-98680332D01*
X127460485Y-98681645D01*
G37*
G36*
X132540485Y-98681645D02*
G01*
X132543135Y-98690381D01*
X132548817Y-98701013D01*
X132556463Y-98710330D01*
X132565780Y-98717977D01*
X132576411Y-98723660D01*
X132587998Y-98727175D01*
X132593964Y-98728060D01*
X132682441Y-98736774D01*
X132682826Y-98736850D01*
X132767349Y-98762489D01*
X132767711Y-98762639D01*
X132845603Y-98804274D01*
X132845929Y-98804492D01*
X132914202Y-98860521D01*
X132914479Y-98860798D01*
X132970508Y-98929071D01*
X132970726Y-98929397D01*
X133012361Y-99007289D01*
X133012511Y-99007651D01*
X133038150Y-99092175D01*
X133038226Y-99092560D01*
X133047190Y-99183571D01*
X133047200Y-99183767D01*
X133047200Y-99212400D01*
X133046200Y-99214132D01*
X133044200Y-99214132D01*
X133043210Y-99212596D01*
X133033957Y-99118644D01*
X133006607Y-99028486D01*
X132962196Y-98945398D01*
X132902429Y-98872571D01*
X132829602Y-98812804D01*
X132746514Y-98768393D01*
X132656356Y-98741043D01*
X132562506Y-98731800D01*
X132548034Y-98731800D01*
X132546072Y-98730190D01*
X132536609Y-98682616D01*
X132537252Y-98680722D01*
X132539214Y-98680332D01*
X132540485Y-98681645D01*
G37*
G36*
X145240485Y-98681645D02*
G01*
X145243135Y-98690381D01*
X145248817Y-98701013D01*
X145256463Y-98710330D01*
X145265780Y-98717977D01*
X145276411Y-98723660D01*
X145287998Y-98727175D01*
X145293964Y-98728060D01*
X145382441Y-98736774D01*
X145382826Y-98736850D01*
X145467349Y-98762489D01*
X145467711Y-98762639D01*
X145545603Y-98804274D01*
X145545929Y-98804492D01*
X145614202Y-98860521D01*
X145614479Y-98860798D01*
X145670508Y-98929071D01*
X145670726Y-98929397D01*
X145712361Y-99007289D01*
X145712511Y-99007651D01*
X145738150Y-99092175D01*
X145738226Y-99092560D01*
X145747190Y-99183571D01*
X145747200Y-99183767D01*
X145747200Y-99212400D01*
X145746200Y-99214132D01*
X145744200Y-99214132D01*
X145743210Y-99212596D01*
X145733957Y-99118644D01*
X145706607Y-99028486D01*
X145662196Y-98945398D01*
X145602429Y-98872571D01*
X145529602Y-98812804D01*
X145446514Y-98768393D01*
X145356356Y-98741043D01*
X145262506Y-98731800D01*
X145248034Y-98731800D01*
X145246072Y-98730190D01*
X145236609Y-98682616D01*
X145237252Y-98680722D01*
X145239214Y-98680332D01*
X145240485Y-98681645D01*
G37*
G36*
X119840485Y-98681645D02*
G01*
X119843135Y-98690381D01*
X119848817Y-98701013D01*
X119856463Y-98710330D01*
X119865780Y-98717977D01*
X119876411Y-98723660D01*
X119887998Y-98727175D01*
X119893964Y-98728060D01*
X119982441Y-98736774D01*
X119982826Y-98736850D01*
X120067349Y-98762489D01*
X120067711Y-98762639D01*
X120145603Y-98804274D01*
X120145929Y-98804492D01*
X120214202Y-98860521D01*
X120214479Y-98860798D01*
X120270508Y-98929071D01*
X120270726Y-98929397D01*
X120312361Y-99007289D01*
X120312511Y-99007651D01*
X120338150Y-99092175D01*
X120338226Y-99092560D01*
X120347190Y-99183571D01*
X120347200Y-99183767D01*
X120347200Y-99212400D01*
X120346200Y-99214132D01*
X120344200Y-99214132D01*
X120343210Y-99212596D01*
X120333957Y-99118644D01*
X120306607Y-99028486D01*
X120262196Y-98945398D01*
X120202429Y-98872571D01*
X120129602Y-98812804D01*
X120046514Y-98768393D01*
X119956356Y-98741043D01*
X119862506Y-98731800D01*
X119848034Y-98731800D01*
X119846072Y-98730190D01*
X119836609Y-98682616D01*
X119837252Y-98680722D01*
X119839214Y-98680332D01*
X119840485Y-98681645D01*
G37*
G36*
X112220485Y-98681645D02*
G01*
X112223135Y-98690381D01*
X112228817Y-98701013D01*
X112236463Y-98710330D01*
X112245780Y-98717977D01*
X112256411Y-98723660D01*
X112267998Y-98727175D01*
X112273964Y-98728060D01*
X112362441Y-98736774D01*
X112362826Y-98736850D01*
X112447349Y-98762489D01*
X112447711Y-98762639D01*
X112525603Y-98804274D01*
X112525929Y-98804492D01*
X112594202Y-98860521D01*
X112594479Y-98860798D01*
X112650508Y-98929071D01*
X112650726Y-98929397D01*
X112692361Y-99007289D01*
X112692511Y-99007651D01*
X112718150Y-99092175D01*
X112718226Y-99092560D01*
X112727190Y-99183571D01*
X112727200Y-99183767D01*
X112727200Y-99212400D01*
X112726200Y-99214132D01*
X112724200Y-99214132D01*
X112723210Y-99212596D01*
X112713957Y-99118644D01*
X112686607Y-99028486D01*
X112642196Y-98945398D01*
X112582429Y-98872571D01*
X112509602Y-98812804D01*
X112426514Y-98768393D01*
X112336356Y-98741043D01*
X112242506Y-98731800D01*
X112228034Y-98731800D01*
X112226072Y-98730190D01*
X112216609Y-98682616D01*
X112217252Y-98680722D01*
X112219214Y-98680332D01*
X112220485Y-98681645D01*
G37*
G36*
X150320485Y-98681645D02*
G01*
X150323135Y-98690381D01*
X150328817Y-98701013D01*
X150336463Y-98710330D01*
X150345780Y-98717977D01*
X150356411Y-98723660D01*
X150367998Y-98727175D01*
X150373964Y-98728060D01*
X150462441Y-98736774D01*
X150462826Y-98736850D01*
X150547349Y-98762489D01*
X150547711Y-98762639D01*
X150625603Y-98804274D01*
X150625929Y-98804492D01*
X150694202Y-98860521D01*
X150694479Y-98860798D01*
X150750508Y-98929071D01*
X150750726Y-98929397D01*
X150792361Y-99007289D01*
X150792511Y-99007651D01*
X150818150Y-99092175D01*
X150818226Y-99092560D01*
X150827190Y-99183571D01*
X150827200Y-99183767D01*
X150827200Y-99212400D01*
X150826200Y-99214132D01*
X150824200Y-99214132D01*
X150823210Y-99212596D01*
X150813957Y-99118644D01*
X150786607Y-99028486D01*
X150742196Y-98945398D01*
X150682429Y-98872571D01*
X150609602Y-98812804D01*
X150526514Y-98768393D01*
X150436356Y-98741043D01*
X150342506Y-98731800D01*
X150328034Y-98731800D01*
X150326072Y-98730190D01*
X150316609Y-98682616D01*
X150317252Y-98680722D01*
X150319214Y-98680332D01*
X150320485Y-98681645D01*
G37*
G36*
X91900485Y-98681645D02*
G01*
X91903135Y-98690381D01*
X91908817Y-98701013D01*
X91916463Y-98710330D01*
X91925780Y-98717977D01*
X91936411Y-98723660D01*
X91947998Y-98727175D01*
X91953964Y-98728060D01*
X92042441Y-98736774D01*
X92042826Y-98736850D01*
X92127349Y-98762489D01*
X92127711Y-98762639D01*
X92205603Y-98804274D01*
X92205929Y-98804492D01*
X92274202Y-98860521D01*
X92274479Y-98860798D01*
X92330508Y-98929071D01*
X92330726Y-98929397D01*
X92372361Y-99007289D01*
X92372511Y-99007651D01*
X92398150Y-99092175D01*
X92398226Y-99092560D01*
X92407190Y-99183571D01*
X92407200Y-99183767D01*
X92407200Y-99212400D01*
X92406200Y-99214132D01*
X92404200Y-99214132D01*
X92403210Y-99212596D01*
X92393957Y-99118644D01*
X92366607Y-99028486D01*
X92322196Y-98945398D01*
X92262429Y-98872571D01*
X92189602Y-98812804D01*
X92106514Y-98768393D01*
X92016356Y-98741043D01*
X91922506Y-98731800D01*
X91908034Y-98731800D01*
X91906072Y-98730190D01*
X91896609Y-98682616D01*
X91897252Y-98680722D01*
X91899214Y-98680332D01*
X91900485Y-98681645D01*
G37*
G36*
X99520485Y-98681645D02*
G01*
X99523135Y-98690381D01*
X99528817Y-98701013D01*
X99536463Y-98710330D01*
X99545780Y-98717977D01*
X99556411Y-98723660D01*
X99567998Y-98727175D01*
X99573964Y-98728060D01*
X99662441Y-98736774D01*
X99662826Y-98736850D01*
X99747349Y-98762489D01*
X99747711Y-98762639D01*
X99825603Y-98804274D01*
X99825929Y-98804492D01*
X99894202Y-98860521D01*
X99894479Y-98860798D01*
X99950508Y-98929071D01*
X99950726Y-98929397D01*
X99992361Y-99007289D01*
X99992511Y-99007651D01*
X100018150Y-99092175D01*
X100018226Y-99092560D01*
X100027190Y-99183571D01*
X100027200Y-99183767D01*
X100027200Y-99212400D01*
X100026200Y-99214132D01*
X100024200Y-99214132D01*
X100023210Y-99212596D01*
X100013957Y-99118644D01*
X99986607Y-99028486D01*
X99942196Y-98945398D01*
X99882429Y-98872571D01*
X99809602Y-98812804D01*
X99726514Y-98768393D01*
X99636356Y-98741043D01*
X99542506Y-98731800D01*
X99528034Y-98731800D01*
X99526072Y-98730190D01*
X99516609Y-98682616D01*
X99517252Y-98680722D01*
X99519214Y-98680332D01*
X99520485Y-98681645D01*
G37*
G36*
X86820485Y-98681645D02*
G01*
X86823135Y-98690381D01*
X86828817Y-98701013D01*
X86836463Y-98710330D01*
X86845780Y-98717977D01*
X86856411Y-98723660D01*
X86867998Y-98727175D01*
X86873964Y-98728060D01*
X86962441Y-98736774D01*
X86962826Y-98736850D01*
X87047349Y-98762489D01*
X87047711Y-98762639D01*
X87125603Y-98804274D01*
X87125929Y-98804492D01*
X87194202Y-98860521D01*
X87194479Y-98860798D01*
X87250508Y-98929071D01*
X87250726Y-98929397D01*
X87292361Y-99007289D01*
X87292511Y-99007651D01*
X87318150Y-99092175D01*
X87318226Y-99092560D01*
X87327190Y-99183571D01*
X87327200Y-99183767D01*
X87327200Y-99212400D01*
X87326200Y-99214132D01*
X87324200Y-99214132D01*
X87323210Y-99212596D01*
X87313957Y-99118644D01*
X87286607Y-99028486D01*
X87242196Y-98945398D01*
X87182429Y-98872571D01*
X87109602Y-98812804D01*
X87026514Y-98768393D01*
X86936356Y-98741043D01*
X86842506Y-98731800D01*
X86828034Y-98731800D01*
X86826072Y-98730190D01*
X86816609Y-98682616D01*
X86817252Y-98680722D01*
X86819214Y-98680332D01*
X86820485Y-98681645D01*
G37*
G36*
X142700485Y-98681645D02*
G01*
X142703135Y-98690381D01*
X142708817Y-98701013D01*
X142716463Y-98710330D01*
X142725780Y-98717977D01*
X142736411Y-98723660D01*
X142747998Y-98727175D01*
X142753964Y-98728060D01*
X142842441Y-98736774D01*
X142842826Y-98736850D01*
X142927349Y-98762489D01*
X142927711Y-98762639D01*
X143005603Y-98804274D01*
X143005929Y-98804492D01*
X143074202Y-98860521D01*
X143074479Y-98860798D01*
X143130508Y-98929071D01*
X143130726Y-98929397D01*
X143172361Y-99007289D01*
X143172511Y-99007651D01*
X143198150Y-99092175D01*
X143198226Y-99092560D01*
X143207190Y-99183571D01*
X143207200Y-99183767D01*
X143207200Y-99212400D01*
X143206200Y-99214132D01*
X143204200Y-99214132D01*
X143203210Y-99212596D01*
X143193957Y-99118644D01*
X143166607Y-99028486D01*
X143122196Y-98945398D01*
X143062429Y-98872571D01*
X142989602Y-98812804D01*
X142906514Y-98768393D01*
X142816356Y-98741043D01*
X142722506Y-98731800D01*
X142708034Y-98731800D01*
X142706072Y-98730190D01*
X142696609Y-98682616D01*
X142697252Y-98680722D01*
X142699214Y-98680332D01*
X142700485Y-98681645D01*
G37*
G36*
X102060485Y-98681645D02*
G01*
X102063135Y-98690381D01*
X102068817Y-98701013D01*
X102076463Y-98710330D01*
X102085780Y-98717977D01*
X102096411Y-98723660D01*
X102107998Y-98727175D01*
X102113964Y-98728060D01*
X102202441Y-98736774D01*
X102202826Y-98736850D01*
X102287349Y-98762489D01*
X102287711Y-98762639D01*
X102365603Y-98804274D01*
X102365929Y-98804492D01*
X102434202Y-98860521D01*
X102434479Y-98860798D01*
X102490508Y-98929071D01*
X102490726Y-98929397D01*
X102532361Y-99007289D01*
X102532511Y-99007651D01*
X102558150Y-99092175D01*
X102558226Y-99092560D01*
X102567190Y-99183571D01*
X102567200Y-99183767D01*
X102567200Y-99212400D01*
X102566200Y-99214132D01*
X102564200Y-99214132D01*
X102563210Y-99212596D01*
X102553957Y-99118644D01*
X102526607Y-99028486D01*
X102482196Y-98945398D01*
X102422429Y-98872571D01*
X102349602Y-98812804D01*
X102266514Y-98768393D01*
X102176356Y-98741043D01*
X102082506Y-98731800D01*
X102068034Y-98731800D01*
X102066072Y-98730190D01*
X102056609Y-98682616D01*
X102057252Y-98680722D01*
X102059214Y-98680332D01*
X102060485Y-98681645D01*
G37*
G36*
X135080485Y-98681645D02*
G01*
X135083135Y-98690381D01*
X135088817Y-98701013D01*
X135096463Y-98710330D01*
X135105780Y-98717977D01*
X135116411Y-98723660D01*
X135127998Y-98727175D01*
X135133964Y-98728060D01*
X135222441Y-98736774D01*
X135222826Y-98736850D01*
X135307349Y-98762489D01*
X135307711Y-98762639D01*
X135385603Y-98804274D01*
X135385929Y-98804492D01*
X135454202Y-98860521D01*
X135454479Y-98860798D01*
X135510508Y-98929071D01*
X135510726Y-98929397D01*
X135552361Y-99007289D01*
X135552511Y-99007651D01*
X135578150Y-99092175D01*
X135578226Y-99092560D01*
X135587190Y-99183571D01*
X135587200Y-99183767D01*
X135587200Y-99212400D01*
X135586200Y-99214132D01*
X135584200Y-99214132D01*
X135583210Y-99212596D01*
X135573957Y-99118644D01*
X135546607Y-99028486D01*
X135502196Y-98945398D01*
X135442429Y-98872571D01*
X135369602Y-98812804D01*
X135286514Y-98768393D01*
X135196356Y-98741043D01*
X135102506Y-98731800D01*
X135088034Y-98731800D01*
X135086072Y-98730190D01*
X135076609Y-98682616D01*
X135077252Y-98680722D01*
X135079214Y-98680332D01*
X135080485Y-98681645D01*
G37*
G36*
X104600485Y-98681645D02*
G01*
X104603135Y-98690381D01*
X104608817Y-98701013D01*
X104616463Y-98710330D01*
X104625780Y-98717977D01*
X104636411Y-98723660D01*
X104647998Y-98727175D01*
X104653964Y-98728060D01*
X104742441Y-98736774D01*
X104742826Y-98736850D01*
X104827349Y-98762489D01*
X104827711Y-98762639D01*
X104905603Y-98804274D01*
X104905929Y-98804492D01*
X104974202Y-98860521D01*
X104974479Y-98860798D01*
X105030508Y-98929071D01*
X105030726Y-98929397D01*
X105072361Y-99007289D01*
X105072511Y-99007651D01*
X105098150Y-99092175D01*
X105098226Y-99092560D01*
X105107190Y-99183571D01*
X105107200Y-99183767D01*
X105107200Y-99212400D01*
X105106200Y-99214132D01*
X105104200Y-99214132D01*
X105103210Y-99212596D01*
X105093957Y-99118644D01*
X105066607Y-99028486D01*
X105022196Y-98945398D01*
X104962429Y-98872571D01*
X104889602Y-98812804D01*
X104806514Y-98768393D01*
X104716356Y-98741043D01*
X104622506Y-98731800D01*
X104608034Y-98731800D01*
X104606072Y-98730190D01*
X104596609Y-98682616D01*
X104597252Y-98680722D01*
X104599214Y-98680332D01*
X104600485Y-98681645D01*
G37*
G36*
X140160485Y-98681645D02*
G01*
X140163135Y-98690381D01*
X140168817Y-98701013D01*
X140176463Y-98710330D01*
X140185780Y-98717977D01*
X140196411Y-98723660D01*
X140207998Y-98727175D01*
X140213964Y-98728060D01*
X140302441Y-98736774D01*
X140302826Y-98736850D01*
X140387349Y-98762489D01*
X140387711Y-98762639D01*
X140465603Y-98804274D01*
X140465929Y-98804492D01*
X140534202Y-98860521D01*
X140534479Y-98860798D01*
X140590508Y-98929071D01*
X140590726Y-98929397D01*
X140632361Y-99007289D01*
X140632511Y-99007651D01*
X140658150Y-99092175D01*
X140658226Y-99092560D01*
X140667190Y-99183571D01*
X140667200Y-99183767D01*
X140667200Y-99212400D01*
X140666200Y-99214132D01*
X140664200Y-99214132D01*
X140663210Y-99212596D01*
X140653957Y-99118644D01*
X140626607Y-99028486D01*
X140582196Y-98945398D01*
X140522429Y-98872571D01*
X140449602Y-98812804D01*
X140366514Y-98768393D01*
X140276356Y-98741043D01*
X140182506Y-98731800D01*
X140168034Y-98731800D01*
X140166072Y-98730190D01*
X140156609Y-98682616D01*
X140157252Y-98680722D01*
X140159214Y-98680332D01*
X140160485Y-98681645D01*
G37*
G36*
X89360485Y-98681645D02*
G01*
X89363135Y-98690381D01*
X89368817Y-98701013D01*
X89376463Y-98710330D01*
X89385780Y-98717977D01*
X89396411Y-98723660D01*
X89407998Y-98727175D01*
X89413964Y-98728060D01*
X89502441Y-98736774D01*
X89502826Y-98736850D01*
X89587349Y-98762489D01*
X89587711Y-98762639D01*
X89665603Y-98804274D01*
X89665929Y-98804492D01*
X89734202Y-98860521D01*
X89734479Y-98860798D01*
X89790508Y-98929071D01*
X89790726Y-98929397D01*
X89832361Y-99007289D01*
X89832511Y-99007651D01*
X89858150Y-99092175D01*
X89858226Y-99092560D01*
X89867190Y-99183571D01*
X89867200Y-99183767D01*
X89867200Y-99212400D01*
X89866200Y-99214132D01*
X89864200Y-99214132D01*
X89863210Y-99212596D01*
X89853957Y-99118644D01*
X89826607Y-99028486D01*
X89782196Y-98945398D01*
X89722429Y-98872571D01*
X89649602Y-98812804D01*
X89566514Y-98768393D01*
X89476356Y-98741043D01*
X89382506Y-98731800D01*
X89368034Y-98731800D01*
X89366072Y-98730190D01*
X89356609Y-98682616D01*
X89357252Y-98680722D01*
X89359214Y-98680332D01*
X89360485Y-98681645D01*
G37*
G36*
X117300485Y-98681645D02*
G01*
X117303135Y-98690381D01*
X117308817Y-98701013D01*
X117316463Y-98710330D01*
X117325780Y-98717977D01*
X117336411Y-98723660D01*
X117347998Y-98727175D01*
X117353964Y-98728060D01*
X117442441Y-98736774D01*
X117442826Y-98736850D01*
X117527349Y-98762489D01*
X117527711Y-98762639D01*
X117605603Y-98804274D01*
X117605929Y-98804492D01*
X117674202Y-98860521D01*
X117674479Y-98860798D01*
X117730508Y-98929071D01*
X117730726Y-98929397D01*
X117772361Y-99007289D01*
X117772511Y-99007651D01*
X117798150Y-99092175D01*
X117798226Y-99092560D01*
X117807190Y-99183571D01*
X117807200Y-99183767D01*
X117807200Y-99212400D01*
X117806200Y-99214132D01*
X117804200Y-99214132D01*
X117803210Y-99212596D01*
X117793957Y-99118644D01*
X117766607Y-99028486D01*
X117722196Y-98945398D01*
X117662429Y-98872571D01*
X117589602Y-98812804D01*
X117506514Y-98768393D01*
X117416356Y-98741043D01*
X117322506Y-98731800D01*
X117308034Y-98731800D01*
X117306072Y-98730190D01*
X117296609Y-98682616D01*
X117297252Y-98680722D01*
X117299214Y-98680332D01*
X117300485Y-98681645D01*
G37*
G36*
X152860485Y-98681645D02*
G01*
X152863135Y-98690381D01*
X152868817Y-98701013D01*
X152876463Y-98710330D01*
X152885780Y-98717977D01*
X152896411Y-98723660D01*
X152907998Y-98727175D01*
X152913964Y-98728060D01*
X153002441Y-98736774D01*
X153002826Y-98736850D01*
X153087349Y-98762489D01*
X153087711Y-98762639D01*
X153165603Y-98804274D01*
X153165929Y-98804492D01*
X153234202Y-98860521D01*
X153234479Y-98860798D01*
X153290508Y-98929071D01*
X153290726Y-98929397D01*
X153332361Y-99007289D01*
X153332511Y-99007651D01*
X153358150Y-99092175D01*
X153358226Y-99092560D01*
X153367190Y-99183571D01*
X153367200Y-99183767D01*
X153367200Y-99212400D01*
X153366200Y-99214132D01*
X153364200Y-99214132D01*
X153363210Y-99212596D01*
X153353957Y-99118644D01*
X153326607Y-99028486D01*
X153282196Y-98945398D01*
X153222429Y-98872571D01*
X153149602Y-98812804D01*
X153066514Y-98768393D01*
X152976356Y-98741043D01*
X152882506Y-98731800D01*
X152868034Y-98731800D01*
X152866072Y-98730190D01*
X152856609Y-98682616D01*
X152857252Y-98680722D01*
X152859214Y-98680332D01*
X152860485Y-98681645D01*
G37*
G36*
X107140485Y-98681645D02*
G01*
X107143135Y-98690381D01*
X107148817Y-98701013D01*
X107156463Y-98710330D01*
X107165780Y-98717977D01*
X107176411Y-98723660D01*
X107187998Y-98727175D01*
X107193964Y-98728060D01*
X107282441Y-98736774D01*
X107282826Y-98736850D01*
X107367349Y-98762489D01*
X107367711Y-98762639D01*
X107445603Y-98804274D01*
X107445929Y-98804492D01*
X107514202Y-98860521D01*
X107514479Y-98860798D01*
X107570508Y-98929071D01*
X107570726Y-98929397D01*
X107612361Y-99007289D01*
X107612511Y-99007651D01*
X107638150Y-99092175D01*
X107638226Y-99092560D01*
X107647190Y-99183571D01*
X107647200Y-99183767D01*
X107647200Y-99212400D01*
X107646200Y-99214132D01*
X107644200Y-99214132D01*
X107643210Y-99212596D01*
X107633957Y-99118644D01*
X107606607Y-99028486D01*
X107562196Y-98945398D01*
X107502429Y-98872571D01*
X107429602Y-98812804D01*
X107346514Y-98768393D01*
X107256356Y-98741043D01*
X107162506Y-98731800D01*
X107148034Y-98731800D01*
X107146072Y-98730190D01*
X107136609Y-98682616D01*
X107137252Y-98680722D01*
X107139214Y-98680332D01*
X107140485Y-98681645D01*
G37*
G36*
X109680485Y-98681645D02*
G01*
X109683135Y-98690381D01*
X109688817Y-98701013D01*
X109696463Y-98710330D01*
X109705780Y-98717977D01*
X109716411Y-98723660D01*
X109727998Y-98727175D01*
X109733964Y-98728060D01*
X109822441Y-98736774D01*
X109822826Y-98736850D01*
X109907349Y-98762489D01*
X109907711Y-98762639D01*
X109985603Y-98804274D01*
X109985929Y-98804492D01*
X110054202Y-98860521D01*
X110054479Y-98860798D01*
X110110508Y-98929071D01*
X110110726Y-98929397D01*
X110152361Y-99007289D01*
X110152511Y-99007651D01*
X110178150Y-99092175D01*
X110178226Y-99092560D01*
X110187190Y-99183571D01*
X110187200Y-99183767D01*
X110187200Y-99212400D01*
X110186200Y-99214132D01*
X110184200Y-99214132D01*
X110183210Y-99212596D01*
X110173957Y-99118644D01*
X110146607Y-99028486D01*
X110102196Y-98945398D01*
X110042429Y-98872571D01*
X109969602Y-98812804D01*
X109886514Y-98768393D01*
X109796356Y-98741043D01*
X109702506Y-98731800D01*
X109688034Y-98731800D01*
X109686072Y-98730190D01*
X109676609Y-98682616D01*
X109677252Y-98680722D01*
X109679214Y-98680332D01*
X109680485Y-98681645D01*
G37*
G36*
X137620485Y-98681645D02*
G01*
X137623135Y-98690381D01*
X137628817Y-98701013D01*
X137636463Y-98710330D01*
X137645780Y-98717977D01*
X137656411Y-98723660D01*
X137667998Y-98727175D01*
X137673964Y-98728060D01*
X137762441Y-98736774D01*
X137762826Y-98736850D01*
X137847349Y-98762489D01*
X137847711Y-98762639D01*
X137925603Y-98804274D01*
X137925929Y-98804492D01*
X137994202Y-98860521D01*
X137994479Y-98860798D01*
X138050508Y-98929071D01*
X138050726Y-98929397D01*
X138092361Y-99007289D01*
X138092511Y-99007651D01*
X138118150Y-99092175D01*
X138118226Y-99092560D01*
X138127190Y-99183571D01*
X138127200Y-99183767D01*
X138127200Y-99212400D01*
X138126200Y-99214132D01*
X138124200Y-99214132D01*
X138123210Y-99212596D01*
X138113957Y-99118644D01*
X138086607Y-99028486D01*
X138042196Y-98945398D01*
X137982429Y-98872571D01*
X137909602Y-98812804D01*
X137826514Y-98768393D01*
X137736356Y-98741043D01*
X137642506Y-98731800D01*
X137628034Y-98731800D01*
X137626072Y-98730190D01*
X137616609Y-98682616D01*
X137617252Y-98680722D01*
X137619214Y-98680332D01*
X137620485Y-98681645D01*
G37*
M02*
