G04 #@! TF.GenerationSoftware,KiCad,Pcbnew,(5.1.10-1-10_14)*
G04 #@! TF.CreationDate,2021-07-01T06:08:51-04:00*
G04 #@! TF.ProjectId,GW4190-SOJ,47573431-3930-42d5-934f-4a2e6b696361,2.0-SOJ*
G04 #@! TF.SameCoordinates,Original*
G04 #@! TF.FileFunction,Paste,Top*
G04 #@! TF.FilePolarity,Positive*
%FSLAX46Y46*%
G04 Gerber Fmt 4.6, Leading zero omitted, Abs format (unit mm)*
G04 Created by KiCad (PCBNEW (5.1.10-1-10_14)) date 2021-07-01 06:08:51*
%MOMM*%
%LPD*%
G01*
G04 APERTURE LIST*
G04 APERTURE END LIST*
G36*
G01*
X137297500Y-87986000D02*
X137022500Y-87986000D01*
G75*
G02*
X136885000Y-87848500I0J137500D01*
G01*
X136885000Y-85125500D01*
G75*
G02*
X137022500Y-84988000I137500J0D01*
G01*
X137297500Y-84988000D01*
G75*
G02*
X137435000Y-85125500I0J-137500D01*
G01*
X137435000Y-87848500D01*
G75*
G02*
X137297500Y-87986000I-137500J0D01*
G01*
G37*
G36*
G01*
X122057500Y-87986000D02*
X121782500Y-87986000D01*
G75*
G02*
X121645000Y-87848500I0J137500D01*
G01*
X121645000Y-85125500D01*
G75*
G02*
X121782500Y-84988000I137500J0D01*
G01*
X122057500Y-84988000D01*
G75*
G02*
X122195000Y-85125500I0J-137500D01*
G01*
X122195000Y-87848500D01*
G75*
G02*
X122057500Y-87986000I-137500J0D01*
G01*
G37*
G36*
G01*
X123327500Y-87986000D02*
X123052500Y-87986000D01*
G75*
G02*
X122915000Y-87848500I0J137500D01*
G01*
X122915000Y-85125500D01*
G75*
G02*
X123052500Y-84988000I137500J0D01*
G01*
X123327500Y-84988000D01*
G75*
G02*
X123465000Y-85125500I0J-137500D01*
G01*
X123465000Y-87848500D01*
G75*
G02*
X123327500Y-87986000I-137500J0D01*
G01*
G37*
G36*
G01*
X124597500Y-87986000D02*
X124322500Y-87986000D01*
G75*
G02*
X124185000Y-87848500I0J137500D01*
G01*
X124185000Y-85125500D01*
G75*
G02*
X124322500Y-84988000I137500J0D01*
G01*
X124597500Y-84988000D01*
G75*
G02*
X124735000Y-85125500I0J-137500D01*
G01*
X124735000Y-87848500D01*
G75*
G02*
X124597500Y-87986000I-137500J0D01*
G01*
G37*
G36*
G01*
X125867500Y-87986000D02*
X125592500Y-87986000D01*
G75*
G02*
X125455000Y-87848500I0J137500D01*
G01*
X125455000Y-85125500D01*
G75*
G02*
X125592500Y-84988000I137500J0D01*
G01*
X125867500Y-84988000D01*
G75*
G02*
X126005000Y-85125500I0J-137500D01*
G01*
X126005000Y-87848500D01*
G75*
G02*
X125867500Y-87986000I-137500J0D01*
G01*
G37*
G36*
G01*
X127137500Y-87986000D02*
X126862500Y-87986000D01*
G75*
G02*
X126725000Y-87848500I0J137500D01*
G01*
X126725000Y-85125500D01*
G75*
G02*
X126862500Y-84988000I137500J0D01*
G01*
X127137500Y-84988000D01*
G75*
G02*
X127275000Y-85125500I0J-137500D01*
G01*
X127275000Y-87848500D01*
G75*
G02*
X127137500Y-87986000I-137500J0D01*
G01*
G37*
G36*
G01*
X132217500Y-87986000D02*
X131942500Y-87986000D01*
G75*
G02*
X131805000Y-87848500I0J137500D01*
G01*
X131805000Y-85125500D01*
G75*
G02*
X131942500Y-84988000I137500J0D01*
G01*
X132217500Y-84988000D01*
G75*
G02*
X132355000Y-85125500I0J-137500D01*
G01*
X132355000Y-87848500D01*
G75*
G02*
X132217500Y-87986000I-137500J0D01*
G01*
G37*
G36*
G01*
X133487500Y-87986000D02*
X133212500Y-87986000D01*
G75*
G02*
X133075000Y-87848500I0J137500D01*
G01*
X133075000Y-85125500D01*
G75*
G02*
X133212500Y-84988000I137500J0D01*
G01*
X133487500Y-84988000D01*
G75*
G02*
X133625000Y-85125500I0J-137500D01*
G01*
X133625000Y-87848500D01*
G75*
G02*
X133487500Y-87986000I-137500J0D01*
G01*
G37*
G36*
G01*
X134757500Y-87986000D02*
X134482500Y-87986000D01*
G75*
G02*
X134345000Y-87848500I0J137500D01*
G01*
X134345000Y-85125500D01*
G75*
G02*
X134482500Y-84988000I137500J0D01*
G01*
X134757500Y-84988000D01*
G75*
G02*
X134895000Y-85125500I0J-137500D01*
G01*
X134895000Y-87848500D01*
G75*
G02*
X134757500Y-87986000I-137500J0D01*
G01*
G37*
G36*
G01*
X136027500Y-87986000D02*
X135752500Y-87986000D01*
G75*
G02*
X135615000Y-87848500I0J137500D01*
G01*
X135615000Y-85125500D01*
G75*
G02*
X135752500Y-84988000I137500J0D01*
G01*
X136027500Y-84988000D01*
G75*
G02*
X136165000Y-85125500I0J-137500D01*
G01*
X136165000Y-87848500D01*
G75*
G02*
X136027500Y-87986000I-137500J0D01*
G01*
G37*
G36*
G01*
X137297500Y-94336000D02*
X137022500Y-94336000D01*
G75*
G02*
X136885000Y-94198500I0J137500D01*
G01*
X136885000Y-91475500D01*
G75*
G02*
X137022500Y-91338000I137500J0D01*
G01*
X137297500Y-91338000D01*
G75*
G02*
X137435000Y-91475500I0J-137500D01*
G01*
X137435000Y-94198500D01*
G75*
G02*
X137297500Y-94336000I-137500J0D01*
G01*
G37*
G36*
G01*
X136027500Y-94336000D02*
X135752500Y-94336000D01*
G75*
G02*
X135615000Y-94198500I0J137500D01*
G01*
X135615000Y-91475500D01*
G75*
G02*
X135752500Y-91338000I137500J0D01*
G01*
X136027500Y-91338000D01*
G75*
G02*
X136165000Y-91475500I0J-137500D01*
G01*
X136165000Y-94198500D01*
G75*
G02*
X136027500Y-94336000I-137500J0D01*
G01*
G37*
G36*
G01*
X134757500Y-94336000D02*
X134482500Y-94336000D01*
G75*
G02*
X134345000Y-94198500I0J137500D01*
G01*
X134345000Y-91475500D01*
G75*
G02*
X134482500Y-91338000I137500J0D01*
G01*
X134757500Y-91338000D01*
G75*
G02*
X134895000Y-91475500I0J-137500D01*
G01*
X134895000Y-94198500D01*
G75*
G02*
X134757500Y-94336000I-137500J0D01*
G01*
G37*
G36*
G01*
X133487500Y-94336000D02*
X133212500Y-94336000D01*
G75*
G02*
X133075000Y-94198500I0J137500D01*
G01*
X133075000Y-91475500D01*
G75*
G02*
X133212500Y-91338000I137500J0D01*
G01*
X133487500Y-91338000D01*
G75*
G02*
X133625000Y-91475500I0J-137500D01*
G01*
X133625000Y-94198500D01*
G75*
G02*
X133487500Y-94336000I-137500J0D01*
G01*
G37*
G36*
G01*
X132217500Y-94336000D02*
X131942500Y-94336000D01*
G75*
G02*
X131805000Y-94198500I0J137500D01*
G01*
X131805000Y-91475500D01*
G75*
G02*
X131942500Y-91338000I137500J0D01*
G01*
X132217500Y-91338000D01*
G75*
G02*
X132355000Y-91475500I0J-137500D01*
G01*
X132355000Y-94198500D01*
G75*
G02*
X132217500Y-94336000I-137500J0D01*
G01*
G37*
G36*
G01*
X127137500Y-94336000D02*
X126862500Y-94336000D01*
G75*
G02*
X126725000Y-94198500I0J137500D01*
G01*
X126725000Y-91475500D01*
G75*
G02*
X126862500Y-91338000I137500J0D01*
G01*
X127137500Y-91338000D01*
G75*
G02*
X127275000Y-91475500I0J-137500D01*
G01*
X127275000Y-94198500D01*
G75*
G02*
X127137500Y-94336000I-137500J0D01*
G01*
G37*
G36*
G01*
X125867500Y-94336000D02*
X125592500Y-94336000D01*
G75*
G02*
X125455000Y-94198500I0J137500D01*
G01*
X125455000Y-91475500D01*
G75*
G02*
X125592500Y-91338000I137500J0D01*
G01*
X125867500Y-91338000D01*
G75*
G02*
X126005000Y-91475500I0J-137500D01*
G01*
X126005000Y-94198500D01*
G75*
G02*
X125867500Y-94336000I-137500J0D01*
G01*
G37*
G36*
G01*
X124597500Y-94336000D02*
X124322500Y-94336000D01*
G75*
G02*
X124185000Y-94198500I0J137500D01*
G01*
X124185000Y-91475500D01*
G75*
G02*
X124322500Y-91338000I137500J0D01*
G01*
X124597500Y-91338000D01*
G75*
G02*
X124735000Y-91475500I0J-137500D01*
G01*
X124735000Y-94198500D01*
G75*
G02*
X124597500Y-94336000I-137500J0D01*
G01*
G37*
G36*
G01*
X123327500Y-94336000D02*
X123052500Y-94336000D01*
G75*
G02*
X122915000Y-94198500I0J137500D01*
G01*
X122915000Y-91475500D01*
G75*
G02*
X123052500Y-91338000I137500J0D01*
G01*
X123327500Y-91338000D01*
G75*
G02*
X123465000Y-91475500I0J-137500D01*
G01*
X123465000Y-94198500D01*
G75*
G02*
X123327500Y-94336000I-137500J0D01*
G01*
G37*
G36*
G01*
X122057500Y-94336000D02*
X121782500Y-94336000D01*
G75*
G02*
X121645000Y-94198500I0J137500D01*
G01*
X121645000Y-91475500D01*
G75*
G02*
X121782500Y-91338000I137500J0D01*
G01*
X122057500Y-91338000D01*
G75*
G02*
X122195000Y-91475500I0J-137500D01*
G01*
X122195000Y-94198500D01*
G75*
G02*
X122057500Y-94336000I-137500J0D01*
G01*
G37*
G36*
G01*
X128407500Y-87986000D02*
X128132500Y-87986000D01*
G75*
G02*
X127995000Y-87848500I0J137500D01*
G01*
X127995000Y-85125500D01*
G75*
G02*
X128132500Y-84988000I137500J0D01*
G01*
X128407500Y-84988000D01*
G75*
G02*
X128545000Y-85125500I0J-137500D01*
G01*
X128545000Y-87848500D01*
G75*
G02*
X128407500Y-87986000I-137500J0D01*
G01*
G37*
G36*
G01*
X128407500Y-94336000D02*
X128132500Y-94336000D01*
G75*
G02*
X127995000Y-94198500I0J137500D01*
G01*
X127995000Y-91475500D01*
G75*
G02*
X128132500Y-91338000I137500J0D01*
G01*
X128407500Y-91338000D01*
G75*
G02*
X128545000Y-91475500I0J-137500D01*
G01*
X128545000Y-94198500D01*
G75*
G02*
X128407500Y-94336000I-137500J0D01*
G01*
G37*
G36*
G01*
X130947500Y-87986000D02*
X130672500Y-87986000D01*
G75*
G02*
X130535000Y-87848500I0J137500D01*
G01*
X130535000Y-85125500D01*
G75*
G02*
X130672500Y-84988000I137500J0D01*
G01*
X130947500Y-84988000D01*
G75*
G02*
X131085000Y-85125500I0J-137500D01*
G01*
X131085000Y-87848500D01*
G75*
G02*
X130947500Y-87986000I-137500J0D01*
G01*
G37*
G36*
G01*
X130947500Y-94336000D02*
X130672500Y-94336000D01*
G75*
G02*
X130535000Y-94198500I0J137500D01*
G01*
X130535000Y-91475500D01*
G75*
G02*
X130672500Y-91338000I137500J0D01*
G01*
X130947500Y-91338000D01*
G75*
G02*
X131085000Y-91475500I0J-137500D01*
G01*
X131085000Y-94198500D01*
G75*
G02*
X130947500Y-94336000I-137500J0D01*
G01*
G37*
G36*
G01*
X103007500Y-87986000D02*
X102732500Y-87986000D01*
G75*
G02*
X102595000Y-87848500I0J137500D01*
G01*
X102595000Y-85125500D01*
G75*
G02*
X102732500Y-84988000I137500J0D01*
G01*
X103007500Y-84988000D01*
G75*
G02*
X103145000Y-85125500I0J-137500D01*
G01*
X103145000Y-87848500D01*
G75*
G02*
X103007500Y-87986000I-137500J0D01*
G01*
G37*
G36*
G01*
X87767500Y-87986000D02*
X87492500Y-87986000D01*
G75*
G02*
X87355000Y-87848500I0J137500D01*
G01*
X87355000Y-85125500D01*
G75*
G02*
X87492500Y-84988000I137500J0D01*
G01*
X87767500Y-84988000D01*
G75*
G02*
X87905000Y-85125500I0J-137500D01*
G01*
X87905000Y-87848500D01*
G75*
G02*
X87767500Y-87986000I-137500J0D01*
G01*
G37*
G36*
G01*
X89037500Y-87986000D02*
X88762500Y-87986000D01*
G75*
G02*
X88625000Y-87848500I0J137500D01*
G01*
X88625000Y-85125500D01*
G75*
G02*
X88762500Y-84988000I137500J0D01*
G01*
X89037500Y-84988000D01*
G75*
G02*
X89175000Y-85125500I0J-137500D01*
G01*
X89175000Y-87848500D01*
G75*
G02*
X89037500Y-87986000I-137500J0D01*
G01*
G37*
G36*
G01*
X90307500Y-87986000D02*
X90032500Y-87986000D01*
G75*
G02*
X89895000Y-87848500I0J137500D01*
G01*
X89895000Y-85125500D01*
G75*
G02*
X90032500Y-84988000I137500J0D01*
G01*
X90307500Y-84988000D01*
G75*
G02*
X90445000Y-85125500I0J-137500D01*
G01*
X90445000Y-87848500D01*
G75*
G02*
X90307500Y-87986000I-137500J0D01*
G01*
G37*
G36*
G01*
X91577500Y-87986000D02*
X91302500Y-87986000D01*
G75*
G02*
X91165000Y-87848500I0J137500D01*
G01*
X91165000Y-85125500D01*
G75*
G02*
X91302500Y-84988000I137500J0D01*
G01*
X91577500Y-84988000D01*
G75*
G02*
X91715000Y-85125500I0J-137500D01*
G01*
X91715000Y-87848500D01*
G75*
G02*
X91577500Y-87986000I-137500J0D01*
G01*
G37*
G36*
G01*
X92847500Y-87986000D02*
X92572500Y-87986000D01*
G75*
G02*
X92435000Y-87848500I0J137500D01*
G01*
X92435000Y-85125500D01*
G75*
G02*
X92572500Y-84988000I137500J0D01*
G01*
X92847500Y-84988000D01*
G75*
G02*
X92985000Y-85125500I0J-137500D01*
G01*
X92985000Y-87848500D01*
G75*
G02*
X92847500Y-87986000I-137500J0D01*
G01*
G37*
G36*
G01*
X97927500Y-87986000D02*
X97652500Y-87986000D01*
G75*
G02*
X97515000Y-87848500I0J137500D01*
G01*
X97515000Y-85125500D01*
G75*
G02*
X97652500Y-84988000I137500J0D01*
G01*
X97927500Y-84988000D01*
G75*
G02*
X98065000Y-85125500I0J-137500D01*
G01*
X98065000Y-87848500D01*
G75*
G02*
X97927500Y-87986000I-137500J0D01*
G01*
G37*
G36*
G01*
X99197500Y-87986000D02*
X98922500Y-87986000D01*
G75*
G02*
X98785000Y-87848500I0J137500D01*
G01*
X98785000Y-85125500D01*
G75*
G02*
X98922500Y-84988000I137500J0D01*
G01*
X99197500Y-84988000D01*
G75*
G02*
X99335000Y-85125500I0J-137500D01*
G01*
X99335000Y-87848500D01*
G75*
G02*
X99197500Y-87986000I-137500J0D01*
G01*
G37*
G36*
G01*
X100467500Y-87986000D02*
X100192500Y-87986000D01*
G75*
G02*
X100055000Y-87848500I0J137500D01*
G01*
X100055000Y-85125500D01*
G75*
G02*
X100192500Y-84988000I137500J0D01*
G01*
X100467500Y-84988000D01*
G75*
G02*
X100605000Y-85125500I0J-137500D01*
G01*
X100605000Y-87848500D01*
G75*
G02*
X100467500Y-87986000I-137500J0D01*
G01*
G37*
G36*
G01*
X101737500Y-87986000D02*
X101462500Y-87986000D01*
G75*
G02*
X101325000Y-87848500I0J137500D01*
G01*
X101325000Y-85125500D01*
G75*
G02*
X101462500Y-84988000I137500J0D01*
G01*
X101737500Y-84988000D01*
G75*
G02*
X101875000Y-85125500I0J-137500D01*
G01*
X101875000Y-87848500D01*
G75*
G02*
X101737500Y-87986000I-137500J0D01*
G01*
G37*
G36*
G01*
X103007500Y-94336000D02*
X102732500Y-94336000D01*
G75*
G02*
X102595000Y-94198500I0J137500D01*
G01*
X102595000Y-91475500D01*
G75*
G02*
X102732500Y-91338000I137500J0D01*
G01*
X103007500Y-91338000D01*
G75*
G02*
X103145000Y-91475500I0J-137500D01*
G01*
X103145000Y-94198500D01*
G75*
G02*
X103007500Y-94336000I-137500J0D01*
G01*
G37*
G36*
G01*
X101737500Y-94336000D02*
X101462500Y-94336000D01*
G75*
G02*
X101325000Y-94198500I0J137500D01*
G01*
X101325000Y-91475500D01*
G75*
G02*
X101462500Y-91338000I137500J0D01*
G01*
X101737500Y-91338000D01*
G75*
G02*
X101875000Y-91475500I0J-137500D01*
G01*
X101875000Y-94198500D01*
G75*
G02*
X101737500Y-94336000I-137500J0D01*
G01*
G37*
G36*
G01*
X100467500Y-94336000D02*
X100192500Y-94336000D01*
G75*
G02*
X100055000Y-94198500I0J137500D01*
G01*
X100055000Y-91475500D01*
G75*
G02*
X100192500Y-91338000I137500J0D01*
G01*
X100467500Y-91338000D01*
G75*
G02*
X100605000Y-91475500I0J-137500D01*
G01*
X100605000Y-94198500D01*
G75*
G02*
X100467500Y-94336000I-137500J0D01*
G01*
G37*
G36*
G01*
X99197500Y-94336000D02*
X98922500Y-94336000D01*
G75*
G02*
X98785000Y-94198500I0J137500D01*
G01*
X98785000Y-91475500D01*
G75*
G02*
X98922500Y-91338000I137500J0D01*
G01*
X99197500Y-91338000D01*
G75*
G02*
X99335000Y-91475500I0J-137500D01*
G01*
X99335000Y-94198500D01*
G75*
G02*
X99197500Y-94336000I-137500J0D01*
G01*
G37*
G36*
G01*
X97927500Y-94336000D02*
X97652500Y-94336000D01*
G75*
G02*
X97515000Y-94198500I0J137500D01*
G01*
X97515000Y-91475500D01*
G75*
G02*
X97652500Y-91338000I137500J0D01*
G01*
X97927500Y-91338000D01*
G75*
G02*
X98065000Y-91475500I0J-137500D01*
G01*
X98065000Y-94198500D01*
G75*
G02*
X97927500Y-94336000I-137500J0D01*
G01*
G37*
G36*
G01*
X92847500Y-94336000D02*
X92572500Y-94336000D01*
G75*
G02*
X92435000Y-94198500I0J137500D01*
G01*
X92435000Y-91475500D01*
G75*
G02*
X92572500Y-91338000I137500J0D01*
G01*
X92847500Y-91338000D01*
G75*
G02*
X92985000Y-91475500I0J-137500D01*
G01*
X92985000Y-94198500D01*
G75*
G02*
X92847500Y-94336000I-137500J0D01*
G01*
G37*
G36*
G01*
X91577500Y-94336000D02*
X91302500Y-94336000D01*
G75*
G02*
X91165000Y-94198500I0J137500D01*
G01*
X91165000Y-91475500D01*
G75*
G02*
X91302500Y-91338000I137500J0D01*
G01*
X91577500Y-91338000D01*
G75*
G02*
X91715000Y-91475500I0J-137500D01*
G01*
X91715000Y-94198500D01*
G75*
G02*
X91577500Y-94336000I-137500J0D01*
G01*
G37*
G36*
G01*
X90307500Y-94336000D02*
X90032500Y-94336000D01*
G75*
G02*
X89895000Y-94198500I0J137500D01*
G01*
X89895000Y-91475500D01*
G75*
G02*
X90032500Y-91338000I137500J0D01*
G01*
X90307500Y-91338000D01*
G75*
G02*
X90445000Y-91475500I0J-137500D01*
G01*
X90445000Y-94198500D01*
G75*
G02*
X90307500Y-94336000I-137500J0D01*
G01*
G37*
G36*
G01*
X89037500Y-94336000D02*
X88762500Y-94336000D01*
G75*
G02*
X88625000Y-94198500I0J137500D01*
G01*
X88625000Y-91475500D01*
G75*
G02*
X88762500Y-91338000I137500J0D01*
G01*
X89037500Y-91338000D01*
G75*
G02*
X89175000Y-91475500I0J-137500D01*
G01*
X89175000Y-94198500D01*
G75*
G02*
X89037500Y-94336000I-137500J0D01*
G01*
G37*
G36*
G01*
X87767500Y-94336000D02*
X87492500Y-94336000D01*
G75*
G02*
X87355000Y-94198500I0J137500D01*
G01*
X87355000Y-91475500D01*
G75*
G02*
X87492500Y-91338000I137500J0D01*
G01*
X87767500Y-91338000D01*
G75*
G02*
X87905000Y-91475500I0J-137500D01*
G01*
X87905000Y-94198500D01*
G75*
G02*
X87767500Y-94336000I-137500J0D01*
G01*
G37*
G36*
G01*
X94117500Y-87986000D02*
X93842500Y-87986000D01*
G75*
G02*
X93705000Y-87848500I0J137500D01*
G01*
X93705000Y-85125500D01*
G75*
G02*
X93842500Y-84988000I137500J0D01*
G01*
X94117500Y-84988000D01*
G75*
G02*
X94255000Y-85125500I0J-137500D01*
G01*
X94255000Y-87848500D01*
G75*
G02*
X94117500Y-87986000I-137500J0D01*
G01*
G37*
G36*
G01*
X94117500Y-94336000D02*
X93842500Y-94336000D01*
G75*
G02*
X93705000Y-94198500I0J137500D01*
G01*
X93705000Y-91475500D01*
G75*
G02*
X93842500Y-91338000I137500J0D01*
G01*
X94117500Y-91338000D01*
G75*
G02*
X94255000Y-91475500I0J-137500D01*
G01*
X94255000Y-94198500D01*
G75*
G02*
X94117500Y-94336000I-137500J0D01*
G01*
G37*
G36*
G01*
X96657500Y-87986000D02*
X96382500Y-87986000D01*
G75*
G02*
X96245000Y-87848500I0J137500D01*
G01*
X96245000Y-85125500D01*
G75*
G02*
X96382500Y-84988000I137500J0D01*
G01*
X96657500Y-84988000D01*
G75*
G02*
X96795000Y-85125500I0J-137500D01*
G01*
X96795000Y-87848500D01*
G75*
G02*
X96657500Y-87986000I-137500J0D01*
G01*
G37*
G36*
G01*
X96657500Y-94336000D02*
X96382500Y-94336000D01*
G75*
G02*
X96245000Y-94198500I0J137500D01*
G01*
X96245000Y-91475500D01*
G75*
G02*
X96382500Y-91338000I137500J0D01*
G01*
X96657500Y-91338000D01*
G75*
G02*
X96795000Y-91475500I0J-137500D01*
G01*
X96795000Y-94198500D01*
G75*
G02*
X96657500Y-94336000I-137500J0D01*
G01*
G37*
G36*
G01*
X84665000Y-93607000D02*
X85515000Y-93607000D01*
G75*
G02*
X85765000Y-93857000I0J-250000D01*
G01*
X85765000Y-94357000D01*
G75*
G02*
X85515000Y-94607000I-250000J0D01*
G01*
X84665000Y-94607000D01*
G75*
G02*
X84415000Y-94357000I0J250000D01*
G01*
X84415000Y-93857000D01*
G75*
G02*
X84665000Y-93607000I250000J0D01*
G01*
G37*
G36*
G01*
X84665000Y-91907000D02*
X85515000Y-91907000D01*
G75*
G02*
X85765000Y-92157000I0J-250000D01*
G01*
X85765000Y-92657000D01*
G75*
G02*
X85515000Y-92907000I-250000J0D01*
G01*
X84665000Y-92907000D01*
G75*
G02*
X84415000Y-92657000I0J250000D01*
G01*
X84415000Y-92157000D01*
G75*
G02*
X84665000Y-91907000I250000J0D01*
G01*
G37*
G36*
G01*
X104985000Y-93607000D02*
X105835000Y-93607000D01*
G75*
G02*
X106085000Y-93857000I0J-250000D01*
G01*
X106085000Y-94357000D01*
G75*
G02*
X105835000Y-94607000I-250000J0D01*
G01*
X104985000Y-94607000D01*
G75*
G02*
X104735000Y-94357000I0J250000D01*
G01*
X104735000Y-93857000D01*
G75*
G02*
X104985000Y-93607000I250000J0D01*
G01*
G37*
G36*
G01*
X104985000Y-91907000D02*
X105835000Y-91907000D01*
G75*
G02*
X106085000Y-92157000I0J-250000D01*
G01*
X106085000Y-92657000D01*
G75*
G02*
X105835000Y-92907000I-250000J0D01*
G01*
X104985000Y-92907000D01*
G75*
G02*
X104735000Y-92657000I0J250000D01*
G01*
X104735000Y-92157000D01*
G75*
G02*
X104985000Y-91907000I250000J0D01*
G01*
G37*
G36*
G01*
X118955000Y-93607000D02*
X119805000Y-93607000D01*
G75*
G02*
X120055000Y-93857000I0J-250000D01*
G01*
X120055000Y-94357000D01*
G75*
G02*
X119805000Y-94607000I-250000J0D01*
G01*
X118955000Y-94607000D01*
G75*
G02*
X118705000Y-94357000I0J250000D01*
G01*
X118705000Y-93857000D01*
G75*
G02*
X118955000Y-93607000I250000J0D01*
G01*
G37*
G36*
G01*
X118955000Y-91907000D02*
X119805000Y-91907000D01*
G75*
G02*
X120055000Y-92157000I0J-250000D01*
G01*
X120055000Y-92657000D01*
G75*
G02*
X119805000Y-92907000I-250000J0D01*
G01*
X118955000Y-92907000D01*
G75*
G02*
X118705000Y-92657000I0J250000D01*
G01*
X118705000Y-92157000D01*
G75*
G02*
X118955000Y-91907000I250000J0D01*
G01*
G37*
G36*
G01*
X157905000Y-92907000D02*
X157055000Y-92907000D01*
G75*
G02*
X156805000Y-92657000I0J250000D01*
G01*
X156805000Y-92157000D01*
G75*
G02*
X157055000Y-91907000I250000J0D01*
G01*
X157905000Y-91907000D01*
G75*
G02*
X158155000Y-92157000I0J-250000D01*
G01*
X158155000Y-92657000D01*
G75*
G02*
X157905000Y-92907000I-250000J0D01*
G01*
G37*
G36*
G01*
X157905000Y-94607000D02*
X157055000Y-94607000D01*
G75*
G02*
X156805000Y-94357000I0J250000D01*
G01*
X156805000Y-93857000D01*
G75*
G02*
X157055000Y-93607000I250000J0D01*
G01*
X157905000Y-93607000D01*
G75*
G02*
X158155000Y-93857000I0J-250000D01*
G01*
X158155000Y-94357000D01*
G75*
G02*
X157905000Y-94607000I-250000J0D01*
G01*
G37*
G36*
G01*
X139275000Y-93607000D02*
X140125000Y-93607000D01*
G75*
G02*
X140375000Y-93857000I0J-250000D01*
G01*
X140375000Y-94357000D01*
G75*
G02*
X140125000Y-94607000I-250000J0D01*
G01*
X139275000Y-94607000D01*
G75*
G02*
X139025000Y-94357000I0J250000D01*
G01*
X139025000Y-93857000D01*
G75*
G02*
X139275000Y-93607000I250000J0D01*
G01*
G37*
G36*
G01*
X139275000Y-91907000D02*
X140125000Y-91907000D01*
G75*
G02*
X140375000Y-92157000I0J-250000D01*
G01*
X140375000Y-92657000D01*
G75*
G02*
X140125000Y-92907000I-250000J0D01*
G01*
X139275000Y-92907000D01*
G75*
G02*
X139025000Y-92657000I0J250000D01*
G01*
X139025000Y-92157000D01*
G75*
G02*
X139275000Y-91907000I250000J0D01*
G01*
G37*
G36*
G01*
X82150000Y-86025000D02*
X82150000Y-86975000D01*
G75*
G02*
X81950000Y-87175000I-200000J0D01*
G01*
X81550000Y-87175000D01*
G75*
G02*
X81350000Y-86975000I0J200000D01*
G01*
X81350000Y-86025000D01*
G75*
G02*
X81550000Y-85825000I200000J0D01*
G01*
X81950000Y-85825000D01*
G75*
G02*
X82150000Y-86025000I0J-200000D01*
G01*
G37*
G36*
G01*
X84050000Y-86025000D02*
X84050000Y-86975000D01*
G75*
G02*
X83850000Y-87175000I-200000J0D01*
G01*
X83450000Y-87175000D01*
G75*
G02*
X83250000Y-86975000I0J200000D01*
G01*
X83250000Y-86025000D01*
G75*
G02*
X83450000Y-85825000I200000J0D01*
G01*
X83850000Y-85825000D01*
G75*
G02*
X84050000Y-86025000I0J-200000D01*
G01*
G37*
G36*
G01*
X81350000Y-84975000D02*
X81350000Y-84025000D01*
G75*
G02*
X81550000Y-83825000I200000J0D01*
G01*
X81950000Y-83825000D01*
G75*
G02*
X82150000Y-84025000I0J-200000D01*
G01*
X82150000Y-84975000D01*
G75*
G02*
X81950000Y-85175000I-200000J0D01*
G01*
X81550000Y-85175000D01*
G75*
G02*
X81350000Y-84975000I0J200000D01*
G01*
G37*
G36*
G01*
X83250000Y-84975000D02*
X83250000Y-84025000D01*
G75*
G02*
X83450000Y-83825000I200000J0D01*
G01*
X83850000Y-83825000D01*
G75*
G02*
X84050000Y-84025000I0J-200000D01*
G01*
X84050000Y-84975000D01*
G75*
G02*
X83850000Y-85175000I-200000J0D01*
G01*
X83450000Y-85175000D01*
G75*
G02*
X83250000Y-84975000I0J200000D01*
G01*
G37*
M02*
