G04 #@! TF.GenerationSoftware,KiCad,Pcbnew,(5.1.10-1-10_14)*
G04 #@! TF.CreationDate,2021-07-02T01:32:44-04:00*
G04 #@! TF.ProjectId,GW4192-SOP,47573431-3932-42d5-934f-502e6b696361,1.0-SOP*
G04 #@! TF.SameCoordinates,Original*
G04 #@! TF.FileFunction,Paste,Top*
G04 #@! TF.FilePolarity,Positive*
%FSLAX46Y46*%
G04 Gerber Fmt 4.6, Leading zero omitted, Abs format (unit mm)*
G04 Created by KiCad (PCBNEW (5.1.10-1-10_14)) date 2021-07-02 01:32:44*
%MOMM*%
%LPD*%
G01*
G04 APERTURE LIST*
G04 APERTURE END LIST*
G36*
G01*
X86497500Y-85001500D02*
X86222500Y-85001500D01*
G75*
G02*
X86085000Y-84864000I0J137500D01*
G01*
X86085000Y-83284000D01*
G75*
G02*
X86222500Y-83146500I137500J0D01*
G01*
X86497500Y-83146500D01*
G75*
G02*
X86635000Y-83284000I0J-137500D01*
G01*
X86635000Y-84864000D01*
G75*
G02*
X86497500Y-85001500I-137500J0D01*
G01*
G37*
G36*
G01*
X87767500Y-85001500D02*
X87492500Y-85001500D01*
G75*
G02*
X87355000Y-84864000I0J137500D01*
G01*
X87355000Y-83284000D01*
G75*
G02*
X87492500Y-83146500I137500J0D01*
G01*
X87767500Y-83146500D01*
G75*
G02*
X87905000Y-83284000I0J-137500D01*
G01*
X87905000Y-84864000D01*
G75*
G02*
X87767500Y-85001500I-137500J0D01*
G01*
G37*
G36*
G01*
X89037500Y-85001500D02*
X88762500Y-85001500D01*
G75*
G02*
X88625000Y-84864000I0J137500D01*
G01*
X88625000Y-83284000D01*
G75*
G02*
X88762500Y-83146500I137500J0D01*
G01*
X89037500Y-83146500D01*
G75*
G02*
X89175000Y-83284000I0J-137500D01*
G01*
X89175000Y-84864000D01*
G75*
G02*
X89037500Y-85001500I-137500J0D01*
G01*
G37*
G36*
G01*
X90307500Y-85001500D02*
X90032500Y-85001500D01*
G75*
G02*
X89895000Y-84864000I0J137500D01*
G01*
X89895000Y-83284000D01*
G75*
G02*
X90032500Y-83146500I137500J0D01*
G01*
X90307500Y-83146500D01*
G75*
G02*
X90445000Y-83284000I0J-137500D01*
G01*
X90445000Y-84864000D01*
G75*
G02*
X90307500Y-85001500I-137500J0D01*
G01*
G37*
G36*
G01*
X91577500Y-85001500D02*
X91302500Y-85001500D01*
G75*
G02*
X91165000Y-84864000I0J137500D01*
G01*
X91165000Y-83284000D01*
G75*
G02*
X91302500Y-83146500I137500J0D01*
G01*
X91577500Y-83146500D01*
G75*
G02*
X91715000Y-83284000I0J-137500D01*
G01*
X91715000Y-84864000D01*
G75*
G02*
X91577500Y-85001500I-137500J0D01*
G01*
G37*
G36*
G01*
X92847500Y-85001500D02*
X92572500Y-85001500D01*
G75*
G02*
X92435000Y-84864000I0J137500D01*
G01*
X92435000Y-83284000D01*
G75*
G02*
X92572500Y-83146500I137500J0D01*
G01*
X92847500Y-83146500D01*
G75*
G02*
X92985000Y-83284000I0J-137500D01*
G01*
X92985000Y-84864000D01*
G75*
G02*
X92847500Y-85001500I-137500J0D01*
G01*
G37*
G36*
G01*
X94117500Y-85001500D02*
X93842500Y-85001500D01*
G75*
G02*
X93705000Y-84864000I0J137500D01*
G01*
X93705000Y-83284000D01*
G75*
G02*
X93842500Y-83146500I137500J0D01*
G01*
X94117500Y-83146500D01*
G75*
G02*
X94255000Y-83284000I0J-137500D01*
G01*
X94255000Y-84864000D01*
G75*
G02*
X94117500Y-85001500I-137500J0D01*
G01*
G37*
G36*
G01*
X95387500Y-85001500D02*
X95112500Y-85001500D01*
G75*
G02*
X94975000Y-84864000I0J137500D01*
G01*
X94975000Y-83284000D01*
G75*
G02*
X95112500Y-83146500I137500J0D01*
G01*
X95387500Y-83146500D01*
G75*
G02*
X95525000Y-83284000I0J-137500D01*
G01*
X95525000Y-84864000D01*
G75*
G02*
X95387500Y-85001500I-137500J0D01*
G01*
G37*
G36*
G01*
X96657500Y-85001500D02*
X96382500Y-85001500D01*
G75*
G02*
X96245000Y-84864000I0J137500D01*
G01*
X96245000Y-83284000D01*
G75*
G02*
X96382500Y-83146500I137500J0D01*
G01*
X96657500Y-83146500D01*
G75*
G02*
X96795000Y-83284000I0J-137500D01*
G01*
X96795000Y-84864000D01*
G75*
G02*
X96657500Y-85001500I-137500J0D01*
G01*
G37*
G36*
G01*
X97927500Y-85001500D02*
X97652500Y-85001500D01*
G75*
G02*
X97515000Y-84864000I0J137500D01*
G01*
X97515000Y-83284000D01*
G75*
G02*
X97652500Y-83146500I137500J0D01*
G01*
X97927500Y-83146500D01*
G75*
G02*
X98065000Y-83284000I0J-137500D01*
G01*
X98065000Y-84864000D01*
G75*
G02*
X97927500Y-85001500I-137500J0D01*
G01*
G37*
G36*
G01*
X99197500Y-85001500D02*
X98922500Y-85001500D01*
G75*
G02*
X98785000Y-84864000I0J137500D01*
G01*
X98785000Y-83284000D01*
G75*
G02*
X98922500Y-83146500I137500J0D01*
G01*
X99197500Y-83146500D01*
G75*
G02*
X99335000Y-83284000I0J-137500D01*
G01*
X99335000Y-84864000D01*
G75*
G02*
X99197500Y-85001500I-137500J0D01*
G01*
G37*
G36*
G01*
X100467500Y-85001500D02*
X100192500Y-85001500D01*
G75*
G02*
X100055000Y-84864000I0J137500D01*
G01*
X100055000Y-83284000D01*
G75*
G02*
X100192500Y-83146500I137500J0D01*
G01*
X100467500Y-83146500D01*
G75*
G02*
X100605000Y-83284000I0J-137500D01*
G01*
X100605000Y-84864000D01*
G75*
G02*
X100467500Y-85001500I-137500J0D01*
G01*
G37*
G36*
G01*
X101737500Y-85001500D02*
X101462500Y-85001500D01*
G75*
G02*
X101325000Y-84864000I0J137500D01*
G01*
X101325000Y-83284000D01*
G75*
G02*
X101462500Y-83146500I137500J0D01*
G01*
X101737500Y-83146500D01*
G75*
G02*
X101875000Y-83284000I0J-137500D01*
G01*
X101875000Y-84864000D01*
G75*
G02*
X101737500Y-85001500I-137500J0D01*
G01*
G37*
G36*
G01*
X103007500Y-85001500D02*
X102732500Y-85001500D01*
G75*
G02*
X102595000Y-84864000I0J137500D01*
G01*
X102595000Y-83284000D01*
G75*
G02*
X102732500Y-83146500I137500J0D01*
G01*
X103007500Y-83146500D01*
G75*
G02*
X103145000Y-83284000I0J-137500D01*
G01*
X103145000Y-84864000D01*
G75*
G02*
X103007500Y-85001500I-137500J0D01*
G01*
G37*
G36*
G01*
X104277500Y-85001500D02*
X104002500Y-85001500D01*
G75*
G02*
X103865000Y-84864000I0J137500D01*
G01*
X103865000Y-83284000D01*
G75*
G02*
X104002500Y-83146500I137500J0D01*
G01*
X104277500Y-83146500D01*
G75*
G02*
X104415000Y-83284000I0J-137500D01*
G01*
X104415000Y-84864000D01*
G75*
G02*
X104277500Y-85001500I-137500J0D01*
G01*
G37*
G36*
G01*
X105547500Y-85001500D02*
X105272500Y-85001500D01*
G75*
G02*
X105135000Y-84864000I0J137500D01*
G01*
X105135000Y-83284000D01*
G75*
G02*
X105272500Y-83146500I137500J0D01*
G01*
X105547500Y-83146500D01*
G75*
G02*
X105685000Y-83284000I0J-137500D01*
G01*
X105685000Y-84864000D01*
G75*
G02*
X105547500Y-85001500I-137500J0D01*
G01*
G37*
G36*
G01*
X105547500Y-96939500D02*
X105272500Y-96939500D01*
G75*
G02*
X105135000Y-96802000I0J137500D01*
G01*
X105135000Y-95222000D01*
G75*
G02*
X105272500Y-95084500I137500J0D01*
G01*
X105547500Y-95084500D01*
G75*
G02*
X105685000Y-95222000I0J-137500D01*
G01*
X105685000Y-96802000D01*
G75*
G02*
X105547500Y-96939500I-137500J0D01*
G01*
G37*
G36*
G01*
X104277500Y-96939500D02*
X104002500Y-96939500D01*
G75*
G02*
X103865000Y-96802000I0J137500D01*
G01*
X103865000Y-95222000D01*
G75*
G02*
X104002500Y-95084500I137500J0D01*
G01*
X104277500Y-95084500D01*
G75*
G02*
X104415000Y-95222000I0J-137500D01*
G01*
X104415000Y-96802000D01*
G75*
G02*
X104277500Y-96939500I-137500J0D01*
G01*
G37*
G36*
G01*
X103007500Y-96939500D02*
X102732500Y-96939500D01*
G75*
G02*
X102595000Y-96802000I0J137500D01*
G01*
X102595000Y-95222000D01*
G75*
G02*
X102732500Y-95084500I137500J0D01*
G01*
X103007500Y-95084500D01*
G75*
G02*
X103145000Y-95222000I0J-137500D01*
G01*
X103145000Y-96802000D01*
G75*
G02*
X103007500Y-96939500I-137500J0D01*
G01*
G37*
G36*
G01*
X101737500Y-96939500D02*
X101462500Y-96939500D01*
G75*
G02*
X101325000Y-96802000I0J137500D01*
G01*
X101325000Y-95222000D01*
G75*
G02*
X101462500Y-95084500I137500J0D01*
G01*
X101737500Y-95084500D01*
G75*
G02*
X101875000Y-95222000I0J-137500D01*
G01*
X101875000Y-96802000D01*
G75*
G02*
X101737500Y-96939500I-137500J0D01*
G01*
G37*
G36*
G01*
X100467500Y-96939500D02*
X100192500Y-96939500D01*
G75*
G02*
X100055000Y-96802000I0J137500D01*
G01*
X100055000Y-95222000D01*
G75*
G02*
X100192500Y-95084500I137500J0D01*
G01*
X100467500Y-95084500D01*
G75*
G02*
X100605000Y-95222000I0J-137500D01*
G01*
X100605000Y-96802000D01*
G75*
G02*
X100467500Y-96939500I-137500J0D01*
G01*
G37*
G36*
G01*
X99197500Y-96939500D02*
X98922500Y-96939500D01*
G75*
G02*
X98785000Y-96802000I0J137500D01*
G01*
X98785000Y-95222000D01*
G75*
G02*
X98922500Y-95084500I137500J0D01*
G01*
X99197500Y-95084500D01*
G75*
G02*
X99335000Y-95222000I0J-137500D01*
G01*
X99335000Y-96802000D01*
G75*
G02*
X99197500Y-96939500I-137500J0D01*
G01*
G37*
G36*
G01*
X97927500Y-96939500D02*
X97652500Y-96939500D01*
G75*
G02*
X97515000Y-96802000I0J137500D01*
G01*
X97515000Y-95222000D01*
G75*
G02*
X97652500Y-95084500I137500J0D01*
G01*
X97927500Y-95084500D01*
G75*
G02*
X98065000Y-95222000I0J-137500D01*
G01*
X98065000Y-96802000D01*
G75*
G02*
X97927500Y-96939500I-137500J0D01*
G01*
G37*
G36*
G01*
X96657500Y-96939500D02*
X96382500Y-96939500D01*
G75*
G02*
X96245000Y-96802000I0J137500D01*
G01*
X96245000Y-95222000D01*
G75*
G02*
X96382500Y-95084500I137500J0D01*
G01*
X96657500Y-95084500D01*
G75*
G02*
X96795000Y-95222000I0J-137500D01*
G01*
X96795000Y-96802000D01*
G75*
G02*
X96657500Y-96939500I-137500J0D01*
G01*
G37*
G36*
G01*
X95387500Y-96939500D02*
X95112500Y-96939500D01*
G75*
G02*
X94975000Y-96802000I0J137500D01*
G01*
X94975000Y-95222000D01*
G75*
G02*
X95112500Y-95084500I137500J0D01*
G01*
X95387500Y-95084500D01*
G75*
G02*
X95525000Y-95222000I0J-137500D01*
G01*
X95525000Y-96802000D01*
G75*
G02*
X95387500Y-96939500I-137500J0D01*
G01*
G37*
G36*
G01*
X94117500Y-96939500D02*
X93842500Y-96939500D01*
G75*
G02*
X93705000Y-96802000I0J137500D01*
G01*
X93705000Y-95222000D01*
G75*
G02*
X93842500Y-95084500I137500J0D01*
G01*
X94117500Y-95084500D01*
G75*
G02*
X94255000Y-95222000I0J-137500D01*
G01*
X94255000Y-96802000D01*
G75*
G02*
X94117500Y-96939500I-137500J0D01*
G01*
G37*
G36*
G01*
X92847500Y-96939500D02*
X92572500Y-96939500D01*
G75*
G02*
X92435000Y-96802000I0J137500D01*
G01*
X92435000Y-95222000D01*
G75*
G02*
X92572500Y-95084500I137500J0D01*
G01*
X92847500Y-95084500D01*
G75*
G02*
X92985000Y-95222000I0J-137500D01*
G01*
X92985000Y-96802000D01*
G75*
G02*
X92847500Y-96939500I-137500J0D01*
G01*
G37*
G36*
G01*
X91577500Y-96939500D02*
X91302500Y-96939500D01*
G75*
G02*
X91165000Y-96802000I0J137500D01*
G01*
X91165000Y-95222000D01*
G75*
G02*
X91302500Y-95084500I137500J0D01*
G01*
X91577500Y-95084500D01*
G75*
G02*
X91715000Y-95222000I0J-137500D01*
G01*
X91715000Y-96802000D01*
G75*
G02*
X91577500Y-96939500I-137500J0D01*
G01*
G37*
G36*
G01*
X90307500Y-96939500D02*
X90032500Y-96939500D01*
G75*
G02*
X89895000Y-96802000I0J137500D01*
G01*
X89895000Y-95222000D01*
G75*
G02*
X90032500Y-95084500I137500J0D01*
G01*
X90307500Y-95084500D01*
G75*
G02*
X90445000Y-95222000I0J-137500D01*
G01*
X90445000Y-96802000D01*
G75*
G02*
X90307500Y-96939500I-137500J0D01*
G01*
G37*
G36*
G01*
X89037500Y-96939500D02*
X88762500Y-96939500D01*
G75*
G02*
X88625000Y-96802000I0J137500D01*
G01*
X88625000Y-95222000D01*
G75*
G02*
X88762500Y-95084500I137500J0D01*
G01*
X89037500Y-95084500D01*
G75*
G02*
X89175000Y-95222000I0J-137500D01*
G01*
X89175000Y-96802000D01*
G75*
G02*
X89037500Y-96939500I-137500J0D01*
G01*
G37*
G36*
G01*
X87767500Y-96939500D02*
X87492500Y-96939500D01*
G75*
G02*
X87355000Y-96802000I0J137500D01*
G01*
X87355000Y-95222000D01*
G75*
G02*
X87492500Y-95084500I137500J0D01*
G01*
X87767500Y-95084500D01*
G75*
G02*
X87905000Y-95222000I0J-137500D01*
G01*
X87905000Y-96802000D01*
G75*
G02*
X87767500Y-96939500I-137500J0D01*
G01*
G37*
G36*
G01*
X86497500Y-96939500D02*
X86222500Y-96939500D01*
G75*
G02*
X86085000Y-96802000I0J137500D01*
G01*
X86085000Y-95222000D01*
G75*
G02*
X86222500Y-95084500I137500J0D01*
G01*
X86497500Y-95084500D01*
G75*
G02*
X86635000Y-95222000I0J-137500D01*
G01*
X86635000Y-96802000D01*
G75*
G02*
X86497500Y-96939500I-137500J0D01*
G01*
G37*
G36*
G01*
X120787500Y-85001500D02*
X120512500Y-85001500D01*
G75*
G02*
X120375000Y-84864000I0J137500D01*
G01*
X120375000Y-83284000D01*
G75*
G02*
X120512500Y-83146500I137500J0D01*
G01*
X120787500Y-83146500D01*
G75*
G02*
X120925000Y-83284000I0J-137500D01*
G01*
X120925000Y-84864000D01*
G75*
G02*
X120787500Y-85001500I-137500J0D01*
G01*
G37*
G36*
G01*
X122057500Y-85001500D02*
X121782500Y-85001500D01*
G75*
G02*
X121645000Y-84864000I0J137500D01*
G01*
X121645000Y-83284000D01*
G75*
G02*
X121782500Y-83146500I137500J0D01*
G01*
X122057500Y-83146500D01*
G75*
G02*
X122195000Y-83284000I0J-137500D01*
G01*
X122195000Y-84864000D01*
G75*
G02*
X122057500Y-85001500I-137500J0D01*
G01*
G37*
G36*
G01*
X123327500Y-85001500D02*
X123052500Y-85001500D01*
G75*
G02*
X122915000Y-84864000I0J137500D01*
G01*
X122915000Y-83284000D01*
G75*
G02*
X123052500Y-83146500I137500J0D01*
G01*
X123327500Y-83146500D01*
G75*
G02*
X123465000Y-83284000I0J-137500D01*
G01*
X123465000Y-84864000D01*
G75*
G02*
X123327500Y-85001500I-137500J0D01*
G01*
G37*
G36*
G01*
X124597500Y-85001500D02*
X124322500Y-85001500D01*
G75*
G02*
X124185000Y-84864000I0J137500D01*
G01*
X124185000Y-83284000D01*
G75*
G02*
X124322500Y-83146500I137500J0D01*
G01*
X124597500Y-83146500D01*
G75*
G02*
X124735000Y-83284000I0J-137500D01*
G01*
X124735000Y-84864000D01*
G75*
G02*
X124597500Y-85001500I-137500J0D01*
G01*
G37*
G36*
G01*
X125867500Y-85001500D02*
X125592500Y-85001500D01*
G75*
G02*
X125455000Y-84864000I0J137500D01*
G01*
X125455000Y-83284000D01*
G75*
G02*
X125592500Y-83146500I137500J0D01*
G01*
X125867500Y-83146500D01*
G75*
G02*
X126005000Y-83284000I0J-137500D01*
G01*
X126005000Y-84864000D01*
G75*
G02*
X125867500Y-85001500I-137500J0D01*
G01*
G37*
G36*
G01*
X127137500Y-85001500D02*
X126862500Y-85001500D01*
G75*
G02*
X126725000Y-84864000I0J137500D01*
G01*
X126725000Y-83284000D01*
G75*
G02*
X126862500Y-83146500I137500J0D01*
G01*
X127137500Y-83146500D01*
G75*
G02*
X127275000Y-83284000I0J-137500D01*
G01*
X127275000Y-84864000D01*
G75*
G02*
X127137500Y-85001500I-137500J0D01*
G01*
G37*
G36*
G01*
X128407500Y-85001500D02*
X128132500Y-85001500D01*
G75*
G02*
X127995000Y-84864000I0J137500D01*
G01*
X127995000Y-83284000D01*
G75*
G02*
X128132500Y-83146500I137500J0D01*
G01*
X128407500Y-83146500D01*
G75*
G02*
X128545000Y-83284000I0J-137500D01*
G01*
X128545000Y-84864000D01*
G75*
G02*
X128407500Y-85001500I-137500J0D01*
G01*
G37*
G36*
G01*
X129677500Y-85001500D02*
X129402500Y-85001500D01*
G75*
G02*
X129265000Y-84864000I0J137500D01*
G01*
X129265000Y-83284000D01*
G75*
G02*
X129402500Y-83146500I137500J0D01*
G01*
X129677500Y-83146500D01*
G75*
G02*
X129815000Y-83284000I0J-137500D01*
G01*
X129815000Y-84864000D01*
G75*
G02*
X129677500Y-85001500I-137500J0D01*
G01*
G37*
G36*
G01*
X130947500Y-85001500D02*
X130672500Y-85001500D01*
G75*
G02*
X130535000Y-84864000I0J137500D01*
G01*
X130535000Y-83284000D01*
G75*
G02*
X130672500Y-83146500I137500J0D01*
G01*
X130947500Y-83146500D01*
G75*
G02*
X131085000Y-83284000I0J-137500D01*
G01*
X131085000Y-84864000D01*
G75*
G02*
X130947500Y-85001500I-137500J0D01*
G01*
G37*
G36*
G01*
X132217500Y-85001500D02*
X131942500Y-85001500D01*
G75*
G02*
X131805000Y-84864000I0J137500D01*
G01*
X131805000Y-83284000D01*
G75*
G02*
X131942500Y-83146500I137500J0D01*
G01*
X132217500Y-83146500D01*
G75*
G02*
X132355000Y-83284000I0J-137500D01*
G01*
X132355000Y-84864000D01*
G75*
G02*
X132217500Y-85001500I-137500J0D01*
G01*
G37*
G36*
G01*
X133487500Y-85001500D02*
X133212500Y-85001500D01*
G75*
G02*
X133075000Y-84864000I0J137500D01*
G01*
X133075000Y-83284000D01*
G75*
G02*
X133212500Y-83146500I137500J0D01*
G01*
X133487500Y-83146500D01*
G75*
G02*
X133625000Y-83284000I0J-137500D01*
G01*
X133625000Y-84864000D01*
G75*
G02*
X133487500Y-85001500I-137500J0D01*
G01*
G37*
G36*
G01*
X134757500Y-85001500D02*
X134482500Y-85001500D01*
G75*
G02*
X134345000Y-84864000I0J137500D01*
G01*
X134345000Y-83284000D01*
G75*
G02*
X134482500Y-83146500I137500J0D01*
G01*
X134757500Y-83146500D01*
G75*
G02*
X134895000Y-83284000I0J-137500D01*
G01*
X134895000Y-84864000D01*
G75*
G02*
X134757500Y-85001500I-137500J0D01*
G01*
G37*
G36*
G01*
X136027500Y-85001500D02*
X135752500Y-85001500D01*
G75*
G02*
X135615000Y-84864000I0J137500D01*
G01*
X135615000Y-83284000D01*
G75*
G02*
X135752500Y-83146500I137500J0D01*
G01*
X136027500Y-83146500D01*
G75*
G02*
X136165000Y-83284000I0J-137500D01*
G01*
X136165000Y-84864000D01*
G75*
G02*
X136027500Y-85001500I-137500J0D01*
G01*
G37*
G36*
G01*
X137297500Y-85001500D02*
X137022500Y-85001500D01*
G75*
G02*
X136885000Y-84864000I0J137500D01*
G01*
X136885000Y-83284000D01*
G75*
G02*
X137022500Y-83146500I137500J0D01*
G01*
X137297500Y-83146500D01*
G75*
G02*
X137435000Y-83284000I0J-137500D01*
G01*
X137435000Y-84864000D01*
G75*
G02*
X137297500Y-85001500I-137500J0D01*
G01*
G37*
G36*
G01*
X138567500Y-85001500D02*
X138292500Y-85001500D01*
G75*
G02*
X138155000Y-84864000I0J137500D01*
G01*
X138155000Y-83284000D01*
G75*
G02*
X138292500Y-83146500I137500J0D01*
G01*
X138567500Y-83146500D01*
G75*
G02*
X138705000Y-83284000I0J-137500D01*
G01*
X138705000Y-84864000D01*
G75*
G02*
X138567500Y-85001500I-137500J0D01*
G01*
G37*
G36*
G01*
X139837500Y-85001500D02*
X139562500Y-85001500D01*
G75*
G02*
X139425000Y-84864000I0J137500D01*
G01*
X139425000Y-83284000D01*
G75*
G02*
X139562500Y-83146500I137500J0D01*
G01*
X139837500Y-83146500D01*
G75*
G02*
X139975000Y-83284000I0J-137500D01*
G01*
X139975000Y-84864000D01*
G75*
G02*
X139837500Y-85001500I-137500J0D01*
G01*
G37*
G36*
G01*
X139837500Y-96939500D02*
X139562500Y-96939500D01*
G75*
G02*
X139425000Y-96802000I0J137500D01*
G01*
X139425000Y-95222000D01*
G75*
G02*
X139562500Y-95084500I137500J0D01*
G01*
X139837500Y-95084500D01*
G75*
G02*
X139975000Y-95222000I0J-137500D01*
G01*
X139975000Y-96802000D01*
G75*
G02*
X139837500Y-96939500I-137500J0D01*
G01*
G37*
G36*
G01*
X138567500Y-96939500D02*
X138292500Y-96939500D01*
G75*
G02*
X138155000Y-96802000I0J137500D01*
G01*
X138155000Y-95222000D01*
G75*
G02*
X138292500Y-95084500I137500J0D01*
G01*
X138567500Y-95084500D01*
G75*
G02*
X138705000Y-95222000I0J-137500D01*
G01*
X138705000Y-96802000D01*
G75*
G02*
X138567500Y-96939500I-137500J0D01*
G01*
G37*
G36*
G01*
X137297500Y-96939500D02*
X137022500Y-96939500D01*
G75*
G02*
X136885000Y-96802000I0J137500D01*
G01*
X136885000Y-95222000D01*
G75*
G02*
X137022500Y-95084500I137500J0D01*
G01*
X137297500Y-95084500D01*
G75*
G02*
X137435000Y-95222000I0J-137500D01*
G01*
X137435000Y-96802000D01*
G75*
G02*
X137297500Y-96939500I-137500J0D01*
G01*
G37*
G36*
G01*
X136027500Y-96939500D02*
X135752500Y-96939500D01*
G75*
G02*
X135615000Y-96802000I0J137500D01*
G01*
X135615000Y-95222000D01*
G75*
G02*
X135752500Y-95084500I137500J0D01*
G01*
X136027500Y-95084500D01*
G75*
G02*
X136165000Y-95222000I0J-137500D01*
G01*
X136165000Y-96802000D01*
G75*
G02*
X136027500Y-96939500I-137500J0D01*
G01*
G37*
G36*
G01*
X134757500Y-96939500D02*
X134482500Y-96939500D01*
G75*
G02*
X134345000Y-96802000I0J137500D01*
G01*
X134345000Y-95222000D01*
G75*
G02*
X134482500Y-95084500I137500J0D01*
G01*
X134757500Y-95084500D01*
G75*
G02*
X134895000Y-95222000I0J-137500D01*
G01*
X134895000Y-96802000D01*
G75*
G02*
X134757500Y-96939500I-137500J0D01*
G01*
G37*
G36*
G01*
X133487500Y-96939500D02*
X133212500Y-96939500D01*
G75*
G02*
X133075000Y-96802000I0J137500D01*
G01*
X133075000Y-95222000D01*
G75*
G02*
X133212500Y-95084500I137500J0D01*
G01*
X133487500Y-95084500D01*
G75*
G02*
X133625000Y-95222000I0J-137500D01*
G01*
X133625000Y-96802000D01*
G75*
G02*
X133487500Y-96939500I-137500J0D01*
G01*
G37*
G36*
G01*
X132217500Y-96939500D02*
X131942500Y-96939500D01*
G75*
G02*
X131805000Y-96802000I0J137500D01*
G01*
X131805000Y-95222000D01*
G75*
G02*
X131942500Y-95084500I137500J0D01*
G01*
X132217500Y-95084500D01*
G75*
G02*
X132355000Y-95222000I0J-137500D01*
G01*
X132355000Y-96802000D01*
G75*
G02*
X132217500Y-96939500I-137500J0D01*
G01*
G37*
G36*
G01*
X130947500Y-96939500D02*
X130672500Y-96939500D01*
G75*
G02*
X130535000Y-96802000I0J137500D01*
G01*
X130535000Y-95222000D01*
G75*
G02*
X130672500Y-95084500I137500J0D01*
G01*
X130947500Y-95084500D01*
G75*
G02*
X131085000Y-95222000I0J-137500D01*
G01*
X131085000Y-96802000D01*
G75*
G02*
X130947500Y-96939500I-137500J0D01*
G01*
G37*
G36*
G01*
X129677500Y-96939500D02*
X129402500Y-96939500D01*
G75*
G02*
X129265000Y-96802000I0J137500D01*
G01*
X129265000Y-95222000D01*
G75*
G02*
X129402500Y-95084500I137500J0D01*
G01*
X129677500Y-95084500D01*
G75*
G02*
X129815000Y-95222000I0J-137500D01*
G01*
X129815000Y-96802000D01*
G75*
G02*
X129677500Y-96939500I-137500J0D01*
G01*
G37*
G36*
G01*
X128407500Y-96939500D02*
X128132500Y-96939500D01*
G75*
G02*
X127995000Y-96802000I0J137500D01*
G01*
X127995000Y-95222000D01*
G75*
G02*
X128132500Y-95084500I137500J0D01*
G01*
X128407500Y-95084500D01*
G75*
G02*
X128545000Y-95222000I0J-137500D01*
G01*
X128545000Y-96802000D01*
G75*
G02*
X128407500Y-96939500I-137500J0D01*
G01*
G37*
G36*
G01*
X127137500Y-96939500D02*
X126862500Y-96939500D01*
G75*
G02*
X126725000Y-96802000I0J137500D01*
G01*
X126725000Y-95222000D01*
G75*
G02*
X126862500Y-95084500I137500J0D01*
G01*
X127137500Y-95084500D01*
G75*
G02*
X127275000Y-95222000I0J-137500D01*
G01*
X127275000Y-96802000D01*
G75*
G02*
X127137500Y-96939500I-137500J0D01*
G01*
G37*
G36*
G01*
X125867500Y-96939500D02*
X125592500Y-96939500D01*
G75*
G02*
X125455000Y-96802000I0J137500D01*
G01*
X125455000Y-95222000D01*
G75*
G02*
X125592500Y-95084500I137500J0D01*
G01*
X125867500Y-95084500D01*
G75*
G02*
X126005000Y-95222000I0J-137500D01*
G01*
X126005000Y-96802000D01*
G75*
G02*
X125867500Y-96939500I-137500J0D01*
G01*
G37*
G36*
G01*
X124597500Y-96939500D02*
X124322500Y-96939500D01*
G75*
G02*
X124185000Y-96802000I0J137500D01*
G01*
X124185000Y-95222000D01*
G75*
G02*
X124322500Y-95084500I137500J0D01*
G01*
X124597500Y-95084500D01*
G75*
G02*
X124735000Y-95222000I0J-137500D01*
G01*
X124735000Y-96802000D01*
G75*
G02*
X124597500Y-96939500I-137500J0D01*
G01*
G37*
G36*
G01*
X123327500Y-96939500D02*
X123052500Y-96939500D01*
G75*
G02*
X122915000Y-96802000I0J137500D01*
G01*
X122915000Y-95222000D01*
G75*
G02*
X123052500Y-95084500I137500J0D01*
G01*
X123327500Y-95084500D01*
G75*
G02*
X123465000Y-95222000I0J-137500D01*
G01*
X123465000Y-96802000D01*
G75*
G02*
X123327500Y-96939500I-137500J0D01*
G01*
G37*
G36*
G01*
X122057500Y-96939500D02*
X121782500Y-96939500D01*
G75*
G02*
X121645000Y-96802000I0J137500D01*
G01*
X121645000Y-95222000D01*
G75*
G02*
X121782500Y-95084500I137500J0D01*
G01*
X122057500Y-95084500D01*
G75*
G02*
X122195000Y-95222000I0J-137500D01*
G01*
X122195000Y-96802000D01*
G75*
G02*
X122057500Y-96939500I-137500J0D01*
G01*
G37*
G36*
G01*
X120787500Y-96939500D02*
X120512500Y-96939500D01*
G75*
G02*
X120375000Y-96802000I0J137500D01*
G01*
X120375000Y-95222000D01*
G75*
G02*
X120512500Y-95084500I137500J0D01*
G01*
X120787500Y-95084500D01*
G75*
G02*
X120925000Y-95222000I0J-137500D01*
G01*
X120925000Y-96802000D01*
G75*
G02*
X120787500Y-96939500I-137500J0D01*
G01*
G37*
G36*
G01*
X118535000Y-94875500D02*
X117685000Y-94875500D01*
G75*
G02*
X117435000Y-94625500I0J250000D01*
G01*
X117435000Y-94125500D01*
G75*
G02*
X117685000Y-93875500I250000J0D01*
G01*
X118535000Y-93875500D01*
G75*
G02*
X118785000Y-94125500I0J-250000D01*
G01*
X118785000Y-94625500D01*
G75*
G02*
X118535000Y-94875500I-250000J0D01*
G01*
G37*
G36*
G01*
X118535000Y-96575500D02*
X117685000Y-96575500D01*
G75*
G02*
X117435000Y-96325500I0J250000D01*
G01*
X117435000Y-95825500D01*
G75*
G02*
X117685000Y-95575500I250000J0D01*
G01*
X118535000Y-95575500D01*
G75*
G02*
X118785000Y-95825500I0J-250000D01*
G01*
X118785000Y-96325500D01*
G75*
G02*
X118535000Y-96575500I-250000J0D01*
G01*
G37*
G36*
G01*
X108375000Y-94875500D02*
X107525000Y-94875500D01*
G75*
G02*
X107275000Y-94625500I0J250000D01*
G01*
X107275000Y-94125500D01*
G75*
G02*
X107525000Y-93875500I250000J0D01*
G01*
X108375000Y-93875500D01*
G75*
G02*
X108625000Y-94125500I0J-250000D01*
G01*
X108625000Y-94625500D01*
G75*
G02*
X108375000Y-94875500I-250000J0D01*
G01*
G37*
G36*
G01*
X108375000Y-96575500D02*
X107525000Y-96575500D01*
G75*
G02*
X107275000Y-96325500I0J250000D01*
G01*
X107275000Y-95825500D01*
G75*
G02*
X107525000Y-95575500I250000J0D01*
G01*
X108375000Y-95575500D01*
G75*
G02*
X108625000Y-95825500I0J-250000D01*
G01*
X108625000Y-96325500D01*
G75*
G02*
X108375000Y-96575500I-250000J0D01*
G01*
G37*
G36*
G01*
X142665000Y-94875500D02*
X141815000Y-94875500D01*
G75*
G02*
X141565000Y-94625500I0J250000D01*
G01*
X141565000Y-94125500D01*
G75*
G02*
X141815000Y-93875500I250000J0D01*
G01*
X142665000Y-93875500D01*
G75*
G02*
X142915000Y-94125500I0J-250000D01*
G01*
X142915000Y-94625500D01*
G75*
G02*
X142665000Y-94875500I-250000J0D01*
G01*
G37*
G36*
G01*
X142665000Y-96575500D02*
X141815000Y-96575500D01*
G75*
G02*
X141565000Y-96325500I0J250000D01*
G01*
X141565000Y-95825500D01*
G75*
G02*
X141815000Y-95575500I250000J0D01*
G01*
X142665000Y-95575500D01*
G75*
G02*
X142915000Y-95825500I0J-250000D01*
G01*
X142915000Y-96325500D01*
G75*
G02*
X142665000Y-96575500I-250000J0D01*
G01*
G37*
G36*
G01*
X84245000Y-94875500D02*
X83395000Y-94875500D01*
G75*
G02*
X83145000Y-94625500I0J250000D01*
G01*
X83145000Y-94125500D01*
G75*
G02*
X83395000Y-93875500I250000J0D01*
G01*
X84245000Y-93875500D01*
G75*
G02*
X84495000Y-94125500I0J-250000D01*
G01*
X84495000Y-94625500D01*
G75*
G02*
X84245000Y-94875500I-250000J0D01*
G01*
G37*
G36*
G01*
X84245000Y-96575500D02*
X83395000Y-96575500D01*
G75*
G02*
X83145000Y-96325500I0J250000D01*
G01*
X83145000Y-95825500D01*
G75*
G02*
X83395000Y-95575500I250000J0D01*
G01*
X84245000Y-95575500D01*
G75*
G02*
X84495000Y-95825500I0J-250000D01*
G01*
X84495000Y-96325500D01*
G75*
G02*
X84245000Y-96575500I-250000J0D01*
G01*
G37*
G36*
G01*
X157905000Y-94875500D02*
X157055000Y-94875500D01*
G75*
G02*
X156805000Y-94625500I0J250000D01*
G01*
X156805000Y-94125500D01*
G75*
G02*
X157055000Y-93875500I250000J0D01*
G01*
X157905000Y-93875500D01*
G75*
G02*
X158155000Y-94125500I0J-250000D01*
G01*
X158155000Y-94625500D01*
G75*
G02*
X157905000Y-94875500I-250000J0D01*
G01*
G37*
G36*
G01*
X157905000Y-96575500D02*
X157055000Y-96575500D01*
G75*
G02*
X156805000Y-96325500I0J250000D01*
G01*
X156805000Y-95825500D01*
G75*
G02*
X157055000Y-95575500I250000J0D01*
G01*
X157905000Y-95575500D01*
G75*
G02*
X158155000Y-95825500I0J-250000D01*
G01*
X158155000Y-96325500D01*
G75*
G02*
X157905000Y-96575500I-250000J0D01*
G01*
G37*
G36*
G01*
X82127000Y-86012000D02*
X82127000Y-86962000D01*
G75*
G02*
X81927000Y-87162000I-200000J0D01*
G01*
X81527000Y-87162000D01*
G75*
G02*
X81327000Y-86962000I0J200000D01*
G01*
X81327000Y-86012000D01*
G75*
G02*
X81527000Y-85812000I200000J0D01*
G01*
X81927000Y-85812000D01*
G75*
G02*
X82127000Y-86012000I0J-200000D01*
G01*
G37*
G36*
G01*
X84027000Y-86012000D02*
X84027000Y-86962000D01*
G75*
G02*
X83827000Y-87162000I-200000J0D01*
G01*
X83427000Y-87162000D01*
G75*
G02*
X83227000Y-86962000I0J200000D01*
G01*
X83227000Y-86012000D01*
G75*
G02*
X83427000Y-85812000I200000J0D01*
G01*
X83827000Y-85812000D01*
G75*
G02*
X84027000Y-86012000I0J-200000D01*
G01*
G37*
G36*
G01*
X83227000Y-84930000D02*
X83227000Y-83980000D01*
G75*
G02*
X83427000Y-83780000I200000J0D01*
G01*
X83827000Y-83780000D01*
G75*
G02*
X84027000Y-83980000I0J-200000D01*
G01*
X84027000Y-84930000D01*
G75*
G02*
X83827000Y-85130000I-200000J0D01*
G01*
X83427000Y-85130000D01*
G75*
G02*
X83227000Y-84930000I0J200000D01*
G01*
G37*
G36*
G01*
X81327000Y-84930000D02*
X81327000Y-83980000D01*
G75*
G02*
X81527000Y-83780000I200000J0D01*
G01*
X81927000Y-83780000D01*
G75*
G02*
X82127000Y-83980000I0J-200000D01*
G01*
X82127000Y-84930000D01*
G75*
G02*
X81927000Y-85130000I-200000J0D01*
G01*
X81527000Y-85130000D01*
G75*
G02*
X81327000Y-84930000I0J200000D01*
G01*
G37*
M02*
