M48
; DRILL file {KiCad (5.1.10-1-10_14)} date Friday, July 02, 2021 at 01:32:45 AM
; FORMAT={-:-/ absolute / inch / decimal}
; #@! TF.CreationDate,2021-07-02T01:32:45-04:00
; #@! TF.GenerationSoftware,Kicad,Pcbnew,(5.1.10-1-10_14)
FMAT,2
INCH
T1C0.0079
T2C0.0118
T3C0.0157
T4C0.0454
%
G90
G05
T1
X3.035Y-3.29
X3.035Y-3.49
X3.035Y-3.69
X3.11Y-3.215
X3.115Y-3.73
X3.115Y-3.83
X3.2175Y-3.27
X3.29Y-3.215
X3.2925Y-3.27
X3.2925Y-3.46
X3.45Y-3.4425
X3.49Y-3.215
X3.5Y-3.4425
X3.69Y-3.215
X3.7Y-3.2575
X3.75Y-3.2575
X3.85Y-3.4425
X3.85Y-3.6475
X3.89Y-3.215
X3.8975Y-3.5475
X3.9Y-3.495
X3.9Y-3.6475
X3.9425Y-3.4825
X3.95Y-3.4425
X3.95Y-3.6475
X3.9525Y-3.5475
X3.9925Y-3.5625
X4.0Y-3.4425
X4.03Y-3.58
X4.0375Y-3.4575
X4.075Y-3.59
X4.08Y-3.445
X4.09Y-3.215
X4.12Y-3.6575
X4.1225Y-3.5975
X4.15Y-3.8325
X4.17Y-3.61
X4.29Y-3.215
X4.45Y-3.215
X4.61Y-3.215
X4.805Y-3.215
X4.825Y-3.25
X4.875Y-3.25
X5.0Y-3.215
X5.05Y-3.2575
X5.1Y-3.2575
X5.15Y-3.6475
X5.15Y-3.8725
X5.2Y-3.4425
X5.2Y-3.6475
X5.21Y-3.215
X5.215Y-3.585
X5.25Y-3.4425
X5.25Y-3.6475
X5.25Y-3.87
X5.2575Y-3.5725
X5.3Y-3.47
X5.3Y-3.56
X5.3Y-3.6475
X5.3425Y-3.4825
X5.3425Y-3.5475
X5.385Y-3.495
X5.4Y-3.4425
X5.41Y-3.215
X5.55Y-3.87
X5.6Y-3.8175
X5.61Y-3.215
X5.68Y-3.82
X5.81Y-3.215
X6.01Y-3.215
X6.21Y-3.215
X6.37Y-3.965
X6.39Y-3.215
X6.465Y-3.29
X6.465Y-3.49
X6.465Y-3.69
X6.465Y-3.87
T2
X3.255Y-3.7225
X3.255Y-3.775
X3.3Y-3.6775
X3.3Y-3.82
X3.345Y-3.7225
X3.37Y-3.7825
X3.3707Y-3.3082
X3.4Y-3.255
X3.4Y-3.365
X3.4Y-3.725
X3.4Y-3.835
X4.15Y-3.25
X4.15Y-3.365
X4.15Y-3.725
X4.18Y-3.3075
X4.18Y-3.7825
X4.205Y-3.7225
X4.25Y-3.6775
X4.295Y-3.7225
X4.295Y-3.775
X4.605Y-3.7225
X4.605Y-3.775
X4.65Y-3.6775
X4.65Y-3.82
X4.695Y-3.7225
X4.72Y-3.3075
X4.72Y-3.7825
X4.75Y-3.25
X4.75Y-3.365
X4.75Y-3.835
X5.5Y-3.255
X5.5Y-3.365
X5.5Y-3.835
X5.53Y-3.3075
X5.53Y-3.7825
X5.555Y-3.7225
X5.6Y-3.6775
X5.645Y-3.7225
X5.645Y-3.775
X6.155Y-3.7225
X6.155Y-3.775
X6.2Y-3.6775
X6.2Y-3.82
X6.245Y-3.7225
X6.245Y-3.775
T3
X3.3Y-3.89
X3.4Y-3.89
X3.5Y-3.89
X3.6Y-3.89
X3.7Y-3.89
X3.8Y-3.89
X3.9Y-3.89
X4.0Y-3.89
X4.1Y-3.89
X4.2Y-3.89
X4.3Y-3.89
X4.4Y-3.89
X4.5Y-3.89
X4.6Y-3.89
X4.7Y-3.89
X4.8Y-3.89
X4.9Y-3.89
X5.0Y-3.89
X5.1Y-3.89
X5.2Y-3.89
X5.3Y-3.89
X5.4Y-3.89
X5.5Y-3.89
X5.6Y-3.89
X5.7Y-3.89
X5.8Y-3.89
X5.9Y-3.89
X6.0Y-3.89
X6.1Y-3.89
X6.2Y-3.89
T4
X3.06Y-3.24
X3.14Y-3.94
X6.44Y-3.24
X6.44Y-3.94
T0
M30
