G04 #@! TF.GenerationSoftware,KiCad,Pcbnew,(5.1.10-1-10_14)*
G04 #@! TF.CreationDate,2021-06-21T04:55:04-04:00*
G04 #@! TF.ProjectId,GW4192-SOP,47573431-3932-42d5-934f-502e6b696361,1.0-SOP*
G04 #@! TF.SameCoordinates,Original*
G04 #@! TF.FileFunction,Legend,Top*
G04 #@! TF.FilePolarity,Positive*
%FSLAX46Y46*%
G04 Gerber Fmt 4.6, Leading zero omitted, Abs format (unit mm)*
G04 Created by KiCad (PCBNEW (5.1.10-1-10_14)) date 2021-06-21 04:55:04*
%MOMM*%
%LPD*%
G01*
G04 APERTURE LIST*
%ADD10C,0.120000*%
%ADD11C,0.152400*%
%ADD12C,0.203200*%
%ADD13C,1.448000*%
%ADD14C,0.952400*%
G04 APERTURE END LIST*
D10*
X106242500Y-90043000D02*
X106242500Y-85025500D01*
X106242500Y-90043000D02*
X106242500Y-95060500D01*
X85527500Y-90043000D02*
X85527500Y-85025500D01*
X85527500Y-90043000D02*
X85527500Y-96983000D01*
X140532500Y-90043000D02*
X140532500Y-85025500D01*
X140532500Y-90043000D02*
X140532500Y-95060500D01*
X119817500Y-90043000D02*
X119817500Y-85025500D01*
X119817500Y-90043000D02*
X119817500Y-96983000D01*
D11*
X117310000Y-95631900D02*
X117310000Y-94819100D01*
X118910000Y-95631900D02*
X118910000Y-94819100D01*
X107150000Y-95631900D02*
X107150000Y-94819100D01*
X108750000Y-95631900D02*
X108750000Y-94819100D01*
X141440000Y-95631900D02*
X141440000Y-94819100D01*
X143040000Y-95631900D02*
X143040000Y-94819100D01*
X83020000Y-95631900D02*
X83020000Y-94819100D01*
X84620000Y-95631900D02*
X84620000Y-94819100D01*
X156680000Y-95631900D02*
X156680000Y-94819100D01*
X158280000Y-95631900D02*
X158280000Y-94819100D01*
X83083400Y-87287000D02*
X82270600Y-87287000D01*
X83083400Y-85687000D02*
X82270600Y-85687000D01*
X82270600Y-83655000D02*
X83083400Y-83655000D01*
X82270600Y-85255000D02*
X83083400Y-85255000D01*
D12*
X95265723Y-89597895D02*
X95265723Y-90255876D01*
X95304428Y-90333285D01*
X95343133Y-90371990D01*
X95420542Y-90410695D01*
X95575361Y-90410695D01*
X95652771Y-90371990D01*
X95691476Y-90333285D01*
X95730180Y-90255876D01*
X95730180Y-89597895D01*
X96542980Y-90410695D02*
X96078523Y-90410695D01*
X96310752Y-90410695D02*
X96310752Y-89597895D01*
X96233342Y-89714009D01*
X96155933Y-89791419D01*
X96078523Y-89830123D01*
X129555723Y-89597895D02*
X129555723Y-90255876D01*
X129594428Y-90333285D01*
X129633133Y-90371990D01*
X129710542Y-90410695D01*
X129865361Y-90410695D01*
X129942771Y-90371990D01*
X129981476Y-90333285D01*
X130020180Y-90255876D01*
X130020180Y-89597895D01*
X130368523Y-89675304D02*
X130407228Y-89636600D01*
X130484638Y-89597895D01*
X130678161Y-89597895D01*
X130755571Y-89636600D01*
X130794276Y-89675304D01*
X130832980Y-89752714D01*
X130832980Y-89830123D01*
X130794276Y-89946238D01*
X130329819Y-90410695D01*
X130832980Y-90410695D01*
%LPC*%
G36*
G01*
X86535000Y-85076500D02*
X86185000Y-85076500D01*
G75*
G02*
X86010000Y-84901500I0J175000D01*
G01*
X86010000Y-83246500D01*
G75*
G02*
X86185000Y-83071500I175000J0D01*
G01*
X86535000Y-83071500D01*
G75*
G02*
X86710000Y-83246500I0J-175000D01*
G01*
X86710000Y-84901500D01*
G75*
G02*
X86535000Y-85076500I-175000J0D01*
G01*
G37*
G36*
G01*
X87805000Y-85076500D02*
X87455000Y-85076500D01*
G75*
G02*
X87280000Y-84901500I0J175000D01*
G01*
X87280000Y-83246500D01*
G75*
G02*
X87455000Y-83071500I175000J0D01*
G01*
X87805000Y-83071500D01*
G75*
G02*
X87980000Y-83246500I0J-175000D01*
G01*
X87980000Y-84901500D01*
G75*
G02*
X87805000Y-85076500I-175000J0D01*
G01*
G37*
G36*
G01*
X89075000Y-85076500D02*
X88725000Y-85076500D01*
G75*
G02*
X88550000Y-84901500I0J175000D01*
G01*
X88550000Y-83246500D01*
G75*
G02*
X88725000Y-83071500I175000J0D01*
G01*
X89075000Y-83071500D01*
G75*
G02*
X89250000Y-83246500I0J-175000D01*
G01*
X89250000Y-84901500D01*
G75*
G02*
X89075000Y-85076500I-175000J0D01*
G01*
G37*
G36*
G01*
X90345000Y-85076500D02*
X89995000Y-85076500D01*
G75*
G02*
X89820000Y-84901500I0J175000D01*
G01*
X89820000Y-83246500D01*
G75*
G02*
X89995000Y-83071500I175000J0D01*
G01*
X90345000Y-83071500D01*
G75*
G02*
X90520000Y-83246500I0J-175000D01*
G01*
X90520000Y-84901500D01*
G75*
G02*
X90345000Y-85076500I-175000J0D01*
G01*
G37*
G36*
G01*
X91615000Y-85076500D02*
X91265000Y-85076500D01*
G75*
G02*
X91090000Y-84901500I0J175000D01*
G01*
X91090000Y-83246500D01*
G75*
G02*
X91265000Y-83071500I175000J0D01*
G01*
X91615000Y-83071500D01*
G75*
G02*
X91790000Y-83246500I0J-175000D01*
G01*
X91790000Y-84901500D01*
G75*
G02*
X91615000Y-85076500I-175000J0D01*
G01*
G37*
G36*
G01*
X92885000Y-85076500D02*
X92535000Y-85076500D01*
G75*
G02*
X92360000Y-84901500I0J175000D01*
G01*
X92360000Y-83246500D01*
G75*
G02*
X92535000Y-83071500I175000J0D01*
G01*
X92885000Y-83071500D01*
G75*
G02*
X93060000Y-83246500I0J-175000D01*
G01*
X93060000Y-84901500D01*
G75*
G02*
X92885000Y-85076500I-175000J0D01*
G01*
G37*
G36*
G01*
X94155000Y-85076500D02*
X93805000Y-85076500D01*
G75*
G02*
X93630000Y-84901500I0J175000D01*
G01*
X93630000Y-83246500D01*
G75*
G02*
X93805000Y-83071500I175000J0D01*
G01*
X94155000Y-83071500D01*
G75*
G02*
X94330000Y-83246500I0J-175000D01*
G01*
X94330000Y-84901500D01*
G75*
G02*
X94155000Y-85076500I-175000J0D01*
G01*
G37*
G36*
G01*
X95425000Y-85076500D02*
X95075000Y-85076500D01*
G75*
G02*
X94900000Y-84901500I0J175000D01*
G01*
X94900000Y-83246500D01*
G75*
G02*
X95075000Y-83071500I175000J0D01*
G01*
X95425000Y-83071500D01*
G75*
G02*
X95600000Y-83246500I0J-175000D01*
G01*
X95600000Y-84901500D01*
G75*
G02*
X95425000Y-85076500I-175000J0D01*
G01*
G37*
G36*
G01*
X96695000Y-85076500D02*
X96345000Y-85076500D01*
G75*
G02*
X96170000Y-84901500I0J175000D01*
G01*
X96170000Y-83246500D01*
G75*
G02*
X96345000Y-83071500I175000J0D01*
G01*
X96695000Y-83071500D01*
G75*
G02*
X96870000Y-83246500I0J-175000D01*
G01*
X96870000Y-84901500D01*
G75*
G02*
X96695000Y-85076500I-175000J0D01*
G01*
G37*
G36*
G01*
X97965000Y-85076500D02*
X97615000Y-85076500D01*
G75*
G02*
X97440000Y-84901500I0J175000D01*
G01*
X97440000Y-83246500D01*
G75*
G02*
X97615000Y-83071500I175000J0D01*
G01*
X97965000Y-83071500D01*
G75*
G02*
X98140000Y-83246500I0J-175000D01*
G01*
X98140000Y-84901500D01*
G75*
G02*
X97965000Y-85076500I-175000J0D01*
G01*
G37*
G36*
G01*
X99235000Y-85076500D02*
X98885000Y-85076500D01*
G75*
G02*
X98710000Y-84901500I0J175000D01*
G01*
X98710000Y-83246500D01*
G75*
G02*
X98885000Y-83071500I175000J0D01*
G01*
X99235000Y-83071500D01*
G75*
G02*
X99410000Y-83246500I0J-175000D01*
G01*
X99410000Y-84901500D01*
G75*
G02*
X99235000Y-85076500I-175000J0D01*
G01*
G37*
G36*
G01*
X100505000Y-85076500D02*
X100155000Y-85076500D01*
G75*
G02*
X99980000Y-84901500I0J175000D01*
G01*
X99980000Y-83246500D01*
G75*
G02*
X100155000Y-83071500I175000J0D01*
G01*
X100505000Y-83071500D01*
G75*
G02*
X100680000Y-83246500I0J-175000D01*
G01*
X100680000Y-84901500D01*
G75*
G02*
X100505000Y-85076500I-175000J0D01*
G01*
G37*
G36*
G01*
X101775000Y-85076500D02*
X101425000Y-85076500D01*
G75*
G02*
X101250000Y-84901500I0J175000D01*
G01*
X101250000Y-83246500D01*
G75*
G02*
X101425000Y-83071500I175000J0D01*
G01*
X101775000Y-83071500D01*
G75*
G02*
X101950000Y-83246500I0J-175000D01*
G01*
X101950000Y-84901500D01*
G75*
G02*
X101775000Y-85076500I-175000J0D01*
G01*
G37*
G36*
G01*
X103045000Y-85076500D02*
X102695000Y-85076500D01*
G75*
G02*
X102520000Y-84901500I0J175000D01*
G01*
X102520000Y-83246500D01*
G75*
G02*
X102695000Y-83071500I175000J0D01*
G01*
X103045000Y-83071500D01*
G75*
G02*
X103220000Y-83246500I0J-175000D01*
G01*
X103220000Y-84901500D01*
G75*
G02*
X103045000Y-85076500I-175000J0D01*
G01*
G37*
G36*
G01*
X104315000Y-85076500D02*
X103965000Y-85076500D01*
G75*
G02*
X103790000Y-84901500I0J175000D01*
G01*
X103790000Y-83246500D01*
G75*
G02*
X103965000Y-83071500I175000J0D01*
G01*
X104315000Y-83071500D01*
G75*
G02*
X104490000Y-83246500I0J-175000D01*
G01*
X104490000Y-84901500D01*
G75*
G02*
X104315000Y-85076500I-175000J0D01*
G01*
G37*
G36*
G01*
X105585000Y-85076500D02*
X105235000Y-85076500D01*
G75*
G02*
X105060000Y-84901500I0J175000D01*
G01*
X105060000Y-83246500D01*
G75*
G02*
X105235000Y-83071500I175000J0D01*
G01*
X105585000Y-83071500D01*
G75*
G02*
X105760000Y-83246500I0J-175000D01*
G01*
X105760000Y-84901500D01*
G75*
G02*
X105585000Y-85076500I-175000J0D01*
G01*
G37*
G36*
G01*
X105585000Y-97014500D02*
X105235000Y-97014500D01*
G75*
G02*
X105060000Y-96839500I0J175000D01*
G01*
X105060000Y-95184500D01*
G75*
G02*
X105235000Y-95009500I175000J0D01*
G01*
X105585000Y-95009500D01*
G75*
G02*
X105760000Y-95184500I0J-175000D01*
G01*
X105760000Y-96839500D01*
G75*
G02*
X105585000Y-97014500I-175000J0D01*
G01*
G37*
G36*
G01*
X104315000Y-97014500D02*
X103965000Y-97014500D01*
G75*
G02*
X103790000Y-96839500I0J175000D01*
G01*
X103790000Y-95184500D01*
G75*
G02*
X103965000Y-95009500I175000J0D01*
G01*
X104315000Y-95009500D01*
G75*
G02*
X104490000Y-95184500I0J-175000D01*
G01*
X104490000Y-96839500D01*
G75*
G02*
X104315000Y-97014500I-175000J0D01*
G01*
G37*
G36*
G01*
X103045000Y-97014500D02*
X102695000Y-97014500D01*
G75*
G02*
X102520000Y-96839500I0J175000D01*
G01*
X102520000Y-95184500D01*
G75*
G02*
X102695000Y-95009500I175000J0D01*
G01*
X103045000Y-95009500D01*
G75*
G02*
X103220000Y-95184500I0J-175000D01*
G01*
X103220000Y-96839500D01*
G75*
G02*
X103045000Y-97014500I-175000J0D01*
G01*
G37*
G36*
G01*
X101775000Y-97014500D02*
X101425000Y-97014500D01*
G75*
G02*
X101250000Y-96839500I0J175000D01*
G01*
X101250000Y-95184500D01*
G75*
G02*
X101425000Y-95009500I175000J0D01*
G01*
X101775000Y-95009500D01*
G75*
G02*
X101950000Y-95184500I0J-175000D01*
G01*
X101950000Y-96839500D01*
G75*
G02*
X101775000Y-97014500I-175000J0D01*
G01*
G37*
G36*
G01*
X100505000Y-97014500D02*
X100155000Y-97014500D01*
G75*
G02*
X99980000Y-96839500I0J175000D01*
G01*
X99980000Y-95184500D01*
G75*
G02*
X100155000Y-95009500I175000J0D01*
G01*
X100505000Y-95009500D01*
G75*
G02*
X100680000Y-95184500I0J-175000D01*
G01*
X100680000Y-96839500D01*
G75*
G02*
X100505000Y-97014500I-175000J0D01*
G01*
G37*
G36*
G01*
X99235000Y-97014500D02*
X98885000Y-97014500D01*
G75*
G02*
X98710000Y-96839500I0J175000D01*
G01*
X98710000Y-95184500D01*
G75*
G02*
X98885000Y-95009500I175000J0D01*
G01*
X99235000Y-95009500D01*
G75*
G02*
X99410000Y-95184500I0J-175000D01*
G01*
X99410000Y-96839500D01*
G75*
G02*
X99235000Y-97014500I-175000J0D01*
G01*
G37*
G36*
G01*
X97965000Y-97014500D02*
X97615000Y-97014500D01*
G75*
G02*
X97440000Y-96839500I0J175000D01*
G01*
X97440000Y-95184500D01*
G75*
G02*
X97615000Y-95009500I175000J0D01*
G01*
X97965000Y-95009500D01*
G75*
G02*
X98140000Y-95184500I0J-175000D01*
G01*
X98140000Y-96839500D01*
G75*
G02*
X97965000Y-97014500I-175000J0D01*
G01*
G37*
G36*
G01*
X96695000Y-97014500D02*
X96345000Y-97014500D01*
G75*
G02*
X96170000Y-96839500I0J175000D01*
G01*
X96170000Y-95184500D01*
G75*
G02*
X96345000Y-95009500I175000J0D01*
G01*
X96695000Y-95009500D01*
G75*
G02*
X96870000Y-95184500I0J-175000D01*
G01*
X96870000Y-96839500D01*
G75*
G02*
X96695000Y-97014500I-175000J0D01*
G01*
G37*
G36*
G01*
X95425000Y-97014500D02*
X95075000Y-97014500D01*
G75*
G02*
X94900000Y-96839500I0J175000D01*
G01*
X94900000Y-95184500D01*
G75*
G02*
X95075000Y-95009500I175000J0D01*
G01*
X95425000Y-95009500D01*
G75*
G02*
X95600000Y-95184500I0J-175000D01*
G01*
X95600000Y-96839500D01*
G75*
G02*
X95425000Y-97014500I-175000J0D01*
G01*
G37*
G36*
G01*
X94155000Y-97014500D02*
X93805000Y-97014500D01*
G75*
G02*
X93630000Y-96839500I0J175000D01*
G01*
X93630000Y-95184500D01*
G75*
G02*
X93805000Y-95009500I175000J0D01*
G01*
X94155000Y-95009500D01*
G75*
G02*
X94330000Y-95184500I0J-175000D01*
G01*
X94330000Y-96839500D01*
G75*
G02*
X94155000Y-97014500I-175000J0D01*
G01*
G37*
G36*
G01*
X92885000Y-97014500D02*
X92535000Y-97014500D01*
G75*
G02*
X92360000Y-96839500I0J175000D01*
G01*
X92360000Y-95184500D01*
G75*
G02*
X92535000Y-95009500I175000J0D01*
G01*
X92885000Y-95009500D01*
G75*
G02*
X93060000Y-95184500I0J-175000D01*
G01*
X93060000Y-96839500D01*
G75*
G02*
X92885000Y-97014500I-175000J0D01*
G01*
G37*
G36*
G01*
X91615000Y-97014500D02*
X91265000Y-97014500D01*
G75*
G02*
X91090000Y-96839500I0J175000D01*
G01*
X91090000Y-95184500D01*
G75*
G02*
X91265000Y-95009500I175000J0D01*
G01*
X91615000Y-95009500D01*
G75*
G02*
X91790000Y-95184500I0J-175000D01*
G01*
X91790000Y-96839500D01*
G75*
G02*
X91615000Y-97014500I-175000J0D01*
G01*
G37*
G36*
G01*
X90345000Y-97014500D02*
X89995000Y-97014500D01*
G75*
G02*
X89820000Y-96839500I0J175000D01*
G01*
X89820000Y-95184500D01*
G75*
G02*
X89995000Y-95009500I175000J0D01*
G01*
X90345000Y-95009500D01*
G75*
G02*
X90520000Y-95184500I0J-175000D01*
G01*
X90520000Y-96839500D01*
G75*
G02*
X90345000Y-97014500I-175000J0D01*
G01*
G37*
G36*
G01*
X89075000Y-97014500D02*
X88725000Y-97014500D01*
G75*
G02*
X88550000Y-96839500I0J175000D01*
G01*
X88550000Y-95184500D01*
G75*
G02*
X88725000Y-95009500I175000J0D01*
G01*
X89075000Y-95009500D01*
G75*
G02*
X89250000Y-95184500I0J-175000D01*
G01*
X89250000Y-96839500D01*
G75*
G02*
X89075000Y-97014500I-175000J0D01*
G01*
G37*
G36*
G01*
X87805000Y-97014500D02*
X87455000Y-97014500D01*
G75*
G02*
X87280000Y-96839500I0J175000D01*
G01*
X87280000Y-95184500D01*
G75*
G02*
X87455000Y-95009500I175000J0D01*
G01*
X87805000Y-95009500D01*
G75*
G02*
X87980000Y-95184500I0J-175000D01*
G01*
X87980000Y-96839500D01*
G75*
G02*
X87805000Y-97014500I-175000J0D01*
G01*
G37*
G36*
G01*
X86535000Y-97014500D02*
X86185000Y-97014500D01*
G75*
G02*
X86010000Y-96839500I0J175000D01*
G01*
X86010000Y-95184500D01*
G75*
G02*
X86185000Y-95009500I175000J0D01*
G01*
X86535000Y-95009500D01*
G75*
G02*
X86710000Y-95184500I0J-175000D01*
G01*
X86710000Y-96839500D01*
G75*
G02*
X86535000Y-97014500I-175000J0D01*
G01*
G37*
G36*
G01*
X120825000Y-85076500D02*
X120475000Y-85076500D01*
G75*
G02*
X120300000Y-84901500I0J175000D01*
G01*
X120300000Y-83246500D01*
G75*
G02*
X120475000Y-83071500I175000J0D01*
G01*
X120825000Y-83071500D01*
G75*
G02*
X121000000Y-83246500I0J-175000D01*
G01*
X121000000Y-84901500D01*
G75*
G02*
X120825000Y-85076500I-175000J0D01*
G01*
G37*
G36*
G01*
X122095000Y-85076500D02*
X121745000Y-85076500D01*
G75*
G02*
X121570000Y-84901500I0J175000D01*
G01*
X121570000Y-83246500D01*
G75*
G02*
X121745000Y-83071500I175000J0D01*
G01*
X122095000Y-83071500D01*
G75*
G02*
X122270000Y-83246500I0J-175000D01*
G01*
X122270000Y-84901500D01*
G75*
G02*
X122095000Y-85076500I-175000J0D01*
G01*
G37*
G36*
G01*
X123365000Y-85076500D02*
X123015000Y-85076500D01*
G75*
G02*
X122840000Y-84901500I0J175000D01*
G01*
X122840000Y-83246500D01*
G75*
G02*
X123015000Y-83071500I175000J0D01*
G01*
X123365000Y-83071500D01*
G75*
G02*
X123540000Y-83246500I0J-175000D01*
G01*
X123540000Y-84901500D01*
G75*
G02*
X123365000Y-85076500I-175000J0D01*
G01*
G37*
G36*
G01*
X124635000Y-85076500D02*
X124285000Y-85076500D01*
G75*
G02*
X124110000Y-84901500I0J175000D01*
G01*
X124110000Y-83246500D01*
G75*
G02*
X124285000Y-83071500I175000J0D01*
G01*
X124635000Y-83071500D01*
G75*
G02*
X124810000Y-83246500I0J-175000D01*
G01*
X124810000Y-84901500D01*
G75*
G02*
X124635000Y-85076500I-175000J0D01*
G01*
G37*
G36*
G01*
X125905000Y-85076500D02*
X125555000Y-85076500D01*
G75*
G02*
X125380000Y-84901500I0J175000D01*
G01*
X125380000Y-83246500D01*
G75*
G02*
X125555000Y-83071500I175000J0D01*
G01*
X125905000Y-83071500D01*
G75*
G02*
X126080000Y-83246500I0J-175000D01*
G01*
X126080000Y-84901500D01*
G75*
G02*
X125905000Y-85076500I-175000J0D01*
G01*
G37*
G36*
G01*
X127175000Y-85076500D02*
X126825000Y-85076500D01*
G75*
G02*
X126650000Y-84901500I0J175000D01*
G01*
X126650000Y-83246500D01*
G75*
G02*
X126825000Y-83071500I175000J0D01*
G01*
X127175000Y-83071500D01*
G75*
G02*
X127350000Y-83246500I0J-175000D01*
G01*
X127350000Y-84901500D01*
G75*
G02*
X127175000Y-85076500I-175000J0D01*
G01*
G37*
G36*
G01*
X128445000Y-85076500D02*
X128095000Y-85076500D01*
G75*
G02*
X127920000Y-84901500I0J175000D01*
G01*
X127920000Y-83246500D01*
G75*
G02*
X128095000Y-83071500I175000J0D01*
G01*
X128445000Y-83071500D01*
G75*
G02*
X128620000Y-83246500I0J-175000D01*
G01*
X128620000Y-84901500D01*
G75*
G02*
X128445000Y-85076500I-175000J0D01*
G01*
G37*
G36*
G01*
X129715000Y-85076500D02*
X129365000Y-85076500D01*
G75*
G02*
X129190000Y-84901500I0J175000D01*
G01*
X129190000Y-83246500D01*
G75*
G02*
X129365000Y-83071500I175000J0D01*
G01*
X129715000Y-83071500D01*
G75*
G02*
X129890000Y-83246500I0J-175000D01*
G01*
X129890000Y-84901500D01*
G75*
G02*
X129715000Y-85076500I-175000J0D01*
G01*
G37*
G36*
G01*
X130985000Y-85076500D02*
X130635000Y-85076500D01*
G75*
G02*
X130460000Y-84901500I0J175000D01*
G01*
X130460000Y-83246500D01*
G75*
G02*
X130635000Y-83071500I175000J0D01*
G01*
X130985000Y-83071500D01*
G75*
G02*
X131160000Y-83246500I0J-175000D01*
G01*
X131160000Y-84901500D01*
G75*
G02*
X130985000Y-85076500I-175000J0D01*
G01*
G37*
G36*
G01*
X132255000Y-85076500D02*
X131905000Y-85076500D01*
G75*
G02*
X131730000Y-84901500I0J175000D01*
G01*
X131730000Y-83246500D01*
G75*
G02*
X131905000Y-83071500I175000J0D01*
G01*
X132255000Y-83071500D01*
G75*
G02*
X132430000Y-83246500I0J-175000D01*
G01*
X132430000Y-84901500D01*
G75*
G02*
X132255000Y-85076500I-175000J0D01*
G01*
G37*
G36*
G01*
X133525000Y-85076500D02*
X133175000Y-85076500D01*
G75*
G02*
X133000000Y-84901500I0J175000D01*
G01*
X133000000Y-83246500D01*
G75*
G02*
X133175000Y-83071500I175000J0D01*
G01*
X133525000Y-83071500D01*
G75*
G02*
X133700000Y-83246500I0J-175000D01*
G01*
X133700000Y-84901500D01*
G75*
G02*
X133525000Y-85076500I-175000J0D01*
G01*
G37*
G36*
G01*
X134795000Y-85076500D02*
X134445000Y-85076500D01*
G75*
G02*
X134270000Y-84901500I0J175000D01*
G01*
X134270000Y-83246500D01*
G75*
G02*
X134445000Y-83071500I175000J0D01*
G01*
X134795000Y-83071500D01*
G75*
G02*
X134970000Y-83246500I0J-175000D01*
G01*
X134970000Y-84901500D01*
G75*
G02*
X134795000Y-85076500I-175000J0D01*
G01*
G37*
G36*
G01*
X136065000Y-85076500D02*
X135715000Y-85076500D01*
G75*
G02*
X135540000Y-84901500I0J175000D01*
G01*
X135540000Y-83246500D01*
G75*
G02*
X135715000Y-83071500I175000J0D01*
G01*
X136065000Y-83071500D01*
G75*
G02*
X136240000Y-83246500I0J-175000D01*
G01*
X136240000Y-84901500D01*
G75*
G02*
X136065000Y-85076500I-175000J0D01*
G01*
G37*
G36*
G01*
X137335000Y-85076500D02*
X136985000Y-85076500D01*
G75*
G02*
X136810000Y-84901500I0J175000D01*
G01*
X136810000Y-83246500D01*
G75*
G02*
X136985000Y-83071500I175000J0D01*
G01*
X137335000Y-83071500D01*
G75*
G02*
X137510000Y-83246500I0J-175000D01*
G01*
X137510000Y-84901500D01*
G75*
G02*
X137335000Y-85076500I-175000J0D01*
G01*
G37*
G36*
G01*
X138605000Y-85076500D02*
X138255000Y-85076500D01*
G75*
G02*
X138080000Y-84901500I0J175000D01*
G01*
X138080000Y-83246500D01*
G75*
G02*
X138255000Y-83071500I175000J0D01*
G01*
X138605000Y-83071500D01*
G75*
G02*
X138780000Y-83246500I0J-175000D01*
G01*
X138780000Y-84901500D01*
G75*
G02*
X138605000Y-85076500I-175000J0D01*
G01*
G37*
G36*
G01*
X139875000Y-85076500D02*
X139525000Y-85076500D01*
G75*
G02*
X139350000Y-84901500I0J175000D01*
G01*
X139350000Y-83246500D01*
G75*
G02*
X139525000Y-83071500I175000J0D01*
G01*
X139875000Y-83071500D01*
G75*
G02*
X140050000Y-83246500I0J-175000D01*
G01*
X140050000Y-84901500D01*
G75*
G02*
X139875000Y-85076500I-175000J0D01*
G01*
G37*
G36*
G01*
X139875000Y-97014500D02*
X139525000Y-97014500D01*
G75*
G02*
X139350000Y-96839500I0J175000D01*
G01*
X139350000Y-95184500D01*
G75*
G02*
X139525000Y-95009500I175000J0D01*
G01*
X139875000Y-95009500D01*
G75*
G02*
X140050000Y-95184500I0J-175000D01*
G01*
X140050000Y-96839500D01*
G75*
G02*
X139875000Y-97014500I-175000J0D01*
G01*
G37*
G36*
G01*
X138605000Y-97014500D02*
X138255000Y-97014500D01*
G75*
G02*
X138080000Y-96839500I0J175000D01*
G01*
X138080000Y-95184500D01*
G75*
G02*
X138255000Y-95009500I175000J0D01*
G01*
X138605000Y-95009500D01*
G75*
G02*
X138780000Y-95184500I0J-175000D01*
G01*
X138780000Y-96839500D01*
G75*
G02*
X138605000Y-97014500I-175000J0D01*
G01*
G37*
G36*
G01*
X137335000Y-97014500D02*
X136985000Y-97014500D01*
G75*
G02*
X136810000Y-96839500I0J175000D01*
G01*
X136810000Y-95184500D01*
G75*
G02*
X136985000Y-95009500I175000J0D01*
G01*
X137335000Y-95009500D01*
G75*
G02*
X137510000Y-95184500I0J-175000D01*
G01*
X137510000Y-96839500D01*
G75*
G02*
X137335000Y-97014500I-175000J0D01*
G01*
G37*
G36*
G01*
X136065000Y-97014500D02*
X135715000Y-97014500D01*
G75*
G02*
X135540000Y-96839500I0J175000D01*
G01*
X135540000Y-95184500D01*
G75*
G02*
X135715000Y-95009500I175000J0D01*
G01*
X136065000Y-95009500D01*
G75*
G02*
X136240000Y-95184500I0J-175000D01*
G01*
X136240000Y-96839500D01*
G75*
G02*
X136065000Y-97014500I-175000J0D01*
G01*
G37*
G36*
G01*
X134795000Y-97014500D02*
X134445000Y-97014500D01*
G75*
G02*
X134270000Y-96839500I0J175000D01*
G01*
X134270000Y-95184500D01*
G75*
G02*
X134445000Y-95009500I175000J0D01*
G01*
X134795000Y-95009500D01*
G75*
G02*
X134970000Y-95184500I0J-175000D01*
G01*
X134970000Y-96839500D01*
G75*
G02*
X134795000Y-97014500I-175000J0D01*
G01*
G37*
G36*
G01*
X133525000Y-97014500D02*
X133175000Y-97014500D01*
G75*
G02*
X133000000Y-96839500I0J175000D01*
G01*
X133000000Y-95184500D01*
G75*
G02*
X133175000Y-95009500I175000J0D01*
G01*
X133525000Y-95009500D01*
G75*
G02*
X133700000Y-95184500I0J-175000D01*
G01*
X133700000Y-96839500D01*
G75*
G02*
X133525000Y-97014500I-175000J0D01*
G01*
G37*
G36*
G01*
X132255000Y-97014500D02*
X131905000Y-97014500D01*
G75*
G02*
X131730000Y-96839500I0J175000D01*
G01*
X131730000Y-95184500D01*
G75*
G02*
X131905000Y-95009500I175000J0D01*
G01*
X132255000Y-95009500D01*
G75*
G02*
X132430000Y-95184500I0J-175000D01*
G01*
X132430000Y-96839500D01*
G75*
G02*
X132255000Y-97014500I-175000J0D01*
G01*
G37*
G36*
G01*
X130985000Y-97014500D02*
X130635000Y-97014500D01*
G75*
G02*
X130460000Y-96839500I0J175000D01*
G01*
X130460000Y-95184500D01*
G75*
G02*
X130635000Y-95009500I175000J0D01*
G01*
X130985000Y-95009500D01*
G75*
G02*
X131160000Y-95184500I0J-175000D01*
G01*
X131160000Y-96839500D01*
G75*
G02*
X130985000Y-97014500I-175000J0D01*
G01*
G37*
G36*
G01*
X129715000Y-97014500D02*
X129365000Y-97014500D01*
G75*
G02*
X129190000Y-96839500I0J175000D01*
G01*
X129190000Y-95184500D01*
G75*
G02*
X129365000Y-95009500I175000J0D01*
G01*
X129715000Y-95009500D01*
G75*
G02*
X129890000Y-95184500I0J-175000D01*
G01*
X129890000Y-96839500D01*
G75*
G02*
X129715000Y-97014500I-175000J0D01*
G01*
G37*
G36*
G01*
X128445000Y-97014500D02*
X128095000Y-97014500D01*
G75*
G02*
X127920000Y-96839500I0J175000D01*
G01*
X127920000Y-95184500D01*
G75*
G02*
X128095000Y-95009500I175000J0D01*
G01*
X128445000Y-95009500D01*
G75*
G02*
X128620000Y-95184500I0J-175000D01*
G01*
X128620000Y-96839500D01*
G75*
G02*
X128445000Y-97014500I-175000J0D01*
G01*
G37*
G36*
G01*
X127175000Y-97014500D02*
X126825000Y-97014500D01*
G75*
G02*
X126650000Y-96839500I0J175000D01*
G01*
X126650000Y-95184500D01*
G75*
G02*
X126825000Y-95009500I175000J0D01*
G01*
X127175000Y-95009500D01*
G75*
G02*
X127350000Y-95184500I0J-175000D01*
G01*
X127350000Y-96839500D01*
G75*
G02*
X127175000Y-97014500I-175000J0D01*
G01*
G37*
G36*
G01*
X125905000Y-97014500D02*
X125555000Y-97014500D01*
G75*
G02*
X125380000Y-96839500I0J175000D01*
G01*
X125380000Y-95184500D01*
G75*
G02*
X125555000Y-95009500I175000J0D01*
G01*
X125905000Y-95009500D01*
G75*
G02*
X126080000Y-95184500I0J-175000D01*
G01*
X126080000Y-96839500D01*
G75*
G02*
X125905000Y-97014500I-175000J0D01*
G01*
G37*
G36*
G01*
X124635000Y-97014500D02*
X124285000Y-97014500D01*
G75*
G02*
X124110000Y-96839500I0J175000D01*
G01*
X124110000Y-95184500D01*
G75*
G02*
X124285000Y-95009500I175000J0D01*
G01*
X124635000Y-95009500D01*
G75*
G02*
X124810000Y-95184500I0J-175000D01*
G01*
X124810000Y-96839500D01*
G75*
G02*
X124635000Y-97014500I-175000J0D01*
G01*
G37*
G36*
G01*
X123365000Y-97014500D02*
X123015000Y-97014500D01*
G75*
G02*
X122840000Y-96839500I0J175000D01*
G01*
X122840000Y-95184500D01*
G75*
G02*
X123015000Y-95009500I175000J0D01*
G01*
X123365000Y-95009500D01*
G75*
G02*
X123540000Y-95184500I0J-175000D01*
G01*
X123540000Y-96839500D01*
G75*
G02*
X123365000Y-97014500I-175000J0D01*
G01*
G37*
G36*
G01*
X122095000Y-97014500D02*
X121745000Y-97014500D01*
G75*
G02*
X121570000Y-96839500I0J175000D01*
G01*
X121570000Y-95184500D01*
G75*
G02*
X121745000Y-95009500I175000J0D01*
G01*
X122095000Y-95009500D01*
G75*
G02*
X122270000Y-95184500I0J-175000D01*
G01*
X122270000Y-96839500D01*
G75*
G02*
X122095000Y-97014500I-175000J0D01*
G01*
G37*
G36*
G01*
X120825000Y-97014500D02*
X120475000Y-97014500D01*
G75*
G02*
X120300000Y-96839500I0J175000D01*
G01*
X120300000Y-95184500D01*
G75*
G02*
X120475000Y-95009500I175000J0D01*
G01*
X120825000Y-95009500D01*
G75*
G02*
X121000000Y-95184500I0J-175000D01*
G01*
X121000000Y-96839500D01*
G75*
G02*
X120825000Y-97014500I-175000J0D01*
G01*
G37*
D13*
X163576000Y-100076000D03*
X79756000Y-100076000D03*
X163576000Y-82296000D03*
G36*
G01*
X82854800Y-100939600D02*
X82854800Y-99212400D01*
G75*
G02*
X83337400Y-98729800I482600J0D01*
G01*
X84302600Y-98729800D01*
G75*
G02*
X84785200Y-99212400I0J-482600D01*
G01*
X84785200Y-100939600D01*
G75*
G02*
X84302600Y-101422200I-482600J0D01*
G01*
X83337400Y-101422200D01*
G75*
G02*
X82854800Y-100939600I0J482600D01*
G01*
G37*
G36*
G01*
X85394800Y-100939600D02*
X85394800Y-99212400D01*
G75*
G02*
X85877400Y-98729800I482600J0D01*
G01*
X86842600Y-98729800D01*
G75*
G02*
X87325200Y-99212400I0J-482600D01*
G01*
X87325200Y-100939600D01*
G75*
G02*
X86842600Y-101422200I-482600J0D01*
G01*
X85877400Y-101422200D01*
G75*
G02*
X85394800Y-100939600I0J482600D01*
G01*
G37*
D14*
X88900000Y-98806000D03*
G36*
G01*
X108254800Y-100939600D02*
X108254800Y-99212400D01*
G75*
G02*
X108737400Y-98729800I482600J0D01*
G01*
X109702600Y-98729800D01*
G75*
G02*
X110185200Y-99212400I0J-482600D01*
G01*
X110185200Y-100939600D01*
G75*
G02*
X109702600Y-101422200I-482600J0D01*
G01*
X108737400Y-101422200D01*
G75*
G02*
X108254800Y-100939600I0J482600D01*
G01*
G37*
G36*
G01*
X93014800Y-100939600D02*
X93014800Y-99212400D01*
G75*
G02*
X93497400Y-98729800I482600J0D01*
G01*
X94462600Y-98729800D01*
G75*
G02*
X94945200Y-99212400I0J-482600D01*
G01*
X94945200Y-100939600D01*
G75*
G02*
X94462600Y-101422200I-482600J0D01*
G01*
X93497400Y-101422200D01*
G75*
G02*
X93014800Y-100939600I0J482600D01*
G01*
G37*
G36*
G01*
X110794800Y-100939600D02*
X110794800Y-99212400D01*
G75*
G02*
X111277400Y-98729800I482600J0D01*
G01*
X112242600Y-98729800D01*
G75*
G02*
X112725200Y-99212400I0J-482600D01*
G01*
X112725200Y-100939600D01*
G75*
G02*
X112242600Y-101422200I-482600J0D01*
G01*
X111277400Y-101422200D01*
G75*
G02*
X110794800Y-100939600I0J482600D01*
G01*
G37*
G36*
G01*
X146354800Y-100939600D02*
X146354800Y-99212400D01*
G75*
G02*
X146837400Y-98729800I482600J0D01*
G01*
X147802600Y-98729800D01*
G75*
G02*
X148285200Y-99212400I0J-482600D01*
G01*
X148285200Y-100939600D01*
G75*
G02*
X147802600Y-101422200I-482600J0D01*
G01*
X146837400Y-101422200D01*
G75*
G02*
X146354800Y-100939600I0J482600D01*
G01*
G37*
G36*
G01*
X113334800Y-100939600D02*
X113334800Y-99212400D01*
G75*
G02*
X113817400Y-98729800I482600J0D01*
G01*
X114782600Y-98729800D01*
G75*
G02*
X115265200Y-99212400I0J-482600D01*
G01*
X115265200Y-100939600D01*
G75*
G02*
X114782600Y-101422200I-482600J0D01*
G01*
X113817400Y-101422200D01*
G75*
G02*
X113334800Y-100939600I0J482600D01*
G01*
G37*
G36*
G01*
X115874800Y-100939600D02*
X115874800Y-99212400D01*
G75*
G02*
X116357400Y-98729800I482600J0D01*
G01*
X117322600Y-98729800D01*
G75*
G02*
X117805200Y-99212400I0J-482600D01*
G01*
X117805200Y-100939600D01*
G75*
G02*
X117322600Y-101422200I-482600J0D01*
G01*
X116357400Y-101422200D01*
G75*
G02*
X115874800Y-100939600I0J482600D01*
G01*
G37*
G36*
G01*
X90474800Y-100939600D02*
X90474800Y-99212400D01*
G75*
G02*
X90957400Y-98729800I482600J0D01*
G01*
X91922600Y-98729800D01*
G75*
G02*
X92405200Y-99212400I0J-482600D01*
G01*
X92405200Y-100939600D01*
G75*
G02*
X91922600Y-101422200I-482600J0D01*
G01*
X90957400Y-101422200D01*
G75*
G02*
X90474800Y-100939600I0J482600D01*
G01*
G37*
G36*
G01*
X153974800Y-100939600D02*
X153974800Y-99212400D01*
G75*
G02*
X154457400Y-98729800I482600J0D01*
G01*
X155422600Y-98729800D01*
G75*
G02*
X155905200Y-99212400I0J-482600D01*
G01*
X155905200Y-100939600D01*
G75*
G02*
X155422600Y-101422200I-482600J0D01*
G01*
X154457400Y-101422200D01*
G75*
G02*
X153974800Y-100939600I0J482600D01*
G01*
G37*
G36*
G01*
X87934800Y-100939600D02*
X87934800Y-99212400D01*
G75*
G02*
X88417400Y-98729800I482600J0D01*
G01*
X89382600Y-98729800D01*
G75*
G02*
X89865200Y-99212400I0J-482600D01*
G01*
X89865200Y-100939600D01*
G75*
G02*
X89382600Y-101422200I-482600J0D01*
G01*
X88417400Y-101422200D01*
G75*
G02*
X87934800Y-100939600I0J482600D01*
G01*
G37*
G36*
G01*
X141274800Y-100939600D02*
X141274800Y-99212400D01*
G75*
G02*
X141757400Y-98729800I482600J0D01*
G01*
X142722600Y-98729800D01*
G75*
G02*
X143205200Y-99212400I0J-482600D01*
G01*
X143205200Y-100939600D01*
G75*
G02*
X142722600Y-101422200I-482600J0D01*
G01*
X141757400Y-101422200D01*
G75*
G02*
X141274800Y-100939600I0J482600D01*
G01*
G37*
G36*
G01*
X120954800Y-100939600D02*
X120954800Y-99212400D01*
G75*
G02*
X121437400Y-98729800I482600J0D01*
G01*
X122402600Y-98729800D01*
G75*
G02*
X122885200Y-99212400I0J-482600D01*
G01*
X122885200Y-100939600D01*
G75*
G02*
X122402600Y-101422200I-482600J0D01*
G01*
X121437400Y-101422200D01*
G75*
G02*
X120954800Y-100939600I0J482600D01*
G01*
G37*
G36*
G01*
X131114800Y-100939600D02*
X131114800Y-99212400D01*
G75*
G02*
X131597400Y-98729800I482600J0D01*
G01*
X132562600Y-98729800D01*
G75*
G02*
X133045200Y-99212400I0J-482600D01*
G01*
X133045200Y-100939600D01*
G75*
G02*
X132562600Y-101422200I-482600J0D01*
G01*
X131597400Y-101422200D01*
G75*
G02*
X131114800Y-100939600I0J482600D01*
G01*
G37*
G36*
G01*
X138734800Y-100939600D02*
X138734800Y-99212400D01*
G75*
G02*
X139217400Y-98729800I482600J0D01*
G01*
X140182600Y-98729800D01*
G75*
G02*
X140665200Y-99212400I0J-482600D01*
G01*
X140665200Y-100939600D01*
G75*
G02*
X140182600Y-101422200I-482600J0D01*
G01*
X139217400Y-101422200D01*
G75*
G02*
X138734800Y-100939600I0J482600D01*
G01*
G37*
G36*
G01*
X103174800Y-100939600D02*
X103174800Y-99212400D01*
G75*
G02*
X103657400Y-98729800I482600J0D01*
G01*
X104622600Y-98729800D01*
G75*
G02*
X105105200Y-99212400I0J-482600D01*
G01*
X105105200Y-100939600D01*
G75*
G02*
X104622600Y-101422200I-482600J0D01*
G01*
X103657400Y-101422200D01*
G75*
G02*
X103174800Y-100939600I0J482600D01*
G01*
G37*
G36*
G01*
X126034800Y-100939600D02*
X126034800Y-99212400D01*
G75*
G02*
X126517400Y-98729800I482600J0D01*
G01*
X127482600Y-98729800D01*
G75*
G02*
X127965200Y-99212400I0J-482600D01*
G01*
X127965200Y-100939600D01*
G75*
G02*
X127482600Y-101422200I-482600J0D01*
G01*
X126517400Y-101422200D01*
G75*
G02*
X126034800Y-100939600I0J482600D01*
G01*
G37*
G36*
G01*
X133654800Y-100939600D02*
X133654800Y-99212400D01*
G75*
G02*
X134137400Y-98729800I482600J0D01*
G01*
X135102600Y-98729800D01*
G75*
G02*
X135585200Y-99212400I0J-482600D01*
G01*
X135585200Y-100939600D01*
G75*
G02*
X135102600Y-101422200I-482600J0D01*
G01*
X134137400Y-101422200D01*
G75*
G02*
X133654800Y-100939600I0J482600D01*
G01*
G37*
G36*
G01*
X128574800Y-100939600D02*
X128574800Y-99212400D01*
G75*
G02*
X129057400Y-98729800I482600J0D01*
G01*
X130022600Y-98729800D01*
G75*
G02*
X130505200Y-99212400I0J-482600D01*
G01*
X130505200Y-100939600D01*
G75*
G02*
X130022600Y-101422200I-482600J0D01*
G01*
X129057400Y-101422200D01*
G75*
G02*
X128574800Y-100939600I0J482600D01*
G01*
G37*
G36*
G01*
X105714800Y-100939600D02*
X105714800Y-99212400D01*
G75*
G02*
X106197400Y-98729800I482600J0D01*
G01*
X107162600Y-98729800D01*
G75*
G02*
X107645200Y-99212400I0J-482600D01*
G01*
X107645200Y-100939600D01*
G75*
G02*
X107162600Y-101422200I-482600J0D01*
G01*
X106197400Y-101422200D01*
G75*
G02*
X105714800Y-100939600I0J482600D01*
G01*
G37*
G36*
G01*
X136194800Y-100939600D02*
X136194800Y-99212400D01*
G75*
G02*
X136677400Y-98729800I482600J0D01*
G01*
X137642600Y-98729800D01*
G75*
G02*
X138125200Y-99212400I0J-482600D01*
G01*
X138125200Y-100939600D01*
G75*
G02*
X137642600Y-101422200I-482600J0D01*
G01*
X136677400Y-101422200D01*
G75*
G02*
X136194800Y-100939600I0J482600D01*
G01*
G37*
G36*
G01*
X95554800Y-100939600D02*
X95554800Y-99212400D01*
G75*
G02*
X96037400Y-98729800I482600J0D01*
G01*
X97002600Y-98729800D01*
G75*
G02*
X97485200Y-99212400I0J-482600D01*
G01*
X97485200Y-100939600D01*
G75*
G02*
X97002600Y-101422200I-482600J0D01*
G01*
X96037400Y-101422200D01*
G75*
G02*
X95554800Y-100939600I0J482600D01*
G01*
G37*
G36*
G01*
X123494800Y-100939600D02*
X123494800Y-99212400D01*
G75*
G02*
X123977400Y-98729800I482600J0D01*
G01*
X124942600Y-98729800D01*
G75*
G02*
X125425200Y-99212400I0J-482600D01*
G01*
X125425200Y-100939600D01*
G75*
G02*
X124942600Y-101422200I-482600J0D01*
G01*
X123977400Y-101422200D01*
G75*
G02*
X123494800Y-100939600I0J482600D01*
G01*
G37*
G36*
G01*
X98094800Y-100939600D02*
X98094800Y-99212400D01*
G75*
G02*
X98577400Y-98729800I482600J0D01*
G01*
X99542600Y-98729800D01*
G75*
G02*
X100025200Y-99212400I0J-482600D01*
G01*
X100025200Y-100939600D01*
G75*
G02*
X99542600Y-101422200I-482600J0D01*
G01*
X98577400Y-101422200D01*
G75*
G02*
X98094800Y-100939600I0J482600D01*
G01*
G37*
G36*
G01*
X100634800Y-100939600D02*
X100634800Y-99212400D01*
G75*
G02*
X101117400Y-98729800I482600J0D01*
G01*
X102082600Y-98729800D01*
G75*
G02*
X102565200Y-99212400I0J-482600D01*
G01*
X102565200Y-100939600D01*
G75*
G02*
X102082600Y-101422200I-482600J0D01*
G01*
X101117400Y-101422200D01*
G75*
G02*
X100634800Y-100939600I0J482600D01*
G01*
G37*
G36*
G01*
X148894800Y-100939600D02*
X148894800Y-99212400D01*
G75*
G02*
X149377400Y-98729800I482600J0D01*
G01*
X150342600Y-98729800D01*
G75*
G02*
X150825200Y-99212400I0J-482600D01*
G01*
X150825200Y-100939600D01*
G75*
G02*
X150342600Y-101422200I-482600J0D01*
G01*
X149377400Y-101422200D01*
G75*
G02*
X148894800Y-100939600I0J482600D01*
G01*
G37*
G36*
G01*
X151434800Y-100939600D02*
X151434800Y-99212400D01*
G75*
G02*
X151917400Y-98729800I482600J0D01*
G01*
X152882600Y-98729800D01*
G75*
G02*
X153365200Y-99212400I0J-482600D01*
G01*
X153365200Y-100939600D01*
G75*
G02*
X152882600Y-101422200I-482600J0D01*
G01*
X151917400Y-101422200D01*
G75*
G02*
X151434800Y-100939600I0J482600D01*
G01*
G37*
G36*
G01*
X156514800Y-100939600D02*
X156514800Y-99212400D01*
G75*
G02*
X156997400Y-98729800I482600J0D01*
G01*
X157962600Y-98729800D01*
G75*
G02*
X158445200Y-99212400I0J-482600D01*
G01*
X158445200Y-100939600D01*
G75*
G02*
X157962600Y-101422200I-482600J0D01*
G01*
X156997400Y-101422200D01*
G75*
G02*
X156514800Y-100939600I0J482600D01*
G01*
G37*
G36*
G01*
X118414800Y-100939600D02*
X118414800Y-99212400D01*
G75*
G02*
X118897400Y-98729800I482600J0D01*
G01*
X119862600Y-98729800D01*
G75*
G02*
X120345200Y-99212400I0J-482600D01*
G01*
X120345200Y-100939600D01*
G75*
G02*
X119862600Y-101422200I-482600J0D01*
G01*
X118897400Y-101422200D01*
G75*
G02*
X118414800Y-100939600I0J482600D01*
G01*
G37*
G36*
G01*
X143814800Y-100939600D02*
X143814800Y-99212400D01*
G75*
G02*
X144297400Y-98729800I482600J0D01*
G01*
X145262600Y-98729800D01*
G75*
G02*
X145745200Y-99212400I0J-482600D01*
G01*
X145745200Y-100939600D01*
G75*
G02*
X145262600Y-101422200I-482600J0D01*
G01*
X144297400Y-101422200D01*
G75*
G02*
X143814800Y-100939600I0J482600D01*
G01*
G37*
X86360000Y-98806000D03*
X83820000Y-98806000D03*
X93980000Y-98806000D03*
X91440000Y-98806000D03*
X96520000Y-98806000D03*
X99060000Y-98806000D03*
X104140000Y-98806000D03*
X101600000Y-98806000D03*
X109220000Y-98806000D03*
X106680000Y-98806000D03*
X111760000Y-98806000D03*
X116840000Y-98806000D03*
X114300000Y-98806000D03*
X119380000Y-98806000D03*
X124460000Y-98806000D03*
X121920000Y-98806000D03*
X127000000Y-98806000D03*
X149860000Y-98806000D03*
X147320000Y-98806000D03*
X152400000Y-98806000D03*
X134620000Y-98806000D03*
X132080000Y-98806000D03*
X137160000Y-98806000D03*
X142240000Y-98806000D03*
X139700000Y-98806000D03*
X144780000Y-98806000D03*
X129540000Y-98806000D03*
X154940000Y-98806000D03*
X157480000Y-98806000D03*
G36*
G01*
X118572500Y-94950500D02*
X117647500Y-94950500D01*
G75*
G02*
X117360000Y-94663000I0J287500D01*
G01*
X117360000Y-94088000D01*
G75*
G02*
X117647500Y-93800500I287500J0D01*
G01*
X118572500Y-93800500D01*
G75*
G02*
X118860000Y-94088000I0J-287500D01*
G01*
X118860000Y-94663000D01*
G75*
G02*
X118572500Y-94950500I-287500J0D01*
G01*
G37*
G36*
G01*
X118572500Y-96650500D02*
X117647500Y-96650500D01*
G75*
G02*
X117360000Y-96363000I0J287500D01*
G01*
X117360000Y-95788000D01*
G75*
G02*
X117647500Y-95500500I287500J0D01*
G01*
X118572500Y-95500500D01*
G75*
G02*
X118860000Y-95788000I0J-287500D01*
G01*
X118860000Y-96363000D01*
G75*
G02*
X118572500Y-96650500I-287500J0D01*
G01*
G37*
G36*
G01*
X108412500Y-94950500D02*
X107487500Y-94950500D01*
G75*
G02*
X107200000Y-94663000I0J287500D01*
G01*
X107200000Y-94088000D01*
G75*
G02*
X107487500Y-93800500I287500J0D01*
G01*
X108412500Y-93800500D01*
G75*
G02*
X108700000Y-94088000I0J-287500D01*
G01*
X108700000Y-94663000D01*
G75*
G02*
X108412500Y-94950500I-287500J0D01*
G01*
G37*
G36*
G01*
X108412500Y-96650500D02*
X107487500Y-96650500D01*
G75*
G02*
X107200000Y-96363000I0J287500D01*
G01*
X107200000Y-95788000D01*
G75*
G02*
X107487500Y-95500500I287500J0D01*
G01*
X108412500Y-95500500D01*
G75*
G02*
X108700000Y-95788000I0J-287500D01*
G01*
X108700000Y-96363000D01*
G75*
G02*
X108412500Y-96650500I-287500J0D01*
G01*
G37*
G36*
G01*
X142702500Y-94950500D02*
X141777500Y-94950500D01*
G75*
G02*
X141490000Y-94663000I0J287500D01*
G01*
X141490000Y-94088000D01*
G75*
G02*
X141777500Y-93800500I287500J0D01*
G01*
X142702500Y-93800500D01*
G75*
G02*
X142990000Y-94088000I0J-287500D01*
G01*
X142990000Y-94663000D01*
G75*
G02*
X142702500Y-94950500I-287500J0D01*
G01*
G37*
G36*
G01*
X142702500Y-96650500D02*
X141777500Y-96650500D01*
G75*
G02*
X141490000Y-96363000I0J287500D01*
G01*
X141490000Y-95788000D01*
G75*
G02*
X141777500Y-95500500I287500J0D01*
G01*
X142702500Y-95500500D01*
G75*
G02*
X142990000Y-95788000I0J-287500D01*
G01*
X142990000Y-96363000D01*
G75*
G02*
X142702500Y-96650500I-287500J0D01*
G01*
G37*
G36*
G01*
X84282500Y-94950500D02*
X83357500Y-94950500D01*
G75*
G02*
X83070000Y-94663000I0J287500D01*
G01*
X83070000Y-94088000D01*
G75*
G02*
X83357500Y-93800500I287500J0D01*
G01*
X84282500Y-93800500D01*
G75*
G02*
X84570000Y-94088000I0J-287500D01*
G01*
X84570000Y-94663000D01*
G75*
G02*
X84282500Y-94950500I-287500J0D01*
G01*
G37*
G36*
G01*
X84282500Y-96650500D02*
X83357500Y-96650500D01*
G75*
G02*
X83070000Y-96363000I0J287500D01*
G01*
X83070000Y-95788000D01*
G75*
G02*
X83357500Y-95500500I287500J0D01*
G01*
X84282500Y-95500500D01*
G75*
G02*
X84570000Y-95788000I0J-287500D01*
G01*
X84570000Y-96363000D01*
G75*
G02*
X84282500Y-96650500I-287500J0D01*
G01*
G37*
G36*
G01*
X157942500Y-94950500D02*
X157017500Y-94950500D01*
G75*
G02*
X156730000Y-94663000I0J287500D01*
G01*
X156730000Y-94088000D01*
G75*
G02*
X157017500Y-93800500I287500J0D01*
G01*
X157942500Y-93800500D01*
G75*
G02*
X158230000Y-94088000I0J-287500D01*
G01*
X158230000Y-94663000D01*
G75*
G02*
X157942500Y-94950500I-287500J0D01*
G01*
G37*
G36*
G01*
X157942500Y-96650500D02*
X157017500Y-96650500D01*
G75*
G02*
X156730000Y-96363000I0J287500D01*
G01*
X156730000Y-95788000D01*
G75*
G02*
X157017500Y-95500500I287500J0D01*
G01*
X157942500Y-95500500D01*
G75*
G02*
X158230000Y-95788000I0J-287500D01*
G01*
X158230000Y-96363000D01*
G75*
G02*
X157942500Y-96650500I-287500J0D01*
G01*
G37*
G36*
G01*
X82202000Y-85974500D02*
X82202000Y-86999500D01*
G75*
G02*
X81964500Y-87237000I-237500J0D01*
G01*
X81489500Y-87237000D01*
G75*
G02*
X81252000Y-86999500I0J237500D01*
G01*
X81252000Y-85974500D01*
G75*
G02*
X81489500Y-85737000I237500J0D01*
G01*
X81964500Y-85737000D01*
G75*
G02*
X82202000Y-85974500I0J-237500D01*
G01*
G37*
G36*
G01*
X84102000Y-85974500D02*
X84102000Y-86999500D01*
G75*
G02*
X83864500Y-87237000I-237500J0D01*
G01*
X83389500Y-87237000D01*
G75*
G02*
X83152000Y-86999500I0J237500D01*
G01*
X83152000Y-85974500D01*
G75*
G02*
X83389500Y-85737000I237500J0D01*
G01*
X83864500Y-85737000D01*
G75*
G02*
X84102000Y-85974500I0J-237500D01*
G01*
G37*
G36*
G01*
X83152000Y-84967500D02*
X83152000Y-83942500D01*
G75*
G02*
X83389500Y-83705000I237500J0D01*
G01*
X83864500Y-83705000D01*
G75*
G02*
X84102000Y-83942500I0J-237500D01*
G01*
X84102000Y-84967500D01*
G75*
G02*
X83864500Y-85205000I-237500J0D01*
G01*
X83389500Y-85205000D01*
G75*
G02*
X83152000Y-84967500I0J237500D01*
G01*
G37*
G36*
G01*
X81252000Y-84967500D02*
X81252000Y-83942500D01*
G75*
G02*
X81489500Y-83705000I237500J0D01*
G01*
X81964500Y-83705000D01*
G75*
G02*
X82202000Y-83942500I0J-237500D01*
G01*
X82202000Y-84967500D01*
G75*
G02*
X81964500Y-85205000I-237500J0D01*
G01*
X81489500Y-85205000D01*
G75*
G02*
X81252000Y-84967500I0J237500D01*
G01*
G37*
D13*
X77724000Y-82296000D03*
M02*
